<svg version="1.1" xmlns="http://www.w3.org/2000/svg" xmlns:xlink="http://www.w3.org/1999/xlink" width="28.5" height="31.5" viewBox="0,0,28.5,31.5"><g transform="translate(-225.75,-164.25)"><g data-paper-data="{&quot;isPaintingLayer&quot;:true}" fill-rule="evenodd" stroke-miterlimit="4" stroke-dasharray="" stroke-dashoffset="0" style="mix-blend-mode: normal"><path d="M226.5,195h27v-3h-27zM230,188l1.5,-2.5h17l1.5,2.5zM229.5,192v-4h21v4z" fill="#000000" stroke="#000000" stroke-width="1.5" stroke-linecap="butt" stroke-linejoin="round"/><path d="M231.5,185.5v-13h17v13z" fill="#000000" stroke="#000000" stroke-width="1.5" stroke-linecap="butt" stroke-linejoin="miter"/><path d="M231.5,172.5l-3,-2.5h23l-3,2.5zM228.5,170v-5h4v2h5v-2h5v2h5v-2h4v5z" fill="#000000" stroke="#000000" stroke-width="1.5" stroke-linecap="butt" stroke-linejoin="round"/><path d="M229.5,191.5h21M230.5,187.5h19M231.5,185.5h17M231.5,172.5h17M228.5,170h23" fill="none" stroke="#ffffff" stroke-width="1" stroke-linecap="round" stroke-linejoin="miter"/></g></g></svg>