<svg version="1.1" xmlns="http://www.w3.org/2000/svg" xmlns:xlink="http://www.w3.org/1999/xlink" width="28.5581" height="40.78737" viewBox="0,0,28.5581,40.78737"><g transform="translate(-225.72095,-159.60631)"><g stroke="#000000" stroke-width="1.5" stroke-linejoin="round"><g fill-rule="evenodd" stroke-linecap="round" stroke-miterlimit="4"><path d="M240.05442,178.3928c7.99207,0.73279 12.55897,5.86231 12.17839,21.25089h-17.50644c0,-6.5951 7.61149,-4.76313 6.0892,-15.38857" fill="#ffffff"/><path d="M241.57672,184.25511c0.28924,2.13242 -4.22438,5.40066 -6.0892,6.5951c-2.28345,1.46558 -2.14644,3.18031 -3.80575,2.93116c-0.79312,-0.68882 1.07322,-2.22768 0,-2.19837c-0.76115,0 0.14462,0.90133 -0.76115,1.46558c-0.76115,0 -3.04688,0.73279 -3.0446,-2.93116c0,-1.46558 4.5669,-8.79347 4.5669,-8.79347c0,0 1.43857,-1.3923 1.5223,-2.56476c-0.55564,-0.72839 -0.38057,-1.46558 -0.38057,-2.19837c0.76115,-0.73279 2.28345,1.83197 2.28345,1.83197h1.5223c0,0 0.5937,-1.45972 1.90287,-2.19837c0.76115,0 0.76115,2.19837 0.76115,2.19837" fill="#ffffff"/><path d="M230.54005,189.75103c0,0.20235 -0.17039,0.36639 -0.38057,0.36639c-0.21019,0 -0.38057,-0.16404 -0.38057,-0.36639c0,-0.20235 0.17039,-0.36639 0.38057,-0.36639c0.21019,0 0.38057,0.16404 0.38057,0.36639z" fill="#000000"/><path d="M234.67537,182.60634c-0.31528,0.52572 -0.71842,0.86987 -0.90044,0.7687c-0.18202,-0.10118 -0.07399,-0.60937 0.24128,-1.13509c0.31528,-0.52572 0.71842,-0.86987 0.90044,-0.7687c0.18202,0.10118 0.07399,0.60937 -0.24128,1.13509z" fill="#000000"/></g><g fill-rule="nonzero" stroke-linecap="butt" stroke-miterlimit="10"><path d="M228.2992,165.79608l5.48475,8.34098l0.21939,-10.22676l3.80276,9.86411l2.1939,-10.51688l2.1939,10.51688l3.80276,-9.86411l0.21939,10.22676l5.48475,-8.34098l-1.82825,9.06628c-4.3878,-1.08795 -13.52905,-1.08795 -19.74511,0z" fill="#ffffff"/><path d="M249.87255,174.86236c0,1.4506 -1.09695,1.4506 -1.82825,2.90121c-0.7313,1.08795 -0.7313,0.7253 -0.36565,2.53856c-4.71132,-0.45393 -9.62284,-0.68501 -15.3573,0c0.36565,-1.81326 0.36565,-1.4506 -0.36565,-2.53856c-0.7313,-1.4506 -1.82825,-1.4506 -1.82825,-2.90121c6.21605,-1.08795 13.52905,-1.08795 19.74511,0z" fill="#ffffff"/><path d="M231.9557,177.76357c2.55955,-0.7253 13.52905,-0.7253 16.0886,0" fill="none"/><path d="M226.47095,164.70813c0,-0.80115 0.65483,-1.4506 1.4626,-1.4506c0.80777,0 1.4626,0.64946 1.4626,1.4506c0,0.80115 -0.65483,1.4506 -1.4626,1.4506c-0.80777,0 -1.4626,-0.64946 -1.4626,-1.4506z" fill="#ffffff"/><path d="M232.32135,162.53222c0,-0.80115 0.65483,-1.4506 1.4626,-1.4506c0.80777,0 1.4626,0.64946 1.4626,1.4506c0,0.80115 -0.65483,1.4506 -1.4626,1.4506c-0.80777,0 -1.4626,-0.64946 -1.4626,-1.4506z" fill="#ffffff"/><path d="M238.5374,161.80692c0,-0.80115 0.65483,-1.4506 1.4626,-1.4506c0.80777,0 1.4626,0.64946 1.4626,1.4506c0,0.80115 -0.65483,1.4506 -1.4626,1.4506c-0.80777,0 -1.4626,-0.64946 -1.4626,-1.4506z" fill="#ffffff"/><path d="M244.75345,162.53222c0,-0.80115 0.65483,-1.4506 1.4626,-1.4506c0.80777,0 1.4626,0.64946 1.4626,1.4506c0,0.80115 -0.65483,1.4506 -1.4626,1.4506c-0.80777,0 -1.4626,-0.64946 -1.4626,-1.4506z" fill="#ffffff"/><path d="M250.60385,164.70813c0,-0.80115 0.65483,-1.4506 1.4626,-1.4506c0.80777,0 1.4626,0.64946 1.4626,1.4506c0,0.80115 -0.65483,1.4506 -1.4626,1.4506c-0.80777,0 -1.4626,-0.64946 -1.4626,-1.4506z" fill="#ffffff"/></g></g></g></svg>