<svg version="1.1" xmlns="http://www.w3.org/2000/svg" xmlns:xlink="http://www.w3.org/1999/xlink" width="37.66905" height="37.75281" viewBox="0,0,37.66905,37.75281"><g transform="translate(-231.16547,-231.1236)"><g stroke="none" stroke-miterlimit="10"><path d="M251.7468,231.1832c3.41075,0.3106 6.33044,1.36962 8.99869,3.2658c1.64769,1.16846 3.2303,2.71559 4.47272,4.36918c1.94646,2.58838 3.13267,5.60865 3.49061,8.87445c0.23073,2.09437 0.14199,4.27453 -0.25144,6.2417c-0.59163,2.96703 -1.91984,5.71514 -3.9018,8.07574c-2.36652,2.81912 -5.26254,4.83953 -8.4751,5.91629c-3.36934,1.12705 -7.47229,1.26017 -10.97769,0.35202c-3.27171,-0.84307 -6.24761,-2.62979 -8.73541,-5.24184c-3.0114,-3.15931 -4.69459,-6.79486 -5.10281,-11.02502c-0.39639,-4.09408 0.40231,-8.04912 2.28665,-11.32083c1.86955,-3.25101 4.91349,-6.12632 8.18224,-7.72965c2.18311,-1.07085 4.38989,-1.64178 7.0404,-1.81926c0.57388,-0.03845 2.36652,-0.01183 2.97294,0.04141zM249.188,233.33378c-2.79249,0.15678 -5.21226,0.87857 -7.44861,2.22157c-3.08239,1.84885 -5.79797,5.04956 -7.09956,8.36565c-0.68925,1.75122 -1.02944,3.40483 -1.11522,5.38383c-0.16566,3.87813 0.97915,7.5492 3.31904,10.65525c1.16255,1.54415 2.85165,3.12972 4.4461,4.17099c1.86068,1.21876 3.71543,1.90801 5.84234,2.17424c0.53542,0.06508 2.36948,0.07395 3.04689,0.01479c1.81038,-0.1627 3.14748,-0.50288 4.39285,-1.11522c2.18311,-1.07085 3.41371,-2.82799 3.75685,-5.36904c0.10353,-0.76025 0.10946,-1.82517 0.01479,-2.48484c-0.18341,-1.24538 -0.67446,-2.47892 -1.3992,-3.5054c-0.52359,-0.73657 -1.34891,-1.50866 -2.09733,-1.95238c-0.13608,-0.07987 -0.38456,-0.23369 -0.55614,-0.34315c-0.87857,-0.55909 -1.69798,-0.88744 -3.32791,-1.343c-1.82517,-0.5088 -2.16832,-0.6153 -2.82503,-0.86378c-0.64488,-0.24552 -1.21285,-0.5295 -1.65657,-0.83124c-1.86955,-1.26017 -2.9049,-2.70671 -3.30721,-4.62062c-0.13608,-0.63304 -0.16566,-1.00577 -0.16566,-1.95238c0,-1.00282 0.03845,-1.43766 0.19228,-2.19494c0.41118,-2.02633 1.44654,-3.52315 3.39004,-4.8987c0.98803,-0.69812 2.15353,-1.23059 3.1948,-1.45541c0.15974,-0.0355 0.29285,-0.06803 0.30173,-0.07691c0.01775,-0.01775 -0.39639,-0.00887 -0.89928,0.02071zM249.73527,238.93651c-0.39935,-0.01183 -0.41118,-0.00887 -0.73362,0.07691c-0.81349,0.21594 -1.55598,0.97915 -1.76897,1.8163c-0.07099,0.28102 -0.07099,0.80758 0,1.12409c0.21299,0.95844 1.06493,1.71573 2.08254,1.85181c0.69516,0.0917 1.46133,-0.12425 1.97308,-0.55909c0.50584,-0.42893 0.78096,-0.95844 0.84899,-1.62995c0.12425,-1.20989 -0.58276,-2.24227 -1.77193,-2.5943c-0.20411,-0.05916 -0.34019,-0.07691 -0.63009,-0.08578z" fill="#000000" stroke-width="1"/><path d="M250.38077,238.97037c1.18917,0.35202 1.93467,1.44153 1.81044,2.65142c-0.06803,0.6715 -0.36154,1.23672 -0.86738,1.66565c-0.51176,0.43485 -1.3212,0.66352 -2.01636,0.57182c-1.01761,-0.13608 -1.91453,-0.93452 -2.12752,-1.89296c-0.07099,-0.31652 -0.07112,-0.86746 -0.00012,-1.14848c0.21299,-0.83716 0.99369,-1.64059 1.80719,-1.85653c0.32243,-0.08578 0.35045,-0.09073 0.7498,-0.0789c0.28989,0.00887 0.43985,0.02884 0.64397,0.088z" fill="#ffffff" stroke-width="0.5"/><path d="M250.10041,233.26051c-0.00887,0.00887 -0.1674,0.14674 -0.32715,0.18224c-1.04127,0.22482 -2.19678,0.75865 -3.1848,1.45677c-1.9435,1.37554 -2.96228,2.8705 -3.37346,4.89682c-0.15383,0.75729 -0.1876,1.19062 -0.1876,2.19344c0,0.9466 0.03361,1.31764 0.16968,1.95069c0.40231,1.91392 1.43457,3.26102 3.30412,4.52119c0.44372,0.30173 1.04464,0.62424 1.68952,0.86977c0.65671,0.24848 1.00102,0.37089 2.82619,0.87969c1.62995,0.45555 2.44838,0.7908 3.32695,1.34989c0.17157,0.10946 0.41978,0.26457 0.55584,0.34444c0.74841,0.44372 1.57185,1.22215 2.09543,1.95873c0.72474,1.02648 1.21122,2.26955 1.39463,3.51493c0.09466,0.65967 0.08456,1.73055 -0.01897,2.4908c-0.34315,2.54105 -1.58938,4.31139 -3.77249,5.38224c-1.24538,0.61234 -2.59551,0.95774 -4.40589,1.12044c-0.67741,0.05916 -2.52105,0.05185 -3.05648,-0.01324c-2.12691,-0.26623 -4.00234,-0.95802 -5.86301,-2.17677c-1.59444,-1.04127 -3.30297,-2.63807 -4.46552,-4.18222c-2.3399,-3.10605 -3.50259,-6.81968 -3.33693,-10.69781c0.08578,-1.979 0.43207,-3.65538 1.12133,-5.40661c1.30159,-3.31608 4.04983,-6.54368 7.13223,-8.39252c2.23636,-1.343 4.68189,-2.06601 7.47438,-2.22278c0.50288,-0.02958 0.91975,-0.03785 0.90201,-0.0201z" fill="#ffffff" stroke-width="0.5"/><path d="M250.80906,256.46059c0.39935,0.17749 0.8342,0.53838 1.06198,0.8697c0.53838,0.78983 0.57684,1.84293 0.09466,2.66529c-0.16862,0.28694 -0.57093,0.70995 -0.85786,0.90223c-1.1803,0.79279 -2.78954,0.40527 -3.52907,-0.84899c-0.24257,-0.40823 -0.34611,-0.87561 -0.31947,-1.42583c0.03254,-0.62713 0.23961,-1.11818 0.65375,-1.5619c0.46443,-0.49105 0.91998,-0.72474 1.55598,-0.80462c0.40527,-0.05029 0.97027,0.0355 1.34004,0.20411z" fill="#000000" stroke-width="1"/></g></g></svg>