<svg version="1.1" xmlns="http://www.w3.org/2000/svg" xmlns:xlink="http://www.w3.org/1999/xlink" width="173.13941" height="177.76613" viewBox="0,0,173.13941,177.76613"><g transform="translate(-153.4303,-91.11694)"><g fill="#000000" stroke="none" stroke-miterlimit="10"><path d="M153.68042,91.12348c0.87542,0.26402 3.8213,1.02828 6.00291,1.55631c20.85732,5.05801 44.29923,7.67038 72.68798,8.10115c31.44579,0.50024 59.59831,-1.84812 82.59556,-6.86444c4.00194,-0.87542 9.44902,-2.2233 11.36662,-2.79302c0.22233,-0.06948 0.23623,0.3057 0.23623,6.53094v6.60042l-0.58362,0.15285c-0.33349,0.09727 -1.34788,0.37518 -2.26499,0.6253c-10.74131,3.00145 -24.03942,5.54435 -34.878,6.6699c-1.13944,0.11116 -2.29278,0.25012 -2.5429,0.29181l-0.44466,0.06948l0.02779,67.83841l0.04169,67.83841l1.25061,0.16675c12.17256,1.63968 22.45532,3.65455 35.36435,6.90612l3.96025,1.00048l0.04169,6.55873c0.02779,6.22524 0.0139,6.57263 -0.20843,6.50315c-2.29278,-0.69478 -11.67232,-2.8486 -16.85539,-3.89077c-18.10599,-3.61286 -34.66957,-5.48877 -56.06882,-6.3503c-8.14283,-0.33349 -24.30344,-0.18064 -33.55792,0.29181c-21.03797,1.09775 -40.15834,3.73792 -58.84795,8.12894c-1.598,0.37518 -6.90612,1.69527 -7.33689,1.82033c-0.22233,0.06948 -0.23623,-0.27791 -0.20843,-6.50315l0.04169,-6.57263l4.83568,-1.20892c10.99143,-2.76523 21.14913,-4.80788 30.52867,-6.14186c1.87591,-0.26402 3.7935,-0.52803 4.27985,-0.58362l0.86153,-0.09727v-67.85231v-67.8662l-0.3057,-0.05558c-0.18064,-0.04169 -1.32008,-0.16675 -2.5429,-0.29181c-10.60236,-1.05607 -24.83147,-3.77961 -35.15592,-6.73938c-0.76426,-0.22233 -1.65358,-0.47245 -1.97318,-0.55582l-0.59751,-0.15285v-6.60042c0,-6.22524 0.0139,-6.60042 0.25012,-6.53094zM211.58346,113.21752l-1.80643,-0.09727l0.02779,66.82403c0.02779,36.75391 0.08337,66.82403 0.13896,66.82403c0.13896,0 1.61189,-0.13896 4.41881,-0.41687c2.44563,-0.23623 7.25351,-0.54193 11.95023,-0.79205c4.4466,-0.22233 22.80271,-0.22233 27.30489,0c6.36419,0.3196 14.93779,0.97269 16.1606,1.22281l0.37518,0.08337v-66.87961v-66.86572l-1.69527,0.09727c-10.69963,0.58362 -15.5353,0.69478 -28.52771,0.69478c-11.19987,0 -17.86977,-0.12506 -24.17838,-0.47245c-1.29229,-0.06948 -3.1682,-0.16675 -4.16869,-0.22233z"/></g></g></svg>