<svg version="1.1" xmlns="http://www.w3.org/2000/svg" xmlns:xlink="http://www.w3.org/1999/xlink" width="117.28626" height="115.29661" viewBox="0,0,117.28626,115.29661"><g transform="translate(-179.44261,-110.86857)"><g data-paper-data="{&quot;isPaintingLayer&quot;:true}" fill-rule="nonzero" stroke-width="0.90231" stroke-miterlimit="10" stroke-dasharray="" stroke-dashoffset="0" style="mix-blend-mode: normal"><path d="M231.55413,201.24263v0v0v0v0v0v0c2.11279,3.92499 -2.19185,9.79043 -2.54903,10.30611c-0.61646,0.60147 0,0 -0.01038,0.0147c0,0 -3.09344,3.34004 -5.13956,2.20732c-0.87142,-0.48091 -1.265,-1.33369 -1.28499,-2.45085c-0.38234,-0.1222 -0.91119,-0.38129 -1.1479,-0.94116c-0.39445,-0.93079 1.59182,-1.65004 1.59182,-1.65004v0.01383c0.09107,-0.28772 0.18906,-0.58322 0.3078,-0.89006c0.67112,-1.73669 2.32529,-5.13226 2.32529,-5.13226c0,0 3.76715,-5.45293 5.90694,-1.4776z" fill="#9a8479" stroke="#000000" stroke-linecap="round" stroke-linejoin="round"/><path d="M255.40438,207.0413v0v0v0v0v0v0c0,0 1.98637,0.72108 1.58923,1.651c-0.23498,0.5642 -0.76555,0.82243 -1.14617,0.94635c-0.01998,1.11187 -0.4127,1.96811 -1.28489,2.44912c-1.33167,0.73577 -3.00333,-0.35093 -4.01251,-1.20198c-0.47505,-0.31981 -1.00831,-0.66737 -1.48077,-0.93943c-1.19219,-0.68726 -4.02817,-5.34553 -3.48625,-7.96363c0.54191,-2.6181 6.27535,0 6.27535,0c1.33427,1.28268 2.77699,2.98037 3.23907,4.17899c0.11711,0.3076 0.21682,0.6058 0.30693,0.89697z" fill="#9a8479" stroke="#000000" stroke-linecap="round" stroke-linejoin="round"/><path d="M233.8482,211.18215v0v0v0v0v0v0c3.74717,1.42736 5.22621,2.20473 4.69823,5.19028c-0.39618,2.23854 1.51468,7.15417 1.51468,7.15417c0,0 0.92771,0.26601 0.60945,1.01398c-0.31817,0.75652 -2.61916,1.25924 -5.60164,1.10063c-2.98162,-0.15774 -5.32429,-0.12306 -5.66235,-0.83895c-0.33902,-0.71233 0.28263,-1.04424 0.28263,-1.04424c0,0 0.11528,-1.68914 0.11874,-3.5047c0,-1.81566 -0.28868,-6.78326 -0.28868,-6.78326c0,0 0.58178,-3.71528 4.32895,-2.28792z" fill="#9a8479" stroke="#000000" stroke-linecap="butt" stroke-linejoin="miter"/><path d="M243.52393,211.84511v0v0v0v0v0v0c2.81773,-1.28604 4.53088,-1.49931 5.25311,0.00173c0,0 1.41237,2.63808 2.12326,5.38616c0.70926,2.74645 1.21726,5.9053 1.21726,5.9053c0,0 0.94164,0.50099 0.93463,0.99496c-0.00519,0.49397 -0.8158,1.46031 -5.09008,1.58077c-4.27265,0.11518 -5.79502,-0.58591 -5.92682,-1.23244c-0.13526,-0.64566 0.36582,-0.70282 0.36582,-0.70282c0,0 0.05898,-0.70109 0,-2.39715c-0.05802,-1.69596 -0.7621,-4.81937 -0.7621,-4.81937c0,0 -0.9329,-3.43102 1.88492,-4.71715z" fill="#9a8479" stroke="#000000" stroke-linecap="butt" stroke-linejoin="miter"/><path d="M237.08814,197.7657v0v0v0v0v0v0c7.78744,-0.60234 10.76204,3.91375 10.76031,3.91289c0.63385,1.16644 1.42102,2.81225 1.74793,4.31502c0.09011,0.4151 0.14564,0.88218 0.15947,1.38317c0,0 -0.04592,1.74015 -0.215,2.2714c-0.70916,2.22557 -1.86407,4.66172 -4.62628,5.76322c-4.33673,1.73669 -8.95263,1.52352 -13.74894,-0.75835c-1.61862,-0.76786 -2.57756,-2.07648 -3.09517,-3.56618c-0.36938,-1.0721 -0.52712,-2.46997 -0.52712,-2.46997c-0.2272,-2.32519 0.17945,-4.59496 0.39618,-5.58204c0,0 1.36213,-4.66691 9.14861,-5.26915z" fill="#9a8479" stroke="#000000" stroke-linecap="butt" stroke-linejoin="miter"/><g stroke-linejoin="miter"><path d="M196.79256,184.51034v0v0v0v0v0v0c-0.04592,-0.07974 -1.3872,-2.31991 -1.3872,-2.32087c-3.72027,-5.97198 -4.54481,-19.47854 -4.22145,-23.69394l0.02863,-0.20193c1.05692,-17.86751 9.3662,-27.40403 14.27347,-32.45137c11.13834,-11.46391 28.02145,-11.93021 28.02145,-11.93021l0.59821,11.5983c0,0 -0.03209,-3.33572 6.76001,-9.16734c6.79037,-5.83162 16.83191,-4.9797 16.83191,-4.9797l-5.32852,14.53438c0,0 3.14109,-4.52733 5.71529,-6.18178c4.56383,-2.9283 8.42282,-1.66992 8.42282,-1.66992l-1.06374,9.01479c0,0 6.79209,8.80507 11.99054,17.0789c1.11245,1.76532 2.40166,3.55235 3.21919,5.60798c2.97297,7.46879 3.4021,20.78034 0.06936,27.37377c-0.57563,1.16654 -1.20246,2.29926 -1.85274,3.41286c-0.16908,0.28599 -0.33902,0.57025 -0.51155,0.85105c-0.59561,0.9793 -1.21726,1.93949 -1.87099,2.87028c-0.08838,0.12393 -0.16908,0.25563 -0.25746,0.37965c-0.74135,1.0356 -1.52333,2.03306 -2.33663,3.00285c-0.19415,0.23402 -0.39877,0.46016 -0.59734,0.69245c-0.69706,0.80081 -1.41929,1.57905 -2.16054,2.32779c-0.17081,0.17513 -0.33729,0.35276 -0.50983,0.52174c-0.89217,0.8719 -1.82152,1.70297 -2.77872,2.49677c-0.21327,0.17426 -0.43172,0.34065 -0.64682,0.51136c-0.80369,0.64134 -1.63428,1.25405 -2.4839,1.83814c-0.24535,0.16639 -0.48466,0.34142 -0.73174,0.50435c-1.03781,0.68207 -2.10078,1.32255 -3.19844,1.91441c-0.19588,0.10663 -0.40396,0.2002 -0.60253,0.30338c-0.93809,0.48792 -1.89789,0.93684 -2.87844,1.35281c-4.14777,1.7584 -8.65175,2.90323 -13.48793,3.25166c-5.52709,0.39781 -10.53062,0.23046 -15.05026,-0.35881c-1.11754,-0.14564 -2.20473,-0.31981 -3.26338,-0.51482c-0.20116,-0.04073 -0.40146,-0.07974 -0.6008,-0.11874c-1.07335,-0.21144 -2.12682,-0.43845 -3.13772,-0.69764c-0.00605,-0.00173 -0.01383,-0.00346 -0.02075,-0.00519c-1.01273,-0.2565 -1.98637,-0.54422 -2.93743,-0.84932c-0.16648,-0.05284 -0.33729,-0.10567 -0.50291,-0.15947c-0.91378,-0.29896 -1.80423,-0.61876 -2.66248,-0.95759c-0.15092,-0.05716 -0.29656,-0.1222 -0.44652,-0.18109c-0.84711,-0.34152 -1.67329,-0.69687 -2.46574,-1.07297c-0.03036,-0.01729 -0.06417,-0.02863 -0.09366,-0.04419c-0.81147,-0.3882 -1.58663,-0.7938 -2.33999,-1.209c-0.14055,-0.07791 -0.28013,-0.15419 -0.41702,-0.23219c-0.72482,-0.41165 -1.42716,-0.83203 -2.09646,-1.26529c-0.10231,-0.06504 -0.19943,-0.13267 -0.30088,-0.19847c-0.63548,-0.41943 -1.25021,-0.84759 -1.83804,-1.28441c-0.06062,-0.0416 -0.12738,-0.08579 -0.1855,-0.13171c-0.613,-0.46016 -1.19209,-0.93079 -1.75043,-1.40478c-0.10846,-0.09107 -0.21509,-0.18291 -0.31913,-0.27389c-0.54441,-0.47409 -1.06807,-0.94895 -1.5606,-1.43514c-0.05629,-0.05293 -0.1075,-0.10923 -0.16293,-0.16293c-0.46391,-0.46198 -0.90427,-0.92733 -1.32043,-1.39277c-0.05812,-0.06753 -0.12402,-0.13344 -0.18301,-0.19924c-0.42654,-0.48965 -1.3482,-1.651 -1.41929,-1.7437c-0.37101,-0.49052 -0.72482,-0.98017 -1.04472,-1.46722c-0.01989,-0.03036 -0.039,-0.06071 -0.05716,-0.09097c-0.30693,-0.4689 -0.5861,-0.93079 -0.84711,-1.39104z" fill="#9a8479" stroke="#000000" stroke-linecap="butt"/><path d="M262.36122,158.44356v0v0v0v0v0v0c0,0 10.10053,11.41885 6.97933,23.26414c-3.11947,11.84174 -21.76166,16.85871 -36.08537,15.95828c-18.93529,-1.19161 -27.71375,-12.46838 -24.59774,-23.23032c3.12034,-10.76195 28.1888,-15.79276 28.1888,-15.79276l-4.11655,7.73211c0,0 3.24263,-0.50089 5.86179,-1.99847c2.61839,-1.49489 5.48991,-3.48904 5.48991,-3.48904l-5.99791,8.49737c0,0 7.92174,-0.08492 14.78147,-2.83041c6.85973,-2.74203 9.49627,-8.1109 9.49627,-8.1109z" fill="#e6e7e8" stroke="#000000" stroke-linecap="butt"/><g stroke="#000000"><path d="M275.28563,152.26955c0,0 16.25791,-9.13179 19.97386,-1.36664c3.71605,7.76506 -2.93128,16.86486 -16.80328,25.09795c0,0 0.30607,-13.51877 -3.17058,-23.73131v0v0v0v0zM275.28563,152.26955c-0.29051,-1.19507 -1.25031,-3.48039 -1.25031,-3.48039M278.09558,178.10588l0.17426,-2.18647" fill="#9a8479" stroke-linecap="round"/><path d="M278.26984,175.91854c0.09011,-2.50378 0.08665,-6.62638 -0.47774,-11.7742c-0.32519,-2.99603 -0.95375,-6.08649 -1.59874,-8.75569l0.00173,0.00346c9.52307,-2.42405 17.99893,6.37757 17.99893,6.37757h0.00346c-4.75981,7.90118 -15.85136,13.93041 -15.85136,13.93041l-0.07628,0.21846v0v0v0v0v0z" fill="#ee4036" stroke-linecap="butt"/></g><g stroke="#000000"><path d="M198.98172,181.95641c-13.50349,-5.37319 -20.78976,-12.63909 -18.74882,-20.27167c2.0418,-7.63335 17.78652,-1.80605 17.78652,-1.80605c-1.44359,9.82251 0.9623,22.07772 0.9623,22.07772v0v0v0v0zM198.56989,156.52136c0,0 -0.48379,2.22461 -0.5496,3.35733M199.13264,181.85237l0.49935,1.96379" fill="#9a8479" stroke-linecap="round"/><path d="M199.0312,181.6661c0,0 -10.71007,-3.79328 -16.14619,-10.255l0.00259,-0.00086c0,0 6.06468,-9.30251 14.82489,-8.55117l0.00086,-0.00259c-0.14564,2.52626 -0.20981,5.43468 -0.02171,8.20975c0.31731,4.77086 0.96585,8.52254 1.441,10.78616l-0.10145,-0.18627v0v0v0v0v0z" fill="#ee4036" stroke-linecap="butt"/></g><path d="M251.32866,177.07806c-0.62856,0 -1.17826,-0.45497 -1.2823,-1.09545c-0.11365,-0.70887 0.36928,-1.37625 1.07854,-1.4897c0.64499,-0.10145 6.36201,-0.99323 8.46884,-0.73145c0.71272,0.09011 1.21899,0.7401 1.1332,1.44897c-0.09021,0.71416 -0.74999,1.20986 -1.45137,1.13272c-1.32562,-0.1612 -5.44563,0.35189 -7.74056,0.71589c-0.06936,0.01383 -0.13872,0.01902 -0.20635,0.01902v0v0v0v0v0z" fill="#231f20" stroke="none" stroke-linecap="butt"/><path d="M230.25445,177.3554c-0.08146,0 -0.16389,-0.00865 -0.24881,-0.02344c-3.00246,-0.58063 -8.28247,0.01047 -8.33444,0.01566c-0.70148,0.07801 -1.35607,-0.42817 -1.43927,-1.14223c-0.08146,-0.71243 0.42999,-1.35723 1.14444,-1.43869c0.23411,-0.02334 5.72653,-0.63951 9.12344,0.01566c0.70398,0.13517 1.16702,0.81724 1.03003,1.52525c-0.12056,0.61617 -0.66584,1.0478 -1.27538,1.0478v0v0v0v0v0v0z" fill="#231f20" stroke="none" stroke-linecap="butt"/><path d="M252.20171,183.1584c0,0 -3.50873,4.73099 -11.36553,4.73099c-7.85497,0 -9.95835,-3.10948 -9.95835,-3.10948" fill="none" stroke="#231f20" stroke-linecap="round"/></g></g></g></svg>