<svg version="1.1" xmlns="http://www.w3.org/2000/svg" xmlns:xlink="http://www.w3.org/1999/xlink" width="29.18554" height="41.8297" viewBox="0,0,29.18554,41.8297"><g transform="translate(-225.40719,-159.10442)"><g><path d="M239.90312,179.28779c7.53812,0.71792 11.84561,5.74333 11.48666,20.81957h-16.51208c0,-6.46125 7.17916,-4.66646 5.74333,-15.07625" fill="#ffffff" fill-rule="evenodd" stroke="#000000" stroke-width="1.5" stroke-linecap="round" stroke-linejoin="round" stroke-miterlimit="4"/><path d="M241.33895,185.03115c0.27281,2.08914 -3.98444,5.29104 -5.74333,6.46125c-2.15375,1.43584 -2.02452,3.11576 -3.58958,2.87166c-0.74806,-0.67484 1.01227,-2.18246 0,-2.15375c-0.71792,0 0.1364,0.88303 -0.71792,1.43584c-0.71792,0 -2.87382,0.71792 -2.87166,-2.87166c0,-1.43584 4.3075,-8.615 4.3075,-8.615c0,0 1.35686,-1.36404 1.43584,-2.5127c-0.52408,-0.71361 -0.35896,-1.43584 -0.35896,-2.15375c0.71792,-0.71792 2.15375,1.7948 2.15375,1.7948h1.43584c0,0 0.55997,-1.43009 1.7948,-2.15375c0.71792,0 0.71792,2.15375 0.71792,2.15375" fill="#ffffff" fill-rule="evenodd" stroke="#000000" stroke-width="1.5" stroke-linecap="round" stroke-linejoin="round" stroke-miterlimit="4"/><path d="M230.92917,190.41553c0,0.19824 -0.16071,0.35896 -0.35896,0.35896c-0.19824,0 -0.35896,-0.16071 -0.35896,-0.35896c0,-0.19824 0.16071,-0.35896 0.35896,-0.35896c0.19824,0 0.35896,0.16071 0.35896,0.35896z" fill="#000000" fill-rule="evenodd" stroke="#000000" stroke-width="1.5" stroke-linecap="round" stroke-linejoin="round" stroke-miterlimit="4"/><path d="M234.82959,183.4159c-0.29737,0.51506 -0.67763,0.85225 -0.8493,0.75313c-0.17169,-0.09912 -0.06979,-0.59702 0.22758,-1.11208c0.29737,-0.51506 0.67763,-0.85225 0.8493,-0.75313c0.17169,0.09912 0.06979,0.59702 -0.22758,1.11208z" fill="#000000" fill-rule="evenodd" stroke="#000000" stroke-width="1.5" stroke-linecap="round" stroke-linejoin="round" stroke-miterlimit="4"/><path d="M236.21311,188.73759c-0.48529,0.33741 -2.44257,0.12395 -2.44257,0.12395c0,0 -1.40124,2.16773 -2.54532,3.63861c-0.49091,0.63112 -0.58274,0.87016 -1.07478,1.18854c-0.66758,0 -2.67231,0.66758 -2.67032,-2.67032c0,-1.33515 4.00547,-8.01093 4.00547,-8.01093c0,0 1.26171,-1.26839 1.33515,-2.33652c-0.45354,-0.61757 1.66895,-0.33379 1.66895,-0.33379c0,0 3.82912,0.31068 4.22351,2.21737c0.67153,3.24663 -1.51183,5.49593 -2.5001,6.18304z" fill="#ffffff" fill-rule="evenodd" stroke="#000000" stroke-width="1" stroke-linecap="round" stroke-linejoin="round" stroke-miterlimit="4"/><path d="M233.17834,182.42353c0.72532,-0.65935 1.84783,-0.60585 2.50718,0.11949c0.65935,0.72532 0.60585,1.84783 -0.11949,2.50718c-0.72532,0.65935 -3.15118,0.95616 -3.81052,0.2308z" fill="#ffffff" fill-rule="nonzero" stroke="#000000" stroke-width="1" stroke-linecap="butt" stroke-linejoin="miter" stroke-miterlimit="10"/><path d="M234.10296,184.19061c-0.27785,0.48127 -0.63316,0.79634 -0.79358,0.70372c-0.16043,-0.09263 -0.06523,-0.55785 0.21264,-1.03911c0.27785,-0.48127 0.63316,-0.79634 0.79358,-0.70372c0.16043,0.09263 0.06523,0.55786 -0.21264,1.03913z" fill="#000000" fill-rule="evenodd" stroke="#000000" stroke-width="1.5" stroke-linecap="round" stroke-linejoin="round" stroke-miterlimit="4"/><path d="M243.08043,179.28779c0,0 1.24754,0.13348 2.58622,0.93848c1.02304,0.6152 2.08863,1.62875 2.75487,2.47492c2.08486,2.65286 3.32877,6.74628 3.3321,10.14747c0.02749,1.04835 0.65236,7.22853 0.65236,7.22853c0,0 -7.49664,0.28035 -7.66396,0.09656c-0.16363,-0.17974 -0.02727,-8.78896 -0.08812,-9.20698c-0.09589,-1.21952 -0.38701,-2.48499 -0.98856,-3.54917c-0.16904,-0.29905 -0.97346,-1.26376 -0.97346,-1.26376c0,0 0.27533,-1.3825 0.28917,-1.73994z" fill="#ffffff" fill-rule="nonzero" stroke="#000000" stroke-width="1.5" stroke-linecap="butt" stroke-linejoin="miter" stroke-miterlimit="10"/><path d="M244.82233,194.66478c0,0 -0.03122,1.87787 -0.03122,2.26299c0,0.71442 0.30751,3.2553 0.30751,3.2553l-10.17407,-0.01241c0,0 -0.17726,-1.55794 0.4482,-3.22587c0.69468,-1.85246 2.211,-3.84059 2.47026,-3.98074z" fill="#ffffff" fill-rule="nonzero" stroke="#000000" stroke-width="1.5" stroke-linecap="butt" stroke-linejoin="miter" stroke-miterlimit="10"/><path d="M248.26893,183.19616c0,0 -1.16287,1.86518 -1.8913,2.64171c-0.68634,0.73168 -2.36055,1.89093 -2.36055,1.89093" fill="none" fill-rule="nonzero" stroke="#000000" stroke-width="1" stroke-linecap="round" stroke-linejoin="miter" stroke-miterlimit="10"/><path d="M250.95644,187.92936c0,0 -1.8738,1.78885 -2.92502,2.22922c-0.90599,0.37954 -2.89123,0.69894 -2.89123,0.69894" fill="none" fill-rule="nonzero" stroke="#000000" stroke-width="1" stroke-linecap="round" stroke-linejoin="miter" stroke-miterlimit="10"/><path d="M228.57555,189.20884l3.2714,1.95434" fill="none" fill-rule="nonzero" stroke="#000000" stroke-width="1.5" stroke-linecap="round" stroke-linejoin="miter" stroke-miterlimit="10"/><path d="M244.04157,181.6406c0,-0.29738 0.24106,-0.53843 0.53843,-0.53843c0.29738,0 0.53843,0.24106 0.53843,0.53843c0,0.29738 -0.24106,0.53843 -0.53843,0.53843c-0.29738,0 -0.53843,-0.24106 -0.53843,-0.53843z" fill="#000000" fill-rule="nonzero" stroke="none" stroke-width="0.5" stroke-linecap="butt" stroke-linejoin="miter" stroke-miterlimit="10"/><path d="M248.04027,185.4774c0,-0.29738 0.24106,-0.53843 0.53843,-0.53843c0.29738,0 0.53843,0.24106 0.53843,0.53843c0,0.29738 -0.24106,0.53843 -0.53843,0.53843c-0.29738,0 -0.53843,-0.24106 -0.53843,-0.53843z" fill="#000000" fill-rule="nonzero" stroke="none" stroke-width="0.5" stroke-linecap="butt" stroke-linejoin="miter" stroke-miterlimit="10"/><path d="M249.55984,190.79592c0,-0.29738 0.24106,-0.53843 0.53843,-0.53843c0.29738,0 0.53843,0.24106 0.53843,0.53843c0,0.29738 -0.24106,0.53843 -0.53843,0.53843c-0.29738,0 -0.53843,-0.24106 -0.53843,-0.53843z" fill="#000000" fill-rule="nonzero" stroke="none" stroke-width="0.5" stroke-linecap="butt" stroke-linejoin="miter" stroke-miterlimit="10"/><path d="M251.75379,194.46631c0,0 -1.27517,0.99328 -3.06785,1.2164c-1.56411,0.19467 -3.60699,0.08249 -3.60699,0.08249" fill="none" fill-rule="nonzero" stroke="#000000" stroke-width="1" stroke-linecap="round" stroke-linejoin="miter" stroke-miterlimit="10"/><path d="M250.08262,196.57357c0,-0.29738 0.24106,-0.53843 0.53843,-0.53843c0.29738,0 0.53843,0.24106 0.53843,0.53843c0,0.29738 -0.24106,0.53843 -0.53843,0.53843c-0.29738,0 -0.53843,-0.24106 -0.53843,-0.53843z" fill="#000000" fill-rule="nonzero" stroke="none" stroke-width="0.5" stroke-linecap="butt" stroke-linejoin="miter" stroke-miterlimit="10"/><g fill-rule="nonzero" stroke="#000000" stroke-width="1.5" stroke-miterlimit="10"><path d="M240.32939,160.78575c0.14876,0.98227 0.42839,1.84449 0.77164,2.37474c0.13409,0.20622 0.5069,0.66468 0.83765,1.02064l0.5962,0.65235l-0.39968,0.65734c-0.42851,0.70015 -1.05329,2.15676 -1.16698,2.71949c-0.16393,0.80077 -0.06693,1.85429 0.24135,2.68094c0.30829,0.82664 0.74865,1.25047 1.37011,1.3162c0.30507,0.03635 0.39456,0.01677 0.71079,-0.17862c1.45099,-0.88573 1.81829,-3.89274 0.7751,-6.31026l-0.17944,-0.40304l0.36903,-0.07812c1.2525,-0.26707 2.1455,-1.54321 3.0644,-4.35569l0.21656,-0.67625l-0.00662,1.66001c-0.00994,1.79768 0.03414,2.2772 0.27903,2.96457c0.15128,0.41688 0.5937,1.21774 0.79433,1.43283l0.13011,0.14088l-0.51885,0.52397c-0.62727,0.63736 -1.13433,1.3646 -1.38857,1.98919c-0.18333,0.45231 -0.18979,0.4884 -0.23298,1.5893c-0.0277,0.68808 -0.02518,1.27535 0.00798,1.51538c0.10954,0.76386 0.62114,1.23291 1.29543,1.1839c0.43469,-0.033 0.70593,-0.20773 1.11324,-0.71989c0.38436,-0.48372 0.67217,-1.11475 0.8284,-1.82871c0.18773,-0.86543 0.06382,-2.18786 -0.27574,-2.87024c-0.11656,-0.24204 -0.11603,-0.2638 -0.02602,-0.30512c1.15228,-0.49421 1.84711,-0.93419 2.4181,-1.5439c1.23778,-1.14328 1.87799,-1.98464 1.88877,-1.96988c0.01095,0.0075 -1.08582,2.58371 -2.43527,5.7193c-1.27524,2.96314 -2.36114,5.49062 -2.51648,5.85044c0.36952,0.17243 1.08408,0.76086 1.03382,1.24172c-0.06455,0.61774 -1.00551,0.9851 -1.00551,0.9851l-1.5908,2.78061l-15.35752,-0.37005l-1.62385,-2.6724c0,0 -0.88403,-0.61334 -0.94032,-1.19219c-0.05242,-0.53885 0.70586,-1.03914 1.12498,-1.21377c0.02513,-0.01059 0.05039,-0.02112 0.07578,-0.03162c-0.14231,-0.304 -0.41618,-1.02917 -1.01159,-2.62656c-1.64601,-4.41122 -2.71745,-7.27164 -3.09905,-8.28852l-0.33973,-0.90714c0,0 0.8136,0.90003 1.31554,1.50338c1.04386,1.23584 1.32719,1.48192 2.34906,2.014c0.29118,0.15201 0.53266,0.28833 0.53768,0.31021c0.00504,0.02186 -0.08464,0.28071 -0.19762,0.58247c-0.43811,1.09865 -0.45546,2.27992 -0.05409,3.39878c0.26575,0.74587 0.60394,1.25425 1.02539,1.53989c0.66744,0.46556 1.446,0.24509 1.792,-0.49328c0.12895,-0.27238 0.1366,-0.35919 0.16891,-1.69962l0.03405,-1.41285l-0.15111,-0.42413c-0.2607,-0.72401 -0.92705,-1.697 -1.61687,-2.38786l-0.16312,-0.15618l0.29297,-0.38443c0.86152,-1.12467 1.07009,-1.9316 1.14181,-4.44553c0.02302,-0.7244 0.04255,-1.30392 0.05349,-1.29639c0.0052,0.01461 0.1082,0.35784 0.22057,0.77378c0.76846,2.73712 1.59967,4.02588 2.81545,4.35964l0.35371,0.09552l-0.17569,0.36552c-0.40402,0.83848 -0.69153,1.919 -0.7587,2.85984c-0.13973,1.87428 0.64276,3.56784 1.72391,3.71712c1.07541,0.15641 1.97747,-1.26454 2.02391,-3.19183c0.0227,-0.94191 -0.30744,-2.01555 -1.05679,-3.46905c-0.19144,-0.36708 -0.33958,-0.6824 -0.32795,-0.70386c0.00608,-0.0216 0.27436,-0.30512 0.59356,-0.62368c0.3192,-0.31854 0.70217,-0.7443 0.84622,-0.95106c0.46639,-0.65573 0.75977,-1.51863 1.072,-3.16403c0.04382,-0.20195 0.13989,-0.26488 0.16942,-0.10466z" fill="#ffffff" stroke-linecap="butt" stroke-linejoin="round"/><path d="M230.59923,175.11356c0,0 2.9227,-1.64465 8.96891,-1.61332c6.13296,0.03181 9.10654,2.04885 9.10654,2.04885" fill="none" stroke-linecap="round" stroke-linejoin="miter"/><path d="M238.55811,175.1361l1.24651,-3.4212l1.08029,3.47726l3.74682,1.15459l-3.79809,0.97281l-1.24652,3.42118l-1.08029,-3.47725l-3.74682,-1.15459z" fill="#ffffff" stroke-linecap="butt" stroke-linejoin="round"/></g></g></g></svg>