<svg version="1.1" xmlns="http://www.w3.org/2000/svg" xmlns:xlink="http://www.w3.org/1999/xlink" width="240.39361" height="153.84579" viewBox="0,0,240.39361,153.84579"><g transform="translate(-119.80319,-103.07711)"><g fill="#ffffff" stroke="#000000" stroke-width="1.5" stroke-miterlimit="10"><path d="M317.31118,103.82763c0.61618,-0.01867 1.10165,0.44813 3.60371,3.60371c1.02696,1.28837 1.96057,2.33401 2.09127,2.35268c0.11203,0 1.66181,-0.54149 3.43566,-1.23236c3.54769,-1.34439 4.2759,-1.43775 4.85473,-0.63485c0.24274,0.31742 0.52282,1.58712 0.91493,3.99582c0.31742,1.96057 0.59751,3.58503 0.63485,3.60371c0.03734,0.03734 1.69916,0.3361 3.67839,0.65352c3.32363,0.54149 3.65972,0.63485 4.12652,1.10165c0.29875,0.28008 0.52282,0.65352 0.52282,0.8029c0,0.16805 -0.57883,1.84853 -1.30704,3.73441c-0.70954,1.86721 -1.30704,3.49167 -1.28837,3.58503c0,0.09336 1.30704,1.21368 2.89417,2.48338c2.98753,2.39002 3.28628,2.76346 2.95018,3.73441c-0.11203,0.28008 -1.30704,1.4004 -2.96886,2.76346c-1.53111,1.25103 -2.81948,2.35268 -2.85682,2.44604c-0.01867,0.09336 0.4668,1.49376 1.10165,3.1369c1.45642,3.79043 1.53111,4.03316 1.28837,4.63067c-0.26141,0.70954 -0.9336,0.91493 -4.76137,1.51244c-1.84853,0.28008 -3.37964,0.52282 -3.39831,0.54149c-0.01867,0.01867 -0.31742,1.71783 -0.63485,3.75308c-0.52282,3.15558 -0.67219,3.79043 -1.02696,4.1452c-0.24274,0.24274 -0.63485,0.42946 -0.87759,0.42946c-0.26141,0 -1.97924,-0.59751 -3.84644,-1.30704c-1.86721,-0.72821 -3.41699,-1.30704 -3.45433,-1.30704c-0.03734,0 -1.08298,1.23236 -2.29666,2.76346c-1.23236,1.51244 -2.37135,2.85682 -2.5394,2.98753c-0.42946,0.37344 -1.38173,0.3361 -1.82986,-0.07469c-0.22406,-0.18672 -1.28837,-1.45642 -2.37135,-2.78214c-1.08298,-1.34439 -2.05393,-2.5394 -2.18463,-2.6701c-0.16805,-0.18672 -0.91493,0.01867 -3.77175,1.10165c-3.8091,1.43775 -4.2759,1.49376 -4.83606,0.65352c-0.14938,-0.26141 -0.54149,-2.03525 -0.87759,-4.07051l-0.59751,-3.60371l-3.60371,-0.59751c-2.05393,-0.3361 -3.79043,-0.70954 -4.05184,-0.87759c-0.85891,-0.56016 -0.8029,-1.00829 0.63485,-4.83606c1.08298,-2.85682 1.28837,-3.60371 1.10165,-3.77175c-0.1307,-0.1307 -1.32572,-1.10165 -2.6701,-2.18463c-1.32572,-1.08298 -2.59542,-2.14729 -2.78214,-2.37135c-0.3361,-0.37344 -0.44813,-1.30704 -0.20539,-1.69916c0.05602,-0.09336 1.4004,-1.23236 2.98753,-2.52073c1.58712,-1.28837 2.89417,-2.37135 2.89417,-2.40869c0,-0.03734 -0.57883,-1.58712 -1.30704,-3.45433c-0.70954,-1.86721 -1.30704,-3.54769 -1.30704,-3.75308c0,-1.139 0.50415,-1.36306 4.76137,-2.03525c1.92322,-0.31742 3.52902,-0.59751 3.54769,-0.61618c0.01867,-0.03734 0.26141,-1.53111 0.54149,-3.32363c0.63485,-4.10785 0.74688,-4.44395 1.47509,-4.76137c0.69087,-0.28008 0.84024,-0.24274 4.83606,1.28837c1.51244,0.57883 2.83815,1.04563 2.93151,1.04563c0.09336,0 1.23236,-1.28837 2.52073,-2.8755c1.28837,-1.58712 2.44604,-2.91284 2.57674,-2.96886c0.1307,-0.05602 0.4668,-0.11203 0.74688,-0.11203z"/><path d="M162.7066,104.1824c0.07469,0 6.29248,4.63067 13.77997,10.2883c10.54971,7.95429 13.6306,10.36299 13.53724,10.58705c-0.05602,0.16805 -2.25932,7.17007 -4.87341,15.53515c-2.61409,8.36508 -4.92942,15.74054 -5.13481,16.39406l-0.39211,1.15767l-16.91688,-0.03734l-16.93555,-0.05602l-5.2095,-16.67414c-4.98544,-15.9646 -5.19083,-16.69281 -4.85473,-16.91688c0.18672,-0.14938 6.32983,-4.76137 13.61192,-10.26963c7.30077,-5.48958 13.31317,-9.98955 13.38786,-10.00822z"/><path d="M244.09807,108.40228c3.36097,0.57883 6.96467,2.12861 9.87751,4.23856c2.37135,1.71783 5.2095,5.13481 6.59123,7.87961c1.15767,2.33401 2.18463,6.1431 2.18463,8.14101c0,0.50415 0.05602,0.91493 0.14938,0.91493c0.56016,0 6.72194,-1.71783 9.37337,-2.59542c3.88379,-1.30704 6.85264,-2.55807 10.23228,-4.33192l2.48338,-1.28837l-0.11203,1.06431c-0.78423,6.79663 -3.84644,12.9584 -8.96258,18.07455c-15.90859,15.87124 -45.41043,18.31728 -65.16546,5.35888c-3.51035,-2.29666 -6.31115,-4.7427 -8.75719,-7.69288c-3.8091,-4.55598 -6.38584,-10.38166 -6.75928,-15.27374l-0.1307,-1.54978l1.38173,0.78423c3.15558,1.81119 8.30906,3.97715 12.52895,5.28419c2.12861,0.67219 8.02898,2.2033 8.085,2.10994c0.01867,-0.01867 0.1307,-0.84024 0.24274,-1.82986c1.00829,-8.47711 6.96467,-15.66585 15.29241,-18.46666c0.91493,-0.29875 2.35268,-0.67219 3.15558,-0.82157c2.05393,-0.37344 6.1431,-0.37344 8.30906,0z"/><path d="M282.50648,164.58648c3.82777,1.28837 6.90866,3.24894 9.89619,6.32983c2.76346,2.85682 4.83606,6.25514 6.08709,10.00822c0.95227,2.89417 1.53111,7.05804 1.32572,9.61611c-0.57883,7.02069 -5.28419,21.09942 -13.91068,41.54531c-3.60371,8.51446 -10.58705,24.08695 -10.81112,24.08695c-0.22406,0 -6.79663,-14.63889 -10.419,-23.15334c-9.07462,-21.39817 -13.68661,-35.17814 -14.30279,-42.759c-0.09336,-1.06431 0.16805,-4.612 0.44813,-5.97506c2.09127,-10.79245 10.60572,-19.19487 20.98739,-20.7073c3.28628,-0.4668 7.4128,-0.09336 10.69909,1.00829z"/><path d="M155.66724,177.99302c1.00829,0.4668 2.52073,1.92322 14.95631,14.37748c11.03518,11.03518 13.92935,14.04138 14.28412,14.78826c0.37344,0.78423 0.44813,1.23236 0.44813,2.70745c0,1.47509 -0.07469,1.92322 -0.44813,2.70745c-0.35477,0.74688 -3.24894,3.75308 -14.28412,14.78826c-15.70319,15.72187 -14.71358,14.9003 -17.66376,14.9003c-2.76346,0 -1.84853,0.78423 -17.66376,-15.06834c-15.66585,-15.68452 -14.73225,-14.60154 -14.73225,-17.32766c0,-2.72612 -0.91493,-1.64314 14.63889,-17.2343c7.65554,-7.67421 14.20943,-14.13474 14.54553,-14.35881c0.35477,-0.20539 0.97095,-0.50415 1.4004,-0.63485c1.25103,-0.41079 3.19292,-0.24274 4.51864,0.35477z"/><path d="M220.29121,179.61748c1.00829,0.42946 2.24065,1.56845 2.68878,2.44604c0.69087,1.34439 0.72821,2.0726 0.41079,7.48749l-0.31742,5.17216l1.21368,0.52282c0.67219,0.28008 1.86721,0.95227 2.6701,1.49376c0.8029,0.54149 1.49376,0.98962 1.54978,0.98962c0.03734,0 2.05393,-1.28837 4.46262,-2.8755c3.60371,-2.35268 4.59332,-2.93151 5.43357,-3.09956c2.61409,-0.54149 5.19083,0.72821 6.36717,3.1369c0.44813,0.89626 0.52282,1.28837 0.50415,2.55807c0,1.23236 -0.07469,1.66181 -0.48547,2.42737c-0.26141,0.50415 -0.76555,1.19501 -1.12032,1.51244c-0.3361,0.3361 -2.70745,1.64314 -5.26552,2.95018l-4.63067,2.35268l-0.03734,3.15558l-0.01867,3.15558l4.51864,2.25932c2.65143,1.30704 4.83606,2.5394 5.28419,2.93151c1.79252,1.62447 2.33401,4.46262 1.25103,6.64725c-1.25103,2.5394 -4.33192,3.9398 -6.77795,3.06222c-0.41079,-0.1307 -2.70745,-1.54978 -5.13481,-3.1369l-4.38793,-2.89417l-1.21368,0.89626c-0.65352,0.50415 -1.86721,1.21368 -2.68878,1.58712l-1.49376,0.67219l0.31742,5.17216c0.20539,3.49167 0.24274,5.41489 0.1307,5.95638c-1.02696,4.7427 -7.24476,6.03107 -10.19494,2.12861c-1.15767,-1.53111 -1.25103,-2.22197 -0.91493,-7.50616c0.16805,-2.55807 0.29875,-4.91075 0.29875,-5.2095c0,-0.52282 -0.11203,-0.61618 -1.53111,-1.28837c-0.85891,-0.41079 -2.05393,-1.10165 -2.6701,-1.56845l-1.139,-0.84024l-3.90246,2.59542c-2.16596,1.41908 -4.33192,2.80081 -4.85473,3.08089c-2.63276,1.36306 -5.91904,0.24274 -7.46882,-2.57674c-0.50415,-0.89626 -0.56016,-1.17634 -0.56016,-2.59542c0,-1.34439 0.07469,-1.71783 0.50415,-2.5394c0.8029,-1.53111 1.69916,-2.14729 6.60991,-4.612l4.57465,-2.27799l-0.1307,-0.72821c-0.14938,-0.95227 -0.14938,-3.75308 0,-4.70536l0.1307,-0.72821l-4.72403,-2.37135c-5.04145,-2.52073 -5.84435,-3.08089 -6.57256,-4.63067c-0.61618,-1.30704 -0.56016,-3.49167 0.1307,-4.89208c1.00829,-2.03525 2.83815,-3.19292 5.0788,-3.21159c1.7365,-0.01867 2.42737,0.31742 7.07671,3.41699c2.01658,1.36306 3.8091,2.52073 3.9398,2.55807c0.14938,0.05602 0.8029,-0.28008 1.47509,-0.74688c0.65352,-0.48547 1.82986,-1.15767 2.61409,-1.53111c1.30704,-0.59751 1.41908,-0.69087 1.41908,-1.19501c0,-0.31742 -0.1307,-2.6701 -0.29875,-5.22817c-0.26141,-4.25723 -0.26141,-4.7427 0,-5.6763c0.54149,-1.84853 2.14729,-3.45433 3.97715,-3.95847c1.10165,-0.31742 2.83815,-0.18672 3.90246,0.29875z"/><path d="M338.18653,183.22119c12.9584,3.06222 21.8463,14.73225 21.23012,27.8587c-0.54149,11.38995 -8.01031,21.21145 -18.8401,24.75914c-5.28419,1.71783 -11.72605,1.71783 -16.95422,-0.01867c-13.70529,-4.57465 -21.49153,-18.78408 -17.94384,-32.75078c2.61409,-10.2883 11.10987,-18.16791 21.67825,-20.09113c2.85682,-0.52282 8.04765,-0.41079 10.82979,0.24274z"/></g></g></svg>