<svg version="1.1" xmlns="http://www.w3.org/2000/svg" xmlns:xlink="http://www.w3.org/1999/xlink" width="34.5" height="34.50388" viewBox="0,0,34.5,34.50388"><g transform="translate(-222.75,-162.58442)"><g stroke="#000000"><path d="M225.84649,183.58029c0,0 0.85261,-3.68129 2.65037,-6.42788c1.71835,-2.62526 4.00257,-4.28719 4.00257,-4.28719l14.48995,-0.00854c0,0 2.59392,1.90039 4.57762,4.66204c1.93177,2.68934 2.43905,5.96693 2.43905,5.96693l-6.4764,2.7192l4.43916,5.03617l-23.6363,-0.01314l4.0036,-5.0435l-6.48964,-2.60411z" fill="#ffffff" fill-rule="evenodd" stroke-width="1.5" stroke-linecap="butt" stroke-linejoin="round" stroke-miterlimit="10"/><path d="M247.20764,186.30396l-14.44205,-0.08883" fill="none" fill-rule="nonzero" stroke-width="1.5" stroke-linecap="round" stroke-linejoin="miter" stroke-miterlimit="10"/><path d="M232.84885,172.75976l-3.91475,-4.26892l21.90253,-0.06643l-3.91475,4.33535" fill="#ffffff" fill-rule="evenodd" stroke-width="1.5" stroke-linecap="round" stroke-linejoin="round" stroke-miterlimit="4"/><path d="M253.89329,183.43811h-27.375" fill="none" fill-rule="nonzero" stroke-width="1" stroke-linecap="round" stroke-linejoin="miter" stroke-miterlimit="10"/><path d="M226.5,193.74234c3.39,-1.00723 10.11,0.44651 13.5,-2.07676c3.39,2.52327 10.11,1.06953 13.5,2.07676c0,0 1.65,0.56072 3,2.07676c-0.68,1.00723 -1.65,1.02799 -3,0.5192c-3.39,-1.00723 -10.11,0.47766 -13.5,-1.03838c-3.39,1.51604 -10.11,0.03115 -13.5,1.03838c-1.35,0.50881 -2.32,0.48805 -3,-0.5192c1.35,-1.51604 3,-2.07676 3,-2.07676z" fill="#ffffff" fill-rule="evenodd" stroke-width="1.5" stroke-linecap="butt" stroke-linejoin="round" stroke-miterlimit="10"/><path d="" fill="none" fill-rule="evenodd" stroke-width="1.5" stroke-linecap="round" stroke-linejoin="miter" stroke-miterlimit="10"/><path d="M242.35848,165.83442c0,1.38071 -1.11929,2.5 -2.5,2.5c-1.38071,0 -2.5,-1.11929 -2.5,-2.5c0,-1.38071 1.11929,-2.5 2.5,-2.5c1.38071,0 2.5,1.11929 2.5,2.5z" fill="#ffffff" fill-rule="evenodd" stroke-width="1.5" stroke-linecap="butt" stroke-linejoin="round" stroke-miterlimit="4"/><path d="M239.98661,180.58945v-5M242.48661,178.08945h-5" fill="none" fill-rule="evenodd" stroke-width="1.5" stroke-linecap="round" stroke-linejoin="miter" stroke-miterlimit="4"/></g></g></svg>