<svg version="1.1" xmlns="http://www.w3.org/2000/svg" xmlns:xlink="http://www.w3.org/1999/xlink" width="33.52896" height="33.5" viewBox="0,0,33.52896,33.5"><g transform="translate(-223.23552,-163.25)"><g stroke="#000000" stroke-width="1.5" stroke-miterlimit="10"><path d="M239.98552,167c10.5,1 16.5,8 16,29h-23c0,-9 10,-6.5 8,-21" fill="#ffffff" fill-rule="evenodd" stroke-linecap="round" stroke-linejoin="round"/><path d="M241.98552,175c0.38,2.91 -5.55,7.37 -8,9c-3,2 -2.82,4.34 -5,4c-1.042,-0.94 1.41,-3.04 0,-3c-1,0 0.19,1.23 -1,2c-1,0 -4.003,1 -4,-4c0,-2 6,-12 6,-12c0,0 1.89,-1.9 2,-3.5c-0.73,-0.994 -0.5,-2 -0.5,-3c1,-1 3,2.5 3,2.5h2c0,0 0.78,-1.992 2.5,-3c1,0 1,3 1,3" fill="#ffffff" fill-rule="evenodd" stroke-linecap="round" stroke-linejoin="round"/><path d="M227.48552,182.5c0,0.27614 -0.22386,0.5 -0.5,0.5c-0.27614,0 -0.5,-0.22386 -0.5,-0.5c0,-0.27614 0.22386,-0.5 0.5,-0.5c0.27614,0 0.5,0.22386 0.5,0.5z" fill="#000000" fill-rule="evenodd" stroke-linecap="round" stroke-linejoin="round"/><path d="M232.91851,172.7501c-0.41421,0.71744 -0.94387,1.18711 -1.18301,1.04904c-0.23915,-0.13807 -0.09723,-0.8316 0.31699,-1.54904c0.41421,-0.71744 0.94387,-1.18711 1.18301,-1.04904c0.23915,0.13807 0.09723,0.8316 -0.31699,1.54904z" fill="#000000" fill-rule="evenodd" stroke-linecap="round" stroke-linejoin="round"/><path d="M227.58824,172.5001c0,-2.70469 2.19257,-4.89726 4.89726,-4.89726c2.70469,0 4.89726,2.19257 4.89726,4.89726c0,2.70469 -2.19257,4.89726 -4.89726,4.89726c-2.70469,0 -4.89726,-2.19257 -4.89726,-4.89726z" fill="#ffffff" fill-rule="nonzero" stroke-linecap="butt" stroke-linejoin="miter"/><path d="M231.32992,172.49512c0,-0.68226 0.55307,-1.23533 1.23533,-1.23533c0.68226,0 1.23533,0.55307 1.23533,1.23533c0,0.68226 -0.55307,1.23533 -1.23533,1.23533c-0.68226,0 -1.23533,-0.55307 -1.23533,-1.23533z" fill="#000000" fill-rule="nonzero" stroke-linecap="butt" stroke-linejoin="miter"/></g></g></svg>