<svg version="1.1" xmlns="http://www.w3.org/2000/svg" xmlns:xlink="http://www.w3.org/1999/xlink" width="29.79627" height="35.79612" viewBox="0,0,29.79627,35.79612"><g transform="translate(-224.84809,-162.1134)"><g stroke="#000000" stroke-miterlimit="10"><path d="" fill="#ffffff" fill-rule="nonzero" stroke-width="1.5" stroke-linecap="butt"/><path d="" fill="#ffffff" fill-rule="nonzero" stroke-width="1.5" stroke-linecap="butt"/><path d="M253.43384,195.91911c-0.65425,0.58221 -2.93785,1.35545 -4.61342,1.19024c-3.76118,-0.37083 -6.23995,-3.02007 -3.94877,-5.05909c1.0403,-0.92581 1.55412,0.3921 3.78446,1.49632c0.96333,-0.25381 3.94873,-1.12315 4.92931,-0.49995c0.54255,0.34481 0.87327,1.96048 -0.15157,2.87249z" fill="#ffffff" fill-rule="nonzero" stroke-width="1.5" stroke-linecap="butt"/><path d="M230.75379,186.93213c4.19859,-5.08716 9.1427,-4.19278 13.05837,0.50354c2.58681,3.10253 1.87157,5.94264 2.75157,8.28766c0.10492,0.27958 0.89022,0.70986 1.70789,1.40962c-8.58068,0.01288 -22.18744,-0.01251 -22.37091,-0.01386c1.30252,-3.74075 1.64274,-6.29718 4.85308,-10.18695z" fill="#ffffff" fill-rule="nonzero" stroke-width="1.5" stroke-linecap="butt"/><g fill="#ffffff" fill-rule="nonzero" stroke-width="1.5" stroke-linecap="butt"><path d="M243.06204,184.47216c1.92577,1.81541 0.04248,4.74621 -1.42618,6.21859c-0.38477,0.38575 -1.28829,1.24549 -1.28829,1.24549c0,0 -3.13156,-1.4547 -5.22628,-2.30992c-2.55961,-1.04502 -5.47977,-4.04805 -2.31853,-6.22581c1.79817,-1.23875 7.19364,-0.74349 9.08089,0.36844l0.00486,-0.00032c0.05973,0.05119 0.11495,0.10088 0.16537,0.14931c0.4661,0.19036 0.87154,0.42543 1.00816,0.55422z"/><path d="M241.42388,185.35115c0,0.40241 -1.068,1.30231 -1.29879,2.60037c-0.27473,1.54519 0.20276,3.77123 0.20276,3.77123c0,0 -0.57739,-2.38369 -1.51444,-3.50387c-1.32499,-1.58392 -3.67815,-2.37979 -3.67815,-2.86774c0,0 3.37466,-0.34966 6.28862,0z"/></g><g><path d="M239.12915,187.66699c-4.25818,-0.01386 -9.10004,-0.90313 -10.63797,-4.79869c-1.11358,-2.82067 -1.10545,-4.62393 -1.16462,-7.64822c-0.0739,-3.77672 0.0917,-11.07339 5.16946,-12.10228c4.01624,-0.81379 5.29,1.4521 6.09512,4.0567c1.25935,-4.28124 6.5433,-6.01595 9.65687,-2.20191c2.92639,3.65964 1.54601,13.17366 1.80516,15.19871c0.94364,0.17838 4.87724,0.79643 3.58212,3.06734c-2.29971,4.03242 -9.69655,4.444 -14.50613,4.42833z" fill="#ffffff" fill-rule="nonzero" stroke-width="1.5" stroke-linecap="butt"/><path d="M236.06703,184.18254c0,0 1.08269,-0.90243 2.97875,-0.82035c1.98917,0.08611 6.21506,1.27498 6.21506,1.27498" fill="#ffffff" fill-rule="nonzero" stroke-width="1.5" stroke-linecap="round"/><path d="M236.30068,178.34053c0,0.48827 -0.35511,0.88777 -0.79899,0.88777c-0.44388,0 -0.79899,-0.39949 -0.79899,-0.88777c0,-0.48827 0.35511,-0.88777 0.79899,-0.88777c0.44388,0.04438 0.79899,0.39949 0.79899,0.88777" fill="#000000" fill-rule="evenodd" stroke-width="0.5" stroke-linecap="butt"/><path d="M247.22077,178.30731c0,0.48827 -0.35511,0.88777 -0.79899,0.88777c-0.44388,0 -0.79899,-0.39949 -0.79899,-0.88777c0,-0.48827 0.35511,-0.88777 0.79899,-0.88777c0.44388,0.04438 0.79899,0.39949 0.79899,0.88777" fill="#000000" fill-rule="evenodd" stroke-width="0.5" stroke-linecap="butt"/><path d="M233.68223,174.35316c0,0 1.02624,-0.05788 2.84823,0.54773c2.32053,0.77132 2.89202,1.28915 2.89202,1.28915" fill="#ffffff" fill-rule="nonzero" stroke-width="1.5" stroke-linecap="round"/><path d="M243.69321,176.46557c0,0 0.52263,-0.66312 1.97606,-1.37377c1.7042,-0.83326 2.79981,-0.37127 2.79981,-0.37127" fill="#ffffff" fill-rule="nonzero" stroke-width="1.5" stroke-linecap="round"/></g><path d="M239.75324,195.94663c-0.65425,0.58221 -2.93785,1.35545 -4.61342,1.19024c-3.76118,-0.37083 -6.23995,-3.02007 -3.94877,-5.05909c1.0403,-0.92581 1.55412,0.3921 3.78446,1.49632c0.96333,-0.25381 3.94873,-1.12315 4.92931,-0.49995c0.54255,0.34481 0.87327,1.96048 -0.15157,2.87249z" fill="#ffffff" fill-rule="nonzero" stroke-width="1.5" stroke-linecap="butt"/><path d="M235.27302,190.32768c1.18917,2.57935 -0.95174,3.23478 -2.7224,3.59249c-1.59057,0.32133 -4.38955,-0.26101 -3.56462,-2.43635" fill="#ffffff" fill-rule="nonzero" stroke-width="1.5" stroke-linecap="round"/></g></g></svg>