<svg version="1.1" xmlns="http://www.w3.org/2000/svg" xmlns:xlink="http://www.w3.org/1999/xlink" width="25.97225" height="35.50519" viewBox="0,0,25.97225,35.50519"><g transform="translate(-227.01388,-162.24741)"><g stroke="#000000" stroke-miterlimit="10"><path d="M231.1414,197.00261c-1.86535,0 -3.37752,-1.51218 -3.37752,-3.37753v-27.25013c0,-1.86535 1.51217,-3.37753 3.37752,-3.37753h17.71721c1.86535,0 3.37752,1.51218 3.37752,3.37753v27.25013c0,1.86535 -1.51217,3.37753 -3.37752,3.37753z" fill="#000000" stroke-width="1.5"/><path d="M240.08305,168.65503c1.26332,1.40128 4.08766,5.07508 5.46715,7.13706c2.91145,4.32725 3.93518,6.92651 3.45599,8.77067c-0.33398,1.2851 -1.32867,2.3524 -2.60651,2.78803c-0.6607,0.23233 -1.67717,0.26138 -2.33062,0.06534c-1.27058,-0.37755 -2.24349,-1.29237 -2.68638,-2.54117c-0.20329,-0.5518 -0.44289,-0.73331 -0.68249,-0.52276c-0.09439,0.08712 -0.15247,0.22507 -0.15247,0.37028c0,0.42837 0.21782,1.51744 0.44289,2.17815c0.28316,0.85674 1.24154,2.78803 1.8369,3.70285l0.47193,0.72605l-1.62635,0.02178c-0.89304,0.00726 -2.37418,0.00726 -3.29626,0l-1.66991,-0.02178l0.46467,-0.71153c0.53727,-0.83496 1.30689,-2.3161 1.62635,-3.12201c0.30494,-0.76235 0.55906,-1.77882 0.62441,-2.44678c0.04356,-0.50098 0.0363,-0.55906 -0.1089,-0.68975c-0.24686,-0.21782 -0.48645,-0.0363 -0.68975,0.51549c-0.5881,1.64813 -2.04019,2.67186 -3.77546,2.67186c-1.1399,-0.00726 -2.12732,-0.43563 -2.89693,-1.27058c-0.95838,-1.03099 -1.27785,-2.38144 -0.92208,-3.88436c0.64619,-2.69364 3.71011,-7.5146 8.16805,-12.86558c0.62441,-0.74057 0.82043,-0.9366 0.88578,-0.87126z" fill="#ffffff" stroke-width="0"/></g></g></svg>