<svg version="1.1" xmlns="http://www.w3.org/2000/svg" xmlns:xlink="http://www.w3.org/1999/xlink" width="129.3129" height="165.48841" viewBox="0,0,129.3129,165.48841"><g transform="translate(-175.34355,-97.2558)"><g fill="#000000" stroke="none" stroke-miterlimit="10"><path d="M256.93443,97.53983c6.36294,0.7113 11.40673,2.14684 16.35999,4.64287c11.44553,5.78096 19.01121,16.17893 21.22272,29.16346c0.69837,4.0609 0.94409,8.72964 0.7113,13.20439c-0.58198,10.96701 -2.09511,15.80388 -11.32913,36.01784c-10.13931,22.21855 -11.38086,25.01203 -14.35541,32.39666c-3.28493,8.19939 -5.08259,13.61824 -6.10428,18.42924c-0.31039,1.51314 -0.34919,1.95285 -0.36212,4.33249c0,2.83228 0.1164,3.73758 0.80183,5.80683c1.30621,4.03503 4.52648,7.57862 8.21233,9.09176c2.94868,1.18982 6.49226,1.38381 9.93239,0.54318c4.33249,-1.07342 9.53147,-4.04797 14.38127,-8.25112l1.12515,-0.98289l3.56945,3.89277l3.55652,3.89277l-0.68544,0.62077c-2.47016,2.23737 -6.16894,5.08259 -8.67791,6.63453c-7.07424,4.39715 -13.7217,6.24654 -20.38209,5.66457c-6.31121,-0.55611 -11.60072,-2.88401 -15.98494,-7.03544c-4.04797,-3.82811 -6.56986,-8.48392 -7.57862,-14.01915c-0.37505,-2.06925 -0.40092,-7.03544 -0.06466,-9.47974c1.17688,-8.18646 4.44888,-18.4551 10.11345,-31.62069c1.91405,-4.44888 3.34959,-7.57862 8.34165,-18.23524c6.37587,-13.6053 7.74675,-16.73504 9.63493,-22.11508c1.75886,-5.01793 2.81935,-9.24695 3.51772,-13.96742c0.27159,-1.88819 0.31039,-7.79848 0.06466,-9.82893c-0.85356,-7.00958 -2.83228,-12.22149 -6.44053,-17.00663c-1.25448,-1.6554 -3.1168,-3.60825 -4.70754,-4.9274c-5.23778,-4.34542 -11.30327,-6.55693 -19.03708,-6.97078c-8.1606,-0.42678 -15.2219,1.35794 -20.92527,5.27658c-6.71212,4.61701 -10.76009,11.54899 -11.83351,20.29156c-0.24572,1.95285 -0.28452,6.40173 -0.06466,8.50978c0.65957,6.56986 2.78055,13.95449 6.33707,21.98576c0.43972,0.99583 1.81059,3.9057 3.03921,6.4664c3.44012,7.1777 4.35835,9.20815 5.83269,12.94573c3.85397,9.7384 4.50061,15.09257 2.70295,22.16682c-2.56069,10.08758 -12.07923,19.56732 -22.32201,22.24441c-8.25112,2.14684 -17.13596,1.08636 -24.04207,-2.87108c-2.74175,-1.5778 -4.70754,-3.12974 -7.24237,-5.74216c-2.56069,-2.62536 -4.28076,-5.06966 -5.81976,-8.22526c-1.91405,-3.91864 -2.88401,-7.9666 -3.06507,-12.84227c-0.28452,-7.78554 1.99165,-14.75632 6.77679,-20.75714c1.11222,-1.40967 3.91864,-4.21609 5.34125,-5.35418c5.03086,-4.0221 10.50143,-6.13015 16.9161,-6.544c3.32373,-0.20692 6.80265,0.16813 10.43677,1.15102c0.77597,0.21986 1.43554,0.36212 1.46141,0.34919c0.02587,-0.02587 -0.31039,-0.7501 -0.73717,-1.6166c-3.60825,-7.1777 -6.22068,-14.65286 -7.24237,-20.70541c-0.50438,-2.98748 -0.59491,-4.15143 -0.59491,-7.75968c0.01293,-3.69878 0.14226,-5.23778 0.72424,-8.083c1.87526,-9.23402 7.20357,-17.20062 15.50642,-23.17557c6.36294,-4.57821 14.30367,-7.26823 23.21437,-7.85021c1.73299,-0.1164 7.9666,0.05173 9.76426,0.24572zM199.64213,175.02022c-7.39756,2.4443 -13.25612,9.07882 -14.79512,16.73504c-1.02169,5.06966 -0.37505,10.54023 1.74593,15.00205c1.74593,3.65998 5.06966,7.37169 8.41925,9.42801c3.9445,2.4055 8.53565,3.47892 13.32078,3.10387c4.91446,-0.36212 9.04003,-2.13391 12.7776,-5.45764c4.33249,-3.85397 6.84145,-8.63911 7.51396,-14.36834c0.18106,-1.59073 0.0776,-5.57404 -0.18106,-6.99664c-1.02169,-5.41884 -3.60825,-9.95825 -7.56569,-13.26905c-3.75051,-3.14267 -7.61742,-4.7334 -12.50602,-5.14725c-3.05214,-0.27159 -5.96202,0.05173 -8.72964,0.96996z"/></g></g></svg>