<svg version="1.1" xmlns="http://www.w3.org/2000/svg" xmlns:xlink="http://www.w3.org/1999/xlink" width="36.69504" height="36.70222" viewBox="0,0,36.69504,36.70222"><g transform="translate(-231.65248,-231.64889)"><g stroke="none" stroke-miterlimit="10"><path d="M250.22955,231.6532c0.98136,0.0086 1.52656,0.04877 2.38167,0.1693c8.05179,1.1478 14.41344,7.50945 15.56411,15.56697c0.13774,0.95266 0.17218,1.48352 0.17218,2.62559c0,1.13918 -0.03156,1.62413 -0.17218,2.59689c-0.2812,1.96273 -0.86085,3.82216 -1.73892,5.58117c-2.74897,5.50368 -8.07475,9.27705 -14.15519,10.02599c-0.88954,0.11191 -1.25109,0.13201 -2.28124,0.13201c-0.9871,0 -1.37448,-0.02296 -2.1808,-0.11765c-3.5266,-0.41608 -6.8753,-1.86517 -9.60131,-4.15215c-3.4893,-2.92688 -5.75332,-6.98721 -6.39322,-11.46935c-0.14061,-0.97563 -0.17218,-1.4577 -0.17218,-2.61123c0,-1.38597 0.08608,-2.32428 0.32999,-3.55817c1.09328,-5.54959 4.69161,-10.28711 9.75341,-12.84098c2.32428,-1.17076 4.65718,-1.78769 7.38893,-1.94839c0.09469,-0.00573 0.59111,-0.00573 1.10475,0zM250.92396,233.44377c-0.02583,0 -0.03445,0.99283 -0.03445,4.73466v4.73466l0.23817,-0.01434c0.91537,-0.066 1.51222,-0.12339 1.94265,-0.18651c0.93833,-0.13774 1.56961,-0.26113 2.41037,-0.47346c0.53373,-0.13201 1.25109,-0.33861 1.27692,-0.36444c0.01434,-0.01434 -0.34721,-0.80919 -0.58251,-1.28554c-0.78338,-1.59544 -1.85944,-3.254 -3.0847,-4.77483c-0.55382,-0.68294 -0.96702,-1.1478 -1.891,-2.12054c-0.13201,-0.13774 -0.25539,-0.24964 -0.27547,-0.24964zM249.08751,233.55855c-0.03156,0 -0.79772,0.82355 -1.2138,1.29986c-1.78769,2.05455 -3.20522,4.25259 -4.22676,6.55391c-0.12052,0.2726 -0.21808,0.49929 -0.21808,0.5079c0,0.04592 1.38023,0.40747 2.13776,0.55955c0.9211,0.18365 1.85083,0.31278 2.71166,0.37591c0.22956,0.01434 0.51076,0.03445 0.62555,0.04305l0.2066,0.01722v-4.68014c0,-2.57107 -0.01149,-4.67727 -0.02296,-4.67727zM246.3787,233.8168c-0.04592,0.00573 -0.93259,0.24391 -1.13057,0.3013c-2.19229,0.66287 -4.10049,1.69586 -5.93696,3.21669c-0.37017,0.30416 -1.79344,1.70447 -1.79344,1.76186c0,0.05739 1.03015,0.69443 1.83073,1.13344c0.69729,0.38165 2.33576,1.13633 2.37593,1.09615c0.0086,-0.0086 0.11191,-0.2353 0.2267,-0.50503c0.9785,-2.27549 2.47064,-4.66005 4.17511,-6.67443c0.12052,-0.14347 0.2267,-0.27547 0.24103,-0.29555c0.01149,-0.01722 0.01722,-0.03445 0.01149,-0.03445zM253.83651,233.87418c-0.01434,0 0.00573,0.03729 0.04305,0.08322c0.03729,0.04305 0.2353,0.28695 0.4419,0.53659c1.64709,2.00002 2.99861,4.17224 3.94268,6.3301c0.10329,0.2353 0.20087,0.42468 0.21808,0.42468c0.04877,0 0.76329,-0.3185 1.28841,-0.57102c0.7805,-0.37591 1.67864,-0.88092 2.38454,-1.34005c0.28695,-0.18651 0.32425,-0.22096 0.3013,-0.26686c-0.05452,-0.09756 -1.0158,-1.06745 -1.39744,-1.41179c-1.99429,-1.77908 -4.26693,-3.00435 -6.86954,-3.69591c-0.18078,-0.04877 -0.34148,-0.08896 -0.35295,-0.08896zM236.77165,240.77531l-0.37304,-0.24103l-0.12625,0.17791c-0.68007,0.96127 -1.44909,2.48211 -1.891,3.73607c-0.51937,1.47779 -0.84937,3.0933 -0.91537,4.4764l-0.0086,0.17218l3.27408,0.0086l3.27408,0.00573l0.02009,-0.08896c0.0086,-0.04877 0.01722,-0.16642 0.01722,-0.26113c0,-0.38165 0.13774,-1.65857 0.26113,-2.40463c0.15495,-0.95554 0.43617,-2.12916 0.73172,-3.08183c0.04017,-0.12625 0.06026,-0.2353 0.04877,-0.24677c-0.01149,-0.01149 -0.2726,-0.12625 -0.57964,-0.25826c-1.04449,-0.44477 -1.98281,-0.9211 -2.93835,-1.495c-0.23243,-0.14061 -0.59111,-0.36444 -0.79485,-0.49929zM263.60712,240.54861c-0.01149,-0.00573 -0.04592,0.00573 -0.07748,0.03156c-0.03156,0.02296 -0.2812,0.18365 -0.55669,0.35868c-1.04162,0.66287 -2.21812,1.28841 -3.33434,1.77334c-0.41034,0.17791 -0.52797,0.23817 -0.52512,0.27835c0.00287,0.02869 0.07173,0.26973 0.15208,0.53946c0.5079,1.65857 0.84362,3.5266 0.93833,5.21386l0.02009,0.36729h3.16791h3.16791l-0.01434,-0.12339c-0.0086,-0.066 -0.02296,-0.22956 -0.03156,-0.36444c-0.06313,-0.90675 -0.29269,-2.18655 -0.55955,-3.12202c-0.4792,-1.67004 -1.17076,-3.17938 -2.11481,-4.61701c-0.11478,-0.17791 -0.21808,-0.32712 -0.23243,-0.33572zM257.37173,243.58167c-0.02296,-0.00287 -0.2066,0.04592 -0.41321,0.10904c-1.63561,0.50503 -3.67868,0.86945 -5.5008,0.9785l-0.56815,0.03445v2.20376v2.20376l3.76764,-0.00573l3.76477,-0.0086l-0.0086,-0.22956c-0.00573,-0.12625 -0.02869,-0.43617 -0.05166,-0.68867c-0.13774,-1.50649 -0.42755,-2.93549 -0.89814,-4.41901c-0.02869,-0.09469 -0.07173,-0.17504 -0.09182,-0.17791zM242.81193,243.63044c-0.01722,0 -0.16357,0.48207 -0.29843,0.9871c-0.23243,0.86085 -0.42755,1.84507 -0.5452,2.74322c-0.06313,0.47634 -0.14634,1.41466 -0.14634,1.62413v0.12625h3.64425h3.64425v-2.20376v-2.20376l-0.56529,-0.03445c-1.76761,-0.10618 -3.58686,-0.41895 -5.28273,-0.9125c-0.24103,-0.06886 -0.44477,-0.12625 -0.45051,-0.12625zM240.00843,250.89025h-3.28556h-3.2827l0.01434,0.12052c0.0086,0.06886 0.02296,0.23243 0.03156,0.36729c0.02869,0.40172 0.12339,1.13057 0.21808,1.63561c0.38165,2.08325 1.15067,4.04599 2.29845,5.86237c0.17791,0.28407 0.56529,0.85224 0.62842,0.9211c0.01149,0.01434 0.23817,-0.11191 0.50503,-0.27547c1.2224,-0.76616 2.5596,-1.45196 3.73896,-1.92256c0.19798,-0.07748 0.36729,-0.15208 0.37877,-0.16357c0.01149,-0.0086 -0.04305,-0.21521 -0.12052,-0.45338c-0.43041,-1.30562 -0.76902,-2.80636 -0.94693,-4.18372c-0.06886,-0.54808 -0.14347,-1.36587 -0.14347,-1.60691c0,-0.09469 -0.0086,-0.20087 -0.01722,-0.23817zM249.11045,250.89025h-3.64712h-3.64999l0.02009,0.30703c0.09182,1.48065 0.36155,3.0388 0.76616,4.45633c0.15495,0.53946 0.37591,1.20519 0.396,1.1937c0.04017,-0.02583 1.1105,-0.3099 1.51509,-0.4046c1.46632,-0.33572 2.59401,-0.49354 4.32145,-0.60547l0.27835,-0.01722v-2.46489zM258.43916,250.89025h-3.77624h-3.77339v2.46489v2.46489l0.2812,0.01722c1.05311,0.06886 1.55527,0.11765 2.35873,0.2353c1.10475,0.1607 2.36159,0.43903 3.37739,0.74607c0.17791,0.05452 0.32999,0.09756 0.33572,0.09756c0.02009,0 0.29555,-0.85511 0.44477,-1.37735c0.25826,-0.92686 0.46199,-1.92829 0.58825,-2.89818c0.06313,-0.49642 0.08322,-0.7145 0.14634,-1.54378zM266.5627,250.89025h-3.16791h-3.16791l-0.03445,0.55093c-0.08035,1.29986 -0.28695,2.62272 -0.61981,3.9685c-0.13201,0.53659 -0.46199,1.64996 -0.56242,1.90533c-0.03156,0.08322 -0.05739,0.16357 -0.05739,0.18365c0,0.02009 0.11191,0.07748 0.25252,0.13201c1.03015,0.4046 2.47924,1.15354 3.65859,1.891c0.26686,0.16642 0.49354,0.28982 0.50503,0.27547c0.13201,-0.14634 0.7346,-1.07892 1.03015,-1.5897c1.1851,-2.06891 1.95986,-4.57685 2.11481,-6.84373c0.0086,-0.14347 0.02296,-0.30703 0.03156,-0.36729zM249.11045,257.63355l-0.2353,0.00573c-0.77476,0.01722 -2.00291,0.1607 -3.03591,0.35582c-0.88092,0.16642 -2.14639,0.48494 -2.1722,0.5452c-0.00573,0.01722 0.09469,0.25539 0.22096,0.53086c1.13344,2.42186 2.88959,4.94126 4.90108,7.02738l0.3185,0.32999l0.00287,-4.39892zM251.29987,257.64503l-0.41034,-0.02009v4.4678c0,4.35588 0,4.46493 0.05452,4.46493c0.06313,0 0.68007,-0.62842 1.27118,-1.29702c1.31709,-1.48639 2.35873,-2.92401 3.27123,-4.5137c0.3013,-0.52225 1.08467,-2.0603 1.08467,-2.12629c0,-0.02009 -0.02296,-0.04017 -0.04877,-0.04877c-0.02869,-0.00573 -0.16642,-0.04877 -0.3099,-0.08896c-1.19084,-0.35582 -2.69445,-0.6399 -4.07468,-0.77476c-0.2353,-0.02296 -0.61408,-0.05166 -0.83789,-0.06313zM241.99125,259.25194l-0.06886,-0.14634l-0.24391,0.09756c-1.17361,0.47346 -2.70306,1.25685 -3.64138,1.86517l-0.24103,0.15782l0.39885,0.39885c2.05455,2.06891 4.47067,3.50651 7.21964,4.30423c0.32999,0.09469 0.96414,0.25539 1.01006,0.25539c0.0086,0 -0.15208,-0.20087 -0.35582,-0.44477c-1.50361,-1.80491 -2.69445,-3.63565 -3.65859,-5.6242c-0.19225,-0.396 -0.37877,-0.78338 -0.41895,-0.86372zM258.31004,259.21177c-0.01722,0 -0.15495,0.25826 -0.30416,0.57676c-0.93259,2.00002 -2.25255,4.05459 -3.79346,5.89967c-0.18651,0.22381 -0.33861,0.41321 -0.33861,0.41895c0,0.03445 0.97276,-0.24677 1.53805,-0.4419c2.4075,-0.83215 4.55389,-2.18655 6.37887,-4.02303l0.41321,-0.41608l-0.24103,-0.15782c-0.78623,-0.5079 -2.25828,-1.27979 -3.16218,-1.6643c-0.24964,-0.10618 -0.4706,-0.19225 -0.49069,-0.19225z" fill="#000000" stroke-width="1"/><path d="M266.58046,250.95626c-0.0086,0.06025 -0.02139,0.22523 -0.02999,0.36871c-0.15495,2.26689 -0.93978,4.85978 -2.12488,6.92867c-0.29555,0.51076 -0.91739,1.44991 -1.04939,1.59625c-0.01147,0.01434 -0.24405,-0.10857 -0.51092,-0.275c-1.17936,-0.73744 -2.67459,-1.51081 -3.70474,-1.91541c-0.14061,-0.05453 -0.25408,-0.11449 -0.25408,-0.13459c0,-0.02009 0.02503,-0.10189 0.05659,-0.1851c0.10043,-0.25539 0.42431,-1.39245 0.5563,-1.92904c0.33286,-1.34578 0.56346,-2.71422 0.64381,-4.01411l0.03737,-0.55273l3.20177,-0.00641l3.19497,0.01223z" fill="#ffffff" stroke-width="0.5"/><path d="M258.81285,259.35216c0.9039,0.38451 2.41316,1.18823 3.19941,1.69614l0.24204,0.16051l-0.41217,0.41946c-1.82498,1.83648 -4.05782,3.24493 -6.46533,4.07708c-0.56529,0.19513 -1.54403,0.47019 -1.54403,0.43576c0,-0.00573 0.15136,-0.19604 0.33787,-0.41985c1.54092,-1.84507 2.90203,-3.98594 3.83462,-5.98598c0.14921,-0.3185 0.29173,-0.5766 0.30895,-0.5766c0.02009,0 0.24899,0.08732 0.49865,0.19349z" fill="#ffffff" stroke-width="0.5"/><path d="M258.46463,251.06499c-0.06313,0.82928 -0.07561,1.06166 -0.13874,1.55808c-0.12625,0.96989 -0.33343,2.01426 -0.59169,2.9411c-0.14922,0.52225 -0.43689,1.39248 -0.457,1.39248c-0.00573,0 -0.15997,-0.04131 -0.33788,-0.09582c-1.0158,-0.30703 -2.32979,-0.5804 -3.43456,-0.74108c-0.80345,-0.11765 -1.32754,-0.18783 -2.38063,-0.25671l-0.2821,-0.0189l-0.00522,-2.49665l0.01108,-2.49046l3.81498,-0.02004l3.8179,0.02004z" fill="#ffffff" stroke-width="0.5"/><path d="M252.11958,257.6581c1.38023,0.13487 2.9322,0.42512 4.12304,0.78094c0.14347,0.04017 0.28412,0.08538 0.31282,0.09111c0.02583,0.0086 0.04941,0.02919 0.04941,0.04928c0,0.06599 -0.7748,1.61289 -1.07611,2.13512c-0.9125,1.5897 -2.0194,3.10773 -3.33648,4.59414c-0.59112,0.6686 -1.21328,1.29415 -1.2764,1.29415c-0.05452,0 -0.07958,-0.15421 -0.07958,-4.51009l0.02468,-4.51276l0.41338,0.0183c0.22381,0.01147 0.60995,0.03685 0.84525,0.0598z" fill="#ffffff" stroke-width="0.5"/><path d="M241.98937,259.1987c0.04017,0.08035 0.23484,0.46808 0.42708,0.86406c0.96414,1.98855 2.19068,3.90499 3.6943,5.7099c0.20374,0.24391 0.36364,0.44576 0.35504,0.44576c-0.04592,0 -0.68346,-0.15692 -1.01345,-0.25162c-2.74897,-0.79772 -5.25441,-2.28631 -7.30895,-4.35521l-0.39791,-0.40207l0.24196,-0.16041c0.93833,-0.60834 2.51081,-1.42533 3.68442,-1.89879l0.24771,-0.09791z" fill="#ffffff" stroke-width="0.5"/><path d="M249.16372,262.02958l-0.02812,4.44426l-0.31945,-0.32943c-2.01149,-2.08613 -3.82908,-4.69208 -4.96253,-7.11394c-0.12626,-0.27547 -0.22506,-0.51495 -0.21933,-0.53218c0.02583,-0.06025 1.31683,-0.38954 2.19777,-0.55598c1.03302,-0.19513 2.29458,-0.33218 3.06934,-0.3494l0.2371,-0.00467z" fill="#ffffff" stroke-width="0.5"/><path d="M249.16322,253.34772l-0.00577,2.49744l-0.2793,0.01896c-1.72743,0.11191 -2.9196,0.29283 -4.3859,0.62855c-0.4046,0.09471 -1.49044,0.36983 -1.53061,0.39566c-0.02009,0.01147 -0.25227,-0.66709 -0.40722,-1.20655c-0.4046,-1.41753 -0.67202,-3.03543 -0.76385,-4.51608l-0.01846,-0.30915l3.69128,-0.01958l3.68835,0.01958z" fill="#ffffff" stroke-width="0.5"/><path d="M240.05339,250.9079c0.0086,0.03729 0.01848,0.14426 0.01848,0.23895c0,0.24103 0.08526,1.06796 0.15413,1.61602c0.17791,1.37735 0.52574,2.93481 0.95615,4.24043c0.07748,0.23819 0.13008,0.44877 0.11859,0.45737c-0.01149,0.01149 -0.18286,0.08964 -0.38085,0.16712c-1.17936,0.4706 -2.56412,1.18091 -3.78651,1.94706c-0.26686,0.16357 -0.49932,0.28921 -0.5108,0.27486c-0.06313,-0.06886 -0.46101,-0.63984 -0.63891,-0.92391c-1.1478,-1.81638 -1.94273,-3.85759 -2.32437,-5.94085c-0.09469,-0.50503 -0.18168,-1.24335 -0.21037,-1.64507c-0.0086,-0.13487 -0.02139,-0.29988 -0.03001,-0.36874l-0.01388,-0.12094l3.31041,-0.0127l3.32028,0.00702z" fill="#ffffff" stroke-width="0.5"/><path d="M236.76514,240.72245c0.20374,0.13487 0.57336,0.35846 0.80578,0.49907c0.95554,0.57391 1.93442,1.07475 2.97891,1.51953c0.30703,0.13201 0.57138,0.25265 0.58285,0.26413c0.01149,0.01147 -0.00754,0.12294 -0.04772,0.24919c-0.29555,0.95267 -0.57849,2.17061 -0.73346,3.12615c-0.12339,0.74607 -0.27801,2.04252 -0.27801,2.42415c0,0.09471 -0.01005,0.21333 -0.01867,0.2621l-0.02067,0.08933l-3.30938,0.00219l-3.30287,-0.02173l0.00785,-0.17286c0.066,-1.3831 0.3794,-3.0445 0.89878,-4.52229c0.4419,-1.25396 1.25116,-2.8197 1.93122,-3.78099l0.12821,-0.17835l0.37713,0.24036z" fill="#ffffff" stroke-width="0.5"/><path d="M243.22811,243.71598c1.69586,0.49354 3.59608,0.82127 5.36368,0.92745l0.5671,0.03804l0.00426,2.23368l-0.01012,2.22803l-3.68683,0.02125l-3.68683,-0.02125l-0.00071,-0.12722c0,-0.20947 0.07524,-1.16433 0.13838,-1.64068c0.11765,-0.89815 0.31821,-1.92408 0.55064,-2.78493c0.13487,-0.50503 0.28995,-0.99817 0.30716,-0.99817c0.00573,0 0.2122,0.05492 0.45323,0.1238z" fill="#ffffff" stroke-width="0.5"/><path d="M257.40904,243.54367c0.02009,0.00287 0.06497,0.08512 0.09368,0.17981c0.4706,1.48352 0.76899,2.97221 0.90673,4.47871c0.02297,0.2525 0.04241,0.5685 0.04814,0.69475l0.0074,0.2313l-3.80776,0.03046l-3.8106,-0.01601l-0.00975,-2.22743l0.00386,-2.23291l0.5698,-0.03788c1.82212,-0.10904 3.94726,-0.48898 5.58288,-0.99399c0.20661,-0.06313 0.39269,-0.10967 0.41563,-0.10679z" fill="#ffffff" stroke-width="0.5"/><path d="M263.61656,240.49617c0.01434,0.0086 0.12133,0.15862 0.23611,0.33652c0.94407,1.43762 1.67455,3.00982 2.15375,4.67985c0.26686,0.93546 0.48142,2.24227 0.54455,3.14902c0.0086,0.13487 0.02133,0.29993 0.02995,0.36593l0.01384,0.12383l-3.19601,0.01262l-3.20251,-0.00735l-0.02207,-0.36857c-0.09469,-1.68726 -0.45075,-3.61769 -0.95865,-5.27627c-0.08035,-0.26975 -0.1469,-0.51614 -0.14979,-0.54484c-0.00287,-0.04017 0.11813,-0.10625 0.52845,-0.28416c1.11624,-0.48493 2.339,-1.13431 3.38062,-1.79716c0.27547,-0.17504 0.53183,-0.33507 0.56339,-0.35803c0.03156,-0.02583 0.06686,-0.03716 0.07833,-0.03141z" fill="#ffffff" stroke-width="0.5"/><path d="M253.79605,233.83957c0.01147,0 0.17323,0.03897 0.35401,0.08774c2.60263,0.69156 4.9679,1.95442 6.96219,3.73352c0.38164,0.34434 1.33995,1.33003 1.39447,1.42761c0.02296,0.04592 -0.01592,0.08432 -0.30287,0.27083c-0.70589,0.45913 -1.62813,0.98981 -2.40862,1.36571c-0.52512,0.25252 -1.25941,0.57684 -1.30819,0.57684c-0.01722,0 -0.11769,-0.18919 -0.221,-0.42451c-0.94407,-2.15786 -2.33906,-4.4166 -3.98615,-6.41664c-0.2066,-0.24964 -0.40374,-0.49459 -0.44103,-0.53765c-0.0373,-0.04592 -0.05717,-0.08347 -0.04283,-0.08347z" fill="#ffffff" stroke-width="0.5"/><path d="M250.89613,233.39834c0.02009,0 0.14439,0.11136 0.27639,0.24909c0.92397,0.97276 1.3483,1.43271 1.90212,2.11565c1.22527,1.52084 2.35429,3.26838 3.13767,4.86384c0.2353,0.47634 0.59277,1.27477 0.57843,1.28912c-0.02583,0.02583 -0.75618,0.24003 -1.28992,0.37202c-0.84077,0.21234 -1.50091,0.33895 -2.43924,0.47669c-0.43041,0.06313 -1.04496,0.11423 -1.96033,0.18023l-0.23981,0.01337l-0.02521,-4.77994c0,-3.74181 0.03405,-4.78008 0.05988,-4.78008z" fill="#ffffff" stroke-width="0.5"/><path d="M249.16372,238.23579l-0.02561,4.7257l-0.20805,-0.01637c-0.11478,-0.0086 -0.40096,-0.02622 -0.63051,-0.04058c-0.86085,-0.06313 -1.82051,-0.18856 -2.74163,-0.3722c-0.75755,-0.15208 -2.16159,-0.524 -2.16159,-0.56992c0,-0.0086 0.09617,-0.23642 0.21669,-0.509c1.02155,-2.30134 2.49583,-4.58855 4.28352,-6.64309c0.41608,-0.47633 1.18687,-1.29738 1.21843,-1.29738c0.01147,0 0.04873,2.1518 0.04873,4.72287z" fill="#ffffff" stroke-width="0.5"/><path d="M246.41934,233.78236c0.00573,0 0.00012,0.01735 -0.01137,0.03456c-0.01434,0.02009 -0.12007,0.15262 -0.24059,0.2961c-1.70447,2.01438 -3.23777,4.48597 -4.21627,6.76147c-0.11478,0.26973 -0.22129,0.49631 -0.2299,0.50493c-0.04017,0.04017 -1.71271,-0.7296 -2.41,-1.11125c-0.80059,-0.43903 -1.84384,-1.0968 -1.84384,-1.15419c0,-0.05739 1.42059,-1.47981 1.79075,-1.78397c1.83647,-1.52084 3.83452,-2.58759 6.02679,-3.25044c0.19798,-0.05739 1.08851,-0.2915 1.13441,-0.29723z" fill="#ffffff" stroke-width="0.5"/></g></g></svg>