<svg version="1.1" xmlns="http://www.w3.org/2000/svg" xmlns:xlink="http://www.w3.org/1999/xlink" width="37.4732" height="42.31972" viewBox="0,0,37.4732,42.31972"><g transform="translate(-221.2634,-158.34583)"><g stroke="#000000" stroke-miterlimit="10"><path d="M244.66105,171.36145l9.0148,-8.872l-2.6828,11.601l6.5109,3.4966l-6.9219,3.998v9.7204l3.9531,2.7679l0.0039,5.9922h-7.1328v-2.3398h-3.8125v2.3398h-7.1875v-2.3398h-3.8125v2.3398h-7.1328v-6.0039l3.957,-2.8363v-9.6403l-6.9219,-3.998l6.5109,-3.4966l-2.6828,-11.601l9.0148,8.872l4.661,-11.427z" fill="#ffffff" stroke-width="1.2"/><path d="M239.99995,187.15915v4.3784M235.99995,183.15915v4.3784M243.99995,183.15915v4.3784M250.56595,191.39415h-21.132M254.54895,194.39415h-29.098M243.99995,191.35915l2,3.078M235.99995,191.35915l-2,3.078" fill="none" stroke-width="0.9"/><path d="M236.02995,177.39515l3.9699,-3.9699l3.9699,3.9699l-3.9699,3.9699z" fill="none" stroke-width="1"/><path d="M250.29595,187.39415h-20.593M250.29595,183.39415h-20.593" fill="none" stroke-width="0.9"/><path d="M229.42795,181.58565v-6.7875" fill="none" stroke-width="1.2"/><path d="M229.42795,175.58615c0,-2.2378 4.73325,-4.0519 10.572,-4.0519c5.83875,0 10.572,1.8141 10.572,4.0519" fill="none" stroke-width="1.2"/><path d="M250.57195,181.58565v-6.7875" fill="none" stroke-width="1.2"/></g></g></svg>