<svg version="1.1" xmlns="http://www.w3.org/2000/svg" xmlns:xlink="http://www.w3.org/1999/xlink" width="95.70369" height="116.27959" viewBox="0,0,95.70369,116.27959"><g transform="translate(-194.95881,-111.55012)"><g data-paper-data="{&quot;isPaintingLayer&quot;:true}" fill-rule="nonzero" stroke-miterlimit="10" stroke-dasharray="" stroke-dashoffset="0" style="mix-blend-mode: normal"><path d="M253.70241,205.79259c0,0 4.99645,6.8786 1.44222,9.46627c-1.90838,1.39732 -4.55733,-1.36713 -5.28918,-2.36732c-1.05953,-1.45199 -1.40877,-1.8015 -1.63467,-3.62202c-0.22511,-1.81656 -1.12168,-8.49619 -0.75809,-10.9143c0.57189,-3.78929 3.18985,-10.09565 5.08863,-1.27046c0,0 0.59821,4.99786 1.07476,8.33852l0.07633,0.36932v0v0v0v0v0v0v0v0v0v0v0v0v0v0v0v0v0v0v0v0v0v0v0v0v0v0v0v0v0v0v0v0v0v0v0zM252.62132,204.40478l1.08109,1.38782" fill="#f05a28" stroke="#000000" stroke-width="0.90192" stroke-linecap="round" stroke-linejoin="miter"/><g stroke-width="0.90192"><path d="M250.7353,197.88678c-0.3437,2.27549 -1.25928,8.20144 -1.11208,9.37286l-0.21402,-0.47795c0.43913,1.23639 0.88301,2.99511 0.74215,4.82355c-0.27362,3.54983 -2.22971,5.45196 -4.30827,6.46729l-0.02386,0.11568l-1.78345,7.08707c0.03416,-0.00079 0.33727,0.01743 2.47076,0.22273c2.703,0.2583 1.4446,1.88074 1.4446,1.88074l-5.03862,-0.08962l-0.25768,-0.00317l-10.1814,-0.18144c-0.12492,-0.41289 -0.02544,-1.68978 0.61969,-4.91942c0.24897,-1.26888 0.47963,-2.36027 0.68097,-3.2527l0.00158,-0.00634c-3.43969,-2.66374 -3.0268,-6.78589 -1.97837,-9.70247c0.6682,-1.86568 4.48249,-15.9487 4.48249,-15.9487c0,0 1.65783,-5.40838 8.51882,-3.52606c0,0 7.89754,1.30929 5.93748,8.1348c0,0.00238 -0.00079,0.00238 -0.00079,0.00317v0v0v0v0v0v0v0v0v0v0v0v0v0v0v0v0v0v0v0v0v0v0v0v0v0v0v0v0v0v0v0v0v0v0v0zM240.68834,219.0014c0,0 2.02212,0.32494 5.15395,-0.92729M249.62242,207.26043c-0.17898,-0.81795 -1.24414,-2.26202 -1.24414,-2.26202M234.39131,216.42553c0,0 -0.22986,0.71495 -0.61564,2.50289" fill="#f05a28" stroke="#000000" stroke-linecap="round" stroke-linejoin="round"/><path d="M243.13445,227.19721c-0.00634,0 -0.01268,0 -0.01673,0c-0.22036,-0.0103 -0.39053,-0.19491 -0.38102,-0.41289c0.0088,-0.19659 -0.04375,-0.34713 -0.16384,-0.47558c-0.50595,-0.53412 -2.03885,-0.55798 -2.95523,-0.57224c-0.2752,-0.00396 -0.52021,-0.00792 -0.71275,-0.0206c-0.12008,-0.00872 -0.23066,-0.07131 -0.29906,-0.16956c-0.0684,-0.09913 -0.08909,-0.22353 -0.05494,-0.33921c0.32855,-1.10486 0.64672,-2.22232 0.96497,-3.33907l0.40251,-1.41079c0.06039,-0.21076 0.27837,-0.33604 0.4916,-0.27186c0.21155,0.05951 0.33331,0.27978 0.27362,0.48984l-0.40251,1.40842c-0.27124,0.95423 -0.54328,1.91005 -0.82174,2.85636c0.05485,0.00079 0.11216,0.00158 0.17026,0.00317c1.17565,0.01664 2.78576,0.04199 3.52236,0.82033c0.27045,0.28445 0.39775,0.63959 0.38102,1.05169c-0.01109,0.2156 -0.1869,0.38199 -0.39854,0.38199v0v0v0v0v0v0v0v0v0v0v0v0v0v0v0v0v0v0v0v0v0v0v0v0v0v0v0v0v0v0v0v0v0v0v0v0z" fill="#000000" stroke="none" stroke-linecap="butt" stroke-linejoin="miter"/></g><path d="M237.74191,200.5506l-2.60995,4.28062l0.01188,-0.07457c0.08434,3.00779 -0.12008,8.23076 -2.52323,9.08674c-1.29423,0.45806 -4.33697,1.19519 -4.06018,-7.07835c0.22194,-6.66467 6.19446,-12.55417 8.50772,-14.5902c0,0 2.05866,1.14122 2.13983,3.34382c0.08029,2.2041 -1.46767,5.02876 -1.46608,5.03193v0v0v0v0v0v0v0v0v0v0v0v0v0v0v0v0v0v0v0v0v0v0v0v0v0v0v0v0v0v0v0v0v0v0v0zM235.14385,204.75666c0,-1.27601 -0.35479,-2.06852 -0.35479,-2.06852" fill="#f05a28" stroke="#000000" stroke-width="0.90192" stroke-linecap="round" stroke-linejoin="miter"/><path d="M210.59534,143.45858c0,0 0.73978,-3.02125 7.03522,-9.44259c6.29227,-6.41816 13.10396,-8.6286 17.62149,-10.47368c4.51753,-1.84508 7.55067,-11.06414 7.55067,-11.06414c0,0 4.15957,5.15483 8.43448,9.84201c4.36241,4.77997 14.52074,8.96939 25.40608,19.88537c1.29899,1.30691 2.40315,2.67483 3.3315,4.07849l0.18849,0.1641c2.43097,2.101 11.05481,10.4831 9.94827,22.68697c-0.8448,9.2983 -5.08792,12.23636 -7.14579,13.0249l-0.01673,0.06814c1.05961,-2.0915 1.6904,-4.31153 1.98876,-6.56475c0.98399,-7.45163 -3.0467,-12.29261 -5.63041,-18.77416c-3.34981,-8.40428 -12.51297,-13.13266 -24.37754,-12.89725c-22.58132,0.44538 -27.55462,13.09384 -27.55462,13.09384l-0.01673,0.1641c4.18898,7.75122 5.86195,24.94415 -2.71577,30.08947c-9.23949,5.53445 -22.92018,3.603 -28.24827,-17.7819c-4.87708,-19.57143 9.72633,-25.73754 14.02192,-25.68683l0.17898,-0.4121v0v0v0v0v0v0v0v0v0v0v0v0v0v0v0v0v0v0v0v0v0v0v0v0v0v0v0v0v0v0v0v0v0v0v0zM279.97398,146.28405c0,0 5.92472,9.37832 3.99644,20.96796M210.41636,143.86989c4.15403,0.11181 6.9382,3.07434 6.9382,3.07434M227.35768,157.24835c-0.69919,-1.08664 -1.18683,-1.98145 -1.18683,-1.98145" fill="#f05a28" stroke="#000000" stroke-width="0.90192" stroke-linecap="round" stroke-linejoin="miter"/><path d="M284.24642,179.04606c0,0 1.86938,-3.37869 3.13104,-9.57332c1.26007,-6.19781 -0.42161,-14.62506 -0.42161,-14.62506c2.08815,3.77336 3.67035,8.61592 3.15886,14.28744c-0.81936,9.05892 -5.03854,12.14832 -7.14737,13.0249l1.27909,-3.11396v0v0v0v0v0v0v0v0v0v0v0v0v0v0v0v0v0v0v0v0v0v0v0v0v0v0v0v0v0v0v0v0v0v0v0z" fill="#404041" stroke="#000000" stroke-width="0.90192" stroke-linecap="butt" stroke-linejoin="miter"/><g stroke="#231f20" stroke-width="0.90192" stroke-linejoin="miter"><path d="M196.88049,171.4629v0v0v0v0v0v0v0v0v0v0v0v0v0v0v0v0v0v0v0v0v0v0v0v0v0v0v0v0v0v0v0v0v0v0v0v0v0c-0.953,-3.66956 -1.78266,-9.39188 -1.01824,-13.84206c0.78591,-4.59131 3.49613,-7.56661 6.47917,-8.28781c5.58507,-1.35612 12.33628,6.66537 15.08471,17.91184c2.58688,10.60124 0.70077,20.28241 -4.20095,22.49918c0,0 -1.60527,0.20442 -4.8445,-1.56847c-3.23677,-1.76902 -6.03529,-4.80849 -7.17678,-6.77401c-1.14466,-1.96323 -3.36803,-6.26287 -4.32341,-9.93868z" fill="#404041" stroke-linecap="butt"/><path d="M200.35038,162.11064c2.14854,-0.91699 5.79504,2.77079 8.14571,8.24027c2.34821,5.46552 2.51293,10.64482 0.36667,11.56102c-2.15013,0.91541 -5.79504,-2.77396 -8.14413,-8.24176c-2.35217,-5.4671 -2.51531,-10.64253 -0.36826,-11.55953v0v0v0v0v0v0v0v0v0v0v0v0v0v0v0v0v0v0v0v0v0v0v0v0v0v0v0v0v0v0v0v0v0v0v0zM209.79984,181.01879c-8.84728,-5.58683 -8.74868,-19.04602 -8.74868,-19.04602" fill="#929497" stroke-linecap="round"/></g><path d="M223.90689,187.8443v0v0v0v0v0v0v0v0v0v0v0v0v0v0v0v0v0v0v0v0v0v0v0v0v0v0v0v0v0v0v0v0v0v0v0v0v0l-0.04772,-0.06031c0.26411,-0.14262 0.52505,-0.29158 0.78274,-0.44538c8.58881,-5.15166 6.89841,-22.3843 2.69983,-30.11729l0.03425,-0.13628c0,0 4.97339,-12.65004 27.55859,-13.09384c11.86466,-0.23541 21.02615,4.49297 24.37675,12.89725c2.58292,6.48155 6.6144,11.32253 5.62962,18.77416c-1.02862,7.75439 -6.00034,15.16165 -18.80999,18.18132c-12.81036,3.02997 -12.29411,1.40604 -16.58891,3.24478c-4.29321,1.84825 -4.51516,2.65898 -4.51516,2.65898c0,0 1.3754,-2.68196 -4.12691,-4.05234c-8.30805,-2.06306 -15.95812,-7.14649 -16.99308,-7.85105z" fill="#e6e7e8" stroke="#000000" stroke-width="0.90192" stroke-linecap="round" stroke-linejoin="miter"/><path d="M266.8724,172.9973c0,0 -0.64514,2.39346 -6.91751,2.85161c-6.27475,0.46123 -11.99425,-2.2041 -11.99425,-2.2041" fill="none" stroke="#231f20" stroke-width="0.90192" stroke-linecap="round" stroke-linejoin="miter"/><path d="M241.27942,159.04387c0.88477,0 1.68609,0.35831 2.26687,0.93627c0.58008,0.57867 0.93971,1.37699 0.93971,2.2585c0,0.88151 -0.35963,1.67992 -0.93971,2.25859c-0.58078,0.57796 -1.38209,0.93627 -2.26687,0.93627c-0.88477,0 -1.68609,-0.35831 -2.26687,-0.93627c-0.58008,-0.57867 -0.93971,-1.37708 -0.93971,-2.25859c0,-0.88151 0.35963,-1.67983 0.93971,-2.2585c0.58078,-0.57796 1.38209,-0.93627 2.26687,-0.93627v0v0v0v0v0v0v0v0v0v0v0v0v0v0v0v0v0v0v0v0v0v0v0v0v0v0v0v0v0v0v0z" fill="#ffffff" stroke="#000000" stroke-width="2.63981" stroke-linecap="butt" stroke-linejoin="miter"/><path d="M270.2436,158.82378c0.88477,0 1.68609,0.35831 2.26687,0.93627c0.58008,0.57867 0.93971,1.37699 0.93971,2.2585c0,0.88151 -0.35963,1.67992 -0.93971,2.25859c-0.58078,0.57796 -1.38209,0.93627 -2.26687,0.93627c-0.88477,0 -1.68609,-0.35831 -2.26687,-0.93627c-0.58008,-0.57867 -0.93971,-1.37708 -0.93971,-2.25859c0,-0.88151 0.35963,-1.67983 0.93971,-2.2585c0.58078,-0.57796 1.38209,-0.93627 2.26687,-0.93627v0v0v0v0v0v0v0v0v0v0v0v0v0v0v0v0v0v0v0v0v0v0v0v0v0v0v0v0v0v0v0z" fill="#ffffff" stroke="#000000" stroke-width="2.63981" stroke-linecap="butt" stroke-linejoin="miter"/></g></g></svg>