<svg version="1.1" xmlns="http://www.w3.org/2000/svg" xmlns:xlink="http://www.w3.org/1999/xlink" width="27.4026" height="35.99053" viewBox="0,0,27.4026,35.99053"><g transform="translate(-236.2987,-182.00473)"><g><g fill-rule="evenodd"><path d="M239.9513,212.24526l3,-3h17l3,3" fill="#000000" stroke="#000000" stroke-width="1.5" stroke-linecap="round" stroke-linejoin="round" stroke-miterlimit="4"/><g><path d="M262.9513,212.24526v5h-4v-2h-5v2h-5v-2h-5v2h-4v-5" fill="#000000" stroke="#000000" stroke-width="1.5" stroke-linecap="butt" stroke-linejoin="round" stroke-miterlimit="4"/><path d="M242.3986,209.53279v-2.11494h18.10541v2.11494" fill="#000000" stroke="#000000" stroke-width="1.5" stroke-linecap="butt" stroke-linejoin="miter" stroke-miterlimit="4"/><path d="M239.9513,212.24526h23" fill="none" stroke="#ffffff" stroke-width="1" stroke-linecap="round" stroke-linejoin="miter" stroke-miterlimit="10"/></g></g><path d="M249.29546,185.05101c8.03694,0.76542 12.62947,6.12338 12.24676,22.19725h-17.60471c0,-6.8888 7.65422,-4.97525 6.12338,-16.07387" fill="#000000" fill-rule="evenodd" stroke="#000000" stroke-width="1.5" stroke-linecap="round" stroke-linejoin="miter" stroke-miterlimit="4"/><path d="M250.8263,191.17439c0.29428,2.22836 -4.25034,5.64011 -6.12338,6.8888c-2.29627,1.53084 -2.15788,3.32415 -3.82711,3.06169c-0.79736,-0.72257 1.08187,-2.32501 0,-2.29627c-0.76542,0 0.14339,0.94279 -0.76542,1.53084c-0.76542,0 -3.06411,0.76542 -3.06169,-3.06169c0,-1.53084 4.59253,-9.18507 4.59253,-9.18507c0,0 1.44348,-1.45593 1.53084,-2.67898c-0.55573,-0.76111 -0.38271,-1.53084 -0.38271,-2.29627c0.76542,-0.76542 2.29627,1.91356 2.29627,1.91356h1.53084c0,0 0.59839,-1.52466 1.91356,-2.29627c0.76542,0 0.76542,2.29627 0.76542,2.29627" fill="#000000" fill-rule="evenodd" stroke="#000000" stroke-width="1.5" stroke-linecap="round" stroke-linejoin="round" stroke-miterlimit="4"/><path d="M239.72768,196.91506c0,0.21137 -0.17135,0.38271 -0.38271,0.38271c-0.21137,0 -0.38271,-0.17135 -0.38271,-0.38271c0,-0.21137 0.17135,-0.38271 0.38271,-0.38271c0.21137,0 0.38271,0.17135 0.38271,0.38271z" fill="#000000" fill-rule="nonzero" stroke="#ffffff" stroke-width="1.5" stroke-linecap="round" stroke-linejoin="round" stroke-miterlimit="4"/><path d="M243.88622,189.45219c-0.31705,0.54914 -0.72246,0.90864 -0.9055,0.80296c-0.18305,-0.10568 -0.07442,-0.63652 0.24263,-1.18567c0.31705,-0.54914 0.72246,-0.90864 0.9055,-0.80296c0.18305,0.10568 0.07442,0.63652 -0.24263,1.18567z" fill="#000000" fill-rule="nonzero" stroke="#ffffff" stroke-width="1.5" stroke-linecap="round" stroke-linejoin="round" stroke-miterlimit="4"/><path d="M258.9513,207.42439h-15" fill="none" fill-rule="evenodd" stroke="#ffffff" stroke-width="1" stroke-linecap="butt" stroke-linejoin="miter" stroke-miterlimit="4"/><path d="M260.4513,209.375h-17.875" fill="none" fill-rule="evenodd" stroke="#ffffff" stroke-width="1" stroke-linecap="round" stroke-linejoin="miter" stroke-miterlimit="4"/><path d="M251.65653,185.42724c2.55833,0.39127 5.1317,2.00904 6.91501,5.38754c1.7833,3.3785 2.82168,8.48763 2.44546,16.05726l-0.03762,0.37622h-1.69301l0.03762,-0.37622c0.37622,-7.47934 -0.37622,-12.03166 -2.06924,-15.2371c-1.69301,-3.20543 -3.57413,-4.32658 -5.94435,-5.07903l-0.37622,-0.11287l0.3386,-1.09105z" fill="#ffffff" fill-rule="evenodd" stroke="none" stroke-width="1.5" stroke-linecap="round" stroke-linejoin="round" stroke-miterlimit="4"/></g></g></svg>