<svg version="1.1" xmlns="http://www.w3.org/2000/svg" xmlns:xlink="http://www.w3.org/1999/xlink" width="28.76982" height="41.887" viewBox="0,0,28.76982,41.887"><g transform="translate(-285.6151,-279.10009)"><g stroke="#000000" stroke-width="1.5" stroke-miterlimit="10"><g fill="#ffffff" stroke-linecap="butt" stroke-linejoin="round"><path d="M300.01308,300.87913c-1.13647,0 -2.04565,-0.90918 -2.04565,-2.04565c0,-1.13647 0.90918,-2.04566 2.04565,-2.04566c1.13647,0 2.04566,0.90918 2.04566,2.04566c0,1.13647 -0.90918,2.04565 -2.04566,2.04565z" fill-rule="evenodd"/><path d="M290.99704,311.94082c0,0 -6.51579,-3.25789 -4.09131,-8.56144c4.5459,-5.75814 21.74455,-5.75814 26.21469,0c2.50025,5.30355 -4.92472,9.01603 -4.92472,9.01603v5.68238c-4.47013,2.87907 -12.65276,2.87907 -17.19866,0z" fill-rule="nonzero"/></g><g fill="none" fill-rule="nonzero" stroke-linecap="round" stroke-linejoin="miter"><path d="M290.99704,312.39541c4.5459,-2.50025 12.72852,-2.50025 17.19866,0"/><path d="M290.99704,315.19872c4.5459,-2.42448 12.72852,-2.42448 17.19866,0"/><path d="M290.99704,318.07779c4.5459,-2.42448 12.72852,-2.42448 17.19866,0"/></g><path d="M300.20074,280.75639c0.16843,0.95592 0.46184,1.79146 0.80957,2.30128c0.13583,0.19826 0.51075,0.63727 0.84217,0.97716l0.59767,0.62312l-0.3749,0.65144c-0.40206,0.69392 -0.978,2.13134 -1.07579,2.68365c-0.14126,0.78598 -0.02174,1.8127 0.29882,2.61284c0.32057,0.80014 0.76067,1.20374 1.36921,1.25332c0.29883,0.02832 0.38577,0.00708 0.69003,-0.19118c1.39637,-0.89927 1.68434,-3.84492 0.60854,-6.1816l-0.18474,-0.38944l0.35859,-0.08497c1.21707,-0.29032 2.05924,-1.55779 2.89054,-4.32641l0.19561,-0.6656l0.03259,1.62152c0.03259,1.75606 0.08694,2.22339 0.34231,2.88899c0.15757,0.40362 0.60853,1.17542 0.80957,1.38077l0.13039,0.13453l-0.49443,0.52398c-0.59768,0.63728 -1.07579,1.35953 -1.30943,1.97556c-0.16843,0.4461 -0.17387,0.4815 -0.19017,1.55779c-0.01086,0.67269 0.00543,1.24624 0.04346,1.47991c0.12497,0.74349 0.6357,1.18958 1.29314,1.12585c0.4238,-0.04248 0.6846,-0.2195 1.07036,-0.72933c0.36403,-0.4815 0.63027,-1.10462 0.7661,-1.80562c0.163,-0.8497 0.01086,-2.13841 -0.33687,-2.79693c-0.11954,-0.23367 -0.11954,-0.25492 -0.0326,-0.2974c1.11383,-0.50983 1.78213,-0.95591 2.32547,-1.56487c1.18206,-1.14579 1.78757,-1.98263 1.79843,-1.96848c0.01086,0.00708 -0.99973,2.54911 -2.24397,5.64345c-1.17581,2.92418 -2.17694,5.41835 -2.32018,5.77347c0.36497,0.15971 1.07675,0.71763 1.03897,1.18846c-0.04853,0.60488 -0.95892,0.98584 -0.95892,0.98584l-1.48832,2.75332h-15.00869l-1.64894,-2.57198c0,0 -0.87786,-0.57824 -0.94649,-1.14229c-0.06388,-0.52507 0.66497,-1.03154 1.07023,-1.212c0.02428,-0.01093 0.04871,-0.02184 0.07328,-0.03267c-0.14614,-0.29359 -0.43071,-0.99542 -1.04985,-2.5416c-1.7115,-4.26977 -2.82533,-7.03838 -3.22197,-8.02262l-0.35317,-0.87803c0,0 0.81584,0.85995 1.32029,1.43741c1.04863,1.18251 1.33117,1.41618 2.34177,1.91184c0.28797,0.14162 0.52703,0.26907 0.53247,0.29032c0.00544,0.02124 -0.07606,0.27616 -0.1793,0.57355c-0.40206,1.08337 -0.3912,2.23755 0.02716,3.32092c0.27711,0.72225 0.6194,1.21083 1.03776,1.47991c0.66287,0.43902 1.4181,0.20534 1.73867,-0.52398c0.11954,-0.26907 0.12497,-0.35404 0.12497,-1.664v-1.38077l-0.15757,-0.41069c-0.27167,-0.70101 -0.94539,-1.63567 -1.63543,-2.29421l-0.163,-0.1487l0.27711,-0.38236c0.815,-1.11877 0.99973,-1.91183 1.01059,-4.36889c0.00544,-0.70809 0.01087,-1.27456 0.02173,-1.26748c0.00544,0.01415 0.11409,0.34696 0.23363,0.75057c0.815,2.65533 1.65717,3.89448 2.8525,4.19188l0.34773,0.08497l-0.163,0.36114c-0.3749,0.82846 -0.63027,1.89059 -0.67373,2.8111c-0.09237,1.83395 0.71176,3.46963 1.77126,3.59c1.05406,0.12745 1.90167,-1.28164 1.90167,-3.16514c0,-0.92051 -0.34773,-1.96139 -1.11383,-3.36341c-0.19561,-0.35404 -0.34774,-0.65853 -0.33688,-0.67976c0.00544,-0.02124 0.26081,-0.30447 0.56508,-0.62311c0.30427,-0.31864 0.66831,-0.74349 0.80414,-0.94884c0.4401,-0.65144 0.70634,-1.50114 0.97257,-3.11559c0.03803,-0.19826 0.13041,-0.26199 0.163,-0.10621z" fill="#ffffff" fill-rule="nonzero" stroke-linecap="butt" stroke-linejoin="round"/><path d="M291.03433,294.97963c0,0 2.81594,-1.67515 8.72213,-1.78683c5.99092,-0.11328 8.94275,1.78683 8.94275,1.78683" fill="none" fill-rule="nonzero" stroke-linecap="round" stroke-linejoin="miter"/><path d="M298.49977,295.48114l1.50024,-4.86476l1.50024,4.86476l4.86476,1.50024l-4.86476,1.50025l-1.50024,4.86475l-1.50024,-4.86475l-4.86477,-1.50025z" fill="#ffffff" fill-rule="nonzero" stroke-linecap="butt" stroke-linejoin="round"/></g></g></svg>