<svg version="1.1" xmlns="http://www.w3.org/2000/svg" xmlns:xlink="http://www.w3.org/1999/xlink" width="33.52896" height="33.34464" viewBox="0,0,33.52896,33.34464"><g transform="translate(-133.54836,-83.32768)"><g stroke-linecap="round"><g fill="#000000" fill-rule="evenodd" stroke-width="1.5" stroke-linejoin="round" stroke-miterlimit="4"><path d="M150.29836,86.92232c10.5,1 16.5,8 16,29h-23c0,-9 10,-6.5 8,-21" stroke="#000000"/><path d="M152.29836,94.92232c0.38,2.91 -5.55,7.37 -8,9c-3,2 -2.82,4.34 -5,4c-1.042,-0.94 1.41,-3.04 0,-3c-1,0 0.19,1.23 -1,2c-1,0 -4.003,1 -4,-4c-0.77675,-1.06962 -0.92778,-1.97009 0.10896,-4.06512c0.59357,-1.19949 1.72268,-0.98924 2.26963,-1.80455c0.94199,-1.40415 2.1214,-3.56782 2.6839,-4.53657c0.5625,-0.96875 0.9375,-1.59375 0.9375,-1.59375c2.99161,-4.46262 9.29149,-6.82272 11.5374,-6.84465c0.65535,0.02589 -0.10443,0.32278 -0.45843,1.07926c-0.354,0.75647 0.37097,1.92074 0.37097,1.92074" stroke="#000000"/><path d="M136.96982,100.71346c0,0.27614 -0.22386,0.5 -0.5,0.5c-0.27614,0 -0.5,-0.22386 -0.5,-0.5c0,-0.27614 0.22386,-0.5 0.5,-0.5c0.27614,0 0.5,0.22386 0.5,0.5z" stroke="#ffffff"/><path d="M143.23136,92.67232c-0.41421,0.71742 -0.94386,1.18707 -1.183,1.049c-0.23914,-0.13807 -0.09721,-0.83158 0.317,-1.549c0.41421,-0.71742 0.94386,-1.18707 1.183,-1.049c0.23914,0.13807 0.09721,0.83158 -0.317,1.549z" stroke="#ffffff"/></g><path d="M156.41688,102.91772c0.05178,3.52129 -3.10702,3.41773 -3.10702,-0.05178" fill="none" fill-rule="nonzero" stroke="#ffffff" stroke-width="1" stroke-linejoin="miter" stroke-miterlimit="10"/><path d="M162.16487,104.16053c0,3.62486 -3.31415,3.52129 -3.21059,-0.05178" fill="none" fill-rule="nonzero" stroke="#ffffff" stroke-width="1" stroke-linejoin="miter" stroke-miterlimit="10"/><path d="M158.28109,108.14787c-0.05178,3.67665 -3.1588,3.57308 -3.10702,0.05179" fill="none" fill-rule="nonzero" stroke="#ffffff" stroke-width="1" stroke-linejoin="miter" stroke-miterlimit="10"/><path d="M152.79203,109.18354c-0.05178,3.36594 -2.95167,3.31415 -2.95167,0" fill="none" fill-rule="nonzero" stroke="#ffffff" stroke-width="1" stroke-linejoin="miter" stroke-miterlimit="10"/><path d="M164.23622,110.52992c0.05178,3.00345 -3.00345,2.95167 -2.89989,0" fill="none" fill-rule="nonzero" stroke="#ffffff" stroke-width="1.00157" stroke-linejoin="miter" stroke-miterlimit="4"/></g></g></svg>