<svg version="1.1" xmlns="http://www.w3.org/2000/svg" xmlns:xlink="http://www.w3.org/1999/xlink" width="27.40261" height="35.99051" viewBox="0,0,27.40261,35.99051"><g transform="translate(-226.2987,-162.00474)"><g stroke="#000000"><g><g fill-rule="evenodd"><path d="M229.9513,192.24526l3,-3h17l3,3" fill="#ffffff" stroke-width="1.5" stroke-linecap="round" stroke-linejoin="round" stroke-miterlimit="4"/><g><path d="M252.9513,192.24526v5h-4v-2h-5v2h-5v-2h-5v2h-4v-5" fill="#ffffff" stroke-width="1.5" stroke-linecap="butt" stroke-linejoin="round" stroke-miterlimit="4"/><path d="M232.3986,189.53279v-2.11494h18.10541v2.11494" fill="#ffffff" stroke-width="1.5" stroke-linecap="butt" stroke-linejoin="miter" stroke-miterlimit="4"/><path d="M229.9513,192.24526h23" fill="none" stroke-width="1" stroke-linecap="round" stroke-linejoin="miter" stroke-miterlimit="10"/></g></g><g stroke-linecap="round" stroke-miterlimit="4"><path d="M239.29546,165.05101c8.03694,0.76542 12.62947,6.12338 12.24676,22.19725h-17.60471c0,-6.8888 7.65422,-4.97525 6.12338,-16.07387" fill="#ffffff" fill-rule="evenodd" stroke-width="1.5" stroke-linejoin="miter"/><path d="M240.8263,171.17439c0.29428,2.22836 -4.25034,5.64011 -6.12338,6.8888c-2.29627,1.53084 -2.15788,3.32415 -3.82711,3.06169c-0.79736,-0.72257 1.08187,-2.32501 0,-2.29627c-0.76542,0 0.14339,0.94279 -0.76542,1.53084c-0.76542,0 -3.06411,0.76542 -3.06169,-3.06169c0,-1.53084 4.59253,-9.18507 4.59253,-9.18507c0,0 1.44348,-1.45593 1.53084,-2.67898c-0.55573,-0.76111 -0.38271,-1.53084 -0.38271,-2.29627c0.76542,-0.76542 2.29627,1.91356 2.29627,1.91356h1.53084c0,0 0.59839,-1.52466 1.91356,-2.29627c0.76542,0 0.76542,2.29627 0.76542,2.29627" fill="#ffffff" fill-rule="evenodd" stroke-width="1.5" stroke-linejoin="round"/><path d="M229.72768,176.91506c0,0.21137 -0.17135,0.38271 -0.38271,0.38271c-0.21137,0 -0.38271,-0.17135 -0.38271,-0.38271c0,-0.21137 0.17135,-0.38271 0.38271,-0.38271c0.21137,0 0.38271,0.17135 0.38271,0.38271z" fill="#000000" fill-rule="nonzero" stroke-width="1.5" stroke-linejoin="round"/><path d="M233.88622,169.45219c-0.31705,0.54914 -0.72246,0.90864 -0.9055,0.80296c-0.18305,-0.10568 -0.07442,-0.63652 0.24263,-1.18567c0.31705,-0.54914 0.72246,-0.90864 0.9055,-0.80296c0.18305,0.10568 0.07442,0.63652 -0.24263,1.18567z" fill="#000000" fill-rule="nonzero" stroke-width="1.5" stroke-linejoin="round"/><path d="M241.59172,165.43372c4.97525,0.76542 9.95049,6.50609 9.18507,21.81454" fill="none" fill-rule="evenodd" stroke-width="1" stroke-linejoin="miter"/></g><path d="M248.9513,187.42439h-15" fill="none" fill-rule="evenodd" stroke-width="1" stroke-linecap="butt" stroke-linejoin="miter" stroke-miterlimit="4"/></g></g></g></svg>