<svg version="1.1" xmlns="http://www.w3.org/2000/svg" xmlns:xlink="http://www.w3.org/1999/xlink" width="38.77209" height="34.30829" viewBox="0,0,38.77209,34.30829"><g transform="translate(-220.6156,-162.84579)"><g stroke-miterlimit="10"><path d="M221.1156,179.92609c0.02658,-0.93035 0.61433,-1.6953 1.55058,-2.02609c0.18016,-0.06498 0.24514,-0.06793 1.12823,-0.07974c0.51686,-0.00591 0.93921,-0.01477 0.93921,-0.02363c0,-0.00591 -0.04726,-0.07384 -0.10928,-0.15063c-0.127,-0.16835 -0.27467,-0.48142 -0.35147,-0.74723c-0.07088,-0.25695 -0.07384,-0.79449 -0.00295,-1.06326c0.15653,-0.5966 0.57888,-1.12823 1.11346,-1.40291c0.36328,-0.18312 0.58774,-0.23628 1.01895,-0.23628c0.4253,0 0.635,0.0443 0.94216,0.19198c0.09747,0.04726 1.27,0.83584 2.60202,1.75437l2.42186,1.66872l1.91091,0.00295c1.0544,0 1.91386,-0.00591 1.91386,-0.01181c0,-0.02953 -1.87251,-3.2577 -1.91681,-3.302c-0.02658,-0.02658 -1.13119,-0.56412 -2.45435,-1.19026c-2.8826,-1.37042 -2.921,-1.38814 -3.14546,-1.57126c-0.72951,-0.59365 -0.99828,-1.6126 -0.66158,-2.49274c0.34851,-0.90967 1.27886,-1.48265 2.2476,-1.38223c0.10337,0.00886 0.18902,0.01477 0.19493,0.01181c0.00295,-0.00295 -0.16835,-0.31012 -0.381,-0.68226c-0.2156,-0.36919 -0.4194,-0.74723 -0.45779,-0.83879c-0.27467,-0.68226 -0.17426,-1.49151 0.26581,-2.10584c0.42826,-0.60546 1.14005,-0.94512 1.86365,-0.89786c0.35442,0.02363 0.56412,0.0827 0.90081,0.24514c0.23923,0.11814 0.31898,0.17721 0.5464,0.40758c0.24514,0.24809 0.29535,0.32193 0.66453,0.96874c0.21856,0.38395 0.40758,0.69998 0.41644,0.70293c0.00886,0 0.03249,-0.05021 0.05021,-0.11519c0.05021,-0.16244 0.29535,-0.52572 0.48142,-0.70884c0.4696,-0.46665 1.16072,-0.70884 1.78981,-0.62319c0.43121,0.05612 0.75019,0.18902 1.1046,0.46074c0.42826,0.32784 0.72656,0.8447 0.81221,1.41177c0.0443,0.29535 0.06202,0.00591 -0.26877,4.15556l-0.16244,2.02609l0.95102,1.65691c0.52572,0.91263 0.95988,1.65691 0.96874,1.65691c0.00886,0 0.44302,-0.74428 0.96874,-1.65691l0.95102,-1.65691l-0.16244,-2.02609c-0.33079,-4.14965 -0.31307,-3.86021 -0.26877,-4.15556c0.15358,-0.99828 0.90967,-1.7396 1.91681,-1.87251c0.62909,-0.08565 1.32021,0.15653 1.78981,0.62319c0.18607,0.18312 0.43121,0.5464 0.48142,0.70884c0.01772,0.06498 0.04135,0.11519 0.05021,0.11519c0.00886,-0.00295 0.19788,-0.31602 0.41644,-0.69998c0.33374,-0.58774 0.43416,-0.73542 0.62319,-0.93626c0.635,-0.67044 1.58307,-0.87423 2.44253,-0.52572c0.889,0.36328 1.45607,1.37928 1.3084,2.33916c-0.05612,0.36328 -0.15358,0.58479 -0.57593,1.31726c-0.22151,0.38395 -0.39872,0.70293 -0.39577,0.70588c0.00591,0.00295 0.09156,-0.00295 0.19198,-0.01181c1.12823,-0.11519 2.14719,0.65272 2.36279,1.78095c0.14472,0.75609 -0.16835,1.59784 -0.77381,2.09698c-0.20379,0.1654 -0.53163,0.32784 -3.57372,1.77209l-2.03791,0.96874l-0.94512,1.63919c-0.51981,0.90081 -0.95102,1.651 -0.95398,1.66577c-0.00591,0.01477 0.8004,0.02658 1.905,0.02658l1.91386,-0.00295l2.42186,-1.66872c1.33202,-0.91853 2.50456,-1.70712 2.60202,-1.75437c0.30716,-0.14767 0.51686,-0.19198 0.94216,-0.19198c0.43121,0 0.65567,0.05316 1.01895,0.23628c0.53458,0.27467 0.95693,0.8063 1.11346,1.40291c0.07088,0.26877 0.06793,0.8063 -0.00295,1.06326c-0.07679,0.26581 -0.22447,0.57888 -0.35147,0.74723c-0.06202,0.07679 -0.10928,0.14472 -0.10928,0.15063c0,0.00886 0.42235,0.01772 0.93921,0.02363c0.88309,0.01181 0.94807,0.01477 1.12823,0.07974c0.74723,0.26286 1.25228,0.77972 1.4797,1.50923c0.05612,0.18016 0.06793,0.28944 0.06793,0.5907c0,0.31898 -0.00886,0.40167 -0.07974,0.62023c-0.22447,0.70884 -0.72656,1.21684 -1.46788,1.4797c-0.18016,0.06498 -0.24514,0.06793 -1.12823,0.07974c-0.51686,0.00591 -0.93921,0.01477 -0.93921,0.02363c0,0.00591 0.04726,0.07384 0.10928,0.15063c0.12995,0.17426 0.28058,0.49028 0.35147,0.74723c0.07088,0.25695 0.07088,0.8004 0.00295,1.06326c-0.15653,0.59365 -0.58479,1.13414 -1.11346,1.40291c-0.36623,0.18312 -0.58774,0.23628 -1.01895,0.23628c-0.42235,-0.00295 -0.635,-0.0443 -0.94512,-0.19198c-0.09747,-0.04726 -1.26705,-0.83584 -2.59907,-1.75437l-2.42186,-1.66872l-1.91386,-0.00295c-1.11642,0 -1.91091,0.01181 -1.905,0.02658c0.00295,0.01477 0.43416,0.76495 0.95398,1.66577l0.94512,1.63919l2.03791,0.96874c2.94167,1.397 3.31677,1.58307 3.52056,1.7337c0.36328,0.27172 0.6734,0.74133 0.79449,1.21684c0.07384,0.28058 0.07384,0.81516 0.00295,1.07802c-0.12109,0.44893 -0.40758,0.889 -0.75609,1.16072c-0.40463,0.31898 -0.8447,0.4696 -1.37633,0.4696c-0.18607,0 -0.35147,-0.00886 -0.36919,-0.02067c-0.01477,-0.00886 -0.02953,-0.01181 -0.02953,-0.00295c0,0.00886 0.18016,0.33079 0.40167,0.71179c0.49619,0.85651 0.60251,1.14891 0.60251,1.63919c0,0.23628 -0.09747,0.66453 -0.20379,0.89491c-0.64386,1.42358 -2.48684,1.73074 -3.57077,0.5966c-0.19493,-0.20084 -0.28649,-0.3426 -0.62614,-0.93626c-0.21856,-0.38691 -0.40758,-0.69998 -0.41644,-0.70293c-0.00886,0 -0.03249,0.05021 -0.05021,0.11519c-0.02067,0.06202 -0.10042,0.21265 -0.18016,0.3367c-0.48437,0.73837 -1.33498,1.12528 -2.17377,0.98351c-0.96579,-0.16244 -1.68939,-0.89786 -1.83412,-1.8607c-0.0443,-0.29535 -0.06202,-0.01181 0.26877,-4.15556l0.16244,-2.02609l-0.95102,-1.65691c-0.52572,-0.91263 -0.95988,-1.65691 -0.96874,-1.65691c-0.00886,0 -0.44302,0.74428 -0.96874,1.65691l-0.95102,1.65691l0.16244,2.02609c0.33079,4.14374 0.31307,3.86021 0.26877,4.15556c-0.05021,0.33965 -0.17721,0.65567 -0.37214,0.93921c-0.46074,0.66453 -1.25523,1.03372 -2.02609,0.93626c-0.51095,-0.06202 -0.95988,-0.27763 -1.31135,-0.62909c-0.20084,-0.20084 -0.39577,-0.48437 -0.46665,-0.68226c-0.02658,-0.07679 -0.05612,-0.13881 -0.06498,-0.13881c-0.00886,0.00295 -0.19493,0.31602 -0.41349,0.69998c-0.33374,0.58774 -0.43416,0.73542 -0.62319,0.93626c-0.635,0.67044 -1.58307,0.87423 -2.44253,0.52572c-0.889,-0.36328 -1.45607,-1.37928 -1.3084,-2.33916c0.05612,-0.36328 0.15358,-0.58479 0.57593,-1.3143c0.22151,-0.38395 0.40167,-0.70588 0.40167,-0.71179c0,-0.00886 -0.01477,-0.00591 -0.02953,0.00295c-0.01772,0.01181 -0.18312,0.02067 -0.36919,0.02067c-0.25105,0 -0.39577,-0.01772 -0.56707,-0.06498c-0.77381,-0.2097 -1.3527,-0.79153 -1.56535,-1.57126c-0.07088,-0.254 -0.06793,-0.82402 0.00295,-1.08688c0.12405,-0.4637 0.43712,-0.93921 0.79449,-1.20207c0.23628,-0.1713 0.20084,-0.15358 3.06572,-1.51514c1.33793,-0.635 2.45435,-1.17844 2.48093,-1.20502c0.0443,-0.0443 1.91681,-3.27246 1.91681,-3.302c0,-0.00591 -0.85946,-0.01181 -1.91386,-0.01181l-1.91091,0.00295l-2.42186,1.66872c-1.33202,0.91853 -2.5016,1.70712 -2.59907,1.75437c-0.31012,0.14767 -0.52277,0.18902 -0.94512,0.19198c-0.43121,0 -0.65272,-0.05316 -1.01895,-0.23628c-0.52867,-0.26877 -0.95693,-0.80926 -1.11346,-1.40291c-0.06793,-0.26286 -0.06793,-0.8063 0.00295,-1.06326c0.07088,-0.25695 0.22151,-0.57298 0.35147,-0.74723c0.06202,-0.07679 0.10928,-0.14472 0.10928,-0.15063c0,-0.00886 -0.42235,-0.01772 -0.93921,-0.02363c-0.88309,-0.01181 -0.94807,-0.01477 -1.12823,-0.07974c-0.57888,-0.20379 -0.9776,-0.52572 -1.27,-1.02191c-0.11223,-0.19198 -0.24219,-0.55821 -0.27763,-0.76791c-0.00591,-0.05021 -0.00886,-0.22151 -0.00295,-0.38395zM222.86702,180.96867l0.16835,0.07974l2.60202,0.01477l2.60498,0.01477l-1.24342,0.85651c-0.68521,0.4696 -1.29363,0.90672 -1.35565,0.96579c-0.38395,0.381 -0.39281,1.03077 -0.02067,1.45607c0.27172,0.30716 0.8063,0.4253 1.17844,0.25991c0.07384,-0.03249 1.27591,-0.8447 2.66995,-1.80458l2.53409,-1.74846h3.06867c1.68939,0 3.06867,0.00886 3.06867,0.02067c-0.00295,0.01477 -0.68816,1.21388 -1.52991,2.667l-1.52695,2.64337l-2.76151,1.3143c-1.52105,0.7236 -2.81467,1.34679 -2.8767,1.38519c-0.28058,0.17426 -0.48733,0.61137 -0.44893,0.95398c0.0384,0.37214 0.2983,0.74133 0.62909,0.88605c0.1713,0.07679 0.49028,0.10337 0.6734,0.05612c0.07384,-0.01772 0.75019,-0.32488 1.50037,-0.68226c0.75019,-0.35737 1.37337,-0.64977 1.38519,-0.64977c0.01181,0 -0.03544,0.09747 -0.10633,0.2156c-0.61433,1.03963 -2.40119,4.16146 -2.43663,4.25598c-0.06793,0.18016 -0.05612,0.52867 0.02363,0.73246c0.09156,0.23628 0.28944,0.44302 0.52867,0.56116c0.17721,0.08565 0.22447,0.09451 0.44893,0.09451c0.31307,0 0.54344,-0.09451 0.74723,-0.30126c0.09747,-0.10042 0.44302,-0.67635 1.2316,-2.04381c0.60546,-1.04849 1.17253,-2.032 1.26409,-2.18558l0.1654,-0.28058l0.12405,1.55058c0.14177,1.76028 0.14472,1.77209 0.39872,2.05267c0.0886,0.09451 0.2156,0.19198 0.31602,0.24219c0.15063,0.07384 0.20084,0.0827 0.4637,0.0827c0.24809,0 0.31602,-0.01181 0.43416,-0.07088c0.34556,-0.16835 0.58184,-0.50505 0.60842,-0.85651c0.00591,-0.10928 -0.09156,-1.50923 -0.23037,-3.22521l-0.24219,-3.02732l1.524,-2.64337c0.83879,-1.45312 1.53581,-2.64337 1.54763,-2.64928c0.01477,-0.00295 0.71179,1.18435 1.55353,2.64337l1.52991,2.64928l-0.24219,3.03028c-0.13881,1.71598 -0.23628,3.11298 -0.23037,3.22226c0.02658,0.35147 0.26286,0.68816 0.60842,0.85651c0.11814,0.05907 0.18607,0.07088 0.43416,0.07088c0.26286,0 0.31307,-0.00886 0.4637,-0.0827c0.10042,-0.05021 0.22742,-0.14767 0.31602,-0.24219c0.254,-0.28058 0.25695,-0.2924 0.39872,-2.05267l0.12405,-1.55058l0.1654,0.28058c0.09156,0.15358 0.65863,1.13709 1.26409,2.18558c0.78858,1.37042 1.13414,1.94339 1.2316,2.04381c0.20379,0.20674 0.43416,0.30126 0.74723,0.30126c0.22447,0 0.27172,-0.00886 0.44893,-0.09451c0.37214,-0.18016 0.5907,-0.52277 0.5966,-0.93626c0,-0.11519 -0.01477,-0.25991 -0.03249,-0.32488c-0.02067,-0.06498 -0.60842,-1.1046 -1.30544,-2.30963c-0.69702,-1.20798 -1.25819,-2.19444 -1.24637,-2.19444c0.00886,0 0.63205,0.2924 1.38223,0.64977c0.74723,0.35442 1.42358,0.66158 1.49742,0.68226c0.18607,0.04726 0.50505,0.02067 0.67635,-0.05612c0.07679,-0.03249 0.2097,-0.12995 0.2983,-0.21265c0.54935,-0.51981 0.39577,-1.39995 -0.30716,-1.73665c-0.10633,-0.05021 -1.36746,-0.64977 -2.80581,-1.33498c-1.43835,-0.68226 -2.6286,-1.25819 -2.64632,-1.27886c-0.03544,-0.0384 -3.01846,-5.19518 -3.04505,-5.26607c-0.01181,-0.03544 0.4253,-0.04135 3.05686,-0.04135l3.07163,0l2.53409,1.74846c1.39405,0.95988 2.59612,1.77209 2.66995,1.80458c0.37214,0.1654 0.90672,0.04726 1.17844,-0.25991c0.37214,-0.4253 0.36328,-1.07507 -0.02067,-1.45607c-0.06202,-0.05907 -0.67044,-0.49619 -1.35565,-0.96579l-1.24342,-0.85651l2.60498,-0.01477l2.60202,-0.01477l0.1713,-0.07974c0.23333,-0.10928 0.4696,-0.35442 0.5523,-0.57593c0.0886,-0.23333 0.0886,-0.5523 0,-0.78563c-0.0827,-0.22151 -0.31898,-0.46665 -0.5523,-0.57593l-0.1713,-0.07974l-2.60202,-0.01477l-2.60498,-0.01477l1.24342,-0.85651c0.68521,-0.47256 1.29363,-0.90672 1.35565,-0.96579c0.38395,-0.381 0.39281,-1.03077 0.02067,-1.45607c-0.27172,-0.30716 -0.8063,-0.4253 -1.17844,-0.25991c-0.07384,0.03249 -1.27591,0.8447 -2.66995,1.80458l-2.53409,1.74846h-3.06867c-1.68939,0 -3.06867,-0.00886 -3.06867,-0.01772c0,-0.01181 0.68816,-1.21093 1.52695,-2.66405l1.52695,-2.64337l0.45779,-0.22151c0.254,-0.12109 1.37633,-0.65567 2.49865,-1.1873c1.11937,-0.53163 2.18263,-1.03963 2.36279,-1.12528c0.40167,-0.19198 0.58774,-0.36623 0.69702,-0.64977c0.10337,-0.27172 0.09747,-0.56707 -0.01477,-0.81516c-0.10042,-0.21856 -0.33374,-0.45484 -0.54049,-0.5464c-0.1713,-0.07384 -0.49028,-0.10337 -0.67044,-0.05612c-0.07088,0.01772 -0.74723,0.32488 -1.49742,0.68226c-0.75314,0.35737 -1.37928,0.64977 -1.39109,0.64977c-0.01181,0 0.03544,-0.09747 0.10633,-0.2156c0.60251,-1.02191 2.40119,-4.16146 2.43663,-4.25598c0.06793,-0.18016 0.05612,-0.52867 -0.02363,-0.73246c-0.09156,-0.23628 -0.28944,-0.44302 -0.52867,-0.56116c-0.17721,-0.08565 -0.22447,-0.09451 -0.44893,-0.09451c-0.2156,0.00295 -0.27763,0.01477 -0.44302,0.09156c-0.10928,0.05021 -0.24514,0.14472 -0.31602,0.21856c-0.07679,0.0827 -0.51686,0.81516 -1.21979,2.03495c-0.60546,1.04849 -1.17253,2.032 -1.26409,2.18558l-0.1654,0.28058l-0.12405,-1.55058c-0.14177,-1.76028 -0.14472,-1.77209 -0.39872,-2.05267c-0.0886,-0.09451 -0.2156,-0.19198 -0.31602,-0.24219c-0.15063,-0.07384 -0.20084,-0.0827 -0.4637,-0.0827c-0.28058,0 -0.30421,0.00591 -0.48142,0.10042c-0.33079,0.18016 -0.53458,0.48437 -0.56116,0.82993c-0.00591,0.10633 0.09451,1.52695 0.23037,3.22226l0.24219,3.02732l-1.52991,2.64928c-0.84174,1.45902 -1.54172,2.64632 -1.55353,2.64337c-0.01181,-0.00591 -0.70884,-1.19616 -1.54763,-2.64928l-1.524,-2.64042l0.24219,-3.03028c0.13881,-1.71598 0.23628,-3.11593 0.23037,-3.22521c-0.02658,-0.35147 -0.24219,-0.66158 -0.5907,-0.8447c-0.14177,-0.07384 -0.18607,-0.0827 -0.45188,-0.0827c-0.26286,0 -0.31307,0.00886 -0.4637,0.0827c-0.21856,0.10633 -0.44302,0.35147 -0.52572,0.57593c-0.05316,0.14177 -0.0827,0.40167 -0.18607,1.71007c-0.06793,0.8506 -0.13291,1.54467 -0.14177,1.54467c-0.00886,0 -0.03249,-0.03249 -0.05021,-0.07088c-0.01772,-0.0384 -0.57888,-1.01895 -1.24637,-2.17672c-0.77677,-1.34679 -1.26114,-2.15605 -1.33793,-2.23874c-0.07088,-0.07384 -0.20674,-0.16835 -0.31602,-0.21856c-0.1654,-0.07679 -0.22742,-0.0886 -0.44302,-0.09156c-0.22447,0 -0.27172,0.00886 -0.44893,0.09451c-0.23923,0.11814 -0.43712,0.32488 -0.52867,0.56116c-0.07974,0.20674 -0.09156,0.5523 -0.02067,0.73246c0.03544,0.10337 2.26533,3.99312 2.4957,4.35935c0.0384,0.06202 0.05907,0.11223 0.0443,0.11223c-0.01477,0 -0.64091,-0.2924 -1.39109,-0.64977c-0.75019,-0.35737 -1.42653,-0.66453 -1.49742,-0.68226c-0.18016,-0.04726 -0.49914,-0.01772 -0.67044,0.05612c-0.33079,0.14472 -0.5907,0.51391 -0.62909,0.88605c-0.03544,0.33965 0.14177,0.73542 0.4194,0.93035c0.07384,0.05021 1.37633,0.68521 2.90032,1.40881l2.76742,1.31726l1.52695,2.64042c0.84174,1.45312 1.52695,2.65223 1.52991,2.66405c0,0.01477 -1.37928,0.02363 -3.06867,0.02363h-3.06867l-2.53409,-1.74846c-1.39405,-0.95988 -2.59612,-1.77209 -2.66995,-1.80458c-0.37214,-0.1654 -0.90672,-0.04726 -1.17844,0.25991c-0.37214,0.4253 -0.36328,1.07507 0.02067,1.45607c0.06202,0.05907 0.67044,0.49323 1.35565,0.96579l1.24342,0.85651l-2.60498,0.01477l-2.60202,0.01477l-0.1713,0.07974c-0.22742,0.10633 -0.4696,0.35737 -0.5464,0.56116c-0.20379,0.55821 0.02363,1.13119 0.54935,1.37633z" fill="#000000" stroke="#000000" stroke-width="1"/><path d="M222.26544,179.59114c0.07679,-0.20379 0.31905,-0.45658 0.54646,-0.56291l0.17132,-0.08002l2.60207,-0.0154l2.60505,-0.01568l-1.24307,-0.85943c-0.68521,-0.47256 -1.29316,-0.90938 -1.35519,-0.96845c-0.38395,-0.381 -0.3916,-1.03557 -0.01946,-1.46087c0.27172,-0.30716 0.90562,-0.39291 1.27776,-0.22751c0.07384,0.03249 1.27707,0.84093 2.67111,1.80081l2.5354,1.74187l2.96581,-0.0179c1.68939,0 3.07464,-0.0242 3.07464,-0.03897c-0.00295,-0.01181 -0.67808,-1.22333 -1.51983,-2.67645l-1.46007,-2.56024l-2.76239,-1.32166c-1.524,-0.7236 -2.82379,-1.36151 -2.89762,-1.41172c-0.27763,-0.19493 -0.533,-0.66003 -0.49756,-0.99968c0.0384,-0.37214 0.30092,-0.744 0.63171,-0.88872c0.1713,-0.07384 0.49166,-0.10464 0.67182,-0.05738c0.07088,0.01772 0.74927,0.32317 1.49946,0.68055c0.75019,0.35737 1.37874,0.64795 1.39351,0.64795c0.01477,0 -0.0058,-0.05028 -0.0442,-0.1123c-0.23037,-0.36623 -2.45908,-4.25678 -2.49452,-4.36015c-0.07088,-0.18016 -0.05801,-0.5264 0.02173,-0.73315c0.09156,-0.23628 0.29133,-0.44415 0.53056,-0.56229c0.17721,-0.08565 0.2256,-0.09514 0.45006,-0.09514c0.2156,0.00295 0.27855,0.01428 0.44395,0.09107c0.10928,0.05021 0.24564,0.14447 0.31652,0.21831c0.07679,0.0827 0.5618,0.89164 1.33857,2.23843c0.66749,1.15777 1.22935,2.13799 1.24707,2.17639c0.01772,0.0384 0.04141,0.07085 0.05027,0.07085c0.00886,0 0.07667,-0.69528 0.1446,-1.54589c0.10337,-1.3084 0.13557,-1.56927 0.18874,-1.71103c0.0827,-0.22447 0.30941,-0.47029 0.52797,-0.57662c0.15063,-0.07384 0.20241,-0.08311 0.46527,-0.08311c0.26581,0 0.31155,0.00853 0.45331,0.08236c0.34851,0.18312 0.58507,0.59559 0.61165,0.94706c0.00591,0.10928 -0.08767,1.50834 -0.22649,3.22432l-0.23589,3.02814l1.48801,2.54241c0.83879,1.45312 1.55174,2.64085 1.56355,2.64675c0.01181,0.00295 0.72794,-1.18183 1.56968,-2.64085l1.49394,-2.55126l-0.23589,-3.02518c-0.13586,-1.6953 -0.23239,-3.11504 -0.22649,-3.22136c0.02658,-0.34556 0.25126,-0.75214 0.58205,-0.9323c0.17721,-0.09451 0.20235,-0.10006 0.48293,-0.10006c0.26286,0 0.31464,0.00928 0.46527,0.08311c0.10042,0.05021 0.22866,0.14804 0.31726,0.24255c0.254,0.28058 0.26065,0.29369 0.40242,2.05397l0.12683,1.55177l0.16552,-0.28052c0.09156,-0.15358 0.65935,-1.13675 1.26481,-2.18524c0.70293,-1.21979 1.14358,-1.95197 1.22037,-2.03467c0.07088,-0.07384 0.20724,-0.1681 0.31652,-0.21831c0.1654,-0.07679 0.22834,-0.08812 0.44395,-0.09107c0.22447,0 0.27285,0.00949 0.45006,0.09514c0.23923,0.11814 0.439,0.32601 0.53056,0.56229c0.07974,0.20379 0.09262,0.55299 0.02469,0.73315c-0.03544,0.09451 -1.83297,3.23485 -2.43548,4.25675c-0.07088,0.11814 -0.11801,0.2157 -0.10619,0.2157c0.01181,0 0.64037,-0.29058 1.39351,-0.64795c0.75019,-0.35737 1.42857,-0.66283 1.49946,-0.68055c0.18016,-0.04726 0.50052,-0.01646 0.67182,0.05738c0.20674,0.09156 0.44195,0.32972 0.54237,0.54828c0.11223,0.24809 0.1196,0.54504 0.01622,0.81676c-0.10928,0.28353 -0.37404,0.52654 -0.77571,0.71852c-0.18016,0.08565 -1.24116,0.59609 -2.36053,1.12771c-1.12233,0.53163 -2.24049,1.06998 -2.49449,1.19108l-0.39297,0.13956l-1.52376,2.64604c-0.83879,1.45312 -1.51683,2.66474 -1.51683,2.67655c0,0.00886 1.38517,0.03294 3.07456,0.03294l2.96581,0.0179l2.5354,-1.74187c1.39405,-0.95988 2.59728,-1.76832 2.67111,-1.80081c0.37214,-0.1654 1.00604,-0.07965 1.27776,0.22752c0.37214,0.4253 0.36449,1.07987 -0.01946,1.46087c-0.06202,0.05907 -0.66998,0.49589 -1.35519,0.96845l-1.24307,0.85943l2.60505,0.01568l2.60207,0.0154l0.17132,0.08002c0.23333,0.10928 0.46967,0.35621 0.55237,0.57772c0.0886,0.23333 0.0886,0.55462 0,0.78795c-0.0827,0.22151 -0.31905,0.46844 -0.55237,0.57772l-0.17132,0.08002l-2.60207,0.0154l-2.60505,0.01568l1.24307,0.85943c0.68521,0.4696 1.29316,0.90938 1.35519,0.96845c0.38395,0.381 0.3916,1.03557 0.01946,1.46087c-0.27172,0.30716 -0.90562,0.39291 -1.27776,0.22752c-0.07384,-0.03249 -1.27707,-0.84093 -2.67111,-1.80081l-2.5354,-1.74187l-2.96877,0.0179c-2.63156,0 -3.07476,0.02145 -3.06294,0.0569c0.02658,0.07088 2.9327,5.15974 2.96814,5.19814c0.01772,0.02067 1.20316,0.60081 2.64151,1.28307c1.43835,0.68521 2.69673,1.28771 2.80306,1.33792c0.70293,0.3367 0.93286,1.28808 0.38351,1.80789c-0.0886,0.0827 -0.22241,0.18104 -0.2992,0.21352c-0.1713,0.07679 -0.49167,0.10465 -0.67774,0.05739c-0.07384,-0.02067 -0.75223,-0.32613 -1.49946,-0.68054c-0.75019,-0.35737 -1.37577,-0.64797 -1.38463,-0.64797c-0.01181,0 0.54861,0.98698 1.24563,2.19496c0.69702,1.20502 1.2842,2.24503 1.30488,2.31001c0.01772,0.06498 0.0321,0.20995 0.0321,0.32514c-0.00591,0.41349 -0.227,0.75764 -0.59914,0.9378c-0.17721,0.08565 -0.2256,0.09514 -0.45006,0.09514c-0.31307,0 -0.54485,-0.09378 -0.74864,-0.30053c-0.09747,-0.10042 -0.44362,-0.6731 -1.2322,-2.04352c-0.60546,-1.04849 -1.17325,-2.03166 -1.26481,-2.18524l-0.16552,-0.28052l-0.12683,1.55177c-0.14177,1.76028 -0.14842,1.77339 -0.40242,2.05397c-0.0886,0.09451 -0.21684,0.19234 -0.31726,0.24255c-0.15063,0.07384 -0.20241,0.08311 -0.46527,0.08311c-0.24809,0 -0.3174,-0.01149 -0.43554,-0.07056c-0.34556,-0.16835 -0.60285,-0.60739 -0.62944,-0.95886c-0.00591,-0.10928 0.08767,-1.50539 0.22649,-3.22136l0.23589,-3.02814l-1.49394,-2.55126c-0.84174,-1.45902 -1.55491,-2.64381 -1.56968,-2.64085c-0.01181,0.00591 -0.72476,1.19364 -1.56355,2.64675l-1.48802,2.54536l0.23589,3.02518c0.13881,1.71598 0.23239,3.11504 0.22649,3.22432c-0.02658,0.35147 -0.28387,0.79051 -0.62942,0.95886c-0.11814,0.05907 -0.18745,0.07056 -0.43554,0.07056c-0.26286,0 -0.31464,-0.00928 -0.46527,-0.08311c-0.10042,-0.05021 -0.22866,-0.14804 -0.31726,-0.24255c-0.254,-0.28058 -0.26065,-0.29369 -0.40242,-2.05397l-0.12683,-1.55177l-0.16552,0.28052c-0.09156,0.15358 -0.65935,1.13675 -1.26481,2.18524c-0.78858,1.36746 -1.13474,1.9431 -1.2322,2.04352c-0.20379,0.20674 -0.43557,0.30053 -0.74864,0.30053c-0.22447,0 -0.27285,-0.00949 -0.45006,-0.09514c-0.23923,-0.11814 -0.439,-0.32601 -0.53056,-0.56229c-0.07974,-0.20379 -0.09262,-0.55299 -0.02469,-0.73315c0.03544,-0.09451 1.82116,-3.21713 2.43549,-4.25675c0.07088,-0.11814 0.11801,-0.2157 0.10619,-0.2157c-0.01181,0 -0.6374,0.29059 -1.38759,0.64797c-0.75019,0.35737 -1.42858,0.66282 -1.50242,0.68054c-0.18312,0.04726 -0.50348,0.01941 -0.67478,-0.05738c-0.33079,-0.14472 -0.59332,-0.51658 -0.63171,-0.88872c-0.0384,-0.3426 0.24651,-0.84905 0.52709,-1.02331c0.06202,-0.0384 1.35294,-0.6645 2.87399,-1.3881l2.75649,-1.3187l1.46008,-2.56319c0.84174,-1.45312 1.51684,-2.66469 1.5198,-2.67945c0,-0.01181 -1.38521,-0.03596 -3.07461,-0.03596l-2.96581,-0.0179l-2.5354,1.74187c-1.39405,0.95988 -2.59728,1.76832 -2.67111,1.80081c-0.37214,0.1654 -1.00604,0.07965 -1.27776,-0.22751c-0.37214,-0.4253 -0.36449,-1.07987 0.01946,-1.46087c0.06202,-0.05907 0.66998,-0.49884 1.35519,-0.96845l1.24307,-0.85943l-2.60505,-0.01568l-2.60207,-0.0154l-0.16836,-0.08002c-0.52572,-0.24514 -0.75321,-0.82227 -0.54942,-1.38048z" fill="#ffffff" stroke="none" stroke-width="0.5"/></g></g></svg>