<svg version="1.1" xmlns="http://www.w3.org/2000/svg" xmlns:xlink="http://www.w3.org/1999/xlink" width="28.69858" height="37.24762" viewBox="0,0,28.69858,37.24762"><g transform="translate(-225.65071,-161.37619)"><g fill-rule="evenodd" stroke="#000000" stroke-miterlimit="10"><g stroke-linecap="round" stroke-linejoin="round"><path d="M240.13668,178.95813c7.8601,0.65227 12.35158,5.21812 11.9773,18.91568h-17.21737c0,-5.87038 7.48581,-4.23972 5.98865,-13.69756" fill="#ffffff" stroke-width="1.5"/><path d="M241.63384,184.17625c0.28446,1.89809 -4.15462,4.80719 -5.98865,5.87038c-2.24574,1.30453 -2.111,2.83083 -3.7429,2.60906c-0.78002,-0.61313 1.0555,-1.98289 0,-1.9568c-0.74858,0 0.14223,0.80229 -0.74858,1.30453c-0.74858,0 -2.99657,0.65227 -2.99433,-2.60906c0,-1.30453 4.49149,-7.82718 4.49149,-7.82718c0,0 1.41482,-1.2393 1.49716,-2.28293c-0.54647,-0.64835 -0.37429,-1.30453 -0.37429,-1.9568c0.74858,-0.65227 2.24574,1.63066 2.24574,1.63066h1.49716c0,0 0.58389,-1.29931 1.87145,-1.9568c0.74858,0 0.74858,1.9568 0.74858,1.9568" fill="#ffffff" stroke-width="1.5"/><path d="M230.77942,189.06824c0,0.18012 -0.16758,0.32613 -0.37429,0.32613c-0.20672,0 -0.37429,-0.14601 -0.37429,-0.32613c0,-0.18012 0.16758,-0.32613 0.37429,-0.32613c0.20672,0 0.37429,0.14601 0.37429,0.32613z" fill="#000000" stroke-width="1.5"/><path d="M234.84646,182.70866c-0.31007,0.46794 -0.70655,0.77427 -0.88556,0.68421c-0.17901,-0.09006 -0.07277,-0.5424 0.23729,-1.01034c0.31007,-0.46794 0.70655,-0.77427 0.88556,-0.68421c0.17901,0.09006 0.07277,0.5424 -0.23729,1.01034z" fill="#000000" stroke-width="1.49997"/></g><g stroke-width="1.5"><path d="M240.02488,162.12619v4.60046" fill="none" stroke-linecap="round" stroke-linejoin="miter"/><path d="M242.06771,163.76046h-4.08566" fill="none" stroke-linecap="round" stroke-linejoin="miter"/><path d="M240.02488,177.65172c0,0 -3.6771,-6.1285 -2.4514,-8.5799c0,0 0.81713,-2.04283 2.4514,-2.04283c1.63427,0 2.4514,2.04283 2.4514,2.04283c1.2257,2.4514 -2.4514,8.5799 -2.4514,8.5799" fill="#ffffff" stroke-linecap="butt" stroke-linejoin="miter"/><path d="M248.1962,181.32881c-4.49423,-2.4514 -12.66556,-2.4514 -17.15979,0c0,0 -6.53706,-3.26853 -4.08566,-8.17133c2.4514,-5.31136 10.21416,-2.85997 13.07413,3.26853v2.85997v-2.85997c2.04283,-6.1285 9.80559,-8.5799 13.07413,-3.26853c2.4514,4.9028 -4.9028,8.17133 -4.9028,8.17133z" fill="#ffffff" stroke-linecap="round" stroke-linejoin="round"/></g></g></g></svg>