<svg version="1.1" xmlns="http://www.w3.org/2000/svg" xmlns:xlink="http://www.w3.org/1999/xlink" width="36.02737" height="22.91118" viewBox="0,0,36.02737,22.91118"><g transform="translate(-221.54441,-169.04155)"><g stroke="#000000" stroke-width="1.5" stroke-miterlimit="10"><path d="M246.14853,184.62229c0,3.63428 -2.94616,6.58045 -6.58045,6.58045c-3.63428,0 -6.58045,-2.94616 -6.58045,-6.58045c0,-3.63428 2.94616,-6.58045 6.58045,-6.58045c3.63428,0 6.58045,2.94616 6.58045,6.58045z" fill="#ffffff" stroke-linecap="square" stroke-linejoin="round"/><path d="M224.76208,181.33206v-9.87067l23.03156,-1.64511c9.86244,-0.70411 9.86244,13.865 0,13.16089z" fill="#ffffff" stroke-linecap="butt" stroke-linejoin="round"/><path d="M227.22975,176.39673c0,2.72571 -1.10482,4.93533 -2.46767,4.93533c-1.36285,0 -2.46767,-2.20962 -2.46767,-4.93533c0,-2.72571 1.10482,-4.93533 2.46767,-4.93533c1.36285,0 2.46767,2.20962 2.46767,4.93533zM249.43875,184.62229c0,3.63428 -2.94616,6.58045 -6.58045,6.58045c-3.63428,0 -6.58045,-2.94616 -6.58045,-6.58045c0,-3.63428 2.94616,-6.58045 6.58045,-6.58045c3.63428,0 6.58045,2.94616 6.58045,6.58045z" fill="#ffffff" stroke-linecap="square" stroke-linejoin="round"/><path d="M252.72897,176.39673c9.87067,3.29022 -1.64511,6.58045 1.64511,11.51578" fill="none" stroke-linecap="butt" stroke-linejoin="miter"/></g></g></svg>