<svg version="1.1" xmlns="http://www.w3.org/2000/svg" xmlns:xlink="http://www.w3.org/1999/xlink" width="459.97053" height="360" viewBox="0,0,459.97053,360"><g transform="translate(-10.01473,0)"><g fill="#000000" stroke="none" stroke-miterlimit="10"><path d="M264.98303,0.00771c62.75139,-0.39534 127.69512,14.41197 196.84383,44.9251l8.1584,3.59401v19.55141v19.51547l-1.50948,-0.64692c-0.86256,-0.3594 -4.27687,-1.86888 -7.65524,-3.34243c-55.45555,-24.43926 -111.12674,-39.74973 -164.24618,-45.17668c-47.11745,-4.85191 -97.68515,-2.1564 -132.43921,7.00832c-8.12246,2.1564 -19.33576,5.78635 -24.43926,7.9787l-1.58136,0.68286l2.47987,1.36572c17.64658,9.596 29.32711,19.62329 38.02461,32.6336c7.47554,11.21331 11.64459,22.24691 13.80099,36.73076c0.79068,5.46289 0.8985,21.88751 0.1797,27.13476c-1.90482,13.33377 -6.36139,25.5534 -13.22595,36.0479c-13.51347,20.66555 -34.39466,35.65256 -56.67751,40.64823c-6.79268,1.54542 -11.14143,2.04858 -19.12012,2.26423c-24.90648,0.64692 -45.14074,-6.75674 -63.29049,-23.14541c-16.74808,-15.13077 -26.70348,-33.99932 -29.68651,-56.17435c-0.75474,-5.71447 -0.57504,-19.33576 0.3594,-25.33776c4.42063,-28.35673 21.24059,-52.61628 50.7474,-73.10213c38.34807,-26.6316 88.26884,-43.55938 147.71374,-50.17236c10.99767,-1.18602 29.57869,-2.47987 40.43259,-2.80333c1.9767,-0.07188 8.76938,-0.14376 15.13077,-0.1797zM90.81739,72.67856c-4.78003,0.75474 -7.0802,1.2579 -11.32113,2.62363c-20.41397,6.46921 -37.48551,24.33144 -43.09216,45.03292c-3.73777,13.83693 -2.87521,30.83659 2.1564,43.63126c3.62995,9.20066 8.76938,16.78402 16.53244,24.36738c4.20499,4.09717 5.71447,5.31913 10.20698,8.30216c8.23028,5.42695 17.28718,8.6975 27.74574,9.9554c5.13943,0.64692 16.3168,0.28752 21.42029,-0.68286c7.90682,-1.50948 16.64026,-4.95973 22.89383,-9.02096c11.03361,-7.22396 20.70149,-18.14974 25.80498,-29.11147c1.9767,-4.27687 4.06123,-10.78202 4.95973,-15.52612c1.0782,-5.75041 1.32978,-16.53244 0.5391,-22.31879c-2.12046,-15.13077 -8.62562,-27.60198 -20.23427,-38.74341c-10.1351,-9.70382 -21.45623,-15.52612 -35.40098,-18.14974c-4.06123,-0.79068 -18.00598,-1.00632 -22.21097,-0.3594z"/><path d="M385.27449,129.32013c21.85157,1.50948 40.50447,9.81164 56.38999,25.08618c18.1138,17.46688 27.31446,37.95273 28.17703,62.60762c0.97038,26.91912 -9.0569,50.89116 -30.04591,71.88017c-8.48186,8.5178 -17.68252,15.7777 -29.03959,22.96571c-37.34175,23.57669 -84.27949,38.77935 -138.6209,44.9251c-30.26155,3.41431 -63.50613,4.16905 -90.92841,1.9767c-53.04756,-4.16905 -108.68281,-19.15606 -165.14468,-44.42194l-5.93011,-2.65957l-0.10782,-19.47953c-0.03594,-10.71014 0.03594,-19.47953 0.14376,-19.47953c0.10782,0 3.48619,1.4376 7.47554,3.19867c55.92277,24.76272 111.05486,40.00131 165.36032,45.64391c48.30347,5.06755 100.81193,2.01264 136.17697,-7.90682c8.23028,-2.30017 20.95307,-6.64892 21.85157,-7.47554c0.1797,-0.14376 -1.36572,-1.15008 -3.37837,-2.19235c-4.92379,-2.62363 -13.62129,-8.44592 -18.25756,-12.21963c-4.88785,-3.95341 -10.92579,-10.06322 -14.62761,-14.80731c-11.21331,-14.30415 -16.89184,-30.11779 -18.1138,-50.45988c-1.6173,-26.73942 7.00832,-49.77702 26.05656,-69.43624c16.10116,-16.64026 36.47918,-26.23626 58.94174,-27.74574c5.93011,-0.39534 7.76306,-0.39534 13.62129,0zM342.11045,163.57103c-5.06755,3.30649 -8.48186,6.18169 -12.90249,10.81797c-9.596,10.02728 -15.02295,20.66555 -17.5747,34.4306c-0.79068,4.09717 -1.0782,15.49018 -0.5391,19.94675c1.86888,15.02295 7.6193,26.84724 18.54508,38.16837c6.39733,6.57704 12.79467,11.32113 20.01863,14.77137c19.62329,9.34442 44.9251,8.3381 63.03891,-2.51581c18.1138,-10.85391 29.36305,-27.42228 32.31013,-47.62061c0.68286,-4.63627 0.79068,-14.62761 0.1797,-19.40764c-2.26423,-18.18568 -11.35707,-33.8915 -26.41596,-45.64391c-9.45224,-7.40366 -20.80931,-11.82429 -33.38834,-13.08219c-15.45424,-1.54542 -31.05223,2.12046 -43.27186,10.1351z"/></g></g></svg>