<svg version="1.1" xmlns="http://www.w3.org/2000/svg" xmlns:xlink="http://www.w3.org/1999/xlink" width="25.97225" height="35.50519" viewBox="0,0,25.97225,35.50519"><g transform="translate(-227.01388,-162.24741)"><g stroke="#000000" stroke-miterlimit="10"><path d="M231.1414,197.00261c-1.86535,0 -3.37752,-1.51218 -3.37752,-3.37753v-27.25013c0,-1.86535 1.51217,-3.37753 3.37752,-3.37753h17.71721c1.86535,0 3.37752,1.51218 3.37752,3.37753v27.25013c0,1.86535 -1.51217,3.37753 -3.37752,3.37753z" fill="#000000" stroke-width="1.5"/><path d="M240.15976,167.49444c0.98743,2.43953 5.15494,8.1027 8.42217,11.44253l1.00921,1.03825l-0.864,0.88578c-2.84611,2.93324 -6.20772,7.32583 -7.95024,10.39702c-0.2759,0.47193 -0.5518,1.02373 -0.61714,1.2125c-0.13069,0.35576 -0.24686,0.46467 -0.24686,0.22507c-0.00726,-0.19604 -0.85674,-1.78608 -1.51744,-2.80981c-2.00389,-3.11475 -5.14043,-7.0572 -7.36214,-9.24987l-0.62441,-0.60988l1.00194,-1.06003c1.19798,-1.26332 1.81512,-1.9676 2.88242,-3.27448c2.73721,-3.35435 5.06782,-6.84664 5.64866,-8.45847c0.04356,-0.11617 0.07987,-0.06534 0.21782,0.26138z" fill="#ffffff" stroke-width="0"/></g></g></svg>