<svg version="1.1" xmlns="http://www.w3.org/2000/svg" xmlns:xlink="http://www.w3.org/1999/xlink" width="32.68372" height="33.08032" viewBox="0,0,32.68372,33.08032"><g transform="translate(-223.65814,-162.90994)"><g stroke="#000000"><path d="" fill="#ffffff" fill-rule="nonzero" stroke-width="1.5" stroke-linecap="round" stroke-linejoin="miter" stroke-miterlimit="4"/><path d="" fill="none" fill-rule="nonzero" stroke-width="0.75" stroke-linecap="round" stroke-linejoin="miter" stroke-miterlimit="10"/><path d="" fill="none" fill-rule="nonzero" stroke-width="0.75" stroke-linecap="round" stroke-linejoin="miter" stroke-miterlimit="10"/><path d="" fill="#ffffff" fill-rule="evenodd" stroke-width="1.5" stroke-linecap="butt" stroke-linejoin="round" stroke-miterlimit="4"/><path d="" fill="none" fill-rule="nonzero" stroke-width="0.75" stroke-linecap="round" stroke-linejoin="miter" stroke-miterlimit="10"/><path d="M224.40814,174.69582c0,-6.09495 6.98072,-11.03588 15.59186,-11.03588c8.61115,0 15.59186,4.94092 15.59186,11.03588c0,3.66473 -5.05258,8.49152 -5.05258,8.49152c0,0 -3.13234,8.81832 -10.11869,11.98268c-7.31968,-3.16897 -10.50293,-12.16343 -10.50293,-12.16343c0,0 -5.50952,-3.93627 -5.50952,-8.31078z" fill="#ffffff" fill-rule="nonzero" stroke-width="1.5" stroke-linecap="butt" stroke-linejoin="miter" stroke-miterlimit="10"/><path d="M229.92235,182.70602c0,0 -0.13512,-0.91945 -0.11393,-6.95409c0.01534,-4.3676 4.79941,-5.89704 4.79941,-5.89704c0,0 1.62054,1.26765 5.34568,1.25955c3.77659,-0.0082 5.28528,-1.37698 5.28528,-1.37698c0,0 5.47076,2.19128 5.35756,6.11833c0.02582,4.88513 0.10952,7.0031 0.10952,7.0031" fill="none" fill-rule="nonzero" stroke-width="1.5" stroke-linecap="round" stroke-linejoin="miter" stroke-miterlimit="10"/><path d="M243.885,167.712c-0.50508,0.30356 -1.02336,0.44675 -1.15759,0.31984c-0.13424,-0.12691 0.1664,-0.47588 0.67149,-0.77943c0.50508,-0.30356 1.02336,-0.44675 1.15759,-0.31984c0.13424,0.12691 -0.1664,0.47588 -0.67149,0.77943z" fill="#000000" fill-rule="evenodd" stroke-width="0.75" stroke-linecap="round" stroke-linejoin="round" stroke-miterlimit="4"/><path d="M235.1457,166.87484c0.13423,-0.12691 0.6525,0.01628 1.15758,0.31984c0.50509,0.30356 0.80573,0.65252 0.67149,0.77943c-0.13423,0.12691 -0.6525,-0.01628 -1.15758,-0.31984c-0.50509,-0.30356 -0.80573,-0.65252 -0.67149,-0.77943z" fill="#000000" fill-rule="evenodd" stroke-width="0.75" stroke-linecap="round" stroke-linejoin="round" stroke-miterlimit="4"/><path d="M230.15385,180h19.69231" fill="none" fill-rule="nonzero" stroke-width="0.75" stroke-linecap="round" stroke-linejoin="miter" stroke-miterlimit="10"/><path d="M230.40986,173.73987h19.69231" fill="none" fill-rule="nonzero" stroke-width="0.75" stroke-linecap="round" stroke-linejoin="miter" stroke-miterlimit="10"/><path d="M231.98346,186.12448h16.61539" fill="none" fill-rule="nonzero" stroke-width="0.75" stroke-linecap="round" stroke-linejoin="miter" stroke-miterlimit="10"/><path d="M236.52192,191.81679h7.61539" fill="none" fill-rule="nonzero" stroke-width="0.75" stroke-linecap="round" stroke-linejoin="miter" stroke-miterlimit="10"/><path d="M231.81731,191.78708l4.28814,-9.0575v-11.91708c0,0 2.36435,0.3125 3.57512,0.3125c1.25016,0 3.81145,-0.3125 3.81145,-0.3125v11.82387l4.94067,9.15071l-8.73752,-4.47458z" fill="#ffffff" fill-rule="nonzero" stroke-width="1.5" stroke-linecap="butt" stroke-linejoin="miter" stroke-miterlimit="10"/><path d="M239.74307,171.42736v12.9375" fill="none" fill-rule="nonzero" stroke-width="1.5" stroke-linecap="round" stroke-linejoin="miter" stroke-miterlimit="10"/></g></g></svg>