<svg version="1.1" xmlns="http://www.w3.org/2000/svg" xmlns:xlink="http://www.w3.org/1999/xlink" width="31.50567" height="29.88378" viewBox="0,0,31.50567,29.88378"><g transform="translate(-224.24718,-165.05811)"><g fill="#000000" stroke="none" stroke-miterlimit="10"><path d="M238.66923,165.07598c0,0.01231 -0.0517,0.02955 -0.11572,0.03939c-0.1822,0.02708 -0.75834,0.19697 -1.07349,0.31762c-2.16914,0.82974 -3.80153,2.72804 -4.30873,5.0129c-0.12311,0.55398 -0.15019,0.82481 -0.15019,1.51421c0,0.73618 0.04186,1.08088 0.20436,1.72103c0.67709,2.64925 2.85607,4.65836 5.56688,5.13355c0.24375,0.04432 0.71894,0.10095 0.82728,0.10095c0.02708,0 0.03447,0.07386 0.03447,0.39148v0.38902l-0.10095,0.01723c-0.16989,0.02708 -0.46781,0.15511 -0.66478,0.28315c-0.69678,0.45796 -1.02425,1.28031 -0.82235,2.06081c0.03447,0.13049 0.05417,0.24868 0.04432,0.25852c-0.00985,0.00985 -0.15265,0.09602 -0.31515,0.18958l-0.29299,0.17235l-0.12064,-0.17727c-0.49981,-0.72633 -1.1572,-1.36895 -1.89584,-1.86137c-1.11535,-0.74356 -2.3341,-1.13258 -3.6735,-1.17444c-1.0661,-0.03201 -2.03865,0.15758 -3.0038,0.58353c-2.17406,0.96023 -3.68581,2.92009 -4.07483,5.27881c-0.16743,1.02179 -0.0911,2.18884 0.20682,3.12691c0.04432,0.1428 0.07633,0.26591 0.06894,0.2733c-0.0197,0.0197 -0.21174,-0.48012 -0.31515,-0.82481c-0.94546,-3.10475 -0.37424,-6.40401 1.55361,-8.97447c0.90853,-1.21137 2.13959,-2.24054 3.4396,-2.87577l0.36193,-0.17727l-0.01723,-0.25852c-0.02955,-0.46042 -0.01477,-1.38864 0.02955,-1.77274c0.19205,-1.6127 0.72387,-3.08013 1.59792,-4.39491c1.56345,-2.35134 4.01574,-3.92218 6.81272,-4.36782c0.18712,-0.02955 0.19697,-0.02955 0.19697,-0.00492z"/><path d="M241.40712,165.06366c0.04432,0.00739 0.15265,0.02708 0.24129,0.03939c0.43087,0.0714 0.98732,0.20682 1.42804,0.34962c3.27956,1.06118 5.79832,3.75968 6.62314,7.08848c0.10587,0.42595 0.17727,0.82481 0.23636,1.32709c0.04432,0.35947 0.05909,1.33201 0.02955,1.76042l-0.01723,0.24621l0.38655,0.18958c0.91345,0.44811 1.70133,1.02425 2.50645,1.8269c0.50474,0.5072 0.86175,0.94053 1.22614,1.49205c0.3964,0.5983 0.70171,1.17198 0.94546,1.7752c0.81497,2.01156 0.95777,4.15608 0.42349,6.26367c-0.14034,0.54906 -0.40379,1.31724 -0.45057,1.31724c-0.01231,0 -0.01477,-0.0197 -0.00492,-0.04432c0.05663,-0.15019 0.21174,-0.75341 0.25606,-1.00209c0.08125,-0.47273 0.10341,-0.73125 0.10341,-1.25569c0.00246,-1.88846 -0.70909,-3.61195 -2.04357,-4.93658c-0.38902,-0.38902 -0.63277,-0.58845 -1.06118,-0.87406c-2.11251,-1.40342 -4.78392,-1.55114 -7.05401,-0.38655c-0.39887,0.20682 -0.95777,0.57614 -1.28031,0.84944c-0.47027,0.39887 -0.94792,0.9233 -1.28523,1.41326l-0.12064,0.17481l-0.31269,-0.1822c-0.17235,-0.10341 -0.31269,-0.19943 -0.31269,-0.21421c0,-0.01723 0.02462,-0.10095 0.0517,-0.18958c0.0714,-0.22159 0.08617,-0.57614 0.03939,-0.82974c-0.0714,-0.37917 -0.22405,-0.67216 -0.49735,-0.96269c-0.29792,-0.31762 -0.64262,-0.51212 -1.07595,-0.60568l-0.06894,-0.01477v-0.37917v-0.37671l0.31515,-0.03201c1.6644,-0.16004 3.16138,-0.86175 4.32597,-2.03126c0.55644,-0.5589 0.96516,-1.13012 1.31724,-1.8466c0.32746,-0.66231 0.52197,-1.27538 0.64508,-2.03372c0.04432,-0.28068 0.05417,-0.43087 0.05417,-1.00701c0.00246,-0.72633 -0.02216,-0.98239 -0.14773,-1.54376c-0.49981,-2.24793 -2.11497,-4.13392 -4.26934,-4.97843c-0.325,-0.12803 -0.79527,-0.2733 -1.05379,-0.32254c-0.08371,-0.01723 -0.16004,-0.04186 -0.16743,-0.05417c-0.00985,-0.01231 0.0197,-0.01723 0.06894,-0.00985z"/><path d="M240.98364,172.67166c1.06118,0.13049 1.97217,0.40379 2.92255,0.87652c0.58353,0.28807 1.09319,0.61061 1.57576,0.98978l0.20189,0.15758l-0.12557,0.2339c-0.29053,0.54413 -0.74603,1.13997 -1.1572,1.51914l-0.1108,0.10341l-0.20682,-0.16496c-0.87159,-0.6894 -1.92539,-1.15966 -3.01365,-1.34679c-0.58599,-0.10095 -1.41819,-0.1108 -1.98202,-0.02708c-1.16459,0.17727 -2.25778,0.65 -3.17369,1.37387l-0.20682,0.16496l-0.10095,-0.0911c-0.25606,-0.23144 -0.64508,-0.69925 -0.88391,-1.0661c-0.15511,-0.23883 -0.38655,-0.65985 -0.38655,-0.69925c0,-0.01477 0.13542,-0.12803 0.30284,-0.2536c1.1572,-0.86667 2.49906,-1.45758 3.84585,-1.69149c0.29792,-0.0517 0.49735,-0.07633 0.98485,-0.12311c0.21421,-0.02216 1.22368,0.00739 1.51421,0.04432z"/><path d="M232.73303,180.23533c0.32008,0.06402 0.66478,0.15511 0.69678,0.1822c0.01231,0.00739 -0.00492,0.17481 -0.03201,0.36932c-0.06155,0.42102 -0.07386,1.17198 -0.02462,1.56345c0.15758,1.27046 0.63031,2.40797 1.4108,3.39282c0.23636,0.29792 0.71156,0.77557 1.00455,1.01194c0.49735,0.39887 1.268,0.84944 1.78012,1.03902c0.10341,0.03939 0.18958,0.08371 0.18958,0.09849c0,0.05417 -0.15511,0.56629 -0.23883,0.78296c-0.16496,0.43826 -0.39394,0.89375 -0.60076,1.20152l-0.09602,0.13788l-0.27576,-0.11572c-0.94546,-0.40133 -1.7358,-0.89622 -2.50891,-1.57084c-1.62008,-1.42065 -2.66403,-3.37805 -2.96687,-5.57181c-0.08617,-0.64015 -0.0714,-1.66194 0.03447,-2.33903l0.04186,-0.25852l0.17235,-0.01477c0.49735,-0.03939 0.89375,-0.01477 1.41326,0.0911z"/><path d="M248.8403,180.17378c0.01723,0.02955 0.08617,0.5072 0.12064,0.85928c0.07633,0.7608 -0.01477,1.83921 -0.2339,2.72804c-0.54906,2.23562 -1.94508,4.16839 -3.9271,5.43393c-0.33731,0.21421 -1.11535,0.61553 -1.45266,0.74849l-0.18466,0.0714l-0.13049,-0.19943c-0.16989,-0.26345 -0.47027,-0.87652 -0.58106,-1.18675c-0.10095,-0.28561 -0.21174,-0.66231 -0.21174,-0.72387c0,-0.03201 0.05909,-0.06648 0.21667,-0.12557c0.31762,-0.12064 0.84451,-0.39394 1.1769,-0.61061c1.67671,-1.09811 2.76498,-2.85607 2.99149,-4.8307c0.04432,-0.38902 0.03693,-1.0858 -0.01477,-1.46497c-0.06402,-0.45303 -0.06402,-0.46042 0.02462,-0.48504c0.38163,-0.1108 0.90606,-0.21667 1.23107,-0.25114c0.18712,-0.0197 0.95777,0.00985 0.975,0.03693z"/><path d="M238.47226,182.88212c0.00739,-0.00246 0.06894,0.05417 0.13542,0.12311c0.38902,0.39887 0.84697,0.59584 1.3911,0.59337c0.53674,0 0.94792,-0.17235 1.35664,-0.56383l0.1625,-0.15758l0.325,0.18958c0.17727,0.10341 0.31762,0.19451 0.31269,0.20436c-0.03939,0.06402 -0.26099,0.5786 -0.33731,0.78788c-0.46534,1.25076 -0.55398,2.6985 -0.24129,4.01574c0.48012,2.03372 1.82444,3.73013 3.67843,4.64112c0.70171,0.34716 1.35417,0.54906 2.14206,0.66724c0.39148,0.05909 1.23845,0.0714 1.65948,0.02462c1.67179,-0.18712 3.11952,-0.88391 4.2915,-2.06819c0.17235,-0.17481 0.31515,-0.30777 0.31515,-0.29792c0,0.03939 -0.44811,0.5589 -0.75095,0.87159c-2.31194,2.38334 -5.67275,3.4593 -8.94985,2.86838c-1.28277,-0.23144 -2.66649,-0.79527 -3.70059,-1.50436l-0.26345,-0.1822l-0.26591,0.1822c-1.3394,0.92822 -3.09244,1.5216 -4.82578,1.64224c-2.92255,0.19697 -5.7934,-0.91099 -7.84682,-3.03335c-0.32993,-0.34224 -0.74356,-0.82235 -0.72387,-0.84451c0.00739,-0.00492 0.18712,0.16496 0.40379,0.37671c0.5589,0.54906 1.10796,0.94546 1.75304,1.27046c2.02634,1.0144 4.35797,1.00209 6.35476,-0.03447c0.66231,-0.3447 1.15966,-0.71156 1.71857,-1.268c0.56629,-0.56383 0.93561,-1.07103 1.29016,-1.77274c0.97008,-1.918 0.99963,-4.16347 0.07879,-6.14795c-0.0714,-0.15511 -0.0911,-0.22159 -0.0714,-0.2339c0.01723,-0.01231 0.15758,-0.09356 0.31269,-0.18466c0.15511,-0.0911 0.28807,-0.16496 0.29546,-0.16496z"/></g></g></svg>