<svg version="1.1" xmlns="http://www.w3.org/2000/svg" xmlns:xlink="http://www.w3.org/1999/xlink" width="32.93848" height="34.0144" viewBox="0,0,32.93848,34.0144"><g transform="translate(-224.23087,-162.83367)"><g fill="#ffffff" stroke="#000000" stroke-width="1.5" stroke-miterlimit="10"><path d="M224.98087,163.65041c0.07702,0.03594 3.48891,2.29513 7.58113,5.02157l7.43736,4.95995l7.43736,-4.95995c4.09222,-2.72643 7.50411,-4.98819 7.58113,-5.02157c0.11809,-0.05391 0.18228,-0.06418 0.38509,-0.06675c0.22078,0 0.25929,0.0077 0.41076,0.07702c0.41333,0.19768 0.64695,0.59047 0.60844,1.03461c-0.0154,0.1643 -0.28497,0.71113 -7.79165,15.72706c-5.90214,11.80428 -7.80192,15.58586 -7.8815,15.67572c-0.19511,0.21822 -0.55453,0.35428 -0.85747,0.32091c-0.18998,-0.01797 -0.43643,-0.1335 -0.59304,-0.27213c-0.11809,-0.10526 -0.46467,-0.79328 -7.91231,-15.68598c-6.82122,-13.64244 -7.78908,-15.59356 -7.80448,-15.72449c-0.06675,-0.52115 0.29267,-1.03717 0.79328,-1.14243c0.17457,-0.03851 0.44927,-0.01284 0.60587,0.05648z"/></g></g></svg>