<svg version="1.1" xmlns="http://www.w3.org/2000/svg" xmlns:xlink="http://www.w3.org/1999/xlink" width="35.54897" height="34.42971" viewBox="-0.62748,-0.63586,35.54897,34.42971"><g transform="translate(-232.91426,-233.47809)"><g fill="#ffffff" stroke="#000000" stroke-width="1.5" stroke-miterlimit="10"><path d="M259.49427,235.09121c0.59902,0.31103 1.17501,0.56446 1.27869,0.56446c0.10368,0 1.33628,-0.31103 2.75321,-0.67966c3.1564,-0.84094 3.55958,-0.92158 3.55958,-0.65662c0,0.26495 -0.49535,0.69118 -2.51129,2.17722c-3.11032,2.2809 -2.96056,2.18874 -3.6287,2.23482c-0.55295,0.03456 -0.6451,0 -1.23261,-0.42623c-2.08506,-1.53212 -2.84536,-1.84315 -4.51572,-1.84315c-1.25565,0 -1.83163,0.12672 -3.05272,0.69118c-1.47452,0.67966 -2.46521,1.54364 -2.99512,2.59193c-0.21887,0.42623 -0.84094,2.66105 -0.84094,3.00664c0,0.12672 1.14045,0.16128 6.0824,0.18432c6.85422,0.03456 6.6123,0.01152 7.18829,0.92158c0.52991,0.85246 0.72574,1.72795 0.7027,3.20247c0,1.07133 -0.06912,1.5206 -0.31103,2.32698c-0.49535,1.67036 -0.92158,2.45369 -2.29242,4.19317c-0.18432,0.24191 -0.19583,0.28799 -0.03456,0.52991c0.51839,0.80638 0.94461,3.20247 0.8179,4.63092c-0.42623,4.68851 -3.19095,7.89099 -6.62382,7.64907c-0.63358,-0.04608 -0.94461,-0.14976 -1.69339,-0.55295c-4.31988,-2.32698 -7.16525,-6.37039 -8.02922,-11.40449c-0.42623,-2.51129 -0.51839,-7.19981 -0.18432,-9.61894c0.42623,-3.0988 1.29021,-5.77137 2.3961,-7.39564c0.6451,-0.94461 2.0505,-2.23482 3.0412,-2.78777c0.8755,-0.49535 1.96987,-0.88702 2.93752,-1.04829c2.08506,-0.34559 4.58484,0.1728 7.18829,1.50908zM247.54835,246.69154c-0.01152,0.01152 -0.08064,0.34559 -0.14976,0.74878c-0.16128,0.95613 -0.16128,3.67478 0,4.70003l0.13824,0.79486h1.10589c0.61054,-0.01152 2.36154,-0.08064 3.89366,-0.16128c2.76473,-0.14976 2.77625,-0.16128 3.39831,-0.50687c1.71643,-0.99069 2.85688,-2.84536 3.13336,-5.10322l0.0576,-0.52991l-0.94461,-0.06912c-1.38236,-0.1152 -10.54052,0 -10.63267,0.12672zM253.7229,256.322c-2.36154,-0.02304 -5.62161,0.12672 -5.74833,0.25343c-0.24191,0.24191 0.94461,2.82232 1.80859,3.97429c1.69339,2.2233 3.84758,3.14488 5.34514,2.25786c1.16349,-0.67966 1.82011,-2.30394 2.00443,-4.96499l0.08064,-1.10589l-0.44927,-0.19583c-0.38015,-0.16128 -0.8755,-0.20735 -3.0412,-0.21887z"/><path d="M238.09068,237.08412c0.85246,0.03456 1.12893,0.09216 1.73947,0.40319c0.40319,0.19583 0.93309,0.57598 1.16349,0.84094c0.93309,1.02525 1.41692,2.76473 1.27869,4.65396c-0.09216,1.4054 -0.38015,2.45369 -1.22109,4.53876c-1.24413,3.0988 -1.72795,5.25298 -1.72795,7.71819c0,3.22551 0.95613,5.59857 3.08728,7.62604c1.04829,1.00221 1.98139,1.6358 3.32919,2.29242c0.96765,0.46079 2.85688,1.14045 3.19095,1.14045c0.10368,0 0.18432,0.04608 0.18432,0.1152c0,0.25343 -2.46521,0.03456 -3.89366,-0.35711c-2.23482,-0.59902 -3.88214,-1.47452 -5.31058,-2.82232c-1.85467,-1.73947 -2.926,-3.73238 -3.54806,-6.52015c-0.16128,-0.77182 -0.20735,-1.45148 -0.20735,-3.54806c0.01152,-2.52281 0.09216,-3.37527 0.57598,-5.58705c0.03456,-0.18432 -0.08064,-0.29951 -0.61054,-0.57598c-0.86398,-0.44927 -2.20026,-1.77403 -2.60345,-2.60345c-0.16128,-0.34559 -0.39167,-1.04829 -0.49535,-1.54364c-0.33407,-1.65884 0.1152,-3.22551 1.25565,-4.35444c0.62206,-0.61054 1.33628,-1.02525 2.2809,-1.30173c0.32255,-0.09216 0.91006,-0.13824 1.53212,-0.1152zM236.7544,239.69909c-0.94461,0.49535 -1.463,1.76251 -1.23261,2.9836c0.16128,0.82942 0.79486,2.15418 1.25565,2.62649c0.63358,0.63358 1.08285,0.43775 1.65884,-0.72574c0.77182,-1.56668 0.7027,-3.95125 -0.14976,-4.80371c-0.39167,-0.39167 -0.89854,-0.41471 -1.53212,-0.08064z"/></g></g></svg>