<svg version="1.1" xmlns="http://www.w3.org/2000/svg" xmlns:xlink="http://www.w3.org/1999/xlink" width="34.4366" height="36.39678" viewBox="0,0,34.4366,36.39678"><g transform="translate(-222.7817,-161.80161)"><g stroke-width="1.5"><path d="M234.28604,168.25122c0,-3.14781 2.5518,-5.69961 5.69961,-5.69961c3.14781,0 5.69961,2.5518 5.69961,5.69961c0,3.14781 -2.5518,5.69961 -5.69961,5.69961c-3.14781,0 -5.69961,-2.5518 -5.69961,-5.69961z" fill="#000000" fill-rule="nonzero" stroke="#000000" stroke-linecap="butt" stroke-linejoin="miter" stroke-miterlimit="10"/><path d="M227.53322,189.43168c2.20998,0 4.00152,1.79155 4.00152,4.00152c0,0.04313 -0.00068,0.08611 -0.00204,0.12893h16.93419c-0.00108,-0.03829 -0.00163,-0.0767 -0.00163,-0.11526c0,-2.20998 1.79155,-4.00153 4.00152,-4.00153c2.20998,0 4.00152,1.79155 4.00152,4.00153c0,2.20998 -1.79155,4.00152 -4.00152,4.00152c-8.75311,0 -16.18628,-0.03313 -24.93935,-0.00122c-2.31549,0.00845 -3.99573,-1.70576 -3.99573,-4.01397c0,-2.20998 1.79155,-4.00152 4.00153,-4.00152z" fill="#000000" fill-rule="nonzero" stroke="#000000" stroke-linecap="butt" stroke-linejoin="miter" stroke-miterlimit="10"/><path d="M232.33303,187.39861c0,-2.5 2.5,-4 2.5,-4c-5.5,-1.5 -9.50104,-15.11227 -9.50104,-15.11227l28.80864,-0.03512c0,0 -6.0394,14.25606 -9.3076,15.14739c0,0 2.5,1.5 2.5,4l-4.05504,6.15436l-6.99658,-0.02825z" fill="#000000" fill-rule="evenodd" stroke="#000000" stroke-linecap="butt" stroke-linejoin="round" stroke-miterlimit="4"/><path d="M234.83302,183.39861h10M232.33302,187.39861h15M239.83302,172.89861v5M237.33302,175.39861h5" fill="none" fill-rule="evenodd" stroke="#ffffff" stroke-linecap="round" stroke-linejoin="miter" stroke-miterlimit="4"/><path d="M227.61404,193.54535h24.73432" fill="none" fill-rule="nonzero" stroke="#ffffff" stroke-linecap="round" stroke-linejoin="miter" stroke-miterlimit="10"/><path d="M234.32622,167.67286h11.34649" fill="none" fill-rule="nonzero" stroke="#ffffff" stroke-linecap="round" stroke-linejoin="miter" stroke-miterlimit="10"/></g></g></svg>