<svg version="1.1" xmlns="http://www.w3.org/2000/svg" xmlns:xlink="http://www.w3.org/1999/xlink" width="36.63833" height="36.64296" viewBox="0,0,36.63833,36.64296"><g transform="translate(-221.68084,-161.55996)"><g fill="#ffffff" stroke="#000000" stroke-miterlimit="10"><path d="M240.00003,162.62607l11.27383,4.16665l5.99868,10.5503l-2.08332,11.99738l-9.19052,7.83071h-11.99738l-9.19052,-7.83071l-2.08332,-11.99738l5.99868,-10.5503z" stroke-width="2"/><path d="M224.84064,189.41298l-1.96852,-11.81156l6.29069,-2.60161l10.83215,6.38081l0.06014,11.42852l-5.94016,4.61816z" stroke-width="1.2"/><path d="M245.98729,197.29327l-5.94018,-4.50284l-0.02523,-11.42852l10.91755,-6.38081l6.29069,2.60161l-1.96852,11.81156z" stroke-width="1.2"/><path d="M239.9558,162.57269l11.24258,4.18134l-0.263,8.27733l-10.97957,6.26051l-10.78341,-6.26051l-0.23764,-8.38809z" stroke-width="1.2"/><path d="M230.09932,186.45443l-0.81454,-4.88747l2.60302,-1.07652l4.48222,2.64032l0.02489,4.72899l-2.64885,1.67234z" stroke-width="1.2"/><path d="M239.99734,169.20986l4.94416,1.83884l-0.11566,3.64013l-4.82849,2.75318l-4.74224,-2.75318l-0.1045,-3.68884z" stroke-width="1.2"/><path d="M246.59502,189.52764l-2.64885,-1.67234l0.0249,-4.72897l4.48224,-2.64032l2.60301,1.07654l-0.81455,4.88747z" stroke-width="1.2"/></g></g></svg>