<svg version="1.1" xmlns="http://www.w3.org/2000/svg" xmlns:xlink="http://www.w3.org/1999/xlink" width="42.42957" height="30.35475" viewBox="0,0,42.42957,30.35475"><g transform="translate(-220.52274,-172.35687)"><g><path d="" fill="#ffdc00" fill-rule="nonzero" stroke="none" stroke-width="1" stroke-linecap="butt" stroke-miterlimit="10"/><path d="" fill="#ffdc00" fill-rule="nonzero" stroke="#000000" stroke-width="1" stroke-linecap="round" stroke-miterlimit="4"/><path d="" fill="#ffdc00" fill-rule="nonzero" stroke="none" stroke-width="1" stroke-linecap="butt" stroke-miterlimit="10"/><g><path d="M241.7185,173.82619l3.24237,1.19743c1.78065,0.65959 3.37421,1.2509 3.54238,1.31239l0.30528,0.11016l-0.14738,0.35923c-0.07988,0.19764 -0.74182,1.97788 -1.4738,3.95154l-1.33169,3.58752l-0.70006,-0.63703c-0.76015,-0.69194 -0.77858,-0.70738 -0.94217,-0.61309c-0.08293,0.0478 0.25163,0.57495 1.33168,2.08833l1.44222,2.02127l-0.41056,0.0479c-0.46157,0.05307 -0.68036,0.14657 -1.1264,0.4646c-0.32532,0.23194 -0.42865,0.46964 -0.31582,0.7472c0.06129,0.15077 0.05121,0.16341 -0.1158,0.11974c-0.10383,-0.02715 -0.25578,-0.06564 -0.33686,-0.08622c-0.13382,-0.03396 -0.14533,-0.13198 -0.10528,-1.04896c0.02428,-0.55563 0.06183,-1.24341 0.08422,-1.52793c0.03758,-0.47757 0.02824,-0.51729 -0.12632,-0.51729c-0.10586,0 -0.18049,0.0634 -0.20529,0.17243c-0.02155,0.09484 -0.13778,1.2415 -0.25791,2.54815c-0.12012,1.30665 -0.31178,2.94474 -0.42635,3.64021c-0.27126,1.6466 -0.45864,3.15393 -0.5053,4.0617c-0.095,1.84829 -0.21186,3.75967 -0.25791,4.19582l-0.05265,0.47897h-1.11587h-1.11588l-0.05263,-0.47897c-0.02812,-0.26343 -0.09115,-1.2894 -0.14212,-2.27992c-0.10473,-2.03522 -0.33771,-4.31016 -0.59478,-5.77643c-0.09553,-0.54487 -0.29496,-2.2347 -0.44214,-3.75516c-0.26235,-2.71028 -0.27496,-2.76851 -0.45793,-2.79242c-0.17281,-0.02258 -0.18299,0.00013 -0.14739,0.30654c0.02116,0.18202 0.05935,0.89089 0.08422,1.57583c0.03517,0.96847 0.02418,1.24931 -0.0579,1.25012c-0.05805,0.00058 -0.18811,0.01837 -0.2895,0.04311c-0.1682,0.04105 -0.18336,0.01892 -0.17896,-0.26823c0.00263,-0.17307 -0.04466,-0.3656 -0.1,-0.42628c-0.23342,-0.25593 -0.94601,-0.59495 -1.34748,-0.64183l-0.42108,-0.05269l1.43168,-2.01169c0.78719,-1.10781 1.43171,-2.02524 1.43171,-2.04043c0,-0.01519 -0.0639,-0.05411 -0.14213,-0.08143c-0.10353,-0.03615 -0.34281,0.13219 -0.87376,0.61309l-0.73163,0.66098l-1.41591,-3.81742c-0.77854,-2.10035 -1.44155,-3.87822 -1.47905,-3.94675c-0.05778,-0.10557 0.47342,-0.3221 3.48974,-1.43693l3.55818,-1.31718z" fill="#ffffff" fill-rule="nonzero" stroke="#ffffff" stroke-width="1.5" stroke-linecap="round" stroke-miterlimit="4"/><path d="M237.5793,180.92036c0.141,-0.00004 0.28749,0.04607 0.41056,0.15806c0.21661,0.1971 0.22877,0.69618 0.02106,0.86216c-0.45234,0.36145 -1.03166,0.13036 -1.03166,-0.41192c0,-0.36639 0.28987,-0.60821 0.60004,-0.60829z" fill="#ffffff" fill-rule="nonzero" stroke="#ffffff" stroke-width="0" stroke-linecap="round" stroke-miterlimit="4"/><path d="M237.89512,181.19337c0.08384,0.08322 0.13685,0.19879 0.13685,0.3257c0,0.12691 -0.05301,0.24248 -0.13685,0.3257c-0.08385,0.08322 -0.19851,0.13411 -0.32634,0.13411c-0.12785,0 -0.2425,-0.05088 -0.32635,-0.13411c-0.08383,-0.08322 -0.13685,-0.19879 -0.13685,-0.3257c0,-0.06346 0.0131,-0.12206 0.03685,-0.17722c0.02373,-0.05516 0.05809,-0.10687 0.1,-0.14848c0.08385,-0.08322 0.1985,-0.13411 0.32635,-0.13411c0.12783,0 0.24249,0.05088 0.32634,0.13411z" fill="#dc0000" fill-rule="nonzero" stroke="#ffffff" stroke-width="0" stroke-linecap="round" stroke-miterlimit="4"/><path d="M239.91107,194.03467c0.11632,0.8667 0.20006,1.64824 0.22633,2.03086c0.05955,0.86703 0.00196,0.7596 0.12107,2.38529c0.1191,1.62569 0.17895,2.7062 0.17895,2.7062l-0.94743,-9.66091c0.15586,0.71998 0.30476,1.67186 0.42108,2.53857z" fill="#dc0000" fill-rule="nonzero" stroke="#ffffff" stroke-width="1.5" stroke-linecap="round" stroke-miterlimit="4"/><path d="M244.45353,187.95649c-0.02964,0.54857 -0.07059,1.13827 -0.12632,1.67163c-0.05573,0.53335 -0.12648,1.0112 -0.21581,1.33634c-0.04157,0.1513 -0.08523,0.3278 -0.12633,0.51729l0.54215,-5.55611c0,0 -0.0144,0.93371 -0.07369,2.03085z" fill="#ffffff" fill-rule="nonzero" stroke="#ffffff" stroke-width="1.5" stroke-linecap="round" stroke-miterlimit="4"/><path d="M243.03763,201.15223c0,0 0.05986,-1.0853 0.17896,-2.71099c0.11907,-1.62569 0.06152,-1.51826 0.12107,-2.38529c0.02631,-0.38308 0.11008,-1.1678 0.22633,-2.03565c0.11626,-0.86785 0.265,-1.81884 0.42108,-2.53856z" fill="#ffffff" fill-rule="nonzero" stroke="#ffffff" stroke-width="1.5" stroke-linecap="round" stroke-miterlimit="4"/><path d="M244.5167,189.12997l0.9527,0.21554c0,0 -0.11926,-0.00038 -0.26844,-0.01437c-0.14918,-0.01399 -0.3283,-0.0416 -0.4474,-0.09579c-0.23826,-0.10837 -0.23686,-0.10538 -0.23686,-0.10538z" fill="#dc0000" fill-rule="nonzero" stroke="#ffffff" stroke-width="1.5" stroke-linecap="round" stroke-miterlimit="4"/><path d="M244.57459,189.37903c0.02537,-0.00567 0.05888,-0.0007 0.10001,0.0096c0.09713,0.02432 0.31399,0.06506 0.48425,0.091c0.22298,0.03397 0.38199,0.12891 0.56847,0.34007c0.1424,0.16124 0.26318,0.31213 0.26318,0.33528c0,0.02316 -0.38824,0.22137 -0.85796,0.43587l-0.85271,0.38797l0.05791,-0.25385c0.03105,-0.14035 0.08164,-0.51023 0.11053,-0.81905c0.0367,-0.39238 0.05022,-0.50981 0.12632,-0.52687z" fill="#ffffff" fill-rule="nonzero" stroke="#ffffff" stroke-width="1.5" stroke-linecap="round" stroke-miterlimit="4"/><path d="M240.01895,191.06044c0.07976,-0.00102 0.11199,0.12502 0.15265,0.5604c0.03071,0.32878 0.0774,0.67152 0.10528,0.76636c0.02786,0.09484 0.01908,0.17064 -0.02106,0.16764c-0.04014,-0.00302 -0.41476,-0.16061 -0.83165,-0.34965c-0.41687,-0.18904 -0.74989,-0.37787 -0.73689,-0.4215c0.01299,-0.04363 0.12564,-0.19164 0.24738,-0.33049c0.16592,-0.18923 0.30736,-0.2644 0.56847,-0.29697c0.19158,-0.02389 0.40688,-0.06582 0.47899,-0.091c0.01364,-0.00477 0.02545,-0.00466 0.03683,-0.0048z" fill="#ffffff" fill-rule="nonzero" stroke="#ffffff" stroke-width="1.5" stroke-linecap="round" stroke-miterlimit="4"/><path d="M238.74561,185.39613c0,0 0.05955,3.73909 0.41686,5.03965c0.3573,1.30056 0.7146,4.2268 0.77415,5.09383c0.05955,0.86703 0,0.75866 0.1191,2.38435c0.1191,1.6257 0.17866,2.70949 0.17866,2.70949" fill="#ffffff" fill-rule="nonzero" stroke="#000000" stroke-width="1.5" stroke-linecap="round" stroke-miterlimit="4"/><path d="M242.27441,201.16181c0.30928,-0.00466 0.69837,-0.00234 1.03166,0.03353c0.18648,0.02007 0.35763,0.05125 0.48425,0.10059c0.06332,0.02467 0.11549,0.05226 0.15265,0.08622c0.03716,0.03395 0.05956,0.07518 0.06316,0.11974c0.00555,0.0696 0.00229,0.12333 -0.01579,0.16765c-0.01808,0.04432 -0.05306,0.07764 -0.10527,0.10537c-0.10443,0.05546 -0.28554,0.08803 -0.58952,0.12932c-0.27151,0.03688 -0.66266,0.04869 -0.9843,0.05269c-0.32162,0.004 -0.57372,0 -0.57372,0v0.0048c0,0 -0.2521,0.004 -0.57373,0c-0.32162,-0.00395 -0.71279,-0.01581 -0.98429,-0.05269c-0.30397,-0.04128 -0.48509,-0.07386 -0.58953,-0.12932c-0.0522,-0.02774 -0.08718,-0.06106 -0.10526,-0.10538c-0.0181,-0.04432 -0.0213,-0.09804 -0.0158,-0.16764c0.00356,-0.04457 0.02601,-0.08578 0.06317,-0.11974c0.03716,-0.03396 0.08934,-0.06155 0.15264,-0.08622c0.12663,-0.04934 0.29778,-0.08051 0.48425,-0.10058c0.33329,-0.03583 0.72285,-0.03893 1.03166,-0.03353c0.30882,0.00538 0.53689,0.01916 0.53689,0.01916v-0.0048c0,0 0.22761,-0.01446 0.53688,-0.01916z" fill="#dc0000" fill-rule="nonzero" stroke="#ffffff" stroke-width="1.5" stroke-linecap="round" stroke-miterlimit="4"/><path d="M240.17424,195.53474c0.01493,-0.0072 0.05159,0.0069 0.06316,0.01437c-0.03261,0 -0.07087,-0.01067 -0.06316,-0.01437z" fill="#dc0000" fill-rule="nonzero" stroke="none" stroke-width="1" stroke-linecap="butt" stroke-miterlimit="10"/><path d="M221.27274,182.89461c0,0 5.62264,-9.05536 8.75858,-9.65613c3.20026,-0.61309 7.8322,1.22618 7.8322,1.22618l0.21055,0.05748" fill="none" fill-rule="nonzero" stroke="#000000" stroke-width="1.5" stroke-linecap="round" stroke-miterlimit="4"/><path d="M234.38956,176.64879c0,0 1.98589,-1.29149 3.4717,-2.03299c0.67699,-0.33786 1.79655,-0.59212 2.19191,-0.61095c1.68435,-0.08021 1.68435,-0.07664 1.68435,-0.07664" fill="none" fill-rule="nonzero" stroke="#000000" stroke-width="1.5" stroke-linecap="round" stroke-miterlimit="4"/><path d="M239.38809,190.97978c0,0 0.62528,0.10838 -1.31171,-0.19816c-1.93699,-0.30654 -1.17905,-0.15327 -3.874,-0.843c-2.69495,-0.68973 -2.86338,-0.68972 -6.06363,-2.06917c-3.20026,-1.37945 -6.8216,-4.9047 -6.8216,-4.9047" fill="#ffffff" fill-rule="nonzero" stroke="#000000" stroke-width="1.5" stroke-linecap="round" stroke-miterlimit="4"/><path d="M233.96157,189.45625v-2.03293h2.91682v2.03293z" fill="#000000" fill-rule="nonzero" stroke="none" stroke-width="1" stroke-linecap="butt" stroke-miterlimit="10"/><path d="M237.4034,184.92072v0c0,0 -0.60728,-0.31423 -1.26976,-1.09981c-0.66247,-0.78558 -0.73108,-2.04251 -1.10413,-3.56129c-0.38857,-1.582 -0.60728,-3.66603 -0.60728,-3.66603" fill="none" fill-rule="nonzero" stroke="#000000" stroke-width="1.5" stroke-linecap="round" stroke-miterlimit="4"/><path d="M238.03197,181.28525c0,0.25395 -0.20738,0.45982 -0.4632,0.45982c-0.25582,0 -0.46319,-0.20587 -0.46319,-0.45982c0,-0.25395 0.20738,-0.45981 0.46319,-0.45981c0.25582,0 0.4632,0.20586 0.4632,0.45981z" fill="#ffffff" fill-rule="nonzero" stroke="#000000" stroke-width="0.5" stroke-linecap="round" stroke-miterlimit="4"/><path d="M235.84232,188.06753c0,0 0.0421,-0.22991 0.21053,-0.843c0.16844,-0.61309 0.29477,-0.68973 0.71586,-1.41777c0.42107,-0.72804 2.40018,-2.41403 2.40018,-2.41403" fill="#dc0000" fill-rule="nonzero" stroke="#000000" stroke-width="1.5" stroke-linecap="round" stroke-miterlimit="4"/><path d="M241.73752,201.72884c0,0 -1.01501,0.02189 -1.55802,-0.05187c-0.60796,-0.08257 -0.73081,-0.12452 -0.70862,-0.4029c0.01421,-0.17825 0.3233,-0.26545 0.69625,-0.30559c0.66658,-0.07174 1.57039,-0.01722 1.57039,-0.01722" fill="#dc0000" fill-rule="nonzero" stroke="#000000" stroke-width="1.5" stroke-linecap="round" stroke-miterlimit="4"/><path d="M245.40097,174.51565l0.21054,-0.05748c0,0 4.63195,-1.83927 7.8322,-1.22618c3.13594,0.60076 8.75859,9.65612 8.75859,9.65612" fill="#dc0000" fill-rule="nonzero" stroke="#000000" stroke-width="1.5" stroke-linecap="round" stroke-miterlimit="4"/><path d="M241.73752,173.92171c0,0 0,-0.00357 1.68434,0.07664c0.39537,0.01883 1.51493,0.27309 2.19192,0.61095c1.48581,0.7415 3.4717,2.03299 3.4717,2.03299" fill="none" fill-rule="nonzero" stroke="#000000" stroke-width="1.5" stroke-linecap="round" stroke-miterlimit="4"/><path d="M243.1632,200.94954c0,0 0.05955,-1.08379 0.17865,-2.70949c0.1191,-1.62569 0.05955,-1.51732 0.1191,-2.38435c0.05955,-0.86703 0.41686,-3.79328 0.77416,-5.09383c0.3573,-1.30056 0.41686,-5.03965 0.41686,-5.03965" fill="#ffffff" fill-rule="nonzero" stroke="#000000" stroke-width="1.5" stroke-linecap="round" stroke-miterlimit="4"/><path d="M262.11809,182.96475c0,0 -3.62134,3.52525 -6.8216,4.9047c-3.20025,1.37945 -3.36869,1.37944 -6.06364,2.06917c-2.69495,0.68972 -1.937,0.53645 -3.87399,0.843c-1.937,0.30654 -1.25217,0.19816 -1.25217,0.19816" fill="#dc0000" fill-rule="nonzero" stroke="#000000" stroke-width="1.5" stroke-linecap="round" stroke-miterlimit="4"/><path d="M246.96592,189.54464v-1.94455h3.27037v1.94455z" fill="#000000" fill-rule="nonzero" stroke="none" stroke-width="1" stroke-linecap="butt" stroke-miterlimit="10"/><path d="M249.05281,176.58709c0,0 -0.20579,2.0551 -0.57144,3.61514c-0.35103,1.4977 -0.41559,2.73718 -1.03898,3.51184c-0.62338,0.77467 -1.19482,1.08454 -1.19482,1.08454v0" fill="none" fill-rule="nonzero" stroke="#000000" stroke-width="1.5" stroke-linecap="round" stroke-miterlimit="4"/><path d="M245.90627,180.81894c0.25582,0 0.46319,0.20586 0.46319,0.45981c0,0.25395 -0.20738,0.45982 -0.46319,0.45982c-0.25582,0 -0.4632,-0.20587 -0.4632,-0.45982c0,-0.25395 0.20738,-0.45981 0.4632,-0.45981z" fill="#ffffff" fill-rule="nonzero" stroke="#000000" stroke-width="0.5" stroke-linecap="round" stroke-miterlimit="4"/><path d="M244.30614,183.38625c0,0 1.97911,1.68599 2.40019,2.41403c0.42109,0.72804 0.54742,0.80468 0.71585,1.41777c0.16844,0.61309 0.21054,0.843 0.21054,0.843" fill="#dc0000" fill-rule="nonzero" stroke="#000000" stroke-width="1.5" stroke-linecap="round" stroke-miterlimit="4"/><path d="M241.73752,200.94477c0,0 0.9038,-0.05452 1.57039,0.01722c0.37295,0.04014 0.68204,0.12734 0.69625,0.30559c0.02219,0.27838 -0.10067,0.32033 -0.70862,0.40291c-0.54302,0.07375 -1.55802,0.05186 -1.55802,0.05186" fill="#dc0000" fill-rule="nonzero" stroke="#000000" stroke-width="1.5" stroke-linecap="round" stroke-miterlimit="4"/><path d="M238.88648,188.89466c0,0 0,0 -0.2382,0.10838c-0.23821,0.10838 -0.71461,0.10838 -0.71461,0.10838" fill="#dc0000" fill-rule="nonzero" stroke="#000000" stroke-width="1.5" stroke-linecap="round" stroke-miterlimit="4"/><path d="M237.67347,187.96085c0.1482,0.10472 0.15263,0.10595 0.36369,0.24c0.58198,0.3385 -0.46138,1.37743 -0.85093,1.76831c-0.44936,0.44836 -0.73159,0.81712 -1.08275,1.32901c-0.37569,0.65244 -0.57373,1.22543 -0.78076,1.74065c-0.19972,0.55507 -0.35276,1.03105 -0.36453,1.59996c0,0.18912 0.20937,0.58573 0.4764,0.86704c0.21786,0.22949 0.43904,0.42024 0.77416,0.70446c0.24038,0.20386 0.74544,0.81284 0.41686,0.81284c-0.57674,-0.01798 -1.1648,-0.04342 -1.72696,-0.16257c-0.46302,-0.08053 -0.83905,-0.19514 -1.25057,-0.48771c-0.32486,-0.39317 -0.505,-0.6733 -0.65505,-1.0838c-0.12938,-0.53994 -0.06879,-1.08881 0.05955,-1.62569c0.11959,-0.47646 0.21129,-0.90794 0.4764,-1.51731c0.48568,-1.34272 1.40476,-2.60016 2.22571,-3.80005c0.19791,-0.28569 0.28368,-0.41667 0.63272,-0.64351c0.33824,-0.18467 0.97298,0.04585 1.28606,0.25836z" fill="#ffffff" fill-rule="evenodd" stroke="#000000" stroke-width="0.4" stroke-linecap="butt" stroke-miterlimit="4"/><path d="M245.46887,189.11142c0,0 -0.47641,0 -0.71461,-0.10838c-0.2382,-0.10838 -0.2382,-0.10838 -0.2382,-0.10838" fill="#dc0000" fill-rule="nonzero" stroke="#000000" stroke-width="1.5" stroke-linecap="round" stroke-miterlimit="4"/><path d="M247.08763,187.69599c0.34904,0.22683 0.43481,0.35781 0.63273,0.6435c0.82093,1.19989 1.74002,2.45734 2.2257,3.80006c0.26512,0.60937 0.35681,1.04085 0.4764,1.51731c0.12834,0.53688 0.18892,1.08575 0.05955,1.62569c-0.15006,0.41049 -0.3302,0.69063 -0.65506,1.0838c-0.41152,0.29256 -0.78755,0.40717 -1.25056,0.48771c-0.56217,0.11915 -1.15023,0.14459 -1.72696,0.16257c-0.32858,0 0.17648,-0.60899 0.41685,-0.81284c0.33513,-0.28422 0.55631,-0.47496 0.77416,-0.70446c0.26703,-0.28131 0.4764,-0.67793 0.4764,-0.86704c-0.01177,-0.56891 -0.16481,-1.04489 -0.36453,-1.59996c-0.20703,-0.51523 -0.40506,-1.0882 -0.78076,-1.74065c-0.35115,-0.51189 -0.63338,-0.88065 -1.08275,-1.32901c-0.38954,-0.39087 -1.4329,-1.4298 -0.85093,-1.76831c0.21107,-0.13404 0.21549,-0.13529 0.36369,-0.24c0.31308,-0.21251 0.94783,-0.44304 1.28607,-0.25836z" fill="#ffffff" fill-rule="evenodd" stroke="#000000" stroke-width="0.4" stroke-linecap="butt" stroke-miterlimit="4"/><path d="M242.79515,189.28964c0,0 -1.59264,0.22991 -2.13252,-0.03832" fill="#dc0000" fill-rule="nonzero" stroke="#000000" stroke-width="0.8" stroke-linecap="round" stroke-miterlimit="4"/><path d="M242.19386,194.25194c0,0 -0.72498,0.22991 -0.97072,-0.03832" fill="#dc0000" fill-rule="nonzero" stroke="#000000" stroke-width="0.6" stroke-linecap="round" stroke-miterlimit="4"/><path d="M242.48862,191.74237c0,0 -1.12453,0.22991 -1.50573,-0.03832" fill="#dc0000" fill-rule="nonzero" stroke="#000000" stroke-width="0.7" stroke-linecap="round" stroke-miterlimit="4"/><path d="M232.70492,188.71901c-1.43524,-0.41386 -3.78593,-1.33292 -4.93711,-1.9303c-0.82266,-0.4269 -2.35506,-1.44243 -3.25858,-2.15948c-0.93339,-0.74075 -2.17731,-1.81576 -2.17731,-1.88165c0,-0.03166 0.40813,-0.65016 0.90696,-1.37447c2.66758,-3.87336 4.93453,-6.39204 6.41247,-7.12457c0.48716,-0.24146 0.67167,-0.28135 1.45841,-0.31531c0.55942,-0.02415 1.28207,0.01459 1.90725,0.10225c1.19703,0.16783 2.92672,0.56843 2.92672,0.67782c0,0.04266 -0.0895,0.12401 -0.19888,0.18076c-0.70644,0.36655 -1.91882,1.18951 -2.01378,1.36695c-0.15371,0.28722 -0.0089,1.49096 0.45473,3.78113c0.64901,3.20559 0.83539,3.73033 1.61542,4.5481l0.48346,0.50686l-0.31107,0.48475c-0.40236,0.62701 -0.58498,1.05286 -0.76856,1.79225c-0.16327,0.65757 -0.80591,1.74074 -1.02909,1.73453c-0.07292,-0.002 -0.73489,-0.17736 -1.47103,-0.38963z" fill="#ffffff" fill-rule="nonzero" stroke="#000000" stroke-width="0.5" stroke-linecap="round" stroke-miterlimit="4"/><path d="M248.81158,188.51939c-0.26135,-0.39796 -0.45495,-0.83516 -0.58145,-1.313c-0.11762,-0.44432 -0.3476,-0.97962 -0.60559,-1.40956l-0.41595,-0.69318l0.37927,-0.37927c0.52336,-0.52337 0.88301,-1.11709 1.08765,-1.79556c0.27049,-0.89676 0.85972,-3.89385 1.03051,-5.24164c0.13716,-1.08234 0.13987,-1.24595 0.02415,-1.45022c-0.07496,-0.13232 -0.57215,-0.49681 -1.169,-0.85701c-0.57121,-0.34473 -1.03856,-0.65337 -1.03856,-0.68589c0,-0.08799 2.13282,-0.57251 3.06616,-0.69655c1.2401,-0.16481 2.52146,-0.08104 3.148,0.2058c1.26916,0.58104 3.15902,2.54749 5.40476,5.6238c0.85899,1.17667 1.88241,2.67611 1.95415,2.86307c0.07338,0.19121 -2.13927,2.0172 -3.77636,3.11644c-1.69626,1.13897 -4.32794,2.29328 -6.74296,2.9576c-0.70336,0.19348 -1.30002,0.35178 -1.3259,0.35178c-0.02588,0 -0.22338,-0.26848 -0.43887,-0.59662v0z" fill="#ffffff" fill-rule="nonzero" stroke="#000000" stroke-width="0.5" stroke-linecap="round" stroke-miterlimit="4"/></g></g></g></svg>