<svg version="1.1" xmlns="http://www.w3.org/2000/svg" xmlns:xlink="http://www.w3.org/1999/xlink" width="34.16645" height="33.2628" viewBox="0,0,34.16645,33.2628"><g transform="translate(-222.91678,-163.3686)"><g fill="#000000" stroke="#000000" stroke-width="0" stroke-miterlimit="10"><path d="M240.08017,163.37506c0.42763,0.02672 0.65481,0.17372 1.6771,1.10915c1.61028,1.46996 2.90652,3.21389 3.87537,5.22506l0.40758,0.84857l0.46772,0.2539c3.66824,1.97109 6.24737,5.52574 7.01576,9.67506c0.14699,0.76171 0.2539,2.32522 0.20713,2.8798l-0.04009,0.46772l0.31404,0.43431c1.46329,1.99114 2.57913,4.65712 3.00676,7.16943c0.12696,0.75503 0.09355,1.00225 -0.16704,1.36306c-0.16036,0.22049 -0.30067,0.30736 -0.78844,0.50113c-1.21606,0.48777 -2.72612,0.85525 -4.14932,1.02229c-0.95548,0.11358 -2.84639,0.13363 -3.66824,0.03341l-0.5479,-0.06013l-0.6214,0.37417c-4.32304,2.61254 -9.81537,2.61254 -14.13841,0l-0.6214,-0.37417l-0.5479,0.06013c-0.82184,0.10022 -2.71276,0.08018 -3.66824,-0.03341c-1.4232,-0.16704 -2.93325,-0.53454 -4.14932,-1.02229c-0.48777,-0.19377 -0.62807,-0.28063 -0.78844,-0.50113c-0.26059,-0.36081 -0.29399,-0.60803 -0.16704,-1.36306c0.42763,-2.5123 1.54347,-5.17829 3.00676,-7.16943l0.31404,-0.43431l-0.04009,-0.46772c-0.04677,-0.55458 0.06013,-2.11809 0.20713,-2.8798c0.76839,-4.156 3.34752,-7.70397 7.02243,-9.68174c0.4744,-0.2539 0.48108,-0.26059 0.72162,-0.79512c0.77508,-1.72387 2.01119,-3.52124 3.35419,-4.87762c0.71494,-0.72162 1.62364,-1.51006 1.931,-1.6771c0.13363,-0.0735 0.31404,-0.10022 0.57462,-0.08018zM238.24272,167.89855c-0.48777,0.61471 -1.06907,1.46996 -1.02898,1.51006c0.01336,0.01336 0.30736,-0.02005 0.65481,-0.08686c0.48108,-0.08686 0.98888,-0.11358 2.13146,-0.11358c1.14256,0 1.65038,0.02672 2.13146,0.11358c0.34745,0.06682 0.64144,0.10691 0.65481,0.09355c0.03341,-0.04009 -0.58799,-0.96884 -1.02898,-1.51674c-0.22049,-0.27395 -0.68153,-0.79512 -1.01562,-1.15593c-0.34076,-0.35413 -0.67485,-0.64812 -0.74167,-0.64812zM235.82396,172.2884l-0.18709,0.59467c-0.24054,0.77508 -0.43431,1.73724 -0.55458,2.73281c-0.09355,0.79512 -0.12696,2.17154 -0.05345,2.17154c0.02005,0 0.3274,-0.0735 0.68153,-0.16036c1.49001,-0.37417 2.70607,-0.52117 4.28963,-0.52117c1.58356,0 2.79962,0.14699 4.28963,0.52117c0.35413,0.08686 0.66148,0.16036 0.68153,0.16036c0.0735,0 0.04009,-1.37643 -0.05345,-2.17154c-0.12027,-0.99557 -0.31404,-1.95773 -0.55458,-2.73281l-0.18709,-0.59467l-0.46772,-0.16036c-0.66148,-0.22718 -1.76396,-0.46772 -2.51899,-0.5479c-1.57019,-0.17372 -3.31411,0.02005 -4.82417,0.52785zM232.22921,174.59358c-1.69046,1.57019 -2.91989,3.74841 -3.38093,6.00682c-0.0735,0.34745 -0.12027,0.63476 -0.11358,0.64144c0.00669,0.00669 0.20713,-0.14699 0.44767,-0.34076c0.65481,-0.5479 2.03791,-1.44992 2.81298,-1.84414l0.68821,-0.35413v-1.54347c0.00669,-1.14925 0.03341,-1.74391 0.12696,-2.3319c0.06682,-0.43431 0.10691,-0.8018 0.09355,-0.81516zM247.19615,174.85417c0.08018,0.50113 0.11358,1.13589 0.11358,2.27177l0.00669,1.57687l0.68821,0.35413c0.77508,0.39422 2.15818,1.29624 2.81298,1.84414c0.24054,0.19377 0.44099,0.34745 0.44767,0.34076c0.04677,-0.04677 -0.27395,-1.36306 -0.4744,-1.97778c-0.52785,-1.57687 -1.65038,-3.38093 -2.75284,-4.41658c-0.88198,-0.83521 -0.95548,-0.89535 -0.95548,-0.79512zM235.34287,180.23291c-0.04677,0.12696 0.35413,1.57019 0.6214,2.25173c0.76839,1.97109 1.85082,3.64819 3.30074,5.1382l0.73498,0.75503l0.73498,-0.75503c1.44992,-1.49001 2.53235,-3.16711 3.30074,-5.1382c0.26726,-0.68153 0.66817,-2.12477 0.6214,-2.25173c-0.06682,-0.16704 -1.80405,-0.57462 -2.98671,-0.70157c-1.56351,-0.16704 -3.03348,-0.11358 -4.51013,0.16704zM233.05774,181.13494c-0.02005,0 -0.10022,0.04009 -0.17372,0.08686c-0.0735,0.04677 -0.3274,0.20045 -0.56794,0.34076c-0.88866,0.53454 -1.83078,1.2762 -2.70607,2.12477l-0.90202,0.88198l0.13363,0.6214c0.29399,1.39647 0.88866,2.81298 1.66374,3.98228c0.59467,0.90202 1.10248,1.46996 2.15818,2.43881l0.24723,0.22718l0.75503,-0.18709c1.29624,-0.32072 2.64594,-0.86194 3.81523,-1.51674l0.59467,-0.33408l-0.42763,-0.44767c-1.34302,-1.37643 -2.38536,-2.85975 -3.22725,-4.58363c-0.52785,-1.08243 -0.92875,-2.13146 -1.16929,-3.06021c-0.08686,-0.32072 -0.17372,-0.5813 -0.19377,-0.57462zM246.9222,181.12825c-0.01336,0 -0.08686,0.26059 -0.17372,0.5813c-0.70826,2.71276 -2.30518,5.48565 -4.39654,7.64383l-0.42763,0.44767l0.59467,0.33408c1.16929,0.65481 2.51899,1.19602 3.81523,1.51674l0.75503,0.18709l0.24723,-0.22718c1.0557,-0.96884 1.56351,-1.53678 2.15818,-2.43881c0.77508,-1.16929 1.36974,-2.5858 1.66374,-3.98228l0.13363,-0.6214l-0.8753,-0.85525c-1.02229,-1.00225 -1.97778,-1.73724 -3.05352,-2.34526c-0.23385,-0.13363 -0.43431,-0.24054 -0.44099,-0.24054zM226.93065,187.20857c-0.06682,0 -0.75503,1.51006 -0.96216,2.10472c-0.11358,0.3274 -0.29399,0.92207 -0.4009,1.31629l-0.18709,0.71494l0.3675,0.10691c1.18934,0.34745 2.21832,0.52785 3.38093,0.60803l0.68153,0.04677l-0.20713,-0.22718c-0.91539,-1.01562 -2.09136,-3.00007 -2.49894,-4.23618c-0.08018,-0.24054 -0.16036,-0.43431 -0.17372,-0.43431zM253.06933,187.20857c-0.01336,0 -0.09355,0.19377 -0.17372,0.43431c-0.40758,1.23611 -1.58356,3.22056 -2.49894,4.23618l-0.20713,0.22718l0.68153,-0.04677c1.16261,-0.08018 2.19159,-0.26059 3.38093,-0.60803l0.3675,-0.10691l-0.18709,-0.71494c-0.26726,-1.00225 -0.55458,-1.79737 -0.96884,-2.67267c-0.20045,-0.40758 -0.37417,-0.74834 -0.39422,-0.74834zM239.3385,191.75879c-0.79512,0.50113 -2.13146,1.17597 -2.89316,1.46329c-0.3274,0.12696 -0.58799,0.24054 -0.58799,0.26726c0,0.04677 0.90202,0.34076 1.51674,0.50113c1.55015,0.38753 3.70164,0.38753 5.2518,0c0.61471,-0.16036 1.51674,-0.45435 1.51674,-0.50113c0,-0.02672 -0.26059,-0.14032 -0.5813,-0.26726c-0.75503,-0.28063 -2.09136,-0.95548 -2.90652,-1.46996c-0.35413,-0.22049 -0.65481,-0.4009 -0.66817,-0.4009z"/></g></g></svg>