<svg version="1.1" xmlns="http://www.w3.org/2000/svg" xmlns:xlink="http://www.w3.org/1999/xlink" width="33.52896" height="33.5" viewBox="0,0,33.52896,33.5"><g transform="translate(-223.23552,-163)"><g data-paper-data="{&quot;isPaintingLayer&quot;:true}" fill-rule="evenodd" stroke-width="1.5" stroke-linecap="round" stroke-linejoin="round" stroke-miterlimit="4" stroke-dasharray="" stroke-dashoffset="0" style="mix-blend-mode: normal"><path d="M239.98552,166.75c10.5,1 16.5,8 16,29h-23c0,-9 10,-6.5 8,-21" fill="#000000" stroke="#000000"/><path d="M241.98552,174.75c0.38,2.91 -5.55,7.37 -8,9c-3,2 -2.82,4.34 -5,4c-1.042,-0.94 1.41,-3.04 0,-3c-1,0 0.19,1.23 -1,2c-1,0 -4.003,1 -4,-4c0,-2 6,-12 6,-12c0,0 1.89,-1.9 2,-3.5c-0.73,-0.994 -0.5,-2 -0.5,-3c1,-1 3,2.5 3,2.5h2c0,0 0.78,-1.992 2.5,-3c1,0 1,3 1,3" fill="#000000" stroke="#000000"/><path d="M227.48552,182.25c0,0.27614 -0.22386,0.5 -0.5,0.5c-0.27614,0 -0.5,-0.22386 -0.5,-0.5c0,-0.27614 0.22386,-0.5 0.5,-0.5c0.27614,0 0.5,0.22386 0.5,0.5z" fill="#ffffff" stroke="#ffffff"/><path d="M232.91851,172.5001c-0.41421,0.71744 -0.94387,1.18711 -1.18301,1.04904c-0.23915,-0.13807 -0.09723,-0.8316 0.31699,-1.54904c0.41421,-0.71744 0.94387,-1.18711 1.18301,-1.04904c0.23915,0.13807 0.09723,0.8316 -0.31699,1.54904z" fill="#ffffff" stroke="#ffffff"/><path d="M243.04552,167.25c3.4,0.52 6.82,2.67 9.19,7.16c2.37,4.49 3.75,11.28 3.25,21.34l-0.05,0.5h-2.25l0.05,-0.5c0.5,-9.94 -0.5,-15.99 -2.75,-20.25c-2.25,-4.26 -4.75,-5.75 -7.9,-6.75l-0.5,-0.15l0.45,-1.45z" fill="#ffffff" stroke="none"/></g></g></svg>