<svg version="1.1" xmlns="http://www.w3.org/2000/svg" xmlns:xlink="http://www.w3.org/1999/xlink" width="35.78004" height="36.70668" viewBox="0,0,35.78004,36.70668"><g transform="translate(-207.07695,-156.64667)"><g stroke-width="1.5" stroke-miterlimit="10"><path d="M222.34906,173.4405c4.45787,-0.84069 12.54976,-2.90996 12.61282,3.18371c-0.00331,2.485 -0.32875,5.98489 -0.28835,8.49048c0.03831,2.37572 1.45298,6.55598 1.45298,6.55598c-0.37521,2.40734 -1.77112,-0.37948 -3.93624,-2.34795c-1.46957,-1.3361 -3.52478,-0.79259 -4.9612,-1.61201c-2.34254,-1.33633 -2.01943,-1.59843 -4.45293,-2.76092c-3.34798,-2.1286 -3.70936,-6.33911 -2.74223,-9.80488c-0.48913,-0.97256 1.04879,-1.51537 2.31516,-1.7044z" fill="#000000" fill-rule="nonzero" stroke="#000000" stroke-linecap="butt" stroke-linejoin="miter"/><path d="M238.02885,172.26082c0.90494,-3.08947 1.1775,-6.90057 3.59517,-6.90057c0.19741,0 0.35744,0.22772 0.35744,0.50864c0,0.38069 -0.3977,1.1545 -0.3977,1.1545c-1.22813,2.43674 0.41458,4.94791 0.58698,8.29278c0.05697,1.10518 -0.96038,1.0674 -0.98789,1.82397c-0.02103,0.57822 0.60992,1.26933 0.81722,1.76756c0.03751,2.07019 -0.62359,3.20033 -0.57577,4.95626c0.01726,0.63366 0.68269,2.96836 0.68269,3.71565c0,0.28092 -0.66337,0.43928 -0.86077,0.43928c-1.13152,0 -1.26429,-2.45911 -3.11496,-4.86638c-0.71264,-0.92697 -1.97851,-1.85993 -1.97851,-1.85993c0,0 -1.60389,-1.58357 -0.72292,-4.52793z" fill="#000000" fill-rule="nonzero" stroke="#000000" stroke-linecap="butt" stroke-linejoin="miter"/><path d="M214.97554,176.67807c-1.76405,-5.38951 -1.97296,-12.00758 3.7716,-14.74173c2.21409,-1.05381 11.28455,-0.27611 13.48174,-1.34472c2.53885,-1.23476 3.91223,-4.81166 4.36235,-2.34946c0,0 0.251,4.92152 0.01168,9.62781c-0.07213,1.41837 -0.90795,2.81719 -0.90244,4.05585c0.00519,1.16775 1.09103,2.16736 1.09239,3.03922c-0.06306,5.19519 -8.15496,3.43102 -12.61282,2.71428c-1.26635,-0.16116 -9.69362,-0.17211 -9.2045,-1.00127z" fill="#000000" fill-rule="nonzero" stroke="#000000" stroke-linecap="butt" stroke-linejoin="miter"/><path d="M236.54409,181.52747c0,0 -6.18863,7.11816 -11.88017,7.59072c-5.69154,0.47257 -9.57519,-4.28137 -12.46451,-5.39479c-0.76187,-0.29359 -1.71172,0.81386 -2.44999,0.15565c-0.58558,-0.52208 -0.49969,-2.43387 0.21612,-2.70283c-1.16559,-0.88992 -2.15857,-1.80717 -2.13828,-3.43649c1.29565,-2.17872 2.25319,0.74601 3.86907,-0.73754c1.59409,-1.46354 1.87578,-6.20687 2.94906,-8.09363c3.39533,-5.96071 12.02901,-7.13014 16.63892,-2.20206c2.91151,3.11246 5.17003,8.16562 5.17003,8.16562z" fill="#000000" fill-rule="nonzero" stroke="#000000" stroke-linecap="butt" stroke-linejoin="miter"/><path d="M219.50474,167.29473c0,0 4.56932,1.26161 4.62133,9.45979c0.01391,2.19391 -0.57711,4.92347 -1.41377,6.79795c-0.71638,1.60499 -1.69631,2.53192 -1.69631,2.53192" fill="none" fill-rule="nonzero" stroke="#ffffff" stroke-linecap="round" stroke-linejoin="miter"/><path d="M224.04643,182.0903c0,0 -0.42067,-0.39063 -0.03004,-0.8113c2.54559,-2.74141 1.96114,-6.10325 5.28768,-7.81485c2.6604,-1.36885 2.85165,1.35267 2.268,3.12616c-0.8578,2.13125 -1.12124,4.35954 -1.59023,6.59282c-0.16713,0.79587 -0.18027,1.92913 -1.1057,2.32677z" fill="#000000" fill-rule="nonzero" stroke="#ffffff" stroke-linecap="butt" stroke-linejoin="miter"/><path d="M217.40376,176.05203c-0.93281,0.02665 -1.69672,-0.18698 -1.70623,-0.47715c-0.00952,-0.29018 0.73896,-0.54702 1.67176,-0.57366c0.93281,-0.02665 1.69672,0.18698 1.70623,0.47715c0.00952,0.29018 -0.73896,0.54702 -1.67176,0.57366z" fill="#000000" fill-rule="evenodd" stroke="#ffffff" stroke-linecap="round" stroke-linejoin="round"/><path d="M214.40369,170.93409c0,0 0.47301,-7.1541 10.23306,-7.02643c6.24568,0.0817 10.69627,7.23305 10.69627,7.23305" fill="none" fill-rule="nonzero" stroke="#ffffff" stroke-linecap="round" stroke-linejoin="miter"/><path d="M228.89785,187.6377l5.57736,-4.66884" fill="none" fill-rule="nonzero" stroke="#ffffff" stroke-linecap="round" stroke-linejoin="miter"/><path d="M236.70452,181.36725v-7.23474" fill="none" fill-rule="nonzero" stroke="#ffffff" stroke-linecap="round" stroke-linejoin="miter"/></g></g></svg>