<svg version="1.1" xmlns="http://www.w3.org/2000/svg" xmlns:xlink="http://www.w3.org/1999/xlink" width="37.4732" height="42.31972" viewBox="0,0,37.4732,42.31972"><g transform="translate(-131.2634,-78.34583)"><g stroke-miterlimit="10"><path d="M154.66105,91.36145l9.0148,-8.872l-2.6828,11.601l6.5109,3.4966l-6.9219,3.998v9.7204l3.9531,2.7679l0.0039,5.9922h-7.1328v-2.3398h-3.8125v2.3398h-7.1875v-2.3398h-3.8125v2.3398h-7.1328v-6.0039l3.957,-2.8363v-9.6403l-6.9219,-3.998l6.5109,-3.4966l-2.6828,-11.601l9.0148,8.872l4.661,-11.427z" fill="#000000" stroke="#000000" stroke-width="1.2"/><path d="M149.99995,107.15915v4.3784M145.99995,103.15915v4.3784M153.99995,103.15915v4.3784M160.56595,111.39415h-21.132M164.54895,114.39415h-29.098M153.99995,111.35915l2,3.078M145.99995,111.35915l-2,3.078" fill="none" stroke="#ffffff" stroke-width="0.9"/><path d="M146.02995,97.39515l3.9699,-3.9699l3.9699,3.9699l-3.9699,3.9699z" fill="none" stroke="#ffffff" stroke-width="1"/><path d="M160.29595,107.39415h-20.593M160.29595,103.39415h-20.593" fill="none" stroke="#ffffff" stroke-width="0.9"/><path d="M139.42795,101.58565v-6.7875" fill="none" stroke="#ffffff" stroke-width="1.2"/><path d="M139.42795,95.58615c0,-2.2378 4.73325,-4.0519 10.572,-4.0519c5.83875,0 10.572,1.8141 10.572,4.0519" fill="none" stroke="#ffffff" stroke-width="1.2"/><path d="M160.57195,101.58565v-6.7875" fill="none" stroke="#ffffff" stroke-width="1.2"/></g></g></svg>