<svg viewBox="0,0,34.72449,35.125" height="35.125" width="34.72449" xmlns:xlink="http://www.w3.org/1999/xlink" xmlns="http://www.w3.org/2000/svg" version="1.1"><g transform="translate(-222.63776,-162.4375)"><g style="mix-blend-mode: normal" stroke-dashoffset="0" stroke-dasharray="" stroke-miterlimit="4" stroke-width="1.5" fill-rule="evenodd" data-paper-data="{&quot;isPaintingLayer&quot;:true}"><path stroke-linejoin="miter" stroke-linecap="round" stroke="#000000" fill="none" d="M240,168.8175v-5.63"></path><path stroke-linejoin="miter" stroke-linecap="butt" stroke="#000000" fill="#000000" d="M240,182.1875c0,0 -4.5,-7.5 -3,-10.5c0,0 1,-2.5 3,-2.5c2,0 3,2.5 3,2.5c1.5,3 -3,10.5 -3,10.5"></path><path stroke-linejoin="round" stroke-linecap="round" stroke="#000000" fill="#000000" d="M230,194.1875v-7c0,0 -9,-4.5 -6,-10.5c4,-6.5 13.5,-3.5 16,4v3.5v-3.5c2.5,-7.5 12,-10.5 16,-4c3,6 -6,10.5 -6,10.5v7c-5.5,3.5 -14.5,3.5 -20,0"></path><path stroke-linejoin="miter" stroke-linecap="round" stroke="#000000" fill="none" d="M237.5,165.1875h5"></path><path stroke-linejoin="round" stroke-linecap="round" stroke="#ffffff" fill="none" d="M230.5,186.6875c0,0 -8.5,-4 -6.03,-9.65c3.88,-5.85 13.03,-1.85 15.53,4.65v2.1v-2.1c2.5,-6.5 11.65,-10.5 15.53,-4.65c2.47,5.65 -6.03,9.65 -6.03,9.65"></path><path stroke-linejoin="round" stroke-linecap="round" stroke="#ffffff" fill="none" d="M230,187.1875c5.5,-3 14.5,-3 20,0M230,190.6875c5.5,-3 14.5,-3 20,0M230,194.1875c5.5,-3 14.5,-3 20,0"></path></g></g></svg>