<svg version="1.1" xmlns="http://www.w3.org/2000/svg" xmlns:xlink="http://www.w3.org/1999/xlink" width="36.81322" height="38.8772" viewBox="0,0,36.81322,38.8772"><g transform="translate(-221.5856,-160.57014)"><g stroke-miterlimit="10"><path d="M237.20322,178.3229c0.73237,0.1712 2.24517,0.52258 3.34531,0.7667c1.95933,0.43435 3.73797,0.85518 4.05502,0.95029c0.13633,0.03804 0.18095,0.07718 0.33313,0.27058c0.25047,0.32022 0.4412,0.64367 0.549,0.93535c0.0856,0.22193 0.09527,0.29674 0.09844,0.58842c0,0.3963 -0.05384,0.62157 -0.25041,1.04007c-0.45971,0.97333 -1.39667,1.82354 -2.68069,2.41324c-2.10517,0.96381 -4.46559,1.55248 -7.28411,1.77125c-0.84968,0.06658 -2.81135,0.07451 -3.62615,0.01744c-1.80398,-0.12999 -3.16494,-0.3515 -4.59797,-0.72244c-1.07795,-0.27583 -2.34007,-0.72798 -3.00586,-1.06404c-0.9765,-0.48825 -1.82113,-1.29461 -1.97965,-1.88113c-0.05707,-0.19974 -0.01594,-0.93922 0.06333,-1.23407c0.37728,-1.37914 1.50566,-2.42909 3.34134,-3.09171c1.32524,-0.47874 3.18838,-0.83215 5.50915,-1.02238c0.73871,-0.06024 1.94599,-0.08771 3.40122,-0.07185l1.38923,0.01552z" fill="#ffffff" stroke="none" stroke-width="0.5" stroke-linecap="butt"/><path d="M253.4958,180.94604c-0.15218,2.24784 -0.53479,4.18966 -1.13083,5.69562c-0.38362,0.97333 -1.03915,1.73727 -2.08856,2.42208c-0.33923,0.22193 -1.15722,0.65291 -1.63596,0.85899c-0.13633,0.06024 -0.24097,0.11146 -0.23463,0.1178c0.00634,0.00634 0.09654,-0.02605 0.29628,-0.07044c0.68481,-0.14267 1.42984,-0.47255 1.98784,-0.88153c0.09511,-0.06658 0.25226,-0.11693 0.26177,-0.10742c0.02536,0.02536 -0.0479,1.39867 -0.12082,2.26102c-0.11731,1.36646 -0.35457,2.73601 -0.56699,3.24962c-0.49142,1.18891 -1.4333,2.0394 -3.06925,2.75592c-1.60424,0.70066 -3.05673,1.10314 -4.73706,1.29654c-2.35246,0.27583 -4.21537,0.17932 -6.12714,-0.31526c-0.65311,-0.1712 -1.38613,-0.41791 -1.71269,-0.57644c-0.83699,-0.40898 -1.61203,-1.26045 -2.19222,-2.41449c-0.19974,-0.39947 -0.49787,-1.08201 -0.48201,-1.09786c0.00634,-0.00634 0.31378,0.00003 0.60864,0.0666c1.38231,0.32339 2.92678,0.5305 3.91278,0.54001c0.46605,0.00317 0.86668,-0.03022 0.86668,-0.07143c0,-0.01585 -0.16594,0.0149 -0.34348,-0.01997c-0.44069,-0.08877 -0.47892,-0.09469 -1.07814,-0.15176c-1.90543,-0.17754 -3.75657,-0.56415 -4.98353,-1.01753c-1.20476,-0.44703 -2.33701,-1.09778 -3.35789,-1.90941c-0.49775,-0.3963 -1.35758,-1.25506 -1.7412,-1.7338c-0.5897,-0.73871 -1.23603,-1.82029 -1.54991,-2.59071c-0.20608,-0.50093 -0.59199,-1.71297 -0.59199,-1.85247c0,-0.01585 0.17674,0.04823 0.30673,0.11798c0.69749,0.37728 2.17867,0.8879 3.51976,1.21129c2.66316,0.63726 6.05409,0.79608 9.00893,0.4505c3.09434,-0.35826 6.26108,-1.38211 7.70362,-2.52346c0.7831,-0.61824 1.31785,-1.41093 1.52393,-2.20672c0.06975,-0.27266 0.0803,-0.36042 0.06444,-0.63625l0.03472,-0.37844l0.27647,0.07669c0.62141,0.17437 1.43004,0.36501 1.76293,0.41574c0.44069,0.06658 0.88913,0.04622 1.35518,-0.06157c0.96064,-0.2251 2.86111,-0.91421 3.94856,-1.43732c0.30119,-0.14584 0.31715,-0.14883 0.32983,-0.08859c0.00634,0.03804 -0.00578,0.30848 -0.0248,0.6065z" fill="#ffffff" stroke="none" stroke-width="0.5" stroke-linecap="butt"/><path d="M256.80033,167.30933c-0.00951,0.10146 -0.0335,0.42604 -0.04935,0.72406c-0.18388,3.05947 -0.75536,6.46978 -1.72552,10.15699c-0.30119,1.13502 -0.3948,1.24483 -1.42202,1.7521c-1.15404,0.56751 -2.20108,0.98965 -3.32341,1.35424c-1.70886,0.558 -1.92228,0.55536 -3.84356,0.06712c-0.40581,-0.10463 -0.7477,-0.19527 -0.75087,-0.20161c-0.00317,-0.00634 -0.04176,-0.07335 -0.07981,-0.15261c-0.10463,-0.20291 -0.28797,-0.46838 -0.46234,-0.66178c-0.08243,-0.09194 -0.14655,-0.17192 -0.14021,-0.17509c0.00634,-0.00317 0.0699,-0.03472 0.13965,-0.0696c0.32973,-0.16487 0.74663,-0.75628 1.23487,-1.74546c0.9004,-1.82934 1.46296,-3.864 1.69441,-6.03892c0.05707,-0.52946 0.08586,-1.67996 0.04464,-2.22845c-0.03487,-0.46605 -0.16766,-1.53651 -0.20887,-1.67918c-0.02536,-0.07292 -0.08394,-0.08443 1.03839,0.15336c0.9226,0.19657 1.45991,0.24536 1.83402,0.17562c0.64994,-0.12048 4.70664,-1.20949 5.80995,-1.56141c0.23144,-0.07609 0.23222,-0.0723 0.21003,0.13061z" fill="#ffffff" stroke="none" stroke-width="0.5" stroke-linecap="butt"/><path d="M246.42109,162.71928c1.73106,0.24095 3.49408,0.49537 6.23651,0.95191c1.03673,0.17437 2.1724,0.37565 2.50212,0.42955c0.98284,0.15853 1.46039,0.31853 1.90743,0.61655c0.57068,0.38045 0.86565,0.91938 0.86882,1.56298l-0.00017,0.24229l-0.14908,0.05114c-0.0856,0.02536 -0.41575,0.13536 -0.73913,0.23682c-0.32339,0.10463 -0.93058,0.29707 -1.34908,0.41754c-1.13819,0.33606 -1.76546,0.52138 -4.08939,1.1301l-0.83468,0.21515l-0.48091,-0.00457c-0.45654,-0.00317 -0.51948,-0.01649 -1.39135,-0.20355c-1.17306,-0.2473 -1.08092,-0.22866 -1.10312,-0.32694c-0.07292,-0.32973 -0.23033,-0.86977 -0.37934,-1.29778c-0.09511,-0.279 -0.17234,-0.51204 -0.16917,-0.51521c0.00317,0 0.35856,0.03581 0.6978,0.10239c1.7913,0.34875 2.06069,0.32629 3.89637,-0.04148c1.16038,-0.23144 2.65926,-0.57681 3.55015,-0.85263c0.47557,-0.14901 1.14786,-0.39361 1.08128,-0.39678c-0.11731,-0.00317 -0.81312,0.16764 -2.09081,0.48786c-1.67399,0.4185 -2.55815,0.63125 -3.52831,0.79611c-0.65311,0.1078 -0.73973,0.09969 -1.17091,0.08384c-0.33923,-0.01585 -0.70411,-0.06949 -1.38259,-0.1868c-0.5041,-0.0856 -0.96762,-0.16526 -1.02786,-0.1716c-0.10463,-0.00951 -0.11126,-0.0231 -0.30149,-0.44159c-0.48508,-1.05892 -1.16682,-2.06361 -1.9309,-2.79915c-0.16804,-0.1617 -0.30403,-0.29877 -0.30403,-0.30511c0,-0.00634 0.50561,0.05411 1.68184,0.21897z" fill="#ffffff" stroke="none" stroke-width="0.5" stroke-linecap="butt"/><path d="M242.04133,161.41031c1.05575,0.23461 2.06126,0.80932 2.9363,1.68437c1.20159,1.20159 2.09062,2.87847 2.56935,4.87268c0.51678,2.13688 0.46615,4.40345 -0.14574,6.85102c-0.41216,1.6518 -1.15573,3.47515 -1.89761,4.66724c-0.1712,0.28217 -0.45587,0.57819 -0.54781,0.57819c-0.02536,0 -0.10186,-0.04105 -0.16526,-0.09177c-0.09828,-0.07926 -0.27341,-0.12546 -1.25942,-0.36007c-0.62775,-0.14901 -1.77297,-0.40756 -2.5307,-0.57559c-1.96884,-0.43435 -3.20473,-0.7182 -4.18757,-0.95281c-0.46922,-0.11097 -0.93892,-0.22427 -1.0372,-0.2433l-0.18129,-0.04165l-0.19808,-0.47995c-0.77676,-1.86738 -1.13772,-3.24732 -1.28039,-4.96886c-0.04756,-0.53263 -0.04527,-1.73367 -0.00089,-2.27899c0.12999,-1.55034 0.49059,-3.01999 1.05493,-4.30085c0.63092,-1.43938 1.75074,-2.79172 2.93648,-3.56214c0.61506,-0.3963 1.37516,-0.70251 2.05363,-0.82615c0.4724,-0.0856 1.44373,-0.06966 1.88125,0.02862z" fill="#ffffff" stroke="none" stroke-width="0.5" stroke-linecap="butt"/><path d="M244.09158,162.01813c0.20608,0.13633 0.32338,0.1934 0.42801,0.20608c2.12102,0.26315 4.41324,0.60873 8.60773,1.30305c2.69804,0.44386 2.82486,0.46606 3.21165,0.5897c0.55482,0.17754 0.91942,0.40264 1.27768,0.7831c0.38362,0.40581 0.56117,0.89406 0.52629,1.4584c-0.00951,0.18706 -0.03487,0.31705 -0.06024,0.33924c-0.02219,0.02219 -0.26315,0.11414 -0.53263,0.19974l-0.49142,0.16168l-0.00635,0.31071c-0.03804,1.58839 -0.3107,3.96622 -0.69432,6.06504c-0.31388,1.72471 -1.03356,4.83808 -1.27134,5.49753c-0.17437,0.48191 -0.47557,0.80212 -1.0082,1.06844l-0.32339,0.15852l-0.01902,0.71969c-0.0539,1.84836 -0.35192,3.56357 -0.92894,5.30097c-0.35826,1.07478 -0.63092,1.55985 -1.24281,2.19393l-0.32973,0.33924l-0.02853,0.6753c-0.04439,1.11599 -0.13316,2.22247 -0.23778,3.00557c-0.08877,0.68481 -0.29802,1.73422 -0.3963,2.01956c-0.40898,1.15404 -1.29671,2.09249 -2.63146,2.77413c-0.40581,0.20925 -1.35378,0.61507 -1.83885,0.78944c-1.69618,0.60555 -3.59527,0.92576 -5.75117,0.97015c-1.81666,0.03804 -3.39554,-0.19973 -5.10123,-0.76724c-0.558,-0.18706 -0.84967,-0.32022 -1.18891,-0.54532c-0.32022,-0.21242 -0.91943,-0.79895 -1.19209,-1.16672c-0.3963,-0.52946 -0.78943,-1.25866 -1.07477,-1.99738c-0.08243,-0.20925 -0.15853,-0.39947 -0.1712,-0.42483c-0.01268,-0.02219 -0.25997,-0.12365 -0.54531,-0.22193c-1.29037,-0.44703 -2.58073,-1.15721 -3.66185,-2.01957c-0.4502,-0.36143 -1.44889,-1.35694 -1.80398,-1.80398c-0.64043,-0.80212 -1.25866,-1.8547 -1.6296,-2.77413c-0.21876,-0.54531 -0.48191,-1.4045 -0.57702,-1.88007c-0.03487,-0.17437 -0.04438,-0.18705 -0.26315,-0.35192c-0.54531,-0.40898 -0.80846,-0.68481 -1.05575,-1.11916c-0.23144,-0.40581 -0.28534,-0.82432 -0.18388,-1.41084c0.12999,-0.75773 0.4185,-1.36963 0.93528,-1.97835c0.68164,-0.80529 1.88323,-1.47426 3.45577,-1.92763c1.03356,-0.29485 2.66317,-0.57068 4.24522,-0.71652c1.52815,-0.1395 3.57308,-0.15852 4.71761,-0.04121l0.19973,0.01902l-0.09828,-0.16803c-0.71652,-1.21427 -1.28085,-3.12288 -1.47425,-4.97758c-0.22827,-2.21613 0.09194,-4.62884 0.87504,-6.60402c0.06975,-0.16804 0.12365,-0.31388 0.12365,-0.32022c0,-0.00951 -0.08243,-0.0317 -0.18071,-0.05073c-0.51678,-0.10463 -0.64043,-0.3107 -0.47557,-0.79578c0.1712,-0.50727 0.52946,-0.89089 1.04941,-1.14136c0.17754,-0.08243 0.49775,-0.21241 0.71652,-0.28534l0.3963,-0.13316l0.38045,-0.37094c0.48825,-0.47874 0.74505,-0.69115 1.15721,-0.95747c0.79895,-0.51995 1.75325,-0.86553 2.59976,-0.94479c1.24915,-0.11097 2.45392,0.20925 3.56674,0.94796zM240.16341,161.41892c-0.67847,0.12365 -1.42987,0.42801 -2.04493,0.82432c-1.18574,0.77042 -2.28905,2.11151 -2.91997,3.55088c-0.56434,1.28086 -0.91625,2.72975 -1.04624,4.28009c-0.04439,0.54531 -0.04756,1.73422 0,2.26686c0.14267,1.72154 0.49142,3.08167 1.26817,4.94905l0.19656,0.47874l0.18072,0.04121c0.09828,0.01902 0.56434,0.12999 1.03356,0.24096c0.98284,0.23461 2.20028,0.51361 4.16912,0.94796c0.75773,0.16804 1.89275,0.42801 2.5205,0.57702c0.98601,0.23461 1.15721,0.28217 1.25549,0.36143c0.06341,0.05073 0.1395,0.09195 0.16486,0.09195c0.09194,0 0.37411,-0.29485 0.54531,-0.57702c0.74188,-1.19208 1.47109,-3.0024 1.88324,-4.65419c0.61189,-2.44758 0.65944,-4.67956 0.14267,-6.81644c-0.47874,-1.99421 -1.3506,-3.65235 -2.5522,-4.85394c-0.87504,-0.87504 -1.86738,-1.44572 -2.92314,-1.68033c-0.43752,-0.09828 -1.40134,-0.11414 -1.87373,-0.02853zM244.77322,162.51589c0,0.00634 0.13633,0.14267 0.30436,0.30436c0.76408,0.73554 1.44889,1.72472 1.93397,2.78364c0.19023,0.4185 0.19656,0.42801 0.30119,0.43752c0.06024,0.00634 0.52312,0.08243 1.02722,0.16804c0.67847,0.11731 1.0399,0.16168 1.37914,0.17754c0.43118,0.01585 0.5041,0.00951 1.15721,-0.09828c0.97016,-0.16487 1.79764,-0.34557 3.47163,-0.76407c1.27769,-0.32022 2.0481,-0.49459 2.16541,-0.49142c0.06658,0.00317 -0.60556,0.25047 -1.08112,0.39948c-0.89089,0.27583 -2.40636,0.65311 -3.56674,0.88455c-1.83568,0.36777 -2.16223,0.36777 -3.95353,0.01902c-0.33923,-0.06658 -0.62141,-0.11731 -0.62458,-0.11731c-0.00317,0.00317 0.07292,0.23144 0.16803,0.51044c0.14901,0.42801 0.30119,0.95747 0.37411,1.2872c0.02219,0.09828 -0.07609,0.07291 1.09697,0.32021c0.87187,0.18706 0.9226,0.1934 1.37914,0.19657l0.47557,0.00317l0.82431,-0.21559c2.32393,-0.60872 2.91997,-0.77042 4.05816,-1.10648c0.4185,-0.12048 1.02405,-0.30753 1.34743,-0.41216c0.32339,-0.10146 0.65311,-0.20925 0.73871,-0.23461l0.14901,-0.05073v-0.24095c-0.00317,-0.6436 -0.29802,-1.17306 -0.8687,-1.55351c-0.44703,-0.29802 -0.9226,-0.4502 -1.90543,-0.60873c-0.32973,-0.0539 -1.45206,-0.23778 -2.48879,-0.41216c-2.74243,-0.45654 -4.45129,-0.72286 -6.18235,-0.96381c-1.17623,-0.16487 -1.68033,-0.22827 -1.68033,-0.22193zM236.04818,163.73334c-0.06975,0.00317 -0.50409,0.17437 -0.73871,0.28851c-0.43118,0.21242 -0.83383,0.7292 -0.8909,1.14453c-0.01902,0.12999 -0.01268,0.15219 0.0539,0.1934c0.07609,0.04756 0.35826,0.11731 0.4724,0.11731c0.04121,0 0.11097,-0.10146 0.25364,-0.37094c0.21242,-0.40264 0.52629,-0.9004 0.75139,-1.18891c0.07609,-0.10146 0.12048,-0.18389 0.09828,-0.18389zM256.56724,167.20814c-1.10331,0.35192 -5.1361,1.44889 -5.78604,1.56936c-0.37411,0.06975 -0.9004,0.01902 -1.823,-0.17754c-1.12233,-0.23778 -1.05893,-0.22827 -1.03356,-0.15535c0.04121,0.14267 0.17754,1.21111 0.21242,1.67716c0.04121,0.54848 0.02219,1.68984 -0.03487,2.2193c-0.23144,2.17492 -0.79578,4.16279 -1.69618,5.99213c-0.48825,0.98918 -0.90674,1.57887 -1.23647,1.74374c-0.06975,0.03487 -0.13316,0.06658 -0.1395,0.06975c-0.00634,0.00317 0.05707,0.08243 0.1395,0.17437c0.17437,0.1934 0.35508,0.45654 0.45971,0.65945c0.03804,0.07926 0.07609,0.14584 0.07926,0.15218c0.00317,0.00634 0.34241,0.09511 0.74822,0.19974c1.92128,0.48825 2.11785,0.48508 3.82672,-0.07292c1.12233,-0.3646 2.14956,-0.7831 3.30359,-1.35061c1.02722,-0.50727 1.10966,-0.60872 1.41085,-1.74373c0.97016,-3.68721 1.544,-7.04471 1.72789,-10.10418c0.01585,-0.29802 0.04121,-0.6214 0.05072,-0.72286c0.02219,-0.20291 0.02219,-0.20608 -0.20925,-0.12999zM235.84844,178.03834l-1.37914,-0.01268c-1.45523,-0.01585 -2.6378,0.00634 -3.37651,0.06658c-2.32076,0.19023 -4.16912,0.52629 -5.49436,1.00502c-1.83568,0.66262 -2.96119,1.69936 -3.33846,3.0785c-0.07926,0.29485 -0.12048,1.03039 -0.06341,1.23013c0.15853,0.58653 1.00185,1.38548 1.97835,1.87372c0.66579,0.33606 1.92445,0.77993 3.0024,1.05575c1.43304,0.37094 2.7773,0.57702 4.58128,0.70701c0.8148,0.05707 2.74877,0.04755 3.59845,-0.01902c2.81852,-0.21876 5.15512,-0.7831 7.2603,-1.74691c1.28403,-0.5897 2.21931,-1.42986 2.67902,-2.40319c0.19657,-0.4185 0.25046,-0.64043 0.25046,-1.03673c-0.00317,-0.29168 -0.01268,-0.3646 -0.09828,-0.58653c-0.1078,-0.29168 -0.29802,-0.61189 -0.54848,-0.93211c-0.15218,-0.1934 -0.19656,-0.23144 -0.33289,-0.26949c-0.31705,-0.09511 -2.09249,-0.50728 -4.05182,-0.94162c-1.10014,-0.24412 -2.60292,-0.58336 -3.33529,-0.75456zM253.48874,180.3591c-0.01268,-0.06024 -0.02853,-0.05707 -0.32973,0.08877c-1.08746,0.52312 -2.98655,1.21428 -3.94719,1.43938c-0.46605,0.1078 -0.91309,0.12999 -1.35377,0.06341c-0.33289,-0.05073 -1.13819,-0.23778 -1.75959,-0.41216l-0.27583,-0.07609l0.01585,0.32338c0.01585,0.27583 0.00633,0.3646 -0.06341,0.63726c-0.20608,0.79578 -0.79578,1.63912 -1.57888,2.25735c-1.44255,1.14136 -4.55591,2.16858 -7.65025,2.52684c-2.95485,0.34558 -6.33453,0.16803 -8.99769,-0.46923c-1.34109,-0.32339 -2.89461,-0.85285 -3.5921,-1.23013c-0.12999,-0.06975 -0.23461,-0.11414 -0.23461,-0.09828c0,0.1395 0.38679,1.34743 0.59287,1.84836c0.31388,0.77042 0.96064,1.84519 1.55034,2.58391c0.38362,0.47874 1.24281,1.33159 1.74057,1.72789c1.02088,0.81163 2.14956,1.45206 3.35432,1.89909c1.22696,0.45337 3.06264,0.82431 4.96807,1.00185c0.59921,0.05707 0.63092,0.06024 1.07161,0.14902c0.17754,0.03487 0.32339,0.07609 0.32339,0.09194c0,0.04121 -0.40582,0.07292 -0.87187,0.06975c-0.98601,-0.00951 -2.54586,-0.22827 -3.92817,-0.55166c-0.29485,-0.06658 -0.54214,-0.1173 -0.54848,-0.11096c-0.01585,0.01585 0.279,0.69432 0.47874,1.0938c0.58019,1.15404 1.34426,1.99738 2.18126,2.40636c0.32656,0.15853 1.05258,0.40264 1.70569,0.57385c1.91177,0.49458 3.75062,0.59287 6.10309,0.31705c1.68033,-0.1934 3.11971,-0.58653 4.72395,-1.2872c1.63595,-0.71652 2.57122,-1.55668 3.06264,-2.7456c0.21242,-0.51361 0.44703,-1.87373 0.56434,-3.24019c0.07292,-0.86236 0.14584,-2.22881 0.12048,-2.25418c-0.00951,-0.00951 -0.09194,0.03804 -0.18705,0.10462c-0.558,0.40898 -1.30305,0.74188 -1.98786,0.88455c-0.19974,0.04439 -0.3646,0.07292 -0.37094,0.06658c-0.00634,-0.00634 0.09828,-0.05707 0.23461,-0.11731c0.47874,-0.20608 1.29671,-0.63409 1.63594,-0.85602c1.04941,-0.68481 1.70569,-1.44254 2.08932,-2.41587c0.59604,-1.50596 0.98284,-3.43675 1.13502,-5.68459c0.01902,-0.29802 0.0317,-0.56751 0.02536,-0.60556z" fill="#ffffff" stroke="#000000" stroke-width="1" stroke-linecap="butt"/><path d="M250.2771,170.05519l0.02219,0.42167l0.30754,0.05073c0.46605,0.07926 0.69749,0.16169 0.86236,0.30753c0.17754,0.15218 0.22827,0.27266 0.20608,0.46289c-0.02219,0.22193 -0.15852,0.38679 -0.41533,0.51995c-0.20608,0.10463 -0.23144,0.1078 -0.62141,0.12048l-0.40582,0.01268l-0.01902,0.18072c-0.18071,1.68984 -0.3107,2.61878 -0.54531,3.83939c-0.31705,1.66131 -0.75456,3.37968 -1.1255,4.4069c-0.14584,0.41216 -0.37411,0.96065 -0.37728,0.90992c0,-0.04121 0.21242,-0.87187 0.46606,-1.81349c0.63726,-2.37148 0.98601,-4.11839 1.24281,-6.1982c0.0539,-0.42801 0.10463,-0.91308 0.11731,-1.08112l0.02219,-0.30437l-0.12365,-0.01902c-0.11097,-0.01902 -0.13316,-0.00951 -0.25047,0.10145c-0.17437,0.16804 -0.30119,0.2251 -0.50092,0.2251c-0.33289,0 -0.61823,-0.21876 -0.80529,-0.62141c-0.12365,-0.26632 -0.14268,-0.71335 -0.04122,-1.02088c0.2251,-0.71018 0.92577,-0.96381 1.39499,-0.50727c0.07292,0.06975 0.1617,0.19022 0.1934,0.26632c0.05707,0.12365 0.07292,0.1395 0.16803,0.1395h0.1078l0.02219,-0.48508c0.02853,-0.57385 0.06658,-0.54214 0.09829,0.0856z" fill="#ffffff" stroke="#000000" stroke-width="1" stroke-linecap="butt"/><path d="M236.24475,180.6159c1.16038,0.08877 2.14322,0.23461 3.2275,0.47874c0.66896,0.14901 0.94479,0.25364 1.12551,0.43752c0.21559,0.21559 0.18071,0.47874 -0.09194,0.65311c-0.4185,0.26315 -1.59473,0.6214 -2.91363,0.88455c-0.73871,0.14584 -1.45206,0.22827 -2.78998,0.32656c-0.77042,0.0539 -3.24019,0.0539 -3.85208,0c-1.32841,-0.12365 -2.42221,-0.33289 -3.646,-0.70066c-0.48508,-0.14584 -0.64994,-0.22827 -0.7292,-0.36143c-0.21559,-0.35192 0.14267,-0.68798 0.97015,-0.92259c1.52181,-0.42484 3.66503,-0.75456 5.6085,-0.85602c0.49142,-0.02536 2.48245,0.01268 3.09117,0.06024zM232.70972,180.85369c-1.44255,0.0856 -2.96436,0.30753 -4.30863,0.62141c-1.01771,0.23778 -1.42352,0.38679 -1.56936,0.57068c-0.12999,0.16487 -0.04122,0.21559 0.75773,0.45337c1.68984,0.49775 3.08801,0.68164 5.21537,0.68164c1.36646,0 2.39685,-0.06023 3.79184,-0.21876c1.43938,-0.16487 3.82037,-0.85285 3.85841,-1.116c0.02536,-0.17437 -0.27583,-0.32021 -0.99235,-0.47874c-1.4806,-0.33289 -2.64414,-0.47557 -4.3752,-0.54531c-0.96698,-0.03804 -1.27451,-0.03487 -2.37782,0.0317z" fill="#ffffff" stroke="#000000" stroke-width="1" stroke-linecap="butt"/><path d="M247.55369,184.68992c-0.04756,1.74057 -0.74822,3.70623 -1.78812,5.01879c-0.98918,1.24915 -2.31125,2.12102 -3.4209,2.25418c-0.13316,0.01585 -0.14584,0.01585 -0.07609,-0.01585c0.6753,-0.31705 1.29354,-0.64043 1.60107,-0.84333c1.26183,-0.83066 2.18126,-1.97835 2.78364,-3.46529c0.30119,-0.73871 0.48508,-1.46157 0.71969,-2.80583c0.07292,-0.4185 0.1395,-0.7831 0.14901,-0.80847c0.04121,-0.10146 0.04756,0.08878 0.0317,0.6658z" fill="#ffffff" stroke="#000000" stroke-width="1" stroke-linecap="butt"/><path d="M237.78558,195.5328c0.07926,0.06975 0.18705,0.27266 0.39313,0.75456c0.23461,0.55165 0.35509,0.79261 0.61507,1.23647c0.33289,0.57068 0.35509,0.70384 0.06975,0.42167c-0.10146,-0.10146 -0.24729,-0.30436 -0.3646,-0.50727c-0.36143,-0.63092 -0.76408,-1.60424 -0.76408,-1.84202c0,-0.08877 0.00634,-0.09828 0.05073,-0.06341z" fill="#ffffff" stroke="#000000" stroke-width="1" stroke-linecap="butt"/><path d="M241.88263,163.90987c0,0 3.27651,1.77534 3.56888,6.23553c0.28701,4.37855 -1.37953,8.03696 -1.37953,8.03696" fill="none" stroke="#000000" stroke-width="1.5" stroke-linecap="round"/></g></g></svg>