<svg version="1.1" xmlns="http://www.w3.org/2000/svg" xmlns:xlink="http://www.w3.org/1999/xlink" width="29.77262" height="41.88535" viewBox="0,0,29.77262,41.88535"><g transform="translate(-225.11369,-159.10108)"><g stroke="#000000" stroke-width="1.5" stroke-miterlimit="10"><g fill-rule="evenodd" stroke-linecap="round" stroke-linejoin="round"><path d="M240.64561,177.83154c8.11211,0.77258 12.74762,6.18065 12.36132,22.40489h-19.84752c0,-6.95324 5.88749,-1.98452 4.34234,-13.18697" fill="#ffffff"/><path d="M242.90632,186.77833c0.27865,2.13381 -2.79742,2.12088 -4.59393,3.31611c-1.27632,0.85088 -2.44647,2.78092 -3.2271,3.11643c-0.56482,0.24275 -1.17698,-0.16865 -1.84804,-0.27331c-0.76407,-0.68928 0.99844,-2.26464 -0.03547,-2.2353c-0.73328,0 0.13932,0.90192 -0.73328,1.46653c-2.06905,0 -2.31359,-1.31743 -3.44816,-2.79307c-0.53313,-0.6934 -1.81833,-1.1852 -2.33871,-2.01535c-0.84452,-1.34723 -0.81794,-2.94267 -0.81794,-2.94267c0,0 1.58286,1.12524 2.5466,1.35588c0.75533,0.18076 2.02099,0.13377 2.02099,0.13377l0.58501,-1.07285c0,0 -1.37704,-1.79388 -1.20529,-2.22885c0.16653,-0.42181 2.10276,0.16798 2.10276,0.16798c0,0 1.05926,-2.01195 1.87578,-3.3726c0.26048,-0.43408 1.50622,-0.66544 1.53751,-1.1209c-0.1948,-0.26523 -1.29492,-0.8653 -1.52803,-1.23609c-0.40747,-0.64813 0.9571,-1.5288 0.9571,-1.5288l2.0449,2.05007l2.9228,-0.06197c0,0 1.13851,-0.68629 1.95233,-1.30947c0.6302,-0.48255 0.87965,-0.87763 1.43007,-1.20021c0.36634,0 1.31749,1.30776 0.81327,2.08945c-0.50506,0.78298 -2.12496,0.792 -2.12496,0.792" fill="#ffffff"/><path d="M231.93004,188.74269c0,0.20249 -0.16416,0.36664 -0.36664,0.36664c-0.20249,0 -0.36664,-0.16416 -0.36664,-0.36664c0,-0.20249 0.16416,-0.36664 0.36664,-0.36664c0.20249,0 0.36664,0.16416 0.36664,0.36664z" fill="#000000"/><path d="M236.53245,182.36528c-0.30373,0.52608 -0.69211,0.87048 -0.86746,0.76924c-0.17536,-0.10125 -0.07131,-0.60978 0.23244,-1.13587c0.30373,-0.52608 0.69211,-0.87047 0.86746,-0.76924c0.17536,0.10125 0.0713,0.60978 -0.23244,1.13587z" fill="#000000"/></g><path d="M240.80986,160.76102c0.1691,0.95971 0.46367,1.79859 0.81279,2.31044c0.13637,0.19905 0.51277,0.63981 0.84552,0.98104l0.60004,0.62559l-0.37639,0.65403c-0.40366,0.69668 -0.98189,2.13982 -1.08007,2.69432c-0.14182,0.7891 -0.02182,1.81991 0.30002,2.62324c0.32184,0.80332 0.76369,1.20852 1.37465,1.2583c0.30003,0.02844 0.3873,0.00711 0.69278,-0.19195c1.40192,-0.90284 1.69104,-3.8602 0.61096,-6.20618l-0.18547,-0.39099l0.36002,-0.08531c1.22191,-0.29147 2.06743,-1.56398 2.90203,-4.34361l0.19638,-0.66825l0.03273,1.62797c0.03273,1.76304 0.08728,2.23223 0.34367,2.90048c0.15819,0.40522 0.61095,1.1801 0.81279,1.38626l0.13091,0.13507l-0.4964,0.52607c-0.60005,0.63981 -1.08007,1.36493 -1.31464,1.98341c-0.1691,0.44787 -0.17456,0.48342 -0.19092,1.56399c-0.01091,0.67536 0.00545,1.25119 0.04364,1.4858c0.12546,0.74645 0.63823,1.19431 1.29828,1.13032c0.42548,-0.04265 0.68732,-0.22037 1.07462,-0.73223c0.36548,-0.48342 0.63278,-1.10901 0.76915,-1.8128c0.16365,-0.85308 0.0109,-2.14692 -0.33821,-2.80806c-0.12001,-0.23459 -0.12001,-0.25593 -0.03273,-0.29858c1.11826,-0.51185 1.78922,-0.95971 2.33472,-1.57109c1.18676,-1.15034 1.79467,-1.99052 1.80558,-1.97631c0.01091,0.00711 -1.0037,2.55924 -2.25289,5.66589c-1.18049,2.93581 -2.1856,5.43989 -2.32941,5.79642c0.36643,0.16034 1.08103,0.72049 1.0431,1.19319c-0.04872,0.60729 -0.96273,0.98976 -0.96273,0.98976l-1.49423,2.76426h-15.06838l-1.6555,-2.5822c0,0 -0.88136,-0.58055 -0.95026,-1.14684c-0.06414,-0.52715 0.66761,-1.03565 1.07448,-1.21682c0.02438,-0.01098 0.04891,-0.02192 0.07358,-0.0328c-0.14673,-0.29475 -0.43242,-0.99938 -1.05402,-2.55171c-1.71831,-4.28674 -2.83656,-7.06637 -3.23478,-8.05453l-0.35458,-0.88152c0,0 0.81908,0.86337 1.32554,1.44313c1.0528,1.18721 1.33645,1.4218 2.35108,1.91944c0.28912,0.14218 0.52913,0.27014 0.53459,0.29147c0.00545,0.02133 -0.07637,0.27725 -0.18002,0.57583c-0.40366,1.08768 -0.39276,2.24646 0.02727,3.33413c0.27821,0.72512 0.62187,1.21565 1.04189,1.48579c0.6655,0.44076 1.42374,0.20616 1.74558,-0.52607c0.12001,-0.27014 0.12546,-0.35545 0.12546,-1.67062v-1.38626l-0.15819,-0.41232c-0.27275,-0.7038 -0.94916,-1.64218 -1.64194,-2.30333l-0.16364,-0.14929l0.27821,-0.38388c0.81824,-1.12323 1.0037,-1.91944 1.01461,-4.38627c0.00545,-0.7109 0.01091,-1.27963 0.02182,-1.27252c0.00545,0.01421 0.11455,0.34834 0.23456,0.75356c0.81824,2.66588 1.66377,3.90997 2.86384,4.20854l0.34912,0.08531l-0.16365,0.36257c-0.37639,0.83175 -0.63278,1.89811 -0.67641,2.82228c-0.09273,1.84124 0.71459,3.48342 1.77831,3.60428c1.05825,0.12796 1.90923,-1.28674 1.90923,-3.17773c0,-0.92417 -0.34912,-1.96919 -1.11826,-3.37678c-0.19638,-0.35544 -0.34912,-0.66114 -0.33821,-0.68246c0.00545,-0.02133 0.26184,-0.30569 0.56732,-0.62559c0.30548,-0.31991 0.67097,-0.74645 0.80733,-0.95261c0.44185,-0.65403 0.70915,-1.50711 0.97643,-3.12798c0.03818,-0.19905 0.13092,-0.26303 0.16365,-0.10663z" fill="#ffffff" fill-rule="nonzero" stroke-linecap="butt" stroke-linejoin="round"/><path d="M231.607,175.04083c0,0 2.82714,-1.68182 8.75682,-1.79394c6.01475,-0.11373 8.97831,1.79394 8.97831,1.79394" fill="none" fill-rule="nonzero" stroke-linecap="round" stroke-linejoin="miter"/><path d="M239.10211,175.54433l1.50621,-4.8841l1.50621,4.8841l4.8841,1.50621l-4.8841,1.50621l-1.50621,4.8841l-1.50621,-4.8841l-4.88411,-1.50621z" fill="#ffffff" fill-rule="nonzero" stroke-linecap="butt" stroke-linejoin="round"/></g></g></svg>