<svg version="1.1" xmlns="http://www.w3.org/2000/svg" xmlns:xlink="http://www.w3.org/1999/xlink" width="32.91078" height="34.74444" viewBox="0,0,32.91078,34.74444"><g transform="translate(-223.54461,-162.62778)"><g data-paper-data="{&quot;isPaintingLayer&quot;:true}" stroke-dasharray="" stroke-dashoffset="0" style="mix-blend-mode: normal"><path d="" data-paper-data="{&quot;index&quot;:null}" fill="#ffffff" fill-rule="nonzero" stroke="#000000" stroke-width="1.5" stroke-linecap="round" stroke-linejoin="miter" stroke-miterlimit="4"/><path d="" fill="none" fill-rule="nonzero" stroke="#000000" stroke-width="0.75" stroke-linecap="round" stroke-linejoin="miter" stroke-miterlimit="10"/><path d="" fill="none" fill-rule="nonzero" stroke="#000000" stroke-width="0.75" stroke-linecap="round" stroke-linejoin="miter" stroke-miterlimit="10"/><path d="" fill="#ffffff" fill-rule="evenodd" stroke="#000000" stroke-width="1.5" stroke-linecap="butt" stroke-linejoin="round" stroke-miterlimit="4"/><path d="" fill="none" fill-rule="nonzero" stroke="#000000" stroke-width="0.75" stroke-linecap="round" stroke-linejoin="miter" stroke-miterlimit="10"/><g fill="#ffffff" fill-rule="nonzero" stroke-linecap="butt" stroke-linejoin="miter" stroke-miterlimit="10"><path d="M228.66683,194.22683c0,0 6.00168,-7.43896 11.21655,-7.43896c5.21487,0 11.50714,7.43896 11.50714,7.43896c0,0 -0.0747,2.40265 -11.56526,2.39538c-10.77438,-0.00682 -11.15843,-2.39538 -11.15843,-2.39538z" stroke="#000000" stroke-width="1.5"/><path d="M236.25936,186.74071v-5.66667h7.58333v5.66667z" stroke="#000000" stroke-width="1.5"/><g><path d="M224.29461,168.22273c0,-1.7151 1.30528,-6.49376 3.22727,-4.26252c1.06241,1.23335 -0.68095,7.36547 1.32652,8.76485c0.54515,0.38002 -0.50508,-8.62354 2.76465,-8.40081c1.95565,0.13322 0.18559,8.58155 1.27838,9.42393c1.32394,1.02056 1.18691,-6.6841 3.34964,-6.60785c2.14027,0.07546 -0.22313,5.09856 0.3106,8.45951c0.39255,2.47195 3.26091,4.17618 3.26091,4.17618c0,0 1.00602,1.1197 0,2.64657c-8.57034,0 -15.51797,-6.35749 -15.51797,-14.19986z" stroke="#000000" stroke-width="1.5"/><path d="M240.18743,182.42258c-1.00602,-1.52687 0,-2.64657 0,-2.64657c0,0 2.86836,-1.70423 3.26091,-4.17618c0.53372,-3.36095 -1.82967,-8.38405 0.31059,-8.45951c2.16273,-0.07625 2.02571,7.6284 3.34964,6.60785c1.09279,-0.84237 -0.67727,-9.29071 1.27838,-9.42393c3.26974,-0.22273 2.21951,8.78083 2.76465,8.40081c2.00747,-1.39938 0.26411,-7.5315 1.32652,-8.76485c1.92199,-2.23124 3.22727,2.54742 3.22727,4.26252c0,7.84236 -6.94763,14.19986 -15.51797,14.19986z" data-paper-data="{&quot;index&quot;:null}" stroke="#000000" stroke-width="1.5"/><path d="M238.97433,181.68297v-1.42535h2.02096v1.42535z" stroke="none" stroke-width="0"/></g><path d="M230.89132,188.71715v-2.75h18.08333v2.75z" stroke="#000000" stroke-width="1.5"/></g></g></g></svg>