<svg version="1.1" xmlns="http://www.w3.org/2000/svg" xmlns:xlink="http://www.w3.org/1999/xlink" width="295.72112" height="303.27732" viewBox="0,0,295.72112,303.27732"><g transform="translate(-102.13945,-98.36135)"><g stroke-miterlimit="10"><path d="M250.59545,98.36136c0.16177,0 1.22483,2.65607 2.42655,5.97616c0.6933,1.94462 1.36349,3.5098 1.47904,3.5098c0.11555,0 2.05679,-1.06717 4.29846,-2.37149c2.26478,-1.30432 4.20601,-2.37149 4.34468,-2.37149c0.16177,0 0.16177,0.21344 0.02311,0.6403c-0.36976,1.18575 -1.6177,4.88527 -2.33411,6.90104c-0.36976,1.09088 -0.60086,2.08691 -0.50842,2.18177c0.16177,0.16601 3.6976,0.90117 8.82801,1.82605c0.41598,0.07114 0.71641,0.26086 0.67019,0.40315c-0.04622,0.14229 -1.89502,1.35175 -4.11358,2.7035c-2.21856,1.32803 -4.04425,2.51378 -4.09047,2.60864c-0.02311,0.09486 1.34038,1.94462 3.05051,4.07897c3.6976,4.64812 3.85937,4.41097 -2.28789,3.3438c-2.24167,-0.40315 -4.22913,-0.73516 -4.41401,-0.73516c-0.25421,0 -0.32354,0.99603 -0.36976,5.35957l-0.06933,5.35957l-3.0043,-3.62838c-1.64081,-1.99205 -3.16607,-3.84181 -3.37406,-4.07896c-0.32354,-0.45058 -0.50842,-0.26086 -3.6976,3.53352l-3.32784,3.9841l-0.16177,-1.04346c-0.06933,-0.59287 -0.16177,-2.96437 -0.16177,-5.28843l-0.02311,-4.19754l-0.50842,0.11858c-0.30043,0.04743 -2.19545,0.37944 -4.22913,0.71145c-2.03368,0.33201 -4.04425,0.6403 -4.43712,0.71145c-0.41598,0.07114 -0.76263,0.07114 -0.76263,0c0,-0.16601 2.51899,-3.46238 4.66822,-6.11845c1.10928,-1.37546 1.47904,-1.96834 1.27105,-2.11063c-0.13866,-0.09486 -2.0799,-1.28061 -4.25223,-2.60864c-2.19545,-1.32803 -3.99802,-2.5375 -3.99802,-2.67978c0,-0.11857 2.12612,-0.6403 4.76065,-1.1146c2.63454,-0.49802 4.82999,-0.92489 4.87621,-0.99603c0.04622,-0.04743 -0.62397,-2.2292 -1.52526,-4.83784c-0.90129,-2.60864 -1.64081,-4.81413 -1.64081,-4.88527c0,-0.21344 1.54837,0.56916 5.31529,2.75093c1.96435,1.13832 3.60516,2.03948 3.62827,1.99205c0.04622,-0.02371 0.73952,-1.92091 1.57148,-4.19754c0.83196,-2.27663 1.64081,-4.41097 1.77947,-4.79041c0.13866,-0.35572 0.27732,-0.6403 0.30043,-0.6403zM250.68789,106.09243c-0.04622,-0.07114 -0.55464,1.18575 -1.10928,2.77465c-0.55464,1.5889 -1.08617,2.96436 -1.1555,3.05922c-0.13866,0.16601 -1.24794,-0.45058 -4.46023,-2.44263c-0.62397,-0.35572 -1.10928,-0.59287 -1.10928,-0.49802c0,0.09486 0.43909,1.47033 0.97062,3.05923c0.55464,1.5889 0.9244,2.94065 0.85507,3.03551c-0.09244,0.07114 -1.34038,0.35572 -2.7732,0.61659c-1.45593,0.26086 -2.79631,0.54544 -2.98119,0.59287c-0.20799,0.07114 0.67019,0.73516 2.14923,1.61261c1.3866,0.83002 2.61143,1.61261 2.72698,1.73119c0.25421,0.26086 -0.02311,0.6403 -2.42655,3.46238c-0.73952,0.87745 -1.31727,1.63633 -1.27105,1.70747c0.06933,0.04743 1.50215,-0.14229 3.16607,-0.45058l3.05051,-0.54544l0.11555,0.49802c0.06933,0.28458 0.13866,1.73119 0.18488,3.27266l0.04622,2.75093l1.94124,-2.34778c1.06306,-1.30432 2.03368,-2.32406 2.19545,-2.27663c0.13866,0.04743 1.06306,1.04346 2.0799,2.20549c0.99373,1.16203 1.89502,2.13434 2.01057,2.18177c0.11555,0.04743 0.20799,-1.35175 0.20799,-3.13037c0,-1.77862 0.09244,-3.22523 0.20799,-3.22523c0.11555,0 1.22483,0.21343 2.47277,0.45058c3.0043,0.59287 3.55893,0.68773 3.55893,0.59287c0,-0.04743 -0.87818,-1.20946 -1.96435,-2.56121l-1.96435,-2.49007l0.97062,-0.68773c0.55464,-0.37944 1.77947,-1.13831 2.72698,-1.73119l1.73325,-1.01974l-3.0043,-0.59287c-1.64081,-0.30829 -3.02741,-0.59287 -3.07363,-0.6403c-0.11555,-0.07114 1.06306,-4.07897 1.47904,-5.02756c0.18488,-0.42687 0.32354,-0.87745 0.32354,-0.99603c0,-0.11857 -1.20172,0.4743 -2.65765,1.32803c-1.45593,0.83002 -2.75009,1.51776 -2.86563,1.51776c-0.11555,0 -0.25421,-0.18972 -0.32354,-0.42687c-0.06933,-0.21344 -0.53153,-1.49404 -1.01684,-2.84579c-0.50842,-1.32803 -0.97062,-2.46635 -1.01684,-2.51378z" fill="#000000" stroke="none" stroke-width="1"/><path d="M312.04489,114.25035l1.29416,1.30432c1.10928,1.1146 1.50215,1.37547 2.7732,1.68376c1.66392,0.42687 4.04425,1.47033 5.06109,2.20549c0.55464,0.40315 1.01684,0.49801 2.5421,0.49801h1.87191v1.87348c0,1.70747 0.06933,1.96834 0.80885,3.24894c0.90129,1.54147 1.64081,3.41495 1.98746,5.07499c0.18488,0.87745 0.50842,1.37546 1.47904,2.37149l1.27105,1.28061l-1.24794,1.32803c-1.06306,1.09088 -1.31727,1.54147 -1.64081,2.79836c-0.43909,1.7549 -1.17861,3.55724 -2.03368,4.98013c-0.53153,0.83002 -0.62397,1.25689 -0.62397,2.77465v1.77862h-1.59459c-1.45593,0 -1.75636,0.09486 -3.97492,1.28061c-1.31727,0.68773 -3.02741,1.39917 -3.79004,1.56518c-1.17861,0.26086 -1.57148,0.49802 -2.70387,1.63633l-1.34038,1.30432l-1.34038,-1.35175c-0.73952,-0.73516 -1.52526,-1.35175 -1.75636,-1.35175c-0.83196,0 -3.99802,-1.23318 -5.50017,-2.15806c-1.40971,-0.83002 -1.68703,-0.92488 -3.16607,-0.92488h-1.64081v-1.73119c0,-1.51776 -0.09244,-1.84976 -0.78574,-3.03551c-0.9244,-1.56518 -1.89502,-4.00782 -2.10301,-5.31214c-0.13866,-0.71145 -0.48531,-1.28061 -1.45593,-2.32406l-1.29416,-1.35175l1.27105,-1.37546c1.10928,-1.18575 1.34038,-1.5889 1.80258,-3.24895c0.27732,-1.04346 0.97062,-2.72721 1.52526,-3.72324c0.97062,-1.73119 1.03995,-1.94462 1.03995,-3.62838v-1.77862h1.68703c1.54837,0 1.82569,-0.09486 3.90558,-1.16203c1.22483,-0.66402 2.86564,-1.32803 3.62827,-1.47032c1.22483,-0.26086 1.54837,-0.4743 2.72698,-1.68376zM312.16042,118.99334c-0.04622,0 -0.36976,0.26086 -0.67019,0.59287c-0.36976,0.37944 -1.20172,0.73516 -2.35722,1.04346c-1.89502,0.49802 -3.32784,1.16203 -4.50645,2.0632c-0.53153,0.40315 -1.03995,0.56915 -1.77947,0.56915h-1.06306v1.04346c0,0.78259 -0.18488,1.35175 -0.67019,2.08691c-0.78574,1.20946 -1.54837,3.05923 -1.89502,4.64813c-0.13866,0.68773 -0.50842,1.39918 -0.97062,1.87347l-0.71641,0.78259l0.71641,0.75888c0.53153,0.56916 0.83196,1.23318 1.08617,2.39521c0.36976,1.56518 1.17861,3.48609 2.01057,4.71926c0.27732,0.37944 0.43909,1.01974 0.43909,1.70748v1.09088h1.06306c0.6933,0 1.29416,0.166 1.71014,0.4743c1.10928,0.80631 3.48961,1.87348 4.82999,2.15806c0.90129,0.16601 1.52526,0.4743 2.05679,0.99603l0.73952,0.73517l0.76263,-0.73517c0.50842,-0.49802 1.22483,-0.83002 2.33411,-1.1146c1.64081,-0.40315 2.98119,-1.01974 4.18291,-1.89719c0.39287,-0.26086 1.20172,-0.54544 1.8488,-0.61659l1.1555,-0.11857l0.11555,-1.18575c0.06933,-0.68773 0.36976,-1.56518 0.71641,-2.13434c0.80885,-1.32803 1.54837,-3.17779 1.73325,-4.41097c0.09244,-0.73516 0.39287,-1.30432 0.9244,-1.87348l0.78574,-0.85374l-0.80885,-0.8063c-0.43909,-0.45058 -0.80885,-1.04346 -0.80885,-1.32804c0,-0.97231 -0.90129,-3.53352 -1.71014,-4.83784c-0.64708,-1.01974 -0.83196,-1.56518 -0.83196,-2.44263v-1.1146h-1.06306c-0.78574,0 -1.29416,-0.166 -2.05679,-0.71145c-1.31727,-0.92488 -2.70387,-1.54147 -4.41401,-1.89719c-0.90129,-0.21344 -1.59459,-0.54544 -2.05679,-0.99603c-0.39287,-0.35572 -0.76263,-0.66402 -0.83196,-0.66402z" fill="#000000" stroke="none" stroke-width="1"/><path d="M310.86627,121.62569l0.62397,-0.02371v3.50981v3.50981l-1.20172,0.52173l-1.22483,0.52173l-2.40343,-2.46635c-2.35722,-2.41892 -2.40344,-2.51379 -2.01057,-2.94065c0.57775,-0.68773 2.88875,-1.87348 4.32157,-2.27663c0.6933,-0.18972 1.52526,-0.35572 1.89502,-0.35572z" fill="#000000" stroke="none" stroke-width="1"/><path d="M313.40837,121.60198c1.52526,0.02371 4.64511,1.28061 6.00859,2.44264l0.64708,0.54544l-2.49588,2.51378l-2.47277,2.51378l-0.6933,-0.30829c-0.39287,-0.18972 -0.90129,-0.37944 -1.10928,-0.45058c-0.36976,-0.11857 -0.41598,-0.49802 -0.41598,-3.69953c0,-3.53352 0,-3.55724 0.53153,-3.55724z" fill="#000000" stroke="none" stroke-width="1"/><path d="M303.21687,125.56236l2.42655,2.49006l2.42655,2.49007l-0.41598,1.23318l-0.43909,1.20946h-3.53583h-3.53583l0.13866,-0.90117c0.36976,-2.15806 1.01684,-3.8181 2.19545,-5.47814z" fill="#000000" stroke="none" stroke-width="1"/><path d="M321.15021,125.63352c0.02311,0 0.4622,0.66401 0.97062,1.47032c0.97062,1.51776 1.8488,4.00782 1.8488,5.19357v0.68774h-3.42028h-3.42028l-0.48531,-1.13832l-0.4622,-1.1146l2.44966,-2.56121c1.34038,-1.39918 2.47277,-2.5375 2.51899,-2.5375z" fill="#000000" stroke="none" stroke-width="1"/><path d="M315.58071,133.48315c0.27732,2.79836 -2.84253,4.7667 -5.19974,3.29637c-2.58832,-1.61261 -2.0799,-5.47814 0.85507,-6.42674c1.94124,-0.61659 4.11357,0.9486 4.34468,3.13037z" fill="#000000" stroke="none" stroke-width="1"/><path d="M303.77151,134.40801h3.32784l0.2311,0.6403c0.13866,0.37944 0.36976,0.90117 0.50842,1.20946c0.25421,0.49802 0.09244,0.73516 -2.19545,3.08294l-2.49588,2.5375l-0.4622,-0.59287c-1.22483,-1.56518 -2.79631,-5.97616 -2.38033,-6.6876c0.06933,-0.09486 1.61769,-0.18972 3.46649,-0.18972z" fill="#000000" stroke="none" stroke-width="1"/><path d="M320.50313,134.40801h3.4665v0.83002c0,1.66004 -1.43282,5.14614 -2.56521,6.18959c-0.4622,0.42687 -0.48531,0.40315 -2.88875,-2.0632l-2.40344,-2.46635l0.4622,-0.9486c0.25421,-0.49802 0.4622,-1.06717 0.4622,-1.23318c0,-0.23715 0.78574,-0.30829 3.46649,-0.30829z" fill="#000000" stroke="none" stroke-width="1"/><path d="M309.06369,137.96526c0,0 0.53153,0.21344 1.1555,0.45059l1.1555,0.45058l0.06933,3.60467l0.06933,3.60467l-1.10928,-0.166c-0.60086,-0.09486 -1.66392,-0.37944 -2.38033,-0.6403c-1.34038,-0.52173 -3.6976,-1.94462 -3.6976,-2.25292c0,-0.09486 1.06306,-1.28061 2.35722,-2.60864c1.31727,-1.35175 2.38033,-2.44264 2.38033,-2.44264z" fill="#000000" stroke="none" stroke-width="1"/><path d="M315.07229,137.96526c0.13866,0 1.31727,1.1146 2.63454,2.46635l2.42655,2.49007l-0.57775,0.4743c-0.97062,0.83002 -3.05052,1.87348 -4.50645,2.25292c-2.33411,0.61659 -2.17234,0.87745 -2.17234,-3.29637c0,-3.3438 0.04622,-3.67581 0.41598,-3.67581c0.20799,-0.02371 0.64708,-0.166 0.97062,-0.35572c0.32354,-0.18972 0.6933,-0.33201 0.80885,-0.35572z" fill="#000000" stroke="none" stroke-width="1"/><path d="M190.02419,121.67312c0.18488,0.07114 0.73952,0.26086 1.24794,0.42687l0.94751,0.28458l-0.34665,0.68773c-0.30043,0.56916 -0.30043,0.85373 -0.09244,1.37546c0.32354,0.78259 -0.02311,1.66004 -0.62397,1.66004c-0.27732,0 -0.30043,0.07114 -0.09244,0.33201c0.20799,0.23715 0.25421,1.09089 0.13866,2.84579l-0.13866,2.51378h4.22913c2.33411,0.02371 6.07793,0 8.3427,0l4.13669,-0.02371l-0.16177,0.78259c-0.09244,0.42687 -0.25421,0.80631 -0.36976,0.85374c-0.11555,0.04743 -0.20799,0.23715 -0.20799,0.42687c0,0.18972 -0.16177,0.40316 -0.34665,0.4743c-0.18488,0.09486 -0.27732,0.23715 -0.20799,0.37944c0.06933,0.11857 -0.06933,0.28458 -0.34665,0.35572c-0.27732,0.07114 -0.48531,0.21344 -0.48531,0.33201c0,0.54544 -2.65765,1.32803 -4.73755,1.39918c-1.87191,0.04743 -1.94124,0.23715 -0.09244,0.23715c2.49588,0 4.3909,-0.68773 5.63884,-1.99205c0.85507,-0.90117 1.1555,-1.47033 1.3866,-2.46635l0.16177,-0.75888h1.96435c1.8488,0 1.96434,0.02371 1.8488,0.4743c-0.06933,0.26086 -0.02311,0.42687 0.09244,0.33201c0.11555,-0.07114 0.20799,-0.28458 0.20799,-0.4743c0,-0.23715 0.32354,-0.33201 1.27105,-0.33201c1.10928,0 1.27105,0.04743 1.27105,0.4743c0,0.26086 -0.09244,0.4743 -0.20799,0.4743c-0.11555,0 -0.16177,0.21343 -0.09244,0.4743c0.06933,0.26086 0,0.4743 -0.13866,0.4743c-0.13866,0 -0.25421,0.21343 -0.25421,0.4743c0,0.26086 -0.09244,0.4743 -0.2311,0.4743c-0.11555,0 -0.2311,0.14229 -0.2311,0.28458c0,0.16601 -0.36976,0.56915 -0.80885,0.87745c-0.43909,0.30829 -0.80885,0.64031 -0.80885,0.75888c0,0.11857 -0.20799,0.21343 -0.4622,0.21343c-0.25421,0 -0.4622,0.09486 -0.4622,0.21344c0,0.26086 -2.05678,1.06717 -2.24167,0.87745c-0.06933,-0.07114 -0.27732,-0.02371 -0.43909,0.11857c-0.16177,0.11857 -0.83196,0.28458 -1.52526,0.33201c-0.67019,0.04743 -1.22483,0.11858 -1.22483,0.14229c0,0.04743 -5.3153,0.14229 -9.89107,0.18972l-1.80258,0.02371l0.4622,0.66402c0.25421,0.37944 0.6933,1.28061 0.94751,2.01577c0.27732,0.75888 0.6933,1.47033 0.9244,1.5889c0.57775,0.30829 0.6933,0.30829 0.55464,-0.09486c-0.11555,-0.30829 0.4622,-1.09088 0.83196,-1.09088c0.34665,0 0.9244,0.73517 0.9244,1.16203c0,0.6403 -0.57775,1.01974 -1.50215,1.01974c-1.24794,0 -1.87191,-0.56916 -2.44966,-2.18177c-0.50842,-1.44661 -1.82569,-3.20152 -1.98746,-2.7035c-0.04622,0.14229 0.06933,0.71145 0.25421,1.28061l0.32354,0.99603l-0.78574,0.33201c-0.41598,0.18972 -1.1555,0.40315 -1.64081,0.4743c-0.48531,0.07114 -0.9244,0.18972 -0.97062,0.23715c-0.2311,0.21344 1.1555,0.07114 2.17234,-0.26086c1.24794,-0.37944 1.3866,-0.33201 1.57148,0.35572c0.11555,0.49802 -0.04622,0.66402 -0.9244,0.83002c-0.2311,0.04743 -0.41598,0.09486 -0.41598,0.11857c0,0.33201 -4.55266,0.4743 -4.94553,0.14229c-0.18488,-0.14229 -0.34665,-0.21344 -0.34665,-0.16601c-0.02311,0.04743 -0.41597,0.02371 -0.90129,-0.07114c-0.83196,-0.16601 -0.87818,-0.21344 -0.73952,-0.80631c0.20799,-0.83002 0.2311,-0.85373 0.78574,-0.52173c0.27732,0.14229 1.17861,0.30829 2.05679,0.35572c1.47904,0.09486 1.50215,0.09486 0.39287,-0.11858c-2.05679,-0.37944 -2.5421,-0.49801 -2.75009,-0.71145c-0.09244,-0.09486 -0.02311,-0.73516 0.20799,-1.42289c0.20799,-0.66402 0.32354,-1.28061 0.25421,-1.35175c-0.27732,-0.28458 -1.75636,1.63632 -2.14923,2.79836c-0.57775,1.68376 -1.27105,2.34778 -2.47277,2.34778c-0.53153,0 -1.08617,-0.11857 -1.24794,-0.28458c-0.41598,-0.42687 -0.32354,-1.32803 0.16177,-1.61261c0.62397,-0.33201 1.17861,-0.04743 1.17861,0.61659c0,0.30829 0.06933,0.56915 0.13866,0.56915c0.50842,0 1.06306,-0.66401 1.47904,-1.82605c0.25421,-0.73516 0.6933,-1.63633 0.94751,-2.01577l0.4622,-0.66402h-0.64708c-0.34665,0 -2.88875,-0.02371 -5.61572,-0.02371c-5.8006,-0.02371 -8.22715,-0.35572 -10.33016,-1.42289c-0.80885,-0.40315 -1.45593,-0.80631 -1.45593,-0.9486c0,-0.11857 -0.09244,-0.21344 -0.2311,-0.21344c-0.11555,0 -0.43909,-0.21343 -0.6933,-0.4743c-0.25421,-0.26086 -0.4622,-0.59287 -0.4622,-0.71145c0,-0.14229 -0.11555,-0.23715 -0.2311,-0.23715c-0.27732,0 -0.78574,-1.13832 -0.71641,-1.5889c0.02311,-0.14229 -0.06933,-0.33201 -0.20799,-0.42687c-0.11555,-0.07114 -0.2311,-0.30829 -0.2311,-0.49802c0,-0.23715 0.30043,-0.33201 1.13239,-0.33201c1.10928,0 1.1555,0.02371 1.29416,0.75888c0.36976,1.68376 1.22483,2.89322 2.65765,3.72324c0.53153,0.30829 0.55464,0.30829 0.25421,-0.04743c-0.16177,-0.23715 -0.41598,-0.40316 -0.55464,-0.40316c-0.55464,0 -1.77947,-1.96834 -2.12612,-3.39123l-0.16177,-0.6403h2.0799h2.0799l0.16177,0.75888c0.2311,1.01974 1.29416,2.5375 2.311,3.24894c1.36349,0.9486 3.02741,1.18575 8.18093,1.18575c4.02114,0 4.76066,0.04743 4.92243,0.37944c0.18488,0.30829 -0.34665,0.35572 -4.80688,0.35572c-2.7732,0 -4.96864,0.04743 -4.92242,0.11858c0.06933,0.04743 2.38033,0.11857 5.15352,0.11857c4.73755,0.02371 5.0842,0.07115 5.70816,0.52173c0.41598,0.30829 1.08617,0.52173 1.87191,0.56915l1.22483,0.07115l-1.22483,-0.18972c-2.03368,-0.35572 -2.93497,-1.23318 -3.28162,-3.27266l-0.20799,-1.13832l0.04622,1.06717l0.04622,1.06717l-4.73755,0.04743c-2.58832,0.02371 -4.80687,-0.02371 -4.94553,-0.09486c-0.11555,-0.07114 -0.50842,-0.16601 -0.87818,-0.18972c-0.78574,-0.07114 -2.26478,-0.75888 -2.26478,-1.06717c0,-0.14229 -0.16176,-0.23715 -0.34665,-0.23715c-0.18488,0 -0.34665,-0.14229 -0.34665,-0.33201c0,-0.18972 -0.16177,-0.37944 -0.34665,-0.4743c-0.18488,-0.07114 -0.34665,-0.28458 -0.34665,-0.49802c0,-0.18972 -0.11555,-0.35572 -0.25421,-0.35572c-0.13866,0 -0.18488,-0.21343 -0.09244,-0.4743c0.09244,-0.26086 0.04622,-0.4743 -0.09244,-0.4743c-0.13866,0 -0.25421,-0.166 -0.25421,-0.35572c0,-0.30829 0.60086,-0.35572 3.99803,-0.35572h4.02113l0.30043,0.59287c0.55464,1.04346 2.35722,1.73119 4.78377,1.82605c1.1555,0.04743 2.05679,0 1.98746,-0.11857c-0.04622,-0.09486 -0.97062,-0.166 -2.05679,-0.166c-2.0799,0 -3.28162,-0.35572 -4.18291,-1.23318c-0.99373,-0.9486 -0.73952,-1.01974 3.39717,-0.9486c2.44966,0.04743 3.9287,-0.02372 3.9287,-0.16601c0,-0.28458 -0.64708,-0.97231 -0.94751,-0.97231c-0.11555,0 -0.41597,0.11858 -0.64708,0.26086c-0.62397,0.42687 -1.6177,0.07114 -1.77947,-0.6403c-0.30043,-1.18575 1.34038,-2.0632 2.03368,-1.09088c0.39287,0.56916 1.03995,0.97231 0.76263,0.49801c-0.36976,-0.68773 -1.13239,-1.39918 -1.45593,-1.39918c-0.4622,0 -1.20172,-0.68774 -1.20172,-1.1146c0,-0.52173 0.6933,-0.35572 2.61143,0.66402c1.06306,0.56916 1.91813,0.87745 2.03368,0.75888c0.11555,-0.11857 0.25421,-0.6403 0.30043,-1.16203c0.06933,-0.49802 0.20799,-1.49404 0.34665,-2.18177c0.13866,-0.68773 0.2311,-1.32803 0.20799,-1.42289c-0.02311,-0.09486 0.02311,-0.33201 0.11555,-0.52173c0.06933,-0.18972 0.18488,-0.66402 0.27732,-1.01974c0.09244,-0.45058 0.25421,-0.6403 0.43909,-0.56916zM184.20048,129.47532c-0.41598,0.42687 -0.34665,0.85373 0.18488,1.13831c0.25421,0.14229 0.4622,0.21344 0.48531,0.18972c0,-0.04743 0.04622,-0.42687 0.06933,-0.85374c0.09244,-0.78259 -0.2311,-0.99603 -0.73952,-0.4743zM198.80598,132.53455c-0.2311,0.28458 -0.85507,0.71145 -1.36349,0.9486c-0.50842,0.23715 -0.78574,0.45059 -0.62397,0.45059c0.43909,0 1.98746,-0.85374 2.35721,-1.30432c0.4622,-0.56916 0.13866,-0.66402 -0.36976,-0.09486zM211.30848,133.86259c-0.53153,1.01974 -1.34038,1.96834 -1.66392,1.96834c-0.13866,0 -0.39287,0.16601 -0.55464,0.40316c-0.30043,0.35572 -0.27732,0.35572 0.36976,0c0.85507,-0.45058 1.54837,-1.20946 2.0799,-2.25292c0.53153,-1.09088 0.32354,-1.18575 -0.2311,-0.11858zM187.48209,133.246c-0.16177,-0.18972 -1.01684,1.56518 -1.01684,2.0632c0,0.90117 0.6933,2.18177 1.40971,2.5375c1.50215,0.80631 3.42028,0.11857 3.90559,-1.4229c0.30043,-0.92488 0.18488,-2.11062 -0.25421,-2.65607c-0.48531,-0.56916 -0.55464,-0.30829 -0.41598,1.39918c0.13866,1.61261 0.11555,1.7549 -0.41598,2.25292c-0.36976,0.37944 -0.85507,0.54544 -1.45593,0.54544c-0.60086,0 -1.08617,-0.16601 -1.47904,-0.54544c-0.55464,-0.49802 -0.55464,-0.59287 -0.39287,-2.30035c0.09244,-0.97231 0.16177,-1.82605 0.11555,-1.87348zM196.5181,134.0286l-1.89502,-0.04743c-1.03995,-0.02371 -1.91813,0.02371 -1.96435,0.11857c-0.04622,0.11857 -0.02311,0.66402 0.06933,1.25689l0.13866,1.06717l0.02311,-1.1146l0.04622,-1.1146l1.80258,-0.09486zM169.80296,136.54238c-0.11555,0 -0.16176,0.09486 -0.09244,0.23715c0.06933,0.11857 0.18488,0.23715 0.25421,0.23715c0.04622,0 0.09244,-0.11858 0.09244,-0.23715c0,-0.14229 -0.11555,-0.23715 -0.25421,-0.23715zM195.10839,136.73206l-2.58832,-0.07114l-0.34665,0.6403c-0.20799,0.35572 -0.71641,0.87745 -1.13239,1.13832c-0.41598,0.26086 -0.64708,0.4743 -0.50842,0.4743c0.13866,0 0.53153,-0.21343 0.85507,-0.4743c0.55464,-0.45058 0.9244,-0.4743 6.84055,-0.4743c6.51701,0 9.40576,-0.30829 10.1915,-1.09088c0.2311,-0.23715 0.2311,-0.33201 0.04622,-0.33201c-0.16177,0 -0.27732,0.09486 -0.27732,0.21343c0,0.54544 -4.13668,0.9486 -10.00662,0.97231c-5.43085,0 -5.93927,-0.02371 -5.75439,-0.37944c0.18488,-0.33201 0.71641,-0.37944 3.53583,-0.37944c1.82569,-0.02371 2.95808,-0.04743 2.51899,-0.09486c-0.43909,-0.04743 -1.96435,-0.11858 -3.37406,-0.14229zM170.75047,137.13525c-0.32354,-0.07114 -0.11555,0.04742 0.4622,0.26086c0.57775,0.18972 1.87191,0.37944 2.88875,0.42687c1.01684,0.04743 1.47904,0.04743 1.03995,0c-0.43909,-0.04743 -1.47904,-0.21344 -2.311,-0.35572c-0.83196,-0.11857 -1.75636,-0.28458 -2.0799,-0.33201z" fill="#000000" stroke="none" stroke-width="1"/><path d="M193.976,144.17857c0.13866,0.56916 0.06933,0.68773 -0.48531,0.90117c-0.36976,0.14229 -0.83196,0.30829 -1.01684,0.40315c-0.6933,0.28458 -1.08617,0.33201 -3.18918,0.40316c-1.17861,0.04743 -2.19545,0 -2.26478,-0.11858c-0.04622,-0.09486 -0.25421,-0.14229 -0.43909,-0.04743c-0.18488,0.07114 -0.34665,0 -0.34665,-0.166c0,-0.14229 -0.09244,-0.18972 -0.2311,-0.11858c-0.11555,0.07114 -0.36976,0.07114 -0.50842,-0.04743c-0.16177,-0.09486 -0.39287,-0.18972 -0.53153,-0.18972c-0.30043,0 -0.41598,-1.09089 -0.16177,-1.49404c0.16177,-0.26086 0.48531,-0.23715 1.68703,0.07114c1.68703,0.4743 4.55266,0.37944 6.10103,-0.18972c1.03995,-0.35572 1.17861,-0.3083 1.3866,0.59287z" fill="#000000" stroke="none" stroke-width="1"/><path d="M246.53294,232.95996h3.46706h3.46706v4.2132v4.21319h4.10572h4.10572v3.55781v3.55781h-4.10572h-4.10572v9.26903v9.26903h-3.46706h-3.46706v-9.26903v-9.26903h-4.10572h-4.10572v-3.55781v-3.55781h4.10572h4.10572v-4.21319z" fill="#ffffff" stroke="#000000" stroke-width="1.5"/><path d="M149.21197,156.36804c5.96237,1.25689 10.86169,5.09871 13.45001,10.62428c1.34038,2.84579 1.8488,5.14614 1.8488,8.56109c0,4.2924 -0.99373,7.6362 -3.18918,10.93257c-1.64081,2.46635 -4.8762,5.45443 -6.725,6.26073c-0.55464,0.21344 -0.67019,0.37944 -0.48531,0.59287c0.18488,0.23715 0,0.33201 -0.85507,0.42687c-0.60086,0.04743 -1.89502,0.35572 -2.84253,0.6403c-2.38033,0.73516 -9.4982,0.9486 -12.43317,0.37944c-5.82372,-1.13832 -10.76925,-4.86156 -13.4269,-10.07884c-2.311,-4.57698 -2.86564,-9.29624 -1.66392,-14.01551c1.89502,-7.39905 7.46452,-12.78234 14.8135,-14.34752c2.21856,-0.45058 9.26711,-0.45058 11.50877,0.02371zM139.20535,156.72375c-1.36349,0 -4.59888,1.06717 -6.70189,2.18177c-2.19545,1.18575 -5.77749,4.67184 -7.02543,6.85361c-4.3909,7.73106 -3.07363,17.43046 3.18918,23.50148c2.81942,2.72721 6.79433,4.69555 10.21461,5.02756l1.47904,0.14229l-1.20172,-0.4743c-12.41006,-4.7667 -16.59296,-20.15767 -8.36581,-30.75824c1.94124,-2.49007 4.73755,-4.62441 7.71873,-5.83387c1.59459,-0.6403 1.59459,-0.6403 0.6933,-0.6403zM140.9386,157.19806c-6.42458,1.73119 -11.347,6.73504 -13.21891,13.42264c-0.67019,2.41892 -0.71641,7.20933 -0.09244,9.55711c1.89502,7.04333 7.16409,12.28432 13.95843,13.84951c1.54837,0.35572 3.02741,0.30829 4.41401,-0.14229c0.06933,-0.02371 -0.57775,-0.09486 -1.47904,-0.16601c-1.54837,-0.14229 -1.59459,-0.166 -1.03995,-0.4743c0.34665,-0.18972 1.50215,-0.37944 2.81942,-0.45058l2.26478,-0.11858v-1.68376c0,-0.92488 0.06933,-4.00782 0.16177,-6.85361l0.13866,-5.14614h-1.13239c-2.75009,0 -7.07165,-0.78259 -9.77552,-1.75491c-2.86564,-1.04346 -2.95807,-1.09088 -2.5421,-1.35175c0.94751,-0.54544 5.13042,-0.73516 9.2671,-0.45058c2.28789,0.16601 4.18291,0.23715 4.22913,0.21343c0.04622,-0.04743 -0.18488,-0.90117 -0.50842,-1.87348c-0.85507,-2.56121 -0.9244,-4.41097 -0.27732,-6.87732c0.39287,-1.47033 0.53153,-2.65607 0.53153,-4.36355v-2.32406l0.53153,1.06717c0.27732,0.59287 0.80885,1.92091 1.13239,2.94065c0.55464,1.68376 0.60086,2.08691 0.48531,4.4584c-0.09244,2.37149 -0.50842,4.33983 -1.47904,6.87732c-0.13866,0.37944 5.66195,0.68773 8.50447,0.45058l2.10301,-0.166l-0.16177,-1.68376c-0.73952,-8.20536 -6.2628,-14.98783 -13.84287,-16.97988c-2.21856,-0.56916 -2.7732,-0.56916 -4.99176,0.02371zM147.43249,156.70004l-0.83196,0.02371l1.1555,0.42687c4.55266,1.68376 8.41203,5.21728 10.51504,9.58083c1.66392,3.46238 1.96435,4.83784 1.96435,8.82195c0,3.74696 -0.30043,5.28842 -1.64081,8.15793c-1.47904,3.22523 -3.79004,6.02359 -6.63257,8.03936l-1.31727,0.9486l1.01684,0.14229c1.20172,0.18972 2.05679,-0.11858 3.97492,-1.4229c3.79004,-2.58493 6.4939,-6.40303 7.76495,-10.93257c0.73952,-2.67978 0.73952,-7.49391 -0.02311,-10.03141c-2.03368,-6.78246 -6.88678,-11.59659 -13.38068,-13.30406c-0.94751,-0.23715 -2.10301,-0.45059 -2.56521,-0.45059zM149.25819,168.67608c-0.13866,-0.30829 -0.20799,0.49801 -0.20799,2.20548c-0.02311,1.73119 0.06933,2.63235 0.20799,2.5375c0.13866,-0.07114 0.2311,-1.06717 0.20799,-2.20549c0,-1.13832 -0.09244,-2.27663 -0.20799,-2.53749zM159.68078,176.40715c-0.06933,0 -0.64708,0.21343 -1.29416,0.49801c-1.87191,0.78259 -4.89931,1.5889 -6.70189,1.75491c-0.9244,0.09486 -1.80258,0.23715 -1.96435,0.33201c-0.20799,0.11857 -0.2311,1.77862 -0.09244,6.73504c0.09244,3.60467 0.2311,6.54531 0.32354,6.54531c0.41598,0 3.09674,-1.99205 4.32157,-3.22523c3.02741,-3.05923 5.06108,-7.37534 5.45395,-11.54916c0.04622,-0.61659 0.04622,-1.1146 -0.04622,-1.09088zM149.37374,193.74274c-0.62397,0 -1.52526,0.16601 -1.96435,0.33201c-0.78574,0.33201 -0.76263,0.332 0.6933,0.18972c0.83196,-0.09486 1.71014,-0.23715 1.96435,-0.35572c0.32354,-0.11857 0.11555,-0.18972 -0.6933,-0.16601z" fill="#000000" stroke="none" stroke-width="1"/><path d="M120.97157,216.01101c3.42028,-0.02371 5.5695,0.4743 8.52758,1.96834c4.87621,2.46635 8.3427,6.80618 9.86796,12.35547c0.73952,2.7035 0.73952,7.25677 0,9.96026c-1.8488,6.61646 -6.58634,11.62031 -12.98781,13.68351c-1.50215,0.4743 -2.19545,0.54544 -5.3153,0.54544c-3.11985,0 -3.81314,-0.07114 -5.31529,-0.54544c-5.13042,-1.66004 -9.42888,-5.38329 -11.67054,-10.12627c-5.26908,-11.16972 0.64708,-24.23664 12.36384,-27.36701c1.24794,-0.33201 2.5421,-0.4743 4.52956,-0.4743zM117.01977,217.07821c-0.87818,0.18972 -2.65765,0.87745 -3.9287,1.51776c-11.50877,5.78644 -13.75044,21.20113 -4.41401,30.28394c1.82569,1.80234 3.9518,3.15408 6.30902,4.03153c2.03368,0.75888 2.21856,0.68774 0.85507,-0.26086c-1.45593,-0.99603 -2.44966,-2.20549 -3.28162,-3.93668c-0.55464,-1.18575 -0.62397,-1.56518 -0.62397,-3.91296c0,-2.46635 0.04622,-2.7035 0.73952,-4.15011c0.9244,-1.94462 2.5421,-3.60467 4.36778,-4.52955c1.08617,-0.56916 1.91813,-0.75888 3.6976,-0.9486c3.58205,-0.33201 5.06108,-1.01974 7.00232,-3.20151c3.60516,-4.05525 2.86564,-10.48199 -1.59459,-13.6835c-0.6933,-0.4743 -1.75636,-1.04346 -2.40344,-1.23318c-1.43282,-0.45058 -4.59888,-0.42687 -6.725,0.02371zM120.37071,242.47687c-0.67019,0.26086 -1.36349,1.09089 -1.50215,1.77862c-0.30043,1.35175 0.80885,2.79836 2.17234,2.79836c1.98746,0 3.00429,-2.58493 1.57148,-3.9841c-0.55464,-0.54544 -1.66392,-0.83002 -2.24167,-0.59287z" fill="#000000" stroke="none" stroke-width="1"/><path d="M123.28257,224.57209c0.53153,1.06717 0.41598,2.20549 -0.34665,3.08294c-0.60086,0.68773 -0.80885,0.78259 -1.87191,0.78259c-1.06306,0 -1.27105,-0.09486 -1.87191,-0.78259c-1.36349,-1.56518 -0.67019,-3.69953 1.40971,-4.38726c0.80885,-0.28458 2.24167,0.40315 2.68076,1.30432z" fill="#000000" stroke="none" stroke-width="1"/><path d="M378.97138,216.03474l1.27105,0.07114l0.64708,1.23318c0.78574,1.51776 1.06306,3.58095 1.08617,8.13421c0,1.89719 0.09244,3.58095 0.20799,3.77067c0.30043,0.49802 1.20172,0.04743 4.20601,-2.08691c1.89502,-1.37546 2.81942,-2.2292 3.6976,-3.41494c0.62397,-0.87745 1.34038,-1.68376 1.59459,-1.82605c1.36349,-0.73516 3.18918,0.54544 3.39717,2.39521c0.11555,0.97231 0.04622,1.18574 -0.53153,1.82605c-0.36976,0.40315 -2.21856,1.54147 -4.13669,2.56121c-4.18291,2.18177 -6.35524,3.58096 -6.35524,4.05525c0,0.21344 1.10927,1.49404 2.49588,2.89322c2.5421,2.60864 4.69133,4.22125 8.89734,6.64017c3.02741,1.77862 3.14296,2.18177 0.6933,2.77465c-3.02741,0.73516 -3.88248,0.37944 -7.30275,-2.94065c-1.29416,-1.25689 -3.37406,-3.24894 -4.622,-4.41097l-2.26478,-2.11062l0.16177,5.90501c0.13866,4.90899 0.09244,6.3556 -0.2311,8.5848c-0.80885,5.52557 -0.97062,5.62043 -4.3909,1.84976c-3.02741,-3.32009 -3.11985,-3.74695 -0.94751,-3.93667c1.22483,-0.09486 1.3866,-0.18972 1.52526,-0.71145c0.09244,-0.33201 0.16177,-3.08294 0.18488,-6.14216c0.02311,-5.14614 0,-5.50186 -0.36976,-5.21728c-0.20799,0.18972 -1.36349,1.61261 -2.58832,3.1778c-2.56521,3.32009 -5.40773,6.26073 -7.16409,7.42277c-1.59459,1.04346 -3.58205,1.94462 -4.29846,1.94462c-1.24794,0 -0.67019,-0.92488 2.75009,-4.48212c3.51272,-3.6521 5.1073,-5.47814 6.70189,-7.61249c1.17861,-1.56518 2.51899,-3.8181 2.38033,-3.96039c-0.18488,-0.16601 -3.83626,1.87348 -6.97921,3.93667c-1.64081,1.04346 -3.09674,1.92091 -3.2354,1.92091c-1.01684,0 -2.63454,-2.11063 -2.65765,-3.46238c0,-0.90117 1.06306,-1.51775 6.14725,-3.62838c2.79631,-1.13832 5.59262,-2.34778 6.21658,-2.67978c0.64708,-0.33201 1.54837,-0.73516 2.03368,-0.90117c0.50842,-0.16601 0.99373,-0.52173 1.10928,-0.80631c0.32354,-0.71145 -0.25421,-4.1264 -1.20172,-7.13819c-0.36976,-1.25689 -0.67019,-2.46635 -0.62397,-2.67978c0.04622,-0.21344 0.32354,-0.52173 0.64708,-0.68773c0.32354,-0.16601 1.1555,-0.28458 1.8488,-0.26086z" fill="#000000" stroke="none" stroke-width="1"/><path d="M376.89149,281.20331c0.06933,0 0.94751,0.78259 1.96435,1.75491l1.8488,1.7549l-1.75636,1.84976c-2.03368,2.08691 -1.73325,2.11062 -4.15979,-0.26086l-1.3866,-1.37546l0.76263,-0.85374c0.41598,-0.4743 1.17861,-1.30432 1.66392,-1.87348c0.50842,-0.54544 0.99373,-0.99603 1.06306,-0.99603z" fill="#000000" stroke="none" stroke-width="1"/><path d="M369.95849,282.50766l0.55464,1.37547c0.9244,2.30035 2.56521,4.15011 4.22913,4.81413c1.3866,0.54544 3.74382,0.35572 5.38463,-0.40316c0.6933,-0.33201 1.98746,-1.16203 2.84253,-1.82605c0.85507,-0.68773 1.6177,-1.23318 1.66392,-1.23318c0.04622,0 0.78574,0.92488 1.64081,2.0632l1.57148,2.03949l-0.90129,0.83002c-3.25851,2.89322 -8.82801,3.96039 -12.17896,2.32406c-2.86564,-1.39918 -4.82998,-5.00384 -4.80687,-8.86937z" fill="#000000" stroke="none" stroke-width="1"/><path d="M366.37645,289.12412c4.87621,0.18972 7.74184,4.33983 6.07793,8.84566c-0.36976,1.01974 -0.87818,1.77862 -1.96435,2.89322c-0.80885,0.83002 -1.43282,1.54147 -1.40971,1.56518c0.04622,0.04743 0.62397,0.30829 1.31727,0.59287c2.21856,0.90117 3.11985,0.28458 4.99176,-3.3438c1.29416,-2.46635 3.21229,-4.79041 4.48334,-5.35957c1.08617,-0.49802 4.25223,-0.54544 5.33841,-0.09486c3.55894,1.49404 5.47706,5.09871 5.70816,10.69542c0.13866,3.10665 -0.18488,4.81413 -1.34038,7.18562c-2.28789,4.62441 -7.11787,6.26074 -10.53815,3.58096c-1.82569,-1.42289 -2.75009,-4.05525 -2.5421,-7.18562c0.16177,-2.2292 0.48531,-2.94065 0.6933,-1.51776c0.20799,1.32803 1.34038,2.98808 2.35721,3.48609c1.17861,0.56916 3.53583,0.42687 4.92243,-0.30829c2.86564,-1.49404 4.1598,-4.03153 3.90559,-7.6362c-0.16177,-2.5375 -0.97062,-4.36354 -2.14923,-4.86156c-1.89502,-0.83002 -3.74382,0.49801 -5.52329,3.93667c-0.4622,0.92488 -1.20172,2.03948 -1.64081,2.49006c-0.97062,0.99603 -2.84253,1.61261 -4.622,1.49404c-1.03995,-0.04743 -1.22483,0 -1.10928,0.28458c2.42655,6.45046 1.24794,11.00372 -3.42028,13.28035c-1.8488,0.90117 -3.05052,1.06717 -4.96865,0.71145c-4.82999,-0.87745 -8.87423,-4.74298 -10.12217,-9.60454c-0.57775,-2.34778 -0.85507,-5.31214 -0.67019,-7.4702l0.16177,-2.01577l0.30043,1.66004c0.73952,4.2924 1.89502,7.16191 3.72071,9.15396c1.22483,1.35175 3.35095,2.49006 5.06109,2.7035c1.40971,0.18972 3.79004,-0.21343 4.96864,-0.85373c2.12612,-1.1146 3.18918,-4.41097 2.05679,-6.33188c-0.97062,-1.61261 -2.79631,-2.11062 -5.15352,-1.37546l-1.08617,0.33201l-0.9244,-2.94065c-0.50842,-1.61261 -0.9244,-3.05922 -0.9244,-3.22523c0,-0.26086 0.53153,-0.30829 2.40343,-0.23715c2.84253,0.11857 3.83626,-0.14229 4.64511,-1.23318c1.50215,-2.01577 0.04622,-3.93667 -3.0043,-3.93667c-1.40971,0 -2.28789,0.33201 -4.32157,1.68376c-2.17234,1.42289 -1.8488,1.56518 -3.55893,-1.63633c-0.57775,-1.09088 -0.99373,-2.11062 -0.94751,-2.27663c0.25421,-0.6403 4.66821,-2.67979 6.63256,-3.08294c0.32354,-0.04743 1.31727,-0.07114 2.19545,-0.04743z" fill="#000000" stroke="none" stroke-width="1"/><path d="M168.67057,333.49469c3.60516,0.9486 7.60318,3.60467 10.00662,6.64018c1.45593,1.87348 3.05051,5.19356 3.65137,7.70734c0.67019,2.67978 0.53153,7.54134 -0.25421,10.07884c-2.01057,6.49789 -7.00232,11.43059 -13.35757,13.20921c-2.58832,0.73516 -7.09476,0.71145 -9.61375,0c-6.74811,-1.96834 -11.87853,-7.30419 -13.54245,-14.1578c-0.64708,-2.63235 -0.64708,-6.66389 0,-9.24882c1.8488,-7.44648 7.41831,-12.90091 14.79039,-14.48981c1.91813,-0.40315 6.28592,-0.26086 8.31959,0.26086zM162.9624,334.34844c-0.11555,0.02371 -0.83196,0.11857 -1.6177,0.23715c-7.60318,1.13832 -13.8891,7.77849 -14.76728,15.60441l-0.16177,1.44661h8.36581h8.3427v-8.65594c0,-4.7667 -0.06933,-8.63222 -0.16177,-8.63222zM165.27341,334.41961l-0.53153,-0.09486v8.65594v8.65594h8.3427h8.36581l-0.16177,-1.44661c-0.60086,-5.35957 -3.83626,-10.43456 -8.45825,-13.28035c-1.71014,-1.04346 -4.29845,-2.01577 -5.93926,-2.2292c-0.62397,-0.07114 -1.34038,-0.18972 -1.6177,-0.26086zM163.12418,353.05953h-8.3427h-8.36581l0.16177,1.44661c0.64708,5.85758 4.32157,11.12229 9.70619,13.89694c1.75636,0.90117 4.59888,1.73119 5.96237,1.73119h0.87818v-8.53737zM181.45039,353.05953h-8.36581h-8.3427v8.53737v8.53737h0.87818c0.50842,0 1.68703,-0.21344 2.63454,-0.45059c6.90988,-1.82605 12.20207,-8.03935 13.05714,-15.39097z" fill="#000000" stroke="none" stroke-width="1"/><path d="M158.34041,342.48267c1.10928,0.4743 1.59459,1.18575 1.73325,2.49007c0.09244,1.06717 0.02311,1.23317 -0.6933,2.03948c-1.45593,1.63633 -3.90559,1.25689 -4.71444,-0.75888c-0.60086,-1.44661 0.04622,-3.15408 1.40971,-3.77067c0.90129,-0.40315 1.34038,-0.40315 2.26478,0z" fill="#000000" stroke="none" stroke-width="1"/><path d="M172.62238,342.69611c1.59459,1.09088 1.8488,2.96437 0.60086,4.33983c-1.43282,1.61261 -3.88248,1.20946 -4.69133,-0.78259c-0.60086,-1.44661 0.04622,-3.15408 1.40971,-3.77067c1.01684,-0.45058 1.80258,-0.40316 2.68076,0.21343z" fill="#000000" stroke="none" stroke-width="1"/><path d="M157.25424,356.14243c1.68703,0 2.86564,1.16203 2.86564,2.84579c0,3.27266 -4.55266,3.93668 -5.54639,0.83002c-0.34665,-1.09088 0.02311,-2.27663 0.94751,-3.08294c0.53153,-0.42687 0.97062,-0.59287 1.73325,-0.59287z" fill="#000000" stroke="none" stroke-width="1"/><path d="M173.75477,358.98825c0,3.3438 -4.64511,3.93667 -5.56951,0.71145c-0.34665,-1.13832 0,-2.11062 0.99373,-2.96436c1.75636,-1.51776 4.57578,-0.11857 4.57578,2.25292z" fill="#000000" stroke="none" stroke-width="1"/><path d="M345.41569,335.55791c1.75636,1.01974 4.78376,3.8181 5.82371,5.407c0.50842,0.73516 0.41598,0.68773 -0.80885,-0.42687c-1.82569,-1.66004 -4.96865,-3.24894 -7.51074,-3.74696c-8.06538,-1.63633 -16.06144,3.6521 -18.18755,11.99974c-0.50842,2.03948 -0.50842,5.78644 0.02311,7.82592c0.71641,2.7035 2.10301,5.12242 4.15979,7.25676c1.03995,1.04346 2.44966,2.22921 3.14296,2.63236c3.28162,1.92091 7.58007,2.63235 11.09279,1.87347c1.77947,-0.37944 4.66822,-1.66004 5.89304,-2.60864c1.34038,-1.04346 1.36349,-0.87745 0.06933,0.42687c-2.38033,2.34778 -5.19974,3.9841 -8.43514,4.9327c-1.43282,0.42687 -2.40344,0.52173 -4.80688,0.52173c-3.51272,0 -5.54639,-0.4743 -8.55069,-2.01577c-9.98351,-5.09871 -13.47312,-18.42649 -7.32587,-27.93617c2.95808,-4.57698 8.01916,-7.89706 13.10336,-8.63222c4.11358,-0.59287 8.59691,0.332 12.31762,2.49006z" fill="#000000" stroke="none" stroke-width="1"/><path d="M350.77721,345.94503c0.06933,0 0.48531,1.1146 0.9244,2.49006l0.78574,2.46635l2.7732,0.07114l2.79631,0.07114l-2.05679,1.54147c-1.13239,0.85374 -2.14923,1.61261 -2.26478,1.68376c-0.09244,0.07114 0.18488,1.23318 0.62397,2.58493c0.43909,1.37546 0.78574,2.56121 0.76263,2.65607c-0.04622,0.11857 -0.99373,-0.49801 -2.12612,-1.35175c-1.10928,-0.85374 -2.10301,-1.54147 -2.21856,-1.54147c-0.09244,0 -1.08617,0.68773 -2.21856,1.51775c-1.13239,0.85374 -2.0799,1.47033 -2.12612,1.37547c-0.02311,-0.09486 0.30043,-1.25689 0.73952,-2.58493l0.78574,-2.39521l-0.48531,-0.45058c-0.27732,-0.26086 -1.29416,-1.04346 -2.24167,-1.75491l-1.71014,-1.28061l2.7732,-0.07114l2.7732,-0.07114l0.78574,-2.46635c0.43909,-1.37546 0.85507,-2.49006 0.9244,-2.49006z" fill="#000000" stroke="none" stroke-width="1"/><path d="M283.73516,363.23321c0.62397,0.59287 0.71641,0.85374 0.71641,1.92091c0,1.16203 0.02311,1.20946 0.53153,1.01974c1.08617,-0.37944 1.8488,-0.166 2.63454,0.75888l0.73952,0.87745l-0.04622,4.00782c-0.02311,2.20549 -0.02311,4.00782 0.02311,4.00782c0.04622,0 0.39287,-0.23715 0.76263,-0.54544c0.83196,-0.61659 2.21856,-0.68774 3.42028,-0.18972l0.76263,0.33201l-0.18488,1.20946c-0.09244,0.66402 -0.20799,4.62441 -0.20799,8.79823c-0.04622,7.20933 -0.06933,7.65992 -0.55464,9.13024c-1.45593,4.33983 -4.3909,6.73504 -8.5738,7.04333c-5.36151,0.40315 -9.52131,-2.72722 -10.86169,-8.1105c-0.41598,-1.70747 -0.4622,-2.63235 -0.4622,-11.99974v-10.14998l0.73952,-0.87745c0.67019,-0.75888 0.83196,-0.83002 1.73325,-0.75888l0.99373,0.07115v-1.37547c0,-1.61261 0.43909,-2.44264 1.54837,-2.91693c0.53153,-0.23715 0.90129,-0.26086 1.34038,-0.09486c0.83196,0.33201 0.80885,0.35572 0.80885,-0.68773c0,-0.75888 0.13866,-1.04346 0.71641,-1.54147c1.01684,-0.90117 2.44966,-0.85374 3.42028,0.07114zM281.26239,363.87352l-0.50842,0.35572v8.34765c0,4.60069 -0.09244,8.48994 -0.20799,8.67966c-0.11555,0.18972 -0.36976,0.26086 -0.57775,0.18972c-0.32354,-0.14229 -0.36976,-0.97231 -0.36976,-7.25677v-7.11447l-0.6933,-0.37944c-0.62397,-0.33201 -1.22483,-0.26086 -1.66392,0.18972c-0.02311,0.02371 -0.11555,3.55724 -0.18488,7.87335c-0.09244,6.73504 -0.16177,7.82592 -0.4622,7.82592c-0.30043,0 -0.36976,-0.83002 -0.4622,-5.64415c-0.13866,-6.11845 -0.11555,-6.09473 -1.43282,-6.09473c-0.39287,0 -0.71641,0.166 -0.87818,0.45058c-0.32354,0.66402 -0.32354,19.75452 0.02311,21.41457c0.67019,3.1778 2.56521,5.76272 5.13042,6.97219c1.29416,0.61659 1.66392,0.68773 3.97492,0.68773c2.26478,0 2.68076,-0.07114 3.81315,-0.61659c2.33411,-1.13832 3.9518,-3.3438 4.71443,-6.47417c0.30043,-1.1146 0.32354,-2.41892 0.2311,-6.9959c-0.09244,-3.46238 -0.04622,-6.45046 0.11555,-7.84963c0.18488,-1.73119 0.18488,-2.27664 -0.04622,-2.41892c-0.39287,-0.28458 -1.75636,-0.04743 -2.26478,0.42687c-0.57775,0.52173 -1.13239,2.32406 -1.1555,3.74696c-0.02311,1.56518 -0.25421,2.3952 -0.67019,2.3952c-0.30043,0 -0.36976,-1.1146 -0.4622,-7.28048c-0.11555,-7.13819 -0.13866,-7.30419 -0.62397,-7.82592c-0.50842,-0.49802 -0.55464,-0.49802 -1.34038,-0.11858l-0.80885,0.40315v6.61646c0,6.75875 -0.11555,7.56505 -0.85507,6.54531c-0.2311,-0.35572 -0.30043,-2.13434 -0.30043,-8.5848v-8.1105l-0.6933,-0.37944c-0.80885,-0.42687 -0.71641,-0.42687 -1.34038,0.02371z" fill="#000000" stroke="none" stroke-width="1"/><path d="M260.37966,228.30395c4.78358,2.53109 10.23986,8.66711 11.80947,13.34581c1.56961,4.60198 1.49487,12.04189 -0.07474,16.7973c-1.7191,5.1389 -8.96922,12.57881 -13.97704,14.34289c-11.36101,3.98841 -24.14212,-1.3806 -29.37417,-12.34869c-1.79384,-3.68161 -2.09282,-5.36898 -2.09282,-10.50788c0,-5.1389 0.29897,-6.82627 2.09282,-10.50788c2.54128,-5.2923 7.47435,-9.971 12.78114,-12.1186c5.38153,-2.22429 13.60329,-1.76409 18.83533,0.99709zM247.15003,228.07387c-0.89692,0 -0.82218,0.6136 0.14949,5.36898c1.04641,5.06218 1.7191,4.44858 1.04641,-1.0738c-0.29897,-2.37769 -0.82218,-4.29518 -1.1959,-4.29518zM252.75579,228.07387c-0.74744,0 -1.04641,1.0738 -1.04641,3.37481c0,1.84081 -0.22423,4.0651 -0.44846,4.8321c-0.37372,0.9204 -0.29897,1.15049 0.22423,0.6136c0.44846,-0.4602 1.12115,-2.60778 1.49487,-4.8321c0.59795,-3.22141 0.59795,-3.98841 -0.22423,-3.98841zM258.43633,229.22423c-0.44846,-0.3068 -0.89692,0 -1.12115,0.53692c-3.13923,8.82048 -3.13923,10.35448 -0.14949,4.0651c1.12115,-2.45441 1.64436,-4.3719 1.27064,-4.60201zM241.91801,229.60784c-0.89692,0 -0.89692,0.07672 1.1959,4.75541c2.09282,4.60198 2.46654,4.14181 0.67269,-1.15049c-0.67269,-1.99421 -1.49487,-3.60489 -1.86859,-3.60489zM237.35866,231.90885c-1.49487,0 -0.89692,1.45729 1.7191,4.5253c3.4382,3.98841 3.66243,3.68161 0.89692,-1.0738c-1.1959,-1.91749 -2.31705,-3.45149 -2.61602,-3.45149zM261.12709,233.82627c-3.28871,5.21558 -3.4382,5.98259 -0.5232,2.68449c1.7191,-1.91749 3.06448,-3.68161 3.06448,-4.0651c0,-1.15049 -1.34538,-0.4602 -2.54128,1.3806zM232.72456,236.43414c-0.22423,0.38348 1.1959,1.91749 3.28871,3.45149c2.01807,1.534 3.73718,2.45441 3.73718,2.07089c0,-1.0738 -6.57743,-6.28939 -7.02589,-5.52238zM266.88231,235.74386c-0.67269,0.07668 -7.10063,6.13599 -6.50269,6.13599c0.89692,0 7.02589,-4.75538 7.02589,-5.36898c0,-0.4602 -0.22423,-0.767 -0.5232,-0.767zM230.03383,241.8031c0,0.767 7.32486,3.52821 7.92281,2.91461c0.22423,-0.1534 -1.34538,-1.0738 -3.36346,-1.99421c-4.18564,-1.84081 -4.55935,-1.91749 -4.55935,-0.9204zM269.49833,241.18956c-1.34538,0.07668 -7.54909,3.06801 -7.17538,3.37481c0.5232,0.53692 8.0723,-2.14761 8.0723,-2.83789c0,-0.3068 -0.44846,-0.6136 -0.89692,-0.53689zM228.16521,247.24883c-0.29897,0.4602 0.5232,0.767 2.09282,0.767c1.42013,0 3.73718,0.23012 5.08256,0.4602c1.79384,0.3068 2.16756,0.15337 1.42013,-0.3068c-1.79384,-1.15049 -7.99756,-1.84081 -8.5955,-0.9204zM263.29462,248.16923c-0.5232,0.53692 -0.14949,0.69032 1.12115,0.3068c1.04641,-0.23008 3.13923,-0.4602 4.70884,-0.4602c1.49487,0 2.76551,-0.38352 2.76551,-0.767c0,-1.2272 -7.32486,-0.4602 -8.5955,0.9204zM236.76071,251.23718c-0.59795,0.07668 -2.69077,0.23012 -4.6341,0.38352c-2.01807,0.1534 -3.58769,0.69032 -3.58769,1.15049c0,0.9204 6.3532,0.1534 8.22179,-0.99709c0.97167,-0.53692 0.97167,-0.6136 0,-0.53692zM271.59118,253.23132c0.22423,-0.38348 0.29897,-0.84369 0.22423,-0.9204c-0.67269,-0.6136 -9.04396,-1.0738 -8.44598,-0.4602c0.59798,0.6136 7.99752,1.76409 8.22175,1.3806zM233.24776,256.29942c-1.79384,0.69032 -3.21397,1.68741 -3.21397,2.22429c0,0.6136 1.04641,0.4602 3.58769,-0.69029c1.94333,-0.84369 3.81192,-1.84081 4.26038,-2.22432c1.04641,-1.0738 -1.12115,-0.767 -4.6341,0.69032zM262.1735,255.22559c0,0.4602 5.97948,3.37481 7.25012,3.52821c0.29897,0.07668 0.67269,-0.23012 0.82218,-0.6136c0.07474,-0.38348 -1.1959,-1.0738 -2.915,-1.61072c-1.64436,-0.53692 -3.51294,-1.15049 -4.11089,-1.3806c0,0 -1.04641,-0.38348 -1.04641,0.07672zM235.49007,260.44111c-1.7191,1.30389 -2.98974,2.68449 -2.76551,3.06801c0.37372,0.53692 7.02589,-4.44858 7.02589,-5.21558c0,-0.69032 -1.34538,0 -4.26038,2.14761zM266.88234,264.12272c1.49487,0.07668 0.22423,-1.68741 -2.76551,-3.83501c-1.86859,-1.2272 -3.58769,-2.30101 -3.88666,-2.30101c-0.29897,0 6.65217,6.13602 6.65217,6.13602zM241.91801,260.82472c-0.14949,-0.1534 -1.56961,1.2272 -3.13923,2.99129c-1.79384,2.07089 -2.54128,3.45149 -2.01807,3.7583c0.44846,0.3068 0.89692,0.38348 1.04641,0.3068c0.07474,-0.1534 1.12115,-1.76409 2.24231,-3.60489c1.1959,-1.76409 2.01807,-3.37481 1.86859,-3.45149zM257.68889,260.44111c0,0.9204 4.70884,7.51659 5.38153,7.51659c0.29897,0 0.59795,-0.23008 0.59795,-0.6136c-0.07474,-0.767 -5.90474,-7.59331 -5.97948,-6.90299zM255.74556,265.73347c0.5232,1.45729 1.1959,3.22141 1.42013,3.98841c0.29897,0.767 0.82218,1.2272 1.1959,0.9204c0.44846,-0.23008 0,-2.07089 -0.97167,-4.29518c-2.61602,-5.7525 -3.88666,-6.2127 -1.64436,-0.6136zM244.83301,262.89564c-0.37372,-0.3068 -3.58769,6.28942 -3.58769,7.36322c0,1.99421 1.27064,0.38348 2.46654,-3.14469c0.74744,-2.14761 1.27064,-4.0651 1.12115,-4.2185zM247.15006,272.09961c0.43453,0.06156 0.89692,-1.45729 1.1959,-3.83498c0.5232,-4.2185 0.14949,-6.3661 -0.59795,-3.60489c0,0 -1.54617,7.30554 -0.59795,7.43987zM252.45685,265.27327c-0.44846,-1.91749 -0.59798,-1.534 -0.67269,2.07089c0,2.37769 0.29897,4.60198 0.67269,4.8321c0.44846,0.3068 0.74744,-0.53692 0.67269,-2.07089c-0.07474,-1.3806 -0.37372,-3.60489 -0.67269,-4.8321z" fill="#ffffff" stroke="#000000" stroke-width="1.5"/><path d="M202.87334,367.05132c1.1555,0 2.0799,0.07115 2.0799,0.14229c0,0.07114 -0.27732,0.49802 -0.60086,0.9486l-0.60086,0.8063h0.60086c0.73952,0 0.76263,0.16601 0,1.20946c-0.55464,0.73516 -0.57775,0.92488 -0.43909,2.41892c0.32354,3.58095 1.68703,6.5216 4.27535,9.20139c2.01057,2.0632 4.11358,3.29637 6.84055,4.00782c2.68076,0.71145 2.63454,0.73516 2.63454,-0.9486c0,-1.35175 -0.02311,-1.42289 -0.62397,-1.56518c-2.84253,-0.6403 -4.34468,-1.32803 -6.17037,-2.79836c-1.08617,-0.90117 -2.65765,-3.15408 -3.32784,-4.79041c-0.4622,-1.13832 -0.60086,-1.77862 -0.83196,-3.9841c-0.04622,-0.49802 -0.32354,-1.20946 -0.57775,-1.5889c-0.60086,-0.83002 -0.62397,-1.16203 -0.02311,-1.16203c0.57775,0 0.57775,-0.18972 0,-0.9486c-0.25421,-0.33201 -0.4622,-0.66402 -0.4622,-0.78259c0,-0.09486 0.87818,-0.16601 1.96435,-0.16601c1.08617,0 1.96435,0.09486 1.96435,0.21344c0,0.09486 -0.20799,0.4743 -0.4622,0.8063c-0.25421,0.33201 -0.4622,0.66402 -0.4622,0.73517c0,0.07114 0.20799,0.14229 0.4622,0.14229c0.60086,0 0.57775,0.33201 -0.02311,1.18575c-0.43909,0.59287 -0.48531,0.90117 -0.36976,2.25292c0.30043,4.15011 4.02114,8.25279 7.90361,8.82195l1.03995,0.14229v-1.5889c0,-1.39918 -0.04622,-1.56518 -0.4622,-1.56518c-0.67019,0 -2.28789,-0.83002 -3.28162,-1.66004c-1.10928,-0.9486 -2.26478,-3.32009 -2.26478,-4.64813c0,-0.73516 -0.16177,-1.20946 -0.57775,-1.70747c-0.6933,-0.85374 -0.73952,-1.23318 -0.11555,-1.23318c0.57775,0 0.57775,-0.18972 0,-0.9486c-0.25421,-0.33201 -0.4622,-0.66402 -0.4622,-0.78259c0,-0.09486 0.94751,-0.16601 2.10301,-0.16601h2.10301l-0.60086,0.80631c-0.71641,0.97231 -0.73952,1.09088 -0.18488,1.09088c0.71641,0 0.73952,0.26086 0.16177,1.06717c-0.71641,0.92488 -0.73952,2.15806 -0.13866,3.41495c0.6933,1.35175 2.51899,2.8695 3.51272,2.8695c0.11555,0 0.20799,-1.20946 0.20799,-2.75093c0,-2.56121 -0.04622,-2.79836 -0.57775,-3.50981c-0.32354,-0.42687 -0.57775,-0.85373 -0.57775,-0.92488c0,-0.09486 0.25421,-0.16601 0.57775,-0.16601c0.71641,0 0.71641,-0.11857 -0.02311,-1.04346l-0.62397,-0.73516l2.03368,-0.07115c1.10928,-0.04743 2.0799,-0.02371 2.12612,0.04743c0.06933,0.07114 -0.09244,0.40316 -0.36976,0.75888c-0.60086,0.78259 -0.62397,1.04346 -0.02311,1.04346c0.60086,0 0.57775,0.21344 -0.11555,1.18575c-0.53153,0.73516 -0.57775,0.99603 -0.57775,3.48609c0,1.70747 0.09244,2.67978 0.2311,2.67978c0.13866,0 0.62397,-0.21343 1.10928,-0.45058c2.40344,-1.28061 3.53583,-4.17382 2.24167,-5.76272c-0.73952,-0.87745 -0.71641,-1.09089 0.04622,-1.18575l0.60086,-0.07114l-0.64708,-0.78259c-0.34665,-0.42687 -0.57775,-0.83002 -0.53153,-0.90117c0.06933,-0.07114 1.03995,-0.09486 2.12612,-0.04743l2.01057,0.07115l-0.60086,0.83002l-0.60086,0.83002l0.57775,0.07114c0.73952,0.09486 0.73952,0.09486 0.02311,1.18575c-0.32354,0.4743 -0.57775,1.20946 -0.57775,1.63633c0,1.25689 -0.87818,3.27266 -1.87191,4.33983c-0.9244,0.97231 -2.93497,2.13434 -3.72071,2.13434c-0.34665,0 -0.41598,0.23715 -0.41598,1.56518v1.5889l1.03995,-0.14229c3.83626,-0.54544 7.51074,-4.67184 7.90361,-8.82195c0.11555,-1.39918 0.09244,-1.56518 -0.48531,-2.25292c-0.76263,-0.9486 -0.76263,-1.13832 0.02311,-1.23318l0.60086,-0.07114l-0.60086,-0.73517c-0.34665,-0.42687 -0.62397,-0.83002 -0.62397,-0.90116c0,-0.07114 0.94751,-0.14229 2.0799,-0.14229c1.1555,0 2.0799,0.07115 2.0799,0.14229c0,0.07114 -0.27732,0.4743 -0.62397,0.90116l-0.60086,0.73517l0.60086,0.07114c0.76263,0.09486 0.76263,0.21344 0.04622,1.23318c-0.39287,0.54544 -0.57775,1.1146 -0.57775,1.77862c0,2.72721 -1.43282,5.83387 -3.6976,8.03936c-1.73325,1.68376 -3.51272,2.65607 -5.63884,3.08294l-1.40971,0.30829l-0.06933,1.44661c-0.06933,1.73119 -0.11555,1.70747 2.58832,0.99603c5.86994,-1.54147 10.07596,-6.3556 11.00035,-12.61633c0.20799,-1.54147 0.20799,-1.92091 -0.09244,-2.5375c-0.20799,-0.37944 -0.4622,-0.78259 -0.60086,-0.85373c-0.41598,-0.26086 -0.25421,-0.83002 0.2311,-0.83002c0.60086,0 0.57775,-0.09486 -0.13866,-1.09088l-0.60086,-0.80631h2.10301c1.1555,0 2.10301,0.07115 2.10301,0.16601c0,0.11857 -0.20799,0.45058 -0.4622,0.78259c-0.57775,0.75888 -0.57775,0.9486 0,0.9486c0.55464,0 0.60086,0.40315 0.06933,0.99603c-0.25421,0.28458 -0.48531,1.28061 -0.67019,2.79836c-0.57775,4.55326 -1.87191,7.28048 -4.96864,10.45827c-2.49588,2.58493 -5.13042,4.03154 -8.45825,4.67184l-2.14923,0.40315v2.8695v2.89322l1.80258,0.40315c6.10103,1.37546 5.82371,1.28061 5.82371,2.03949v0.68773l-8.59691,-0.04743c-8.18093,-0.07114 -8.62003,-0.09486 -8.68935,-0.52173c-0.04622,-0.23715 0,-0.52173 0.13866,-0.66402c0.16177,-0.16601 7.04854,-1.84976 7.58007,-1.84976c0.04622,0 0.09244,-1.32803 0.09244,-2.96436c0,-2.91693 0,-2.96436 -0.50842,-2.96436c-2.33411,-0.02371 -6.88677,-1.92091 -9.08222,-3.8181c-3.4665,-2.94065 -5.63884,-7.18562 -6.03171,-11.7626c-0.11555,-1.39918 -0.30043,-2.03948 -0.71641,-2.58493c-0.67019,-0.92488 -0.67019,-0.99603 0.09244,-1.09088l0.60086,-0.07114l-0.60086,-0.73517c-0.34665,-0.42687 -0.62397,-0.83002 -0.62397,-0.90116c0,-0.07114 0.94751,-0.14229 2.0799,-0.14229z" fill="#000000" stroke="none" stroke-width="1"/></g></g></svg>