<svg version="1.1" xmlns="http://www.w3.org/2000/svg" xmlns:xlink="http://www.w3.org/1999/xlink" width="43.23426" height="38.4375" viewBox="0,0,43.23426,38.4375"><g transform="translate(-218.38287,-160.78446)"><g stroke="#000000" stroke-linecap="round" stroke-linejoin="round" stroke-miterlimit="10"><path d="M240.00231,168.50321c9.32524,-13.99826 28.48636,-6.68407 17.625,19.9375c2.15596,-10.06769 -6.22282,-28.74768 -10.125,1.0625c-0.34984,-0.52979 1.96875,5.94807 1.96875,6c0,1.64551 -4.23524,2.96875 -9.46875,2.96875c-5.23351,0 -9.46875,-1.32324 -9.46875,-2.96875c0,-0.05193 2.28796,-6.4834 1.96875,-6c-3.90218,-29.81018 -12.28096,-11.13019 -10.125,-1.0625c-7.12777,-17.4704 -1.34558,-26.62992 6.125,-26.90625c3.91316,-0.14474 8.29445,2.15685 11.5,6.96875z" fill="#ffffff" stroke-width="1.5"/><path d="M227.21209,192.42694c0,2.66822 -1.41883,4.83125 -3.16904,4.83125c-1.75021,0 -3.16904,-2.16302 -3.16904,-4.83125c0,-2.66822 1.41883,-4.83125 3.16904,-4.83125c1.75021,0 3.16904,2.16302 3.16904,4.83125z" fill="#ffffff" stroke-width="1.62642"/><path d="M255.96328,187.59569c1.75021,0 3.16904,2.16302 3.16904,4.83125c0,2.66822 -1.41883,4.83125 -3.16904,4.83125c-1.75021,0 -3.16904,-2.16302 -3.16904,-4.83125c0,-2.66822 1.41883,-4.83125 3.16904,-4.83125z" fill="#ffffff" stroke-width="1.62642"/><path d="M240.00231,168.50321c-1.5429,11.84959 -4.41804,15.86101 -7.5,21" fill="none" stroke-width="1.5"/><path d="M247.50231,189.50321c-3.08196,-5.13899 -5.9571,-9.15041 -7.5,-21" fill="none" stroke-width="1.5"/><path d="M232.50231,189.50321c5,-2 10,-1.98442 15,0" fill="none" stroke-width="1.5"/></g></g></svg>