<svg version="1.1" xmlns="http://www.w3.org/2000/svg" xmlns:xlink="http://www.w3.org/1999/xlink" width="31.13994" height="36.94728" viewBox="0,0,31.13994,36.94728"><g transform="translate(-224.44044,-161.57369)"><g fill="#ffffff" stroke-miterlimit="10"><path d="M228.67962,167.90988c1.05054,2.60967 0.99635,2.48044 1.02136,2.47627c0.0125,0 0.14173,-0.25847 0.29181,-0.57113c0.57113,-1.19645 1.37988,-2.49711 2.19696,-3.52264c0.46274,-0.5878 1.54663,-1.68836 2.03437,-2.07189c1.32568,-1.0422 2.70972,-1.68837 4.08542,-1.8968c0.60031,-0.09171 1.80509,-0.12507 2.52213,-0.0667c1.7634,0.14174 3.3809,0.8421 4.8775,2.11359c0.49608,0.42105 1.50076,1.45491 1.90931,1.96767c0.69202,0.86711 1.44658,2.06772 2.05522,3.26834c0.20427,0.40854 0.3877,0.74205 0.40437,0.74205c0.03335,0 0.03335,-0.00833 1.14225,-2.77225c0.69277,-1.73542 3.09325,-3.63103 3.09325,-3.63103l-0.23762,0.94215c-0.21678,0.85877 -0.55445,2.19696 -1.44657,5.70292c-0.18342,0.7212 -0.40021,1.64668 -0.48358,2.06356c-0.07921,0.41688 -0.22512,1.07972 -0.31683,1.47576l-0.17092,0.71703l0.15424,0.67951c0.52944,2.28033 0.77957,4.08959 0.92131,6.59921c0.03335,0.61698 0.09171,1.29233 0.12506,1.50076c0.07504,0.44606 0.08755,2.18446 0.01668,2.6055c-0.02501,0.15008 -0.05002,0.32933 -0.05836,0.4002c-0.0125,0.07087 -0.09588,0.37936 -0.1876,0.68785c-0.19593,0.65033 -0.65033,1.60915 -1.0422,2.20529c-1.0422,1.57997 -2.72639,3.08908 -4.79412,4.29387c-0.55028,0.31683 -1.98018,1.0422 -2.38872,1.20895c-0.12923,0.05419 -0.22511,0.11256 -0.20844,0.12924c0.02918,0.02918 1.42989,0.5878 2.82644,1.12557c0.30016,0.11673 0.60864,0.23345 0.68785,0.2668c0.07921,0.03335 0.27931,0.10839 0.43772,0.16675c1.35903,0.5211 1.86345,0.72537 2.03437,0.83793c0.32516,0.21261 0.15424,0.25429 -0.77957,0.1876c-0.39187,-0.02501 -1.20895,-0.0667 -1.8176,-0.08755c-2.58466,-0.10005 -5.03174,-0.43355 -7.46215,-1.01718c-0.20844,-0.05003 -0.2668,-0.04586 -0.64616,0.04168c-2.53463,0.59197 -4.69407,0.87128 -7.69561,1.00051c-0.83376,0.03335 -1.68003,0.07504 -1.88013,0.08755c-0.36685,0.02084 -0.52944,-0.02084 -0.4669,-0.12089c0.03335,-0.05419 0.7087,-0.3752 0.9755,-0.46691c0.10422,-0.03335 0.43355,-0.15841 0.72954,-0.27514c0.30016,-0.11673 0.5878,-0.22929 0.64616,-0.25013c0.10839,-0.03335 1.40905,-0.54194 2.90982,-1.12974c0.48358,-0.19176 0.88379,-0.36269 0.88379,-0.37519c0,-0.01668 -0.06253,-0.05003 -0.1334,-0.07921c-0.34184,-0.13757 -1.77174,-0.84627 -2.22197,-1.10474c-0.69619,-0.39603 -1.8301,-1.15476 -2.37621,-1.58831c-0.55028,-0.43772 -1.73005,-1.60916 -2.12192,-2.10108c-1.06721,-1.34652 -1.72589,-2.88481 -1.86346,-4.34389c-0.05837,-0.66284 -0.02501,-1.98018 0.0667,-2.4721c0.03335,-0.18342 0.07921,-0.73788 0.10422,-1.2298c0.11673,-2.43041 0.38353,-4.38558 0.91297,-6.66174l0.16675,-0.71703l-0.11673,-0.49192c-0.17092,-0.7087 -0.24179,-1.02136 -0.3335,-1.48826c-0.04169,-0.22929 -0.09171,-0.47524 -0.10839,-0.54194c-0.0125,-0.07087 -0.03335,-0.18343 -0.04169,-0.25013c-0.0125,-0.07087 -0.05002,-0.31266 -0.08337,-0.54195c-0.03752,-0.22929 -0.10839,-0.76289 -0.16675,-1.18811c-0.08755,-0.66284 -0.1876,-1.10473 -0.70453,-3.14744c-0.3335,-1.309 -0.66701,-2.61384 -0.73788,-2.90566l-0.1334,-0.52944c0,0 1.03284,0.77669 1.46279,1.37191c0.54173,0.74996 1.53041,2.77188 1.53041,2.77188zM239.88536,163.34504c-0.05003,0 -0.21261,0.1334 -0.39603,0.32934c-0.61698,0.642 -1.15059,1.73422 -1.93016,3.94368c-0.12506,0.34184 -0.29182,0.81292 -0.37519,1.0422c-0.08337,0.22929 -0.17509,0.49192 -0.20844,0.58363c-0.24179,0.71703 -0.68368,1.76757 -1.06721,2.53046c-0.35018,0.70453 -0.36269,0.74204 -0.27514,0.75872c0.05003,0.00834 0.42939,0.0667 0.8421,0.12924c0.91297,0.1334 1.83427,0.30849 2.66803,0.50026c0.34601,0.07921 0.68786,0.14591 0.76289,0.14591c0.07504,0 0.32099,-0.04586 0.54194,-0.10005c0.642,-0.16258 2.00936,-0.42939 2.80143,-0.54611c0.40021,-0.05837 0.7879,-0.11673 0.86294,-0.12924l0.1334,-0.02084l-0.17092,-0.30015c-0.40854,-0.71287 -0.90462,-1.89264 -1.44657,-3.42675c-0.1876,-0.52944 -0.3877,-1.09223 -0.44606,-1.25064c-0.82542,-2.272 -1.32985,-3.28501 -1.94683,-3.9145c-0.15424,-0.15424 -0.30432,-0.27514 -0.35018,-0.27514zM233.99068,174.14223c-0.03335,0.00417 -0.10422,0.02918 -0.16258,0.06253c-0.17926,0.09588 -0.58364,0.17926 -1.00468,0.20427c-0.89212,0.05837 -1.38404,0.321 -1.15059,0.61698c0.09171,0.1209 0.55862,0.24179 1.16726,0.30432c0.32934,0.03335 0.70036,0.09588 0.83376,0.14174l0.24179,0.08337l0.82959,-0.38353c0.45857,-0.21261 0.82959,-0.39187 0.83376,-0.40437c0,-0.0125 -0.34184,-0.15841 -0.76289,-0.32516c-0.42105,-0.16258 -0.79207,-0.30016 -0.82542,-0.30016zM245.7717,174.15891c-0.09171,-0.01668 -1.5633,0.55445 -1.5633,0.60447c0,0.02084 0.06253,0.05837 0.13757,0.09172c0.07087,0.02918 0.4419,0.2001 0.81709,0.37936l0.68785,0.32516l0.25013,-0.08754c0.15008,-0.05003 0.49192,-0.11256 0.81708,-0.14174c0.72537,-0.07504 1.14225,-0.19593 1.20895,-0.35435c0.12923,-0.31266 -0.27097,-0.49191 -1.2965,-0.57946c-0.30016,-0.02501 -0.57946,-0.07504 -0.72954,-0.12924c-0.13757,-0.05003 -0.28348,-0.10005 -0.32934,-0.10839zM239.91037,176.56847c-0.10422,-0.00834 -0.16675,0.0125 -0.22095,0.07087c-0.1209,0.1334 -0.23345,0.57112 -0.27931,1.10473c-0.05003,0.62532 -0.08337,0.75455 -0.30015,1.17143c-0.27931,0.53361 -1.01719,1.19228 -1.85095,1.64668c-0.10005,0.05419 -0.17926,0.12506 -0.17926,0.15424c0,0.03335 0.10422,0.35018 0.23345,0.71287c0.12923,0.35852 0.27931,0.77539 0.3335,0.92547c0.4669,1.32985 1.00468,2.5388 1.42156,3.18496c0.19176,0.29598 0.59614,0.75038 0.73371,0.82542c0.11673,0.06253 0.34601,-0.11256 0.64616,-0.48358c0.55862,-0.69619 1.02969,-1.71337 1.84678,-4.00621c0.0667,-0.18342 0.18343,-0.51693 0.2668,-0.73788c0.07921,-0.22095 0.14591,-0.42104 0.14591,-0.43772c0,-0.01668 -0.08754,-0.07921 -0.19593,-0.13757c-0.67534,-0.35435 -1.42991,-0.988 -1.73839,-1.45074c-0.25429,-0.39187 -0.35017,-0.67951 -0.4002,-1.22563c-0.05419,-0.60864 -0.11256,-0.88795 -0.22095,-1.11724c-0.07921,-0.16258 -0.10839,-0.1876 -0.24179,-0.2001zM231.49357,182.80083c-2.08857,0.7879 -3.09742,1.35069 -3.49762,1.95934c-0.07087,0.10422 -0.12923,0.20844 -0.12923,0.22929c0,0.07921 0.65867,0.71703 0.91297,0.88378c0.41271,0.27514 1.31734,0.71287 2.00519,0.97133c0.37519,0.14174 2.07189,0.74205 2.50128,0.88379c0.57529,0.19176 1.4299,0.50442 2.20946,0.80875c0.56279,0.21678 1.90097,0.87962 2.29284,1.13392c0.642,0.41688 1.15059,0.94632 1.39655,1.45908c0.15008,0.31683 0.16675,0.4002 0.22929,1.06304c0.04169,0.48775 0.17092,0.963 0.29598,1.08806c0.10422,0.10422 0.25429,0.10006 0.35852,-0.0125c0.12923,-0.14174 0.25012,-0.61699 0.30015,-1.19228c0.05419,-0.5878 0.13757,-0.87128 0.37936,-1.23813c0.66284,-1.01719 2.17611,-1.87179 5.12762,-2.89315c2.939,-1.02136 3.43092,-1.20479 4.2355,-1.59248c0.82542,-0.40021 1.50077,-0.8963 1.72172,-1.26732l0.08337,-0.14173l-0.11673,-0.15842c-0.38353,-0.52527 -1.12975,-1.01302 -2.29701,-1.50077c-0.50442,-0.21261 -1.30066,-0.51276 -1.3632,-0.51276c-0.02501,0 -0.12089,0.10005 -0.20844,0.21678c-0.82959,1.14225 -2.16361,2.43041 -3.22248,3.13077c-0.75872,0.49608 -1.72171,0.93381 -2.55547,1.15059c-0.72537,0.1876 -1.11724,0.22095 -2.48044,0.20011c-1.12141,-0.01668 -1.32984,-0.02918 -1.6967,-0.10839c-1.2965,-0.28765 -2.62218,-0.94215 -3.75192,-1.85511c-0.74205,-0.60031 -1.80509,-1.71755 -2.35537,-2.4721c-0.17926,-0.25013 -0.23762,-0.28348 -0.37519,-0.23345z" stroke="#000000" stroke-width="1.5"/><path d="M240.1551,176.7151c0.10839,0.22929 0.17091,0.50899 0.22511,1.11763c0.05003,0.54611 0.15751,0.83666 0.4118,1.22853c0.30849,0.46274 1.09494,1.12899 1.77028,1.48334c0.10839,0.05837 0.19699,0.1243 0.19699,0.14098c0,0.01668 -0.0652,0.22428 -0.14441,0.44523c-0.08337,0.22095 -0.20043,0.56999 -0.26713,0.75341c-0.0894,0.25087 -0.17521,0.487 -0.25788,0.70952c-0.67288,1.81123 -1.13753,2.72095 -1.63503,3.34096c-0.30016,0.37102 -0.53712,0.54652 -0.65385,0.48399c-0.13757,-0.07504 -0.55159,-0.5305 -0.74336,-0.82648c-0.41688,-0.64616 -0.99385,-1.88802 -1.46076,-3.21787c-0.05419,-0.15008 -0.20797,-0.58742 -0.3372,-0.94594c-0.12923,-0.36269 -0.23163,-0.69252 -0.23163,-0.72587c0,-0.02918 0.08031,-0.10364 0.18036,-0.15784c0.83376,-0.4544 1.60656,-1.14679 1.88587,-1.68039c0.21678,-0.41688 0.25893,-0.54802 0.30896,-1.17334c0.04586,-0.53361 0.16304,-0.97172 0.28394,-1.10513c0.05419,-0.05837 0.11917,-0.07926 0.22339,-0.07092c0.1334,0.0125 0.16534,0.0376 0.24455,0.20018z" stroke="none" stroke-width="0.5"/><path d="M231.91413,183.06273c0.55028,0.75455 1.61676,1.86538 2.35881,2.46569c1.12974,0.91297 2.35633,1.527 3.65283,1.81465c0.36685,0.07921 0.60706,0.0599 1.72846,0.07658c1.3632,0.02084 1.82411,0.02 2.54948,-0.1676c0.83376,-0.21678 1.69657,-0.61671 2.45529,-1.11279c1.05887,-0.70036 2.39726,-1.97998 3.22686,-3.12223c0.08755,-0.11673 0.27378,-0.27428 0.29879,-0.27428c0.06253,0 0.86165,0.30523 1.36607,0.51784c1.16726,0.48775 1.91716,0.98513 2.30069,1.5104l0.11693,0.15918l-0.08325,0.14222c-0.22095,0.37102 -0.89544,0.87123 -1.72086,1.27143c-0.80458,0.3877 -1.29577,0.57891 -4.23477,1.60026c-2.95151,1.02136 -4.50252,1.92819 -5.16536,2.94538c-0.24179,0.36685 -0.33464,0.65234 -0.38884,1.24014c-0.05003,0.57529 -0.17542,1.05088 -0.30465,1.19263c-0.10422,0.11256 -0.25798,0.11672 -0.3622,0.0125c-0.12506,-0.12506 -0.25858,-0.60063 -0.30027,-1.08838c-0.06253,-0.66284 -0.08508,-0.74723 -0.23516,-1.06405c-0.24596,-0.51276 -0.78508,-1.06187 -1.42707,-1.47875c-0.39187,-0.25429 -1.74074,-0.94392 -2.30353,-1.1607c-0.77957,-0.30432 -1.63441,-0.62543 -2.2097,-0.81719c-0.42939,-0.14174 -2.12568,-0.74644 -2.50087,-0.88818c-0.68785,-0.25847 -1.59194,-0.69944 -2.00466,-0.97458c-0.25429,-0.16675 -0.91231,-0.80748 -0.91231,-0.88669c0,-0.02084 0.05864,-0.12613 0.12951,-0.23035c0.40021,-0.60864 1.41528,-1.18554 3.50385,-1.97344c0.13757,-0.05003 0.28668,0.04021 0.46594,0.29034z" stroke="none" stroke-width="0.5"/><path d="M240.23916,163.56676c0.61698,0.62949 1.16834,1.67826 1.99376,3.95026c0.05837,0.15842 0.26072,0.7478 0.44831,1.27724c0.54195,1.53412 1.02435,2.74152 1.4329,3.45439l0.17029,0.30081l-0.13408,0.02153c-0.07504,0.0125 -0.46792,0.07541 -0.86812,0.13378c-0.79207,0.11673 -2.18628,0.39431 -2.82828,0.55689c-0.22095,0.05419 -0.47282,0.10037 -0.54785,0.10037c-0.07504,0 -0.42522,-0.06737 -0.77123,-0.14658c-0.83376,-0.19176 -1.7799,-0.37779 -2.69287,-0.51119c-0.41271,-0.06253 -0.79699,-0.12532 -0.84701,-0.13365c-0.08755,-0.01668 -0.07743,-0.0568 0.27275,-0.76133c0.38353,-0.76289 0.8149,-1.8324 1.05669,-2.54944c0.03335,-0.09171 0.12303,-0.3638 0.2064,-0.59309c0.08337,-0.22929 0.252,-0.72226 0.37707,-1.0641c0.77957,-2.20946 1.35955,-3.3396 1.97654,-3.9816c0.18342,-0.19593 0.35057,-0.32956 0.4006,-0.32956c0.04586,0 0.19989,0.12102 0.35414,0.27527z" stroke="none" stroke-width="0.5"/></g></g></svg>