<svg version="1.1" xmlns="http://www.w3.org/2000/svg" xmlns:xlink="http://www.w3.org/1999/xlink" width="34.60932" height="33.87028" viewBox="0,0,34.60932,33.87028"><g transform="translate(-132.69177,-83.02695)"><g stroke-linecap="round" stroke-miterlimit="10"><path d="" fill="#ffdc00" stroke="none" stroke-width="3.5"/><path d="" fill="#ffdc00" stroke="#000000" stroke-width="1"/><path d="" fill="#ffdc00" stroke="none" stroke-width="1"/><path d="M138.36693,116.01626l-1.66149,-4.83049h-3.26366v-2.49072h8.90088l0.71207,2.49072h19.28525l4.21308,-4.22667c0,0 0.32409,4.47347 -4.16141,8.92657c-0.04678,0.04644 -0.61803,0.26118 -0.61803,0.26118l-23.2957,-0.0653" fill="#ffffff" stroke="#000000" stroke-width="1.5"/><path d="M136.47365,107.89374v0l14.60844,-24.04059l12.44424,24.8792" fill="none" stroke="#000000" stroke-width="0.8"/><path d="M151.08209,110.93896v-26.98623" fill="none" stroke="#000000" stroke-width="1.5"/><path d="M143.03285,104.84065l-0.93031,0.0095c-0.15483,-0.07863 2.002,-9.35836 -2.23179,-17.69436h0.21721c0.2971,0 19.54885,0 19.54885,0h0.07988c4.2338,8.33601 1.97464,17.69436 1.97464,17.69436z" fill="#ffffff" stroke="#000000" stroke-width="1.5"/></g></g></svg>