<svg version="1.1" xmlns="http://www.w3.org/2000/svg" xmlns:xlink="http://www.w3.org/1999/xlink" width="31.38711" height="37.3554" viewBox="0,0,31.38711,37.3554"><g transform="translate(-224.30645,-161.32231)"><g stroke="#000000"><path d="M240.14753,173.39517c-1.59124,-1.33143 -0.43103,-2.82645 0.14327,-4.82018c0.53372,-1.85288 -1.30026,-4.38682 0.84,-4.42842c2.16273,-0.04203 2.02571,4.20551 3.34964,3.64289c1.09279,-0.46439 -0.67727,-5.12195 1.27838,-5.19539c3.26974,-0.12279 2.21951,4.84085 2.76465,4.63135c2.00747,-0.77148 0.26411,-4.15209 1.32652,-4.83204c1.92199,-1.23007 3.22727,1.40439 3.22727,2.34992c0,2.22537 -0.54655,5.41033 -5.38409,5.07092c-1.69416,-0.11886 -3.50554,-0.33485 -5.32387,0.44952c-1.49356,0.64426 0.30088,2.54319 -1.57471,2.54319z" fill="#ffffff" fill-rule="nonzero" stroke-width="1.5" stroke-linecap="butt" stroke-linejoin="miter" stroke-miterlimit="10"/><path d="M237.33912,172.80694c-1.8756,0 -0.08115,-1.89893 -1.57471,-2.54319c-1.81833,-0.78437 -3.62971,-0.56839 -5.32387,-0.44952c-4.83755,0.3394 -5.38409,-2.84556 -5.38409,-5.07092c0,-0.94553 1.30528,-3.57999 3.22727,-2.34992c1.06241,0.67995 -0.68095,4.06056 1.32652,4.83204c0.54514,0.20951 -0.50509,-4.75414 2.76465,-4.63135c1.95565,0.07344 0.18559,4.731 1.27838,5.19539c1.32393,0.56262 1.18691,-3.68492 3.34964,-3.64289c2.14026,0.0416 0.30628,2.57553 0.84,4.42842c0.5743,1.99373 1.73451,3.48875 0.14326,4.82018z" fill="#ffffff" fill-rule="nonzero" stroke-width="1.5" stroke-linecap="butt" stroke-linejoin="miter" stroke-miterlimit="10"/><path d="" fill="#ffffff" fill-rule="nonzero" stroke-width="1.5" stroke-linecap="round" stroke-linejoin="miter" stroke-miterlimit="4"/><path d="" fill="none" fill-rule="nonzero" stroke-width="0.75" stroke-linecap="round" stroke-linejoin="miter" stroke-miterlimit="10"/><path d="" fill="none" fill-rule="nonzero" stroke-width="0.75" stroke-linecap="round" stroke-linejoin="miter" stroke-miterlimit="10"/><path d="" fill="#ffffff" fill-rule="evenodd" stroke-width="1.5" stroke-linecap="butt" stroke-linejoin="round" stroke-miterlimit="4"/><path d="" fill="none" fill-rule="nonzero" stroke-width="0.75" stroke-linecap="round" stroke-linejoin="miter" stroke-miterlimit="10"/><path d="M242.72382,173.3291c6.31436,0.53375 12.62959,6.50901 12.19889,24.5986h-19.81241c0,-7.75268 8.61409,-5.59915 6.89127,-18.0896" fill="#ffffff" fill-rule="evenodd" stroke-width="1.5" stroke-linecap="round" stroke-linejoin="round" stroke-miterlimit="10"/><path d="M242.86299,179.83812c0.32735,2.50671 -4.50778,6.51242 -6.61823,7.91651c-2.58423,1.72283 -3.46466,2.51623 -5.34255,2.22334c-0.89759,-0.80972 2.1105,-2.45485 0.89592,-2.4204c-0.8614,0 -0.84886,0.95402 -1.87393,1.6173c-0.8614,0 -2.92348,0.33667 -2.9209,-3.97038c0,-0.99531 2.24314,0.23778 3.70002,-2.36785c0.88726,-1.58685 0.15789,-3.27749 0.40292,-5.07895c0.14346,-1.05475 2.50181,-2.78347 2.815,-3.45181c-2.48552,0.12671 -2.42996,-2.74407 -2.42996,-3.60547c0.8614,-0.8614 4.91112,2.24641 4.91112,2.24641c0,0 1.66327,-0.25351 2.62522,-0.29255c0.80309,-0.0326 2.75637,0.07412 2.75637,0.07412c0,0 0.55705,-0.98508 2.032,-1.90014c1.07819,-0.6689 2.53307,-0.78346 3.17961,-0.62948c0.41432,0.49149 -0.1185,1.29984 -0.9502,2.48434c-0.69611,0.99139 -1.95639,1.41049 -1.95639,1.41049" fill="#ffffff" fill-rule="evenodd" stroke-width="1.5" stroke-linecap="round" stroke-linejoin="round" stroke-miterlimit="10"/><path d="M229.70537,186.39812c0,0.23786 -0.19283,0.4307 -0.43071,0.4307c-0.23786,0 -0.4307,-0.19283 -0.4307,-0.4307c0,-0.23786 0.19283,-0.43071 0.4307,-0.43071c0.23786,0 0.43071,0.19283 0.43071,0.43071z" fill="#000000" fill-rule="evenodd" stroke-width="1.5" stroke-linecap="round" stroke-linejoin="round" stroke-miterlimit="10"/><path d="M236.85114,178.97846c-0.35681,0.61801 -0.81306,1.02259 -1.01906,0.90365c-0.20601,-0.11894 -0.08376,-0.71635 0.27306,-1.33437c0.35681,-0.61801 0.81306,-1.02259 1.01906,-0.90365c0.20601,0.11894 0.08376,0.71635 -0.27307,1.33437z" fill="#000000" fill-rule="evenodd" stroke-width="1.5" stroke-linecap="round" stroke-linejoin="round" stroke-miterlimit="10"/><path d="M250.15367,192.21879c0.08482,0.62676 -0.19311,1.18177 -0.62078,1.23964c-0.42767,0.05788 -0.84313,-0.40329 -0.92794,-1.03006c-0.08482,-0.62676 0.19311,-1.18177 0.62078,-1.23964c0.42767,-0.05788 0.84313,0.40329 0.92794,1.03003z" fill="#ffffff" fill-rule="nonzero" stroke-width="1" stroke-linecap="butt" stroke-linejoin="miter" stroke-miterlimit="10"/><path d="M252.83947,194.18566c0.08482,0.62676 -0.1931,1.18177 -0.62077,1.23964c-0.42767,0.05788 -0.84314,-0.40329 -0.92795,-1.03005c-0.08482,-0.62676 0.19311,-1.18176 0.62078,-1.23965c0.42767,-0.05788 0.84313,0.40329 0.92794,1.03003z" fill="#ffffff" fill-rule="nonzero" stroke-width="1" stroke-linecap="butt" stroke-linejoin="miter" stroke-miterlimit="10"/><path d="M252.83947,190.46522c0.08482,0.62676 -0.1931,1.18178 -0.62077,1.23965c-0.42767,0.05788 -0.84314,-0.40329 -0.92795,-1.03006c-0.08482,-0.62676 0.19311,-1.18176 0.62078,-1.23964c0.42767,-0.05788 0.84313,0.40329 0.92794,1.03003z" fill="#ffffff" fill-rule="nonzero" stroke-width="1" stroke-linecap="butt" stroke-linejoin="miter" stroke-miterlimit="10"/></g></g></svg>