<svg version="1.1" xmlns="http://www.w3.org/2000/svg" xmlns:xlink="http://www.w3.org/1999/xlink" width="34.5" height="34.98388" viewBox="0,0,34.5,34.98388"><g transform="translate(-222.75,-162.50806)"><g stroke="#000000"><g><path d="M256.5,195.92771c-0.67705,0.97233 -1.6459,0.98616 -3,0.5c-3.38525,-0.97233 -10.11474,0.45849 -13.5,-1c-3.38526,1.45849 -10.11474,0.02767 -13.5,1c-1.3541,0.48616 -2.32295,0.47233 -3,-0.5c1.3541,-1.45849 3,-2 3,-2c3.38526,-0.97233 10.11474,0.43082 13.5,-2c3.38526,2.43082 10.11474,1.02767 13.5,2c0,0 1.6459,0.05534 3,2z" fill="#ffffff" fill-rule="evenodd" stroke-width="1.5" stroke-linecap="butt" stroke-linejoin="round"/><path d="M247.5,189.92771c-2.5,2.5 -12.5,2.5 -15,0c-0.5,-1.5 0,-2 0,-2h15c0,0 0.5,0.5 0,2z" fill="#ffffff" fill-rule="evenodd" stroke-width="1.5" stroke-linecap="butt" stroke-linejoin="round"/><path d="M247.5,187.92771h-15" fill="none" fill-rule="evenodd" stroke-width="1.5" stroke-linecap="butt" stroke-linejoin="miter"/><g stroke-linecap="round"><path d="M237.84416,165.55433c8.03694,0.76542 12.62947,6.12338 12.24676,22.19725h-17.60471c0,-6.8888 7.65422,-4.97525 6.12338,-16.07387" fill="#ffffff" fill-rule="evenodd" stroke-width="1.5" stroke-linejoin="miter"/><path d="M239.375,171.67771c0.29428,2.22836 -4.25034,5.64011 -6.12338,6.8888c-2.29627,1.53084 -2.15788,3.32415 -3.82711,3.06169c-0.79736,-0.72257 1.08187,-2.32501 0,-2.29627c-0.76542,0 0.14339,0.94279 -0.76542,1.53084c-0.76542,0 -3.06411,0.76542 -3.06169,-3.06169c0,-1.53084 4.59253,-9.18507 4.59253,-9.18507c0,0 1.44348,-1.45593 1.53084,-2.67898c-0.55573,-0.76111 -0.38271,-1.53084 -0.38271,-2.29627c0.76542,-0.76542 2.29627,1.91356 2.29627,1.91356h1.53084c0,0 0.59839,-1.52466 1.91356,-2.29627c0.76542,0 0.76542,2.29627 0.76542,2.29627" fill="#ffffff" fill-rule="evenodd" stroke-width="1.5" stroke-linejoin="round"/><path d="M228.27638,177.41837c0,0.21137 -0.17135,0.38271 -0.38271,0.38271c-0.21137,0 -0.38271,-0.17135 -0.38271,-0.38271c0,-0.21137 0.17135,-0.38271 0.38271,-0.38271c0.21137,0 0.38271,0.17135 0.38271,0.38271z" fill="#000000" fill-rule="nonzero" stroke-width="1.5" stroke-linejoin="round"/><path d="M232.43492,169.9555c-0.31705,0.54914 -0.72246,0.90864 -0.9055,0.80296c-0.18305,-0.10568 -0.07442,-0.63652 0.24263,-1.18567c0.31705,-0.54914 0.72246,-0.90864 0.9055,-0.80296c0.18305,0.10568 0.07442,0.63652 -0.24263,1.18567z" fill="#000000" fill-rule="nonzero" stroke-width="1.5" stroke-linejoin="round"/><path d="M240.14042,165.93704c4.97525,0.76542 9.95049,6.50609 9.18507,21.81454" fill="none" fill-rule="evenodd" stroke-width="1" stroke-linejoin="miter"/></g></g></g></g></svg>