<svg version="1.1" xmlns="http://www.w3.org/2000/svg" xmlns:xlink="http://www.w3.org/1999/xlink" width="29.4829" height="35.83838" viewBox="0,0,29.4829,35.83838"><g transform="translate(-225.25855,-161.65702)"><g stroke="#000000"><path d="M243.25152,181.77611c2.61914,1.17798 6.46925,6.16775 6.46925,14.96929h-20.08002c0,-8.80154 3.85013,-13.79131 6.46925,-14.96929z" fill="#ffffff" stroke-width="1.5" stroke-linecap="round" stroke-miterlimit="4"/><path d="M226.00857,196.70858c0,-3.95788 2.03053,-7.16638 4.5353,-7.16638c2.50478,0 4.5353,3.2085 4.5353,7.16638c0,0 -9.07062,0.1102 -9.07062,0z" fill="#ffffff" stroke-width="1.5" stroke-linecap="butt" stroke-miterlimit="10"/><path d="M229.01254,196.08378v-1.64035" fill="none" stroke-width="0.75" stroke-linecap="round" stroke-miterlimit="10"/><path d="M231.76254,194.44342v1.64035" fill="none" stroke-width="0.75" stroke-linecap="round" stroke-miterlimit="10"/><path d="M244.92085,196.70858c0,-3.95788 2.03053,-7.16638 4.5353,-7.16638c2.50477,0 4.5353,3.2085 4.5353,7.16638c0,0 -9.07062,0.11021 -9.07062,0z" fill="#ffffff" stroke-width="1.5" stroke-linecap="butt" stroke-miterlimit="10"/><path d="M247.92482,196.08377v-1.64035" fill="none" stroke-width="0.75" stroke-linecap="round" stroke-miterlimit="10"/><path d="M250.67482,196.08377v-1.64035" fill="none" stroke-width="0.75" stroke-linecap="round" stroke-miterlimit="10"/><g stroke-miterlimit="10"><path d="M230.12483,176.65398c0,-4.79602 4.25824,-8.68398 9.51102,-8.68398c5.25278,0 9.51101,3.88795 9.51101,8.68398c0,4.79602 -4.25824,8.68397 -9.51101,8.68397c-5.25278,0 -9.51102,-3.88795 -9.51102,-8.68397z" fill="#ffffff" stroke-width="3" stroke-linecap="butt"/><path d="M249.03139,162.56434c1.74732,3.65391 0.83666,12.30106 0.5274,13.0565c-0.30925,0.75546 -2.81162,0.44616 -5.58925,-0.69086c-2.77762,-1.13701 -4.77862,-2.67114 -4.46937,-3.42661c0.30925,-0.75546 5.43591,-7.67677 9.53122,-8.93903z" fill="#ffffff" stroke-width="1.5" stroke-linecap="butt"/><path d="M239.77694,171.76653c0.30925,0.75547 -1.69175,2.2896 -4.46937,3.42661c-2.77762,1.13701 -5.28,1.44631 -5.58925,0.69086c-0.30926,-0.75545 -1.21993,-9.4026 0.5274,-13.0565c4.0953,1.26226 9.22197,8.18357 9.53122,8.93903z" fill="#ffffff" stroke-width="1.5" stroke-linecap="butt"/><path d="M230.12483,176.65398c0,-4.79602 4.25824,-8.68398 9.51102,-8.68398c5.25278,0 9.51102,3.88795 9.51102,8.68398c0,4.79602 -4.25824,8.68398 -9.51102,8.68398c-5.25278,0 -9.51102,-3.88795 -9.51102,-8.68398z" fill="#ffffff" stroke-width="0" stroke-linecap="butt"/><path d="M245.73268,184.31052c0,0 -2.76808,2.82871 -6.18704,-2.00748c-2.95278,4.74495 -6.20604,2.00748 -6.20604,2.00748" fill="none" stroke-width="0.75" stroke-linecap="round"/><path d="M243.49815,177.71722c-0.20629,-0.52131 0.19621,-1.16938 0.89899,-1.4475c0.70279,-0.27811 1.43977,-0.08096 1.64606,0.44035c0.20629,0.52131 -0.19621,1.1694 -0.89899,1.44751c-0.70279,0.27811 -1.43977,0.08096 -1.64606,-0.44036z" fill="#000000" stroke-width="1.5" stroke-linecap="butt"/><path d="M238.164,181.03242c0,-0.62402 0.78578,-0.71724 1.40979,-0.71724c0.62402,0 1.35915,0.09322 1.35915,0.71724c0,0.62402 -0.73514,1.1299 -1.35915,1.1299c-0.62402,0 -1.40979,-0.50587 -1.40979,-1.1299z" fill="#000000" stroke-width="0" stroke-linecap="butt"/><path d="M234.1329,178.12906c-0.70279,-0.27811 -1.10528,-0.92619 -0.89899,-1.44751c0.20629,-0.52131 0.94328,-0.71846 1.64606,-0.44035c0.70279,0.27811 1.10528,0.92618 0.89899,1.4475c-0.20629,0.52132 -0.94328,0.71848 -1.64606,0.44036z" fill="#000000" stroke-width="1.5" stroke-linecap="butt"/><path d="M247.47702,167.09221c0.55238,1.23156 0.17858,4.10501 0.0694,4.35419c-0.10918,0.24917 -0.94035,0.12574 -1.85648,-0.27568c-0.91613,-0.40142 -1.57029,-0.92881 -1.46112,-1.17799c0.10917,-0.24917 1.87353,-2.51333 3.24819,-2.90052z" fill="#ffffff" stroke-width="0.75" stroke-linecap="butt"/><path d="M248.45617,180.96224l-4.92388,0.36667" fill="none" stroke-width="0.75" stroke-linecap="round"/><path d="M243.5801,182.61224l3.44194,0.275" fill="none" stroke-width="0.75" stroke-linecap="round"/><g fill="none" stroke-width="0.75" stroke-linecap="round"><path d="M235.59672,181.32891l-4.92388,-0.36666"/><path d="M232.10697,182.88725l3.44194,-0.275"/></g><path d="M235.04828,170.25589c0.10917,0.24918 -0.54498,0.77657 -1.46112,1.17799c-0.91613,0.40142 -1.7473,0.52485 -1.85648,0.27568c-0.10917,-0.24918 -0.48298,-3.12262 0.06941,-4.35419c1.37466,0.38719 3.13902,2.65135 3.24819,2.90052z" fill="#ffffff" stroke-width="0.75" stroke-linecap="butt"/></g></g></g></svg>