<svg version="1.1" xmlns="http://www.w3.org/2000/svg" xmlns:xlink="http://www.w3.org/1999/xlink" width="37.22769" height="38.78005" viewBox="0,0,37.22769,38.78005"><g transform="translate(-221.38615,-160.60998)"><g fill="#ffffff" stroke="#000000" stroke-width="1.5" stroke-linejoin="round" stroke-miterlimit="10"><path d="M239.89226,161.35998l0.20678,0.00875l0.20387,0.00875l0.16309,0.3786c0.41063,0.94648 1.45614,3.0404 2.85401,5.72259c1.48235,2.84237 1.81144,3.52385 2.08226,4.31597c0.56208,1.6396 0.61157,3.21222 0.14563,4.61885c-0.12524,0.37569 -0.35821,0.85912 -0.84165,1.75319c-0.18639,0.34366 -0.48636,0.91445 -0.664,1.26684l-0.32036,0.64069l0.166,-0.1893c0.0932,-0.10485 0.34948,-0.36696 0.5679,-0.58536c1.42993,-1.40953 3.19767,-2.33564 5.12557,-2.68801c0.63778,-0.11358 0.99599,-0.14563 1.68911,-0.14563c1.29014,0 2.06771,0.16018 3.01419,0.62323c1.86677,0.90863 3.20931,2.73753 3.54131,4.81979c0.0233,0.13106 0.03787,0.48054 0.03787,0.80087c0,0.46305 -0.01166,0.63196 -0.06408,0.91154c-0.39315,2.0881 -1.92501,3.66072 -4.41499,4.53148c-0.28249,0.09903 -1.22899,0.36987 -1.59883,0.45723c-0.08154,0.01748 -0.08154,0.01748 0.12524,-0.39315c0.11358,-0.23008 0.24463,-0.53003 0.29124,-0.66982c0.39899,-1.18529 0.08445,-2.63268 -0.76011,-3.4918c-0.86787,-0.88824 -2.10847,-1.10666 -3.585,-0.62905c-0.75136,0.24463 -1.56971,0.67857 -2.19002,1.17074c-0.35821,0.27957 -1.15326,1.09502 -1.15326,1.17656c0,0.00875 0.08154,0.02621 0.18057,0.03496c0.48927,0.05533 0.81253,0.30579 0.89408,0.69021c0.04078,0.19221 -0.00291,0.39608 -0.13106,0.58536l-0.09903,0.14854l0.15727,0.16309c0.18057,0.19221 0.26211,0.33782 0.32618,0.5912c0.09611,0.36696 -0.03496,0.79505 -0.33491,1.0892l-0.14854,0.14854l0.09903,0.14854c0.19221,0.28542 0.19512,0.59411 0.00875,0.87369c-0.10485,0.15436 -0.31745,0.3087 -0.49509,0.36112c-0.06699,0.01748 -0.23881,0.04078 -0.38442,0.04951l-0.26211,0.01748l0.13106,0.07572c0.57081,0.332 1.37459,0.32909 1.89298,-0.00291c0.41936,-0.26793 0.62614,-0.67857 0.61741,-1.22607c-0.00875,-0.54751 -0.17475,-1.01929 -0.65817,-1.87259c-0.09029,-0.15727 -0.16018,-0.29124 -0.15436,-0.29706c0.00291,-0.00582 0.21551,-0.02912 0.47179,-0.05824c1.48235,-0.15436 2.59192,0.19221 3.39279,1.05715c0.40772,0.43975 0.69021,0.98726 0.83874,1.62214c0.06699,0.28542 0.07572,0.38733 0.07863,0.86203c0,0.58245 -0.02621,0.77757 -0.16309,1.19986c-0.38151,1.18238 -1.31344,2.04441 -2.69385,2.4958c-1.64544,0.53587 -3.50928,0.32036 -4.81397,-0.55915c-0.13397,-0.0932 -0.25045,-0.16018 -0.25629,-0.15436c-0.01748,0.01457 0.11649,0.36112 0.22424,0.57081c0.22715,0.45141 0.38733,0.61157 1.07172,1.06299c0.29124,0.19221 0.53003,0.3553 0.53003,0.36403c0,0.00875 -0.44266,0.00582 -0.98144,-0.00291c-1.04551,-0.02039 -1.25227,-0.04369 -1.68329,-0.19803c-0.09611,-0.03496 -0.19221,-0.06699 -0.2126,-0.0699c-0.02621,-0.00291 -0.07281,0.08154 -0.12233,0.22424c-0.10194,0.26793 -0.31454,0.67857 -0.76011,1.45032c-0.17766,0.3087 -0.41645,0.75429 -0.53003,0.99017l-0.20969,0.43102h-0.1893h-0.19221l-0.08154,-0.16891c-0.12815,-0.2592 -0.4019,-0.73099 -0.74554,-1.27266c-0.5213,-0.82417 -0.70187,-1.1649 -0.80378,-1.51729c-0.03787,-0.13106 -0.05533,-0.15727 -0.0932,-0.13979c-0.5213,0.21842 -0.73099,0.24754 -1.84929,0.27084c-0.52421,0.00875 -0.95232,0.01166 -0.95232,0.00291c0,-0.00875 0.22715,-0.17182 0.50091,-0.36403c0.69021,-0.47763 0.93484,-0.7339 1.18529,-1.23481c0.07863,-0.15436 0.32327,-0.74845 0.32327,-0.78048c0,-0.00582 -0.09611,0.0699 -0.20969,0.166c-0.93775,0.79505 -2.15798,1.22314 -3.46558,1.22314c-0.84747,0 -1.75901,-0.20096 -2.48707,-0.55042c-1.03386,-0.49509 -1.71241,-1.23481 -2.04441,-2.2308c-0.13979,-0.4252 -0.166,-0.61741 -0.166,-1.20859c0.00291,-0.4747 0.01166,-0.57663 0.07863,-0.86203c0.14854,-0.63487 0.43102,-1.18238 0.83874,-1.62214c0.80087,-0.86494 1.91044,-1.2115 3.39279,-1.05715c0.25629,0.02912 0.46887,0.05242 0.47179,0.05824c0.00582,0.00582 -0.06408,0.13979 -0.15436,0.29706c-0.48927,0.86494 -0.65235,1.33381 -0.65526,1.89007c-0.00291,0.42811 0.09903,0.71642 0.34366,0.97853c0.25045,0.26793 0.54751,0.41063 0.97853,0.46887c0.39024,0.05242 0.84165,-0.03787 1.18238,-0.23299l0.13106,-0.07572l-0.19221,-0.03496c-0.10485,-0.02039 -0.25629,-0.0699 -0.33491,-0.11067c-0.26502,-0.13106 -0.4747,-0.44557 -0.4747,-0.70187c0,-0.14854 0.07572,-0.36403 0.17182,-0.48054l0.08736,-0.10776l-0.15436,-0.16018c-0.08445,-0.08736 -0.19512,-0.24463 -0.24754,-0.34948c-0.23299,-0.47179 -0.10485,-1.04551 0.3087,-1.40953l0.10194,-0.09029l-0.10194,-0.13397c-0.34948,-0.45723 -0.09611,-1.07754 0.50382,-1.24063l0.18057,-0.04951l-0.12524,-0.16018c-0.20387,-0.25629 -0.71933,-0.77466 -1.00181,-1.00181c-0.65526,-0.52712 -1.46487,-0.96687 -2.25119,-1.22023c-1.4736,-0.4747 -2.72297,-0.2592 -3.58209,0.62032c-0.84747,0.87078 -1.16199,2.31234 -0.76302,3.50055c0.0466,0.13979 0.17766,0.43975 0.29124,0.66982c0.20678,0.41063 0.20678,0.41063 0.12524,0.39315c-0.36987,-0.08736 -1.31635,-0.35821 -1.59883,-0.45723c-1.01056,-0.3553 -1.86968,-0.82708 -2.57735,-1.4212c-0.97269,-0.81253 -1.60757,-1.88714 -1.83765,-3.1103c-0.05242,-0.27957 -0.06408,-0.44848 -0.06408,-0.91154c0,-0.32036 0.01457,-0.66982 0.03787,-0.80087c0.332,-2.08226 1.67456,-3.91118 3.54131,-4.81979c0.66691,-0.32618 1.28141,-0.50382 2.02402,-0.58536c0.43393,-0.04951 1.55514,-0.04951 1.96577,0c1.91626,0.22424 3.61121,0.93484 5.12557,2.14925c0.57663,0.46014 1.29887,1.21441 1.77356,1.84929c0.0932,0.12524 0.17475,0.22715 0.18057,0.22715c0.04369,0 -0.79505,-1.67747 -1.39498,-2.78704c-0.47763,-0.88242 -0.64653,-1.2552 -0.79505,-1.76774c-0.16309,-0.56208 -0.21842,-0.92902 -0.2359,-1.54932c-0.02912,-1.01056 0.10485,-1.83181 0.4747,-2.8977c0.25336,-0.73099 0.62323,-1.49108 2.23953,-4.61302c1.28723,-2.48416 2.32689,-4.58972 2.68219,-5.42554z"/></g></g></svg>