<svg version="1.1" xmlns="http://www.w3.org/2000/svg" xmlns:xlink="http://www.w3.org/1999/xlink" width="37.23681" height="23.66119" viewBox="0,0,37.23681,23.66119"><g transform="translate(-281.38158,-288.16941)"><g stroke="#000000" stroke-width="1.5" stroke-miterlimit="10"><path d="M306.82129,304.26965c0,3.76158 -3.04936,6.81095 -6.81095,6.81095c-3.76158,0 -6.81095,-3.04936 -6.81095,-6.81095c0,-3.76158 3.04936,-6.81095 6.81095,-6.81095c3.76158,0 6.81095,3.04936 6.81095,6.81095z" fill="#ffffff" stroke-linecap="square" stroke-linejoin="round"/><path d="M284.6857,300.86417v-10.21642l23.83832,-1.70274c10.20791,-0.72877 10.20791,14.35067 0,13.6219z" fill="#ffffff" stroke-linecap="butt" stroke-linejoin="round"/><path d="M287.23981,295.75597c0,2.82119 -1.14352,5.10821 -2.55411,5.10821c-1.41059,0 -2.55411,-2.28702 -2.55411,-5.10821c0,-2.82119 1.14352,-5.10821 2.55411,-5.10821c1.41059,0 2.55411,2.28702 2.55411,5.10821zM310.22676,304.26965c0,3.76158 -3.04936,6.81095 -6.81095,6.81095c-3.76158,0 -6.81095,-3.04936 -6.81095,-6.81095c0,-3.76158 3.04936,-6.81095 6.81095,-6.81095c3.76158,0 6.81095,3.04936 6.81095,6.81095z" fill="#ffffff" stroke-linecap="square" stroke-linejoin="round"/><path d="M313.63223,295.75597c10.21642,3.40547 -1.70274,6.81095 1.70274,11.91916" fill="none" stroke-linecap="butt" stroke-linejoin="miter"/></g></g></svg>