<svg version="1.1" xmlns="http://www.w3.org/2000/svg" xmlns:xlink="http://www.w3.org/1999/xlink" width="480" height="400.82963" viewBox="0,0,480,400.82963"><g transform="translate(0,20.41481)"><g fill="#000000" stroke="none" stroke-miterlimit="10"><path d="M260.2125,-19.14769c31.275,4.0125 58.575,17.8875 82.725,42c22.425,22.3875 35.5875,48.45 39.375,78c1.1625,9.3 1.35,24.3375 0.375,31.575c-2.4,17.7 -7.7625,32.3625 -17.175,46.9875c-4.425,6.8625 -8.55,12.15 -14.8125,19.0125l-3.4875,3.8625h66.375h66.4125v22.3125v22.3125h-94.875h-94.875v-20.775v-20.775l4.8375,-3.4125c15.7875,-11.25 27.0375,-23.925 34.1625,-38.475c6.9375,-14.25 9.675,-27.3 9.2625,-44.4375c-0.225,-9.3375 -0.75,-13.65 -2.6625,-21.375c-3.075,-12.4125 -9.225,-24.6375 -17.7,-35.25c-3.6,-4.5 -12.75,-13.575 -17.2875,-17.175c-20.1375,-15.9 -43.65,-22.875 -69.75,-20.6625c-24.7125,2.0625 -46.8,13.1625 -64.125,32.25c-17.4,19.1625 -25.3875,39.375 -25.35,64.275c0,16.5375 2.5875,28.425 9.075,42c7.05,14.7 18.375,27.5625 34.275,38.8875l4.7625,3.375v20.775v20.775h-94.875h-94.875v-22.3125v-22.3125h66.375c36.525,0 66.375,-0.1125 66.375,-0.225c0,-0.15 -1.2375,-1.5375 -2.7375,-3.1125c-11.25,-11.8125 -20.8125,-26.775 -26.1375,-40.9125c-3.075,-8.1375 -5.1,-16.3125 -6.45,-26.25c-0.6,-4.6125 -0.6375,-21.375 0,-26.8125c2.6625,-23.2875 9.4125,-41.8875 21.9,-60.525c6,-8.925 14.625,-18.7875 23.55,-26.9625c24.8625,-22.7625 52.8375,-34.9875 86.0625,-37.5375c9.1875,-0.7125 21.2625,-0.375 31.275,0.9z"/><path d="M0,336.16481h240h240v22.125v22.125h-240h-240v-22.125z"/></g></g></svg>