<svg version="1.1" xmlns="http://www.w3.org/2000/svg" xmlns:xlink="http://www.w3.org/1999/xlink" width="37.18212" height="37.18212" viewBox="0,0,37.18212,37.18212"><g transform="translate(-221.40893,-161.40894)"><g stroke="#000000" stroke-width="1.5"><path d="" fill="none" fill-rule="evenodd" stroke-linecap="round" stroke-linejoin="miter" stroke-miterlimit="10"/><path d="" fill="none" fill-rule="evenodd" stroke-linecap="round" stroke-linejoin="miter" stroke-miterlimit="4"/><g stroke-miterlimit="10"><g fill-rule="nonzero" stroke-linejoin="miter"><path d="M229.83484,195.01567l3.45452,-21.66457l13.35787,0.30349l3.56542,21.36108z" fill="#ffffff" stroke-linecap="butt"/><path d="M230.81259,192.12551h18.58429" fill="none" stroke-linecap="round"/></g><path d="M229.23887,194.34951h21.52225v2.81096h-21.52225z" fill="#ffffff" fill-rule="evenodd" stroke-linecap="butt" stroke-linejoin="round"/><g fill="none" fill-rule="nonzero" stroke-linecap="round" stroke-linejoin="miter"><path d="M231.90762,174.09372h16.23753"/></g></g><path d="M231.87546,174.12291l8.12745,-6.70477l8.16912,6.59359" fill="#ffffff" fill-rule="evenodd" stroke-linecap="butt" stroke-linejoin="round" stroke-miterlimit="4"/><g><path d="M222.15894,183.68417v-7.22348h10.71168v3.45423h8.84449l0.00001,3.77529z" fill="#ffffff" fill-rule="nonzero" stroke-linecap="butt" stroke-linejoin="round" stroke-miterlimit="10"/><path d="M257.84106,176.22557l-0.00001,7.22347h-10.71164v-3.45423h-8.8445v-3.77529z" fill="#ffffff" fill-rule="nonzero" stroke-linecap="butt" stroke-linejoin="round" stroke-miterlimit="10"/><path d="M236.13528,162.15894h7.22348l-0.00001,10.71167h-3.45424v8.84448h-3.7753z" fill="#ffffff" fill-rule="nonzero" stroke-linecap="butt" stroke-linejoin="round" stroke-miterlimit="10"/><path d="M243.68418,197.84106l-7.22347,-0.00001v-10.71165h3.45422v-8.84448h3.7753z" fill="#ffffff" fill-rule="nonzero" stroke-linecap="butt" stroke-linejoin="round" stroke-miterlimit="10"/><path d="M239.92012,174.13008c3.20922,0 5.81083,2.6016 5.81083,5.81084c0,3.20924 -2.60159,5.81082 -5.81083,5.81082c-3.20922,0 -5.81082,-2.60158 -5.81082,-5.81082c0,-3.20924 2.60158,-5.81084 5.81082,-5.81084z" fill="#ffffff" fill-rule="nonzero" stroke-linecap="butt" stroke-linejoin="round" stroke-miterlimit="10"/><path d="M239.92012,177.46024v5.12909M237.35556,180.02479h5.1291" fill="none" fill-rule="evenodd" stroke-linecap="round" stroke-linejoin="miter" stroke-miterlimit="4"/></g></g></g></svg>