<svg version="1.1" xmlns="http://www.w3.org/2000/svg" xmlns:xlink="http://www.w3.org/1999/xlink" width="426.65428" height="407.17858" viewBox="0,0,426.65428,407.17858"><g transform="translate(-26.67286,23.58929)"><g fill="#000000" stroke="none" stroke-miterlimit="10"><path d="M235.31381,-23.58901c0.73359,-0.06669 5.36858,11.90424 8.7031,22.47467c6.36893,20.07381 12.27104,47.11677 17.07275,78.02778c5.63534,36.34627 9.00321,59.48785 11.00392,75.86034c2.76765,22.70808 4.30153,32.84503 6.50231,43.18204c1.26712,5.9021 3.86804,15.83897 4.16815,15.83897c0.10004,0 0.83363,-1.23377 1.63392,-2.76765c12.80456,-23.87517 30.41083,-41.71485 49.85108,-50.51799c11.00392,-4.96844 21.40762,-7.3026 34.24553,-7.63605c15.6389,-0.40014 27.74321,2.10075 39.9809,8.23627c9.83684,4.96844 19.50694,12.67118 26.80954,21.34093c9.97022,11.83755 15.33879,24.07524 17.60627,40.18097c0.70025,4.96844 0.53352,18.37321 -0.33345,24.00855c-3.00107,19.64033 -10.90388,35.07916 -24.94221,48.91742c-12.73787,12.5378 -26.50944,19.54029 -44.31578,22.50801c-4.66833,0.76694 -21.30759,0.86698 -26.84289,0.13338c-24.90887,-3.20114 -46.88336,-14.07168 -65.42329,-32.3115c-1.96737,-1.93402 -3.66797,-3.43456 -3.76801,-3.33452c-0.13338,0.10004 -2.13409,4.96844 -4.46826,10.83719c-16.53922,41.14798 -29.8773,65.0565 -42.01496,75.22678c-10.67047,8.96986 -24.24196,13.87161 -44.38247,16.10573c-3.76801,0.43349 -9.63676,0.60021 -26.24268,0.70025l-21.44097,0.16673v-13.83826v-13.80491l13.60484,-0.20007c13.97164,-0.20007 18.74001,-0.53352 26.4094,-1.90068c16.17242,-2.90103 27.37641,-8.53637 34.61232,-17.43954c9.83684,-12.10431 22.97485,-41.24802 37.07987,-82.16259l2.0674,-6.03548l-3.20114,-5.96879c-5.40192,-10.07025 -9.50338,-19.70702 -11.33737,-26.54278c-2.23413,-8.26961 -4.33488,-21.40762 -8.03619,-49.98446c-2.46755,-18.90673 -9.00321,-67.99087 -10.53708,-79.12817c-3.50125,-25.40905 -7.43598,-45.64959 -11.97093,-61.38852c-1.73395,-5.93545 -4.5016,-13.83826 -5.73538,-16.30581l-0.70025,-1.30046l-1.13374,1.30046c-4.5016,5.2352 -13.80491,18.50659 -18.84004,26.84289c-18.70666,31.21111 -36.11286,76.39386 -44.08236,114.60747c-4.03477,19.44025 -5.20185,30.44417 -5.50196,52.28528l-0.20007,16.0057h-16.50588h-16.50588l-0.20007,-13.00463c-0.20007,-12.80456 -0.60021,-18.77335 -2.00071,-31.51122c-3.73466,-33.94542 -13.67153,-85.53045 -21.64104,-112.70679c-5.86876,-19.8404 -10.20363,-28.51015 -18.40655,-36.57969c-8.86982,-8.80313 -19.77371,-12.77121 -34.94577,-12.77121h-4.33488v-13.67153v-13.67153h12.93794c7.10253,0 14.93865,0.16673 17.4062,0.33345c19.20684,1.43384 32.47823,9.10324 41.08129,23.80848c1.7673,2.96772 5.10182,10.53708 7.43598,16.70595c7.63605,20.37392 15.10538,50.3846 21.84111,87.69789c0.76694,4.2015 1.43384,7.70274 1.50053,7.76943c0.03335,0.06669 0.56687,-1.96737 1.16708,-4.5016c12.171,-51.95183 31.67794,-94.40028 58.75425,-128.01224l2.96772,-3.70132l5.56865,-1.06705c3.06776,-0.56687 12.77121,-2.46755 21.57435,-4.16815c8.80313,-1.73395 16.17242,-3.13445 16.40584,-3.16779zM344.48601,182.48436c-11.40406,6.10217 -21.40762,15.80563 -30.47752,29.64389c-6.30224,9.63676 -12.80456,22.80812 -17.90638,36.24624l-1.43384,3.73466l3.30118,3.56794c5.9021,6.40228 14.90531,14.37178 21.64104,19.17349c15.33879,10.97057 30.11072,16.53922 45.68293,17.20613c17.97307,0.76694 34.17884,-6.00214 45.54955,-19.04011c7.80278,-8.93651 12.07096,-18.03976 14.20506,-30.37748c0.80028,-4.76836 0.80028,-16.77264 -0.03335,-21.17421c-2.23413,-12.03762 -7.06918,-21.17421 -15.87232,-30.04403c-9.03655,-9.0699 -19.00677,-13.87161 -31.84467,-15.30545c-10.83719,-1.20043 -23.04154,1.16708 -32.81168,6.36893z"/></g></g></svg>