<svg version="1.1" xmlns="http://www.w3.org/2000/svg" xmlns:xlink="http://www.w3.org/1999/xlink" width="57.89615" height="38.73408" viewBox="0,0,57.89615,38.73408"><g transform="translate(-196.76537,-162.57332)"><g stroke="#000000" stroke-miterlimit="10"><path d="M253.19229,168.93762l-0.20945,0.19568c-0.25079,0.23426 -0.43544,0.50434 -0.65317,0.94805c-0.52639,1.08586 -0.87639,2.37564 -0.926,3.41739c-0.02756,0.58702 0.07164,1.32284 0.29764,2.18822c0.15985,0.62284 0.33348,1.1327 0.86538,2.5658c0.54569,1.46066 0.67522,1.83547 0.86813,2.47761c0.52363,1.75278 0.66969,3.18037 0.48229,4.70717c-0.25356,2.0642 -1.01694,4.11189 -2.04216,5.47884c-1.02798,1.37246 -2.59061,2.47485 -4.37922,3.09218c-0.86812,0.29764 -1.4634,0.40237 -2.96264,0.51812c-1.18782,0.09095 -1.60948,0.14884 -2.1276,0.28939c-0.45749,0.12677 -0.70002,0.2122 -1.01144,0.36102c-0.54569,0.25905 -0.81576,0.50709 -1.10514,1.02246c-0.25907,0.46025 -0.28112,0.49607 -0.30592,0.47127c-0.01102,-0.01102 -0.10472,-0.17088 -0.20669,-0.35276c-0.09921,-0.18188 -0.22323,-0.38858 -0.2756,-0.45748c-0.33072,-0.45197 -0.90671,-0.7689 -1.90712,-1.0445c-0.51812,-0.14057 -0.93978,-0.19844 -2.1276,-0.28939c-1.49924,-0.11575 -2.09176,-0.22047 -2.96541,-0.52087c-1.67011,-0.57323 -3.19967,-1.61498 -4.20283,-2.86068c-1.27602,-1.58466 -2.16619,-4.13117 -2.28194,-6.53988c-0.06613,-1.34766 0.16537,-2.75319 0.74963,-4.50598c0.09645,-0.29489 0.39408,-1.12167 0.66142,-1.83271c0.26457,-0.71379 0.54569,-1.48821 0.62285,-1.72523c0.39133,-1.19884 0.5815,-2.2654 0.54567,-3.04257c-0.05236,-1.04451 -0.39961,-2.32878 -0.926,-3.41739c-0.21772,-0.44371 -0.40237,-0.71379 -0.65316,-0.94805l-0.20946,-0.19568z" fill="#ffffff" fill-rule="nonzero" stroke-width="1.5" stroke-linecap="butt" stroke-linejoin="bevel"/><path d="M227.43439,168.8001v-5.47678h4.38142v2.19071h5.47677v-2.19071h5.47679v2.19071h5.47677v-2.19071h4.38143v5.47678" fill="#ffffff" fill-rule="evenodd" stroke-width="1.5" stroke-linecap="butt" stroke-linejoin="round"/><path d="M226.30985,187.12892h27.29101" fill="none" fill-rule="nonzero" stroke-width="1" stroke-linecap="round" stroke-linejoin="miter"/><path d="M227.43439,178.03413h25.19318" fill="none" fill-rule="nonzero" stroke-width="1" stroke-linecap="round" stroke-linejoin="miter"/><path d="M239.95535,169.67134v8.36822" fill="none" fill-rule="nonzero" stroke-width="1" stroke-linecap="round" stroke-linejoin="miter"/><path d="M233.57124,178.23246v8.36822" fill="none" fill-rule="nonzero" stroke-width="1" stroke-linecap="round" stroke-linejoin="miter"/><path d="M246.42876,178.1626v8.36822" fill="none" fill-rule="nonzero" stroke-width="1" stroke-linecap="round" stroke-linejoin="miter"/><path d="M239.95535,187.23056v8.36822" fill="none" fill-rule="nonzero" stroke-width="1" stroke-linecap="round" stroke-linejoin="miter"/><path d="M197.74882,189.44452c-0.03178,-4.02004 2.29676,-5.43283 2.33222,-7.64631c0.04808,-3.00173 -2.17335,-3.76446 -2.17335,-3.76446l1.04331,-1.64492l18.76132,0.02381l0.97451,1.6509c0,0 -2.1578,0.80489 -1.95865,3.69742c0.15564,2.26059 2.6205,3.56694 2.57238,7.68355c-0.04737,4.05298 -5.31763,5.39367 -7.88791,6.63385c-2.52172,1.21675 -3.1191,2.94357 -3.1191,2.94357c0,0 -0.65963,-1.8908 -3.12314,-2.95957c-2.77373,-1.20335 -7.38982,-2.59782 -7.42159,-6.61785z" fill="#ffffff" fill-rule="nonzero" stroke-width="1.5" stroke-linecap="butt" stroke-linejoin="miter"/><path d="M199.33694,176.29223v-3.9672h3.17376v1.58688h3.9672v-1.58688h3.96721v1.58688h3.9672v-1.58688h3.17377v3.9672" fill="#ffffff" fill-rule="evenodd" stroke-width="1.5" stroke-linecap="butt" stroke-linejoin="round"/></g></g></svg>