<svg version="1.1" xmlns="http://www.w3.org/2000/svg" xmlns:xlink="http://www.w3.org/1999/xlink" width="37.09873" height="34.03146" viewBox="0,0,37.09873,34.03146"><g transform="translate(-221.9906,-162.32931)"><g fill="#ffffff" stroke="#000000" stroke-width="1.5" stroke-miterlimit="10"><path d="M239.99366,163.07933c0.05799,-0.00305 0.66229,0.43339 1.2147,0.87288c3.85164,3.08559 6.30241,7.5629 6.83347,12.47664c0.09767,0.93391 0.13123,2.14252 0.07936,2.96961l-0.01831,0.31131l0.5341,0.28689c1.19028,0.63482 2.25544,1.34899 3.21987,2.15472c3.52813,2.9452 5.82325,7.0349 6.48249,11.55188c0.0763,0.52495 0.15565,1.29711 0.13429,1.34594c-0.01527,0.04273 -0.65924,0.33878 -1.2147,0.56157c-1.50159,0.59819 -3.19546,1.02243 -4.80693,1.2025c-1.44055,0.16176 -3.20462,0.14039 -4.62381,-0.06105c-2.65831,-0.37234 -5.14875,-1.29405 -7.45607,-2.76512l-0.3754,-0.23806l-0.37234,0.23806c-2.2646,1.45276 -4.78861,2.38973 -7.45303,2.76512c-1.41308,0.20143 -3.18326,0.22279 -4.62381,0.06105c-1.6084,-0.18006 -3.30839,-0.6043 -4.80693,-1.2025c-0.55546,-0.22279 -1.19944,-0.51884 -1.2147,-0.56157c-0.00916,-0.02136 0.00305,-0.23501 0.02747,-0.47917c0.36929,-3.77534 1.8892,-7.33704 4.35828,-10.2212c1.5962,-1.86173 3.6258,-3.44877 5.80188,-4.5414l0.18312,-0.09156l-0.01831,-0.31435c-0.05189,-0.8332 -0.01831,-2.03874 0.07936,-2.97267c0.56768,-5.25252 3.30839,-9.95873 7.61477,-13.07179c0.21059,-0.15261 0.39981,-0.27773 0.42118,-0.27773zM239.99977,167.83742c-0.03663,0 -0.70502,0.70196 -0.97054,1.02243c-2.15472,2.58506 -3.32365,5.63708 -3.47319,9.05838l-0.02136,0.48222l0.07325,-0.01527c0.46696,-0.10987 0.68671,-0.15565 1.12009,-0.23195c1.16282,-0.20448 2.01738,-0.27773 3.25651,-0.27773c1.55653,0 2.91773,0.15565 4.40711,0.50663l0.07325,0.01831l-0.02136,-0.48222c-0.05189,-1.19333 -0.19228,-2.15166 -0.47612,-3.25956c-0.61651,-2.38973 -1.91666,-4.73062 -3.59833,-6.46111c-0.19228,-0.19839 -0.35709,-0.36014 -0.36929,-0.36014zM239.38937,181.57455c-0.66534,0.02747 -1.42224,0.10987 -2.06012,0.22584c-0.43644,0.07936 -1.26048,0.27162 -1.28795,0.30215c-0.04273,0.04273 0.27773,1.07126 0.54021,1.72745c0.75079,1.87088 1.7305,3.3969 3.1039,4.83133l0.31435,0.32962l0.31435,-0.32962c1.20555,-1.26048 2.11199,-2.60032 2.84448,-4.20569c0.32962,-0.72638 0.86372,-2.29207 0.79963,-2.3531c-0.02747,-0.03052 -0.85151,-0.22279 -1.28795,-0.30215c-0.63787,-0.11598 -1.37036,-0.19839 -1.96856,-0.2167c-0.29299,-0.00611 -0.57377,-0.01831 -0.62566,-0.02136zM232.5559,183.55835c-0.06105,0.00611 -1.05905,0.66229 -1.41919,0.93697c-2.45688,1.85257 -4.24536,4.3125 -5.20063,7.16309c-0.08545,0.25026 -0.18923,0.58599 -0.23195,0.74165l-0.0763,0.28384l0.06714,0.02442c0.14039,0.05494 1.02853,0.24721 1.47107,0.32046c0.72638,0.12208 1.28489,0.17397 2.12115,0.19228c2.27985,0.05189 4.3949,-0.3815 6.5008,-1.33374c0.46696,-0.21364 1.2208,-0.61651 1.2208,-0.65924c0,-0.01527 -0.04883,-0.07936 -0.10987,-0.13734c-0.17397,-0.16481 -0.71418,-0.78437 -1.02853,-1.17808c-1.36425,-1.71829 -2.44772,-3.73261 -3.11915,-5.81714c-0.09767,-0.29604 -0.18312,-0.54021 -0.19533,-0.53715zM247.43448,183.5553c-0.00611,0 -0.08851,0.24415 -0.18617,0.54021c-0.67145,2.08452 -1.7549,4.09886 -3.11915,5.81714c-0.31435,0.39371 -0.85457,1.01327 -1.02853,1.17808c-0.06105,0.05799 -0.10987,0.12208 -0.10987,0.13734c0,0.04273 0.75385,0.44559 1.2208,0.65924c2.1059,0.95222 4.22094,1.38561 6.5008,1.33374c0.83625,-0.01831 1.39477,-0.0702 2.12115,-0.19228c0.44254,-0.07325 1.33069,-0.26553 1.47107,-0.32046l0.06714,-0.02442l-0.0763,-0.28384c-0.42118,-1.54737 -1.20555,-3.19546 -2.16693,-4.55667c-1.14756,-1.62367 -2.73155,-3.1039 -4.40711,-4.12022c-0.15261,-0.09156 -0.28078,-0.16786 -0.28689,-0.16786z"/></g></g></svg>