<svg version="1.1" xmlns="http://www.w3.org/2000/svg" xmlns:xlink="http://www.w3.org/1999/xlink" width="23.26996" height="30.40755" viewBox="0,0,23.26996,30.40755"><g transform="translate(-233.52583,-156.73063)"><g fill="#ffffff" stroke="#000000" stroke-width="1.5" stroke-miterlimit="10"><path d="M244.65804,157.52186c0.73172,-0.16107 1.50256,0.15878 1.92365,0.80076c0.16337,0.25312 0.29683,0.6604 0.29683,0.91581c0,0.07594 0.00461,0.08054 0.08054,0.08054c0.25542,0 0.6627,0.13346 0.91581,0.29683c0.40268,0.26462 0.665,0.63969 0.80076,1.14131c0.04142,0.14496 0.04142,0.6742 0,0.81686c-0.2186,0.78925 -0.80996,1.31159 -1.59231,1.41053l-0.20479,0.02531v1.83621v1.83621h1.83621h1.83621l0.02531,-0.21399c0.09895,-0.82606 0.72712,-1.47725 1.55319,-1.60611c0.18178,-0.02761 0.54534,-0.01381 0.69721,0.02531c0.72482,0.19788 1.23565,0.73402 1.37831,1.45424c0.02071,0.09664 0.03682,0.21169 0.03682,0.25541v0.07823l0.16107,0.01611c0.82147,0.07593 1.47956,0.6719 1.64293,1.49106c0.15877,0.78695 -0.25311,1.61991 -0.99174,1.99268c-0.14036,0.07133 -0.47171,0.16337 -0.65119,0.17948l-0.15417,0.01611l-0.01611,0.15417c-0.0069,0.08514 -0.03911,0.24621 -0.07363,0.35896c-0.26001,0.8997 -1.18733,1.46805 -2.09853,1.28397c-0.80536,-0.16108 -1.38752,-0.78695 -1.48416,-1.59231l-0.02531,-0.21169h-1.83621h-1.83621v5.52015v5.51785l0.16797,0.01611c0.71562,0.06672 1.33229,0.54764 1.5693,1.22874c0.27842,0.79615 -0.02761,1.67744 -0.74093,2.14685c-0.25312,0.16337 -0.6604,0.29683 -0.91581,0.29683c-0.07594,0 -0.08054,0.00461 -0.08054,0.08054c0,0.12425 -0.06443,0.41878 -0.12886,0.59366c-0.07823,0.20249 -0.2439,0.4533 -0.41418,0.62358c-0.71792,0.71792 -1.87763,0.71792 -2.59555,0c-0.30834,-0.30603 -0.49472,-0.70411 -0.53384,-1.1367l-0.01611,-0.16107h-0.07823c-0.11965,0 -0.41648,-0.06443 -0.58906,-0.12886c-0.4418,-0.16797 -0.87209,-0.59596 -1.03546,-1.03776c-0.08974,-0.23931 -0.10814,-0.32214 -0.12195,-0.55915c-0.06443,-0.99404 0.6719,-1.85462 1.66594,-1.94666l0.16567,-0.01611v-5.51785v-5.52015h-1.83852h-1.83621l-0.01611,0.16107c-0.05522,0.56145 -0.35435,1.06077 -0.82146,1.37141c-0.72482,0.48092 -1.69125,0.38427 -2.30792,-0.2347c-0.14037,-0.14037 -0.27152,-0.31985 -0.35436,-0.48552c-0.07133,-0.14036 -0.16337,-0.47171 -0.17948,-0.65119l-0.01611,-0.15417l-0.15417,-0.01611c-0.17948,-0.01611 -0.51083,-0.10815 -0.65119,-0.17948c-0.29223,-0.14726 -0.57525,-0.40498 -0.74553,-0.6811c-0.53154,-0.85368 -0.28303,-1.96047 0.56375,-2.51502c0.24851,-0.16337 0.52924,-0.26002 0.83297,-0.28763l0.16107,-0.01611v-0.07823c0,-0.11045 0.06213,-0.40958 0.11735,-0.55915c0.2232,-0.61207 0.79385,-1.07227 1.45194,-1.17582c0.18178,-0.02761 0.54534,-0.01381 0.69721,0.02531c0.78695,0.21399 1.32769,0.84447 1.40592,1.63372l0.01611,0.16107h1.83621h1.83852v-1.83621v-1.83621l-0.20479,-0.02531c-0.41418,-0.05292 -0.79845,-0.2347 -1.08378,-0.51773c-0.24391,-0.24161 -0.40728,-0.52694 -0.51083,-0.8928c-0.0161,-0.05982 -0.02761,-0.2324 -0.02761,-0.41418c0,-0.31984 0.0138,-0.39808 0.11735,-0.6742c0.16567,-0.4418 0.59366,-0.86979 1.03546,-1.03776c0.17258,-0.06443 0.46941,-0.12886 0.58906,-0.12886h0.07823l0.01611,-0.16107c0.05062,-0.56605 0.35666,-1.06767 0.83757,-1.38291c0.19558,-0.12885 0.35896,-0.19558 0.61437,-0.25311z"/></g></g></svg>