<svg version="1.1" xmlns="http://www.w3.org/2000/svg" xmlns:xlink="http://www.w3.org/1999/xlink" width="41.19399" height="38.63223" viewBox="0,0,41.19399,38.63223"><g transform="translate(-219.40294,-160.68388)"><g stroke="#000000" stroke-width="1.5" stroke-miterlimit="10"><path d="M251.91502,192.7714c0,0.49598 -0.48111,0.96393 -1.33328,1.37641c0.89518,0.42042 1.40232,0.9001 1.40232,1.40932c0,1.66182 -5.40121,3.00899 -12.06395,3.00899c-6.66274,0 -12.06396,-1.34717 -12.06396,-3.00899c0,-0.49598 0.48112,-0.96393 1.33329,-1.37641c-0.89518,-0.42042 -1.40233,-0.9001 -1.40233,-1.40932c0,-1.66182 5.40122,-3.00899 12.06396,-3.00899c6.66274,0 12.06395,1.34717 12.06395,3.00899z" fill="#ffffff" stroke-linecap="butt" stroke-linejoin="miter"/><path d="M240.37456,162.89132c0.24708,1.40232 0.67751,2.62807 1.18763,3.37598c0.19926,0.29085 0.74925,0.93488 1.23546,1.43349l0.87677,0.91411l-0.54997,0.95566c-0.58982,1.01798 -1.43473,3.12667 -1.57819,3.9369c-0.20723,1.15303 -0.03188,2.65923 0.43838,3.83303c0.47027,1.1738 1.1159,1.76588 2.00862,1.83861c0.43839,0.04155 0.56592,0.01038 1.01227,-0.28047c2.04847,-1.31922 2.47092,-5.64047 0.89272,-9.06838l-0.27101,-0.57131l0.52606,-0.12466c1.78544,-0.42589 3.02089,-2.28527 4.24041,-6.34682l0.28695,-0.97644l0.04782,2.37877c0.04782,2.57613 0.12753,3.2617 0.50216,4.23814c0.23115,0.5921 0.89271,1.72434 1.18763,2.02559l0.19129,0.19736l-0.72533,0.76868c-0.87678,0.93489 -1.57819,1.99442 -1.92093,2.89814c-0.24708,0.65442 -0.25506,0.70636 -0.27897,2.28528c-0.01594,0.98683 0.00796,1.82823 0.06376,2.17102c0.18332,1.0907 0.93257,1.74511 1.89703,1.65162c0.62171,-0.06232 1.0043,-0.32201 1.57022,-1.06992c0.53403,-0.70636 0.9246,-1.62047 1.12386,-2.64884c0.23912,-1.24651 0.01593,-3.13705 -0.49419,-4.1031c-0.17536,-0.34279 -0.17535,-0.37396 -0.04782,-0.43628c1.63399,-0.74791 2.61438,-1.40232 3.41145,-2.29566c1.73407,-1.68087 2.62235,-2.90852 2.63829,-2.88775c0.01594,0.01039 -1.4666,3.73953 -3.29189,8.27892c-1.72492,4.28976 -3.19357,7.9487 -3.4037,8.46965c0.53542,0.23429 1.57958,1.05277 1.52416,1.74348c-0.07119,0.88736 -1.40672,1.44622 -1.40672,1.44622l-2.18335,4.0391h-22.01769l-2.41899,-3.77308c0,0 -1.28783,-0.84829 -1.3885,-1.67575c-0.09372,-0.77027 0.97551,-1.51327 1.57002,-1.77799c0.03563,-0.01604 0.07146,-0.03202 0.10751,-0.04792c-0.21439,-0.43069 -0.63185,-1.46028 -1.54013,-3.72852c-2.51077,-6.26373 -4.14475,-10.32528 -4.72661,-11.76916l-0.5181,-1.28806c0,0 1.19684,1.26154 1.93687,2.10869c1.53834,1.73473 1.95281,2.07752 3.43536,2.80465c0.42245,0.20775 0.77316,0.39473 0.78113,0.4259c0.00797,0.03116 -0.11159,0.40512 -0.26304,0.8414c-0.58982,1.5893 -0.57389,3.28249 0.03985,4.87179c0.40651,1.05954 0.90866,1.77628 1.5224,2.17101c0.97242,0.64403 2.08035,0.30124 2.55062,-0.76868c0.17536,-0.39473 0.18332,-0.51938 0.18332,-2.44109v-2.02559l-0.23115,-0.60248c-0.39853,-1.02838 -1.3869,-2.39953 -2.39918,-3.36559l-0.23911,-0.21814l0.40651,-0.56093c1.1956,-1.64124 1.4666,-2.80465 1.48254,-6.40915c0.00797,-1.03876 0.01594,-1.86978 0.03188,-1.85938c0.00797,0.02077 0.16738,0.50899 0.34274,1.10109c1.1956,3.89535 2.43107,5.71319 4.18461,6.14946l0.51012,0.12465l-0.23912,0.52978c-0.54997,1.21535 -0.9246,2.77349 -0.98836,4.12388c-0.1355,2.69039 1.04415,5.08993 2.59844,5.26652c1.54631,0.18698 2.78974,-1.88016 2.78974,-4.64326c0,-1.35039 -0.51012,-2.87736 -1.63399,-4.93411c-0.28695,-0.51937 -0.51013,-0.96605 -0.49419,-0.99721c0.00797,-0.03116 0.3826,-0.44666 0.82896,-0.91411c0.44636,-0.46744 0.9804,-1.0907 1.17966,-1.39194c0.64562,-0.95566 1.03619,-2.20217 1.42675,-4.57055c0.05579,-0.29085 0.1913,-0.38434 0.23912,-0.15581z" fill="#ffffff" stroke-linecap="butt" stroke-linejoin="round"/><path d="M226.92747,183.75677c0,0 4.13097,-2.45745 12.79534,-2.62128c8.78866,-0.16618 13.11898,2.62128 13.11898,2.62128" fill="none" stroke-linecap="round" stroke-linejoin="miter"/><path d="M237.87923,184.49248l2.20085,-7.13658l2.20085,7.13658l7.13658,2.20085l-7.13658,2.20086l-2.20085,7.13658l-2.20085,-7.13658l-7.13659,-2.20086z" fill="#ffffff" stroke-linecap="butt" stroke-linejoin="round"/></g></g></svg>