<svg version="1.1" xmlns="http://www.w3.org/2000/svg" xmlns:xlink="http://www.w3.org/1999/xlink" width="33.52896" height="33.5" viewBox="0,0,33.52896,33.5"><g transform="translate(-223.23551,-163.25)"><g fill-rule="evenodd" stroke="#000000" stroke-width="1.5" stroke-linecap="round" stroke-linejoin="round" stroke-miterlimit="10"><path d="M239.98552,167c10.5,1 16.5,8 16,29h-23c0,-9 10,-6.5 8,-21" fill="#ffffff"/><path d="M241.98552,175c0.38,2.91 -5.55,7.37 -8,9c-3,2 -2.82,4.34 -5,4c-1.042,-0.94 1.41,-3.04 0,-3c-1,0 0.19,1.23 -1,2c-1,0 -4.003,1 -4,-4c0,-2 6,-12 6,-12c0,0 1.89,-1.9 2,-3.5c-0.73,-0.994 -0.5,-2 -0.5,-3c1,-1 3,2.5 3,2.5h2c0,0 0.78,-1.992 2.5,-3c1,0 1,3 1,3" fill="#ffffff"/><path d="M227.48552,182.5c0,0.27614 -0.22386,0.5 -0.5,0.5c-0.27614,0 -0.5,-0.22386 -0.5,-0.5c0,-0.27614 0.22386,-0.5 0.5,-0.5c0.27614,0 0.5,0.22386 0.5,0.5z" fill="#000000"/><path d="M232.91851,172.7501c-0.41421,0.71744 -0.94387,1.18711 -1.18301,1.04904c-0.23915,-0.13807 -0.09723,-0.8316 0.31699,-1.54904c0.41421,-0.71744 0.94387,-1.18711 1.18301,-1.04904c0.23915,0.13807 0.09723,0.8316 -0.31699,1.54904z" fill="#000000"/><path d="M241.98552,175c0.38,2.91 -5.55,7.37 -8,9c-3,2 -2.82,4.34 -5,4c-0.60273,-0.54373 -0.31848,-1.44098 -1,-1c-1,0 -4.003,1 -4,-4c0,-1.18778 3.17258,-6.98284 3.17258,-6.98284c0,0 4.43056,0.64554 7.06022,0.36956c1.35209,-0.1419 2.40322,-2.38173 2.48645,-2.59342c1.88051,-4.78273 -5.50675,-4.6183 -5.50675,-4.6183c0,0 0.6775,-0.075 0.7875,-1.675c-0.73,-0.994 -0.5,-2 -0.5,-3c1,-1 3,2.5 3,2.5h2c0,0 0.78,-1.992 2.5,-3c1,0 1,3 1,3l3.0341,0.44892z" fill="#ff0000"/></g></g></svg>