<svg version="1.1" xmlns="http://www.w3.org/2000/svg" xmlns:xlink="http://www.w3.org/1999/xlink" width="33.591" height="37.78563" viewBox="0,0,33.591,37.78563"><g transform="translate(-223.05022,-161.15842)"><g fill="#000000" stroke="#000000" stroke-width="1.5" stroke-miterlimit="10"><path d="M243.22951,167.96829c-0.11117,1.73812 -0.18798,3.06315 -0.18798,3.06315l0.71878,0.30963c0.39809,0.16587 1.10583,0.56397 1.58133,0.88466c0.4755,0.32069 0.88466,0.58608 0.91783,0.58608c0.02211,0 1.21641,-0.76301 2.64292,-1.70297c2.13425,-1.39334 2.72033,-1.73614 3.21796,-1.83567c1.54816,-0.32069 3.0742,0.43127 3.77087,1.85778c0.2654,0.5308 0.30963,0.76302 0.29858,1.51499c0,0.72984 -0.04423,0.98418 -0.28751,1.43757c-0.15481,0.29857 -0.45338,0.70773 -0.6635,0.89572c-0.19904,0.19904 -1.60344,0.97313 -3.11843,1.7472l-2.74244,1.39334l-0.02211,1.86885l-0.01105,1.86884l2.6761,1.33805c1.57027,0.77407 2.86409,1.50392 3.12948,1.73614c1.0616,0.96207 1.38229,2.64292 0.7409,3.93674c-0.7409,1.50392 -2.56552,2.3333 -4.01414,1.81356c-0.24328,-0.07741 -1.60344,-0.91783 -3.04101,-1.85778l-2.59869,-1.71403l-0.71878,0.5308c-0.38704,0.29857 -1.10583,0.71879 -1.59239,0.93996l-0.88466,0.3981l0.18798,3.06314c0.12164,2.06789 0.14376,3.2069 0.07741,3.52758c-0.6082,2.8088 -4.2906,3.57181 -6.03781,1.26064c-0.68561,-0.90678 -0.7409,-1.31592 -0.54185,-4.44541c0.09953,-1.51499 0.17693,-2.90833 0.17693,-3.08525c0,-0.30963 -0.06634,-0.36493 -0.90677,-0.76302c-0.50868,-0.24328 -1.21642,-0.65244 -1.58133,-0.9289l-0.67455,-0.49761l-2.31117,1.5371c-1.28276,0.84043 -2.56552,1.65874 -2.87514,1.82461c-1.55922,0.80726 -3.50547,0.14376 -4.4233,-1.52604c-0.29857,-0.5308 -0.33175,-0.69668 -0.33175,-1.5371c0,-0.7962 0.04423,-1.01735 0.29858,-1.50392c0.4755,-0.90678 1.0063,-1.27171 3.91463,-2.73139l2.70927,-1.34911l-0.07741,-0.43128c-0.08847,-0.56397 -0.08847,-2.22271 0,-2.78668l0.07741,-0.43127l-2.79774,-1.4044c-2.98572,-1.49287 -3.46123,-1.82461 -3.89251,-2.74244c-0.36493,-0.77407 -0.33175,-2.0679 0.07741,-2.89726c0.59714,-1.20534 1.68086,-1.89096 3.00785,-1.90201c1.02841,-0.01105 1.43757,0.18799 4.19108,2.02366c1.19429,0.80726 2.25589,1.49285 2.3333,1.51498c0.08847,0.03318 0.4755,-0.16587 0.8736,-0.44232c0.38704,-0.28751 1.08372,-0.68562 1.54816,-0.90678c0.77407,-0.35387 0.84043,-0.40916 0.84043,-0.70773c0,-0.18799 -0.07741,-1.58132 -0.17693,-3.09631c-0.15481,-2.52129 -0.15481,-2.8088 0,-3.36171c0.32069,-1.09477 1.27171,-2.04577 2.35542,-2.34435c0.65244,-0.18799 1.68085,-0.11059 2.31117,0.17692c0.63032,0.28751 1.1724,0.65807 1.59237,1.44862c0.72477,1.36429 0.35664,2.66115 0.24323,4.43433z"/></g></g></svg>