<svg version="1.1" xmlns="http://www.w3.org/2000/svg" xmlns:xlink="http://www.w3.org/1999/xlink" width="32.68372" height="34.18012" viewBox="0,0,32.68372,34.18012"><g transform="translate(-223.65814,-162.90994)"><g data-paper-data="{&quot;isPaintingLayer&quot;:true}" stroke="#000000" stroke-dasharray="" stroke-dashoffset="0" style="mix-blend-mode: normal"><path d="M228.86325,193.94466c0,0 6.00168,-7.43896 11.21655,-7.43896c5.21487,0 11.50714,7.43896 11.50714,7.43896c0,0 -0.0747,2.40265 -11.56526,2.39538c-10.77438,-0.00682 -11.15843,-2.39538 -11.15843,-2.39538z" fill="#ffffff" fill-rule="nonzero" stroke-width="1.5" stroke-linecap="butt" stroke-linejoin="miter" stroke-miterlimit="10"/><path d="" data-paper-data="{&quot;index&quot;:null}" fill="#ffffff" fill-rule="nonzero" stroke-width="1.5" stroke-linecap="round" stroke-linejoin="miter" stroke-miterlimit="4"/><path d="" fill="none" fill-rule="nonzero" stroke-width="0.75" stroke-linecap="round" stroke-linejoin="miter" stroke-miterlimit="10"/><path d="" fill="none" fill-rule="nonzero" stroke-width="0.75" stroke-linecap="round" stroke-linejoin="miter" stroke-miterlimit="10"/><path d="" fill="#ffffff" fill-rule="evenodd" stroke-width="1.5" stroke-linecap="butt" stroke-linejoin="round" stroke-miterlimit="4"/><path d="" fill="none" fill-rule="nonzero" stroke-width="0.75" stroke-linecap="round" stroke-linejoin="miter" stroke-miterlimit="10"/><g><path d="M224.40814,174.69582c0,-6.09495 6.98072,-11.03588 15.59186,-11.03588c8.61115,0 15.59186,4.94092 15.59186,11.03588c0,4.61017 -10.25184,12.92814 -10.25184,12.92814l-9.9735,-0.07867c0,0 -10.95838,-7.89653 -10.95838,-12.84947z" fill="#ffffff" fill-rule="nonzero" stroke-width="1.5" stroke-linecap="butt" stroke-linejoin="miter" stroke-miterlimit="10"/><path d="M235.4779,187.09491c0,0 -5.74623,-5.30834 -5.72504,-11.34298c0.01534,-4.3676 4.85496,-5.89704 4.85496,-5.89704c0,0 1.62054,1.26765 5.34568,1.25955c3.77659,-0.0082 5.28528,-1.37698 5.28528,-1.37698c0,0 5.47076,2.19128 5.35756,6.11833c-0.14084,4.88513 -5.55715,11.5202 -5.55715,11.5202" fill="none" fill-rule="nonzero" stroke-width="1.5" stroke-linecap="round" stroke-linejoin="miter" stroke-miterlimit="10"/><path d="M243.885,167.712c-0.50508,0.30356 -1.02336,0.44675 -1.15759,0.31984c-0.13424,-0.12691 0.1664,-0.47588 0.67149,-0.77943c0.50508,-0.30356 1.02336,-0.44675 1.15759,-0.31984c0.13424,0.12691 -0.1664,0.47588 -0.67149,0.77943z" fill="#000000" fill-rule="evenodd" stroke-width="0.75" stroke-linecap="round" stroke-linejoin="round" stroke-miterlimit="4"/><path d="M235.1457,166.87484c0.13423,-0.12691 0.6525,0.01628 1.15758,0.31984c0.50509,0.30356 0.80573,0.65252 0.67149,0.77943c-0.13423,0.12691 -0.6525,-0.01628 -1.15758,-0.31984c-0.50509,-0.30356 -0.80573,-0.65252 -0.67149,-0.77943z" data-paper-data="{&quot;index&quot;:null}" fill="#000000" fill-rule="evenodd" stroke-width="0.75" stroke-linecap="round" stroke-linejoin="round" stroke-miterlimit="4"/><path d="M230.7499,173.99069h18.49153" fill="none" fill-rule="nonzero" stroke-width="0.75" stroke-linecap="round" stroke-linejoin="miter" stroke-miterlimit="10"/><path d="M250.0454,177.45949h-19.75492" fill="none" fill-rule="nonzero" stroke-width="0.75" stroke-linecap="round" stroke-linejoin="miter" stroke-miterlimit="10"/><path d="M231.09446,180.83702h17.8024" fill="none" fill-rule="nonzero" stroke-width="0.75" stroke-linecap="round" stroke-linejoin="miter" stroke-miterlimit="10"/><path d="M247.0592,184.12327h-13.78251" fill="none" fill-rule="nonzero" stroke-width="0.75" stroke-linecap="round" stroke-linejoin="miter" stroke-miterlimit="10"/></g></g></g></svg>