<svg version="1.1" xmlns="http://www.w3.org/2000/svg" xmlns:xlink="http://www.w3.org/1999/xlink" width="34.78538" height="45.24762" viewBox="0,0,34.78538,45.24762"><g transform="translate(-222.60731,-157.37619)"><g data-paper-data="{&quot;isPaintingLayer&quot;:true}" fill-rule="evenodd" stroke="#000000" stroke-miterlimit="4" stroke-dasharray="" stroke-dashoffset="0" style="mix-blend-mode: normal"><g stroke-linecap="round" stroke-linejoin="round"><path d="M240.16726,178.72497c9.61912,0.79824 15.11576,6.38589 14.65771,23.14884h-21.07046c0,-7.18412 9.16107,-5.18853 7.32886,-16.76295" fill="#ffffff" stroke-width="1.5"/><path d="M241.99948,185.11086c0.34812,2.32287 -5.08439,5.883 -7.32886,7.18412c-2.74832,1.59647 -2.58342,3.46434 -4.58053,3.19294c-0.95458,-0.75034 1.29171,-2.42664 0,-2.39471c-0.91611,0 0.17406,0.98183 -0.91611,1.59647c-0.91611,0 -3.66718,0.79824 -3.66443,-3.19294c0,-1.59647 5.49664,-9.57883 5.49664,-9.57883c0,0 1.73144,-1.51665 1.83221,-2.79383c-0.66876,-0.79345 -0.45805,-1.59647 -0.45805,-2.39471c0.91611,-0.79824 2.74832,1.99559 2.74832,1.99559h1.83221c0,0 0.71456,-1.59009 2.29027,-2.39471c0.91611,0 0.91611,2.39471 0.91611,2.39471" fill="#ffffff" stroke-width="1.5"/><path d="M228.71593,191.09763c0,0.22043 -0.20508,0.39912 -0.45805,0.39912c-0.25298,0 -0.45805,-0.17869 -0.45805,-0.39912c0,-0.22043 0.20508,-0.39912 0.45805,-0.39912c0.25298,0 0.45805,0.17869 0.45805,0.39912z" fill="#000000" stroke-width="1.5"/><path d="M233.69314,183.31483c-0.37946,0.57266 -0.86467,0.94754 -1.08374,0.83733c-0.21907,-0.11021 -0.08906,-0.66378 0.29039,-1.23644c0.37946,-0.57266 0.86467,-0.94754 1.08374,-0.83733c0.21907,0.11021 0.08906,0.66378 -0.29039,1.23644z" fill="#000000" stroke-width="1.49997"/></g><g stroke-width="1.5"><path d="M240.03044,158.12619v5.63" fill="none" stroke-linecap="round" stroke-linejoin="miter"/><path d="M242.53044,160.12619h-5" fill="none" stroke-linecap="round" stroke-linejoin="miter"/><path d="M240.03044,177.12619c0,0 -4.5,-7.5 -3,-10.5c0,0 1,-2.5 3,-2.5c2,0 3,2.5 3,2.5c1.5,3 -3,10.5 -3,10.5" fill="#ffffff" stroke-linecap="butt" stroke-linejoin="miter"/><path d="M250.03044,181.62619c-5.5,-3 -15.5,-3 -21,0c0,0 -8,-4 -5,-10c3,-6.5 12.5,-3.5 16,4v3.5v-3.5c2.5,-7.5 12,-10.5 16,-4c3,6 -6,10 -6,10z" fill="#ffffff" stroke-linecap="round" stroke-linejoin="round"/></g></g></g></svg>