<svg version="1.1" xmlns="http://www.w3.org/2000/svg" xmlns:xlink="http://www.w3.org/1999/xlink" width="34.68736" height="32.32781" viewBox="0,0,34.68736,32.32781"><g transform="translate(-222.65632,-163.83609)"><g fill="#000000" stroke="none" stroke-miterlimit="10"><path d="M231.33222,163.83883c0.01083,0 5.44987,9.40996 5.98077,10.34445l0.08939,0.1571l-0.16252,0.09751c-0.75301,0.45777 -1.44914,1.22703 -1.88253,2.07485c-0.31692,0.61758 -0.55799,1.57374 -0.55799,2.20758v0.12189h-6.07286h-6.07016l0.01896,-0.54174c0.13273,-3.91675 1.5277,-7.56806 4.03323,-10.56386c1.19724,-1.4356 2.60033,-2.64367 4.28513,-3.69193c0.17877,-0.11376 0.33046,-0.20315 0.33859,-0.20586z"/><path d="M248.65965,163.83613c0.04334,-0.00542 1.14035,0.71238 1.53853,1.00492c4.35827,3.20166 6.94235,8.08 7.12654,13.45944l0.01896,0.54174h-6.06745h-6.06745l-0.01896,-0.28712c-0.02438,-0.36025 -0.10022,-0.81531 -0.19232,-1.13494c-0.34129,-1.1864 -1.08347,-2.20487 -2.10735,-2.89558c-0.15169,-0.10022 -0.27358,-0.19503 -0.26816,-0.20857c0.00271,-0.01354 1.28662,-2.2455 2.85495,-4.9623c1.56833,-2.7141 2.92267,-5.06523 3.01205,-5.22505c0.0921,-0.15981 0.16794,-0.29254 0.17065,-0.29254z"/><path d="M240.67717,175.44284c0.11106,0.02438 0.31421,0.08126 0.44693,0.12731c1.81211,0.61487 2.78182,2.61659 2.13986,4.41515c-0.18419,0.51465 -0.43339,0.90741 -0.82344,1.29475c-0.43068,0.42797 -0.86407,0.69071 -1.42477,0.86407c-0.4063,0.12189 -0.58237,0.14898 -1.0293,0.14627c-0.71238,0 -1.32996,-0.18961 -1.93671,-0.59049c-0.26003,-0.17065 -0.73676,-0.64737 -0.90741,-0.9047c-0.6555,-0.99679 -0.78281,-2.16695 -0.35213,-3.24229c0.46318,-1.14848 1.42206,-1.90962 2.69514,-2.13986c0.26003,-0.04605 0.91553,-0.0298 1.19182,0.0298z"/><path d="M237.68679,183.48762c0.7476,0.37651 1.47352,0.54174 2.3403,0.53903c0.53632,-0.00271 0.967,-0.0623 1.44102,-0.20586c0.30337,-0.08939 0.76114,-0.27629 0.98325,-0.40359l0.14356,-0.08126l0.16252,0.27899c0.5932,1.01846 5.86159,10.16026 5.87242,10.19006c0.01896,0.04605 -0.20586,0.18148 -0.8424,0.50381c-1.98275,1.00221 -4.01156,1.58458 -6.30039,1.80398c-0.68801,0.06772 -2.29967,0.06772 -2.97413,0.00271c-2.3078,-0.22753 -4.32035,-0.80448 -6.30039,-1.80669c-0.63654,-0.32233 -0.86136,-0.45777 -0.8424,-0.50381c0.00813,-0.01896 0.4686,-0.82615 1.02659,-1.79044c0.84782,-1.46811 4.9623,-8.59736 4.9921,-8.65153c0.00542,-0.01083 0.14085,0.04605 0.29795,0.1246z"/></g></g></svg>