<svg version="1.1" xmlns="http://www.w3.org/2000/svg" xmlns:xlink="http://www.w3.org/1999/xlink" width="35.82753" height="33.28395" viewBox="0,0,35.82753,33.28395"><g transform="translate(-222.06648,-163.39751)"><g fill="#ffffff" stroke="#000000" stroke-width="1.5" stroke-miterlimit="10"><path d="M231.96101,164.14751c2.75361,0.41621 5.11857,2.15548 6.84405,5.03863c0.29493,0.49615 0.77178,1.44985 0.9978,2.00388c0.09647,0.23429 0.18192,0.43551 0.19295,0.44653c0.01103,0.01378 0.09923,-0.17365 0.1957,-0.41345c0.33628,-0.82691 0.94268,-1.97631 1.41401,-2.67918c1.8192,-2.71777 4.42672,-4.34127 7.15827,-4.4598c1.4278,-0.0634 2.64886,0.1957 3.88647,0.82415c0.72492,0.3666 1.301,0.78005 1.89362,1.35613c0.73044,0.71114 1.20177,1.35889 1.65933,2.26849c0.49615,0.98953 0.8021,2.07278 0.94543,3.34622c0.05237,0.46858 0.0441,1.83849 -0.01378,2.35669c-0.27839,2.49451 -1.16594,4.9394 -2.73707,7.55795c-2.47246,4.12076 -6.51329,8.31319 -11.95986,12.40088c-1.23761,0.92889 -2.40355,1.7558 -2.45316,1.73651c-0.0441,-0.01654 -0.85723,-0.58986 -1.50222,-1.0612c-7.61032,-5.5458 -12.62965,-11.27904 -14.67488,-16.76971c-1.54908,-4.15935 -1.27344,-8.06236 0.76351,-10.82424c1.43607,-1.94599 3.66321,-3.13398 6.0006,-3.20565c0.35557,-0.01103 1.07498,0.03032 1.38921,0.07718z"/></g></g></svg>