<svg version="1.1" xmlns="http://www.w3.org/2000/svg" xmlns:xlink="http://www.w3.org/1999/xlink" width="34.5" height="35.94395" viewBox="0,0,34.5,35.94395"><g transform="translate(-222.75,-161.86438)"><g stroke="#000000"><path d="M225.84649,183.76846c0,0 0.85261,-3.93687 2.65037,-6.87414c1.71835,-2.80752 4.00257,-4.58483 4.00257,-4.58483l14.48995,-0.00913c0,0 2.59392,2.03233 4.57762,4.98571c1.93177,2.87605 2.43905,6.38119 2.43905,6.38119l-6.4764,2.90798l4.43916,5.38581l-23.6363,-0.01405l4.0036,-5.39365l-6.48964,-2.7849z" fill="#ffffff" fill-rule="evenodd" stroke-width="1.5" stroke-linecap="butt" stroke-linejoin="round" stroke-miterlimit="10"/><path d="M247.20764,186.68123l-14.44205,-0.095" fill="none" fill-rule="nonzero" stroke-width="1.5" stroke-linecap="round" stroke-linejoin="miter" stroke-miterlimit="10"/><path d="M232.84885,172.1967l-3.91475,-4.5653l21.90253,-0.07104l-3.91475,4.63634" fill="#ffffff" fill-rule="evenodd" stroke-width="1.5" stroke-linecap="round" stroke-linejoin="round" stroke-miterlimit="4"/><path d="M253.89329,183.61641h-27.375" fill="none" fill-rule="nonzero" stroke-width="1" stroke-linecap="round" stroke-linejoin="miter" stroke-miterlimit="10"/><path d="M226.5,194.46237c3.39,-1.00723 10.11,0.44651 13.5,-2.07676c3.39,2.52327 10.11,1.06953 13.5,2.07676c0,0 1.65,0.56072 3,2.07676c-0.68,1.00723 -1.65,1.02799 -3,0.5192c-3.39,-1.00723 -10.11,0.47766 -13.5,-1.03838c-3.39,1.51604 -10.11,0.03115 -13.5,1.03838c-1.35,0.50881 -2.32,0.48805 -3,-0.5192c1.35,-1.51604 3,-2.07676 3,-2.07676z" fill="#ffffff" fill-rule="evenodd" stroke-width="1.5" stroke-linecap="butt" stroke-linejoin="round" stroke-miterlimit="10"/><path d="" fill="none" fill-rule="evenodd" stroke-width="1.5" stroke-linecap="round" stroke-linejoin="miter" stroke-miterlimit="10"/><path d="M242.38537,165.11438c0,1.38071 -1.11929,2.5 -2.5,2.5c-1.38071,0 -2.5,-1.11929 -2.5,-2.5c0,-1.38071 1.11929,-2.5 2.5,-2.5c1.38071,0 2.5,1.11929 2.5,2.5z" fill="#ffffff" fill-rule="evenodd" stroke-width="1.5" stroke-linecap="butt" stroke-linejoin="round" stroke-miterlimit="4"/><path d="M239.88537,175.51744v5M237.38537,178.01744h5" fill="none" fill-rule="evenodd" stroke-width="1.5" stroke-linecap="round" stroke-linejoin="miter" stroke-miterlimit="4"/></g></g></svg>