<svg version="1.1" xmlns="http://www.w3.org/2000/svg" xmlns:xlink="http://www.w3.org/1999/xlink" width="34.5" height="34.84757" viewBox="0,0,34.5,34.84757"><g transform="translate(-222.75,-162.40243)"><g stroke-width="1.5"><path d="M252.55139,190.35646c-4.18374,2.3312 -20.91871,2.3312 -25.10246,0c-0.03256,0.06134 2.46286,-15.81094 12.76096,-27.20402c9.6652,11.6539 12.3415,27.20402 12.3415,27.20402z" fill="#000000" fill-rule="evenodd" stroke="#000000" stroke-linecap="butt" stroke-linejoin="round" stroke-miterlimit="10"/><path d="M226.5,194.00001c3.39,-0.97 10.11,0.43 13.5,-2c3.39,2.43 10.11,1.03 13.5,2c0,0 1.65,0.54 3,2c-0.68,0.97 -1.65,0.99 -3,0.5c-3.39,-0.97 -10.11,0.46 -13.5,-1c-3.39,1.46 -10.11,0.03 -13.5,1c-1.35,0.49 -2.32,0.47 -3,-0.5c1.35,-1.46 3,-2 3,-2z" fill="#000000" fill-rule="evenodd" stroke="#000000" stroke-linecap="butt" stroke-linejoin="round" stroke-miterlimit="10"/><path d="M240,173.50001v5M237.5,176.00001h5" fill="none" fill-rule="evenodd" stroke="#000000" stroke-linecap="round" stroke-linejoin="miter" stroke-miterlimit="4"/><path d="M240,173.50001v5M237.5,176.00001h5" fill="none" fill-rule="evenodd" stroke="#ffffff" stroke-linecap="round" stroke-linejoin="miter" stroke-miterlimit="4"/><path d="M231.49022,191.26124c0,0 0.93452,-20.90673 8.48224,-20.96871c7.60686,-0.06246 8.53732,20.96871 8.53732,20.96871" fill="none" fill-rule="nonzero" stroke="#ffffff" stroke-linecap="round" stroke-linejoin="miter" stroke-miterlimit="10"/></g></g></svg>