<svg version="1.1" xmlns="http://www.w3.org/2000/svg" xmlns:xlink="http://www.w3.org/1999/xlink" width="34.89606" height="34.88777" viewBox="0,0,34.89606,34.88777"><g transform="translate(-222.55197,-162.43621)"><g fill="#ffffff" stroke="#000000" stroke-miterlimit="10"><path d="M240.00002,163.50232l10.70524,3.9565l5.69614,10.0182l-1.97825,11.3923l-8.727,7.43577h-11.3923l-8.727,-7.43577l-1.97825,-11.3923l5.69614,-10.0182z" stroke-width="2"/><path d="M225.60519,188.93824l-1.86924,-11.21584l5.97342,-2.4704l10.28584,6.059l0.05711,10.85212l-5.64057,4.38525z" stroke-width="1.2"/><path d="M245.68532,196.42109l-5.64058,-4.27574l-0.02396,-10.85212l10.36693,-6.059l5.97342,2.4704l-1.86924,11.21584z" stroke-width="1.2"/><path d="M239.95804,163.45163l10.67556,3.97046l-0.24974,7.85986l-10.42582,5.94476l-10.23956,-5.94476l-0.22565,-7.96504z" stroke-width="1.2"/><path d="M230.59866,186.1289l-0.77346,-4.64097l2.47174,-1.02223l4.25616,2.50715l0.02363,4.49048l-2.51525,1.58799z" stroke-width="1.2"/><path d="M239.99747,169.75406l4.6948,1.7461l-0.10983,3.45653l-4.58496,2.61432l-4.50307,-2.61432l-0.09923,-3.50279z" stroke-width="1.2"/><path d="M246.2624,189.04712l-2.51525,-1.588l0.02364,-4.49047l4.25617,-2.50715l2.47172,1.02224l-0.77347,4.64097z" stroke-width="1.2"/></g></g></svg>