<svg version="1.1" xmlns="http://www.w3.org/2000/svg" xmlns:xlink="http://www.w3.org/1999/xlink" width="37.01064" height="34.60444" viewBox="0,0,37.01064,34.60444"><g transform="translate(-261.49462,-202.75498)"><g stroke-width="1.5" stroke-miterlimit="10"><path d="M290.65927,231.42541c0,0.44371 -0.43041,0.86234 -1.19276,1.23135c0.80084,0.37611 1.25453,0.80524 1.25453,1.26079c0,1.48668 -4.83197,2.69187 -10.79252,2.69187c-5.96055,0 -10.79253,-1.20519 -10.79253,-2.69187c0,-0.44371 0.43041,-0.86234 1.19277,-1.23135c-0.80084,-0.37611 -1.25454,-0.80524 -1.25454,-1.26079c0,-1.48668 4.83198,-2.69187 10.79253,-2.69187c5.96055,0 10.79252,1.20519 10.79252,2.69187z" fill="#000000" stroke="#000000" stroke-linecap="butt" stroke-linejoin="miter"/><path d="M280.33507,204.69441c0.22104,1.25453 0.60611,2.3511 1.06247,3.02018c0.17826,0.2602 0.67029,0.83635 1.10525,1.28241l0.78437,0.81777l-0.49201,0.85494c-0.52766,0.91069 -1.28352,2.79715 -1.41186,3.52199c-0.18539,1.03151 -0.02852,2.37897 0.39218,3.42907c0.42071,1.05009 0.99829,1.57977 1.79693,1.64484c0.39219,0.03717 0.50628,0.00929 0.90559,-0.25091c1.83258,-1.18019 2.21051,-5.04602 0.79864,-8.11266l-0.24245,-0.5111l0.47062,-0.11152c1.59727,-0.38101 2.70252,-2.04442 3.79351,-5.67793l0.25671,-0.87353l0.04278,2.12807c0.04278,2.30463 0.11409,2.91795 0.44924,3.79148c0.20679,0.5297 0.79863,1.54261 1.06247,1.81211l0.17113,0.17656l-0.64889,0.68767c-0.78438,0.83636 -1.41186,1.78423 -1.71848,2.5927c-0.22104,0.58545 -0.22818,0.63192 -0.24957,2.04443c-0.01426,0.88283 0.00712,1.63555 0.05704,1.94222c0.164,0.97575 0.83429,1.56119 1.6971,1.47755c0.55619,-0.05575 0.89846,-0.28807 1.40473,-0.95716c0.47775,-0.63192 0.82716,-1.44969 1.00542,-2.36968c0.21392,-1.11514 0.01425,-2.80643 -0.44211,-3.67067c-0.15688,-0.30666 -0.15687,-0.33455 -0.04278,-0.3903c1.46178,-0.66909 2.33885,-1.25453 3.05192,-2.05372c1.55132,-1.50372 2.34598,-2.60199 2.36024,-2.58341c0.01426,0.00929 -1.31203,3.34542 -2.94496,7.4064c-1.54313,3.83766 -2.857,7.11098 -3.04498,7.57703c0.47899,0.2096 1.41311,0.94182 1.36353,1.55973c-0.06369,0.79384 -1.25847,1.2938 -1.25847,1.2938l-1.95325,3.61342h-19.69724l-2.16405,-3.37543c0,0 -1.1521,-0.75889 -1.24217,-1.49914c-0.08384,-0.68909 0.8727,-1.35379 1.40455,-1.59061c0.03187,-0.01435 0.06393,-0.02865 0.09618,-0.04287c-0.1918,-0.3853 -0.56526,-1.30638 -1.37781,-3.33557c-2.24616,-5.60359 -3.70793,-9.23709 -4.22847,-10.5288l-0.4635,-1.15231c0,0 1.0707,1.12859 1.73274,1.88645c1.37621,1.55191 1.747,1.85857 3.07331,2.50907c0.37793,0.18586 0.69168,0.35313 0.69881,0.38101c0.00713,0.02788 -0.09983,0.36242 -0.23532,0.75272c-0.52766,1.4218 -0.51341,2.93655 0.03565,4.35835c0.36367,0.94787 0.8129,1.58908 1.36195,1.94221c0.86994,0.57616 1.8611,0.26949 2.28181,-0.68767c0.15688,-0.35313 0.164,-0.46464 0.164,-2.18382v-1.81211l-0.20679,-0.53898c-0.35653,-0.92 -1.24073,-2.14664 -2.14633,-3.01089l-0.21391,-0.19515l0.36367,-0.50181c1.0696,-1.46827 1.31203,-2.50907 1.32629,-5.73369c0.00713,-0.92928 0.01426,-1.67272 0.02852,-1.66342c0.00713,0.01858 0.14974,0.45535 0.30662,0.98505c1.0696,3.48482 2.17486,5.11107 3.74359,5.50137l0.45636,0.11151l-0.21392,0.47395c-0.49201,1.08726 -0.82716,2.48119 -0.8842,3.68926c-0.12122,2.40685 0.93411,4.5535 2.32459,4.71148c1.38334,0.16727 2.49573,-1.68201 2.49573,-4.1539c0,-1.20807 -0.45636,-2.57411 -1.46178,-4.4141c-0.25671,-0.46463 -0.45637,-0.86424 -0.44211,-0.89211c0.00713,-0.02788 0.34228,-0.39959 0.7416,-0.81777c0.39932,-0.41818 0.87708,-0.97575 1.05534,-1.24524c0.57758,-0.85494 0.92699,-1.97008 1.27638,-4.08886c0.04991,-0.2602 0.17114,-0.34383 0.21392,-0.13939z" fill="#000000" stroke="#000000" stroke-linecap="butt" stroke-linejoin="round"/><path d="M268.30517,223.36084c0,0 3.69561,-2.19846 11.44683,-2.34502c7.86242,-0.14867 11.73636,2.34502 11.73636,2.34502" fill="none" stroke="#ffffff" stroke-linecap="round" stroke-linejoin="miter"/><path d="M270.43046,229.80619h19.25872" fill="none" stroke="#ffffff" stroke-linecap="round" stroke-linejoin="miter"/><path d="M278.10272,224.01901l1.9689,-6.38445l1.9689,6.38445l6.38445,1.9689l-6.38445,1.96891l-1.9689,6.38445l-1.9689,-6.38445l-6.38446,-1.96891z" fill="#000000" stroke="#ffffff" stroke-linecap="butt" stroke-linejoin="round"/><path d="M289.74501,232.88776c0,0 -4.40792,1.09011 -9.75787,1.01744c-5.13705,-0.06978 -9.93689,-1.01744 -9.93689,-1.01744" fill="none" stroke="#ffffff" stroke-linecap="round" stroke-linejoin="miter"/></g></g></svg>