<svg version="1.1" xmlns="http://www.w3.org/2000/svg" xmlns:xlink="http://www.w3.org/1999/xlink" width="36.51495" height="36.35963" viewBox="0,0,36.51495,36.35963"><g transform="translate(-221.74253,-161.76675)"><g fill="#ffffff" stroke="#000000" stroke-width="1.5" stroke-miterlimit="10"><path d="M241.10709,162.97783c0.10671,0.12076 0.3061,0.48022 0.3061,0.55323c0,0.01404 0.48864,0.51672 1.08961,1.11489l1.0868,1.08399l0.26398,0.07021l0.26679,0.07021l0.96886,-0.26117c0.53357,-0.14322 1.17386,-0.31453 1.42099,-0.37912c0.40439,-0.10952 0.46617,-0.1348 0.61782,-0.24994c0.53638,-0.41282 1.19071,-0.43809 1.74675,-0.07021c0.19939,0.1348 0.35384,0.32014 0.46898,0.55885c0.14884,0.30891 0.19096,0.59255 0.13199,0.90426c-0.02527,0.13199 -0.00562,0.22466 0.35946,1.58668l0.39035,1.44626l0.21343,0.21624c0.11795,0.11795 0.22185,0.21343 0.23028,0.21343c0.01123,0 0.65152,0.1713 1.4266,0.37912c1.25249,0.33418 1.41818,0.3735 1.51928,0.35103c0.15446,-0.03651 0.42967,-0.0337 0.6094,0.00281c0.51953,0.10952 0.96605,0.54481 1.10365,1.07838c0.10952,0.42405 -0.00281,0.90707 -0.28925,1.26934c-0.11233,0.14041 -0.12356,0.17411 -0.49706,1.56983l-0.38473,1.4266l0.07863,0.29487l0.07582,0.29768l1.03906,1.04468c0.96886,0.97166 1.0503,1.04749 1.20194,1.10365c0.8818,0.32014 1.23283,1.3929 0.71049,2.17922c-0.16288,0.24713 -0.47179,0.48302 -0.74138,0.57008c-0.07302,0.02247 -0.37069,0.30329 -1.14858,1.08119l-1.0531,1.0531l-0.07582,0.27521c-0.04493,0.15165 -0.07863,0.3061 -0.08144,0.34542c0,0.03932 0.16569,0.68803 0.36788,1.44345c0.36508,1.36201 0.36788,1.37325 0.48864,1.51928c0.1348,0.16569 0.24994,0.39597 0.29206,0.5785c0.04212,0.17692 0.03651,0.54761 -0.00842,0.71611c-0.12918,0.48583 -0.52796,0.88742 -1.02502,1.03345c-0.15726,0.04493 -0.53076,0.05617 -0.69084,0.01966c-0.05617,-0.01404 -0.19377,0.00842 -0.42124,0.0674c-0.18535,0.05055 -0.82282,0.21905 -1.41818,0.37912l-1.08119,0.28644l-0.25555,0.25836l-0.25555,0.25555l-0.37069,1.3901c-0.35665,1.34236 -0.36788,1.39571 -0.3398,1.54174c0.08986,0.4746 -0.05336,0.92954 -0.4072,1.28057c-0.30891,0.30891 -0.60378,0.43528 -1.02502,0.43528c-0.35665,0 -0.67118,-0.11514 -0.94639,-0.34261c-0.1011,-0.08706 -0.23028,-0.12637 -1.51366,-0.46898l-1.40133,-0.37631l-0.35103,0.08986l-0.35103,0.08986l-1.03064,1.03064c-0.57008,0.56727 -1.03345,1.04749 -1.03345,1.06714c0,0.07582 -0.16569,0.39035 -0.27802,0.53076c-0.12637,0.15446 -0.41282,0.36227 -0.61501,0.4409c-0.0674,0.02527 -0.21343,0.05897 -0.32295,0.07302c-0.65433,0.09267 -1.33112,-0.32014 -1.55298,-0.94639c-0.04774,-0.13199 -0.15446,-0.24994 -1.08399,-1.17948l-1.03064,-1.03064l-0.34542,-0.09267l-0.34542,-0.09267l-1.3901,0.37069c-1.19071,0.31734 -1.40133,0.37912 -1.47434,0.44652c-0.26398,0.2387 -0.62344,0.3735 -0.99694,0.3735c-0.41282,-0.00281 -0.76104,-0.15446 -1.03906,-0.45213c-0.32295,-0.34261 -0.45494,-0.74981 -0.39035,-1.20475l0.03089,-0.21624l-0.37631,-1.40133l-0.3735,-1.39852l-0.2387,-0.25274l-0.24151,-0.24994l-1.41537,-0.38193c-1.24407,-0.33138 -1.42941,-0.37631 -1.51647,-0.35103c-0.05336,0.01404 -0.18815,0.02808 -0.29487,0.02808c-0.80317,0 -1.45188,-0.64029 -1.45469,-1.43222c0,-0.36788 0.10391,-0.67118 0.32295,-0.93516c0.10952,-0.13199 0.12076,-0.1685 0.45775,-1.41818c0.18815,-0.70488 0.35946,-1.34797 0.37912,-1.4266c0.0337,-0.1348 0.03089,-0.1685 -0.04212,-0.44932l-0.07863,-0.3061l-1.0503,-1.0531c-0.92392,-0.92954 -1.06434,-1.05872 -1.17667,-1.09242c-0.0674,-0.01966 -0.19658,-0.08425 -0.28644,-0.14041c-0.49426,-0.32014 -0.76104,-0.93516 -0.6459,-1.48839c0.06178,-0.3061 0.1685,-0.51111 0.37631,-0.73296c0.17411,-0.18254 0.38754,-0.32014 0.60097,-0.39035c0.07302,-0.02247 0.37069,-0.30329 1.1542,-1.08961l1.05591,-1.06153l0.07863,-0.29768l0.07582,-0.30049l-0.29487,-1.10365c-0.16288,-0.6094 -0.33138,-1.23845 -0.3735,-1.39852c-0.0674,-0.24713 -0.1011,-0.32014 -0.22747,-0.49145c-0.2359,-0.31734 -0.33699,-0.65152 -0.3061,-1.0194c0.04774,-0.60097 0.49426,-1.13454 1.06995,-1.28619c0.18254,-0.04774 0.542,-0.05617 0.67679,-0.01685c0.0674,0.01966 0.16569,0.00281 0.43528,-0.0674c0.19096,-0.05336 0.8481,-0.22747 1.4575,-0.39035l1.10927,-0.29768l0.21343,-0.21624c0.20781,-0.21343 0.21343,-0.22466 0.2724,-0.45775c0.0337,-0.13199 0.205,-0.76947 0.37912,-1.42099c0.21343,-0.80036 0.30891,-1.20194 0.29768,-1.24968c-0.03651,-0.12356 -0.02527,-0.57008 0.01685,-0.72454c0.1685,-0.63186 0.74138,-1.06995 1.40414,-1.06995c0.34823,0 0.6431,0.10391 0.92954,0.33138c0.14884,0.11795 -0.02808,0.06459 2.33929,0.69926l0.68803,0.18254l0.26679,-0.07302l0.26679,-0.07302l1.06153,-1.05872c0.91831,-0.91831 1.06714,-1.07838 1.10365,-1.19071c0.16007,-0.48022 0.62063,-0.85933 1.15982,-0.95201c0.44371,-0.07582 0.98851,0.12076 1.30023,0.47179zM238.09943,169.70926l-1.14578,-1.14578l-0.0337,0.10952c-0.10391,0.36508 -0.80598,3.00485 -0.79755,3.01328c0.00562,0.00562 0.13199,-0.04493 0.28364,-0.10952c0.72173,-0.31172 1.7636,-0.58974 2.53587,-0.67679c0.16288,-0.01685 0.29768,-0.0337 0.30049,-0.03651c0.00281,-0.00281 -0.51111,-0.52234 -1.14297,-1.1542zM243.08692,168.58034c-0.00281,-0.00281 -0.51953,0.5083 -1.14858,1.13735l-1.14297,1.14297l0.45494,0.06459c0.81721,0.11233 1.44065,0.27802 2.19888,0.58131c0.24432,0.09829 0.45213,0.17411 0.45775,0.1685c0.00562,-0.00562 -0.17411,-0.70207 -0.40158,-1.55017c-0.22747,-0.84529 -0.41562,-1.54174 -0.41843,-1.54455zM231.6769,171.61889c-0.01966,-0.00562 -0.03651,-0.00842 -0.03651,0c0,0.01685 0.8144,3.05821 0.83125,3.10314c0.01404,0.0337 0.03089,0.02247 0.07582,-0.03932c0.55885,-0.76385 1.21318,-1.43503 1.92367,-1.97422c0.17411,-0.13199 0.31172,-0.24432 0.30891,-0.24994c-0.00562,-0.00281 -0.69645,-0.19096 -1.53894,-0.41562c-0.84248,-0.22747 -1.54736,-0.41562 -1.56421,-0.42405zM248.3721,171.66382c-0.00562,-0.01123 -0.06459,-0.00562 -0.1348,0.01123c-0.07021,0.01966 -0.41001,0.11233 -0.75823,0.205c-0.34823,0.09267 -0.92111,0.24713 -1.27777,0.34261c-0.35384,0.09548 -0.7133,0.19096 -0.79474,0.21343l-0.14603,0.04493l0.24432,0.18254c0.69084,0.51953 1.44345,1.27777 1.9012,1.91805c0.06178,0.08425 0.11514,0.16007 0.12076,0.16569c0.00562,0.00562 0.01404,0.00562 0.02247,0c0.00562,-0.00842 0.19658,-0.69926 0.42124,-1.53894c0.22466,-0.83967 0.4072,-1.53332 0.40158,-1.54455zM231.61231,176.09809c-0.03932,0.01404 -0.67118,0.18535 -1.40414,0.37912c-0.73296,0.19658 -1.40133,0.3735 -1.48558,0.39878l-0.15165,0.04212l1.14858,1.14858c0.62905,0.62905 1.14858,1.14297 1.1542,1.13735c0.00562,-0.00281 0.02808,-0.16007 0.05055,-0.34542c0.10391,-0.8481 0.34542,-1.72709 0.68522,-2.50498c0.06459,-0.14603 0.11514,-0.26959 0.11514,-0.27521c0,-0.01404 -0.0337,-0.00842 -0.11233,0.01966zM248.34963,176.12617c-0.01404,0 0.03651,0.14322 0.11233,0.31453c0.3398,0.80878 0.60097,1.81695 0.66275,2.578l0.01966,0.23028l1.14578,-1.14578c0.63186,-0.63186 1.14297,-1.14858 1.14016,-1.15139c-0.00281,-0.00281 -0.69364,-0.19096 -1.53332,-0.41562c-0.83967,-0.22466 -1.53613,-0.41001 -1.54736,-0.41001zM230.87093,180.74017c-0.00281,-0.00281 -0.52234,0.51111 -1.1542,1.14297c-0.63186,0.63186 -1.14297,1.15701 -1.13174,1.16543c0.01123,0.01404 0.85933,0.24432 2.60046,0.70769c0.26679,0.07021 0.49145,0.12356 0.49706,0.11514c0.00842,-0.00842 -0.03089,-0.12076 -0.08706,-0.24994c-0.3398,-0.78632 -0.58974,-1.73551 -0.68522,-2.58081c-0.01685,-0.16288 -0.03651,-0.29768 -0.03932,-0.30049zM249.16122,180.81599c-0.00842,0 -0.03089,0.1348 -0.05055,0.30049c-0.09267,0.82002 -0.34261,1.73832 -0.6796,2.51902c-0.06178,0.13761 -0.10952,0.25836 -0.10952,0.26959c0,0.01404 1.31427,-0.33138 2.84478,-0.747l0.27802,-0.07582l-1.13174,-1.13174c-0.62344,-0.62344 -1.14016,-1.13454 -1.15139,-1.13454zM232.58678,185.36821l-0.12918,-0.17692l-0.02808,0.10671c-0.04774,0.18535 -0.79193,2.97116 -0.80598,3.0217c-0.01123,0.03932 0.02527,0.03651 0.28925,-0.0337c1.91244,-0.51111 2.82793,-0.75823 2.83355,-0.76666c0.00562,-0.00281 -0.12637,-0.10952 -0.29206,-0.2359c-0.56446,-0.42967 -1.07838,-0.92954 -1.55298,-1.51085c-0.1011,-0.12356 -0.24432,-0.3061 -0.31453,-0.40439zM247.54085,185.32608c-0.01966,-0.04493 -0.03651,-0.0337 -0.1348,0.09829c-0.50549,0.69364 -1.35359,1.53051 -2.04162,2.01915c-0.11514,0.08144 -0.12918,0.1011 -0.08425,0.11795c0.02808,0.01123 0.72173,0.19939 1.53894,0.41843c0.82002,0.21624 1.49681,0.40158 1.51085,0.41001c0.01123,0.00562 0.01966,-0.00562 0.01966,-0.02527c0,-0.01966 -0.17692,-0.69926 -0.39316,-1.51085c-0.21624,-0.81159 -0.40439,-1.49962 -0.41562,-1.5277zM236.11398,188.29443c-0.01966,-0.00842 -0.03651,-0.00562 -0.03651,0.00281c0,0.00842 0.06178,0.24713 0.13761,0.52796c0.07863,0.28364 0.26117,0.96886 0.41001,1.52489c0.14603,0.55604 0.27521,1.03064 0.28364,1.0531c0.00842,0.02527 0.40158,-0.34823 1.16263,-1.10927c0.63186,-0.63186 1.14578,-1.15139 1.14297,-1.1542c-0.00281,-0.00281 -0.13199,-0.01966 -0.28644,-0.03932c-0.77228,-0.08706 -1.831,-0.37069 -2.51341,-0.67118c-0.14603,-0.06459 -0.28364,-0.12637 -0.30049,-0.1348zM243.87886,188.32813c-0.00562,-0.00281 -0.14041,0.05055 -0.30329,0.11795c-0.81159,0.34261 -1.77483,0.58974 -2.60327,0.67118c-0.11233,0.00842 -0.205,0.02527 -0.205,0.03651c0,0.02808 2.27189,2.29155 2.28313,2.27751c0.00562,-0.00842 0.19658,-0.70769 0.42405,-1.55578c0.22466,-0.8481 0.4072,-1.54455 0.40439,-1.54736z"/></g></g></svg>