<svg viewBox="0,0,34.5,34.5" height="34.5" width="34.5" xmlns:xlink="http://www.w3.org/1999/xlink" xmlns="http://www.w3.org/2000/svg" version="1.1"><g transform="translate(-222.75,-162.59241)"><g style="mix-blend-mode: normal" stroke-dashoffset="0" stroke-dasharray="" stroke-miterlimit="4" stroke-width="1.5" fill-rule="evenodd" data-paper-data="{&quot;isPaintingLayer&quot;:true}"><g stroke-linejoin="round" stroke-linecap="butt" stroke="#000000" fill="#000000"><path d="M226.5,193.84241c3.39,-0.97 10.11,0.43 13.5,-2c3.39,2.43 10.11,1.03 13.5,2c0,0 1.65,0.54 3,2c-0.68,0.97 -1.65,0.99 -3,0.5c-3.39,-0.97 -10.11,0.46 -13.5,-1c-3.39,1.46 -10.11,0.03 -13.5,1c-1.35,0.49 -2.32,0.47 -3,-0.5c1.35,-1.46 3,-2 3,-2z"></path><path d="M232.5,187.84241c0,-2.5 2.5,-4 2.5,-4c-5.5,-1.5 -6,-11.5 5,-15.5c11,4 10.5,14 5,15.5c0,0 2.5,1.5 2.5,4c0,0 0.5,0.5 0,2c-2.5,2.5 -12.5,2.5 -15,0c-0.5,-1.5 0,-2 0,-2z"></path><path d="M242.5,165.84241c0,1.38071 -1.11929,2.5 -2.5,2.5c-1.38071,0 -2.5,-1.11929 -2.5,-2.5c0,-1.38071 1.11929,-2.5 2.5,-2.5c1.38071,0 2.5,1.11929 2.5,2.5z"></path></g><path stroke-linejoin="miter" stroke-linecap="round" stroke="#ffffff" fill="none" d="M245,183.84241h-10M247.5,187.84241h-15M240,178.34241v-5M242.5,175.84241h-5"></path></g></g></svg>