<svg version="1.1" xmlns="http://www.w3.org/2000/svg" xmlns:xlink="http://www.w3.org/1999/xlink" width="24.5" height="32" viewBox="0,0,24.5,32"><g transform="translate(-387.75,-234)"><g stroke-width="1.5"><path d="M404,238.75c0,0.89 -0.29,1.71 -0.78,2.38c1.95,1.12 3.28,3.21 3.28,5.62c0,2.03 -0.94,3.84 -2.41,5.03c3,1.06 7.41,5.55 7.41,13.47h-23c0,-7.92 4.41,-12.41 7.41,-13.47c-1.47,-1.19 -2.41,-3 -2.41,-5.03c0,-2.41 1.33,-4.5 3.28,-5.62c-0.49,-0.67 -0.78,-1.49 -0.78,-2.38c0,-2.21 1.79,-4 4,-4c2.21,0 4,1.79 4,4z" fill="#000000" stroke="#000000" stroke-linecap="round" stroke-miterlimit="4"/><g stroke="#ffffff" stroke-linecap="butt" stroke-miterlimit="10"><path d="M389.16835,243.52647c0,-2.70469 2.19257,-4.89726 4.89726,-4.89726c2.70469,0 4.89726,2.19257 4.89726,4.89726c0,2.70469 -2.19257,4.89726 -4.89726,4.89726c-2.70469,0 -4.89726,-2.19257 -4.89726,-4.89726z" fill="#000000"/><path d="M392.91003,243.52149c0,-0.68226 0.55307,-1.23533 1.23533,-1.23533c0.68226,0 1.23533,0.55307 1.23533,1.23533c0,0.68226 -0.55307,1.23533 -1.23533,1.23533c-0.68226,0 -1.23533,-0.55307 -1.23533,-1.23533z" fill="#ffffff"/><path d="M401.03713,243.52647c0,-2.70469 2.19257,-4.89726 4.89726,-4.89726c2.70469,0 4.89726,2.19257 4.89726,4.89726c0,2.70469 -2.19257,4.89726 -4.89726,4.89726c-2.70469,0 -4.89726,-2.19257 -4.89726,-4.89726z" fill="#000000"/><path d="M404.77881,243.52149c0,-0.68226 0.55307,-1.23533 1.23533,-1.23533c0.68226,0 1.23533,0.55307 1.23533,1.23533c0,0.68226 -0.55307,1.23533 -1.23533,1.23533c-0.68226,0 -1.23533,-0.55307 -1.23533,-1.23533z" fill="#ffffff"/></g></g></g></svg>