<svg version="1.1" xmlns="http://www.w3.org/2000/svg" xmlns:xlink="http://www.w3.org/1999/xlink" width="121.47455" height="131.8686" viewBox="0,0,121.47455,131.8686"><g transform="translate(-175.5263,-94.64537)"><g data-paper-data="{&quot;isPaintingLayer&quot;:true}" fill-rule="nonzero" stroke-miterlimit="10" stroke-dasharray="" stroke-dashoffset="0" style="mix-blend-mode: normal"><path d="M235.43257,207.57379v0v0v0v0v0c-0.22031,1.63331 -1.14072,4.63724 -1.78475,5.41581c0,0 -2.65781,2.93178 -4.54337,1.87924c-0.80589,-0.44943 -1.16394,-1.23601 -1.17995,-2.26853c-0.35164,-0.11781 -0.83872,-0.35886 -1.05574,-0.87795c-0.36125,-0.86034 1.47545,-1.51879 1.47545,-1.51879v0.01682c0.08737,-0.26908 0.17947,-0.53744 0.28919,-0.82101c0.62562,-1.60207 2.00257,-3.7769 2.69865,-4.9912c0,0 0.57516,-1.07096 1.99375,-1.04212c1.50918,0.03043 2.32707,2.57443 2.10677,4.20774z" fill="#be1e2d" stroke="#000000" stroke-width="0.78672" stroke-linecap="round" stroke-linejoin="round"/><path d="M247.72275,212.20863c-1.23601,-1.41548 -1.99536,-5.51911 -2.17314,-6.35783c-0.17707,-0.83863 0.30921,-2.73709 1.42341,-3.12077c1.1142,-0.38457 2.20286,0.70169 2.20286,0.70169c0.8122,1.13902 2.39745,3.16962 3.18083,4.69881c0.13623,0.27156 0.25395,0.53192 0.36927,0.78817l-0.0016,-0.01601c0,0 1.89286,0.47587 1.61889,1.36663c-0.16577,0.53904 -0.62321,0.82582 -0.96364,0.97726c0.08417,1.02931 -0.18979,1.85112 -0.94995,2.37504c-1.77033,1.23922 -4.70691,-1.41299 -4.70691,-1.41299v0v0v0v0z" fill="#be1e2d" stroke="#000000" stroke-width="0.78672" stroke-linecap="round" stroke-linejoin="round"/><path d="M244.03962,213.44055c1.38657,-0.40289 3.08874,0 3.08874,0c0,0 0.75383,4.58029 0.98447,6.23763c0.23152,1.65973 1.09026,4.25507 1.09026,4.25507c0,0 0.43333,0.25955 0.3116,0.93722c-0.12502,0.67607 -1.61329,0.8074 -3.47971,1.16234c-1.86323,0.35085 -3.38673,0.05045 -3.67991,-0.61601c-0.29559,-0.66325 0.25555,-0.97246 0.25555,-0.97246c0,0 0.86826,-5.47027 0.07767,-7.35272c0.00401,0.00401 -0.41651,-3.13759 1.35133,-3.65109v0v0v0v0z" fill="#be1e2d" stroke="#000000" stroke-width="0.90024" stroke-linecap="round" stroke-linejoin="round"/><path d="M238.06315,213.95405v0v0v0v0v0c2.49917,1.14623 2.76512,3.44359 2.76593,3.44599c-0.49499,1.97534 1.08866,6.56445 1.08866,6.56445c0,0 0.59269,0.21791 0.4069,0.9188c-0.18909,0.70249 -1.64452,1.23601 -3.54378,1.17595c-1.89606,-0.06175 -3.38593,0.03844 -3.61425,-0.6128c-0.22832,-0.65123 0.16105,-0.97325 0.16105,-0.97325c0,0 0.04405,-1.56764 0.01441,-3.24338c-0.03132,-1.67094 -0.3052,-6.25765 -0.3052,-6.25765c0,0 1.38896,-1.76944 3.02627,-1.01811z" fill="#be1e2d" stroke="#000000" stroke-width="0.90024" stroke-linecap="round" stroke-linejoin="round"/><g stroke="#000000" stroke-width="0.90024"><path d="M247.70273,207.56418v0v0v0v0v0c0.36927,2.49284 -0.22431,7.08355 -3.08073,8.69524c-2.82527,1.59086 -5.82192,1.37776 -8.92827,-0.74173c-2.57373,-1.75671 -2.51207,-6.78076 -2.2429,-9.59161v0c0,0 0.01761,-6.5027 5.49029,-7.30377c5.47098,-0.80099 8.01187,4.18861 8.43479,7.30137c0.13302,0.54793 0.24674,1.10708 0.32682,1.64051z" fill="#be1e2d" stroke-linecap="butt" stroke-linejoin="miter"/><path d="M246.19363,214.7078v0v0v0v0v0l-0.01362,0.12733c-0.4198,0.57997 -0.93562,1.07184 -1.55722,1.42269c-2.61697,1.47385 -5.37978,1.40017 -8.2418,-0.3036l-0.02963,-0.12813c0,0 -1.51558,-8.26991 3.75679,-8.63917c5.98688,-0.41651 6.12311,6.13753 6.08547,7.52088z" fill="#e6e7e8" stroke-linecap="round" stroke-linejoin="round"/></g><g stroke-width="0.90024"><g stroke="#000000" stroke-linecap="round" stroke-linejoin="round"><path d="M279.59815,181.00128l-0.47577,1.37776c-2.63939,6.95934 -6.39147,10.96447 -6.39147,10.96447c0,0 0.13462,-1.24242 0.06255,-3.23858l-0.11701,-0.04085c-0.33803,1.05094 -0.89317,2.40627 -1.81589,4.0805c-2.02347,3.67671 -7.96551,6.75904 -7.96551,6.75904c0,0 0.36935,-1.26404 0.60079,-3.33228l-0.08328,-0.31641c-0.64403,0.49589 -1.31209,0.95163 -1.98735,1.39537c-0.19869,0.13142 -0.39729,0.25955 -0.59919,0.38368c-0.61441,0.38217 -1.24001,0.74662 -1.87845,1.08706c-0.25226,0.13293 -0.51421,0.25635 -0.76976,0.38368c-0.46617,0.23312 -0.93882,0.45335 -1.41859,0.66645c-0.35245,0.15455 -0.7073,0.3084 -1.06864,0.45175c-0.37407,0.15065 -0.75855,0.28597 -1.14062,0.42701c-0.70249,0.25145 -1.41539,0.48619 -2.1444,0.70249c-0.23785,0.07047 -0.47577,0.14095 -0.71771,0.20661c-0.51981,0.14263 -1.04373,0.28198 -1.57715,0.40539l0.0016,0.0016c-2.67792,0.62401 -5.51911,1.03092 -8.56069,1.21831c-3.29063,0.2019 -6.27366,0.16907 -9.05961,-0.02482v0c-2.20446,-0.15455 -4.26789,-0.41892 -6.22161,-0.77617c-0.09449,-0.01682 -0.18988,-0.03443 -0.28518,-0.05125c-0.60399,-0.1146 -1.19837,-0.23633 -1.78146,-0.36767c-0.2035,-0.04733 -0.39818,-0.09859 -0.60079,-0.14743c-0.77465,-0.18419 -1.5276,-0.38609 -2.27013,-0.60079c-0.46937,-0.13613 -0.93562,-0.27557 -1.39137,-0.42372c-0.27077,-0.08569 -0.54233,-0.17547 -0.80749,-0.26595c-0.72412,-0.24994 -1.44182,-0.5038 -2.1379,-0.77777l-0.12101,0.11611c0.26275,1.88165 0.91159,2.89414 1.42989,3.37631c1.05654,0.98447 3.09034,1.21839 3.09034,1.21839c0,0 -6.2168,0.86995 -9.60193,-3.92985c-0.35965,-0.51021 -0.72251,-1.03892 -1.06695,-1.60207l-0.14824,-0.32202c-0.73532,-0.24585 -1.48025,-0.57267 -2.21567,-0.99327c-4.48411,-2.58334 -5.04727,-4.71403 -5.04727,-4.71403l0.0937,0.78097c0.43182,2.03549 0.85313,3.32026 0.85313,3.32026c0,0 -5.36688,-3.39633 -7.75721,-8.48605c-1.92721,-4.10853 -2.08025,-6.59728 -2.09306,-7.01548l-0.18027,-1.49468c-0.11611,-5.85314 0.24754,-12.41839 1.05182,-18.87713l0.04965,-0.17218c0.7169,-4.9928 0.02162,-13.26432 6.64613,-21.72794c12.41359,-15.85566 25.09545,-15.30453 32.6804,-27.02274c5.57917,-8.62075 4.14617,-18.50787 4.14617,-18.50787c0,0 3.42125,4.84385 4.7862,7.68835c1.32169,2.77233 2.73309,6.34574 2.73309,6.34574l0.04565,-0.03043c0.03123,-0.10419 0.05926,-0.21071 0.08328,-0.31721c0.37255,-1.65893 0.22512,-4.11173 0.22512,-4.11173c0,0 3.2618,9.55949 8.52777,15.82675c5.26277,6.26415 12.86934,8.0544 22.47287,29.50677c1.19517,2.66581 2.30616,4.90952 2.90055,7.39675l0.26917,1.43141c0.83712,4.47299 0.50789,16.83043 -1.25123,22.16936v0v0v0v0zM218.07742,159.99185c0,0 -6.22081,6.46185 -5.81071,15.45347c0.36285,7.95581 2.42478,10.41334 3.53577,11.02854c1.14232,0.62882 2.91336,0.25635 2.91336,0.25635c0,0 -5.00962,2.653 -9.09333,-0.94683c-2.73148,-2.40627 -5.70411,-5.51031 -6.53641,-14.26552M269.84406,174.32063c0,0 0.77297,2.21247 -1.11109,6.83681c-2.11948,5.20992 -6.59167,6.82159 -6.59167,6.82159c0,0 3.71595,-8.02638 0.59759,-15.57289c-1.36094,-3.29704 -5.56156,-5.75295 -9.94637,-7.48717c-5.94204,-2.3519 -12.22139,-3.37721 -12.22139,-3.37721M272.70368,189.9768c-0.33483,1.06375 -0.89789,2.45191 -1.84792,4.17099c-2.02268,3.67671 -7.96472,6.75904 -7.96472,6.75904c0,0 1.07344,-3.68793 0.70739,-8.76571M204.35335,177.96932c-0.6104,1.13271 -1.07977,2.34701 -1.34252,3.62947c-1.65013,7.99594 1.25363,16.80329 1.25363,16.80329c0,0 -5.36527,-3.39482 -7.75721,-8.48613c-2.12029,-4.51863 -2.09306,-7.07795 -2.09306,-7.07795M279.11837,182.38465c-2.64099,6.95934 -6.39227,10.96447 -6.39227,10.96447c0,0 0.77465,-7.05863 -2.35021,-14.60595c-0.14095,-0.34123 -0.3004,-0.67287 -0.46937,-0.99487M240.57193,161.54178c0,0 1.06384,0.28198 3.8706,2.51607c2.80685,2.23409 3.83937,4.67159 3.83937,4.67159c0,0 -8.28745,-2.18275 -12.87575,-3.83287c-4.58351,-1.65173 -20.05059,-5.86356 -20.05059,-5.86356M214.32864,194.77172c2.24682,3.52937 4.5843,5.44945 4.5843,5.44945c0,0 -5.49749,1.70217 -10.54805,-1.20478c-4.48411,-2.58324 -5.04727,-4.71403 -5.04727,-4.71403M263.40695,197.25976c-5.92522,4.55867 -13.11288,6.79277 -21.85535,7.331c-10.42294,0.64163 -18.04153,-0.88107 -24.55312,-3.43558M216.81338,200.68893c0.19709,2.25731 0.92281,3.42766 1.49236,3.95629c1.05734,0.98447 3.09114,1.21839 3.09114,1.21839c0,0 -6.2184,0.86995 -9.60273,-3.92985c-0.35965,-0.51021 -0.72251,-1.03892 -1.06695,-1.60207M241.17351,161.80935c0,0 22.70279,2.76921 22.70279,15.16029" fill="#be1e2d"/><path d="M268.32607,182.32779c-0.84673,8.91145 -11.09109,18.20899 -26.08312,19.08535c-13.23549,0.78097 -32.79501,-5.17067 -35.63309,-16.13035c-0.28198,-1.10147 -0.43173,-2.16523 -0.47257,-3.18733l0.28759,0.2099c1.00449,1.47065 2.11869,2.53119 3.19765,3.47963c4.0837,3.59823 9.09333,0.94523 9.09333,0.94523c0,0 -1.77104,0.37407 -2.91336,-0.25475c-1.111,-0.6152 -3.17291,-3.07273 -3.53577,-11.02854c-0.4101,-8.99322 5.81071,-15.45347 5.81071,-15.45347l0.02162,-0.2067c4.65557,1.28967 13.93069,3.89303 17.30549,5.10981c4.58831,1.65092 12.87575,3.83287 12.87575,3.83287c0,0 -1.03252,-2.43749 -3.83937,-4.67159c-1.40499,-1.1174 -2.37183,-1.74622 -2.98704,-2.09626l0.57676,0.09049c0,0 17.5041,2.58734 20.70984,10.35407c3.11757,7.54731 -0.59678,15.57289 -0.59678,15.57289c0,0 3.80813,-1.37375 6.05745,-5.67607l0.12493,0.02482v0v0v0v0z" fill="#e6e7e8"/></g><g stroke="#000000" stroke-linecap="round" stroke-linejoin="miter"><path d="M274.51245,166.05962c0,0 8.06633,-9.03157 8.51496,-9.45939c0.44854,-0.42773 3.78242,-4.51454 13.39075,-5.91081c0,0 -6.17027,27.43774 -20.54319,33.71381c0,-0.00081 1.36734,-7.85171 -1.36254,-18.34361v0v0v0v0zM274.56851,166.28073c-0.2075,-0.86755 -0.83392,-2.39995 -0.83392,-2.39995M275.18611,186.5067c0,0 0.55185,-1.31529 0.68888,-2.10427" fill="#be1e2d"/><path d="M281.60312,180.09049c0,0 -1.43942,-1.10627 -1.60527,-4.74535c-0.10651,-2.25731 0.88516,-6.37376 0.88516,-6.37376l-0.08008,0.13133c0.62882,-0.72732 1.29207,-1.57715 1.89286,-2.50957c1.01811,-1.57725 2.20917,-3.94267 3.30105,-6.27447l0.16897,-0.32121c0,0 2.88693,-4.22224 8.87061,-4.75657l0.06887,0.03763c-1.26075,4.17099 -3.31706,10.28849 -5.59439,14.46741c-2.55441,4.6877 -5.51022,8.09205 -8.01348,10.43025l0.10571,-0.08569v0v0v0v0zM278.39106,171.4538c0,0 2.09946,-2.05151 2.49196,-2.48243" fill="#929497"/></g><g stroke="#000000" stroke-linecap="round" stroke-linejoin="miter"><path d="M196.65148,184.40243c-14.37211,-6.27607 -20.54247,-33.71381 -20.54247,-33.71381c9.60843,1.39706 12.9423,5.48389 13.39085,5.91081c0.44854,0.42701 8.51496,9.45939 8.51496,9.45939c-2.73069,10.4927 -1.36335,18.34361 -1.36335,18.34361v0v0v0zM198.79179,163.88078c0,0 -0.62641,1.5324 -0.83382,2.39995M196.65148,184.40243c0.13694,0.78898 0.68888,2.10427 0.68888,2.10427" fill="#be1e2d"/><path d="M191.02906,180.17618c-2.50326,-2.33899 -5.45826,-5.74334 -8.01357,-10.43025c-2.27814,-4.17891 -4.33355,-10.29642 -5.59439,-14.46741l0.06895,-0.03763c5.98448,0.53512 8.87061,4.75657 8.87061,4.75657l0.16897,0.32121c1.09177,2.33179 2.28294,4.69721 3.30105,6.27447c0.60079,0.93242 1.26404,1.78225 1.89286,2.50957l-0.08008,-0.13133c0,0 0.99167,4.11645 0.88507,6.37376c-0.16577,3.63908 -1.60527,4.74535 -1.60527,4.74535l0.10579,0.08569v0v0v0v0zM191.64346,168.97137c0.39249,0.43093 2.49196,2.48243 2.49196,2.48243" fill="#929497"/></g><path d="M229.4641,178.1616v0v0v0v0v0c0.63842,0.17858 1.00929,0.84023 0.82902,1.47865c-0.17858,0.64003 -0.83703,1.0109 -1.48025,0.83552c-0.03684,-0.01121 -3.76409,-1.02451 -7.40797,0.03763c-0.11212,0.03203 -0.22352,0.04885 -0.33483,0.04885c-0.52062,0 -1.00129,-0.34283 -1.15424,-0.86665c-0.09059,-0.306 -0.04573,-0.62081 0.0921,-0.88516c-0.22512,-0.19709 -0.43813,-0.45175 -0.58557,-0.80269c-0.17297,-0.4069 0.01761,-0.87787 0.42613,-1.05013c0.40459,-0.16737 0.87716,0.01522 1.05103,0.42541c0.13774,0.32682 0.53663,0.42052 0.54143,0.42212c0.11781,0.02643 0.22111,0.08089 0.31,0.15135c0.11861,-0.02482 0.23793,-0.05045 0.35485,-0.07047c-0.12332,-0.18579 -0.23785,-0.39409 -0.3068,-0.65044c-0.11372,-0.42852 0.14103,-0.86514 0.56955,-0.97967c0.43173,-0.11852 0.86675,0.14263 0.97967,0.56955c0.09049,0.34123 0.46295,0.49579 0.46617,0.4974c0.17387,0.05935 0.302,0.17947 0.39578,0.32202c2.86923,-0.13374 5.12575,0.48067 5.25396,0.5167z" fill="#231f20" stroke="none" stroke-linecap="butt" stroke-linejoin="miter"/><path d="M258.12896,177.17473v0v0v0v0v0c-0.14103,0.71451 -0.56955,1.14143 -0.91961,1.39857c0.08889,0.22512 0.13462,0.47265 0.07207,0.72572c-0.15937,0.64323 -0.79619,1.04061 -1.45463,0.87956c-2.49525,-0.6152 -5.72581,-0.83863 -6.37546,-0.17698c-0.23463,0.23785 -0.54224,0.35805 -0.85384,0.35805c-0.3068,0 -0.6104,-0.11621 -0.84512,-0.34765c-0.47257,-0.46465 -0.47898,-1.2248 -0.01281,-1.69906c1.25523,-1.27517 3.90423,-1.24233 6.02381,-0.96364c0.1033,-0.08889 0.26747,-0.27068 0.28349,-0.52222c0.02251,-0.43973 0.36775,-0.80829 0.84032,-0.75855c0.44133,0.02243 0.78017,0.39729 0.75855,0.84023c-0.01601,0.27877 -0.08488,0.5143 -0.17057,0.72892c0.1049,0.02162 0.20501,0.04085 0.29879,0.06255c0.08328,-0.12822 0.18739,-0.24113 0.33803,-0.3068c0.02243,-0.01281 0.37727,-0.18909 0.44615,-0.53192c0.08809,-0.43333 0.50229,-0.72251 0.94202,-0.62882c0.43333,0.08809 0.71451,0.50709 0.62882,0.94202z" fill="#231f20" stroke="none" stroke-linecap="butt" stroke-linejoin="miter"/><path d="M248.7945,185.98368c0,0 -2.31417,5.87957 -9.57311,5.84834c-7.26053,-0.02652 -10.13456,-4.43695 -10.13456,-4.43695" fill="none" stroke="#231f20" stroke-linecap="round" stroke-linejoin="miter"/></g></g></g></svg>