<svg version="1.1" xmlns="http://www.w3.org/2000/svg" xmlns:xlink="http://www.w3.org/1999/xlink" width="36.04628" height="33.60648" viewBox="0,0,36.04628,33.60648"><g transform="translate(-222.11473,-163.19728)"><g><path d="M239.91894,166.94727c10.5,1 16.5,8 16,29h-23c0,-9 10,-6.5 8,-21" fill="#ffffff" fill-rule="evenodd" stroke="#000000" stroke-width="1.5" stroke-linecap="round" stroke-linejoin="round" stroke-miterlimit="4"/><path d="M241.91894,174.94729c0.38,2.91 -5.55,7.37 -8,9c-3,2 -2.82,4.34 -5,4c-1.042,-0.94 1.41,-3.04 0,-3c-1,0 0.19,1.23 -1,2c-1,0 -4.003,1 -4,-4c0,-2 6,-12 6,-12c0,0 1.89,-1.9 2,-3.5c-0.73,-0.994 -0.5,-2 -0.5,-3c1,-1 3,2.5 3,2.5h2c0,0 0.78,-1.992 2.5,-3c1,0 1,3 1,3" fill="#ffffff" fill-rule="evenodd" stroke="#000000" stroke-width="1.5" stroke-linecap="round" stroke-linejoin="round" stroke-miterlimit="4"/><path d="M227.41894,182.44729c0,0.27614 -0.22386,0.5 -0.5,0.5c-0.27614,0 -0.5,-0.22386 -0.5,-0.5c0,-0.27614 0.22386,-0.5 0.5,-0.5c0.27614,0 0.5,0.22386 0.5,0.5z" fill="#000000" fill-rule="evenodd" stroke="#000000" stroke-width="1.5" stroke-linecap="round" stroke-linejoin="round" stroke-miterlimit="4"/><path d="M232.85193,172.69739c-0.41421,0.71744 -0.94387,1.18711 -1.18301,1.04904c-0.23915,-0.13807 -0.09723,-0.8316 0.31699,-1.54904c0.41421,-0.71744 0.94387,-1.18711 1.18301,-1.04904c0.23915,0.13807 0.09723,0.8316 -0.31699,1.54904z" fill="#000000" fill-rule="evenodd" stroke="#000000" stroke-width="1.5" stroke-linecap="round" stroke-linejoin="round" stroke-miterlimit="4"/><path d="M234.77905,180.11008c-0.67598,0.46999 -3.4023,0.17265 -3.4023,0.17265c0,0 -1.95181,3.01947 -3.54542,5.06829c-0.68379,0.8791 -0.8117,1.21206 -1.49708,1.65555c-0.92988,0 -3.72231,0.92988 -3.71952,-3.71952c0,-1.85976 5.57929,-11.15858 5.57929,-11.15858c0,0 1.75747,-1.76677 1.85976,-3.25458c-0.63175,-0.86022 2.32471,-0.46493 2.32471,-0.46493c0,0 5.33367,0.43276 5.88302,3.08863c0.93539,4.5223 -2.10585,7.6554 -3.48245,8.6125z" fill="#ffffff" fill-rule="evenodd" stroke="#000000" stroke-width="1" stroke-linecap="round" stroke-linejoin="round" stroke-miterlimit="4"/><path d="M230.55187,171.3151c1.01033,-0.91842 2.57388,-0.8439 3.4923,0.16643c0.91842,1.01033 0.8439,2.57388 -0.16643,3.4923c-1.01033,0.91842 -4.38934,1.33184 -5.30776,0.32151z" fill="#ffffff" fill-rule="nonzero" stroke="#000000" stroke-width="1" stroke-linecap="butt" stroke-linejoin="miter" stroke-miterlimit="10"/><path d="M231.83979,173.77651c-0.38703,0.67037 -0.88195,1.10923 -1.1054,0.98021c-0.22347,-0.12902 -0.09085,-0.77704 0.2962,-1.44741c0.38703,-0.67037 0.88195,-1.10923 1.1054,-0.98022c0.22347,0.12902 0.09085,0.77705 -0.2962,1.44742z" fill="#000000" fill-rule="evenodd" stroke="#000000" stroke-width="1.5" stroke-linecap="round" stroke-linejoin="round" stroke-miterlimit="4"/><path d="M244.34467,166.94727c0,0 1.73773,0.18591 3.6024,1.30722c1.42501,0.85693 2.90928,2.26872 3.83732,3.44737c2.90405,3.69523 4.63672,9.39702 4.64136,14.13462c0.0383,1.46027 0.90868,10.06876 0.90868,10.06876c0,0 -10.4422,0.39051 -10.67527,0.1345c-0.22792,-0.25036 -0.03799,-12.24232 -0.12275,-12.82459c-0.13357,-1.69869 -0.53907,-3.46138 -1.37699,-4.94372c-0.23547,-0.41655 -1.35596,-1.76032 -1.35596,-1.76032c0,0 0.38351,-1.92573 0.40278,-2.42359z" fill="#ffffff" fill-rule="nonzero" stroke="#000000" stroke-width="1.5" stroke-linecap="butt" stroke-linejoin="miter" stroke-miterlimit="10"/><path d="M246.77102,188.36618c0,0 -0.04349,2.61573 -0.04349,3.15217c0,0.99513 0.42834,4.53439 0.42834,4.53439l-14.17167,-0.0173c0,0 -0.24692,-2.17009 0.62432,-4.49338c0.96763,-2.58032 3.07974,-5.34964 3.44088,-5.54485z" fill="#ffffff" fill-rule="nonzero" stroke="#000000" stroke-width="1.5" stroke-linecap="butt" stroke-linejoin="miter" stroke-miterlimit="10"/><path d="M251.57185,172.3913c0,0 -1.61978,2.59804 -2.63444,3.6797c-0.95602,1.01916 -3.28807,2.63392 -3.28807,2.63392" fill="none" fill-rule="nonzero" stroke="#000000" stroke-width="1" stroke-linecap="round" stroke-linejoin="miter" stroke-miterlimit="10"/><path d="M255.31532,178.98428c0,0 -2.61006,2.49173 -4.07431,3.10513c-1.26196,0.52866 -4.02724,0.97358 -4.02724,0.97358" fill="none" fill-rule="nonzero" stroke="#000000" stroke-width="1" stroke-linecap="round" stroke-linejoin="miter" stroke-miterlimit="10"/><path d="M228.69734,183.48874l-4.5568,-2.72225" fill="none" fill-rule="nonzero" stroke="#000000" stroke-width="1.5" stroke-linecap="round" stroke-linejoin="miter" stroke-miterlimit="10"/><path d="M245.68348,170.22455c0,-0.41422 0.33578,-0.75 0.75,-0.75c0.41422,0 0.75,0.33578 0.75,0.75c0,0.41422 -0.33578,0.75 -0.75,0.75c-0.41422,0 -0.75,-0.33578 -0.75,-0.75z" fill="#000000" fill-rule="nonzero" stroke="none" stroke-width="0.5" stroke-linecap="butt" stroke-linejoin="miter" stroke-miterlimit="10"/><path d="M251.25334,175.5689c0,-0.41422 0.33578,-0.75 0.75,-0.75c0.41422,0 0.75,0.33578 0.75,0.75c0,0.41422 -0.33578,0.75 -0.75,0.75c-0.41422,0 -0.75,-0.33578 -0.75,-0.75z" fill="#000000" fill-rule="nonzero" stroke="none" stroke-width="0.5" stroke-linecap="butt" stroke-linejoin="miter" stroke-miterlimit="10"/><path d="M253.36999,182.97717c0,-0.41422 0.33578,-0.75 0.75,-0.75c0.41422,0 0.75,0.33578 0.75,0.75c0,0.41422 -0.33578,0.75 -0.75,0.75c-0.41422,0 -0.75,-0.33578 -0.75,-0.75z" fill="#000000" fill-rule="nonzero" stroke="none" stroke-width="0.5" stroke-linecap="butt" stroke-linejoin="miter" stroke-miterlimit="10"/><path d="M247.12846,189.89897c0,0 2.84556,0.15625 5.02424,-0.1149c2.49705,-0.31077 4.27327,-1.69434 4.27327,-1.69434" fill="none" fill-rule="nonzero" stroke="#000000" stroke-width="1" stroke-linecap="round" stroke-linejoin="miter" stroke-miterlimit="10"/><path d="M254.09817,191.02497c0,-0.41422 0.33578,-0.75 0.75,-0.75c0.41422,0 0.75,0.33578 0.75,0.75c0,0.41422 -0.33578,0.75 -0.75,0.75c-0.41422,0 -0.75,-0.33578 -0.75,-0.75z" fill="#000000" fill-rule="nonzero" stroke="none" stroke-width="0.5" stroke-linecap="butt" stroke-linejoin="miter" stroke-miterlimit="10"/></g></g></svg>