<svg version="1.1" xmlns="http://www.w3.org/2000/svg" xmlns:xlink="http://www.w3.org/1999/xlink" width="36.67762" height="37.25674" viewBox="0,0,36.67762,37.25674"><g transform="translate(-221.71909,-161.37162)"><g stroke="#000000" stroke-width="1.5"><path d="" fill="#ffffff" fill-rule="evenodd" stroke-linecap="round" stroke-linejoin="round" stroke-miterlimit="4"/><path d="" fill="#ffffff" fill-rule="evenodd" stroke-linecap="round" stroke-linejoin="round" stroke-miterlimit="4"/><path d="" fill="#000000" fill-rule="evenodd" stroke-linecap="round" stroke-linejoin="round" stroke-miterlimit="4"/><path d="" fill="#000000" fill-rule="evenodd" stroke-linecap="round" stroke-linejoin="round" stroke-miterlimit="4"/><path d="" fill="#ffffff" fill-rule="nonzero" stroke-linecap="round" stroke-linejoin="miter" stroke-miterlimit="10"/><path d="" fill="none" fill-rule="nonzero" stroke-linecap="round" stroke-linejoin="miter" stroke-miterlimit="10"/><path d="" fill="#ffffff" fill-rule="nonzero" stroke-linecap="butt" stroke-linejoin="miter" stroke-miterlimit="10"/><path d="" fill="none" fill-rule="nonzero" stroke-linecap="round" stroke-linejoin="miter" stroke-miterlimit="10"/><path d="M241.10278,172.19533c2.57851,0.24558 7.43659,5.57631 7.43659,5.57631l4.18909,-0.08805l0.23616,3.70366l3.04806,1.7599l-1.03778,3.34078l2.50409,3.45766l-1.52468,2.60914l1.69241,2.91891l-2.37396,2.40473h-20.36931c0,-7.9706 8.85623,-5.75654 7.08498,-18.59807" fill="#ffffff" fill-rule="evenodd" stroke-linecap="round" stroke-linejoin="round" stroke-miterlimit="4"/><g><path d="M249.21068,178.86937c0,8.18715 -1.26794,10.65337 -8.31799,10.65337c-7.05005,0 -16.77064,-1.02832 -18.42359,-6.05803c-1.18677,-3.6112 7.03587,-12.37617 11.46576,-12.71672c1.47373,-4.46921 2.17193,-8.62636 5.13424,-8.62636c7.05005,0 10.1416,8.5606 10.1416,16.74774z" fill="#ffffff" fill-rule="nonzero" stroke-linecap="butt" stroke-linejoin="miter" stroke-miterlimit="10"/><path d="M222.67112,183.18364c0,0 6.1347,0.01021 9.37869,0.41462c3.26787,0.40737 10.89862,1.96784 10.89862,1.96784" fill="none" fill-rule="nonzero" stroke-linecap="round" stroke-linejoin="miter" stroke-miterlimit="10"/><path d="M227.74458,179.86615c0,0.29239 -0.23704,0.52943 -0.52943,0.52943c-0.29239,0 -0.52943,-0.23704 -0.52943,-0.52943c0,-0.29239 0.23704,-0.52943 0.52943,-0.52943c0.29239,0 0.52943,0.23704 0.52943,0.52943z" fill="#000000" fill-rule="evenodd" stroke-linecap="round" stroke-linejoin="round" stroke-miterlimit="4"/><g fill-rule="nonzero" stroke-linecap="butt" stroke-linejoin="miter" stroke-miterlimit="10"><path d="M233.31272,176.38041c0,-2.70469 2.19257,-4.89726 4.89726,-4.89726c2.70469,0 4.89726,2.19257 4.89726,4.89726c0,2.70469 -2.19257,4.89726 -4.89726,4.89726c-2.70469,0 -4.89726,-2.19257 -4.89726,-4.89726z" fill="#ffffff"/><path d="M237.0544,176.37543c0,-0.68226 0.55307,-1.23533 1.23533,-1.23533c0.68226,0 1.23533,0.55307 1.23533,1.23533c0,0.68226 -0.55307,1.23533 -1.23533,1.23533c-0.68226,0 -1.23533,-0.55307 -1.23533,-1.23533z" fill="#000000"/></g></g><path d="M237.74851,195.80917l-4.86575,0.00688c0,0 -0.65483,1.92215 -1.89711,1.87432c-0.87303,-0.03361 -1.38505,-0.68957 -1.42864,-1.48542c-0.04358,-0.79583 0.90211,-1.78518 0.90211,-1.78518c0,0 -0.86251,-0.63758 -0.90304,-1.54418c-0.04053,-0.90659 0.21768,-1.71567 1.24648,-1.66165c1.34392,0.07057 1.97608,1.78122 1.97608,1.78122l4.92043,0.13976" fill="#ffffff" fill-rule="nonzero" stroke-linecap="round" stroke-linejoin="miter" stroke-miterlimit="10"/></g></g></svg>