<svg version="1.1" xmlns="http://www.w3.org/2000/svg" xmlns:xlink="http://www.w3.org/1999/xlink" width="21.26182" height="22.83218" viewBox="0,0,21.26182,22.83218"><g transform="translate(-224.6191,-163.45646)"><g fill="#ffffff" stroke="#000000" stroke-width="1.5" stroke-miterlimit="10"><path d="M225.3691,173.36394c0,-4.91367 2.24487,-9.15747 5.01405,-9.15747c2.02266,0 4.03316,0.92894 4.82589,3.98955c0.21717,-0.00393 -0.0982,-0.00374 0.11895,0.00057c0.80808,-2.99006 2.79521,-3.90193 4.78888,-3.90193c2.76918,0 5.01405,4.28722 5.01405,9.20089c0,1.8012 -0.30165,3.47738 -0.82019,4.87817c-1.27217,4.17989 -5.20797,7.29065 -9.18558,7.16103c-3.78007,-0.12319 -7.87976,-3.25787 -9.03653,-7.57609c-0.4567,-1.34112 -0.71951,-2.91345 -0.71951,-4.5947z" stroke-linejoin="miter"/><path d="M236.90827,175.29059c0,2.52063 -0.85653,3.75688 -1.68349,3.75688c-0.82695,0 -1.73003,-1.32592 -1.73003,-3.84657c0,-2.52063 1.73003,-7.17327 1.73003,-7.17327c0,0 1.68349,4.74233 1.68349,7.26296z" stroke-linejoin="bevel"/></g></g></svg>