<svg version="1.1" xmlns="http://www.w3.org/2000/svg" xmlns:xlink="http://www.w3.org/1999/xlink" width="35.70123" height="32.3055" viewBox="0,0,35.70123,32.3055"><g transform="translate(-222.14997,-164.05626)"><g stroke="#000000" stroke-miterlimit="10"><path d="M240,164.80626c6.59571,0 16.82444,1.6882 16.82444,1.6882c0,0 -3.64651,9.59663 -6.92771,15.19374c-3.2812,5.59711 -9.89673,13.50554 -9.89673,13.50554c0,0 -6.57577,-7.84061 -9.89673,-13.50554c-3.32097,-5.66493 -6.92771,-15.19374 -6.92771,-15.19374c0,0 10.22874,-1.6882 16.82444,-1.6882z" fill="#ffffff" stroke-width="1.5"/><path d="M239.93424,169.77165c0.08787,-0.0051 0.8379,0.02546 1.04419,0.04201c1.14607,0.0955 2.19155,0.32727 3.23446,0.71565c2.3329,0.87102 4.2723,2.46914 5.44893,4.49005c0.16809,0.28779 0.18465,0.33365 0.18465,0.51192c0,0.16936 -0.01783,0.22284 -0.14007,0.43805c-1.4708,2.57739 -4.14242,4.44167 -7.27628,5.07455c-2.39784,0.48517 -4.88482,0.24195 -7.09928,-0.69656c-0.63671,-0.26869 -1.18555,-0.56412 -1.78913,-0.96015c-1.32053,-0.86973 -2.4475,-2.04892 -3.19882,-3.35035c-0.18465,-0.32089 -0.21775,-0.44569 -0.16937,-0.65072c0.0242,-0.09805 0.07004,-0.19101 0.22285,-0.44697c0.60996,-1.02256 1.39438,-1.91521 2.36217,-2.69327c1.87573,-1.50644 4.31686,-2.38511 6.84459,-2.46279c0.16427,-0.0051 0.31326,-0.01018 0.33109,-0.01146zM237.27281,171.45637c-0.03183,0.00891 -0.14263,0.04075 -0.24832,0.07003c-1.1206,0.31708 -2.28323,0.89139 -3.20518,1.5854c-0.87738,0.66217 -1.66434,1.51027 -2.18263,2.35582l-0.03947,0.06495l0.1006,0.1579c0.72458,1.1346 1.7815,2.13169 3.04091,2.87027c0.39858,0.2343 1.00981,0.5272 1.45805,0.69911c0.42405,0.16299 1.20084,0.40113 1.11424,0.34255c-0.30307,-0.20757 -0.55012,-0.41513 -0.7997,-0.66981c-0.77423,-0.79333 -1.2403,-1.78532 -1.36637,-2.91102c-0.02166,-0.19101 -0.02166,-0.78951 0,-0.98052c0.12989,-1.16517 0.6278,-2.19409 1.44787,-2.99253c0.23049,-0.22412 0.44952,-0.40367 0.7182,-0.58832c0.03821,-0.02547 0.03566,-0.02547 -0.0382,-0.00382zM242.68736,171.45383c0.01146,0.00891 0.07131,0.05093 0.13371,0.09422c0.21775,0.1528 0.39475,0.30435 0.6227,0.53102c0.12607,0.12735 0.27124,0.28016 0.32089,0.34128c0.60996,0.73985 0.97162,1.58794 1.09387,2.5672c0.03056,0.24323 0.03056,0.84428 0,1.0875c-0.11079,0.88375 -0.41768,1.66562 -0.92196,2.3469c-0.30435,0.41132 -0.73859,0.83409 -1.13716,1.10787c-0.05986,0.04075 -0.11333,0.07895 -0.1197,0.08405c-0.0242,0.02037 0.39348,-0.09678 0.68001,-0.19229c1.89357,-0.62779 3.5159,-1.77259 4.63522,-3.27266c0.16555,-0.22158 0.42149,-0.61252 0.41131,-0.62907c-0.00382,-0.00764 -0.08406,-0.12861 -0.177,-0.26869c-0.63799,-0.95761 -1.47715,-1.78532 -2.49462,-2.45769c-0.35146,-0.23304 -0.61505,-0.38457 -1.02509,-0.58959c-0.56667,-0.28397 -1.05566,-0.4788 -1.63633,-0.65199c-0.25978,-0.0764 -0.40877,-0.1146 -0.38584,-0.09805zM239.73686,174.05541c-0.30562,0.05476 -0.57686,0.19992 -0.80225,0.43042c-0.19356,0.19738 -0.31198,0.40623 -0.38457,0.67873c-0.03183,0.1146 -0.03438,0.14517 -0.03438,0.36675c0,0.22158 0.00256,0.25214 0.03438,0.36674c0.07259,0.2725 0.19101,0.48135 0.38457,0.67745c0.23304,0.23814 0.49154,0.37566 0.81243,0.43296c0.18338,0.0331 0.46481,0.02164 0.63926,-0.02547c0.51573,-0.13626 0.92959,-0.55138 1.0722,-1.06967c0.03183,-0.11843 0.03438,-0.14389 0.03438,-0.38202c0,-0.23814 -0.00254,-0.2636 -0.03438,-0.38203c-0.0191,-0.07004 -0.06621,-0.191 -0.10441,-0.26868c-0.21266,-0.43805 -0.61633,-0.74369 -1.08749,-0.82518c-0.14644,-0.02547 -0.38967,-0.02547 -0.52974,0z" fill="#000000" stroke-width="0.5"/></g></g></svg>