<svg version="1.1" xmlns="http://www.w3.org/2000/svg" xmlns:xlink="http://www.w3.org/1999/xlink" width="37.74487" height="37.16521" viewBox="0,0,37.74487,37.16521"><g transform="translate(-219.98004,-161.4174)"><g><path d="M220.91509,193.03543v-26.07085h10.52973c0.89282,-2.97588 2.09163,-4.79718 3.40964,-4.79718c1.17746,0 2.25979,1.45357 3.1138,3.88535c3.68231,1.28354 19.00665,7.04006 19.00665,13.94726c0,6.90721 -15.32434,12.66372 -19.00665,13.94725c-0.85401,2.43178 -1.93634,3.88535 -3.1138,3.88535c-1.31801,0 -2.51682,-1.8213 -3.40964,-4.79718z" fill="#000000" fill-rule="nonzero" stroke="#000000" stroke-width="1.5" stroke-linecap="butt" stroke-linejoin="miter" stroke-miterlimit="10"/><g stroke="#ffffff" stroke-width="1"><g><path d="M239.97166,176.19436c1.63981,-0.04695 2.98183,0.35811 2.99748,0.90471c0.01566,0.54661 -1.301,1.02778 -2.94082,1.07471c-1.63981,0.04695 -2.98183,-0.35811 -2.99748,-0.90471c-0.01566,-0.54661 1.301,-1.02778 2.94082,-1.07471z" fill="#ffffff" fill-rule="evenodd" stroke-linecap="round" stroke-linejoin="round" stroke-miterlimit="4"/><path d="M234.62663,175.73114c0,-1.52086 2.40574,-2.75375 5.37337,-2.75375c2.96764,0 5.37338,1.23289 5.37338,2.75375c0,1.52086 -2.40574,2.75375 -5.37338,2.75375c-2.96764,0 -5.37337,-1.2329 -5.37337,-2.75375z" fill="none" fill-rule="nonzero" stroke-linecap="butt" stroke-linejoin="miter" stroke-miterlimit="10"/></g><g><path d="M237.03085,182.73094c0.01565,-0.54659 1.35767,-0.95166 2.99748,-0.90471c1.63982,0.04693 2.95647,0.52811 2.94082,1.07471c-0.01565,0.54659 -1.35767,0.95166 -2.99748,0.90471c-1.63982,-0.04693 -2.95647,-0.52811 -2.94082,-1.07471z" fill="#ffffff" fill-rule="evenodd" stroke-linecap="round" stroke-linejoin="round" stroke-miterlimit="4"/><path d="M240,181.51513c2.96764,0 5.37338,1.23289 5.37338,2.75375c0,1.52086 -2.40574,2.75375 -5.37338,2.75375c-2.96764,0 -5.37337,-1.2329 -5.37337,-2.75375c0,-1.52086 2.40574,-2.75375 5.37337,-2.75375z" fill="none" fill-rule="nonzero" stroke-linecap="butt" stroke-linejoin="miter" stroke-miterlimit="10"/></g></g><path d="M219.98004,192.28224v-24.55276h1.71847v24.55276z" fill="#000000" fill-rule="nonzero" stroke="none" stroke-width="0" stroke-linecap="butt" stroke-linejoin="miter" stroke-miterlimit="10"/></g></g></svg>