<svg version="1.1" xmlns="http://www.w3.org/2000/svg" xmlns:xlink="http://www.w3.org/1999/xlink" width="30.13058" height="37.4753" viewBox="0,0,30.13058,37.4753"><g transform="translate(-224.93471,-161.26235)"><g fill="#ffffff" stroke-miterlimit="10"><path d="M229.57442,193.66651l-3.57905,-3.57905l3.57905,-3.57905l3.57905,3.57905z" stroke="#000000" stroke-width="1.5"/><path d="M229.57442,183.5227l-3.57905,-3.57905l3.57905,-3.57905l3.57905,3.57905z" stroke="#000000" stroke-width="1.5"/><path d="M229.57442,173.4916l-3.57905,-3.57905l3.57905,-3.57905l3.57905,3.57905z" stroke="#000000" stroke-width="1.5"/><path d="M250.42558,188.53825l-3.57905,-3.57905l3.57905,-3.57905l3.57905,3.57905z" stroke="#000000" stroke-width="1.5"/><path d="M250.42558,178.50715l-3.57905,-3.57905l3.57905,-3.57905l3.57905,3.57905z" stroke="#000000" stroke-width="1.5"/><path d="M250.42464,195.39446c0,1.43218 -4.66769,2.59319 -10.42558,2.59319c-5.75788,0 -10.42558,-1.16101 -10.42558,-2.59319c0,-1.43218 4.66769,-2.59319 10.42558,-2.59319c5.75788,0 10.42558,1.16101 10.42558,2.59319z" stroke="#000000" stroke-width="1.5"/><path d="M250.42464,164.60554c0,1.43218 -4.66769,2.59319 -10.42558,2.59319c-5.75788,0 -10.42558,-1.16101 -10.42558,-2.59319c0,-1.43218 4.66769,-2.59319 10.42558,-2.59319c5.75788,0 10.42558,1.16101 10.42558,2.59319z" stroke="#000000" stroke-width="1.5"/><path d="M229.57537,194.60297v-29.11724h20.85115v29.11724z" stroke="#000000" stroke-width="1.5"/><path d="M230.34612,195.39446v-30.78892h19.30967v30.78892z" stroke="none" stroke-width="0"/><path d="M244.95919,173.4916l-3.57906,-3.57906l3.57906,-3.57906l3.57906,3.57906z" stroke="#000000" stroke-width="1.5"/><path d="M244.95919,183.5227l-3.57905,-3.57905l3.57905,-3.57905l3.57905,3.57905z" stroke="#000000" stroke-width="1.5"/><path d="M244.95919,193.6665l-3.57905,-3.57905l3.57905,-3.57905l3.57905,3.57905z" stroke="#000000" stroke-width="1.5"/><path d="M235.04081,178.50716l-3.57905,-3.57905l3.57905,-3.57906l3.57905,3.57906z" stroke="#000000" stroke-width="1.5"/><path d="M235.04081,188.53825l-3.57905,-3.57905l3.57905,-3.57905l3.57905,3.57905z" stroke="#000000" stroke-width="1.5"/></g></g></svg>