<svg version="1.1" xmlns="http://www.w3.org/2000/svg" xmlns:xlink="http://www.w3.org/1999/xlink" width="38.38914" height="34.77483" viewBox="0,0,38.38914,34.77483"><g transform="translate(-220.80543,-162.61259)"><g fill="#ffffff" stroke="#000000" stroke-miterlimit="10"><path d="M240,167.43629l9.00801,-3.75703l1.39354,10.03889l7.61447,6.28186l-7.61447,6.28186l-1.39354,10.03889l-9.00801,-3.75703l-9.00801,3.75703l-1.39354,-10.03889l-7.61447,-6.28186l7.61447,-6.28186l1.39354,-10.03889z" stroke-width="1.5"/><path d="M225.72076,180c0,-7.88621 6.39304,-14.27924 14.27924,-14.27924c7.88621,0 14.27924,6.39304 14.27924,14.27924c0,7.88621 -6.39304,14.27924 -14.27924,14.27924c-7.88621,0 -14.27924,-6.39304 -14.27924,-14.27924z" stroke-width="1.5"/><path d="M231.29833,180c0,-4.80579 3.89587,-8.70167 8.70167,-8.70167c4.80579,0 8.70167,3.89587 8.70167,8.70167c0,4.80579 -3.89587,8.70167 -8.70167,8.70167c-4.80579,0 -8.70167,-3.89587 -8.70167,-8.70167z" stroke-width="1"/><path d="M238.04353,180c0,-1.08052 0.87594,-1.95647 1.95647,-1.95647c1.08052,0 1.95647,0.87594 1.95647,1.95647c0,1.08052 -0.87594,1.95647 -1.95647,1.95647c-1.08052,0 -1.95647,-0.87594 -1.95647,-1.95647z" stroke-width="1"/></g></g></svg>