<svg version="1.1" xmlns="http://www.w3.org/2000/svg" xmlns:xlink="http://www.w3.org/1999/xlink" width="24.5" height="32" viewBox="0,0,24.5,32"><g transform="translate(-227.75,-164)"><g data-paper-data="{&quot;isPaintingLayer&quot;:true}" fill="#ffffff" fill-rule="nonzero" stroke="#000000" stroke-width="1.5" stroke-linecap="round" stroke-linejoin="miter" stroke-miterlimit="4" stroke-dasharray="" stroke-dashoffset="0" style="mix-blend-mode: normal"><path d="M244,168.75c0,0.89 -0.29,1.71 -0.78,2.38c1.95,1.12 3.28,3.21 3.28,5.62c0,2.03 -0.94,3.84 -2.41,5.03c3,1.06 7.41,5.55 7.41,13.47h-23c0,-7.92 4.41,-12.41 7.41,-13.47c-1.47,-1.19 -2.41,-3 -2.41,-5.03c0,-2.41 1.33,-4.5 3.28,-5.62c-0.49,-0.67 -0.78,-1.49 -0.78,-2.38c0,-2.21 1.79,-4 4,-4c2.21,0 4,1.79 4,4z"/></g></g></svg>