<svg version="1.1" xmlns="http://www.w3.org/2000/svg" xmlns:xlink="http://www.w3.org/1999/xlink" width="39.84315" height="34.79955" viewBox="0,0,39.84315,34.79955"><g transform="translate(-230.07842,-232.60024)"><g fill="#ffffff" stroke="#000000" stroke-width="1.5" stroke-miterlimit="10"><path d="M245.05964,233.35024c0.02949,0.02949 2.27109,3.9228 5.0141,8.67145c2.74301,4.74865 5.20582,9.01064 5.47127,9.46781l0.48666,0.85534h-2.90523h-2.91997l-2.5513,-4.43895c-1.41574,-2.43331 -2.61029,-4.37996 -2.68402,-4.30623c-0.05899,0.05899 -1.29777,2.16786 -2.75776,4.68966l-2.65453,4.57169l1.60746,0.04424c0.88484,0.01475 1.60746,0.08848 1.60746,0.14747c0,0.05899 -0.63413,1.19454 -1.401,2.53655l-1.38625,2.43331l-4.58643,0.01475c-2.50705,0.01475 -4.57169,-0.01475 -4.57169,-0.04424c0,-0.04424 3.20018,-5.604 7.10823,-12.37304c3.90805,-6.76904 7.10823,-12.28455 7.12298,-12.2698z"/><path d="M255.10259,233.5862c0.25071,0.38343 14.06899,24.33316 14.06899,24.39215c0,0.04424 -4.91087,0.07374 -10.91305,0.08848c-8.62721,0.02949 -10.91305,-0.01475 -10.91305,-0.16222c0.01475,-0.08848 0.63414,-1.23878 1.38625,-2.53655l1.38625,-2.35958l5.14683,-0.07373l5.14683,-0.07373l-2.50705,-4.36522c-1.38625,-2.38907 -2.62503,-4.5127 -2.75776,-4.70441c-0.23596,-0.35394 -0.23595,-0.33919 -1.04706,1.09131l-0.82586,1.44524l-0.61939,-1.07656c-0.35394,-0.60464 -0.98808,-1.69595 -1.4305,-2.44806c-0.42767,-0.73737 -0.78161,-1.41575 -0.78161,-1.51898c0,-0.08848 1.00282,-1.91716 2.2416,-4.05553c1.88766,-3.25917 2.2711,-3.84906 2.41857,-3.6426z"/><path d="M246.77033,247.69943c0.14747,0.10323 2.78725,4.71916 2.78725,4.89613c0,0.07373 -1.12081,2.09413 -2.50706,4.4832c-1.37151,2.38907 -2.50705,4.37996 -2.50705,4.43895c0,0.07373 2.46281,0.11798 5.45652,0.11798c3.00847,0 5.45652,-0.04425 5.45652,-0.11798c0,-0.05899 -0.36868,-0.72262 -0.79636,-1.47473l-0.8111,-1.35676h2.91998h2.93472l2.18261,3.79007c1.20929,2.07938 2.21211,3.87856 2.2416,3.98179c0.04424,0.16222 -2.55129,0.19171 -14.18696,0.19171h-14.24596l0.39818,-0.70788c0.23596,-0.39818 2.69877,-4.67491 5.50077,-9.4973c2.78725,-4.83713 5.11734,-8.77469 5.17633,-8.74519z"/></g></g></svg>