<svg version="1.1" xmlns="http://www.w3.org/2000/svg" xmlns:xlink="http://www.w3.org/1999/xlink" width="37.26688" height="36.66518" viewBox="0,0,37.26688,36.66518"><g transform="translate(-231.36659,-231.62384)"><g fill="#ffffff" stroke="#000000" stroke-width="1.5" stroke-miterlimit="10"><path d="M248.45915,233.16357c1.16613,0.9536 1.45417,1.05707 2.07219,0.73827c0.22931,-0.12025 0.44184,-0.27405 1.00953,-0.73827c0.49498,-0.40828 0.70471,-0.5537 0.95919,-0.67115c0.38591,-0.17897 0.69352,-0.1566 1.00953,0.0755c0.22931,0.17058 0.46421,0.48099 0.81377,1.06546c0.41947,0.70751 0.53133,0.8725 0.73268,1.08783c0.43345,0.45862 0.71869,0.46142 2.01905,0.02237c0.93961,-0.316 1.04308,-0.34397 1.37027,-0.34397c0.32439,-0.0028 0.48938,0.05873 0.67675,0.25448c0.24329,0.25448 0.36074,0.56209 0.50896,1.33392c0.19016,0.99275 0.28804,1.3451 0.42786,1.57721c0.08389,0.13423 0.21812,0.26007 0.34956,0.32719c0.25448,0.12864 0.42786,0.15101 1.37866,0.17897c0.96478,0.02796 1.21647,0.05593 1.49052,0.15381c0.3132,0.11466 0.4726,0.26287 0.58446,0.54531c0.03915,0.10067 0.04754,0.20974 0.04754,0.57328c0,0.38312 -0.01678,0.53413 -0.10347,1.04868c-0.12584,0.73827 -0.14821,1.04308 -0.10627,1.30316c0.08669,0.50896 0.34956,0.70751 1.52687,1.15215c0.32439,0.12304 0.65717,0.25448 0.74107,0.29083c0.41388,0.18457 0.76344,0.48938 0.85013,0.73827c0.13423,0.39151 0.01119,0.79979 -0.52014,1.73381c-0.48938,0.85852 -0.59006,1.1074 -0.59285,1.46535c-0.0028,0.27405 0.03635,0.36913 0.27126,0.66556c0.13982,0.17618 0.28524,0.3132 1.02351,0.9536c0.42786,0.36913 0.67395,0.65158 0.80259,0.91724c0.06991,0.13703 0.0811,0.19575 0.0811,0.38591c0,0.19016 -0.01119,0.24889 -0.0811,0.38591c-0.12864,0.26566 -0.37473,0.54811 -0.80259,0.91724c-0.73827,0.64039 -0.88369,0.77742 -1.02351,0.9536c-0.43625,0.5509 -0.3943,0.85292 0.28524,2.06659c0.4754,0.85013 0.60124,1.16054 0.60124,1.49611c0,0.23211 -0.06432,0.40269 -0.21812,0.57607c-0.24329,0.27126 -0.50616,0.40828 -1.40383,0.74945c-1.20528,0.45303 -1.45976,0.64878 -1.54365,1.1857c-0.03915,0.26007 -0.00839,0.60124 0.12304,1.36188c0.0755,0.43625 0.08949,0.58446 0.08949,0.97597c0.0028,0.43905 -0.0028,0.46981 -0.06991,0.61802c-0.1566,0.33278 -0.44184,0.50616 -0.9536,0.58167c-0.11186,0.01678 -0.60683,0.04474 -1.09901,0.05873c-0.9508,0.02796 -1.12418,0.05034 -1.37866,0.17897c-0.13143,0.06712 -0.26566,0.19296 -0.34956,0.32719c-0.13982,0.23211 -0.2377,0.58446 -0.42786,1.57721c-0.14821,0.77183 -0.26566,1.07944 -0.50896,1.33392c-0.18457,0.19016 -0.35236,0.25728 -0.66276,0.25728c-0.32719,0 -0.41108,-0.02237 -1.34231,-0.33278c-1.3451,-0.45303 -1.62195,-0.45303 -2.04702,-0.0028c-0.21533,0.22651 -0.32159,0.38312 -0.74666,1.09901c-0.46421,0.78022 -0.74945,1.09622 -1.09062,1.21647c-0.17897,0.06152 -0.32719,0.06432 -0.52294,0.00559c-0.32719,-0.09788 -0.5537,-0.24609 -1.24723,-0.81377c-0.69912,-0.57328 -0.97597,-0.74666 -1.30316,-0.81937c-0.20694,-0.04754 -0.40269,-0.00559 -0.69073,0.14262c-0.22931,0.12025 -0.44184,0.27405 -1.00953,0.73827c-0.49498,0.40828 -0.70471,0.5537 -0.95919,0.67115c-0.38591,0.17897 -0.69352,0.1566 -1.00953,-0.0755c-0.22931,-0.17058 -0.46421,-0.48099 -0.81377,-1.06546c-0.42506,-0.7159 -0.53133,-0.8725 -0.74666,-1.09901c-0.42506,-0.45023 -0.70191,-0.45023 -2.04702,0.0028c-0.92843,0.31041 -1.01512,0.33278 -1.34231,0.33278c-0.21253,0 -0.27685,-0.01119 -0.40549,-0.06991c-0.41108,-0.19016 -0.58446,-0.5565 -0.79979,-1.67229c-0.16779,-0.87809 -0.23211,-1.12418 -0.36354,-1.37586c-0.07271,-0.13982 -0.2377,-0.30482 -0.38032,-0.37752c-0.25728,-0.12864 -0.42786,-0.15101 -1.39264,-0.17897c-0.55929,-0.01678 -1.00393,-0.04474 -1.15494,-0.06991c-0.46981,-0.0811 -0.76344,-0.27685 -0.89207,-0.59565c-0.05593,-0.14262 -0.06432,-0.20414 -0.06152,-0.60683c0,-0.37473 0.01398,-0.53133 0.08949,-0.96199c0.13143,-0.76064 0.1622,-1.10181 0.12304,-1.36188c-0.08389,-0.53692 -0.33558,-0.72988 -1.54365,-1.1857c-0.89767,-0.34117 -1.16054,-0.4782 -1.40383,-0.74945c-0.15381,-0.17338 -0.21812,-0.34397 -0.21812,-0.57607c0,-0.33558 0.12584,-0.64598 0.60124,-1.49611c0.84174,-1.49891 0.80818,-1.68068 -0.50336,-2.81325c-0.62921,-0.54252 -0.88089,-0.81377 -1.02631,-1.10181c-0.0811,-0.1622 -0.09228,-0.20694 -0.09228,-0.40828c0,-0.20135 0.01119,-0.24609 0.09228,-0.40828c0.14542,-0.28804 0.3971,-0.55929 1.02631,-1.10181c0.60124,-0.51735 0.85852,-0.78861 0.98715,-1.03469c0.06432,-0.12025 0.0755,-0.17338 0.07271,-0.37752c-0.0028,-0.35795 -0.10347,-0.60683 -0.59285,-1.46535c-0.52853,-0.92843 -0.65158,-1.3451 -0.52014,-1.73381c0.08669,-0.24889 0.43625,-0.5537 0.85013,-0.73827c0.08389,-0.03635 0.41667,-0.16779 0.74107,-0.28804c1.17452,-0.44744 1.44018,-0.64878 1.52687,-1.15494c0.04195,-0.26287 0.01958,-0.56489 -0.10627,-1.30316c-0.08949,-0.51735 -0.10347,-0.66556 -0.10347,-1.04868c0,-0.36074 0.00839,-0.4726 0.04754,-0.57328c0.11186,-0.28244 0.27126,-0.43066 0.58446,-0.54531c0.27405,-0.09788 0.52574,-0.12584 1.49052,-0.15381c0.9508,-0.02796 1.12418,-0.05034 1.37866,-0.17897c0.15101,-0.0755 0.3132,-0.2405 0.39151,-0.3999c0.12584,-0.25168 0.19855,-0.53413 0.38591,-1.5045c0.14821,-0.77183 0.26566,-1.07944 0.50896,-1.33392c0.18457,-0.19016 0.35236,-0.25728 0.66276,-0.25728c0.32719,0 0.41108,0.02237 1.34231,0.33278c1.3479,0.45303 1.62475,0.45303 2.061,-0.00839c0.20135,-0.21533 0.3132,-0.38032 0.73268,-1.08783c0.46421,-0.77742 0.74666,-1.09342 1.09062,-1.21647c0.21253,-0.0783 0.45862,-0.05313 0.72988,0.07271z"/></g></g></svg>