<svg version="1.1" xmlns="http://www.w3.org/2000/svg" xmlns:xlink="http://www.w3.org/1999/xlink" width="37.19072" height="38.3056" viewBox="0,0,37.19072,38.3056"><g transform="translate(-231.40464,-230.8472)"><g fill="#000000" stroke="none" stroke-miterlimit="10"><path d="M254.61945,230.8472l0.10938,0.10626c0.05937,0.05625 0.86877,0.80315 1.79691,1.65941c0.92815,0.85626 1.72191,1.58753 1.76254,1.62816l0.075,0.07186l-0.45313,0.44689c-0.25001,0.24687 -0.72815,0.75628 -1.06253,1.1344c-0.33439,0.37812 -0.77813,0.85003 -0.98127,1.05001c-0.50314,0.49063 -1.11565,0.94065 -1.20315,0.88439c-0.10938,-0.06562 -1.06877,-0.75001 -1.41879,-1.00939c-0.96878,-0.72188 -1.58753,-1.37191 -1.90942,-2.00629l-0.10314,-0.20938l1.69378,-1.87816z"/><path d="M247.7943,233.85351c0.23438,0.5125 0.77813,1.27503 1.33128,1.88442c0.80626,0.88126 2.1438,1.91253 2.91568,2.2438c0.89376,0.3875 1.70629,0.57188 2.6438,0.60627c2.01254,0.07186 3.99384,-0.71563 6.27825,-2.4938c0.78439,-0.60939 1.36565,-1.00003 1.49065,-0.9969c0.02188,0 0.10314,0.09689 0.18125,0.2125c0.16563,0.24376 0.44689,0.58751 1.03126,1.25629c0.71877,0.82501 1.08129,1.32503 1.31253,1.82191c0.19375,0.41562 0.20625,0.48439 0.12502,0.65001c-0.14377,0.28751 -0.87501,0.91565 -1.64067,1.40942c-1.21877,0.79064 -2.53443,1.4344 -3.43445,1.68127c-4.05321,1.11565 -6.87828,0.7469 -9.19082,-1.19689c-0.90001,-0.75628 -2.00317,-2.08443 -2.40319,-2.88444c-0.53126,-1.06563 -0.9344,-2.50005 -0.97815,-3.48444c-0.02188,-0.45313 0,-0.63126 0.08439,-0.77189c0.09063,-0.14687 0.16249,-0.13126 0.25314,0.0625z"/><path d="M245.43174,238.64112c0.74376,0.12188 1.31253,0.30312 1.81254,0.58751c1.5344,0.86564 2.72193,2.6313 3.08443,4.58759c0.05625,0.29376 0.06875,0.48126 0.06875,1.03126c0,0.61564 -0.00625,0.70626 -0.08439,1.07815c-0.28438,1.33439 -1.10003,3.01881 -2.01879,4.17198c-0.45313,0.56876 -0.71563,0.78752 -1.66565,1.37815c-0.15,0.09375 -0.275,0.175 -0.275,0.18437c0,0.03437 1.60004,0.73126 1.93754,0.84689c1.19064,0.39687 2.07818,0.24687 2.96569,-0.50938c0.66252,-0.5625 1.2094,-1.3594 2.09693,-3.05632c1.5094,-2.88131 2.56256,-4.19697 3.96883,-4.94696c0.92503,-0.49376 2.12504,-0.70626 3.75008,-0.66876c1.37191,0.03437 1.92192,0.19688 2.90632,0.85939c0.57188,0.38126 0.88439,0.63751 1.32815,1.0844c1.55316,1.55002 2.61256,3.78445 3.05944,6.43764c0.25939,1.54692 0.30001,3.25319 0.1125,4.9376c-0.35313,3.19383 -1.35627,5.68136 -2.95319,7.32515c-0.53751,0.55312 -1.00939,0.9219 -1.60004,1.25004c-1.12502,0.62189 -2.46255,0.9094 -3.83133,0.81876c-1.68441,-0.1125 -2.77507,-0.56876 -3.78758,-1.58129c-1.21252,-1.21565 -1.89067,-2.78131 -2.19379,-5.06261c-0.07814,-0.58751 -0.075,-1.91253 0.00313,-2.34067c0.06875,-0.37812 0.17188,-0.70002 0.32814,-1.03751c0.1125,-0.24061 0.175,-0.32188 0.2125,-0.28438c0.00938,0.00938 0.02813,0.16249 0.04063,0.34375c0.03124,0.39375 0.09063,0.63126 0.24687,0.99376c0.26875,0.62502 0.70938,1.26253 1.22191,1.78129c0.35625,0.35937 0.60003,0.54687 0.95003,0.73439c1.61254,0.85626 3.83133,0.61252 5.6845,-0.62502c0.51564,-0.34375 0.8094,-0.5844 1.24066,-1.01878c0.96565,-0.97189 1.64691,-2.17817 1.9063,-3.36883c0.55312,-2.54068 0.01875,-5.89074 -1.1219,-7.03139c-0.27189,-0.27189 -0.53751,-0.4 -1.05315,-0.50314c-0.7469,-0.14687 -1.49379,-0.16249 -1.95003,-0.03437c-0.56563,0.15939 -1.11252,0.51564 -1.64691,1.07502c-0.5625,0.59064 -1.03439,1.25315 -1.79691,2.53131c-1.32503,2.21568 -2.5063,3.56882 -3.41882,3.91257c-0.47501,0.17813 -0.77813,0.20312 -2.65943,0.22813l-1.63128,0.01875l0.35937,0.79689c0.45002,1.00003 0.54687,1.2469 0.68127,1.72505c0.62814,2.25318 0.45313,5.15948 -0.42501,7.05639c-0.75939,1.62816 -2.49067,3.3907 -4.10321,4.17198c-0.46877,0.22813 -0.77503,0.33125 -1.3094,0.43751c-1.64691,0.325 -3.96571,0.23752 -5.33137,-0.20938c-0.65626,-0.2125 -1.55316,-0.62814 -2.25005,-1.04377c-2.51254,-1.4969 -4.48134,-3.9532 -5.6595,-7.05014c-0.35937,-0.94689 -0.68751,-2.10004 -0.85626,-3.01569c-0.40315,-2.18441 -0.50001,-5.13448 -0.17813,-5.45635c0.05625,-0.05312 0.07186,-0.05625 0.11564,-0.02188c0.17813,0.14687 0.49063,1.02503 0.95003,2.65943c0.2125,0.76252 0.45002,1.4719 0.73752,2.20007c0.82501,2.10942 1.84379,3.78132 2.78131,4.57197c1.15315,0.96878 2.83442,1.62192 4.90637,1.90005c0.54687,0.075 1.93442,0.09063 2.50005,0.03124c1.23754,-0.13126 2.2188,-0.45002 3.00318,-0.97189c0.95003,-0.63439 1.57816,-1.55002 1.83129,-2.67507c0.0625,-0.28438 0.07186,-0.40315 0.06875,-0.9344c-0.00313,-0.68127 -0.04688,-0.95313 -0.24376,-1.54692c-0.20312,-0.60314 -0.45626,-1.04065 -0.82814,-1.43129c-0.50938,-0.53438 -1.17814,-0.85314 -2.11254,-1.01252c-0.57815,-0.09689 -2.19692,-0.07186 -2.84381,0.04063c-0.08751,0.01562 -0.10938,0 -0.25939,-0.19062c-0.77813,-0.96878 -1.5344,-2.41567 -1.97191,-3.7782c-0.20312,-0.62502 -0.50626,-1.90005 -0.46251,-1.94379c0.00625,-0.00625 0.55312,0.03749 1.21252,0.09689c2.12816,0.19375 3.10318,0.14063 4.21259,-0.23125c0.43127,-0.14377 0.66563,-0.25625 1.03439,-0.49689c0.575,-0.37188 1.20003,-1.1219 1.40629,-1.68441c0.10626,-0.29688 0.08125,-0.61564 -0.075,-0.93128c-0.2125,-0.43127 -0.75939,-1.08129 -1.12502,-1.34065c-1.45627,-1.03439 -3.74383,-0.59064 -7.95017,1.5344c-0.87814,0.44376 -0.88126,0.44376 -0.92503,0.37501c-0.025,-0.03749 -0.62189,-1.03751 -1.32815,-2.22192c-1.02813,-1.72191 -1.27817,-2.16254 -1.2469,-2.19068c0.12812,-0.11875 1.37191,-1.04065 1.63441,-1.21252c1.70316,-1.1094 4.09071,-1.93442 6.21888,-2.1438c0.19062,-0.01875 0.3875,-0.04063 0.43751,-0.04688c0.25001,-0.03437 1.85941,0.00938 2.15629,0.05625z"/></g></g></svg>