<svg version="1.1" xmlns="http://www.w3.org/2000/svg" xmlns:xlink="http://www.w3.org/1999/xlink" width="29.50999" height="36.05164" viewBox="0,0,29.50999,36.05164"><g transform="translate(-225.09294,-161.93968)"><g stroke-miterlimit="10"><path d="M239.91635,162.69005c3.59881,-0.02165 6.73491,0.92 9.16749,2.75187c0.92,0.6927 1.86164,1.66411 2.54623,2.61928c0.88753,1.24741 1.61541,2.83034 2.03211,4.42951c0.40588,1.55588 0.56553,3.06305 0.53035,5.00857c-0.02706,1.60729 -0.11906,2.68693 -0.32741,3.82881c-0.414,2.2567 -1.26364,4.18869 -2.81952,6.41021c-1.26094,1.80211 -3.57446,4.59728 -5.06539,6.12339c-1.90764,1.95635 -3.59881,3.06034 -5.17092,3.37963c-0.44647,0.092 -1.17705,0.092 -1.62352,0c-1.96717,-0.39776 -4.03175,-1.95635 -6.70786,-5.06269c-1.82646,-2.11599 -3.26058,-3.97222 -4.11563,-5.31704c-1.49635,-2.35952 -2.20258,-4.42951 -2.45964,-7.22468c-0.10012,-1.09047 -0.13259,-3.30116 -0.06224,-4.15351c0.21647,-2.57328 0.85506,-4.7001 1.9834,-6.5888c0.53576,-0.89564 1.04988,-1.55317 1.83729,-2.34328c1.02553,-1.03094 1.95364,-1.69658 3.26058,-2.33787c1.78588,-0.87941 3.75575,-1.37188 5.97998,-1.49905c0.20835,-0.01082 0.66564,-0.02435 1.0147,-0.02435zM231.51461,179.33116c-1.30694,0.05953 -2.06999,0.99576 -2.1674,2.65987c-0.04059,0.70082 0.13259,1.54235 0.47623,2.31352c1.02011,2.28646 3.69351,4.43492 6.1288,4.92198c0.61964,0.12447 1.38811,0.12988 1.83458,0.01353c0.52223,-0.13529 0.7847,-0.43294 0.86047,-0.98223c0.15423,-1.08776 -0.736,-3.10634 -2.26211,-5.13033c-1.61811,-2.14576 -3.39316,-3.60151 -4.59998,-3.77469c-0.10282,-0.01353 -0.22459,-0.02435 -0.27059,-0.02165zM247.30337,179.66398c-1.64788,0.828 -3.89645,3.33363 -5.14386,5.73645c-0.86858,1.67223 -1.06341,2.93858 -0.53847,3.51222c0.22729,0.24894 0.51682,0.35176 1.11211,0.40047c1.78046,0.14341 4.08857,-0.92811 5.81492,-2.69775c1.23929,-1.26905 1.94552,-2.63011 2.08623,-4.01551c0.07035,-0.70082 -0.06765,-1.5667 -0.33553,-2.09705c-0.28953,-0.57635 -0.7847,-0.98764 -1.33129,-1.104c-0.58176,-0.12718 -1.02282,-0.05682 -1.66411,0.26518zM239.99752,192.42216c-1.95905,0 -2.86822,0.00812 -2.86822,0.02706c0,0.09741 0.3247,0.48976 0.54929,0.65753c0.63317,0.48706 1.66411,0.73059 2.70587,0.644c0.84153,-0.07035 1.44764,-0.27059 1.93199,-0.644c0.22459,-0.16776 0.54929,-0.56012 0.54929,-0.65753c0,-0.01894 -0.90917,-0.02706 -2.86822,-0.02706z" fill="#ffffff" stroke="#000000" stroke-width="1.5"/><path d="M248.99331,179.35599c0.54659,0.11635 1.0533,0.53724 1.34283,1.11359c0.26788,0.53035 0.41536,1.41197 0.34501,2.11279c-0.14071,1.38541 -0.85649,2.79725 -2.09578,4.0663c-1.72635,1.76964 -4.09912,2.8497 -5.87959,2.70629c-0.59529,-0.04871 -0.89196,-0.1572 -1.11926,-0.40614c-0.52494,-0.57364 -0.34376,-1.86274 0.52482,-3.53497c1.24741,-2.40281 3.55767,-4.97001 5.20555,-5.79801c0.64129,-0.322 1.09465,-0.38703 1.67641,-0.25985z" fill="#000000" stroke="none" stroke-width="0.5"/><path d="M231.76484,179.30714c1.20682,0.17318 3.04689,1.65211 4.665,3.79787c1.52611,2.02399 2.40985,4.09736 2.25562,5.18512c-0.07576,0.54929 -0.34589,0.85425 -0.86812,0.98954c-0.44647,0.11635 -1.22696,0.11779 -1.84661,-0.00668c-2.43528,-0.48706 -5.17717,-2.68225 -6.19728,-4.96871c-0.34365,-0.77117 -0.51151,-1.63485 -0.47092,-2.33567c0.09741,-1.66411 0.88287,-2.62267 2.1898,-2.6822c0.046,-0.00271 0.1697,0.00721 0.27252,0.02074z" fill="#000000" stroke="none" stroke-width="0.5"/></g></g></svg>