<svg version="1.1" xmlns="http://www.w3.org/2000/svg" xmlns:xlink="http://www.w3.org/1999/xlink" width="36.05813" height="37.29495" viewBox="0,0,36.05813,37.29495"><g transform="translate(-221.7335,-161.35253)"><g fill="#ffffff" stroke="#000000" stroke-width="1.5" stroke-miterlimit="10"><path d="M235.63423,197.89747v-14.16824h9.001v14.16824z"/><path d="M240.21547,162.10253c0.00917,0 0.11003,0.12531 0.22617,0.27507c0.38204,0.49513 0.81604,0.98109 1.37536,1.54345c1.21948,1.21643 2.39006,2.0722 3.72569,2.71709l0.51041,0.24756l-0.21089,0.10392c-0.11614,0.05501 -0.22006,0.12531 -0.22617,0.15282c-0.01834,0.0703 -0.35454,0.22923 -0.60516,0.29035c-0.10697,0.02445 -0.3851,0.06113 -0.61433,0.07641c-0.23228,0.01834 -0.46151,0.05196 -0.51347,0.0703l-0.09169,0.03973l0.18338,0.28118c0.88023,1.36313 2.10582,2.59789 4.62731,4.66398c0.651,0.53486 0.80688,0.67851 0.77631,0.70602c-0.02139,0.02139 -0.1192,0.0703 -0.21394,0.10697c-0.0978,0.03973 -0.17727,0.09169 -0.17727,0.11308c0,0.04585 -0.19866,0.15282 -0.39427,0.21089c-0.30258,0.08863 -0.74575,0.13754 -1.37841,0.15587c-0.36065,0.00917 -0.69073,0.03056 -0.73352,0.0489c-0.04279,0.01834 -0.08863,0.02751 -0.10086,0.02445c-0.04279,-0.00917 0.00611,0.11614 0.21089,0.53486c0.43094,0.87717 1.08806,1.87354 1.96217,2.97688c0.83133,1.04527 1.67182,1.97134 3.11442,3.42616c0.61127,0.61433 1.10945,1.12779 1.10945,1.13696c0,0.01223 -0.08252,0.06418 -0.18644,0.11308c-0.10086,0.05196 -0.23228,0.14059 -0.2873,0.19561c-0.05807,0.05807 -0.18644,0.13142 -0.31175,0.17727c-0.46456,0.17421 -1.39981,0.32703 -1.73906,0.28424c-0.08558,-0.00917 -0.24145,-0.00306 -0.35148,0.01528c-0.10697,0.01834 -0.21394,0.03668 -0.23534,0.03668c-0.0489,0.00611 -0.03362,0.05196 0.13754,0.43706c0.16199,0.36676 0.56848,1.12779 0.90468,1.69627c1.11557,1.87354 2.83935,4.22081 4.85959,6.61393c0.33925,0.40038 0.63878,0.75797 0.66934,0.79465l0.0489,0.06418l-0.41566,0.00306c-0.23228,0.00306 -0.55014,0.01528 -0.70907,0.02751c-0.30563,0.02139 -1.56791,-0.06418 -3.13275,-0.217c-4.71594,-0.45234 -8.28881,-1.17364 -10.91116,-2.19751c-0.52875,-0.20783 -0.61738,-0.22923 -0.86189,-0.23228c-0.24145,0 -0.22311,-0.00611 -1.07889,0.37899c-2.43285,1.09112 -6.26245,1.83075 -11.93503,2.29837c-0.31786,0.02445 -0.63572,0.05196 -0.70296,0.05807c-1.03916,0.10392 -1.99274,0.12531 -1.80324,0.04585c0.06113,-0.02445 -0.48596,-0.01223 -0.84661,0.02139l-0.17421,0.01528l0.67851,-0.68157c1.72378,-1.73295 3.28557,-3.69818 4.55396,-5.73065c0.55625,-0.8894 1.21031,-2.12722 1.54345,-2.91575c0.19561,-0.46456 0.21089,-0.50124 0.15893,-0.47068c-0.01528,0.00917 -0.03056,0.00611 -0.03056,-0.00917c0,-0.05196 -0.22617,-0.09475 -0.66017,-0.12531c-0.78242,-0.05807 -1.65348,-0.23534 -1.77879,-0.36065c-0.05196,-0.05196 -0.16504,-0.09475 -0.40649,-0.14976c-0.18338,-0.04279 -0.33314,-0.08252 -0.33314,-0.08863c0,-0.00306 0.40955,-0.40038 0.91079,-0.87717c1.01471,-0.97192 2.03858,-1.99885 2.42674,-2.43896c0.99026,-1.11557 1.7574,-2.17917 2.47564,-3.43839c0.33925,-0.59293 0.76103,-1.43343 0.67851,-1.3509c-0.01223,0.01223 -0.04279,0.00306 -0.06724,-0.01834c-0.03362,-0.02445 -0.22006,-0.03973 -0.64489,-0.04279c-0.44011,-0.00306 -0.69379,-0.02139 -0.95358,-0.06724c-0.36371,-0.06418 -0.71213,-0.17116 -0.68462,-0.21394c0.01528,-0.02751 -0.1467,-0.08252 -0.55014,-0.18644c-0.13448,-0.03668 -0.24756,-0.0703 -0.25368,-0.07335c-0.00306,-0.00611 0.27813,-0.24451 0.62655,-0.5318c2.31365,-1.89188 3.82349,-3.42616 4.82291,-4.89627l0.23839,-0.34842l-0.11614,-0.05196c-0.06418,-0.03056 -0.22923,-0.06113 -0.36371,-0.07335c-0.44928,-0.03362 -0.70296,-0.07641 -0.88023,-0.14059c-0.0978,-0.03668 -0.17116,-0.07335 -0.16199,-0.08558c0.00611,-0.01223 -0.14059,-0.06724 -0.33009,-0.12225c-0.55625,-0.15893 -0.5532,-0.13448 -0.06113,-0.43094c1.98968,-1.19809 3.15109,-2.08137 4.51728,-3.42922c0.3362,-0.33009 0.72741,-0.73047 0.87106,-0.89245c0.14365,-0.15893 0.2659,-0.29035 0.27507,-0.29035z"/></g></g></svg>