<svg version="1.1" xmlns="http://www.w3.org/2000/svg" xmlns:xlink="http://www.w3.org/1999/xlink" width="25.97226" height="35.50519" viewBox="0,0,25.97226,35.50519"><g transform="translate(-227.01387,-162.2474)"><g stroke="#000000" stroke-miterlimit="10"><path d="M231.1414,197.0026c-1.86535,0 -3.37752,-1.51218 -3.37752,-3.37753v-27.25013c0,-1.86535 1.51217,-3.37753 3.37752,-3.37753h17.71721c1.86535,0 3.37752,1.51218 3.37752,3.37753v27.25013c0,1.86535 -1.51217,3.37753 -3.37752,3.37753z" fill="#ffffff" stroke-width="1.5"/><path d="M243.25055,170.06428c0.97291,0.96564 1.36497,1.8369 1.43031,3.15831c0.06534,1.39401 -0.36303,2.57748 -1.27785,3.53586c-0.26864,0.26864 -0.47919,0.49371 -0.47193,0.49371c0,0 0.19604,-0.06534 0.43563,-0.15247c0.66797,-0.23233 1.79334,-0.26864 2.54843,-0.07987c1.49566,0.37755 2.55569,1.23429 3.22366,2.59199c1.35045,2.75899 -0.25412,6.09155 -3.23818,6.75226c-0.79139,0.18151 -1.98938,0.12343 -2.65734,-0.12343c-0.88578,-0.32672 -1.728,-0.92935 -2.19993,-1.57552c-0.29768,-0.40659 -0.47919,-0.42837 -0.47919,-0.05809c0,0.12343 0.42837,1.63361 0.95113,3.34709c0.51549,1.72074 0.95838,3.18736 0.98016,3.2527c0.0363,0.12343 -0.12343,0.13069 -2.58473,0.13069h-2.6283l0.04356,-0.16699c0.02178,-0.08712 0.46467,-1.56101 0.98743,-3.26722c0.87852,-2.88242 1.03825,-3.53586 0.88578,-3.53586c-0.0363,0 -0.1089,0.08712 -0.16699,0.18877c-0.17425,0.32672 -1.05277,1.08907 -1.56826,1.35045c-0.89304,0.46467 -1.18346,0.53002 -2.30884,0.53002c-0.92208,0 -1.06729,-0.02178 -1.54648,-0.19604c-0.74783,-0.26864 -1.27058,-0.60262 -1.82238,-1.15442c-0.9366,-0.92935 -1.39401,-2.02568 -1.40128,-3.33257c-0.01452,-1.88047 0.92208,-3.45599 2.57021,-4.31999c1.07455,-0.56632 2.33062,-0.68975 3.57942,-0.36303c0.20329,0.05809 0.19604,0.0363 -0.19604,-0.38481c-0.45741,-0.50098 -0.9366,-1.38675 -1.11086,-2.08376c-0.14521,-0.55906 -0.14521,-1.62635 -0.00726,-2.22171c0.45741,-1.98938 2.14911,-3.4923 4.14574,-3.68833c1.56826,-0.15247 2.79529,0.28316 3.88436,1.37223z" fill="#000000" stroke-width="0"/></g></g></svg>