<svg version="1.1" xmlns="http://www.w3.org/2000/svg" xmlns:xlink="http://www.w3.org/1999/xlink" width="25.97225" height="35.50519" viewBox="0,0,25.97225,35.50519"><g transform="translate(-227.01749,-162.24742)"><g stroke="#000000" stroke-miterlimit="10"><path d="M231.14502,197.00261c-1.86535,0 -3.37752,-1.51218 -3.37752,-3.37753v-27.25013c0,-1.86535 1.51217,-3.37753 3.37752,-3.37753h17.71721c1.86535,0 3.37752,1.51218 3.37752,3.37753v27.25013c0,1.86535 -1.51217,3.37753 -3.37752,3.37753z" fill="#000000" stroke-width="1.5"/><path d="M238.02628,169.79423c0.54454,0.40659 1.25607,1.11086 1.74252,1.70622l0.2396,0.29042l0.26138,-0.32672c0.45015,-0.55906 1.4884,-1.54648 1.93855,-1.84417c1.43031,-0.95113 2.57021,-1.13264 3.98601,-0.63892c0.75509,0.25412 1.30689,0.62441 1.85868,1.21976c0.98016,1.07455 1.45936,2.59199 1.45936,4.66849c0,3.33257 -1.37949,6.96281 -3.78272,9.93235c-0.25412,0.3122 -1.45936,1.57552 -2.67912,2.81707c-2.14184,2.16362 -2.7009,2.82433 -2.91872,3.43421c-0.05082,0.12343 -0.1089,0.23233 -0.13069,0.23233c-0.02178,0 -0.08712,-0.11617 -0.13795,-0.25412c-0.21055,-0.5881 -0.77687,-1.2488 -2.91145,-3.41243c-1.21976,-1.24154 -2.43953,-2.52665 -2.71542,-2.86789c-1.44484,-1.80786 -2.51939,-3.82628 -3.12927,-5.881c-0.73331,-2.45405 -0.81318,-5.017 -0.21055,-6.8176c0.57358,-1.728 1.80786,-2.87515 3.47777,-3.23818c1.2488,-0.2759 2.40322,0.0363 3.65203,0.98016z" fill="#ffffff" stroke-width="0"/></g></g></svg>