<svg version="1.1" xmlns="http://www.w3.org/2000/svg" xmlns:xlink="http://www.w3.org/1999/xlink" width="34.30826" height="38.77215" viewBox="0,0,34.30826,38.77215"><g transform="translate(-222.84587,-160.61553)"><g stroke-miterlimit="10"><path d="M240.07387,161.11553c0.93035,0.02658 1.6953,0.61433 2.02609,1.55058c0.06498,0.18016 0.06793,0.24514 0.07974,1.12823c0.00591,0.51686 0.01477,0.93921 0.02363,0.93921c0.00591,0 0.07384,-0.04726 0.15063,-0.10928c0.16835,-0.127 0.48142,-0.27467 0.74723,-0.35147c0.25695,-0.07088 0.79449,-0.07384 1.06326,-0.00295c0.5966,0.15653 1.12823,0.57888 1.40291,1.11346c0.18312,0.36328 0.23628,0.58774 0.23628,1.01895c0,0.4253 -0.0443,0.635 -0.19198,0.94216c-0.04726,0.09747 -0.83584,1.27 -1.75437,2.60202l-1.66872,2.42186l-0.00295,1.91091c0,1.0544 0.00591,1.91386 0.01181,1.91386c0.02953,0 3.2577,-1.87251 3.302,-1.91681c0.02658,-0.02658 0.56412,-1.13119 1.19026,-2.45435c1.37042,-2.8826 1.38814,-2.921 1.57126,-3.14546c0.59365,-0.72951 1.6126,-0.99828 2.49274,-0.66158c0.90967,0.34851 1.48265,1.27886 1.38223,2.2476c-0.00886,0.10337 -0.01477,0.18902 -0.01181,0.19493c0.00295,0.00295 0.31012,-0.16835 0.68226,-0.381c0.36919,-0.2156 0.74723,-0.4194 0.83879,-0.45779c0.68226,-0.27467 1.49151,-0.17426 2.10584,0.26581c0.60546,0.42826 0.94512,1.14005 0.89786,1.86365c-0.02363,0.35442 -0.0827,0.56412 -0.24514,0.90081c-0.11814,0.23923 -0.17721,0.31898 -0.40758,0.5464c-0.24809,0.24514 -0.32193,0.29535 -0.96874,0.66453c-0.38395,0.21856 -0.69998,0.40758 -0.70293,0.41644c0,0.00886 0.05021,0.03249 0.11519,0.05021c0.16244,0.05021 0.52572,0.29535 0.70884,0.48142c0.46665,0.4696 0.70884,1.16072 0.62319,1.78981c-0.05612,0.43121 -0.18902,0.75019 -0.46074,1.1046c-0.32784,0.42826 -0.8447,0.72656 -1.41177,0.81221c-0.29535,0.0443 -0.00591,0.06202 -4.15556,-0.26877l-2.02609,-0.16244l-1.65691,0.95102c-0.91263,0.52572 -1.65691,0.95988 -1.65691,0.96874c0,0.00886 0.74428,0.44302 1.65691,0.96874l1.65691,0.95102l2.02609,-0.16244c4.14965,-0.33079 3.86021,-0.31307 4.15556,-0.26877c0.99828,0.15358 1.7396,0.90967 1.87251,1.91681c0.08565,0.62909 -0.15653,1.32021 -0.62319,1.78981c-0.18312,0.18607 -0.5464,0.43121 -0.70884,0.48142c-0.06498,0.01772 -0.11519,0.04135 -0.11519,0.05021c0.00295,0.00886 0.31602,0.19788 0.69998,0.41644c0.58774,0.33374 0.73542,0.43416 0.93626,0.62319c0.67044,0.635 0.87423,1.58307 0.52572,2.44253c-0.36328,0.889 -1.37928,1.45607 -2.33916,1.3084c-0.36328,-0.05612 -0.58479,-0.15358 -1.31726,-0.57593c-0.38395,-0.22151 -0.70293,-0.39872 -0.70588,-0.39577c-0.00295,0.00591 0.00295,0.09156 0.01181,0.19198c0.11519,1.12823 -0.65272,2.14719 -1.78095,2.36279c-0.75609,0.14472 -1.59784,-0.16835 -2.09698,-0.77381c-0.1654,-0.20379 -0.32784,-0.53163 -1.77209,-3.57372l-0.96874,-2.03791l-1.63919,-0.94512c-0.90081,-0.51981 -1.651,-0.95102 -1.66577,-0.95398c-0.01477,-0.00591 -0.02658,0.8004 -0.02658,1.905l0.00295,1.91386l1.66872,2.42186c0.91853,1.33202 1.70712,2.50456 1.75437,2.60202c0.14767,0.30716 0.19198,0.51686 0.19198,0.94216c0,0.43121 -0.05316,0.65567 -0.23628,1.01895c-0.27467,0.53458 -0.8063,0.95693 -1.40291,1.11346c-0.26877,0.07088 -0.8063,0.06793 -1.06326,-0.00295c-0.26581,-0.07679 -0.57888,-0.22447 -0.74723,-0.35147c-0.07679,-0.06202 -0.14472,-0.10928 -0.15063,-0.10928c-0.00886,0 -0.01772,0.42235 -0.02363,0.93921c-0.01181,0.88309 -0.01477,0.94807 -0.07974,1.12823c-0.26286,0.74723 -0.77972,1.25228 -1.50923,1.4797c-0.18016,0.05612 -0.28944,0.06793 -0.5907,0.06793c-0.31898,0 -0.40167,-0.00886 -0.62023,-0.07974c-0.70884,-0.22447 -1.21684,-0.72656 -1.4797,-1.46788c-0.06498,-0.18016 -0.06793,-0.24514 -0.07974,-1.12823c-0.00591,-0.51686 -0.01477,-0.93921 -0.02363,-0.93921c-0.00591,0 -0.07384,0.04726 -0.15063,0.10928c-0.17426,0.12995 -0.49028,0.28058 -0.74723,0.35147c-0.25695,0.07088 -0.8004,0.07088 -1.06326,0.00295c-0.59365,-0.15653 -1.13414,-0.58479 -1.40291,-1.11346c-0.18312,-0.36623 -0.23628,-0.58774 -0.23628,-1.01895c0.00295,-0.42235 0.0443,-0.635 0.19198,-0.94512c0.04726,-0.09747 0.83584,-1.26705 1.75437,-2.59907l1.66872,-2.42186l0.00295,-1.91386c0,-1.11642 -0.01181,-1.91091 -0.02658,-1.905c-0.01477,0.00295 -0.76495,0.43416 -1.66577,0.95398l-1.63919,0.94512l-0.96874,2.03791c-1.397,2.94167 -1.58307,3.31677 -1.7337,3.52056c-0.27172,0.36328 -0.74133,0.6734 -1.21684,0.79449c-0.28058,0.07384 -0.81516,0.07384 -1.07802,0.00295c-0.44893,-0.12109 -0.889,-0.40758 -1.16072,-0.75609c-0.31898,-0.40463 -0.4696,-0.8447 -0.4696,-1.37633c0,-0.18607 0.00886,-0.35147 0.02067,-0.36919c0.00886,-0.01477 0.01181,-0.02953 0.00295,-0.02953c-0.00886,0 -0.33079,0.18016 -0.71179,0.40167c-0.85651,0.49619 -1.14891,0.60251 -1.63919,0.60251c-0.23628,0 -0.66453,-0.09747 -0.89491,-0.20379c-1.42358,-0.64386 -1.73074,-2.48684 -0.5966,-3.57077c0.20084,-0.19493 0.3426,-0.28649 0.93626,-0.62614c0.38691,-0.21856 0.69998,-0.40758 0.70293,-0.41644c0,-0.00886 -0.05021,-0.03249 -0.11519,-0.05021c-0.06202,-0.02067 -0.21265,-0.10042 -0.3367,-0.18016c-0.73837,-0.48437 -1.12528,-1.33498 -0.98351,-2.17377c0.16244,-0.96579 0.89786,-1.68939 1.8607,-1.83412c0.29535,-0.0443 0.01181,-0.06202 4.15556,0.26877l2.02609,0.16244l1.65691,-0.95102c0.91263,-0.52572 1.65691,-0.95988 1.65691,-0.96874c0,-0.00886 -0.74428,-0.44302 -1.65691,-0.96874l-1.65691,-0.95102l-2.02609,0.16244c-4.14374,0.33079 -3.86021,0.31307 -4.15556,0.26877c-0.33965,-0.05021 -0.65567,-0.17721 -0.93921,-0.37214c-0.66453,-0.46074 -1.03372,-1.25523 -0.93626,-2.02609c0.06202,-0.51095 0.27763,-0.95988 0.62909,-1.31135c0.20084,-0.20084 0.48437,-0.39577 0.68226,-0.46665c0.07679,-0.02658 0.13881,-0.05612 0.13881,-0.06498c-0.00295,-0.00886 -0.31602,-0.19493 -0.69998,-0.41349c-0.58774,-0.33374 -0.73542,-0.43416 -0.93626,-0.62319c-0.67044,-0.635 -0.87423,-1.58307 -0.52572,-2.44253c0.36328,-0.889 1.37928,-1.45607 2.33916,-1.3084c0.36328,0.05612 0.58479,0.15358 1.3143,0.57593c0.38395,0.22151 0.70588,0.40167 0.71179,0.40167c0.00886,0 0.00591,-0.01477 -0.00295,-0.02953c-0.01181,-0.01772 -0.02067,-0.18312 -0.02067,-0.36919c0,-0.25105 0.01772,-0.39577 0.06498,-0.56707c0.2097,-0.77381 0.79153,-1.3527 1.57126,-1.56535c0.254,-0.07088 0.82402,-0.06793 1.08688,0.00295c0.4637,0.12405 0.93921,0.43712 1.20207,0.79449c0.1713,0.23628 0.15358,0.20084 1.51514,3.06572c0.635,1.33793 1.17844,2.45435 1.20502,2.48093c0.0443,0.0443 3.27246,1.91681 3.302,1.91681c0.00591,0 0.01181,-0.85946 0.01181,-1.91386l-0.00295,-1.91091l-1.66872,-2.42186c-0.91853,-1.33202 -1.70712,-2.5016 -1.75437,-2.59907c-0.14767,-0.31012 -0.18902,-0.52277 -0.19198,-0.94512c0,-0.43121 0.05316,-0.65272 0.23628,-1.01895c0.26877,-0.52867 0.80926,-0.95693 1.40291,-1.11346c0.26286,-0.06793 0.8063,-0.06793 1.06326,0.00295c0.25695,0.07088 0.57298,0.22151 0.74723,0.35147c0.07679,0.06202 0.14472,0.10928 0.15063,0.10928c0.00886,0 0.01772,-0.42235 0.02363,-0.93921c0.01181,-0.88309 0.01477,-0.94807 0.07974,-1.12823c0.20379,-0.57888 0.52572,-0.9776 1.02191,-1.27c0.19198,-0.11223 0.55821,-0.24219 0.76791,-0.27763c0.05021,-0.00591 0.22151,-0.00886 0.38395,-0.00295zM239.03129,162.86695l-0.07974,0.16835l-0.01477,2.60202l-0.01477,2.60498l-0.85651,-1.24342c-0.4696,-0.68521 -0.90672,-1.29363 -0.96579,-1.35565c-0.381,-0.38395 -1.03077,-0.39281 -1.45607,-0.02067c-0.30716,0.27172 -0.4253,0.8063 -0.25991,1.17844c0.03249,0.07384 0.8447,1.27591 1.80458,2.66995l1.74846,2.53409v3.06867c0,1.68939 -0.00886,3.06867 -0.02067,3.06867c-0.01477,-0.00295 -1.21388,-0.68816 -2.667,-1.52991l-2.64337,-1.52695l-1.3143,-2.76151c-0.7236,-1.52105 -1.34679,-2.81467 -1.38519,-2.8767c-0.17426,-0.28058 -0.61137,-0.48733 -0.95398,-0.44893c-0.37214,0.0384 -0.74133,0.2983 -0.88605,0.62909c-0.07679,0.1713 -0.10337,0.49028 -0.05612,0.6734c0.01772,0.07384 0.32488,0.75019 0.68226,1.50037c0.35737,0.75019 0.64977,1.37337 0.64977,1.38519c0,0.01181 -0.09747,-0.03544 -0.2156,-0.10633c-1.03963,-0.61433 -4.16146,-2.40119 -4.25598,-2.43663c-0.18016,-0.06793 -0.52867,-0.05612 -0.73246,0.02363c-0.23628,0.09156 -0.44302,0.28944 -0.56116,0.52867c-0.08565,0.17721 -0.09451,0.22447 -0.09451,0.44893c0,0.31307 0.09451,0.54344 0.30126,0.74723c0.10042,0.09747 0.67635,0.44302 2.04381,1.2316c1.04849,0.60546 2.032,1.17253 2.18558,1.26409l0.28058,0.1654l-1.55058,0.12405c-1.76028,0.14177 -1.77209,0.14472 -2.05267,0.39872c-0.09451,0.0886 -0.19198,0.2156 -0.24219,0.31602c-0.07384,0.15063 -0.0827,0.20084 -0.0827,0.4637c0,0.24809 0.01181,0.31602 0.07088,0.43416c0.16835,0.34556 0.50505,0.58184 0.85651,0.60842c0.10928,0.00591 1.50923,-0.09156 3.22521,-0.23037l3.02732,-0.24219l2.64337,1.524c1.45312,0.83879 2.64337,1.53581 2.64928,1.54763c0.00295,0.01477 -1.18435,0.71179 -2.64337,1.55353l-2.64928,1.52991l-3.03028,-0.24219c-1.71598,-0.13881 -3.11298,-0.23628 -3.22226,-0.23037c-0.35147,0.02658 -0.68816,0.26286 -0.85651,0.60842c-0.05907,0.11814 -0.07088,0.18607 -0.07088,0.43416c0,0.26286 0.00886,0.31307 0.0827,0.4637c0.05021,0.10042 0.14767,0.22742 0.24219,0.31602c0.28058,0.254 0.2924,0.25695 2.05267,0.39872l1.55058,0.12405l-0.28058,0.1654c-0.15358,0.09156 -1.13709,0.65863 -2.18558,1.26409c-1.37042,0.78858 -1.94339,1.13414 -2.04381,1.2316c-0.20674,0.20379 -0.30126,0.43416 -0.30126,0.74723c0,0.22447 0.00886,0.27172 0.09451,0.44893c0.18016,0.37214 0.52277,0.5907 0.93626,0.5966c0.11519,0 0.25991,-0.01477 0.32488,-0.03249c0.06498,-0.02067 1.1046,-0.60842 2.30963,-1.30544c1.20798,-0.69702 2.19444,-1.25819 2.19444,-1.24637c0,0.00886 -0.2924,0.63205 -0.64977,1.38223c-0.35442,0.74723 -0.66158,1.42358 -0.68226,1.49742c-0.04726,0.18607 -0.02067,0.50505 0.05612,0.67635c0.03249,0.07679 0.12995,0.2097 0.21265,0.2983c0.51981,0.54935 1.39995,0.39577 1.73665,-0.30716c0.05021,-0.10633 0.64977,-1.36746 1.33498,-2.80581c0.68226,-1.43835 1.25819,-2.6286 1.27886,-2.64632c0.0384,-0.03544 5.19518,-3.01846 5.26607,-3.04505c0.03544,-0.01181 0.04135,0.4253 0.04135,3.05686v3.07163l-1.74846,2.53409c-0.95988,1.39405 -1.77209,2.59612 -1.80458,2.66995c-0.1654,0.37214 -0.04726,0.90672 0.25991,1.17844c0.4253,0.37214 1.07507,0.36328 1.45607,-0.02067c0.05907,-0.06202 0.49619,-0.67044 0.96579,-1.35565l0.85651,-1.24342l0.01477,2.60498l0.01477,2.60202l0.07974,0.1713c0.10928,0.23333 0.35442,0.4696 0.57593,0.5523c0.23333,0.0886 0.5523,0.0886 0.78563,0c0.22151,-0.0827 0.46665,-0.31898 0.57593,-0.5523l0.07974,-0.1713l0.01477,-2.60202l0.01477,-2.60498l0.85651,1.24342c0.47256,0.68521 0.90672,1.29363 0.96579,1.35565c0.381,0.38395 1.03077,0.39281 1.45607,0.02067c0.30716,-0.27172 0.4253,-0.8063 0.25991,-1.17844c-0.03249,-0.07384 -0.8447,-1.27591 -1.80458,-2.66995l-1.74846,-2.53409v-3.06867c0,-1.68939 0.00886,-3.06867 0.01772,-3.06867c0.01181,0 1.21093,0.68816 2.66405,1.52695l2.64337,1.52695l0.22151,0.45779c0.12109,0.254 0.65567,1.37633 1.1873,2.49865c0.53163,1.11937 1.03963,2.18263 1.12528,2.36279c0.19198,0.40167 0.36623,0.58774 0.64977,0.69702c0.27172,0.10337 0.56707,0.09747 0.81516,-0.01477c0.21856,-0.10042 0.45484,-0.33374 0.5464,-0.54049c0.07384,-0.1713 0.10337,-0.49028 0.05612,-0.67044c-0.01772,-0.07088 -0.32488,-0.74723 -0.68226,-1.49742c-0.35737,-0.75314 -0.64977,-1.37928 -0.64977,-1.39109c0,-0.01181 0.09747,0.03544 0.2156,0.10633c1.02191,0.60251 4.16146,2.40119 4.25598,2.43663c0.18016,0.06793 0.52867,0.05612 0.73246,-0.02363c0.23628,-0.09156 0.44302,-0.28944 0.56116,-0.52867c0.08565,-0.17721 0.09451,-0.22447 0.09451,-0.44893c-0.00295,-0.2156 -0.01477,-0.27763 -0.09156,-0.44302c-0.05021,-0.10928 -0.14472,-0.24514 -0.21856,-0.31602c-0.0827,-0.07679 -0.81516,-0.51686 -2.03495,-1.21979c-1.04849,-0.60546 -2.032,-1.17253 -2.18558,-1.26409l-0.28058,-0.1654l1.55058,-0.12405c1.76028,-0.14177 1.77209,-0.14472 2.05267,-0.39872c0.09451,-0.0886 0.19198,-0.2156 0.24219,-0.31602c0.07384,-0.15063 0.0827,-0.20084 0.0827,-0.4637c0,-0.28058 -0.00591,-0.30421 -0.10042,-0.48142c-0.18016,-0.33079 -0.48437,-0.53458 -0.82993,-0.56116c-0.10633,-0.00591 -1.52695,0.09451 -3.22226,0.23037l-3.02732,0.24219l-2.64928,-1.52991c-1.45902,-0.84174 -2.64632,-1.54172 -2.64337,-1.55353c0.00591,-0.01181 1.19616,-0.70884 2.64928,-1.54763l2.64042,-1.524l3.03028,0.24219c1.71598,0.13881 3.11593,0.23628 3.22521,0.23037c0.35147,-0.02658 0.66158,-0.24219 0.8447,-0.5907c0.07384,-0.14177 0.0827,-0.18607 0.0827,-0.45188c0,-0.26286 -0.00886,-0.31307 -0.0827,-0.4637c-0.10633,-0.21856 -0.35147,-0.44302 -0.57593,-0.52572c-0.14177,-0.05316 -0.40167,-0.0827 -1.71007,-0.18607c-0.8506,-0.06793 -1.54467,-0.13291 -1.54467,-0.14177c0,-0.00886 0.03249,-0.03249 0.07088,-0.05021c0.0384,-0.01772 1.01895,-0.57888 2.17672,-1.24637c1.34679,-0.77677 2.15605,-1.26114 2.23874,-1.33793c0.07384,-0.07088 0.16835,-0.20674 0.21856,-0.31602c0.07679,-0.1654 0.0886,-0.22742 0.09156,-0.44302c0,-0.22447 -0.00886,-0.27172 -0.09451,-0.44893c-0.11814,-0.23923 -0.32488,-0.43712 -0.56116,-0.52867c-0.20674,-0.07974 -0.5523,-0.09156 -0.73246,-0.02067c-0.10337,0.03544 -3.99312,2.26533 -4.35935,2.4957c-0.06202,0.0384 -0.11223,0.05907 -0.11223,0.0443c0,-0.01477 0.2924,-0.64091 0.64977,-1.39109c0.35737,-0.75019 0.66453,-1.42653 0.68226,-1.49742c0.04726,-0.18016 0.01772,-0.49914 -0.05612,-0.67044c-0.14472,-0.33079 -0.51391,-0.5907 -0.88605,-0.62909c-0.33965,-0.03544 -0.73542,0.14177 -0.93035,0.4194c-0.05021,0.07384 -0.68521,1.37633 -1.40881,2.90032l-1.31726,2.76742l-2.64042,1.52695c-1.45312,0.84174 -2.65223,1.52695 -2.66405,1.52991c-0.01477,0 -0.02363,-1.37928 -0.02363,-3.06867v-3.06867l1.74846,-2.53409c0.95988,-1.39405 1.77209,-2.59612 1.80458,-2.66995c0.1654,-0.37214 0.04726,-0.90672 -0.25991,-1.17844c-0.4253,-0.37214 -1.07507,-0.36328 -1.45607,0.02067c-0.05907,0.06202 -0.49323,0.67044 -0.96579,1.35565l-0.85651,1.24342l-0.01477,-2.60498l-0.01477,-2.60202l-0.07974,-0.1713c-0.10633,-0.22742 -0.35737,-0.4696 -0.56116,-0.5464c-0.55821,-0.20379 -1.13119,0.02363 -1.37633,0.54935z" fill="#000000" stroke="#000000" stroke-width="1"/><path d="M240.40882,162.26537c0.20379,0.07679 0.45658,0.31905 0.56291,0.54646l0.08002,0.17132l0.0154,2.60207l0.01568,2.60505l0.85943,-1.24307c0.47256,-0.68521 0.90938,-1.29316 0.96845,-1.35519c0.381,-0.38395 1.03557,-0.3916 1.46087,-0.01946c0.30716,0.27172 0.39291,0.90562 0.22751,1.27776c-0.03249,0.07384 -0.84093,1.27707 -1.80081,2.67111l-1.74187,2.5354l0.0179,2.96581c0,1.68939 0.0242,3.07464 0.03897,3.07464c0.01181,-0.00295 1.22333,-0.67808 2.67645,-1.51983l2.56024,-1.46007l1.32166,-2.76239c0.7236,-1.524 1.36151,-2.82379 1.41172,-2.89762c0.19493,-0.27763 0.66003,-0.533 0.99968,-0.49756c0.37214,0.0384 0.744,0.30092 0.88872,0.63171c0.07384,0.1713 0.10464,0.49166 0.05738,0.67182c-0.01772,0.07088 -0.32317,0.74927 -0.68055,1.49946c-0.35737,0.75019 -0.64795,1.37874 -0.64795,1.39351c0,0.01477 0.05028,-0.0058 0.1123,-0.0442c0.36623,-0.23037 4.25678,-2.45908 4.36015,-2.49452c0.18016,-0.07088 0.5264,-0.05801 0.73315,0.02173c0.23628,0.09156 0.44415,0.29133 0.56229,0.53056c0.08565,0.17721 0.09514,0.2256 0.09514,0.45006c-0.00295,0.2156 -0.01428,0.27855 -0.09107,0.44395c-0.05021,0.10928 -0.14447,0.24564 -0.21831,0.31652c-0.0827,0.07679 -0.89164,0.5618 -2.23843,1.33857c-1.15777,0.66749 -2.13799,1.22935 -2.17639,1.24707c-0.0384,0.01772 -0.07085,0.04141 -0.07085,0.05027c0,0.00886 0.69528,0.07667 1.54589,0.1446c1.3084,0.10337 1.56927,0.13557 1.71103,0.18874c0.22447,0.0827 0.47029,0.30941 0.57662,0.52797c0.07384,0.15063 0.08311,0.20241 0.08311,0.46527c0,0.26581 -0.00853,0.31155 -0.08236,0.45331c-0.18312,0.34851 -0.59559,0.58507 -0.94706,0.61165c-0.10928,0.00591 -1.50834,-0.08767 -3.22432,-0.22649l-3.02814,-0.23589l-2.54241,1.48801c-1.45312,0.83879 -2.64085,1.55174 -2.64675,1.56355c-0.00295,0.01181 1.18183,0.72794 2.64085,1.56968l2.55126,1.49394l3.02518,-0.23589c1.6953,-0.13586 3.11504,-0.23239 3.22136,-0.22649c0.34556,0.02658 0.75214,0.25126 0.9323,0.58205c0.09451,0.17721 0.10006,0.20235 0.10006,0.48293c0,0.26286 -0.00928,0.31464 -0.08311,0.46527c-0.05021,0.10042 -0.14804,0.22866 -0.24255,0.31726c-0.28058,0.254 -0.29369,0.26065 -2.05397,0.40242l-1.55177,0.12683l0.28052,0.16552c0.15358,0.09156 1.13675,0.65935 2.18524,1.26481c1.21979,0.70293 1.95197,1.14358 2.03467,1.22037c0.07384,0.07088 0.1681,0.20724 0.21831,0.31652c0.07679,0.1654 0.08812,0.22834 0.09107,0.44395c0,0.22447 -0.00949,0.27285 -0.09514,0.45006c-0.11814,0.23923 -0.32601,0.439 -0.56229,0.53056c-0.20379,0.07974 -0.55299,0.09262 -0.73315,0.02469c-0.09451,-0.03544 -3.23485,-1.83297 -4.25675,-2.43548c-0.11814,-0.07088 -0.2157,-0.11801 -0.2157,-0.10619c0,0.01181 0.29058,0.64037 0.64795,1.39351c0.35737,0.75019 0.66283,1.42857 0.68055,1.49946c0.04726,0.18016 0.01646,0.50052 -0.05738,0.67182c-0.09156,0.20674 -0.32972,0.44195 -0.54828,0.54237c-0.24809,0.11223 -0.54504,0.1196 -0.81676,0.01622c-0.28353,-0.10928 -0.52654,-0.37404 -0.71852,-0.77571c-0.08565,-0.18016 -0.59609,-1.24116 -1.12771,-2.36053c-0.53163,-1.12233 -1.06998,-2.24049 -1.19108,-2.49449l-0.13956,-0.39297l-2.64604,-1.52376c-1.45312,-0.83879 -2.66474,-1.51683 -2.67655,-1.51683c-0.00886,0 -0.03294,1.38517 -0.03294,3.07456l-0.0179,2.96581l1.74187,2.5354c0.95988,1.39405 1.76832,2.59728 1.80081,2.67111c0.1654,0.37214 0.07965,1.00604 -0.22752,1.27776c-0.4253,0.37214 -1.07987,0.36449 -1.46087,-0.01946c-0.05907,-0.06202 -0.49589,-0.66998 -0.96845,-1.35519l-0.85943,-1.24307l-0.01568,2.60505l-0.0154,2.60207l-0.08002,0.17132c-0.10928,0.23333 -0.35621,0.46967 -0.57772,0.55237c-0.23333,0.0886 -0.55462,0.0886 -0.78795,0c-0.22151,-0.0827 -0.46844,-0.31905 -0.57772,-0.55237l-0.08002,-0.17132l-0.0154,-2.60207l-0.01568,-2.60505l-0.85943,1.24307c-0.4696,0.68521 -0.90938,1.29316 -0.96845,1.35519c-0.381,0.38395 -1.03557,0.3916 -1.46087,0.01946c-0.30716,-0.27172 -0.39291,-0.90562 -0.22752,-1.27776c0.03249,-0.07384 0.84093,-1.27707 1.80081,-2.67111l1.74187,-2.5354l-0.0179,-2.96877c0,-2.63156 -0.02145,-3.07476 -0.0569,-3.06294c-0.07088,0.02658 -5.15974,2.9327 -5.19814,2.96814c-0.02067,0.01772 -0.60081,1.20316 -1.28307,2.64151c-0.68521,1.43835 -1.28771,2.69673 -1.33792,2.80306c-0.3367,0.70293 -1.28808,0.93286 -1.80789,0.38351c-0.0827,-0.0886 -0.18104,-0.22241 -0.21352,-0.2992c-0.07679,-0.1713 -0.10465,-0.49167 -0.05739,-0.67774c0.02067,-0.07384 0.32613,-0.75223 0.68054,-1.49946c0.35737,-0.75019 0.64797,-1.37577 0.64797,-1.38463c0,-0.01181 -0.98698,0.54861 -2.19496,1.24563c-1.20502,0.69702 -2.24503,1.2842 -2.31001,1.30488c-0.06498,0.01772 -0.20995,0.0321 -0.32514,0.0321c-0.41349,-0.00591 -0.75764,-0.227 -0.9378,-0.59914c-0.08565,-0.17721 -0.09514,-0.2256 -0.09514,-0.45006c0,-0.31307 0.09378,-0.54485 0.30053,-0.74864c0.10042,-0.09747 0.6731,-0.44362 2.04352,-1.2322c1.04849,-0.60546 2.03166,-1.17325 2.18524,-1.26481l0.28052,-0.16552l-1.55177,-0.12683c-1.76028,-0.14177 -1.77339,-0.14842 -2.05397,-0.40242c-0.09451,-0.0886 -0.19234,-0.21684 -0.24255,-0.31726c-0.07384,-0.15063 -0.08311,-0.20241 -0.08311,-0.46527c0,-0.24809 0.01149,-0.3174 0.07056,-0.43554c0.16835,-0.34556 0.60739,-0.60285 0.95886,-0.62944c0.10928,-0.00591 1.50539,0.08767 3.22136,0.22649l3.02814,0.23589l2.55126,-1.49394c1.45902,-0.84174 2.64381,-1.55491 2.64085,-1.56968c-0.00591,-0.01181 -1.19364,-0.72476 -2.64675,-1.56355l-2.54536,-1.48802l-3.02518,0.23589c-1.71598,0.13881 -3.11504,0.23239 -3.22432,0.22649c-0.35147,-0.02658 -0.79051,-0.28387 -0.95886,-0.62942c-0.05907,-0.11814 -0.07056,-0.18745 -0.07056,-0.43554c0,-0.26286 0.00928,-0.31464 0.08311,-0.46527c0.05021,-0.10042 0.14804,-0.22866 0.24255,-0.31726c0.28058,-0.254 0.29369,-0.26065 2.05397,-0.40242l1.55177,-0.12683l-0.28052,-0.16552c-0.15358,-0.09156 -1.13675,-0.65935 -2.18524,-1.26481c-1.36746,-0.78858 -1.9431,-1.13474 -2.04352,-1.2322c-0.20674,-0.20379 -0.30053,-0.43557 -0.30053,-0.74864c0,-0.22447 0.00949,-0.27285 0.09514,-0.45006c0.11814,-0.23923 0.32601,-0.439 0.56229,-0.53056c0.20379,-0.07974 0.55299,-0.09262 0.73315,-0.02469c0.09451,0.03544 3.21713,1.82116 4.25675,2.43549c0.11814,0.07088 0.2157,0.11801 0.2157,0.10619c0,-0.01181 -0.29059,-0.6374 -0.64797,-1.38759c-0.35737,-0.75019 -0.66282,-1.42858 -0.68054,-1.50242c-0.04726,-0.18312 -0.01941,-0.50348 0.05738,-0.67478c0.14472,-0.33079 0.51658,-0.59332 0.88872,-0.63171c0.3426,-0.0384 0.84905,0.24651 1.02331,0.52709c0.0384,0.06202 0.6645,1.35294 1.3881,2.87399l1.3187,2.75649l2.56319,1.46008c1.45312,0.84174 2.66469,1.51684 2.67945,1.5198c0.01181,0 0.03596,-1.38521 0.03596,-3.07461l0.0179,-2.96581l-1.74187,-2.5354c-0.95988,-1.39405 -1.76832,-2.59728 -1.80081,-2.67111c-0.1654,-0.37214 -0.07965,-1.00604 0.22751,-1.27776c0.4253,-0.37214 1.07987,-0.36449 1.46087,0.01946c0.05907,0.06202 0.49884,0.66998 0.96845,1.35519l0.85943,1.24307l0.01568,-2.60505l0.0154,-2.60207l0.08002,-0.16836c0.24514,-0.52572 0.82227,-0.75321 1.38048,-0.54942z" fill="#ffffff" stroke="none" stroke-width="0.5"/></g></g></svg>