<svg version="1.1" xmlns="http://www.w3.org/2000/svg" xmlns:xlink="http://www.w3.org/1999/xlink" width="39.40173" height="36.69783" viewBox="0,0,39.40173,36.69783"><g transform="translate(-230.2998,-231.64332)"><g fill="#ffffff" stroke="#000000" stroke-width="1.5" stroke-miterlimit="10"><path d="M250.68304,233.74347c1.10439,2.36048 1.8902,5.1791 2.24215,8.02502c0.60984,4.94244 -0.05158,10.01534 -1.87807,14.41469c-0.23665,0.56736 -1.01033,2.18147 -1.04674,2.18147c-0.03641,0 -0.81009,-1.61411 -1.04674,-2.18147c-2.51218,-6.04683 -2.78524,-13.23445 -0.7403,-19.59682c0.42173,-1.31677 0.87987,-2.42723 1.52308,-3.69849c0.13653,-0.27306 0.25486,-0.49455 0.26396,-0.49455z"/><path d="M232.0662,242.81523c2.49398,0.76458 5.06077,2.10562 7.28471,3.80468c4.05347,3.09775 7.0784,7.21797 8.60452,11.72957c0.07282,0.21542 0.1335,0.40049 0.1335,0.41263c0,0.05461 -1.30767,-0.38229 -2.10865,-0.70086c-4.14449,-1.65658 -7.95827,-4.62994 -10.78599,-8.40427c-1.30463,-1.7385 -2.40902,-3.72579 -3.16146,-5.68578c-0.1244,-0.32464 -0.44904,-1.25002 -0.44904,-1.2834c0,-0.0182 0.04854,-0.00607 0.48241,0.12743z"/><path d="M268.41696,242.6878c0,0.00303 -0.06675,0.20631 -0.14867,0.446c-1.54736,4.57229 -4.68455,8.79263 -8.83207,11.87824c-2.06011,1.52915 -4.30833,2.71849 -6.58385,3.47397c-0.76154,0.25486 -0.94055,0.30644 -0.94055,0.27913c0,-0.01517 0.06068,-0.20025 0.1335,-0.41566c0.76761,-2.26946 1.85986,-4.3508 3.38295,-6.43215c3.04617,-4.16876 7.57295,-7.51227 12.18771,-8.99894c0.26396,-0.08495 0.53702,-0.17294 0.60377,-0.19418c0.11833,-0.03944 0.19721,-0.05461 0.19721,-0.03641z"/><path d="M246.10164,259.93021c0.46421,0.23362 1.1681,0.62198 1.1681,0.64928c0,0.03641 -1.06191,0.47028 -1.58983,0.64928c-4.12629,1.39869 -8.89579,1.18024 -12.90071,-0.5886c-0.5886,-0.26093 -1.68085,-0.83739 -1.7294,-0.91324c-0.0182,-0.03034 0.14563,-0.10619 0.7403,-0.35195c1.61411,-0.65839 3.4679,-1.07405 5.3308,-1.18934c3.11595,-0.19418 6.3381,0.43387 8.98074,1.74457z"/><path d="M267.30954,259.04124c0.72817,0.24576 1.66872,0.63715 1.64141,0.68569c-0.0091,0.01214 -0.13653,0.09406 -0.28217,0.17901c-2.02977,1.16507 -4.32653,1.88413 -6.85085,2.14203c-0.55523,0.05765 -1.67175,0.10923 -2.00246,0.09406c-0.1335,-0.0091 -0.46117,-0.02124 -0.72817,-0.02731c-1.82649,-0.05765 -3.97762,-0.51882 -5.63117,-1.21058c-0.52792,-0.22148 -0.72513,-0.30947 -0.72513,-0.32464c0,-0.02731 0.7039,-0.41566 1.1681,-0.64928c1.99033,-0.98606 4.33563,-1.5959 6.72038,-1.74457c2.25732,-0.1426 4.63297,0.16384 6.69004,0.8556z"/><path d="M247.45786,262.61533l0.2943,-0.00303l-0.18204,0.26396c-0.65232,0.93448 -1.59894,1.87807 -2.60927,2.60017c-1.60197,1.14383 -3.59533,1.90537 -5.42789,2.07831c-0.54613,0.05158 -0.91021,0.06675 -0.91021,0.03641c0,-0.03337 0.34588,-0.51882 0.54006,-0.76154c1.85379,-2.3089 4.81501,-3.91087 7.72768,-4.18393c0.1517,-0.01517 0.40656,-0.02731 0.56736,-0.03034z"/><path d="M252.2486,262.6123h0.23362c0.12743,0 0.39139,0.01517 0.58253,0.03337c2.95211,0.26699 5.90423,1.85683 7.77319,4.18393c0.19114,0.23665 0.54006,0.72817 0.54006,0.76154c0,0.02731 -0.39442,0.01214 -0.91021,-0.03641c-1.83256,-0.17294 -3.82592,-0.93448 -5.42789,-2.07831c-1.01033,-0.7221 -1.95695,-1.66568 -2.60927,-2.60017z"/></g></g></svg>