<svg version="1.1" xmlns="http://www.w3.org/2000/svg" xmlns:xlink="http://www.w3.org/1999/xlink" width="34.00085" height="34.1407" viewBox="0,0,34.00085,34.1407"><g transform="translate(-222.99957,-162.92965)"><g fill="#ffffff" stroke="#000000" stroke-width="1.5" stroke-linejoin="round" stroke-miterlimit="10"><path d="M251.80443,189.16541c-0.67246,1.05441 -1.23194,1.68384 -2.01467,2.26214c-2.39393,1.76452 -4.77444,2.41277 -8.22279,2.24062c-0.41154,-0.01882 -1.59776,-0.11297 -2.64141,-0.20981c-2.21372,-0.20174 -2.74093,-0.23401 -3.79533,-0.23401c-1.67306,0 -2.60644,0.13718 -4.9708,0.72626c-2.6145,0.65094 -4.92775,1.48478 -6.07093,2.18145c-0.17753,0.11297 -0.33086,0.19636 -0.33892,0.18829c-0.00807,-0.00807 0.07532,-0.16139 0.18829,-0.33892c0.79349,-1.29918 1.71073,-3.98094 2.43967,-7.14686c0.56218,-2.42891 0.60253,-3.83031 0.2367,-7.64448c-0.16139,-1.67845 -0.22594,-2.59299 -0.2394,-3.44028c-0.0321,-2.09988 0.30373,-3.86929 1.05089,-5.46277c0.21959,-0.50445 0.47658,-0.98962 0.76983,-1.45245c0.83654,-1.3207 1.49824,-1.97701 2.827,-2.82162c1.9017,-1.20773 4.0186,-1.74839 6.65731,-1.70804c0.84729,0.01345 1.76183,0.078 3.44028,0.2394c3.81417,0.36582 5.21556,0.32547 7.64448,-0.2367c3.16592,-0.72894 5.84768,-1.64618 7.14686,-2.43967c0.17753,-0.11297 0.33086,-0.19636 0.33892,-0.18829c0.00807,0.00807 -0.07532,0.16139 -0.18829,0.33892c-0.69667,1.14317 -1.53051,3.45643 -2.18145,6.07093c-0.58907,2.36436 -0.72626,3.29773 -0.72626,4.9708c0,1.05441 0.03227,1.58161 0.23401,3.79533c0.09684,1.04365 0.19099,2.22987 0.20981,2.64141c0.1251,2.50581 -0.18302,4.44774 -1.03787,6.2407c-0.2177,0.50088 -0.47043,0.97925 -0.75595,1.42768z"/></g></g></svg>