<svg version="1.1" xmlns="http://www.w3.org/2000/svg" xmlns:xlink="http://www.w3.org/1999/xlink" width="144.21399" height="42.39491" viewBox="0,0,144.21399,42.39491"><g transform="translate(-221.78261,-161.81101)"><g fill="#000000" stroke="none" stroke-miterlimit="10"><path d="M242.97353,162.03126c5.77817,0.96649 10.64181,4.54148 13.23991,9.70649c1.17434,2.34868 1.71474,4.27127 1.94338,6.94212c0.32216,3.64773 -0.65472,7.69037 -2.5981,10.82887c-1.4965,2.40064 -3.74126,4.62461 -6.19387,6.13151c-1.70435,1.04963 -3.96989,1.89142 -6.18347,2.30711c-1.70435,0.32216 -4.63501,0.32216 -6.33936,0c-5.80935,-1.08081 -10.64181,-4.69736 -13.14638,-9.8416c-4.48951,-9.19727 -0.821,-19.99496 8.32431,-24.48448c1.93298,-0.94571 4.01146,-1.52768 6.22504,-1.75631c1.21591,-0.11432 3.48145,-0.04157 4.72854,0.16628zM239.88699,163.12247c-2.89948,0.02078 -4.84285,0.47805 -7.46174,1.75631c-1.39258,0.6859 -3.34635,2.00573 -3.30478,2.23436c0.01039,0.05196 0.29099,0.18706 0.61315,0.29099l0.60276,0.19746l5.09227,-1.59004l5.08188,-1.60043l0.45727,-0.57158c0.23903,-0.31177 0.44687,-0.60276 0.44687,-0.65472c0,-0.04157 -0.6859,-0.07275 -1.52768,-0.06235zM249.18818,165.76213l-0.29099,-0.17667v0.87296v0.87296l3.16968,4.26088l3.15929,4.25049l0.63394,0.22863c0.57158,0.20785 0.62354,0.21824 0.62354,0.05196c0,-0.33256 -0.83139,-2.62928 -1.28866,-3.58538c-1.13277,-2.34868 -3.10733,-4.73893 -5.0507,-6.11073c-0.37413,-0.2702 -0.80021,-0.56119 -0.9561,-0.66511zM240.27151,165.82449c-0.03118,0 -1.08081,0.32216 -2.33829,0.72747c-3.72048,1.18473 -6.12112,1.94338 -6.36014,2.01612c-0.23903,0.06235 -0.23903,0.07275 -0.23903,2.26554l0.01039,2.20319l2.60849,2.02652c1.43415,1.10159 2.68124,2.00573 2.77477,1.99534c0.09353,0 1.02885,-0.29099 2.07848,-0.62354l1.92259,-0.62354l1.01845,-3.09693c0.56119,-1.71474 1.01845,-3.16968 1.01845,-3.25282c0,-0.07275 -0.5508,-0.92492 -1.21591,-1.89142c-0.67551,-0.96649 -1.24709,-1.74592 -1.27826,-1.74592zM248.13855,168.54729c-0.07275,-0.01039 -0.51962,0.11432 -1.00806,0.2702c-0.48844,0.15589 -1.3718,0.43648 -1.98495,0.62354l-1.0912,0.34295l-1.07042,3.21125l-1.07042,3.21125l1.23669,1.73553l1.23669,1.73553l2.23436,-0.02078c1.2263,-0.01039 2.75398,-0.05196 3.39831,-0.09353l1.18473,-0.06235l1.21591,-1.62121c0.66511,-0.89375 1.24709,-1.67318 1.28866,-1.74592c0.04157,-0.07275 -1.03924,-1.63161 -2.68124,-3.84519c-1.51729,-2.0473 -2.81634,-3.73087 -2.88909,-3.74126zM224.38154,173.67074c-0.19746,-0.12471 -0.90414,2.27593 -1.16395,3.93872c-0.17667,1.15356 -0.15589,3.83479 0.05196,5.04031c0.15589,0.97688 0.63394,2.74359 0.90414,3.4191l0.14549,0.35334l0.31177,-0.44687l0.31177,-0.44687l0.08314,-5.44561l0.07275,-5.44561l-0.31177,-0.45727c-0.17667,-0.24942 -0.35334,-0.47805 -0.4053,-0.50923zM230.46109,174.03448c-0.06235,0.01039 -1.00806,0.29099 -2.09926,0.64433l-1.98495,0.63394l-0.06235,3.48145c-0.04157,1.92259 -0.07275,4.08421 -0.07275,4.81168v1.30944l2.0473,0.6859c2.00573,0.66511 2.0473,0.67551 2.3175,0.49883c0.15589,-0.09353 1.41337,-0.96649 2.79555,-1.94338l2.50457,-1.75631l-0.02078,-2.13044l-0.03118,-2.13044l-2.63967,-2.05769c-1.45493,-1.13277 -2.69163,-2.05769 -2.75398,-2.0473zM250.83018,180.79992c-0.17667,0.01039 -1.69396,0.04157 -3.36714,0.08314c-1.67318,0.04157 -3.05536,0.09353 -3.07615,0.11432c-0.22863,0.24942 -2.4526,3.35674 -2.4526,3.4191c0,0.04157 0.46766,1.5069 1.03924,3.25282l1.03924,3.16968l2.0473,0.6859c1.12238,0.37413 2.06809,0.65472 2.10966,0.63394c0.04157,-0.03118 1.29905,-1.7771 2.79555,-3.89715c1.86024,-2.61888 2.70202,-3.88675 2.63967,-3.98029c-0.04157,-0.07275 -0.62354,-0.89375 -1.26787,-1.81867c-1.12238,-1.57964 -1.21591,-1.68357 -1.5069,-1.66278zM236.67574,183.48116c-0.06235,0 -1.31983,0.85218 -2.80595,1.90181l-2.69163,1.89142l-0.08314,0.88335c-0.04157,0.48844 -0.06235,1.48611 -0.05196,2.23436l0.03118,1.34062l4.26088,1.39258c2.34868,0.76904 4.38559,1.43415 4.55187,1.48611c0.2702,0.07275 0.33256,0.02078 1.5069,-1.54847c0.67551,-0.89375 1.26787,-1.69396 1.30944,-1.76671c0.05196,-0.09353 -0.32216,-1.3718 -0.97688,-3.33596l-1.06002,-3.19046l-1.94338,-0.64433c-1.06002,-0.35334 -1.98495,-0.64433 -2.0473,-0.64433zM256.35893,184.32295c-0.02078,-0.04157 -0.31177,0.01039 -0.65472,0.12471l-0.62354,0.19746l-3.14889,4.46873c-3.08654,4.3752 -3.14889,4.46873 -3.11772,4.92599l0.03118,0.45727l0.73786,-0.51962c1.75631,-1.2263 3.49184,-3.02419 4.69736,-4.86364c0.6859,-1.06002 1.59004,-2.94105 1.89142,-3.94911c0.12471,-0.4157 0.20785,-0.80021 0.18706,-0.84178zM229.88951,192.74078c-0.03118,0 -0.21824,0.06235 -0.4053,0.12471l-0.34295,0.12471l0.23903,0.22863c0.47805,0.43648 1.99534,1.40297 3.01379,1.9122c2.06809,1.03924 4.43755,1.65239 7.00447,1.80828c0.65472,0.04157 1.23669,0.03118 1.33023,-0.02078c0.14549,-0.08314 0.1351,-0.12471 -0.08314,-0.44687c-0.19746,-0.30138 -0.38452,-0.4053 -1.00806,-0.60276c-0.42609,-0.1351 -1.89142,-0.61315 -3.26321,-1.06002c-1.3718,-0.44687 -3.37753,-1.10159 -4.45834,-1.44454c-1.07042,-0.35334 -1.98495,-0.63394 -2.02652,-0.62354z"/><path d="M303.5748,168.16463c3.43894,3.41472 5.50957,8.07666 5.93338,13.35616c0.44803,5.42481 -1.6226,11.16444 -5.57011,15.53577c-3.41472,3.76588 -8.36728,6.10291 -14.01004,6.59937c-4.86779,0.42381 -10.38947,-1.34409 -14.50651,-4.64983c-3.46316,-2.77295 -5.90916,-6.64781 -6.99897,-11.04335c-0.56912,-2.3007 -0.62966,-2.80927 -0.62966,-5.44902c0.01211,-2.15539 0.04844,-2.72451 0.27851,-3.77799c0.96872,-4.44398 3.42683,-8.70633 6.72046,-11.63669c2.99091,-2.66397 6.86577,-4.40765 11.22499,-5.03732c6.2361,-0.90817 12.81126,1.38042 17.55796,6.10291zM292.78573,163.27261l-0.43592,-0.07265l-0.16953,0.60545l-0.16953,0.61756l-1.69525,0.03633c-1.88899,0.04844 -2.68818,0.23007 -4.27446,1.00504l-0.88395,0.43592l-1.17457,-0.31483c-1.0898,-0.29061 -1.84056,-0.43592 -3.13622,-0.61756c-0.47225,-0.07265 -0.52068,-0.04844 -0.75075,0.33905c-0.14531,0.21796 -0.25429,0.43592 -0.25429,0.46014c0,0.03633 0.33905,0.10898 0.76286,0.14531c1.24722,0.14531 2.99091,0.53279 4.16548,0.9445l1.11402,0.37538l3.30574,-0.9445c1.81634,-0.50858 3.3905,-0.98082 3.49948,-1.04137c0.18163,-0.09687 0.69021,-1.7558 0.58123,-1.85267c-0.02422,-0.02422 -0.24218,-0.07265 -0.48436,-0.12109zM294.45677,163.73275c-0.1332,-0.04844 -0.23007,0.15742 -0.4117,0.82341l-0.24218,0.88395l0.61756,0.66599c0.32694,0.36327 1.46518,1.54994 2.49444,2.62764l1.88899,1.94954l0.72654,0.1332c1.24722,0.23007 2.85771,0.70232 4.08071,1.21089l1.18668,0.48436l-0.03633,-0.55701l-0.03633,-0.5449l-0.90817,-0.36327c-1.00504,-0.4117 -3.18465,-1.06559 -3.51159,-1.06559c-0.12109,0 -0.38749,-0.29061 -0.66599,-0.73865c-0.92028,-1.50151 -2.70029,-3.07567 -4.22602,-3.75377c-0.30272,-0.1332 -0.55701,-0.25429 -0.55701,-0.2664c0,-0.01211 0.08476,-0.29061 0.18163,-0.61756c0.18163,-0.61756 0.12109,-0.78708 -0.2664,-0.79919c-0.07265,0 -0.21796,-0.03633 -0.31483,-0.07265zM278.72725,165.50066c-0.02422,0 -0.36327,0.19374 -0.76286,0.43592c-1.57416,0.95661 -3.53581,2.70029 -4.80725,4.28657c-0.60545,0.76286 -1.79212,2.5792 -1.73158,2.63975c0.10898,0.12109 2.47022,-1.76791 3.68112,-2.93036c1.223,-1.19879 3.12411,-3.43894 3.47527,-4.10493c0.09687,-0.18163 0.15742,-0.32694 0.14531,-0.32694zM292.99159,166.2393c-0.16953,0.01211 -6.75679,1.9011 -6.79312,1.94954c-0.01211,0.02422 0.12109,1.31987 0.31483,2.88193c0.18163,1.56205 0.33905,2.95458 0.35116,3.09989c0,0.29061 -0.23007,0.21796 4.10493,1.38042c1.76791,0.47225 3.26941,0.83552 3.34207,0.79919c0.14531,-0.04844 3.69323,-4.85569 3.69323,-4.98888c0,-0.03633 -1.10191,-1.21089 -2.44601,-2.60342c-1.34409,-1.39253 -2.49444,-2.53077 -2.5671,-2.51866zM280.10767,166.88108l-0.9445,-0.08476l-0.83552,1.0777c-1.06559,1.38042 -3.35418,3.6569 -4.6014,4.58929c-0.53279,0.38749 -1.00504,0.75075 -1.05348,0.78708c-0.24218,0.18163 0.32694,3.45105 0.89606,5.17052c0.33905,1.02926 0.3996,1.12613 0.69021,1.13824c0.16953,0 1.59838,0.15742 3.16043,0.33905l2.8456,0.35116l2.83349,-2.82138l2.83349,-2.82138l-0.38749,-3.2452c-0.20585,-1.79212 -0.42381,-3.29363 -0.47225,-3.32996c-0.15742,-0.15742 -2.02219,-0.69021 -3.02724,-0.88395c-0.5449,-0.10898 -1.41675,-0.21796 -1.93743,-0.2664zM299.22769,171.79731c-0.20585,0 -1.80423,2.02219 -3.75377,4.7467l-0.4117,0.58123l1.00504,3.71744c0.5449,2.05852 1.04137,3.77799 1.0898,3.83853c0.06054,0.06054 1.40464,0.66599 2.9788,1.34409l2.88193,1.24722l0.55701,-0.46014c1.15035,-0.96872 3.63268,-3.82643 3.63268,-4.18969c0,-0.06054 -0.23007,-0.66599 -0.49647,-1.36831c-0.87184,-2.20383 -1.54994,-4.8799 -1.74369,-6.81733l-0.08476,-0.8113l-1.29566,-0.5449c-1.21089,-0.50858 -2.25226,-0.84763 -3.54792,-1.15035c-0.31483,-0.07265 -0.6781,-0.1332 -0.8113,-0.1332zM305.88761,172.76602c-0.12109,0 0.07265,1.91321 0.29061,3.13622c0.3996,2.08274 1.44096,5.29161 2.1675,6.6357c0.18163,0.32694 0.18163,0.31483 0.18163,-0.50858c0.01211,-2.28859 -0.76286,-5.40059 -2.02219,-8.08877c-0.30272,-0.64177 -0.58123,-1.17457 -0.61756,-1.17457zM271.6193,173.97692c-0.25429,0.01211 -0.85973,0.5449 -0.85973,0.76286c0,0.46014 0.33905,2.24015 0.66599,3.45105l0.31483,1.16246l-0.49647,0.96872c-0.69021,1.39253 -0.98082,2.62764 -0.99293,4.27446c0,0.73865 -0.04844,1.40464 -0.08476,1.47729c-0.04844,0.07265 -0.30272,0.20585 -0.55701,0.29061c-0.2664,0.09687 -0.47225,0.20585 -0.47225,0.25429c0.18163,0.92028 0.18163,0.92028 1.19879,0.58123l0.60545,-0.20585l1.04137,-3.57214l1.02926,-3.56003l-0.33905,-0.99293c-0.3996,-1.16246 -0.78708,-2.91825 -0.89606,-4.08071c-0.04844,-0.44803 -0.12109,-0.8113 -0.15742,-0.8113zM286.63439,175.42999c-0.03633,0 -1.30777,1.23511 -2.82138,2.74873l-2.73662,2.76084l0.88395,3.26941c0.48436,1.79212 0.9445,3.49948 1.01715,3.77799c0.08476,0.29061 0.20585,0.52068 0.29061,0.52068c0.1332,0 2.26437,0.55701 6.00603,1.58627l1.38042,0.37538l2.70029,-2.70029c1.4894,-1.4894 2.7124,-2.79717 2.7124,-2.89404c0,-0.18163 -1.9011,-7.38645 -1.96165,-7.447c-0.02422,-0.02422 -1.69525,-0.47225 -3.70534,-1.01715c-2.02219,-0.5449 -3.71744,-0.98082 -3.76588,-0.98082zM274.07742,180.51575c-0.21796,0 -0.33905,0.35116 -1.17457,3.29363c-0.52068,1.81634 -0.93239,3.3905 -0.93239,3.49948c0,0.09687 1.13824,1.28355 2.54288,2.63975l2.53077,2.44601l2.55499,-1.9011c1.40464,-1.04137 2.53077,-1.96165 2.50655,-2.0343c-0.02422,-0.07265 -0.47225,-1.71947 -0.99293,-3.64479c-0.52068,-1.93743 -0.95661,-3.53581 -0.98082,-3.56003c-0.02422,-0.02422 -1.33198,-0.19374 -2.91825,-0.38749c-1.58627,-0.19374 -2.99091,-0.35116 -3.13622,-0.35116zM307.76449,183.66407c-0.02422,0 -0.38749,0.44803 -0.8113,0.99293c-0.42381,0.55701 -1.34409,1.57416 -2.04641,2.27648l-1.28355,1.27144l-0.88395,3.54792l-0.89606,3.56003l0.61756,0.61756c0.53279,0.53279 0.64177,0.59334 0.8113,0.44803c0.46014,-0.38749 0.47225,-0.60545 0.03633,-1.05348l-0.3996,-0.4117l0.3996,-0.69021c1.06559,-1.84056 1.56205,-3.35418 1.64682,-5.0131l0.03633,-0.95661l1.13824,-1.17457c0.62966,-0.64177 1.36831,-1.47729 1.65892,-1.85267l0.52068,-0.69021l-0.2664,-0.43592c-0.1332,-0.24218 -0.2664,-0.43592 -0.27851,-0.43592zM296.81801,185.72259c-0.04844,0 -1.29566,1.21089 -2.77295,2.68818l-2.67608,2.70029l1.18668,2.72451c0.65388,1.50151 1.23511,2.79717 1.29566,2.88193c0.07265,0.1332 0.77497,-0.01211 3.47527,-0.6781c1.85267,-0.47225 3.41472,-0.89606 3.46316,-0.95661c0.15742,-0.15742 1.81634,-6.86577 1.71947,-6.95053c-0.04844,-0.03633 -1.31987,-0.59334 -2.8456,-1.23511c-1.51362,-0.65388 -2.78506,-1.17457 -2.8456,-1.17457zM271.03808,188.0354c-0.14531,0.01211 -1.42886,0.36327 -1.45307,0.3996c-0.01211,0.01211 0.03633,0.23007 0.10898,0.47225c0.09687,0.32694 0.19374,0.43592 0.32694,0.3996c0.90817,-0.2664 0.93239,-0.25429 1.88899,1.31987c0.71443,1.15035 1.86478,2.33703 3.01513,3.08778l0.82341,0.5449l0.29061,1.13824c0.16953,0.62966 0.50858,1.65892 0.75075,2.3007l0.44803,1.16246l0.56912,0.03633l0.55701,0.03633l-0.47225,-1.15035c-0.44803,-1.0777 -1.19879,-3.70534 -1.19879,-4.17758c0,-0.12109 -1.223,-1.39253 -2.78506,-2.89404c-1.52573,-1.47729 -2.82138,-2.68818 -2.86982,-2.67608zM282.90484,189.41582c-0.10898,-0.03633 -4.64983,3.22098 -5.17052,3.70534c-0.2664,0.24218 0.53279,3.13622 1.36831,5.0131l0.38749,0.85973l1.42886,0.20585c2.25226,0.32694 4.0565,0.83552 7.0474,1.97376l0.56912,0.21796l0.9445,-0.71443c0.53279,-0.38749 1.53784,-1.28355 2.26437,-1.99798l1.29566,-1.28355l-1.16246,-2.65186c-0.64177,-1.46518 -1.21089,-2.80927 -1.28355,-2.99091c-0.06054,-0.18163 -0.20585,-0.35116 -0.31483,-0.38749c-0.12109,-0.03633 -1.78001,-0.47225 -3.71744,-0.98082c-1.92532,-0.50858 -3.57214,-0.9445 -3.6569,-0.96872zM301.09247,196.13628c-0.1332,0.01211 -1.80423,0.4117 -3.72955,0.89606l-3.47527,0.89606l-1.18668,1.21089c-0.64177,0.65388 -1.61049,1.54994 -2.14328,1.96165c-0.53279,0.42381 -0.96872,0.78708 -0.96872,0.8113c0,0.02422 0.18163,0.14531 0.3996,0.29061l0.4117,0.24218l0.6781,-0.52068c0.38749,-0.27851 1.23511,-1.04137 1.9011,-1.68314l1.21089,-1.16246l1.15035,-0.07265c1.40464,-0.08476 2.47022,-0.3996 3.99595,-1.18668c0.62966,-0.32694 1.25933,-0.59334 1.39253,-0.59334c0.14531,0 0.38749,0.1332 0.5449,0.30272c0.35116,0.37538 0.49647,0.37538 0.84763,0l0.29061,-0.30272l-0.53279,-0.5449c-0.30272,-0.30272 -0.64177,-0.5449 -0.78708,-0.5449zM278.75147,200.01114c0,0.09687 2.42179,1.25933 3.26941,1.56205c1.18668,0.42381 2.33703,0.72654 3.45105,0.90817c1.24722,0.20585 3.32996,0.36327 3.32996,0.25429c0,-0.14531 -1.85267,-0.93239 -3.43894,-1.46518c-0.88395,-0.29061 -2.37335,-0.6781 -3.29363,-0.84763c-1.88899,-0.35116 -3.31785,-0.52068 -3.31785,-0.4117z"/><path d="M279.64753,167.78925l0.60545,0.07265c0.83552,0.10898 2.38546,0.38749 2.62764,0.48436c0.16953,0.06054 0.16953,0.14531 -0.03633,0.75075c-0.61756,1.82845 -0.29061,3.74166 0.98082,5.66698l0.24218,0.37538l-1.54994,1.54994l-1.56205,1.54994l-0.84763,-0.50858c-1.69525,-1.00504 -3.51159,-1.25933 -5.09786,-0.72654c-0.42381,0.1332 -0.78708,0.24218 -0.79919,0.21796c-0.07265,-0.08476 -0.42381,-1.94954 -0.49647,-2.66397l-0.07265,-0.76286l1.18668,-0.99293c1.34409,-1.10191 3.31785,-3.09989 4.22602,-4.25024z"/><path d="M300.66865,173.12929c0.2664,0 2.86982,0.92028 3.23309,1.13824c0,0.01211 0.1332,0.71443 0.27851,1.58627c0.30272,1.80423 0.90817,3.99595 1.52573,5.54589c0.23007,0.58123 0.38749,1.12613 0.33905,1.21089c-0.15742,0.25429 -1.10191,1.45307 -1.58627,2.01008l-0.47225,0.53279l-0.78708,-0.77497c-1.24722,-1.24722 -2.91825,-1.86478 -4.77092,-1.78001l-0.84763,0.03633l-0.49647,-1.81634c-0.2664,-1.00504 -0.52068,-1.94954 -0.56912,-2.11906c-0.07265,-0.27851 0,-0.33905 0.73865,-0.72654c1.04137,-0.53279 2.3007,-1.76791 2.73662,-2.68818c0.18163,-0.37538 0.3996,-1.01715 0.47225,-1.41675c0.07265,-0.4117 0.16953,-0.73865 0.20585,-0.73865z"/><path d="M286.15003,177.24633c0.04844,0 0.56912,0.24218 1.16246,0.53279c0.58123,0.30272 1.54994,0.6781 2.14328,0.85973c1.10191,0.31483 3.05145,0.59334 3.72955,0.52068l0.37538,-0.03633l0.58123,2.17961c0.32694,1.19879 0.5449,2.19172 0.48436,2.21594c-0.27851,0.09687 -1.97376,1.29566 -2.54288,1.80423c-0.84763,0.75075 -1.98587,2.17961 -2.4339,3.07567c-0.21796,0.4117 -0.42381,0.69021 -0.50858,0.65388c-0.08476,-0.02422 -0.96872,-0.27851 -1.97376,-0.5449c-0.99293,-0.27851 -1.9011,-0.52068 -2.01008,-0.55701c-0.16953,-0.04844 -0.20585,-0.30272 -0.25429,-1.47729c-0.08476,-1.81634 -0.43592,-3.19676 -1.23511,-4.79514l-0.61756,-1.223l1.50151,-1.61049c0.82341,-0.87184 1.53784,-1.59838 1.59838,-1.59838z"/><path d="M284.26104,190.80835c0.07265,0 1.04137,0.24218 2.15539,0.5449c1.12613,0.30272 2.05852,0.5449 2.08274,0.5449c0.02422,0 0.04844,0.46014 0.04844,1.01715c0,0.56912 0.07265,1.28355 0.14531,1.61049c0.24218,1.00504 0.93239,2.1675 1.69525,2.86982l0.70232,0.65388l-0.99293,0.83552c-0.5449,0.46014 -1.16246,0.95661 -1.38042,1.10191l-0.37538,0.2664l-1.0777,-0.4117c-1.63471,-0.64177 -3.81432,-1.23511 -5.54589,-1.52573c-0.87184,-0.14531 -1.57416,-0.27851 -1.58627,-0.27851c-0.2664,-0.44803 -1.18668,-3.09989 -1.10191,-3.18465c0.03633,-0.03633 0.3996,-0.14531 0.82341,-0.24218c1.59838,-0.37538 3.13622,-1.58627 3.93541,-3.13622c0.19374,-0.36327 0.4117,-0.66599 0.47225,-0.66599z"/><path d="M348.65639,162.40077c4.45609,0.82341 9.10592,3.43894 12.10894,6.82944c2.38546,2.68818 4.22602,6.57515 4.95256,10.41369c0.33905,1.84056 0.37538,5.19474 0.07265,6.86577c-0.83552,4.45609 -2.91825,8.45204 -6.03025,11.57615c-2.8456,2.85771 -6.21189,4.66194 -10.4258,5.60644c-4.71038,1.04137 -9.03327,0.50858 -13.50147,-1.68314c-2.11906,-1.02926 -3.87486,-2.22805 -5.37637,-3.6569c-1.87689,-1.79212 -2.94247,-3.23309 -4.16548,-5.67909c-1.76791,-3.53581 -2.60342,-7.62863 -2.27648,-11.22499c0.60545,-6.65992 4.41976,-12.8718 9.95355,-16.21387c1.78001,-1.0777 3.59636,-1.82845 5.71542,-2.38546c1.18668,-0.31483 1.82845,-0.43592 3.54792,-0.66599c0.8113,-0.10898 4.41976,0.03633 5.42481,0.21796zM346.56154,163.67221c0,0.20585 0.23007,0.2664 0.69021,0.16953l0.46014,-0.08476l-0.36327,-0.08476c-0.5449,-0.12109 -0.78708,-0.12109 -0.78708,0zM340.47074,164.12024c-2.3007,0.56912 -4.62562,1.57416 -6.44196,2.77295c-1.52573,1.01715 -1.99798,1.4894 -2.08274,2.07063l-0.06054,0.49647l0.88395,0.08476c0.49647,0.04844 1.17457,0.18163 1.52573,0.30272l0.62966,0.21796l0.96872,-0.69021c1.17457,-0.84763 3.02724,-1.80423 4.26235,-2.21594c1.02926,-0.35116 2.80927,-0.69021 3.58425,-0.69021c0.46014,0 0.53279,-0.04844 0.71443,-0.3996c0.10898,-0.20585 0.38749,-0.64177 0.60545,-0.95661l0.4117,-0.56912l-0.52068,-0.30272c-0.27851,-0.15742 -0.72654,-0.35116 -0.99293,-0.42381c-0.82341,-0.21796 -1.69525,-0.14531 -3.48737,0.30272zM355.59481,166.71155c-0.04844,0 0.1332,0.31483 0.38749,0.69021c0.2664,0.38749 0.65388,1.05348 0.87184,1.4894c0.29061,0.56912 0.79919,1.19879 1.86478,2.31281c1.73158,1.78001 3.05145,3.49948 3.95962,5.12208c0.58123,1.02926 0.88395,1.39253 1.04137,1.23511c0.09687,-0.09687 -0.84763,-2.47022 -1.47729,-3.68112c-0.36327,-0.69021 -0.96872,-1.69525 -1.3562,-2.24015c-0.92028,-1.29566 -2.86982,-3.2452 -4.17758,-4.17758c-0.56912,-0.4117 -1.0777,-0.75075 -1.11402,-0.75075zM344.17608,167.93456c-1.81634,0.01211 -3.37839,0.3996 -5.19474,1.25933c-1.12613,0.5449 -2.91825,1.71947 -3.59636,2.38546c-0.49647,0.47225 -0.55701,0.61756 -0.78708,1.61049c-0.32694,1.41675 -0.53279,3.00302 -0.48436,3.75377l0.03633,0.59334l1.16246,0.92028c0.65388,0.49647 2.25226,1.74369 3.56003,2.77295c2.24015,1.7558 2.40968,1.86478 2.7124,1.74369c0.16953,-0.07265 1.02926,-0.46014 1.88899,-0.85973c0.87184,-0.3996 2.25226,-0.98082 3.08778,-1.29566c0.83552,-0.31483 1.58627,-0.64177 1.67103,-0.71443c0.19374,-0.18163 0.79919,-2.26437 1.12613,-3.87486c0.32694,-1.58627 0.49647,-3.57214 0.3996,-4.58929l-0.08476,-0.82341l-0.98082,-0.76286c-1.04137,-0.8113 -2.05852,-1.47729 -2.8456,-1.87689c-0.3996,-0.20585 -0.70232,-0.25429 -1.67103,-0.24218zM356.33346,170.82859l-0.79919,0.01211c-0.92028,0.01211 -2.82138,0.2664 -3.70534,0.49647l-0.60545,0.15742l-0.02422,1.21089c-0.03633,2.02219 -0.3996,4.09282 -1.17457,6.70835l-0.30272,1.01715l0.62966,0.5449c1.44096,1.25933 3.20887,3.2452 4.02017,4.54085c0.20585,0.31483 0.42381,0.56912 0.48436,0.56912c0.10898,0 6.17556,-1.40464 6.56305,-1.51362c0.32694,-0.10898 1.12613,-3.40261 1.12613,-4.68616c0,-0.64177 -0.46014,-1.7558 -1.36831,-3.28152c-0.87184,-1.46518 -1.82845,-2.67608 -3.40261,-4.29867zM326.36383,178.91737l-0.23007,-1.12613l-0.14531,0.48436c-0.42381,1.56205 -0.5449,2.60342 -0.5449,4.72249c0,2.34913 0.14531,3.46316 0.72654,5.44902c0.35116,1.24722 1.24722,3.57214 1.38042,3.57214c0.03633,0 0.16953,-0.19374 0.27851,-0.43592c0.20585,-0.4117 0.20585,-0.46014 -0.09687,-1.38042c-0.58123,-1.84056 -0.79919,-3.23309 -0.87184,-5.32793c-0.03633,-1.15035 -0.01211,-2.34913 0.06054,-2.80927c0.10898,-0.70232 0.09687,-0.89606 -0.10898,-1.41675c-0.12109,-0.32694 -0.32694,-1.11402 -0.44803,-1.73158zM333.13272,178.57832c-0.03633,0.01211 -0.38749,0.14531 -0.78708,0.31483c-1.57416,0.6781 -3.75377,2.24015 -3.9233,2.80927c-0.04844,0.18163 -0.08476,1.3562 -0.08476,2.62764c0,1.96165 0.03633,2.48233 0.27851,3.54792c0.29061,1.30777 0.8113,2.96669 1.223,3.9233c0.25429,0.61756 1.4894,1.74369 2.91825,2.70029c1.33198,0.88395 1.27144,0.87184 2.4339,0.36327c2.38546,-1.04137 5.84862,-3.03934 5.73964,-3.31785c-0.27851,-0.73865 -0.46014,-2.49444 -0.47225,-4.77092l-0.02422,-2.51866l-3.60846,-2.83349c-1.98587,-1.56205 -3.6569,-2.8456 -3.69323,-2.8456zM361.91568,186.43702l-0.27851,-0.44803l-3.36629,0.8113l-3.36629,0.79919l-0.52068,1.02926c-0.73865,1.4894 -1.88899,3.14832 -3.23309,4.68616c-0.32694,0.37538 -0.59334,0.73865 -0.59334,0.8113c0,0.07265 0.44803,1.29566 1.00504,2.72451l0.99293,2.59131l0.90817,-0.07265c0.95661,-0.07265 2.48233,-0.49647 3.70534,-1.05348c1.4894,-0.6781 3.9233,-3.62057 5.37637,-6.53883c0.37538,-0.75075 0.38749,-0.82341 0.32694,-1.87689c-0.03633,-0.66599 -0.18163,-1.46518 -0.37538,-2.05852c-0.16953,-0.53279 -0.43592,-1.16246 -0.58123,-1.40464zM341.88749,192.86687c-0.06054,0 -0.38749,0.18163 -0.71443,0.3996c-0.93239,0.62966 -3.28152,1.91321 -4.72249,2.5792c-1.46518,0.6781 -1.40464,0.49647 -0.77497,2.11906c0.62966,1.63471 0.61756,1.6226 3.00302,2.54288c1.15035,0.44803 2.77295,1.15035 3.58425,1.54994c1.39253,0.69021 1.52573,0.73865 2.32492,0.73865c0.59334,0 1.15035,-0.09687 1.80423,-0.31483c1.28355,-0.4117 3.75377,-1.63471 4.335,-2.14328l0.48436,-0.4117l-0.88395,-2.34913c-1.24722,-3.26941 -1.0777,-3.01513 -1.98587,-3.01513c-1.3562,0 -3.2452,-0.44803 -5.26739,-1.25933c-0.59334,-0.24218 -1.12613,-0.43592 -1.18668,-0.43592z"/></g></g></svg>