<svg version="1.1" xmlns="http://www.w3.org/2000/svg" xmlns:xlink="http://www.w3.org/1999/xlink" width="31.82412" height="35.17317" viewBox="0,0,31.82412,35.17317"><g transform="translate(-223.99138,-162.41757)"><g fill="#ffffff" stroke="#000000" stroke-width="1.5" stroke-miterlimit="10"><path d="M242.68422,163.21339c1.68716,0.1474 3.04794,0.42113 4.40609,0.88438c4.34818,1.48449 7.21451,4.65351 7.97518,8.81745c0.46061,2.52152 0.10792,5.39048 -1.00019,8.19364c-0.26583,0.66855 -0.53694,1.14495 -1.17916,2.06881c-0.86859,1.25287 -1.12652,1.64768 -1.42921,2.20041c-0.29479,0.53431 -0.56326,1.21339 -0.67118,1.68453c-0.04474,0.20794 -0.04474,1.56871 0,2.07934c0.18951,2.09776 0.56326,4.57454 1.07126,7.0908c0.06581,0.32638 0.11845,0.59485 0.11845,0.60011c0,0.00527 -3.7007,0.0079 -8.22523,0.0079h-8.22259l-0.01316,-0.08686c-0.19477,-1.20286 -0.25531,-1.51607 -0.4106,-2.16357c-0.22372,-0.93176 -0.48957,-1.58451 -0.7712,-1.8872l-0.09212,-0.10002l-1.71874,-0.00263c-0.94754,0 -2.08196,-0.01053 -2.52415,-0.02106c-0.88175,-0.02368 -0.92913,-0.03158 -1.42395,-0.23689c-0.62907,-0.2632 -1.27655,-0.88438 -1.50292,-1.44501c-0.05264,-0.1316 -0.06054,-0.19477 -0.06054,-0.53168c0,-0.46324 0.02106,-0.55273 0.36322,-1.56608c0.21584,-0.64749 0.23689,-0.72909 0.23689,-0.90806c-0.00263,-0.3448 -0.15529,-0.6317 -0.61064,-1.15285c-0.279,-0.31848 -0.29216,-0.33691 -0.29216,-0.47114c0,-0.1316 0.09475,-0.28426 0.33427,-0.53958c0.36585,-0.38692 0.36585,-0.4185 -0.02895,-0.70539c-0.33691,-0.24478 -0.48957,-0.47114 -0.48957,-0.72382c0,-0.16845 0.06581,-0.30796 0.27373,-0.58959c0.21057,-0.28426 0.24742,-0.35797 0.29479,-0.58169c0.02106,-0.10002 0.07107,-0.2869 0.11318,-0.41323c0.11582,-0.3448 0.12634,-0.45534 0.05791,-0.59485c-0.10528,-0.21584 -0.29743,-0.30532 -0.82911,-0.38692c-0.31321,-0.04738 -0.36849,-0.06581 -0.60801,-0.18688c-0.80015,-0.4106 -1.0502,-0.65012 -1.08441,-1.04493c-0.02106,-0.21584 0.04211,-0.43429 0.23952,-0.83437c0.18688,-0.37902 0.47114,-0.82121 0.887,-1.37394c0.24478,-0.32638 0.48957,-0.63696 1.83719,-2.31096c0.43956,-0.54748 0.94754,-1.22129 1.15285,-1.52923l0.14213,-0.2132l-0.05791,-0.14213c-0.18688,-0.46324 -0.26058,-0.97124 -0.21057,-1.43711c0.06844,-0.67118 0.28426,-1.55818 0.55536,-2.2899c0.15266,-0.40797 0.52378,-1.19233 0.75277,-1.57924c1.50028,-2.5689 4.06655,-4.40609 7.24873,-5.19045c0.96861,-0.23952 1.71874,-0.34744 3.02689,-0.43429c0.32638,-0.02106 1.93983,0.01053 2.36887,0.04738z"/></g></g></svg>