<svg version="1.1" xmlns="http://www.w3.org/2000/svg" xmlns:xlink="http://www.w3.org/1999/xlink" width="28.5" height="31.5" viewBox="0,0,28.5,31.5"><g transform="translate(-225.75,-164.25)"><g fill-rule="evenodd" stroke="#000000" stroke-width="1.5" stroke-miterlimit="10"><path d="M248.5,173v12.5h-17v-12.5zM239.98893,182.22137c2.07107,0 3.75,-1.67893 3.75,-3.75c0,-2.07107 -1.67893,-3.75 -3.75,-3.75c-2.07107,0 -3.75,1.67893 -3.75,3.75c0,2.07107 1.67893,3.75 3.75,3.75z" fill="#ffffff" stroke-linecap="butt" stroke-linejoin="miter"/><path d="M226.5,195h27v-3h-27zM229.5,192v-4h21v4zM228.5,170v-5h4v2h5v-2h5v2h5v-2h4v5" fill="#ffffff" stroke-linecap="butt" stroke-linejoin="round"/><path d="M248.5,173v12.5h-17v-12.5z" fill="#ffffff" stroke-linecap="butt" stroke-linejoin="miter"/><path d="M251.5,170l-3,3h-17l-3,-3" fill="#ffffff" stroke-linecap="round" stroke-linejoin="round"/><path d="M228.5,170h23" fill="none" stroke-linecap="round" stroke-linejoin="miter"/><path d="M248.5,173v12.5h-17v-12.5zM239.98893,182.39784c2.07107,0 3.75,-1.67893 3.75,-3.75c0,-2.07107 -1.67893,-3.75 -3.75,-3.75c-2.07107,0 -3.75,1.67893 -3.75,3.75c0,2.07107 1.67893,3.75 3.75,3.75z" fill="#ff0000" stroke-linecap="butt" stroke-linejoin="miter"/><path d="M248.5,185.5l1.5,2.5h-20l1.5,-2.5" fill="#ffffff" stroke-linecap="round" stroke-linejoin="round"/><path d="M231.575,173l-3.075,-3h23l-2.925,3" fill="#ff0000" stroke-linecap="round" stroke-linejoin="round"/><path d="M228.5,170v-5h4v2h5v-2h5v2h5v-2h4v5" fill="#ff0000" stroke-linecap="butt" stroke-linejoin="round"/></g></g></svg>