<svg version="1.1" xmlns="http://www.w3.org/2000/svg" xmlns:xlink="http://www.w3.org/1999/xlink" width="30.42838" height="35.47684" viewBox="0,0,30.42838,35.47684"><g transform="translate(-224.78581,-162.26158)"><g fill="#ffffff" stroke="#000000" stroke-linejoin="round" stroke-miterlimit="10"><path d="M227.78825,174.93137c0.06302,-3.75236 -2.25244,-4.23844 -2.25244,-4.23844l1.14002,-1.8714l26.62112,0.03162l1.16724,1.74936c0,0 -2.31408,0.82676 -2.3499,4.36723c-0.03666,3.62312 2.20284,3.12922 2.17477,9.54771c-0.1837,6.04648 -7.3271,8.52247 -11.68284,9.75366c-2.25863,0.62571 -2.82401,2.71731 -2.82401,2.71731c0,0 -0.42148,-2.04256 -2.54572,-2.71c-4.19796,-1.31903 -11.36173,-3.32553 -11.46365,-9.76097c-0.09901,-6.25139 1.9524,-5.8337 2.01542,-9.58606z" fill-rule="nonzero" stroke-width="1.5" stroke-linecap="butt"/><path d="M226.89384,168.7099v-5.69832h4.55865v2.27933h5.69833v-2.27933h5.69833v2.27933h5.69832v-2.27933h4.55867v5.69832" fill-rule="evenodd" stroke-width="1.5" stroke-linecap="butt"/><g fill-rule="nonzero" stroke-width="2" stroke-linecap="round"><path d="M235.7634,173.76733h8.47319"/><path d="M239.99999,173.76733v12.70978"/></g></g></g></svg>