<svg version="1.1" xmlns="http://www.w3.org/2000/svg" xmlns:xlink="http://www.w3.org/1999/xlink" width="35.22728" height="35.25385" viewBox="0,0,35.22728,35.25385"><g transform="translate(-222.3941,-162.37625)"><g stroke-miterlimit="10"><path d="M222.84676,180c0,-9.47348 7.67977,-17.15324 17.15324,-17.15324c9.47348,0 17.15324,7.67977 17.15324,17.15324c0,9.47348 -7.67977,17.15324 -17.15324,17.15324c-9.47348,0 -17.15324,-7.67977 -17.15324,-17.15324z" fill="#808080" stroke="none" stroke-width="0"/><path d="M241.7179,162.92696c3.1762,0.30313 6.08682,1.42446 8.58432,3.30764c0.48287,0.36483 0.59017,0.45336 1.11328,0.91745c1.97439,1.74637 3.47128,3.87367 4.47994,6.36044c0.66528,1.64175 1.05694,3.29423 1.22595,5.17473c0.04292,0.48823 0.04292,2.34459 -0.00268,2.92403c-0.25216,3.26204 -1.48884,6.43287 -3.53298,9.04304c-1.20717,1.54249 -2.74966,2.94818 -4.30289,3.91391c-1.48348,0.9255 -3.27545,1.6954 -4.84209,2.07901c-1.42714,0.34874 -2.67455,0.48019 -4.54701,0.48287c-1.78393,0 -2.50018,-0.05902 -3.54103,-0.29777c-2.47067,-0.56603 -4.79917,-1.66321 -6.83258,-3.2218c-2.28289,-1.74905 -4.09365,-4.02926 -5.19888,-6.55091c-0.82356,-1.87782 -1.23936,-3.47933 -1.42714,-5.50201c-0.05633,-0.61163 -0.06438,-2.2051 -0.01341,-2.7899c0.24143,-2.77381 1.00866,-5.21765 2.33923,-7.4308c0.42385,-0.70821 1.04353,-1.56932 1.67394,-2.33386c2.59676,-3.13596 6.28801,-5.29008 10.13754,-5.91513c0.71357,-0.11535 1.44056,-0.18242 2.33923,-0.21193c0.58212,-0.01878 1.92074,0.00805 2.34727,0.05097zM236.5539,164.1851c-0.14754,0.30045 -0.14486,0.30582 0.11803,0.43726c0.34337,0.17437 0.54188,0.20924 1.12937,0.20924c0.44799,-0.00268 0.5553,-0.01341 1.08645,-0.10194c1.11328,-0.19046 1.60151,-0.22266 2.0656,-0.1395c0.11803,0.02146 0.30582,0.05365 0.4158,0.06975c0.10999,0.01341 0.43726,0.06706 0.7243,0.11803c0.93354,0.16364 1.36276,0.18242 1.79734,0.08048c0.23339,-0.05633 0.27631,-0.08853 0.34337,-0.26826c0.169,-0.43726 0,-0.73235 -0.50433,-0.88258c-0.41849,-0.12608 -1.1401,-0.18242 -3.27009,-0.25753c-0.39166,-0.01341 -0.90404,-0.03756 -1.1401,-0.05365c-1.60688,-0.10194 -2.44921,0.1395 -2.76576,0.78868zM235.39233,164.04024l-0.15559,0.00268c-0.41044,0.01073 -0.83965,0.09657 -1.2635,0.25485c-0.45336,0.169 -0.85843,0.38093 -1.8188,0.94159c-0.24948,0.14486 -0.57676,0.32996 -0.7243,0.41044c-0.27631,0.14754 -0.53115,0.31118 -1.05963,0.68138c-1.34666,0.93891 -2.29899,1.82417 -2.94281,2.72552c-0.21193,0.29509 -0.21729,0.31118 -0.24948,0.53652c-0.05365,0.37288 0.05902,0.88526 0.25485,1.16961c0.14218,0.20388 0.27631,0.28704 0.48287,0.30045c0.15023,0.01073 0.19315,0 0.40507,-0.09657c0.34606,-0.15291 0.82356,-0.30045 1.53981,-0.47482c1.31984,-0.31923 1.77856,-0.46141 2.29362,-0.71089c0.64382,-0.31118 1.12133,-0.74308 1.43787,-1.2957c0.23339,-0.40776 0.43458,-0.6626 1.00597,-1.28496c0.7404,-0.8021 0.98988,-1.12133 1.17766,-1.48884c0.30045,-0.59285 0.24143,-1.04353 -0.19046,-1.47811zM245.17577,164.39971c-0.25485,0.18242 -0.41044,0.35679 -0.51774,0.57944c-0.07511,0.15559 -0.08316,0.19851 -0.08048,0.4158c0.00268,0.54188 0.26558,0.98451 1.27155,2.14608c0.53384,0.61432 0.77259,0.92013 0.92818,1.18571c0.17705,0.30045 0.7404,0.786 1.30643,1.11864c0.62236,0.36752 1.13474,0.57676 2.74162,1.11596c0.73771,0.2468 1.43251,0.48287 1.54249,0.52311c0.1851,0.06706 0.21193,0.07243 0.32191,0.04024c0.14486,-0.04024 0.30045,-0.19315 0.34337,-0.34069c0.14218,-0.49092 0.14754,-1.07572 0.01073,-1.47006c-0.23607,-0.69479 -0.70284,-1.22863 -1.96366,-2.23729c-0.37556,-0.30313 -0.76722,-0.62236 -0.87184,-0.71357c-0.39971,-0.34874 -1.37349,-0.9872 -2.2051,-1.44592c-0.67333,-0.3702 -1.45129,-0.70821 -2.1273,-0.92281c-0.50701,-0.16096 -0.46409,-0.16096 -0.70016,0.00537zM237.88715,165.18303c-0.73503,0.14754 -1.07572,0.2924 -1.47006,0.63041c-1.24741,1.06767 -2.3902,2.5431 -3.00451,3.88172l-0.14218,0.30582l0.2307,0.46141c0.98183,1.96366 1.97171,3.13328 3.13328,3.71003l0.21461,0.1073l3.42031,-0.02146c1.8805,-0.01341 3.48738,-0.02951 3.56786,-0.04024c0.14754,-0.0161 0.14754,-0.01878 0.30582,-0.22802c0.19851,-0.26289 0.3541,-0.43995 0.95501,-1.08377c0.57944,-0.62236 0.86111,-0.94427 1.09987,-1.26082c0.57139,-0.75918 0.786,-1.40836 0.66797,-2.00658c-0.02683,-0.12608 -0.05902,-0.1851 -0.20924,-0.35947c-0.22266,-0.26558 -0.43458,-0.54725 -1.04085,-1.39227c-0.64919,-0.90672 -0.83697,-1.1401 -1.26619,-1.56664c-0.52579,-0.52042 -0.96842,-0.81551 -1.49421,-0.99524c-0.28436,-0.09657 -0.45604,-0.12072 -1.08377,-0.15827c-0.27363,-0.01341 -0.75649,-0.0456 -1.07304,-0.06438c-1.31984,-0.08853 -2.0817,-0.06706 -2.81136,0.08048zM231.96665,170.42751c-0.27899,0 -0.65455,0.0778 -2.03341,0.41312c-1.67931,0.41044 -2.58871,0.98451 -3.02597,1.91269c-0.05902,0.12876 -0.20924,0.4319 -0.33264,0.67601c-0.81551,1.61492 -1.25546,3.04743 -1.42178,4.6087c-0.06706,0.63578 -0.07511,0.6009 0.1851,0.99256c0.1234,0.18778 0.3541,0.57676 0.51238,0.8638c0.786,1.42714 1.01939,1.80539 1.36544,2.22119c0.41849,0.50165 0.8638,0.82624 1.31447,0.95769c0.169,0.04829 0.29509,0.03219 0.56603,-0.07243c0.26826,-0.1073 0.64919,-0.21193 1.19107,-0.32996c1.11864,-0.2468 1.46202,-0.33801 1.82685,-0.48823c0.67065,-0.27631 1.14547,-0.71894 1.35203,-1.26082c0.73503,-1.94757 1.55322,-4.28143 2.01731,-5.74344l0.19851,-0.62773l-0.11803,-0.15023c-0.19583,-0.25753 -0.39434,-0.57676 -0.83429,-1.34398c-0.53115,-0.93086 -0.75649,-1.28496 -1.04353,-1.64175c-0.42653,-0.53384 -0.79673,-0.81014 -1.25277,-0.93623c-0.14218,-0.03756 -0.27363,-0.05365 -0.46677,-0.05097zM247.52572,170.74405c-0.25485,0.12608 -0.37288,0.23607 -0.59285,0.5392c-0.09121,0.12608 -0.40507,0.51238 -0.70016,0.85843c-0.87721,1.03817 -1.08109,1.31447 -1.31984,1.79198c-0.24948,0.50165 -0.34337,0.89599 -0.31655,1.3413c0.02146,0.33801 0.07243,0.53384 0.25485,0.94427c0.23339,0.53652 0.44531,1.18839 0.66528,2.05219c0.28704,1.1401 0.39434,1.50762 0.57408,1.9583c0.24948,0.62505 0.63846,1.24204 0.89599,1.41641c0.5553,0.37556 1.16961,0.59017 2.48409,0.87453c0.81819,0.17437 1.57469,0.38361 1.77052,0.48555c0.07243,0.03756 0.57139,0.08584 0.71357,0.06706l0.14218,-0.0161l0.14486,-0.27363c0.15827,-0.2924 0.48019,-0.83965 1.08377,-1.82953c0.74308,-1.22327 1.09182,-1.96366 1.28228,-2.72016c0.15023,-0.59554 0.15023,-0.73503 0.01341,-1.43251c-0.21461,-1.09182 -0.60358,-2.21046 -1.12937,-3.2379c-0.25485,-0.49628 -0.74308,-1.31179 -0.80478,-1.34398c-0.02146,-0.01073 -0.14486,-0.05365 -0.27899,-0.09121c-0.38361,-0.11267 -0.53384,-0.17973 -1.51567,-0.65724c-1.25277,-0.61163 -1.60688,-0.75381 -2.12462,-0.85843c-0.47482,-0.09657 -0.8638,-0.05633 -1.24204,0.13145zM226.60414,170.61797l-0.19315,-0.01073l-0.17169,0.18242c-0.71894,0.78064 -1.32789,1.84831 -1.8349,3.20839c-0.29509,0.79405 -0.63309,1.86441 -0.6626,2.10047c-0.01341,0.11803 -0.11535,0.58481 -0.22534,1.03548c-0.24948,1.02744 -0.2924,1.2796 -0.27631,1.68467c0.01341,0.36215 0.06975,0.52311 0.2307,0.68138l0.09926,0.09926l0.16096,-0.09657c0.08853,-0.05365 0.20119,-0.13413 0.25216,-0.17973c0.169,-0.16096 0.41044,-0.51238 0.56871,-0.83697c0.27899,-0.57408 0.38898,-0.9872 0.65455,-2.46799c0.22534,-1.26082 0.45604,-1.91001 0.90404,-2.54847c0.617,-0.87721 1.03817,-1.91806 0.97378,-2.41434c-0.01878,-0.15559 -0.09121,-0.28436 -0.20924,-0.37288c-0.05633,-0.04024 -0.12608,-0.05902 -0.27094,-0.06438zM254.09004,170.95598c-0.01073,-0.01073 -0.08853,0.01073 -0.17437,0.0456c-0.77527,0.31386 -0.77527,0.9711 0.00537,2.52969c0.38898,0.77527 0.67333,1.43787 0.67333,1.56396c0,0.0161 0.05365,0.17437 0.11803,0.3541c0.1234,0.34337 0.25216,0.82088 0.39166,1.45397c0.34874,1.572 0.59017,2.23729 1.0328,2.82478c0.11535,0.15291 0.48555,0.51506 0.52579,0.51506c0.03756,0 0.05365,-0.76186 0.02414,-1.27423c-0.10462,-1.92074 -0.5392,-3.6698 -1.41373,-5.70052c-0.18778,-0.43458 -0.67601,-1.41641 -0.93354,-1.87782c-0.12608,-0.22802 -0.24143,-0.42385 -0.24948,-0.43458zM241.02042,174.6526c-0.70284,0.06975 -0.98988,0.07243 -2.11925,0.01341c-1.57469,-0.08048 -2.16754,-0.01878 -2.64236,0.26826c-0.37556,0.22802 -0.64114,0.68675 -0.70016,1.20717c-0.01341,0.10999 -0.08316,0.33801 -0.19851,0.64114c-0.19851,0.51238 -0.48555,1.31984 -0.94159,2.62895c-0.16364,0.46409 -0.38629,1.09718 -0.49628,1.40568c-0.22534,0.63846 -0.22534,0.57944 -0.03756,0.95501c0.27094,0.5392 0.7404,1.03817 1.43519,1.52908c0.13413,0.09389 0.57676,0.37556 0.98451,0.62773c1.14815,0.70821 1.30643,0.82356 2.42507,1.81612c0.48019,0.42385 0.70821,0.57944 1.00329,0.68675c0.2307,0.08584 0.39971,0.09926 0.59285,0.05097c0.21997,-0.05633 0.27631,-0.09389 0.81551,-0.52579c0.25216,-0.20388 0.98183,-0.77527 1.62297,-1.27423c1.64712,-1.2796 2.37678,-1.87782 3.06085,-2.5136l0.28436,-0.26289l-0.05097,-0.28972c-0.12608,-0.71894 -0.28167,-1.26619 -0.85575,-3.00988c-0.4319,-1.30911 -0.61968,-1.9422 -0.73771,-2.47067c-0.04024,-0.18242 -0.10194,-0.39434 -0.1395,-0.46677c-0.25753,-0.52042 -0.67601,-0.85575 -1.25277,-1.00866c-0.34069,-0.09121 -1.19644,-0.09389 -2.05219,-0.00805zM255.18991,179.10571c-0.04292,-0.02414 -0.33801,0.16096 -0.51238,0.32191c-0.3541,0.32728 -0.60358,0.74845 -1.11596,1.88855c-0.28436,0.63578 -0.43995,0.93354 -0.63309,1.22863c-0.39166,0.59822 -0.65455,1.40568 -0.786,2.43312c-0.02414,0.17705 -0.07243,0.65992 -0.10999,1.07304c-0.1073,1.18839 -0.14754,1.46738 -0.28972,2.02536c-0.07243,0.28972 -0.08316,0.38361 -0.08584,0.68406c0,0.33532 0.00268,0.3541 0.08584,0.52847c0.0456,0.09657 0.13413,0.22802 0.19583,0.28972c0.2924,0.2924 0.83697,0.39166 1.38422,0.25485c0.1395,-0.03487 0.17705,-0.0617 0.32459,-0.22266c0.45336,-0.48555 0.88526,-1.15083 1.2957,-1.97708c0.38629,-0.78332 0.59017,-1.29301 1.14547,-2.88379c0.38898,-1.11596 0.41849,-1.22327 0.46945,-1.78125c0.1073,-1.17498 -0.34069,-2.55383 -1.17766,-3.62956c-0.09389,-0.12072 -0.17973,-0.22534 -0.19046,-0.23339zM224.57609,179.55103c-0.33532,-0.01073 -0.57944,0.10999 -0.91477,0.45872c-0.17169,0.17705 -0.17973,0.19046 -0.24948,0.45068c-0.11803,0.43726 -0.15827,0.82892 -0.1395,1.33862c0.03219,0.90672 0.18242,1.53981 0.76991,3.27277c0.14754,0.43458 0.33532,1.01134 0.4158,1.28228c0.16632,0.56871 0.23339,0.74576 0.42653,1.13206c0.30045,0.59822 0.68675,1.0784 1.07572,1.33862c0.46141,0.3085 0.97915,0.34874 1.47543,0.11267l0.16364,-0.0778l0.01878,-0.32996c0.01073,-0.18242 0.06975,-0.81551 0.12876,-1.40568c0.09926,-0.95501 0.10999,-1.15083 0.11267,-1.78393c0.00268,-0.5553 -0.00805,-0.77527 -0.0456,-1.00866c-0.11535,-0.73235 -0.32996,-1.28765 -0.68675,-1.76783c-0.08853,-0.11803 -0.33801,-0.51774 -0.5553,-0.88526c-0.42653,-0.7243 -0.69479,-1.1401 -0.89867,-1.39763c-0.21193,-0.26826 -0.50969,-0.53115 -0.71089,-0.63041c-0.15023,-0.07511 -0.21997,-0.09121 -0.38629,-0.09926zM246.45805,182.3919c-0.11535,0.02683 -0.32191,0.1073 -0.45336,0.17705c-0.21193,0.1073 -0.30045,0.17973 -0.6626,0.52579c-0.62505,0.60358 -1.15888,1.0328 -2.20241,1.77588c-0.53115,0.37825 -1.22595,0.89867 -1.50226,1.12937c-0.32459,0.26826 -0.89331,0.82356 -1.11864,1.08914l-0.17169,0.20656l0.0161,0.24948c0.02146,0.28436 -0.01073,0.76186 -0.1073,1.61761c-0.169,1.50762 -0.13413,2.13803 0.15023,2.72016c0.07511,0.15559 0.16632,0.28167 0.28972,0.41044l0.17705,0.1851l0.38898,0.11803c0.21461,0.06438 0.73235,0.23607 1.15352,0.38361c0.94964,0.33264 1.2957,0.44263 1.67394,0.54188c0.99256,0.25485 1.93952,0.26826 2.45726,0.03219c0.21997,-0.09926 1.72491,-0.9872 2.18364,-1.28496c1.42446,-0.93086 2.1434,-1.75174 2.44385,-2.78454c0.05097,-0.17705 0.06706,-0.29509 0.06706,-0.48555c0,-0.32728 0.05633,-0.74576 0.18778,-1.39763c0.27899,-1.36008 0.30582,-1.51567 0.35142,-1.99317c0.10194,-1.07304 -0.16096,-1.8188 -0.79405,-2.2668c-0.13413,-0.09657 -0.18778,-0.11535 -0.33532,-0.13145c-0.32728,-0.03487 -0.786,-0.15559 -1.55859,-0.40507c-0.85843,-0.28167 -1.18303,-0.3702 -1.53981,-0.42922c-0.34069,-0.05633 -0.83429,-0.04829 -1.0945,0.0161zM233.50646,182.36507c-0.10999,0.00805 -1.53445,0.21461 -1.82148,0.26289c-1.59078,0.27631 -2.62895,0.71357 -3.28082,1.38154l-0.16632,0.17169l-0.05097,0.49092c-0.10999,1.10523 -0.1234,1.27155 -0.15291,1.88855c-0.05365,1.14279 0.04292,2.07097 0.29777,2.8677l0.08584,0.26826l0.74308,0.7404c0.82088,0.82088 1.23936,1.19376 1.92611,1.70613c0.54725,0.41044 1.07036,0.74308 1.63102,1.0328c0.71894,0.37288 0.99256,0.44531 1.61761,0.41849c0.20119,-0.00805 0.46409,-0.03487 0.58212,-0.05902c0.41312,-0.08048 0.69748,-0.15559 0.79137,-0.20119c0.27631,-0.1395 0.76991,-0.24948 1.73564,-0.38898c0.35679,-0.05097 0.76722,-0.11803 0.91208,-0.14754c0.5553,-0.11535 0.9711,-0.2924 1.20985,-0.51774c0.31923,-0.30313 0.39702,-0.57676 0.35142,-1.23668c-0.0161,-0.26289 -0.01341,-0.67333 0.01341,-1.3574c0.04024,-1.08109 0.02414,-1.51835 -0.06438,-1.95561c-0.0617,-0.30313 -0.11803,-0.46141 -0.26289,-0.7404c-0.13145,-0.24948 -0.48287,-0.60627 -0.75649,-0.76722c-0.10999,-0.06438 -0.41849,-0.28167 -0.68406,-0.48555c-0.81551,-0.62505 -1.85904,-1.38959 -4.29484,-3.14132c-0.17705,-0.12876 -0.34069,-0.23339 -0.36215,-0.2307zM226.99311,189.39616c-0.13145,0.0456 -0.35142,0.26021 -0.45068,0.44263l-0.08584,0.15559l0.29509,0.36215c0.83965,1.02744 1.92074,2.11657 2.81405,2.83282c1.31984,1.05963 2.73089,1.84026 4.10169,2.27484c0.28704,0.09121 0.31118,0.09389 0.37288,0.05365c0.05902,-0.03756 0.0617,-0.05365 0.0456,-0.17973c-0.06975,-0.51238 -0.28972,-0.94427 -0.66797,-1.31716c-0.33532,-0.33264 -0.66797,-0.54188 -1.82685,-1.16961c-0.87721,-0.47214 -1.03548,-0.59017 -1.7571,-1.31447c-0.34606,-0.34606 -0.8477,-0.85575 -1.11328,-1.12937c-0.5392,-0.55798 -0.81819,-0.79405 -1.10791,-0.93086c-0.21461,-0.10194 -0.45872,-0.13413 -0.61968,-0.08048zM252.1693,190.30556c-0.59822,0.0456 -0.99524,0.30045 -2.07097,1.34398c-0.54725,0.52847 -0.87184,0.80478 -1.13742,0.96037c-0.08048,0.0456 -0.24412,0.15559 -0.36215,0.24412c-0.20656,0.15023 -0.45068,0.27899 -1.59615,0.83697c-0.87721,0.42922 -1.28765,0.74845 -1.49152,1.16157c-0.08853,0.17973 -0.10194,0.23339 -0.11267,0.44531c-0.00805,0.13681 0.00268,0.30582 0.01878,0.38629c0.03219,0.14218 0.03487,0.14486 0.13145,0.14486c0.05365,0 0.19583,-0.04024 0.31386,-0.09121c0.11803,-0.04829 0.38898,-0.16096 0.60358,-0.24948c2.16486,-0.90135 3.78515,-1.96903 5.35447,-3.53567c0.51238,-0.50969 1.19107,-1.2635 1.19107,-1.32252c0,-0.06438 -0.40507,-0.25753 -0.63041,-0.29777c-0.08584,-0.0161 -0.18242,-0.02683 -0.21193,-0.02683zM239.86691,192.84062c-0.1395,-0.01341 -0.67065,0.03756 -0.94159,0.09121c-0.15291,0.02951 -0.43458,0.10999 -0.62773,0.17437c-0.45068,0.15559 -0.64382,0.19851 -1.58542,0.35947c-1.40836,0.24412 -1.87782,0.40507 -2.19168,0.75381c-0.24143,0.27094 -0.24143,0.59017 0,1.05426c0.16364,0.31118 0.43995,0.54457 0.96305,0.80746c0.65992,0.33264 1.48616,0.50165 2.85429,0.57944c0.27363,0.0161 0.76991,0.0456 1.10523,0.06975c0.50969,0.03487 0.71089,0.03756 1.22058,0.01073c0.33532,-0.0161 0.74308,-0.0456 0.90404,-0.0617c0.24143,-0.02951 0.31923,-0.02951 0.42922,0c0.18242,0.04829 0.617,0.04292 0.8638,-0.00805c0.87721,-0.17973 1.79734,-0.79405 2.09511,-1.40032c0.08584,-0.17169 0.10462,-0.23607 0.10999,-0.41044c0.01073,-0.17705 0,-0.22534 -0.05902,-0.3541c-0.08048,-0.16632 -0.28704,-0.37288 -0.48555,-0.48287c-0.06706,-0.04024 -0.22802,-0.10194 -0.35679,-0.14218c-0.12876,-0.03756 -0.58212,-0.1851 -1.01134,-0.32191c-1.56396,-0.50969 -2.20241,-0.6626 -2.91062,-0.69479c-0.169,-0.00805 -0.33801,-0.01878 -0.37556,-0.02414z" fill="#000000" stroke="#000000" stroke-width="1"/></g></g></svg>