<svg version="1.1" xmlns="http://www.w3.org/2000/svg" xmlns:xlink="http://www.w3.org/1999/xlink" width="111.96833" height="106.30258" viewBox="0,0,111.96833,106.30258"><g transform="translate(-184.01584,-126.84871)"><g fill="#000000" stroke="none" stroke-miterlimit="10"><path d="M206.7165,127.03289c4.04344,0.6214 7.74555,2.48558 11.25511,5.67132c5.12869,4.65608 10.02108,12.88299 13.62691,22.90407c3.72837,10.37991 6.21394,22.72028 7.54425,37.53747c0.09627,1.06775 0.17504,1.96921 0.17504,1.98671c0,0.01751 0.31508,0.03501 0.70016,0.03501c0.38509,0 0.70016,-0.02626 0.70016,-0.07002c0.00875,-0.70892 0.51637,-6.30146 0.83145,-9.07586c2.34555,-20.55853 7.86808,-37.23115 15.9287,-48.14493c1.63663,-2.20551 4.1047,-4.83112 5.90762,-6.28396c2.44182,-1.96046 5.35624,-3.45705 8.08688,-4.16597c1.6979,-0.4376 2.78315,-0.56013 4.82237,-0.56888c1.9342,0 2.75689,0.08752 4.34101,0.44636c3.32577,0.74393 6.21394,2.38931 8.78704,4.97116c3.64085,3.65835 5.70633,8.06062 6.40649,13.62691c0.1838,1.4791 0.21005,5.35624 0.04376,6.81783c-0.58639,5.12869 -2.14425,10.07359 -4.90989,15.57862l-0.8577,1.70665l-4.16597,0.02626c-2.30179,0.00875 -4.17472,0 -4.17472,-0.01751c0,-0.01751 0.17504,-0.35008 0.39384,-0.74393c2.40681,-4.34976 4.21848,-9.13712 5.06743,-13.39936c0.4376,-2.18801 0.52512,-3.18574 0.52512,-5.95138c0,-2.23177 -0.02626,-2.74814 -0.19255,-3.83339c-0.39384,-2.49433 -0.93647,-4.31475 -1.81167,-6.06516c-1.60162,-3.17699 -3.97342,-5.25122 -6.85284,-6.0039c-1.15527,-0.29757 -3.11573,-0.37634 -4.26224,-0.16629c-1.68914,0.31508 -3.41329,1.08525 -5.03242,2.22302c-1.059,0.74393 -3.55333,3.22075 -4.56856,4.5248c-3.4483,4.45479 -6.8966,11.15009 -9.8898,19.20196c-3.48331,9.39093 -6.64279,23.2629 -8.76954,38.5177c-1.54036,11.01881 -2.24052,20.83859 -2.24052,31.39354v3.43955h-4.11346h-4.11346v-4.67359c0,-8.43696 -0.42885,-15.43858 -1.48785,-24.38316c-1.85543,-15.56986 -5.05868,-30.81591 -8.65576,-41.17831c-2.28428,-6.59903 -5.23372,-13.08429 -8.01686,-17.6266c-2.42431,-3.95592 -5.11119,-7.01038 -7.72805,-8.79579c-1.48785,-1.00649 -3.31702,-1.75916 -4.83988,-1.97796c-1.14652,-0.16629 -2.97569,-0.07877 -4.05219,0.21005c-3.84214,1.00649 -6.95787,4.68234 -8.20065,9.671c-0.51637,2.06548 -0.6389,3.212 -0.6389,6.0039c-0.00875,2.5906 0.05251,3.36078 0.39384,5.3825c0.77018,4.46354 2.52059,8.98834 5.39125,13.88947l0.2188,0.37634h-4.14846h-4.15722l-0.83145,-1.64538c-3.32577,-6.48526 -4.93615,-12.14782 -5.11994,-17.91541c-0.17504,-5.67132 1.14652,-10.69498 3.89466,-14.83469c3.38704,-5.10244 8.1744,-8.13064 13.80195,-8.74328c1.11151,-0.12253 3.84214,-0.05251 4.98866,0.12253z"/></g></g></svg>