<svg version="1.1" xmlns="http://www.w3.org/2000/svg" xmlns:xlink="http://www.w3.org/1999/xlink" width="36.66212" height="34.17317" viewBox="0,0,36.66212,34.17317"><g transform="translate(-221.669,-162.91341)"><g fill-rule="evenodd" stroke="#000000" stroke-width="1.5" stroke-linecap="round" stroke-linejoin="round" stroke-miterlimit="10"><path d="M241.55216,167.33659c10.5,1 16.5,8 16,29h-25.68984c0,-9 7.62053,-2.56869 5.62053,-17.06869" fill="#ffffff"/><path d="M244.47833,178.91692c0.36067,2.76193 -3.62086,2.74519 -5.9462,4.29225c-1.65203,1.10135 -3.16661,3.59952 -4.17703,4.0338c-0.7311,0.31421 -1.52343,-0.21829 -2.39203,-0.35376c-0.98898,-0.89217 1.29233,-2.93125 -0.04593,-2.89328c-0.94912,0 0.18033,1.16742 -0.94912,1.89823c-2.6781,0 -2.99461,-1.70522 -4.46316,-3.61524c-0.69007,-0.89752 -2.35357,-1.53406 -3.02714,-2.60859c-1.09312,-1.74381 -1.05872,-3.80887 -1.05872,-3.80887c0,0 2.0488,1.45647 3.29621,1.75499c0.97766,0.23397 2.61587,0.17316 2.61587,0.17316l0.75722,-1.38864c0,0 -1.78237,-2.32193 -1.56008,-2.88494c0.21556,-0.54597 2.72172,0.21744 2.72172,0.21744c0,0 1.37107,-2.60417 2.42793,-4.36537c0.33716,-0.56187 1.94958,-0.86132 1.9901,-1.45085c-0.25214,-0.34331 -1.67611,-1.12001 -1.97783,-1.59995c-0.5274,-0.83892 1.23884,-1.97881 1.23884,-1.97881l2.64684,2.65353l3.78315,-0.08021c0,0 1.47362,-0.88832 2.52701,-1.69491c0.81571,-0.62459 1.13858,-1.13597 1.85103,-1.5535c0.47417,0 1.70531,1.69272 1.05267,2.70451c-0.65373,1.01346 -2.75046,1.02515 -2.75046,1.02515" fill="#ffffff"/><path d="M230.27108,181.45952c0,0.26209 -0.21247,0.47456 -0.47456,0.47456c-0.26209,0 -0.47456,-0.21247 -0.47456,-0.47456c0,-0.26209 0.21247,-0.47456 0.47456,-0.47456c0.26209,0 0.47456,0.21247 0.47456,0.47456z" fill="#000000"/><path d="M236.22825,173.20487c-0.39314,0.68094 -0.89585,1.12671 -1.12282,0.99566c-0.22698,-0.13105 -0.09229,-0.78929 0.30086,-1.47022c0.39314,-0.68094 0.89585,-1.1267 1.12282,-0.99566c0.22698,0.13105 0.09228,0.78929 -0.30086,1.47022z" fill="#000000"/></g></g></svg>