<svg version="1.1" xmlns="http://www.w3.org/2000/svg" xmlns:xlink="http://www.w3.org/1999/xlink" width="34.5" height="34.98389" viewBox="0,0,34.5,34.98389"><g transform="translate(-132.75,-82.50805)"><g><path d="M147.84416,85.55433c8.03694,0.76542 12.62947,6.12338 12.24676,22.19725h-17.60471c0,-6.8888 7.65422,-4.97525 6.12338,-16.07387" fill="#000000" fill-rule="evenodd" stroke="#000000" stroke-width="1.5" stroke-linecap="round" stroke-linejoin="miter" stroke-miterlimit="10"/><path d="M150.18436,85.98697c2.5971,0.3972 5.20947,2.03948 7.0198,5.46918c1.81033,3.4297 2.86444,8.61626 2.48252,16.30061l-0.03819,0.38192h-1.71867l0.0382,-0.38192c0.38192,-7.5927 -0.38192,-12.214 -2.10059,-15.46801c-1.71867,-3.25401 -3.6283,-4.39215 -6.03444,-5.156l-0.38192,-0.11458l0.34373,-1.10759z" fill="#ffffff" fill-rule="evenodd" stroke="none" stroke-width="1.5" stroke-linecap="round" stroke-linejoin="round" stroke-miterlimit="4"/><path d="M149.375,91.67771c0.29428,2.22836 -4.25034,5.64011 -6.12338,6.8888c-2.29627,1.53084 -2.15788,3.32415 -3.82711,3.06169c-0.79736,-0.72257 1.08187,-2.32501 0,-2.29627c-0.76542,0 0.14339,0.94279 -0.76542,1.53084c-0.76542,0 -3.06411,0.76542 -3.06169,-3.06169c0,-1.53084 4.59253,-9.18507 4.59253,-9.18507c0,0 1.44348,-1.45593 1.53084,-2.67898c-0.55573,-0.76111 -0.38271,-1.53084 -0.38271,-2.29627c0.76542,-0.76542 2.29627,1.91356 2.29627,1.91356h1.53084c0,0 0.59839,-1.52466 1.91356,-2.29627c0.76542,0 0.76542,2.29627 0.76542,2.29627" fill="#000000" fill-rule="evenodd" stroke="#000000" stroke-width="1.5" stroke-linecap="round" stroke-linejoin="round" stroke-miterlimit="10"/><path d="M138.27638,97.41837c0,0.21137 -0.17135,0.38271 -0.38271,0.38271c-0.21137,0 -0.38271,-0.17135 -0.38271,-0.38271c0,-0.21137 0.17135,-0.38271 0.38271,-0.38271c0.21137,0 0.38271,0.17135 0.38271,0.38271z" fill="#000000" fill-rule="nonzero" stroke="#ffffff" stroke-width="1.5" stroke-linecap="round" stroke-linejoin="round" stroke-miterlimit="10"/><path d="M142.43492,89.9555c-0.31705,0.54914 -0.72246,0.90864 -0.9055,0.80296c-0.18305,-0.10568 -0.07442,-0.63652 0.24263,-1.18567c0.31705,-0.54914 0.72246,-0.90864 0.9055,-0.80296c0.18305,0.10568 0.07442,0.63652 -0.24263,1.18567z" fill="#000000" fill-rule="nonzero" stroke="#ffffff" stroke-width="1.5" stroke-linecap="round" stroke-linejoin="round" stroke-miterlimit="10"/><path d="M166.5,115.92771c-0.67705,0.97233 -1.6459,0.98616 -3,0.5c-3.38525,-0.97233 -10.11474,0.45849 -13.5,-1c-3.38526,1.45849 -10.11474,0.02767 -13.5,1c-1.3541,0.48616 -2.32295,0.47233 -3,-0.5c1.3541,-1.45849 3,-2 3,-2c3.38526,-0.97233 10.11474,0.43082 13.5,-2c3.38526,2.43082 10.11474,1.02767 13.5,2c0,0 1.6459,0.05534 3,2z" fill="#000000" fill-rule="evenodd" stroke="#000000" stroke-width="1.5" stroke-linecap="butt" stroke-linejoin="round" stroke-miterlimit="10"/><path d="M157.5,109.92771c-2.5,2.5 -12.5,2.5 -15,0c-0.5,-1.5 0,-2 0,-2h15c0,0 0.5,0.5 0,2z" fill="#000000" fill-rule="evenodd" stroke="#000000" stroke-width="1.5" stroke-linecap="butt" stroke-linejoin="round" stroke-miterlimit="10"/><path d="M157.5,107.92771h-15h13.74884" fill="none" fill-rule="evenodd" stroke="#ffffff" stroke-width="1.25" stroke-linecap="butt" stroke-linejoin="miter" stroke-miterlimit="10"/></g></g></svg>