<svg version="1.1" xmlns="http://www.w3.org/2000/svg" xmlns:xlink="http://www.w3.org/1999/xlink" width="33.35806" height="31.72851" viewBox="0,0,33.35806,31.72851"><g transform="translate(-223.40354,-165.0215)"><g stroke="#000000" stroke-width="1.5"><path d="M239.25428,167.95626c10.5,1 17.23125,7.04375 16.73125,28.04375h-23c0,-9 10,-6.5 8,-21" fill="#ffffff" fill-rule="evenodd" stroke-linecap="round" stroke-linejoin="round" stroke-miterlimit="4"/><path d="M234.56474,191.05041c-0.16001,0.13871 -0.77274,0.45253 -0.78267,0.43835c-2.70376,-3.86205 2.70871,-7.11236 -3.96004,-6.92318c-0.99291,0 -1.35711,-0.45748 -1.73806,-0.93333c-0.63984,-0.79919 -0.99554,-1.86741 -0.99454,-3.53504c-4.33917,-9.00881 12.98139,-18.97174 20.11478,-11.96448c3.53808,3.47555 8.15146,11.02671 8.32552,17.21964" fill="#ffffff" fill-rule="evenodd" stroke-linecap="round" stroke-linejoin="round" stroke-miterlimit="4"/><path d="M227.48553,182.50003c0,0.27614 -0.22386,0.5 -0.5,0.5c-0.27614,0 -0.5,-0.22386 -0.5,-0.5c0,-0.27614 0.22386,-0.5 0.5,-0.5c0.27614,0 0.5,0.22386 0.5,0.5z" fill="#000000" fill-rule="evenodd" stroke-linecap="round" stroke-linejoin="round" stroke-miterlimit="4"/><path d="M234.41854,175.8968c-0.41421,0.71744 -0.94387,1.18711 -1.18301,1.04904c-0.23915,-0.13807 -0.09723,-0.8316 0.31699,-1.54904c0.41421,-0.71744 0.94387,-1.18711 1.18301,-1.04904c0.23915,0.13807 0.09723,0.8316 -0.31699,1.54904z" fill="#000000" fill-rule="evenodd" stroke-linecap="round" stroke-linejoin="round" stroke-miterlimit="4"/><path d="M235.02398,190.43345l2.76362,-3.45644l3.48394,3.75039l3.40219,-4.36332l3.88866,3.98797l3.29561,-4.08625l3.74333,3.98911" fill="#ffffff" fill-rule="nonzero" stroke-linecap="round" stroke-linejoin="miter" stroke-miterlimit="10"/><path d="M236.34188,171.29534c0,0 -2.47395,2.59666 -3.89698,3.75729c-1.50938,1.23105 -4.91552,3.43021 -4.91552,3.43021" fill="none" fill-rule="nonzero" stroke-linecap="round" stroke-linejoin="miter" stroke-miterlimit="10"/><path d="M226.54814,188.78429c0,0 -2.46171,-1.69167 -2.39319,-5.34625c0.06161,-3.28622 2.68997,-5.028 2.68997,-5.028l6.93465,2.08752l-0.8483,4.77761l-5.20388,0.45306z" fill="#ffffff" fill-rule="nonzero" stroke-linecap="butt" stroke-linejoin="miter" stroke-miterlimit="10"/><path d="M227.87521,185.45569l5.76,-4.92" fill="none" fill-rule="nonzero" stroke-linecap="round" stroke-linejoin="miter" stroke-miterlimit="10"/></g></g></svg>