<svg version="1.1" xmlns="http://www.w3.org/2000/svg" xmlns:xlink="http://www.w3.org/1999/xlink" width="34.5" height="37.31881" viewBox="0,0,34.5,37.31881"><g transform="translate(-222.75,-159.7736)"><g stroke-miterlimit="10"><path d="M233.46783,185.06135v-13.0538h13.0538v13.0538z" fill="#ffffff" fill-rule="nonzero" stroke="none" stroke-width="0" stroke-linecap="butt" stroke-linejoin="miter"/><path d="M229.60001,178.83344v-2.19441h20.64166v2.19441z" fill="#ffffff" fill-rule="nonzero" stroke="#000000" stroke-width="1.5" stroke-linecap="butt" stroke-linejoin="miter"/><path d="M246.61542,174.52508l3.55359,2.19441h-20.64166l3.78224,-2.19441" fill="#ffffff" fill-rule="evenodd" stroke="#000000" stroke-width="1.5" stroke-linecap="round" stroke-linejoin="round"/><path d="M229.64167,170.34839v-2.09201h20.64167v2.09201z" fill="#ffffff" fill-rule="nonzero" stroke="#000000" stroke-width="1.5" stroke-linecap="butt" stroke-linejoin="miter"/><g fill="#ffffff" fill-rule="evenodd" stroke="#000000" stroke-width="1.5" stroke-linecap="butt" stroke-linejoin="round"><path d="M226.5,193.84242c3.39,-0.97 10.11,0.43 13.5,-2c3.39,2.43 10.11,1.03 13.5,2c0,0 1.65,0.54 3,2c-0.68,0.97 -1.65,0.99 -3,0.5c-3.39,-0.97 -10.11,0.46 -13.5,-1c-3.39,1.46 -10.11,0.03 -13.5,1c-1.35,0.49 -2.32,0.47 -3,-0.5c1.35,-1.46 3,-2 3,-2z"/></g><path fill="none" fill-rule="evenodd" stroke="#000000" stroke-width="1.5" stroke-linecap="round" stroke-linejoin="miter"/><path d="M237.70421,170.34649v-7.5634l2.29167,-2.01154l2.29166,2.01154v7.5634z" fill="#ffffff" fill-rule="nonzero" stroke="#000000" stroke-width="1.5" stroke-linecap="butt" stroke-linejoin="miter"/><path d="M233.34709,174.45702v-1.88013l-3.66791,-2.19441h20.64166l-3.66791,2.19441v1.7758" fill="none" fill-rule="evenodd" stroke="#000000" stroke-width="1.5" stroke-linecap="round" stroke-linejoin="round"/><path d="M229.64167,170.34839v-2.09201h20.64167v2.09201z" fill="#ffffff" fill-rule="nonzero" stroke="#000000" stroke-width="1" stroke-linecap="butt" stroke-linejoin="miter"/><path d="M248.1658,178.71274l4.40761,2.47244l0.01369,10.22081l-25.17418,0.03433l0.17276,-10.25514l4.59095,-2.47244" fill="#ffffff" fill-rule="evenodd" stroke="#000000" stroke-width="1.5" stroke-linecap="round" stroke-linejoin="round"/><path d="M240,187.57653v-5M242.5,185.07653h-5" fill="none" fill-rule="evenodd" stroke="#000000" stroke-width="1.5" stroke-linecap="round" stroke-linejoin="miter"/><path d="M229.60001,178.83344v-2.19441h20.64166v2.19441z" fill="#ffffff" fill-rule="nonzero" stroke="#000000" stroke-width="1" stroke-linecap="butt" stroke-linejoin="miter"/></g></g></svg>