<svg version="1.1" xmlns="http://www.w3.org/2000/svg" xmlns:xlink="http://www.w3.org/1999/xlink" width="35.94713" height="35.44674" viewBox="0,0,35.94713,35.44674"><g transform="translate(-222.04539,-162.06719)"><g fill="#ffffff" stroke="#000000" stroke-width="1.5" stroke-miterlimit="10"><path d="M228.82349,192.69983c-2.00244,1.27468 -3.85578,2.5797 -4.86174,3.42017c-0.15774,0.1338 -0.28948,0.23963 -0.29247,0.23664c-0.00299,-0.00299 0.10283,-0.13474 0.23664,-0.29247c0.95637,-1.1438 2.43531,-3.27672 3.9381,-5.68274c0.45311,-0.72455 0.80099,-1.31501 1.11417,-1.91634c-1.80049,-2.34504 -2.87074,-5.28006 -2.87074,-8.46506c0,-7.68369 6.22886,-13.91256 13.91256,-13.91256c3.17113,0 6.09447,1.06096 8.43441,2.84728c0.60297,-0.31382 1.19464,-0.66234 1.9211,-1.11665c2.40602,-1.50278 4.53895,-2.98173 5.68275,-3.9381c0.15774,-0.1338 0.28948,-0.23963 0.29247,-0.23664c0.00299,0.00299 -0.10283,0.13474 -0.23663,0.29247c-0.84048,1.00596 -2.1455,2.8593 -3.42018,4.86174c-0.82392,1.2941 -1.25805,2.01312 -1.63194,2.73759c1.80039,2.345 2.87059,5.27995 2.87059,8.46486c0,7.68369 -6.22886,13.91256 -13.91256,13.91256c-3.17104,0 -6.0943,-1.0609 -8.43421,-2.84712c-0.72607,0.37444 -1.44539,0.80866 -2.7423,1.63437z" stroke-linejoin="round"/><path d="M229.03439,180.00004c0,-6.05614 4.90947,-10.96561 10.96561,-10.96561c6.05614,0 10.96561,4.90947 10.96561,10.96561c0,6.05614 -4.90947,10.96561 -10.96561,10.96561c-6.05614,0 -10.96561,-4.90947 -10.96561,-10.96561z" stroke-linejoin="miter"/><path d="M223.08383,162.97044c0.27113,-0.20433 0.99809,-0.26327 1.85471,-0.15325c0.86841,0.11395 2.40877,0.59728 3.45008,1.07668c0.08645,0.04322 0.29864,0.14146 0.47154,0.22005c0.97451,0.45582 1.20242,0.55406 1.31637,0.58942c0.05501,0.01572 0.16897,0.06287 0.25542,0.10217c0.56192,0.25935 2.39305,0.75839 3.16323,0.86055c0.18469,0.02751 0.39688,0.06287 0.47154,0.08252c0.52655,0.12967 3.0257,0.29078 3.96877,0.25542c2.11406,-0.08252 2.52665,-0.07859 3.4658,0.03144c0.49118,0.05894 0.97058,0.12181 1.06096,0.13753c0.51083,0.11003 1.06096,0.23577 1.24957,0.29471c0.66801,0.20826 1.11204,0.35758 1.35567,0.46368c1.85078,0.78197 3.1593,1.61108 4.44031,2.82136c0.86448,0.8134 1.48141,1.54428 2.12978,2.51486c0.2397,0.35758 0.95486,1.61108 0.95486,1.67396c0,0.01179 0.06287,0.15325 0.13753,0.31436c0.07466,0.16111 0.13753,0.30257 0.13753,0.31043c0,0.01179 0.03536,0.09431 0.07859,0.18861c0.18076,0.39688 0.5069,1.42247 0.65229,2.07083c0.16111,0.71123 0.16504,0.73874 0.27506,1.68182c0.09824,0.8527 0.10217,0.93915 0.07073,1.95295c-0.11003,3.39114 0.08645,5.54056 0.69945,7.72142c0.23577,0.83698 0.49904,1.53642 0.947,2.51486c0.06287,0.14146 0.17683,0.38902 0.25149,0.55013c0.07466,0.16111 0.14932,0.32222 0.16504,0.35758c0.07466,0.13753 0.55013,1.36746 0.613,1.58751c0.0393,0.12967 0.08645,0.26327 0.1061,0.29471c0.03144,0.05894 0.18469,0.62872 0.28685,1.08061c0.14539,0.64836 0.1729,1.63859 0.05894,2.07869c-0.07073,0.2672 -0.27899,0.46761 -0.55406,0.53834c-0.27113,0.07073 -1.3203,0.07073 -1.72504,0c-0.32222,-0.05501 -1.30852,-0.30257 -1.43426,-0.35758c-0.04322,-0.01965 -0.17683,-0.06287 -0.29471,-0.10217c-0.23577,-0.07073 -1.44998,-0.54227 -1.56,-0.60121c-0.03929,-0.02358 -0.21219,-0.10217 -0.38509,-0.18076c-0.71516,-0.32615 -1.98831,-0.99023 -2.63275,-1.37532c-0.59335,-0.35365 -0.93129,-0.55406 -1.0531,-0.62479c-0.55013,-0.33401 -1.92544,-1.25743 -2.8528,-1.91758c-0.44796,-0.32222 -1.83114,-1.3596 -2.18872,-1.64252c-0.1729,-0.14146 -0.3733,-0.29864 -0.44796,-0.35365c-0.35365,-0.26328 -2.07869,-1.71718 -2.72706,-2.29874c-0.19254,-0.1729 -0.43224,-0.38509 -0.53048,-0.47154c-1.50499,-1.30459 -4.77038,-4.58963 -6.23608,-6.26751c-0.08252,-0.09824 -0.23577,-0.26327 -0.33401,-0.3733c-0.90771,-0.98237 -3.07285,-3.67013 -4.01592,-4.9865c-0.92736,-1.2928 -1.38317,-1.97653 -2.20836,-3.28504c-0.58549,-0.93521 -1.52464,-2.66811 -1.98439,-3.67406c-0.2004,-0.43617 -0.63657,-1.53249 -0.72695,-1.82721c-0.03536,-0.11788 -0.07859,-0.25149 -0.09824,-0.29471c-0.05501,-0.11788 -0.23577,-0.81733 -0.31829,-1.23778c-0.09824,-0.50297 -0.13753,-1.35567 -0.07859,-1.70932c0.06287,-0.34579 0.13753,-0.51083 0.29864,-0.63265zM239.49199,169.19228c-0.44155,0.05157 -0.98947,0.13537 -1.1764,0.17727c-0.85732,0.19016 -1.36012,0.34486 -1.99828,0.61882c-0.77997,0.32875 -1.64697,0.82832 -2.25612,1.29566c-0.95402,0.73163 -1.16029,1.01848 -1.30533,1.81134c-0.03223,0.19016 -0.02901,0.2514 0.03223,0.54791c0.03868,0.18371 0.09669,0.39321 0.12892,0.46412c0.34809,0.76386 0.69295,1.44714 0.78642,1.56317c0.02256,0.02578 0.09025,0.13537 0.14826,0.24173c0.38354,0.6994 1.49871,2.26579 2.31736,3.25526c0.11603,0.14181 0.21917,0.26429 0.22883,0.27396c0.00967,0.00967 0.11281,0.1257 0.22561,0.25784c0.71229,0.82187 1.04426,1.17641 1.86613,2.0015c0.82509,0.82187 1.16674,1.14095 2.0015,1.86613c0.13214,0.11603 0.25784,0.22239 0.27718,0.24173c0.15793,0.14826 1.20219,0.97013 1.67275,1.315c0.40288,0.29974 1.37946,0.95079 1.72432,1.15062c0.13214,0.07735 0.2933,0.17082 0.35453,0.21272c0.10958,0.07091 0.77353,0.43189 0.79287,0.43189c0.00645,0 0.15148,0.06768 0.32553,0.14826c0.17404,0.08058 0.37387,0.17404 0.44478,0.20627c0.07091,0.03223 0.2804,0.09024 0.46412,0.12892c0.29652,0.06124 0.35776,0.06446 0.54791,0.03223c0.74452,-0.13537 1.02492,-0.3223 1.62441,-1.07327c0.73485,-0.92501 1.26343,-1.86613 1.67597,-2.97163c0.21917,-0.59626 0.41255,-1.35045 0.48668,-1.90481c0.02901,-0.2095 0.06768,-0.45767 0.08702,-0.54469c0.05157,-0.21917 0.07413,-1.66953 0.03545,-2.03051c-0.05157,-0.45767 -0.13537,-1.04426 -0.18371,-1.25698c-0.27396,-1.22797 -0.54469,-1.96282 -1.1055,-2.99742c-0.79286,-1.45681 -2.06274,-2.83304 -3.4712,-3.75805c-0.34486,-0.22884 -0.39966,-0.26107 -0.99591,-0.57048c-0.98947,-0.51569 -2.14654,-0.896 -3.11989,-1.0217c-0.21917,-0.02901 -0.448,-0.06768 -0.50924,-0.08702z" stroke-linejoin="miter"/><path d="M245.2103,182.56185c-0.79575,0.93731 -1.37935,1.54685 -2.10019,2.19192c-4.30571,3.84983 -9.89026,-6.41351 -5.485,-10.14903c1.68889,-1.43168 3.31453,-2.47311 5.11483,-3.28046c0.57792,-0.2589 1.18588,-0.50398 2.28808,-0.92427c2.50496,-0.95573 3.48065,-1.42695 5.32748,-2.58191c2.40602,-1.50278 4.53895,-2.98173 5.68275,-3.9381c0.15774,-0.1338 0.28948,-0.23963 0.29247,-0.23664c0.00299,0.00299 -0.10283,0.13474 -0.23663,0.29247c-0.84047,1.00596 -2.1455,2.8593 -3.42018,4.86174c-1.15301,1.81099 -1.54265,2.49574 -2.07214,3.64531c-0.33369,0.72449 -0.47835,1.07652 -1.04032,2.53374c-0.26375,0.68645 -0.57447,1.47171 -0.69178,1.74853c-0.70706,1.68217 -1.53334,3.11399 -2.68813,4.61649c-0.3081,0.41306 -0.63315,0.82173 -0.97124,1.2202z" stroke-linejoin="round"/><path d="M223.08383,162.97044c0.27113,-0.20433 0.99809,-0.26327 1.85471,-0.15325c0.86841,0.11395 2.40877,0.59728 3.45008,1.07668c0.08645,0.04322 0.29864,0.14146 0.47154,0.22005c0.97451,0.45582 1.20242,0.55406 1.31637,0.58942c0.05501,0.01572 0.16897,0.06287 0.25542,0.10217c0.56192,0.25935 2.39305,0.75839 3.16323,0.86055c0.18469,0.02751 0.39688,0.06287 0.47154,0.08252c0.52655,0.12967 3.0257,0.29078 3.96877,0.25542c2.11406,-0.08252 2.52665,-0.07859 3.4658,0.03144c0.49118,0.05894 0.97058,0.12181 1.06096,0.13753c0.51083,0.11003 1.06096,0.23577 1.24957,0.29471c0.66801,0.20826 1.11204,0.35758 1.35567,0.46368c1.35916,0.57426 2.42588,1.17394 3.40402,1.93133c0.55642,-0.29526 1.11265,-0.62475 1.784,-1.04459c2.40602,-1.50278 4.53895,-2.98173 5.68275,-3.9381c0.15774,-0.1338 0.28948,-0.23963 0.29247,-0.23664c0.00299,0.00299 -0.10283,0.13474 -0.23663,0.29247c-0.84047,1.00596 -2.1455,2.8593 -3.42018,4.86174c-0.77153,1.21182 -1.20126,1.91935 -1.5598,2.59931c0.21073,0.27265 0.41548,0.55934 0.62347,0.87069c0.2397,0.35758 0.95486,1.61108 0.95486,1.67396c0,0.01179 0.06287,0.15325 0.13753,0.31436c0.07466,0.16111 0.13753,0.30257 0.13753,0.31043c0,0.01179 0.03536,0.09431 0.07859,0.18861c0.18076,0.39688 0.5069,1.42247 0.65229,2.07083c0.16111,0.71123 0.16504,0.73874 0.27506,1.68182c0.09824,0.8527 0.10217,0.93915 0.07073,1.95295c-0.11003,3.39114 0.08645,5.54056 0.69945,7.72142c0.23577,0.83698 0.49904,1.53642 0.947,2.51486c0.06287,0.14146 0.17683,0.38902 0.25149,0.55013c0.07466,0.16111 0.14932,0.32222 0.16504,0.35758c0.07466,0.13753 0.55013,1.36746 0.613,1.58751c0.0393,0.12967 0.08645,0.26327 0.1061,0.29471c0.03144,0.05894 0.18469,0.62872 0.28685,1.08061c0.14539,0.64836 0.1729,1.63859 0.05894,2.07869c-0.07073,0.2672 -0.27899,0.46761 -0.55406,0.53834c-0.27113,0.07073 -1.3203,0.07073 -1.72504,0c-0.32222,-0.05501 -1.30852,-0.30257 -1.43426,-0.35758c-0.04322,-0.01965 -0.17683,-0.06287 -0.29471,-0.10217c-0.23577,-0.07073 -1.44998,-0.54227 -1.56,-0.60121c-0.03929,-0.02358 -0.21219,-0.10217 -0.38509,-0.18076c-0.71516,-0.32615 -1.98831,-0.99023 -2.63275,-1.37532c-0.59335,-0.35365 -0.93129,-0.55406 -1.0531,-0.62479c-0.55013,-0.33401 -1.92544,-1.25743 -2.8528,-1.91758c-0.44796,-0.32222 -1.83114,-1.3596 -2.18872,-1.64252c-0.1729,-0.14146 -0.3733,-0.29864 -0.44796,-0.35365c-0.35365,-0.26328 -2.07869,-1.71718 -2.72706,-2.29874c-0.19254,-0.1729 -0.43224,-0.38509 -0.53048,-0.47154c-1.50499,-1.30459 -4.77038,-4.58963 -6.23608,-6.26751c-0.08252,-0.09824 -0.23577,-0.26327 -0.33401,-0.3733c-0.90771,-0.98237 -3.07285,-3.67013 -4.01592,-4.9865c-0.92736,-1.2928 -1.38317,-1.97653 -2.20836,-3.28504c-0.58549,-0.93521 -1.52464,-2.66811 -1.98439,-3.67406c-0.2004,-0.43617 -0.63657,-1.53249 -0.72695,-1.82721c-0.03536,-0.11788 -0.07859,-0.25149 -0.09824,-0.29471c-0.05501,-0.11788 -0.23577,-0.81733 -0.31829,-1.23778c-0.09824,-0.50297 -0.13753,-1.35567 -0.07859,-1.70932c0.06287,-0.34579 0.13753,-0.51083 0.29864,-0.63265z" stroke-linejoin="miter"/><path d="M241.52041,169.39302c0.06124,0.01934 0.29007,0.05801 0.50924,0.08702c0.97335,0.1257 2.13042,0.50601 3.11989,1.0217c0.59625,0.30941 0.65105,0.34164 0.99591,0.57048c1.40846,0.92501 2.67834,2.30124 3.4712,3.75805c0.56081,1.0346 0.83154,1.76945 1.1055,2.99742c0.04834,0.21272 0.13214,0.79931 0.18371,1.25698c0.03868,0.36098 0.01612,1.81134 -0.03545,2.03051c-0.01934,0.08702 -0.05801,0.33519 -0.08702,0.54469c-0.07413,0.55436 -0.26751,1.30855 -0.48668,1.90481c-0.41254,1.1055 -0.94112,2.04662 -1.67597,2.97163c-0.59949,0.75097 -0.87989,0.9379 -1.62441,1.07327c-0.19015,0.03223 -0.25139,0.02901 -0.54791,-0.03223c-0.18372,-0.03868 -0.39321,-0.09669 -0.46412,-0.12892c-0.07091,-0.03223 -0.27074,-0.12569 -0.44478,-0.20627c-0.17405,-0.08058 -0.31908,-0.14826 -0.32553,-0.14826c-0.01934,0 -0.68329,-0.36098 -0.79287,-0.43189c-0.06123,-0.0419 -0.22239,-0.13537 -0.35453,-0.21272c-0.34486,-0.19983 -1.32144,-0.85088 -1.72432,-1.15062c-0.47056,-0.34487 -1.51482,-1.16674 -1.67275,-1.315c-0.01934,-0.01934 -0.14504,-0.1257 -0.27718,-0.24173c-0.83476,-0.72518 -1.17641,-1.04426 -2.0015,-1.86613c-0.82187,-0.82509 -1.15384,-1.17963 -1.86613,-2.0015c-0.1128,-0.13214 -0.21594,-0.24817 -0.22561,-0.25784c-0.00966,-0.00967 -0.1128,-0.13215 -0.22883,-0.27396c-0.81865,-0.98947 -1.93382,-2.55586 -2.31736,-3.25526c-0.05801,-0.10636 -0.1257,-0.21595 -0.14826,-0.24173c-0.09347,-0.11603 -0.43833,-0.79931 -0.78642,-1.56317c-0.03223,-0.07091 -0.09024,-0.28041 -0.12892,-0.46412c-0.06124,-0.29651 -0.06446,-0.35775 -0.03223,-0.54791c0.14504,-0.79286 0.35131,-1.07971 1.30533,-1.81134c0.60915,-0.46734 1.47615,-0.96691 2.25612,-1.29566c0.63816,-0.27396 1.14096,-0.42866 1.99828,-0.61882c0.18693,-0.0419 0.73485,-0.1257 1.1764,-0.17727z" stroke-linejoin="miter"/></g></g></svg>