<svg version="1.1" xmlns="http://www.w3.org/2000/svg" xmlns:xlink="http://www.w3.org/1999/xlink" width="34.5" height="34.50003" viewBox="0,0,34.5,34.50003"><g transform="translate(-222.75001,-162.59241)"><g stroke="#000000" stroke-miterlimit="10"><g fill="#ffffff" fill-rule="evenodd" stroke-width="1.5" stroke-linecap="butt" stroke-linejoin="round"><path d="M226.50001,193.84245c3.39,-0.97 10.11,0.43 13.5,-2c3.39,2.43 10.11,1.03 13.5,2c0,0 1.65,0.54 3,2c-0.68,0.97 -1.65,0.99 -3,0.5c-3.39,-0.97 -10.11,0.46 -13.5,-1c-3.39,1.46 -10.11,0.03 -13.5,1c-1.35,0.49 -2.32,0.47 -3,-0.5c1.35,-1.46 3,-2 3,-2z"/><path d="M232.50001,187.84245c0,-2.5 2.5,-4 2.5,-4c-5.5,-1.5 -6,-11.5 5,-15.5c11,4 10.5,14 5,15.5c0,0 2.5,1.5 2.5,4c0,0 0.5,0.5 0,2c-2.5,2.5 -12.5,2.5 -15,0c-0.5,-1.5 0,-2 0,-2z"/><path d="M242.50001,165.84241c0,1.38071 -1.11929,2.5 -2.5,2.5c-1.38071,0 -2.5,-1.11929 -2.5,-2.5c0,-1.38071 1.11929,-2.5 2.5,-2.5c1.38071,0 2.5,1.11929 2.5,2.5z"/></g><path d="M235.00001,183.84245h10M232.50001,187.84245h15M240.00001,173.34245v5M237.50001,175.84245h5" fill="none" fill-rule="evenodd" stroke-width="1.5" stroke-linecap="round" stroke-linejoin="miter"/><path d="M250.61247,166.0616c0,-1.78935 1.45056,-3.23991 3.23991,-3.23991c1.78935,0 3.23991,1.45056 3.23991,3.23991c0,1.78935 -1.45056,3.23991 -3.23991,3.23991c-1.78935,0 -3.23991,-1.45056 -3.23991,-3.23991z" fill="#ff0000" fill-rule="nonzero" stroke-width="0" stroke-linecap="butt" stroke-linejoin="miter"/></g></g></svg>