<svg version="1.1" xmlns="http://www.w3.org/2000/svg" xmlns:xlink="http://www.w3.org/1999/xlink" width="34.5" height="35.68104" viewBox="0,0,34.5,35.68104"><g transform="translate(-222.75,-162.13122)"><g stroke="#000000" stroke-width="1.5"><path d="" fill="none" fill-rule="evenodd" stroke-linecap="round" stroke-linejoin="miter" stroke-miterlimit="4"/><path d="M242.66117,165.38122c0,1.38071 -1.11929,2.5 -2.5,2.5c-1.38071,0 -2.5,-1.11929 -2.5,-2.5c0,-1.38071 1.11929,-2.5 2.5,-2.5c1.38071,0 2.5,1.11929 2.5,2.5z" fill="#ffffff" fill-rule="evenodd" stroke-linecap="butt" stroke-linejoin="round" stroke-miterlimit="4"/><path d="M229.95527,175.23589c0,-3.91945 4.47428,-7.0968 9.99359,-7.0968c5.51931,0 9.99359,3.17735 9.99359,7.0968c0,1.11152 -3.19126,4.4855 -3.19836,6.39449c-0.00741,1.99216 6.23776,6.67144 6.23776,6.67144c0,0 -2.8092,3.5626 -13.10633,3.5591c-9.73832,-0.00347 -12.8574,-3.57998 -12.8574,-3.57998c0,0 6.04691,-4.37307 6.07354,-6.4172c0.02525,-1.93789 -3.1364,-5.50213 -3.1364,-6.62784z" fill="#ffffff" fill-rule="nonzero" stroke-linecap="butt" stroke-linejoin="miter" stroke-miterlimit="10"/><path d="M233.6849,182.01151h12.58177" fill="none" fill-rule="nonzero" stroke-linecap="round" stroke-linejoin="miter" stroke-miterlimit="10"/><path d="M232.72151,170.78863h14.5485" fill="none" fill-rule="nonzero" stroke-linecap="round" stroke-linejoin="miter" stroke-miterlimit="10"/><path d="M239.97578,178.79837v-5M242.47578,176.29837h-5" fill="none" fill-rule="evenodd" stroke-linecap="round" stroke-linejoin="miter" stroke-miterlimit="4"/><path d="M226.5,194.56226c3.39,-0.97 10.11,0.43 13.5,-2c3.39,2.43 10.11,1.03 13.5,2c0,0 1.65,0.54 3,2c-0.68,0.97 -1.65,0.99 -3,0.5c-3.39,-0.97 -10.11,0.46 -13.5,-1c-3.39,1.46 -10.11,0.03 -13.5,1c-1.35,0.49 -2.32,0.47 -3,-0.5c1.35,-1.46 3,-2 3,-2z" fill="#ffffff" fill-rule="evenodd" stroke-linecap="butt" stroke-linejoin="round" stroke-miterlimit="10"/></g></g></svg>