<svg version="1.1" xmlns="http://www.w3.org/2000/svg" xmlns:xlink="http://www.w3.org/1999/xlink" width="28.69858" height="37.24765" viewBox="0,0,28.69858,37.24765"><g transform="translate(-185.65071,-131.37619)"><g fill-rule="evenodd"><g stroke="#000000" stroke-width="1.5" stroke-miterlimit="10"><path d="M200.02488,136.72665v-4.60046" fill="none" stroke-linecap="round" stroke-linejoin="miter"/><path d="M202.06771,133.76046h-4.08566" fill="none" stroke-linecap="round" stroke-linejoin="miter"/><path d="M200.02488,147.65172c0,0 -3.6771,-6.1285 -2.4514,-8.5799c0,0 0.81713,-2.04283 2.4514,-2.04283c1.63427,0 2.4514,2.04283 2.4514,2.04283c1.2257,2.4514 -2.4514,8.5799 -2.4514,8.5799" fill="#ffffff" stroke-linecap="butt" stroke-linejoin="miter"/><path d="M208.1962,151.32881c-4.49423,-2.4514 -12.66556,-2.4514 -17.15979,0c0,0 -6.53706,-3.26853 -4.08566,-8.17133c2.4514,-5.31136 10.21416,-2.85997 13.07413,3.26853v2.85997v-2.85997c2.04283,-6.1285 9.80559,-8.5799 13.07413,-3.26853c2.4514,4.9028 -4.9028,8.17133 -4.9028,8.17133z" fill="#ffffff" stroke-linecap="round" stroke-linejoin="round"/></g><g fill="#000000" stroke-linecap="round" stroke-linejoin="round" stroke-miterlimit="10"><path d="M200.1367,148.95817c7.8601,0.65227 12.35158,5.21812 11.9773,18.91568h-17.21737c0,-5.87038 7.48581,-4.23972 5.98865,-13.69756" stroke="#000000" stroke-width="1.5"/><path d="M201.63386,154.1763c0.28446,1.89809 -4.15462,4.80719 -5.98865,5.87038c-2.24574,1.30453 -2.111,2.83083 -3.7429,2.60906c-0.78002,-0.61313 1.0555,-1.98289 0,-1.9568c-0.74858,0 0.14223,0.80229 -0.74858,1.30453c-0.74858,0 -2.99657,0.65227 -2.99433,-2.60906c0,-1.30453 4.49149,-7.82718 4.49149,-7.82718c0,0 1.41482,-1.2393 1.49716,-2.28293c-0.54647,-0.64835 -0.37429,-1.30453 -0.37429,-1.9568c0.74858,-0.65227 2.24574,1.63066 2.24574,1.63066h1.49716c0,0 0.58389,-1.29931 1.87145,-1.9568c0.74858,0 0.74858,1.9568 0.74858,1.9568" stroke="#000000" stroke-width="1.5"/><path d="M190.77944,159.06829c0,0.18012 -0.16758,0.32613 -0.37429,0.32613c-0.20672,0 -0.37429,-0.14601 -0.37429,-0.32613c0,-0.18012 0.16758,-0.32613 0.37429,-0.32613c0.20672,0 0.37429,0.14601 0.37429,0.32613z" stroke="#ffffff" stroke-width="1.5"/><path d="M194.84648,152.70871c-0.31007,0.46794 -0.70655,0.77427 -0.88556,0.68421c-0.17901,-0.09006 -0.07277,-0.5424 0.23729,-1.01034c0.31007,-0.46794 0.70655,-0.77427 0.88556,-0.68421c0.17901,0.09006 0.07277,0.5424 -0.23729,1.01034z" stroke="#ffffff" stroke-width="1.49997"/></g><path d="M202.48147,149.77274c2.53099,0.33062 5.07687,1.6976 6.84112,4.55235c1.76425,2.85475 2.79154,7.17186 2.41933,13.56804l-0.03722,0.3179h-1.67492l0.03722,-0.3179c0.37221,-6.31989 -0.37221,-10.16649 -2.04713,-12.87501c-1.67492,-2.70852 -3.53594,-3.65587 -5.88083,-4.29167l-0.37221,-0.09537l0.33499,-0.92192z" fill="#ffffff" stroke="#000000" stroke-width="0" stroke-linecap="round" stroke-linejoin="round" stroke-miterlimit="4"/><g stroke-miterlimit="4"><path d="M202.04658,133.79678h-4.09315" fill="none" stroke="#000000" stroke-width="1.5" stroke-linecap="round" stroke-linejoin="miter"/><g><path d="M191.8137,151.8067c0,0 -7.36768,-3.68384 -4.91178,-8.59562c3.27452,-5.3211 11.05151,-2.86521 13.09809,3.27452v2.86521v-2.86521c2.04658,-6.13973 9.82357,-8.59562 13.09809,-3.27452c2.45589,4.91178 -4.91178,8.59562 -4.91178,8.59562" fill="#000000" stroke="#000000" stroke-width="1.5" stroke-linecap="round" stroke-linejoin="round"/><path d="M191.8137,151.8067c4.50247,-2.45589 11.87014,-2.45589 16.37261,0" fill="none" stroke="#ffffff" stroke-width="1.25" stroke-linecap="round" stroke-linejoin="round"/><path d="M200,136.76845v-4.60889" fill="none" stroke="#000000" stroke-width="1.5" stroke-linecap="round" stroke-linejoin="miter"/><path d="M200,147.71351c0,0 -3.68384,-6.13973 -2.45589,-8.59562c0,0 0.81863,-2.04658 2.45589,-2.04658c1.63726,0 2.45589,2.04658 2.45589,2.04658c1.22795,2.45589 -2.45589,8.59562 -2.45589,8.59562" fill="#000000" stroke="#000000" stroke-width="1.5" stroke-linecap="butt" stroke-linejoin="miter"/><path d="M192.22301,151.39738c0,0 -6.95836,-3.27452 -4.93634,-7.89979c3.17629,-4.78899 10.66676,-1.51447 12.71333,3.80663v1.71912v-1.71912c2.04658,-5.3211 9.53705,-8.59562 12.71333,-3.80663c2.02202,4.62526 -4.93634,7.89979 -4.93634,7.89979" fill="none" stroke="#ffffff" stroke-width="1.25" stroke-linecap="round" stroke-linejoin="round"/></g></g></g></g></svg>