<svg version="1.1" xmlns="http://www.w3.org/2000/svg" xmlns:xlink="http://www.w3.org/1999/xlink" width="37.59263" height="32.55" viewBox="0,0,37.59263,32.55"><g transform="translate(-221.20369,-163.725)"><g stroke="#000000" stroke-width="1.6" stroke-miterlimit="10"><g fill="#ffffff" stroke-linecap="butt" stroke-linejoin="round"><path d="M240.01726,169.925c-1.5,0 -2.7,-1.2 -2.7,-2.7c0,-1.5 1.2,-2.7 2.7,-2.7c1.5,0 2.7,1.2 2.7,2.7c0,1.5 -1.2,2.7 -2.7,2.7z" fill-rule="evenodd"/><path d="M228.11726,184.525c0,0 -8.6,-4.3 -5.4,-11.3c6,-7.6 28.7,-7.6 34.6,0c3.3,7 -6.5,11.9 -6.5,11.9v7.5c-5.9,3.8 -16.7,3.8 -22.7,0z" fill-rule="nonzero"/></g><g fill="none" fill-rule="nonzero" stroke-linecap="round" stroke-linejoin="miter"><path d="M228.11726,185.125c6,-3.3 16.8,-3.3 22.7,0"/><path d="M228.11726,188.825c6,-3.2 16.8,-3.2 22.7,0"/><path d="M228.11726,192.625c6,-3.2 16.8,-3.2 22.7,0"/></g></g></g></svg>