<svg version="1.1" xmlns="http://www.w3.org/2000/svg" xmlns:xlink="http://www.w3.org/1999/xlink" width="30.76182" height="33.08709" viewBox="0,0,30.76182,33.08709"><g transform="translate(-224.6191,-163.45648)"><g stroke="#000000" stroke-miterlimit="10"><path d="M225.3691,177.76618c0,-7.2758 3.32403,-13.5597 7.42443,-13.5597c2.99501,0 5.972,1.37551 7.14581,5.90742c0.32157,-0.00582 -0.14541,-0.00554 0.17613,0.00084c1.19654,-4.42746 4.13894,-5.77768 7.09102,-5.77768c4.10039,0 7.42443,6.34819 7.42443,13.62399c0,2.66708 -0.44666,5.14905 -1.21448,7.22323c-1.88374,6.18927 -7.71157,10.79544 -13.60132,10.60351c-5.59724,-0.18241 -11.66775,-4.82401 -13.38061,-11.21811c-0.67625,-1.98583 -1.0654,-4.31402 -1.0654,-6.80348z" fill="#ffffff" stroke-width="1.5"/><path d="M231.95,181.78873c0,-0.69036 0.55964,-1.25 1.25,-1.25c0.69036,0 1.25,0.55964 1.25,1.25c0,0.69036 -0.55964,1.25 -1.25,1.25c-0.69036,0 -1.25,-0.55964 -1.25,-1.25z" fill="#000000" stroke-width="0.5"/><path d="M245.55,181.78873c0,-0.69036 0.55964,-1.25 1.25,-1.25c0.69036,0 1.25,0.55964 1.25,1.25c0,0.69036 -0.55964,1.25 -1.25,1.25c-0.69036,0 -1.25,-0.55964 -1.25,-1.25z" fill="#000000" stroke-width="0.5"/></g></g></svg>