<svg version="1.1" xmlns="http://www.w3.org/2000/svg" xmlns:xlink="http://www.w3.org/1999/xlink" width="32.30854" height="36.74096" viewBox="0,0,32.30854,36.74096"><g transform="translate(-223.84573,-161.62952)"><g stroke="none" stroke-miterlimit="10"><path d="M255.75764,187.59731c-2.9323,0.90225 -4.77439,-0.26316 -5.93979,-1.31578l-0.67669,-0.67669c-0.52631,-0.48872 -1.27818,-0.67669 -1.84209,-0.67669h-0.6015v2.51877h0.75187c1.61653,0.07519 2.44358,1.31578 2.44358,2.51877v4.7368c0,0.48872 0.33834,1.01503 0.78947,1.1654l3.30824,1.31578c0.33834,0.15037 0.45112,0.45112 0.33834,0.75187c-0.15037,0.37594 -0.48872,0.45112 -0.82706,0.33834l-3.30824,-1.35337c-0.90225,-0.37594 -1.39096,-1.31578 -1.46615,-2.21802v-4.7368c0,-0.75187 -0.6015,-1.24059 -1.27818,-1.24059h-0.75187c-0.26316,3.38343 -3.04508,6.65407 -7.55632,6.39091c-4.24808,-0.26316 -6.31573,-3.83455 -6.4661,-6.39091h-0.18797c-0.78947,0 -1.203,0.63909 -1.203,1.31578v4.66161c0,0.93984 -0.5639,1.91727 -1.42856,2.29321l-3.23305,1.31578c-0.33834,0.15037 -0.67669,0 -0.82706,-0.30075c-0.18797,-0.33834 0,-0.67669 0.30075,-0.82706l3.23305,-1.24059c0.48872,-0.22556 0.78947,-0.67669 0.78947,-1.1654v-4.81198c0,-1.05262 0.67669,-2.51877 2.51877,-2.51877v-2.51877h0.03759c-0.52631,0 -1.27818,0.26316 -1.87968,0.90225l-0.48872,0.48872c-1.65412,1.7669 -3.79695,2.06765 -6.05257,1.24059c-0.11278,-0.11278 -0.52631,-0.30075 -0.37594,-0.82706c0.15037,-0.33834 0.37594,-0.37594 0.71428,-0.33834c2.10524,0.78947 3.87214,-0.03759 5.11273,-1.39096c0.75187,-0.78947 1.7669,-1.24059 2.55637,-1.24059h0.41353v-1.27818c0,-0.26316 0.22556,-0.52631 0.41353,-0.52631h3.60899c-0.15037,-0.37594 -0.37594,-0.52631 -0.71428,-0.52631c-0.67669,0 -1.39096,-0.5639 -1.69171,-1.1654h-0.86465c-2.63155,-0.11278 -4.28567,-2.29321 -4.36086,-4.51123c0,-1.91727 -1.12781,-2.59396 -1.80449,-3.30824c-0.15037,-0.15037 -0.26316,-0.37594 -0.15037,-0.63909c0.15037,-0.45112 0.75187,-0.48872 0.97743,-0.15037c1.12781,1.05262 2.21802,2.14284 2.21802,4.06011c0.03759,2.03006 1.50374,3.30824 3.27064,3.38343h0.5639c0.07519,-0.33834 0.22556,-0.71428 0.41353,-0.90225c-0.82706,-0.67669 -1.72931,-1.12781 -2.14284,-1.87968c-0.26316,-0.5639 -0.41353,-1.01503 -0.41353,-1.50374c0,-0.6015 0.15037,-1.09021 0.45112,-1.50374c-0.48872,-1.27818 -0.71428,-2.3308 -0.71428,-3.49621c0,-4.28567 3.23305,-6.84204 5.11273,-8.04503c0.15037,-0.18797 0.48872,-0.18797 0.67669,0c0.22556,0.07519 0.33834,0.41353 0.15037,0.75187l-1.39096,3.34583c-0.11278,0.33834 -0.18797,0.33834 0.11278,0.5639c0.45112,0.22556 0.71428,0.78947 0.71428,1.27818c0,0.37594 -0.15037,0.75187 -0.45112,0.97743c-0.26316,0.26316 -0.26316,0.37594 0,0.5639c0.45112,0.33834 0.90225,0.67669 0.90225,1.42856c0,0.45112 -0.26316,0.90225 -0.48872,1.39096h5.8646c-0.30075,-0.6015 -0.52631,-0.93984 -0.52631,-1.39096c0,-0.75187 0.45112,-1.09021 0.97743,-1.50374c0.22556,-0.18797 0.22556,-0.22556 0,-0.45112c-0.33834,-0.33834 -0.48872,-0.67669 -0.48872,-1.12781c0,-0.45112 0.30075,-0.97743 0.71428,-1.1654c0.26316,-0.22556 0.26316,-0.22556 0.11278,-0.5639l-1.42856,-3.30824c-0.11278,-0.26316 -0.11278,-0.5639 0.11278,-0.75187c0.18797,-0.22556 0.5639,-0.22556 0.78947,-0.03759c2.59396,1.65412 5.03754,4.32327 5.03754,8.04503c0,1.35337 -0.30075,2.48118 -0.71428,3.49621c0.26316,0.63909 0.45112,1.27818 0.41353,1.87968c0,0.90225 -0.5639,1.80449 -1.31578,2.25562l-1.1654,0.75187c0.22556,0.30075 0.33834,0.5639 0.37594,0.90225h0.41353c0.63909,0 1.1654,-0.18797 1.65412,-0.41353c1.09021,-0.6015 1.80449,-1.7669 1.80449,-3.27064c0.11278,-1.95487 1.27818,-3.04508 2.18043,-3.83455c0.26316,-0.26316 0.6015,-0.15037 0.82706,0.07519c0.22556,0.30075 0.18797,0.75187 -0.03759,0.93984c-0.90225,0.90225 -1.72931,1.7669 -1.72931,3.27064c-0.07519,2.59396 -1.99246,4.28567 -4.24808,4.39845h-0.97743c-0.33834,0.71428 -1.01503,1.1654 -1.72931,1.1654c-0.33834,0 -0.6015,0.18797 -0.71428,0.52631h2.9699c0.22556,0 0.45112,0.30075 0.45112,0.52631v1.27818h0.6015c1.46615,0.03759 2.40599,0.67669 3.08268,1.42856c1.61653,1.7669 3.27064,1.84209 4.96236,1.203c0.33834,-0.11278 0.63909,0.11278 0.75187,0.41353c0.15037,0.45112 0,0.63909 -0.33834,0.78947zM246.5472,172.44708c0.33834,-0.97743 0.48872,-1.65412 0.48872,-2.63155c0,-2.59396 -1.24059,-4.28567 -2.74433,-5.60145c0.5639,1.35337 0.71428,1.65412 0.71428,1.99246c0.03759,0.5639 -0.30075,0.93984 -0.63909,1.203c-0.07519,0.07519 -0.41353,0.18797 -0.15037,0.48872c0.33834,0.30075 0.48872,0.63909 0.48872,1.12781c0,0.48872 -0.33834,0.90225 -0.75187,1.203c-0.22556,0.22556 -0.41353,0.26316 -0.30075,0.5639l0.5639,1.27818h1.09021c0.48872,0 0.86465,0.11278 1.24059,0.30075zM232.93831,169.81553c0,0.97743 0.30075,1.84209 0.5639,2.63155c0.48872,-0.22556 0.90225,-0.37594 1.39096,-0.37594h0.90225l0.52631,-1.12781c0.15037,-0.33834 0.07519,-0.37594 -0.22556,-0.63909c-0.41353,-0.33834 -0.78947,-0.71428 -0.78947,-1.27818c-0.03759,-0.5639 0.18797,-0.82706 0.52631,-1.12781c0.18797,-0.18797 0.18797,-0.30075 0,-0.48872c-0.52631,-0.37594 -0.97743,-0.82706 -0.75187,-1.72931l0.6015,-1.54134c-1.7669,1.50374 -2.74433,3.68417 -2.74433,5.67664zM235.72024,177.55981h2.44358c0.33834,-0.03759 0.5639,-0.30075 1.35337,-1.12781c0.26316,-0.26316 0.63909,-0.22556 0.86465,0c0.78947,0.78947 0.97743,1.01503 1.39096,1.01503h2.51877l1.42856,-1.01503c0.6015,-0.37594 1.01503,-0.93984 1.01503,-1.57893c0,-0.78947 -0.5639,-1.61653 -1.57893,-1.61653h-10.26306c-0.97743,0.07519 -1.69171,0.86465 -1.69171,1.7669c0,0.48872 0.41353,0.97743 0.78947,1.31578zM237.97586,181.95827h4.06011c0.22556,-1.09021 1.01503,-1.69171 1.91727,-1.72931c0.45112,0 0.75187,-0.37594 0.75187,-0.82706c0,-0.41353 -0.33834,-0.71428 -0.71428,-0.71428h-2.25562c-0.71428,0 -1.203,-0.48872 -1.72931,-1.01503c-0.52631,0.67669 -0.93984,1.01503 -1.72931,1.01503h-2.25562c-0.33834,0.03759 -0.71428,0.33834 -0.71428,0.71428c-0.03759,0.5639 0.33834,0.82706 0.67669,0.86465c1.09021,0 1.80449,0.78947 1.99246,1.69171zM245.49458,183.16126h-11.57883v5.03754c0,2.51877 1.61653,4.96236 4.43605,5.60145c0.41353,0.11278 1.12781,0.15037 1.65412,0.11278c3.79695,-0.26316 5.48867,-3.5338 5.48867,-5.63904z" fill="#000000" stroke-width="1"/><path d="M235.6812,164.15483l-0.60302,1.54103c-0.22556,0.90225 0.2376,1.36058 0.76391,1.73652c0.18797,0.18797 0.19079,0.30607 0.00282,0.49404c-0.33834,0.30075 -0.56936,0.5841 -0.53176,1.14801c0,0.5639 0.3527,0.91035 0.76623,1.24869c0.30075,0.26316 0.39677,0.33202 0.2464,0.67036l-0.53089,1.12987l-0.9065,0.00075c-0.48872,0 -0.90845,0.14971 -1.39716,0.37527c-0.26316,-0.78947 -0.57293,-1.6598 -0.57293,-2.63723c0,-1.99246 0.99601,-4.20357 2.76291,-5.70732z" fill="#ffffff" stroke-width="0.5"/><path d="M246.54672,172.42409c-0.37594,-0.18797 -0.75741,-0.29995 -1.24613,-0.29995l-1.09546,-0.00078l-0.56913,-1.28066c-0.11278,-0.30075 0.09678,-0.36911 0.32234,-0.59467c0.41353,-0.30075 0.72832,-0.68504 0.72832,-1.17376c0,-0.48872 -0.15536,-0.84789 -0.4937,-1.14864c-0.26316,-0.30075 0.07914,-0.41972 0.15433,-0.49491c0.33834,-0.26316 0.68744,-0.64467 0.64985,-1.20857c0,-0.33834 -0.15215,-0.63873 -0.71605,-1.9921c1.50374,1.31578 2.76311,3.03805 2.76311,5.63201c0,0.97743 -0.15922,1.65981 -0.49756,2.63724z" fill="#ffffff" stroke-width="0.5"/><path d="M233.96644,176.35628c-0.37594,-0.33834 -0.78965,-0.83102 -0.78965,-1.31974c0,-0.90225 0.71575,-1.69798 1.69318,-1.77317l10.2977,0.00014c1.01503,0 1.58032,0.83278 1.58032,1.62225c0,0.63909 -0.41377,1.20783 -1.01526,1.58377l-1.43007,1.01975l-2.52334,0.00606c-0.41353,0 -0.60694,-0.22222 -1.39641,-1.01168c-0.22556,-0.22556 -0.616,-0.26338 -0.87915,-0.00023c-0.78947,0.82706 -1.01955,1.08742 -1.3579,1.12501l-2.44829,-0.00591z" fill="#ffffff" stroke-width="0.5"/><path d="M235.9588,180.30284c-0.33834,-0.03759 -0.71432,-0.30449 -0.67673,-0.8684c0,-0.37594 0.37658,-0.68016 0.71492,-0.71775l2.25796,-0.00515c0.78947,0 1.21875,-0.34686 1.74506,-1.02355c0.52631,0.52631 1.03076,1.02356 1.74504,1.02356l2.25796,0.00515c0.37594,0 0.71492,0.30422 0.71492,0.71775c0,0.45112 -0.30078,0.83066 -0.7519,0.83066c-0.90225,0.03759 -1.69748,0.65078 -1.92304,1.74099l-4.08596,0.00001c-0.18797,-0.90225 -0.908,-1.70327 -1.99822,-1.70327z" fill="#ffffff" stroke-width="0.5"/><path d="M245.50744,188.30731c0,2.10524 -1.70944,5.39553 -5.50639,5.65868c-0.52631,0.03759 -1.24633,-0.00056 -1.65986,-0.11334c-2.81952,-0.63909 -4.45012,-3.102 -4.45012,-5.62077l0.005,-5.04922h11.60636z" fill="#ffffff" stroke-width="0.5"/></g></g></svg>