<svg version="1.1" xmlns="http://www.w3.org/2000/svg" xmlns:xlink="http://www.w3.org/1999/xlink" width="35.63353" height="40.4003" viewBox="0,0,35.63353,40.4003"><g transform="translate(-222.18324,-159.79985)"><g data-paper-data="{&quot;isPaintingLayer&quot;:true}" fill-rule="evenodd" stroke="#000000" stroke-width="1.5" stroke-linecap="round" stroke-linejoin="round" stroke-miterlimit="4" stroke-dasharray="" stroke-dashoffset="0" style="mix-blend-mode: normal"><g><path d="M235.16676,163.14985h3" fill="none"/><path d="M236.76676,160.54985v7.7" fill="none"/><path d="M257.06676,198.45015v1h-11.4869c0,-16.3971 -2.7838,-17.478 -4.5677,-20.7574c-1.7838,3.2794 -5.3515,3.2794 -10.703,3.2794c-5.35153,4.91911 -8.26274,0.4263 -7.13536,-1.6397c1.78383,-3.2794 5.35156,-3.2794 7.13536,-6.5589c1.7838,-9.83822 8.9192,-6.55879 12.4869,-6.55879c3.5676,-1.63972 1.7838,-3.27943 7.1354,-1.63972c2.6757,0.81986 -0.7243,2.18574 -1.7839,3.27941c4.4596,4.0993 2.6758,21.6581 8.9192,24.1177z" fill="#ffffff"/><path d="M238.66676,164.24985h3" fill="none"/><path d="M240.26676,169.34985v-7.7" fill="none"/></g><path d="M233.94117,172.92406c-0.04602,0.71742 -0.27719,1.18707 -0.51633,1.049c-0.23914,-0.13807 -0.39569,-0.83158 -0.34967,-1.549c0.04602,-0.71742 0.27719,-1.18707 0.51633,-1.049c0.23914,0.13807 0.39569,0.83158 0.34967,1.549z" fill="#000000"/><path d="M248.66676,180.84985c0,1.38071 -0.77455,2.5 -1.73,2.5c-0.95545,0 -1.73,-1.11929 -1.73,-2.5c0,-1.38071 0.77455,-2.5 1.73,-2.5c0.95545,0 1.73,1.11929 1.73,2.5z" fill="#000000"/><path d="M250.86676,188.84985c0,1.38071 -0.77455,2.5 -1.73,2.5c-0.95545,0 -1.73,-1.11929 -1.73,-2.5c0,-1.38071 0.77455,-2.5 1.73,-2.5c0.95545,0 1.73,1.11929 1.73,2.5z" fill="#000000"/><path d="M254.66676,194.84985c0,1.38071 -0.77455,2.5 -1.73,2.5c-0.95545,0 -1.73,-1.11929 -1.73,-2.5c0,-1.38071 0.77455,-2.5 1.73,-2.5c0.95545,0 1.73,1.11929 1.73,2.5z" fill="#000000"/></g></g></svg>