<svg version="1.1" xmlns="http://www.w3.org/2000/svg" xmlns:xlink="http://www.w3.org/1999/xlink" width="38.44071" height="34.77946" viewBox="0,0,38.44071,34.77946"><g transform="translate(-230.78023,-232.81928)"><g stroke="#000000" stroke-miterlimit="10"><path d="M250,233.56928c7.13269,0 18.19418,1.82564 18.19418,1.82564c0,0 -3.94339,10.37793 -7.49172,16.43072c-3.54834,6.05279 -10.70246,14.60508 -10.70246,14.60508c0,0 -7.11113,-8.47894 -10.70246,-14.60508c-3.59134,-6.12613 -7.49172,-16.43072 -7.49172,-16.43072c0,0 11.0615,-1.82564 18.19418,-1.82564z" fill="#ffffff" stroke-width="1.5"/><path d="M249.92889,238.93892c0.09502,-0.00552 0.90612,0.02753 1.1292,0.04543c1.23938,0.10328 2.36997,0.35391 3.49779,0.77391c2.52283,0.94193 4.62012,2.67016 5.89255,4.8556c0.18177,0.31122 0.19968,0.36081 0.19968,0.5536c0,0.18315 -0.01928,0.24098 -0.15147,0.47371c-1.59054,2.78723 -4.47967,4.80328 -7.86867,5.48769c-2.59306,0.52467 -5.28251,0.26165 -7.67726,-0.75327c-0.68855,-0.29057 -1.28207,-0.61005 -1.93479,-1.03832c-1.42804,-0.94054 -2.64676,-2.21573 -3.45925,-3.62312c-0.19968,-0.34701 -0.23548,-0.48198 -0.18316,-0.7037c0.02617,-0.10603 0.07574,-0.20656 0.24099,-0.48336c0.65962,-1.10581 1.5079,-2.07113 2.55448,-2.91254c2.02844,-1.62909 4.66831,-2.57929 7.40183,-2.6633c0.17764,-0.00552 0.33876,-0.01101 0.35805,-0.01239zM247.05078,240.7608c-0.03442,0.00964 -0.15424,0.04407 -0.26854,0.07573c-1.21183,0.34289 -2.46912,0.96396 -3.46613,1.71447c-0.94881,0.71608 -1.79984,1.63323 -2.36033,2.54762l-0.04268,0.07024l0.10879,0.17076c0.78357,1.22697 1.92654,2.30524 3.28848,3.10395c0.43103,0.25338 1.09202,0.57012 1.57676,0.75603c0.45857,0.17626 1.29861,0.43379 1.20495,0.37044c-0.32774,-0.22447 -0.59491,-0.44893 -0.86481,-0.72434c-0.83726,-0.85792 -1.34128,-1.93067 -1.47761,-3.14802c-0.02342,-0.20656 -0.02342,-0.85379 0,-1.06035c0.14046,-1.26003 0.67891,-2.37272 1.56575,-3.23616c0.24926,-0.24237 0.48612,-0.43653 0.77667,-0.63622c0.04132,-0.02754 0.03856,-0.02754 -0.04131,-0.00413zM252.90615,240.75805c0.01239,0.00964 0.07712,0.05508 0.1446,0.10189c0.23548,0.16524 0.42689,0.32913 0.6734,0.57425c0.13633,0.13772 0.29332,0.30297 0.34701,0.36906c0.65962,0.80008 1.05072,1.71722 1.18293,2.77621c0.03305,0.26303 0.03305,0.91302 0,1.17604c-0.11981,0.9557 -0.45168,1.80122 -0.99702,2.53797c-0.32913,0.44481 -0.79872,0.902 -1.22974,1.19807c-0.06473,0.04407 -0.12256,0.08538 -0.12945,0.09089c-0.02617,0.02203 0.42551,-0.10466 0.73537,-0.20795c2.04773,-0.6789 3.80214,-1.9169 5.01259,-3.5391c0.17903,-0.23962 0.45581,-0.66239 0.4448,-0.68029c-0.00413,-0.00826 -0.0909,-0.13908 -0.19141,-0.29057c-0.68993,-1.03557 -1.59741,-1.93067 -2.69772,-2.65778c-0.38007,-0.25201 -0.66512,-0.41588 -1.10855,-0.63759c-0.6128,-0.30709 -1.14161,-0.51778 -1.76955,-0.70507c-0.28093,-0.08262 -0.44205,-0.12393 -0.41725,-0.10603zM249.71544,243.57144c-0.3305,0.05922 -0.62382,0.2162 -0.86756,0.46546c-0.20932,0.21345 -0.33738,0.4393 -0.41588,0.73399c-0.03442,0.12393 -0.03718,0.15699 -0.03718,0.39661c0,0.23962 0.00277,0.27267 0.03718,0.3966c0.0785,0.29469 0.20656,0.52054 0.41588,0.7326c0.25201,0.25753 0.53156,0.40624 0.87857,0.46821c0.19831,0.03579 0.50265,0.0234 0.6913,-0.02754c0.55772,-0.14735 1.00527,-0.59627 1.15949,-1.15676c0.03442,-0.12807 0.03718,-0.1556 0.03718,-0.41312c0,-0.25753 -0.00275,-0.28506 -0.03718,-0.41313c-0.02066,-0.07574 -0.0716,-0.20655 -0.11291,-0.29055c-0.22997,-0.47371 -0.66651,-0.80424 -1.17603,-0.89236c-0.15836,-0.02754 -0.42139,-0.02754 -0.57287,0z" fill="#000000" stroke-width="0.5"/></g></g></svg>