<svg version="1.1" xmlns="http://www.w3.org/2000/svg" xmlns:xlink="http://www.w3.org/1999/xlink" width="37.69411" height="37.54213" viewBox="0,0,37.69411,37.54213"><g transform="translate(-221.17553,-161.22938)"><g fill="#ffffff" stroke="#000000" stroke-width="1.5" stroke-miterlimit="10"><path d="M242.02531,161.97938c1.44455,0.19261 3.30742,0.69845 4.47911,1.22812c0.20063,0.08828 0.56998,0.25689 0.82679,0.36924l0.46557,0.20871l-0.62137,0.70546c-2.45574,2.81688 -3.59173,5.73092 -3.12627,8.0422c0.33706,1.63716 1.28555,2.7541 2.78628,3.25969c2.43166,0.81858 5.65078,-0.30116 8.76459,-3.06186l0.57705,-0.51705l0.30503,0.66625c2.15078,4.6627 2.1829,9.30445 0.09632,14.0474c-0.43337,0.98711 -0.32836,0.95178 -1.09076,0.24555c-0.85068,-0.78648 -2.13539,-1.65805 -3.29103,-2.24389c-3.64348,-1.82977 -6.99165,-1.0173 -7.97876,1.92798c-0.40126,1.19577 -0.34569,2.49617 0.1599,4.03703c0.54572,1.64519 1.39321,3.0262 2.86987,4.69546l0.55718,0.6252l-0.67428,0.31306c-1.42048,0.65807 -2.89813,1.12383 -4.47912,1.42076c-1.05934,0.20063 -3.6044,0.24078 -4.73597,0.08027c-1.71741,-0.24878 -3.42793,-0.75468 -5.04101,-1.50103l-0.67428,-0.31306l0.55718,-0.6252c1.55691,-1.74951 2.59699,-3.5639 3.08653,-5.37762c0.22471,-0.84266 0.24026,-2.41586 0.0316,-3.09801c-0.34509,-1.13959 -0.89194,-1.89495 -1.7667,-2.44869c-1.21984,-0.77043 -2.60879,-0.90783 -4.43053,-0.45039c-1.54086,0.38521 -3.60403,1.57777 -5.20106,2.99825l-0.64928,0.58125l-0.34516,-0.74652c-0.84266,-1.79767 -1.38869,-3.87753 -1.55722,-5.88386c-0.21668,-2.62427 0.35343,-5.64361 1.55722,-8.21171l0.34516,-0.73849l0.60915,0.54113c3.78794,3.37865 7.8823,4.25699 10.20161,2.19449c0.55375,-0.49757 0.88361,-1.02791 1.15647,-1.82241c0.80253,-2.40759 -0.3092,-5.61064 -3.01373,-8.69235l-0.5652,-0.64126l0.21673,-0.11238c1.45258,-0.74635 3.68482,-1.4449 5.41829,-1.69368c1.01921,-0.15248 3.06659,-0.15248 4.17408,-0.00803z"/></g></g></svg>