<svg version="1.1" xmlns="http://www.w3.org/2000/svg" xmlns:xlink="http://www.w3.org/1999/xlink" width="36.50009" height="37.59047" viewBox="0,0,36.50009,37.59047"><g transform="translate(-221.74995,-161.20476)"><g fill="#ffffff" stroke="#000000" stroke-linecap="round" stroke-linejoin="round"><path d="M251.5,173.95476c0.25885,5.80412 -0.11112,17.16307 0.5,19.96875c0.26682,1.225 5.47066,1.25204 5.5,3.03125c0.02533,1.5357 -10.37932,1 -17.5,1c-7.12069,0 -17.52533,0.5357 -17.5,-1c0.02934,-1.77921 5.23318,-1.80625 5.5,-3.03125c0.61112,-2.80568 0.24115,-14.16463 0.5,-19.96875c0.24221,-5.47522 11.4673,-6.27648 11.5,-12c0.0327,5.72352 11.25779,6.52478 11.5,12z" stroke-width="1.5"/><path d="M236,176.95476h8" stroke-width="2"/><path d="M240,176.95476v12" stroke-width="2"/></g></g></svg>