<svg version="1.1" xmlns="http://www.w3.org/2000/svg" xmlns:xlink="http://www.w3.org/1999/xlink" width="33.34162" height="36.39879" viewBox="0,0,33.34162,36.39879"><g transform="translate(-223.32919,-161.68856)"><g stroke="#000000"><g fill-rule="evenodd" stroke-width="1.5" stroke-linecap="round" stroke-linejoin="round" stroke-miterlimit="4"><path d="M229.81615,194.63102v-7.21687l10.30982,-3.09294l10.30981,3.09294v7.21687c-5.6704,3.60844 -14.94924,3.60844 -20.61963,0" fill="#ffffff"/><path d="M229.81615,187.41415c5.6704,-3.09294 14.94924,-3.09294 20.61963,0" fill="none"/></g><path d="M255.47739,179.55177c2.33725,5.68919 -5.32632,12.49109 -5.32632,12.49109l-20.04757,0.01101c0,0 -8.20206,-5.7837 -5.46536,-12.50211c2.73669,-6.71841 15.2544,-16.88912 15.2544,-16.88912c0,0 13.2476,11.19994 15.58485,16.88913z" fill="#ffffff" fill-rule="nonzero" stroke-width="1.5" stroke-linecap="butt" stroke-linejoin="miter" stroke-miterlimit="10"/><path d="M252.893,181.2587c1.94369,5.16074 -5.52627,10.78519 -5.52627,10.78519l-14.69751,0.00999c0,0 -7.69841,-4.70083 -5.42254,-10.79517c2.27587,-6.09435 12.68576,-15.86596 12.68576,-15.86596c0,0 11.01687,10.70521 12.96057,15.86595z" fill="#ffffff" fill-rule="nonzero" stroke-width="1" stroke-linecap="butt" stroke-linejoin="miter" stroke-miterlimit="10"/><path d="M240.26635,169.7102c0.17901,0.04032 0.29351,0.08708 0.43058,0.17739c0.33706,0.22094 0.55154,0.5725 0.58702,0.96922l0.0113,0.11289h0.05483c0.08386,0 0.29189,0.04516 0.41284,0.09031c0.30964,0.11772 0.6096,0.41768 0.72571,0.72732c0.07258,0.19352 0.08225,0.24836 0.08225,0.47252c0,0.1274 -0.00807,0.24836 -0.01935,0.29028c-0.07258,0.25641 -0.18708,0.45639 -0.35801,0.62573c-0.19998,0.19836 -0.46929,0.32577 -0.75958,0.36286l-0.14353,0.01774v1.28692v1.28692h1.28854h1.28692l0.0113,-0.11289c0.05483,-0.55316 0.43381,-0.99503 0.98535,-1.14501c0.10645,-0.02742 0.36124,-0.03709 0.48865,-0.01774c0.46122,0.07258 0.86118,0.3951 1.0176,0.82408c0.0387,0.10482 0.08225,0.31447 0.08225,0.39188v0.05483l0.11289,0.0113c0.21287,0.01935 0.40962,0.08708 0.5838,0.20158c0.59347,0.38866 0.76764,1.16436 0.3951,1.76268c-0.11935,0.19352 -0.3177,0.37415 -0.52251,0.47735c-0.09837,0.04999 -0.3306,0.1145 -0.45639,0.12579l-0.10805,0.0113l-0.0113,0.10805c-0.0113,0.12579 -0.0758,0.35801 -0.12579,0.45639c-0.05806,0.11611 -0.14998,0.2419 -0.24836,0.34027c-0.4322,0.43381 -1.10953,0.50155 -1.61753,0.16449c-0.32737,-0.21772 -0.53702,-0.56766 -0.57572,-0.96116l-0.0113,-0.11289h-1.28692h-1.28854v3.86884v3.86723l0.11611,0.0113c0.69667,0.06451 1.21275,0.66766 1.16758,1.36433c-0.00968,0.16611 -0.02257,0.22416 -0.08547,0.39188c-0.1145,0.30964 -0.41607,0.6096 -0.72571,0.72732c-0.12095,0.04516 -0.32899,0.09031 -0.41284,0.09031h-0.05483l-0.0113,0.11289c-0.02742,0.30319 -0.15804,0.58218 -0.37415,0.79667c-0.50315,0.50315 -1.31596,0.50315 -1.81911,0c-0.11935,-0.11935 -0.23545,-0.29513 -0.29028,-0.43704c-0.04516,-0.12257 -0.09031,-0.32899 -0.09031,-0.41607c0,-0.05321 -0.00323,-0.05644 -0.05644,-0.05644c-0.17901,0 -0.46445,-0.09354 -0.64185,-0.20803c-0.49993,-0.32899 -0.71442,-0.94666 -0.51929,-1.50464c0.16611,-0.47735 0.5983,-0.81442 1.09985,-0.86118l0.11772,-0.0113v-3.86723v-3.86884h-1.28692h-1.28692l-0.01774,0.14837c-0.06773,0.56444 -0.47575,1.00309 -1.04018,1.11599c-0.63863,0.12901 -1.28854,-0.26933 -1.47077,-0.89988c-0.0242,-0.07902 -0.04677,-0.19191 -0.05161,-0.25159l-0.0113,-0.10805l-0.10805,-0.0113c-0.12579,-0.0113 -0.35801,-0.0758 -0.45639,-0.12579c-0.51768,-0.26126 -0.80634,-0.84505 -0.69507,-1.39658c0.1145,-0.57412 0.57572,-0.9918 1.15146,-1.04502l0.11289,-0.0113v-0.05483c0,-0.03064 0.0113,-0.11127 0.0258,-0.17901c0.09999,-0.50478 0.45801,-0.88053 0.966,-1.01922c0.10645,-0.02742 0.36124,-0.03709 0.48865,-0.01774c0.57896,0.09031 1.01922,0.5467 1.08857,1.12565l0.01774,0.14998h1.28692h1.28692v-1.28692v-1.28692l-0.14353,-0.01774c-0.54832,-0.06934 -0.96277,-0.43542 -1.11599,-0.98858c-0.02903,-0.09999 -0.02903,-0.47091 0,-0.5725c0.09515,-0.35156 0.279,-0.61444 0.56122,-0.79989c0.17739,-0.1145 0.46284,-0.20803 0.64185,-0.20803c0.05321,0 0.05644,-0.00323 0.05644,-0.05644c0,-0.17901 0.09354,-0.46445 0.20803,-0.64185c0.29513,-0.44994 0.83537,-0.67411 1.3482,-0.56122z" fill="#ffffff" fill-rule="nonzero" stroke-width="1.5" stroke-linecap="butt" stroke-linejoin="miter" stroke-miterlimit="10"/></g></g></svg>