<svg version="1.1" xmlns="http://www.w3.org/2000/svg" xmlns:xlink="http://www.w3.org/1999/xlink" width="38.5" height="35.94323" viewBox="0,0,38.5,35.94323"><g transform="translate(-220.75,-162.02838)"><g data-paper-data="{&quot;isPaintingLayer&quot;:true}" fill-rule="nonzero" stroke-width="1.5" stroke-linejoin="round" stroke-miterlimit="10" stroke-dasharray="" stroke-dashoffset="0" style="mix-blend-mode: normal"><path d="M224,170.27838l7.5,11.5l0.3,-14.1l5.2,13.6l3,-14.5l3,14.5l5.2,-13.6l0.3,14.1l7.5,-11.5l-2.5,12.5c-6,-1.5 -18.5,-1.5 -27,0z" fill="#000000" stroke="#000000" stroke-linecap="butt"/><path d="M253.5,182.77838c0,2 -1.5,2 -2.5,4c-1,1.5 -1,1 -0.5,3.5c1.5,1 1,2.5 1,2.5c1.5,1.5 0,2.5 0,2.5c-6.5,1 -16.5,1 -23,0c0,0 -1.5,-1 0,-2.5c0,0 -0.5,-1.5 1,-2.5c0.5,-2.5 0.5,-2 -0.5,-3.5c-1,-2 -2.5,-2 -2.5,-4c8.5,-1.5 18.5,-1.5 27,0z" fill="#000000" stroke="#000000" stroke-linecap="round"/><path d="M229,186.77838c3.5,-1 18.5,-1 22,0M229.5,190.27838c6,-1 15,-1 21,0" fill="#000000" stroke="#000000" stroke-linecap="round"/><path d="M221.5,168.77838c0,-1.10457 0.89543,-2 2,-2c1.10457,0 2,0.89543 2,2c0,1.10457 -0.89543,2 -2,2c-1.10457,0 -2,-0.89543 -2,-2z" fill="#000000" stroke="#000000" stroke-linecap="round"/><path d="M229.5,165.77838c0,-1.10457 0.89543,-2 2,-2c1.10457,0 2,0.89543 2,2c0,1.10457 -0.89543,2 -2,2c-1.10457,0 -2,-0.89543 -2,-2z" fill="#000000" stroke="#000000" stroke-linecap="round"/><path d="M238,164.77838c0,-1.10457 0.89543,-2 2,-2c1.10457,0 2,0.89543 2,2c0,1.10457 -0.89543,2 -2,2c-1.10457,0 -2,-0.89543 -2,-2z" fill="#000000" stroke="#000000" stroke-linecap="round"/><path d="M246.5,165.77838c0,-1.10457 0.89543,-2 2,-2c1.10457,0 2,0.89543 2,2c0,1.10457 -0.89543,2 -2,2c-1.10457,0 -2,-0.89543 -2,-2z" fill="#000000" stroke="#000000" stroke-linecap="round"/><path d="M254.5,168.77838c0,-1.10457 0.89543,-2 2,-2c1.10457,0 2,0.89543 2,2c0,1.10457 -0.89543,2 -2,2c-1.10457,0 -2,-0.89543 -2,-2z" fill="#000000" stroke="#000000" stroke-linecap="round"/><path d="M251.5,195.27838c-7.44776,2.59097 -15.55224,2.59097 -23,0" fill="none" stroke="#000000" stroke-linecap="butt"/><path d="M251.5,185.77838c-7.44776,-2.59097 -15.55224,-2.59097 -23,0M250,188.27838h-20M251,191.27838c-7.14271,2.36467 -14.85729,2.36467 -22,0M252,194.27838c-7.74997,2.82858 -16.25003,2.82858 -24,0" fill="none" stroke="#ffffff" stroke-linecap="round"/></g></g></svg>