<svg version="1.1" xmlns="http://www.w3.org/2000/svg" xmlns:xlink="http://www.w3.org/1999/xlink" width="27.69697" height="36.77222" viewBox="0,0,27.69697,36.77222"><g transform="translate(-226.14778,-161.56679)"><g fill="#ffffff" stroke="#000000" stroke-width="1.5" stroke-miterlimit="10"><path d="M245.94735,163.86394c4.14898,2.35341 7.0123,6.98179 7.1474,11.5448c0.03922,1.36411 -0.06973,2.17473 -0.4794,3.59549c-0.20483,0.71474 -0.32686,1.22465 -0.68859,2.87639c-0.54913,2.52338 -0.94572,3.58678 -1.61688,4.29716c-0.40967,0.43146 -0.65373,0.53606 -1.35539,0.584c-0.41403,0.03051 -0.67116,0.07845 -1.15492,0.21355c-0.62322,0.17869 -1.28566,0.4271 -1.47306,0.54913c-0.12203,0.07845 -0.60579,0.98495 -0.83677,1.56894c-0.09588,0.2397 -0.24842,0.67116 -0.33558,0.95444c-0.19612,0.62322 -0.27456,0.7191 -0.69731,0.84984c-0.41403,0.13075 -1.88709,0.41838 -2.57132,0.50555c-1.37282,0.17869 -3.02457,0.16997 -4.31459,-0.02615c-0.82369,-0.12203 -2.04834,-0.41838 -2.32726,-0.5622c-0.17433,-0.08716 -0.18304,-0.1046 -0.37916,-0.67552c-0.27021,-0.8019 -1.0111,-2.35777 -1.21593,-2.54953c-0.21791,-0.20483 -1.97861,-0.82805 -2.56261,-0.91086c-0.17869,-0.02615 -0.43146,-0.08716 -0.55785,-0.1351c-0.52734,-0.19612 -1.02853,-0.72781 -1.40333,-1.49485c-0.4271,-0.86728 -0.65373,-1.59509 -1.14184,-3.64779c-0.1874,-0.78011 -0.46197,-1.84787 -0.61014,-2.3752c-0.43146,-1.51664 -0.47504,-1.81736 -0.47504,-3.24684c0,-1.30745 0.0523,-1.75634 0.32686,-2.88511c0.66244,-2.71078 2.28368,-5.39978 4.38432,-7.28251c2.16165,-1.92631 4.67632,-3.0638 7.32173,-3.29478c2.41879,-0.21791 4.85936,0.3225 7.01666,1.54715zM232.92949,172.61516c-1.45127,0.30507 -2.58875,1.44691 -3.01586,3.02457c-0.07409,0.27456 -0.09152,0.47068 -0.09588,1.05468c-0.00436,0.62758 0.00872,0.76268 0.09588,1.06775c0.44453,1.54279 1.78685,2.87204 3.18147,3.14224c1.4905,0.28764 2.71514,-0.81498 4.19692,-3.78725c0.31815,-0.64065 0.35737,-0.74961 0.40095,-1.08519c0.03922,-0.30943 0.03487,-0.41838 -0.02615,-0.67116c-0.27892,-1.15056 -1.47742,-2.21831 -2.97227,-2.65849c-0.48376,-0.13946 -1.31181,-0.18304 -1.76506,-0.08716zM245.61613,172.61951c-1.59509,0.34865 -2.96356,1.45563 -3.27735,2.64977c-0.16561,0.61886 -0.09588,0.97623 0.36173,1.87837c1.66918,3.31657 3.02457,4.31895 4.81578,3.56499c1.15056,-0.4794 2.18344,-1.67354 2.54517,-2.92869c0.13946,-0.49247 0.16125,-1.37282 0.04794,-1.9176c-0.34865,-1.68225 -1.56023,-2.9592 -3.08994,-3.2512c-0.40531,-0.07409 -1.03289,-0.07409 -1.40333,0.00436zM238.60383,182.6346c-0.74525,0.98495 -1.22029,1.93503 -1.44691,2.87639c-0.10024,0.41403 -0.06973,0.51426 0.19176,0.63629c0.26585,0.13075 0.60579,0.19176 1.07211,0.19612l0.41838,0.00436l0.43146,-0.26149c0.42274,-0.25277 0.44453,-0.26149 0.74089,-0.26149c0.28328,0 0.3443,0.01743 0.82805,0.24842c0.6145,0.292 0.79319,0.32686 1.25951,0.23534c0.39224,-0.07845 0.61886,-0.17869 0.73217,-0.33558c0.07845,-0.1046 0.07845,-0.11331 -0.00872,-0.40967c-0.49683,-1.64303 -1.32924,-3.02457 -2.47544,-4.13155c-0.29636,-0.28328 -0.37044,-0.32686 -0.47068,-0.25713z"/><path d="M248.75837,188.8232c0.25713,0.00436 0.4794,0.02615 0.49683,0.04358c0.0523,0.04794 -0.21355,1.00674 -1.11569,4.03567c-0.14818,0.48812 -0.39224,1.38154 -0.54913,1.98297c-0.38352,1.49485 -0.59271,1.91324 -1.05032,2.10936c-0.29636,0.12639 -2.62798,0.45325 -4.26229,0.59707c-2.89383,0.25277 -5.22109,0.16125 -7.47427,-0.28764c-1.50357,-0.30071 -1.81736,-0.64501 -2.38828,-2.65413c-0.16997,-0.58835 -0.50555,-1.6779 -0.74961,-2.41879c-0.47068,-1.43384 -0.87163,-2.7718 -0.87163,-2.9069c0,-0.06973 0.03922,-0.07845 0.3443,-0.07845c0.36609,0 0.7714,0.06973 1.20286,0.20919c0.2397,0.07845 1.37718,0.52298 1.40769,0.54913c0.00436,0.00872 0.12639,0.31815 0.26585,0.68859c0.43146,1.14184 0.86292,1.90452 1.23772,2.17473c0.44889,0.32686 2.40571,0.69295 4.04003,0.76268c1.12441,0.04358 2.69335,-0.09588 3.96158,-0.35301c0.89343,-0.17869 1.28566,-0.28764 1.45563,-0.39659c0.37044,-0.2397 0.82805,-1.06775 1.2508,-2.25318l0.23098,-0.64501l0.45761,-0.3443c0.50991,-0.38352 0.95008,-0.62322 1.36411,-0.74525c0.20919,-0.06101 0.39224,-0.07845 0.74525,-0.06973z"/></g></g></svg>