<svg version="1.1" xmlns="http://www.w3.org/2000/svg" xmlns:xlink="http://www.w3.org/1999/xlink" width="338.55978" height="384.16043" viewBox="0,0,338.55978,384.16043"><g transform="translate(-70.72011,12.08022)"><g fill="#000000" stroke="none" stroke-miterlimit="10"><path d="M255.60414,-5.04292c1.4,1.9 12.3,20.4 24.3,41.1l21.7,37.8h46.1c45.1,0 46.2,0 50.5,2.1c8.3,4 12.9,15 9.9,23.6c-0.8,2.3 -11.2,21.1 -23.1,41.7c-11.9,20.7 -21.6,38.1 -21.6,38.7c0,0.6 9.5,17.5 21.1,37.6c11.6,20.1 21.9,38.4 23,40.7c2.4,5.3 2.4,10 -0.2,15.6c-2.5,5.6 -4.4,7.7 -9.4,10.4c-3.9,2 -5.2,2.1 -50.5,2.4l-46.5,0.4l-21.5,37.6c-11.8,20.6 -22.7,39 -24.3,40.8c-8.1,9.4 -24.2,8.7 -31.5,-1.5c-1.5,-2.1 -12.1,-20.3 -23.7,-40.4l-21,-36.6l-46.5,-0.3l-46.5,-0.3l-4.7,-2.8c-8.2,-4.8 -12.4,-15 -9.6,-23.2c0.8,-2.2 11.2,-20.9 23.1,-41.6c11.9,-20.7 21.7,-38.1 21.7,-38.7c0,-0.7 -9.9,-18.3 -22,-39.3c-12.1,-20.9 -22.5,-39.9 -23.1,-42.1c-2.1,-7.8 1.6,-16.9 8.9,-21.8l3.6,-2.5l47.3,-0.5l47.4,-0.5l22.5,-39c12.4,-21.4 23.2,-39.7 24,-40.7c0.9,-0.9 3.5,-2.6 5.8,-3.7c8.2,-4.1 19.8,-1.8 24.8,5z" stroke-width="0.5"/><path d="M242,24.7c1.1,1.1 27.8,47.5 28.6,49.6c0.6,1.6 -1.7,1.7 -29.1,1.7c-27.5,0 -29.7,-0.1 -29.1,-1.7c0.4,-0.9 7,-12.6 14.8,-26.1c7.7,-13.4 14.4,-24 14.8,-23.5zM241.5,30c-0.4,0 -24.5,41.7 -24.5,42.5c0,0.3 11,0.5 24.5,0.5c13.5,0 24.5,-0.3 24.5,-0.6c0,-0.3 -5.4,-9.9 -12.1,-21.5c-6.6,-11.5 -12.2,-20.9 -12.4,-20.9z" stroke-width="1"/><path d="M106.8,101h30.2c16.6,0 29.9,0.3 29.7,0.7c-16,28 -28.2,49.1 -29.1,50c-1,1.1 -11.2,-15.6 -28.1,-46zM136.4,104h-24.6l3.1,5.2c1.7,2.9 7.2,12.6 12.3,21.5c5.1,8.9 9.7,15.8 10.1,15.4c1.3,-1.3 23.7,-40.3 23.7,-41.3c0,-0.4 -11.1,-0.8 -24.6,-0.8z" stroke-width="1"/><path d="M197,101h44.8l44.7,0.1l21.9,38.1c12.1,21 22,38.9 22,39.7c0.1,0.9 -9.8,18.8 -21.9,39.8l-22,38.3h-45h-45l-22,-38.3c-12.1,-21 -22,-38.9 -21.9,-39.8c0,-1.3 34.1,-61.3 42.1,-74.2zM284.5,104h-43h-43l-21.7,37.5l-21.7,37.5l21.6,37.5l21.6,37.5h43.2h43.1l21.6,-37.5l21.7,-37.4l-21.7,-37.6z" stroke-width="1"/><path d="M256.7,165.2c13.4,14.3 -0.6,38.4 -19.7,33.8c-18.1,-4.3 -21.6,-28.6 -5.5,-37.7c7.6,-4.3 19.2,-2.5 25.2,3.9zM233.1,163.7c-7.2,3.6 -10.8,13.6 -7.7,21.8c5.3,13.8 23.8,15 31.4,2c4.5,-7.9 0.9,-20 -7.1,-23.8c-4.5,-2.2 -12.2,-2.1 -16.6,0z" stroke-width="1"/><path d="M346,101h30.2l-2.7,4.7c-16.9,30.4 -27.1,47.1 -28.1,46c-0.9,-0.9 -13.1,-22 -29.1,-50c-0.2,-0.4 13.1,-0.7 29.7,-0.7zM371.1,104h-24.6c-23.1,0 -24.7,0.1 -24.1,1.7c1,2.5 21.7,38.6 23,40c1.1,1.2 2.1,-0.4 22.4,-35.9z" stroke-width="1"/><path d="M137.3,205.9c0.4,0.4 7.2,12 15.1,25.7l14.4,24.9l-14.9,0.3c-8.2,0.1 -21.6,0.1 -29.9,0l-15,-0.3l14.8,-25.7c8.1,-14.1 15.1,-25.3 15.5,-24.9zM138,213.2c-1.4,-2 -1.9,-1.4 -11,14.5c-5.2,9.2 -10.7,18.9 -12.3,21.5l-2.7,4.8h24.9h25l-11.2,-19.3c-6.2,-10.7 -11.9,-20.3 -12.7,-21.5z" stroke-width="1"/><path d="M361.1,230.7l14.9,25.8l-15,0.3c-8.3,0.1 -21.7,0.1 -29.9,0l-14.9,-0.3l14.2,-24.5c7.7,-13.5 14.5,-25.1 15,-25.8c0.5,-0.9 5.5,6.8 15.7,24.5zM370.8,253.5l-12.3,-21.3l-12.3,-21.4l-4.9,8.4c-12.7,21.6 -19.5,33.9 -19.1,34.3c0.3,0.3 11.3,0.4 24.5,0.3z" stroke-width="1"/><path d="M211.8,283h29.6c16.3,0 29.6,0.2 29.6,0.4c0,1.5 -28.9,50.1 -29.6,49.8c-0.8,-0.2 -15,-24.2 -26.1,-44zM266.1,286h-24.6h-24.6l3,5.2c15.3,26.7 20.9,36 21.6,36c0.7,0 8.3,-12.5 21.4,-35.5z" stroke-width="1"/></g></g></svg>