<svg version="1.1" xmlns="http://www.w3.org/2000/svg" xmlns:xlink="http://www.w3.org/1999/xlink" width="34.11901" height="37.58616" viewBox="0,0,34.11901,37.58616"><g transform="translate(-223.05918,-161.24991)"><g fill="#ffffff" stroke="#000000" stroke-width="1.5" stroke-miterlimit="10"><path d="M236.127,193.97083l-2.10616,-3.6688h-4.47438c-4.37731,0 -4.48408,0 -4.90143,-0.20382c-0.80558,-0.38823 -1.25205,-1.45587 -0.96088,-2.29057c0.07765,-0.22323 1.08705,-2.04792 2.24204,-4.04732c1.15499,-2.0091 2.09646,-3.69791 2.09646,-3.75615c0,-0.05823 -0.92205,-1.69851 -2.04792,-3.64938c-1.12588,-1.95086 -2.12557,-3.72703 -2.23234,-3.95026c-0.23294,-0.51441 -0.23294,-0.97058 0.01941,-1.51411c0.24265,-0.54353 0.42705,-0.74735 0.91235,-1.0094c0.37853,-0.19412 0.5047,-0.20382 4.90143,-0.23294l4.5132,-0.03882l2.08674,-3.64938c1.14528,-1.99939 2.20322,-3.78526 2.35851,-3.95997c0.78617,-0.91235 2.3488,-0.8444 3.05732,0.14558c0.14558,0.20382 1.1744,1.97028 2.30027,3.92115l2.03822,3.55232l9.02639,0.05823l0.45617,0.27176c0.79588,0.46588 1.20352,1.45587 0.93176,2.25174c-0.07765,0.21353 -1.08705,2.02851 -2.24204,4.03761c-1.15499,2.0091 -2.10616,3.69791 -2.10616,3.75615c0,0.06794 0.96088,1.77616 2.13527,3.81438c1.1744,2.02851 2.18381,3.87262 2.24204,4.08615c0.20382,0.75705 -0.1553,1.64028 -0.86381,2.11586l-0.34941,0.24265l-4.59084,0.04853l-4.60055,0.04853l-2.18381,3.78526c-1.20352,2.07704 -2.25174,3.8532 -2.32939,3.95026c-0.08735,0.08735 -0.3397,0.25235 -0.56293,0.35911c-0.79588,0.39793 -1.92174,0.1747 -2.40704,-0.48529z"/></g></g></svg>