<svg version="1.1" xmlns="http://www.w3.org/2000/svg" xmlns:xlink="http://www.w3.org/1999/xlink" width="32.05556" height="32.97111" viewBox="0,0,32.05556,32.97111"><g transform="translate(-223.97222,-163.5145)"><g data-paper-data="{&quot;isPaintingLayer&quot;:true}" stroke="#000000" stroke-width="1.5" stroke-dasharray="" stroke-dashoffset="0" style="mix-blend-mode: normal"><path d="M228.23249,178.4742v-8.19878l2.29167,-1.68655h18.63889l2.44444,1.80203v7.96783l-2.29167,1.90535h-18.71528z" fill="#ffffff" fill-rule="nonzero" stroke-linecap="butt" stroke-linejoin="miter" stroke-miterlimit="10"/><path d="M238.54499,175.9732v-2.67361h2.67361v2.67361z" fill="#000000" fill-rule="nonzero" stroke-linecap="butt" stroke-linejoin="miter" stroke-miterlimit="10"/><path d="M247.63527,175.9732v-2.67361h0.99305v2.67361z" fill="#000000" fill-rule="nonzero" stroke-linecap="butt" stroke-linejoin="miter" stroke-miterlimit="10"/><path d="M231.28805,175.9732v-2.67361h0.99305v2.67361z" fill="#000000" fill-rule="nonzero" stroke-linecap="butt" stroke-linejoin="miter" stroke-miterlimit="10"/><path d="M228.23249,183.73506v-1.86182l2.29167,-1.68655h18.63889l2.44444,1.80203v1.63088l-2.29167,1.90535h-18.71528z" fill="#ffffff" fill-rule="nonzero" stroke-linecap="butt" stroke-linejoin="miter" stroke-miterlimit="10"/><path d="M230.54293,168.5885c0,0 2.61655,-2.0231 7.5199,-2.45547c0.10788,-1.39733 1.37645,-1.8614 1.91637,-1.86853c0.5232,-0.0069 1.83505,0.40991 1.87792,1.8811c5.00274,0.32058 7.23483,2.4429 7.23483,2.4429" fill="#ffffff" fill-rule="nonzero" stroke-linecap="round" stroke-linejoin="miter" stroke-miterlimit="10"/><path d="M229.42771,192.07869v-4h21v4z" fill="#ffffff" fill-rule="evenodd" stroke-linecap="butt" stroke-linejoin="round" stroke-miterlimit="4"/><path d="M248.42771,185.57869l1.5,2.5h-20l1.5,-2.5" fill="#ffffff" fill-rule="evenodd" stroke-linecap="round" stroke-linejoin="round" stroke-miterlimit="4"/><path d="M224.72222,195.73561v-4.125h30.55556v4.125z" fill="#ffffff" fill-rule="nonzero" stroke-linecap="butt" stroke-linejoin="miter" stroke-miterlimit="10"/></g></g></svg>