<svg version="1.1" xmlns="http://www.w3.org/2000/svg" xmlns:xlink="http://www.w3.org/1999/xlink" width="30.97995" height="36.11812" viewBox="0,0,30.97995,36.11812"><g transform="translate(-224.51002,-161.94094)"><g fill="#ffffff" stroke="#000000" stroke-width="1.5"><path d="" fill-rule="evenodd" stroke-linecap="butt" stroke-linejoin="round" stroke-miterlimit="4"/><path d="" fill-rule="nonzero" stroke-linecap="butt" stroke-linejoin="miter" stroke-miterlimit="10"/><path d="M225.26002,194.03351h29.47995v3.27555h-29.47995z" fill-rule="evenodd" stroke-linecap="butt" stroke-linejoin="round" stroke-miterlimit="4"/><path d="M228.07726,193.90163l2.70476,-19.65222l9.24313,-7.67938l9.24315,7.67938l2.45042,19.65222z" fill-rule="nonzero" stroke-linecap="butt" stroke-linejoin="miter" stroke-miterlimit="10"/><path d="M235.06015,170.53038c0,-2.07102 1.28397,-3.84216 3.09931,-4.56081c-0.17871,-0.3183 -0.28064,-0.68552 -0.28064,-1.07653c0,-1.21618 0.98591,-2.2021 2.20209,-2.2021c1.21618,0 2.2021,0.98591 2.2021,2.2021c0,0.42387 -0.11974,0.81974 -0.32727,1.15568c1.71521,0.76363 2.91106,2.483 2.91106,4.48168c0,0.02612 -9.80665,0.04003 -9.80665,0z" fill-rule="nonzero" stroke-linecap="butt" stroke-linejoin="miter" stroke-miterlimit="10"/><path d="M253.54358,177.66214l-3.27555,3.27555h-20.79493l-3.27555,-3.27555z" fill-rule="evenodd" stroke-linecap="round" stroke-linejoin="round" stroke-miterlimit="4"/><path d="M229.97306,177.61662v-5.19033c0,0 4.53623,1.1927 5.52876,3.30239c1.33139,-2.00922 3.74156,-3.30239 4.44759,-3.30239c0.75024,0 3.17365,1.43972 4.44759,3.39671c1.36204,-2.31061 5.70959,-3.39671 5.70959,-3.39671v5.19033" fill-rule="evenodd" stroke-linecap="butt" stroke-linejoin="round" stroke-miterlimit="4"/><path d="M227.32014,193.92354v-6.60525c0,0 5.77284,1.51785 7.03593,4.20263c1.69433,-2.55696 4.76154,-4.20263 5.66002,-4.20263c0.95477,0 4.0388,1.83221 5.66002,4.32268c1.73333,-2.94049 7.26606,-4.32268 7.26606,-4.32268v6.60525" fill-rule="evenodd" stroke-linecap="butt" stroke-linejoin="round" stroke-miterlimit="4"/></g></g></svg>