<svg version="1.1" xmlns="http://www.w3.org/2000/svg" xmlns:xlink="http://www.w3.org/1999/xlink" width="37.40945" height="34.71547" viewBox="0,0,37.40945,34.71547"><g transform="translate(-221.18414,-162.60224)"><g fill="#ffffff" stroke="#000000" stroke-width="1.5" stroke-miterlimit="10"><path d="M238.77456,163.47081c2.80594,-0.48439 5.47274,0.53249 7.15833,2.73839c0.75698,0.98259 1.12433,1.79032 1.38438,3.02907c0.40561,1.93843 0.06918,3.61717 -1.00093,5.01185c-0.54191,0.70407 -0.98553,1.06942 -1.81269,1.48007c-1.04008,0.51461 -1.87281,0.65077 -2.97441,0.48552c-2.17058,-0.33292 -3.71172,-2.00761 -3.72782,-4.04834c-0.00311,-0.82332 0.40108,-1.90637 0.98933,-2.62631c0.62952,-0.77389 1.59555,-0.92782 2.28045,-0.36979c0.67957,0.54711 0.71949,1.50121 0.10394,2.23447c-0.12913,0.15094 -0.27553,0.40498 -0.31782,0.56761c-0.06477,0.24122 -0.05741,0.32552 0.05988,0.56573c0.17327,0.35486 0.51071,0.589 0.9826,0.68311c1.20685,0.24233 2.33494,-0.67359 2.54643,-2.06821c0.11013,-0.72987 -0.15589,-1.91162 -0.58648,-2.64115c-0.56705,-0.95362 -1.29498,-1.55825 -2.27546,-1.89083c-0.7503,-0.24889 -1.34472,-0.31699 -2.07384,-0.21789c-0.45159,0.05824 -0.59062,0.10584 -1.27304,0.43905c-0.63329,0.30922 -0.83275,0.4269 -1.14242,0.70656c-1.63596,1.46815 -2.45364,4.04445 -1.9993,6.29037c0.56628,2.76595 2.47493,4.94406 5.16701,5.87423c1.47065,0.50566 2.4618,0.56934 4.51867,0.28168c4.10561,-0.57811 7.72982,0.33638 10.10009,2.54601c1.13937,1.05955 1.68156,1.7684 2.3,3.03498c0.63977,1.31026 0.84906,2.16813 0.87117,3.57038c0.04664,2.83714 -1.59006,5.53614 -4.10138,6.76237c-2.82797,1.38084 -6.50082,0.72673 -8.51751,-1.52032c-0.4598,-0.51244 -0.95652,-1.43279 -1.12698,-2.08651c-0.51644,-1.99925 0.07812,-3.96629 1.60095,-5.25074c0.33418,-0.28487 0.5118,-0.39188 1.0957,-0.64994c0.60574,-0.26873 0.77193,-0.31607 1.21794,-0.35806c0.90293,-0.08931 1.64042,0.07795 2.40239,0.53074c0.6971,0.41686 1.10853,0.87178 1.50585,1.67164c0.41598,0.83808 0.46763,1.12387 0.30483,1.67663c-0.24992,0.85898 -1.0607,1.26163 -1.89746,0.9603c-0.50363,-0.18679 -0.75384,-0.45 -1.01419,-1.08011c-0.23635,-0.58098 -0.43046,-0.74312 -0.88141,-0.7528c-0.79869,-0.01568 -1.53575,0.92566 -1.5126,1.92851c0.01115,0.25823 0.06129,0.4163 0.28775,0.89393c0.2719,0.55686 0.29069,0.58149 0.70607,0.90603c0.55566,0.43183 1.65788,0.81989 2.37774,0.84026c1.10834,0.02674 2.17951,-0.32726 2.94093,-0.96949c1.30915,-1.09898 1.83208,-2.67271 1.49019,-4.45294c-0.15052,-0.75135 -0.71565,-1.90874 -1.25834,-2.56325c-1.2654,-1.52537 -2.76281,-2.36277 -4.67593,-2.62533c-2.37447,-0.32125 -4.83613,0.53591 -6.63526,2.30684c-0.831,0.81818 -1.36607,1.66089 -1.8839,2.98198c-0.7379,1.89505 -1.61884,3.4002 -2.72576,4.66411c-2.17815,2.49012 -4.69442,3.66468 -7.88183,3.68628c-2.39126,0.01823 -4.51291,-0.89298 -6.07539,-2.61135c-0.94386,-1.04684 -1.64391,-2.59134 -1.79654,-3.98395c-0.12269,-1.10975 -0.03222,-2.0599 0.30912,-3.1055c0.47849,-1.4709 1.32958,-2.69103 2.5614,-3.6576c0.62137,-0.48595 1.8769,-1.08548 2.57925,-1.22559c1.59525,-0.31918 3.2246,0.06842 4.43266,1.0471c0.57712,0.46192 0.94488,0.93816 1.31808,1.70248c0.51194,1.03462 0.63719,1.87268 0.4482,2.89798c-0.25186,1.35348 -1.1701,2.49147 -2.39452,2.96087c-1.06622,0.40568 -2.53551,0.33206 -3.15858,-0.15474c-0.2751,-0.21725 -0.60121,-0.7882 -0.61744,-1.08452c-0.03246,-0.59264 0.30441,-1.16279 0.84489,-1.42669c0.30573,-0.14928 0.55317,-0.16869 1.33243,-0.10972c0.57562,0.04346 0.91221,-0.20878 1.02359,-0.78376c0.11392,-0.55594 -0.23465,-1.33904 -0.75286,-1.70802c-0.37248,-0.26435 -0.96853,-0.44658 -1.41695,-0.43722c-0.97847,0.03154 -2.09918,0.74102 -2.78001,1.76984c-1.94865,2.93246 0.03023,6.59751 3.72279,6.89042c0.56204,0.04333 1.26907,-0.01793 2.08302,-0.17873c0.57437,-0.11143 0.72431,-0.16436 1.53776,-0.56155c0.95819,-0.47462 1.24818,-0.68383 2.00541,-1.45923c1.33075,-1.37321 2.12121,-3.36829 2.11273,-5.35189c-0.00814,-1.44288 -0.21146,-2.35775 -0.79792,-3.55882c-0.37587,-0.76978 -0.57682,-1.07055 -1.28861,-1.94674c-0.75482,-0.92279 -1.27961,-1.74831 -1.83674,-2.88932c-0.56247,-1.15193 -0.79551,-1.79537 -1.03259,-2.87631c-0.47187,-2.11567 -0.35825,-3.79379 0.38626,-5.81376c0.1534,-0.41971 0.42272,-1.03125 0.59693,-1.35295c0.58066,-1.0678 1.63806,-2.26697 2.56795,-2.91032c0.91351,-0.63536 1.9692,-1.07646 2.98983,-1.25704z"/><path d="M238.77456,163.47081c2.80594,-0.48439 5.47274,0.53249 7.15833,2.73839c0.75698,0.98259 1.12433,1.79032 1.38438,3.02907c0.40561,1.93843 0.06918,3.61717 -1.00093,5.01185c-0.54191,0.70407 -0.98553,1.06942 -1.81269,1.48007c-1.04008,0.51461 -1.87281,0.65077 -2.97441,0.48552c-2.17058,-0.33292 -3.71172,-2.00761 -3.72782,-4.04834c-0.00311,-0.82332 0.40108,-1.90637 0.98933,-2.62631c0.62952,-0.77389 1.59555,-0.92782 2.28045,-0.36979c0.67957,0.54711 0.71949,1.50121 0.10394,2.23447c-0.12913,0.15094 -0.27553,0.40498 -0.31782,0.56761c-0.06477,0.24122 -0.05741,0.32552 0.05988,0.56573c0.17327,0.35486 0.51071,0.589 0.9826,0.68311c1.20685,0.24233 2.33494,-0.67359 2.54643,-2.06821c0.11013,-0.72987 -0.15589,-1.91162 -0.58648,-2.64115c-0.56705,-0.95362 -1.29498,-1.55825 -2.27546,-1.89083c-0.7503,-0.24889 -1.34472,-0.31699 -2.07384,-0.21789c-0.45159,0.05824 -0.59062,0.10584 -1.27304,0.43905c-0.63329,0.30922 -0.83275,0.4269 -1.14242,0.70656c-1.63596,1.46815 -2.45364,4.04445 -1.9993,6.29037c0.56628,2.76595 2.47493,4.94406 5.16701,5.87423c1.47065,0.50566 2.4618,0.56934 4.51867,0.28168c4.10561,-0.57811 7.72982,0.33638 10.10009,2.54601c1.13937,1.05955 1.68156,1.7684 2.3,3.03498c0.63977,1.31026 0.84906,2.16813 0.87117,3.57038c0.04664,2.83714 -1.59006,5.53614 -4.10138,6.76237c-2.82797,1.38084 -6.50082,0.72673 -8.51751,-1.52032c-0.4598,-0.51244 -0.95652,-1.43279 -1.12698,-2.08651c-0.51644,-1.99925 0.07812,-3.96629 1.60095,-5.25074c0.33418,-0.28487 0.5118,-0.39188 1.0957,-0.64994c0.60574,-0.26873 0.77193,-0.31607 1.21794,-0.35806c0.90293,-0.08931 1.64042,0.07795 2.40239,0.53074c0.6971,0.41686 1.10853,0.87178 1.50585,1.67164c0.41598,0.83808 0.46763,1.12387 0.30483,1.67663c-0.24992,0.85898 -1.0607,1.26163 -1.89746,0.9603c-0.50363,-0.18679 -0.75384,-0.45 -1.01419,-1.08011c-0.23635,-0.58098 -0.43046,-0.74312 -0.88141,-0.7528c-0.79869,-0.01568 -1.53575,0.92566 -1.5126,1.92851c0.01115,0.25823 0.06129,0.4163 0.28775,0.89393c0.2719,0.55686 0.29069,0.58149 0.70607,0.90603c0.55566,0.43183 1.65788,0.81989 2.37774,0.84026c1.10834,0.02674 2.17951,-0.32726 2.94093,-0.96949c1.30915,-1.09898 1.83208,-2.67271 1.49019,-4.45294c-0.15052,-0.75135 -0.71565,-1.90874 -1.25834,-2.56325c-1.2654,-1.52537 -2.76281,-2.36277 -4.67593,-2.62533c-2.37447,-0.32125 -4.83613,0.53591 -6.63526,2.30684c-0.831,0.81818 -1.36607,1.66089 -1.8839,2.98198c-0.7379,1.89505 -1.61884,3.4002 -2.72576,4.66411c-2.17815,2.49012 -4.69442,3.66468 -7.88183,3.68628c-2.39126,0.01823 -4.51291,-0.89298 -6.07539,-2.61135c-0.94386,-1.04684 -1.64391,-2.59134 -1.79654,-3.98395c-0.12269,-1.10975 -0.03222,-2.0599 0.30912,-3.1055c0.47849,-1.4709 1.32958,-2.69103 2.5614,-3.6576c0.62137,-0.48595 1.8769,-1.08548 2.57925,-1.22559c1.59525,-0.31918 3.2246,0.06842 4.43266,1.0471c0.57712,0.46192 0.94488,0.93816 1.31808,1.70248c0.51194,1.03462 0.63719,1.87268 0.4482,2.89798c-0.25186,1.35348 -1.1701,2.49147 -2.39452,2.96087c-1.06622,0.40568 -2.53551,0.33206 -3.15858,-0.15474c-0.2751,-0.21725 -0.60121,-0.7882 -0.61744,-1.08452c-0.03246,-0.59264 0.30441,-1.16279 0.84489,-1.42669c0.30573,-0.14928 0.55317,-0.16869 1.33243,-0.10972c0.57562,0.04346 0.91221,-0.20878 1.02359,-0.78376c0.11392,-0.55594 -0.23465,-1.33904 -0.75286,-1.70802c-0.37248,-0.26435 -0.96853,-0.44658 -1.41695,-0.43722c-0.97847,0.03154 -2.09918,0.74102 -2.78001,1.76984c-1.94865,2.93246 0.03023,6.59751 3.72279,6.89042c0.56204,0.04333 1.26907,-0.01793 2.08302,-0.17873c0.57437,-0.11143 0.72431,-0.16436 1.53776,-0.56155c0.95819,-0.47462 1.24818,-0.68383 2.00541,-1.45923c1.33075,-1.37321 2.12121,-3.36829 2.11273,-5.35189c-0.00814,-1.44288 -0.21146,-2.35775 -0.79792,-3.55882c-0.37587,-0.76978 -0.57682,-1.07055 -1.28861,-1.94674c-0.75482,-0.92279 -1.27961,-1.74831 -1.83674,-2.88932c-0.56247,-1.15193 -0.79551,-1.79537 -1.03259,-2.87631c-0.47187,-2.11567 -0.35825,-3.79379 0.38626,-5.81376c0.1534,-0.41971 0.42272,-1.03125 0.59693,-1.35295c0.58066,-1.0678 1.63806,-2.26697 2.56795,-2.91032c0.91351,-0.63536 1.9692,-1.07646 2.98983,-1.25704z"/><path d="M257.63224,191.73705c-0.98322,2.6723 -3.1971,4.47359 -5.95022,4.83066c-1.22942,0.16439 -2.11262,0.07874 -3.31547,-0.31531c-1.88159,-0.61777 -3.16732,-1.74837 -3.84024,-3.37239c-0.33887,-0.82131 -0.43351,-1.38816 -0.37565,-2.30984c0.07427,-1.15805 0.37264,-1.94732 1.06647,-2.81878c1.37345,-1.71345 3.59429,-2.21098 5.36976,-1.20472c0.71461,0.4089 1.45055,1.30039 1.77999,2.16977c0.35554,0.93209 0.00592,1.8457 -0.81977,2.1599c-0.81357,0.31505 -1.65984,-0.12735 -1.98717,-1.02703c-0.06617,-0.18729 -0.213,-0.44109 -0.33271,-0.55901c-0.17653,-0.17669 -0.25322,-0.21245 -0.5199,-0.23096c-0.39396,-0.02734 -0.76543,0.14786 -1.08284,0.5095c-0.8132,0.92407 -0.5839,2.35897 0.51821,3.23933c0.57706,0.46026 1.73353,0.82064 2.58062,0.81242c1.10938,-0.01437 1.99694,-0.34255 2.77514,-1.02545c0.59065,-0.52539 0.94679,-1.00616 1.22546,-1.68717c0.17532,-0.42022 0.2036,-0.56443 0.25617,-1.32203c0.04879,-0.70306 0.04658,-0.93464 -0.04082,-1.34264c-0.45368,-2.15082 -2.27617,-4.14692 -4.44843,-4.87621c-2.67861,-0.89231 -5.51918,-0.32816 -7.67059,1.53837c-1.17314,1.0209 -1.72379,1.84747 -2.50292,3.77268c-1.55178,3.84476 -4.15561,6.52642 -7.25425,7.47462c-1.48724,0.45709 -2.37221,0.5723 -3.77832,0.47473c-1.45461,-0.10094 -2.30222,-0.34854 -3.52772,-1.0304c-2.48049,-1.37794 -3.9998,-4.14472 -3.80635,-6.93272c0.21785,-3.13953 2.62048,-5.99349 5.57477,-6.61675c0.67367,-0.14204 1.71908,-0.11214 2.37047,0.06704c1.98967,0.55219 3.39604,2.05048 3.74718,4.01148c0.07966,0.43184 0.08354,0.63916 0.01513,1.27387c-0.07008,0.65896 -0.11216,0.82656 -0.29876,1.23383c-0.37404,0.82665 -0.88759,1.38175 -1.66066,1.81532c-0.70952,0.39534 -1.3092,0.52425 -2.20056,0.46849c-0.93379,-0.0587 -1.20713,-0.15684 -1.60447,-0.57417c-0.619,-0.64587 -0.5624,-1.54936 0.11689,-2.12341c0.41355,-0.3428 0.76659,-0.42792 1.44247,-0.3384c0.62133,0.08575 0.85879,-0.00131 1.09261,-0.38703c0.41286,-0.68388 -0.03394,-1.79283 -0.91405,-2.27412c-0.22922,-0.11944 -0.39119,-0.15503 -0.91806,-0.19768c-0.61821,-0.0429 -0.64893,-0.03894 -1.13767,0.15857c-0.65178,0.26536 -1.53889,1.02597 -1.9164,1.63923c-0.57724,0.94654 -0.80615,2.05122 -0.63058,3.03172c0.29733,1.68322 1.39887,2.92285 3.1116,3.51672c0.72597,0.24525 2.01087,0.33441 2.84903,0.1916c1.95368,-0.33337 3.42751,-1.2116 4.61131,-2.73724c1.46527,-1.89586 1.95353,-4.45635 1.3192,-6.89985c-0.29317,-1.12873 -0.75553,-2.01342 -1.64082,-3.12234c-1.27236,-1.58644 -2.13553,-3.10185 -2.6768,-4.69238c-1.06773,-3.13129 -0.82705,-5.89775 0.74768,-8.66908c1.17965,-2.08012 3.02947,-3.46209 5.29882,-3.95627c1.37849,-0.29412 3.06611,-0.12829 4.34851,0.43571c1.02246,0.44853 1.80013,1.00188 2.53505,1.82022c1.0347,1.14974 1.66595,2.49681 1.88726,4.04686c0.11023,0.78109 0.00181,2.16818 -0.22796,2.84651c-0.52106,1.54117 -1.67129,2.75853 -3.12283,3.31554c-0.68857,0.26891 -1.28488,0.34933 -2.1334,0.29045c-1.15198,-0.07385 -1.94042,-0.38433 -2.73392,-1.06058c-1.0463,-0.89476 -1.57284,-2.25892 -1.36726,-3.55402c0.18167,-1.12623 0.97996,-2.36194 1.71305,-2.6582c0.32568,-0.12965 0.98319,-0.12666 1.24794,0.00742c0.5295,0.26816 0.85488,0.84494 0.81324,1.44496c-0.02355,0.33941 -0.13044,0.56342 -0.57108,1.20883c-0.3254,0.4768 -0.27521,0.89441 0.16708,1.27832c0.42453,0.37659 1.27701,0.46619 1.85564,0.20184c0.41516,-0.19044 0.87096,-0.61556 1.08702,-1.00861c0.46184,-0.86319 0.40764,-2.18849 -0.14303,-3.29247c-1.56556,-3.15366 -5.72904,-3.27203 -7.82869,-0.22044c-0.3185,0.46511 -0.6189,1.10807 -0.88655,1.8934c-0.19063,0.55315 -0.21975,0.70947 -0.28241,1.61254c-0.06796,1.06713 -0.03174,1.42287 0.26126,2.46633c0.52403,1.83902 1.85675,3.52099 3.57893,4.50528c1.25371,0.71427 2.1477,0.99554 3.48109,1.08806c0.85459,0.0593 1.21554,0.03562 2.33022,-0.14282c1.17655,-0.19241 2.15386,-0.23422 3.42058,-0.14633c1.27884,0.08873 1.95261,0.20857 3.0073,0.54362c2.06822,0.64899 3.46479,1.58631 4.84204,3.24093c0.28681,0.34268 0.68181,0.88165 0.87334,1.19335c0.63451,1.03671 1.14446,2.55198 1.23678,3.67895c0.09359,1.10879 -0.05215,2.24361 -0.40598,3.21783z"/></g></g></svg>