<svg version="1.1" xmlns="http://www.w3.org/2000/svg" xmlns:xlink="http://www.w3.org/1999/xlink" width="36.68297" height="34.05749" viewBox="0,0,36.68297,34.05749"><g transform="translate(-231.24849,-232.60225)"><g fill="#000000" stroke="#000000" stroke-width="1.5" stroke-miterlimit="10"><path d="M248.77456,233.47081c2.80594,-0.48439 5.47274,0.53249 7.15833,2.73839c0.75698,0.98259 1.12433,1.79032 1.38438,3.02907c0.40561,1.93843 0.06918,3.61717 -1.00093,5.01185c-0.54191,0.70407 -0.98553,1.06942 -1.81269,1.48007c-1.04008,0.51461 -1.87281,0.65077 -2.97441,0.48552c-2.17058,-0.33292 -3.71172,-2.00761 -3.72782,-4.04834c-0.00311,-0.82332 0.40108,-1.90637 0.98933,-2.62631c0.62952,-0.77389 1.59555,-0.92782 2.28045,-0.36979c0.67957,0.54711 0.71949,1.50121 0.10394,2.23447c-0.12913,0.15094 -0.27553,0.40498 -0.31782,0.56761c-0.06477,0.24122 -0.05741,0.32552 0.05988,0.56573c0.17327,0.35486 0.51071,0.589 0.9826,0.68311c1.20685,0.24233 2.33494,-0.67359 2.54643,-2.06821c0.11013,-0.72987 -0.15589,-1.91162 -0.58648,-2.64115c-0.56705,-0.95362 -1.29498,-1.55825 -2.27546,-1.89083c-0.7503,-0.24889 -1.34472,-0.31699 -2.07384,-0.21789c-0.45159,0.05824 -0.59062,0.10584 -1.27304,0.43905c-0.63329,0.30922 -0.83275,0.4269 -1.14242,0.70656c-1.63596,1.46815 -2.45364,4.04445 -1.9993,6.29037c0.56628,2.76595 2.47493,4.94406 5.16701,5.87423c1.47065,0.50566 2.4618,0.56934 4.51867,0.28168c4.10561,-0.57811 7.72982,0.33638 10.10009,2.54601c1.13937,1.05955 1.68156,1.7684 2.3,3.03498c0.63977,1.31026 0.84906,2.16813 0.87117,3.57038c0.04664,2.83714 -1.59006,5.53614 -4.10138,6.76237c-2.82797,1.38084 -6.50082,0.72673 -8.51751,-1.52032c-0.4598,-0.51244 -0.95652,-1.43279 -1.12698,-2.08651c-0.51644,-1.99925 0.07812,-3.96629 1.60095,-5.25074c0.33418,-0.28487 0.5118,-0.39188 1.0957,-0.64994c0.60574,-0.26873 0.77193,-0.31607 1.21794,-0.35806c0.90293,-0.08931 1.64042,0.07795 2.40239,0.53074c0.6971,0.41686 1.10853,0.87178 1.50585,1.67164c0.41598,0.83808 0.46763,1.12387 0.30483,1.67663c-0.24992,0.85898 -1.0607,1.26163 -1.89746,0.9603c-0.50363,-0.18679 -0.75384,-0.45 -1.01419,-1.08011c-0.23635,-0.58098 -0.43046,-0.74312 -0.88141,-0.7528c-0.79869,-0.01568 -1.53575,0.92566 -1.5126,1.92851c0.01115,0.25823 0.06129,0.4163 0.28775,0.89393c0.2719,0.55686 0.29069,0.58149 0.70607,0.90603c0.55566,0.43183 1.65788,0.81989 2.37774,0.84026c1.10834,0.02674 2.17951,-0.32726 2.94093,-0.96949c1.30915,-1.09898 1.83208,-2.67271 1.49019,-4.45294c-0.15052,-0.75135 -0.71565,-1.90874 -1.25834,-2.56325c-1.2654,-1.52537 -2.76281,-2.36277 -4.67593,-2.62533c-2.37447,-0.32125 -4.83613,0.53591 -6.63526,2.30684c-0.831,0.81818 -1.36607,1.66089 -1.8839,2.98198c-0.7379,1.89505 -1.61884,3.4002 -2.72576,4.66411c-2.17815,2.49012 -4.69442,3.66468 -7.88183,3.68628c-2.39126,0.01823 -4.51291,-0.89298 -6.07539,-2.61135c-0.94386,-1.04684 -1.64391,-2.59134 -1.79654,-3.98395c-0.12269,-1.10975 -0.03222,-2.0599 0.30912,-3.1055c0.47849,-1.4709 1.32958,-2.69103 2.5614,-3.6576c0.62137,-0.48595 1.8769,-1.08548 2.57925,-1.22559c1.59525,-0.31918 3.2246,0.06842 4.43266,1.0471c0.57712,0.46192 0.94488,0.93816 1.31808,1.70248c0.51194,1.03462 0.63719,1.87268 0.4482,2.89798c-0.25186,1.35348 -1.1701,2.49147 -2.39452,2.96087c-1.06622,0.40568 -2.53551,0.33206 -3.15858,-0.15474c-0.2751,-0.21725 -0.60121,-0.7882 -0.61744,-1.08452c-0.03246,-0.59264 0.30441,-1.16279 0.84489,-1.42669c0.30573,-0.14928 0.55317,-0.16869 1.33243,-0.10972c0.57562,0.04346 0.91221,-0.20878 1.02359,-0.78376c0.11392,-0.55594 -0.23465,-1.33904 -0.75286,-1.70802c-0.37248,-0.26435 -0.96853,-0.44658 -1.41695,-0.43722c-0.97847,0.03154 -2.09918,0.74102 -2.78001,1.76984c-1.94865,2.93246 0.03023,6.59751 3.72279,6.89042c0.56204,0.04333 1.26907,-0.01793 2.08302,-0.17873c0.57437,-0.11143 0.72431,-0.16436 1.53776,-0.56155c0.95819,-0.47462 1.24818,-0.68383 2.00541,-1.45923c1.33075,-1.37321 2.12121,-3.36829 2.11273,-5.35189c-0.00814,-1.44288 -0.21146,-2.35775 -0.79792,-3.55882c-0.37587,-0.76978 -0.57682,-1.07055 -1.28861,-1.94674c-0.75482,-0.92279 -1.27961,-1.74831 -1.83674,-2.88932c-0.56247,-1.15193 -0.79551,-1.79537 -1.03259,-2.87631c-0.47187,-2.11567 -0.35825,-3.79379 0.38626,-5.81376c0.1534,-0.41971 0.42272,-1.03125 0.59693,-1.35295c0.58066,-1.0678 1.63806,-2.26697 2.56795,-2.91032c0.91351,-0.63536 1.9692,-1.07646 2.98983,-1.25704z"/></g></g></svg>