<svg version="1.1" xmlns="http://www.w3.org/2000/svg" xmlns:xlink="http://www.w3.org/1999/xlink" width="34.59284" height="33.65" viewBox="0,0,34.59284,33.65"><g transform="translate(-131.39405,-83.33668)"><g fill-rule="evenodd" stroke-width="1.5" stroke-linecap="round" stroke-linejoin="round"><path d="M149.20793,87.23668c10.5,1 16.5,8 16,29h-23c0,-9 10,-6.5 8,-21" fill="#000000" stroke="#000000" stroke-miterlimit="10"/><path d="M151.20793,95.23668c0.38,2.91 -5.55,7.37 -8,9c-3,2 -2.82,4.34 -5,4c-1.042,-0.94 1.41,-3.04 0,-3c-1,0 0.19,1.23 -1,2c-1,0 -4,1 -4,-4c0,-2 6,-12 6,-12c0,0 -7.5275,-6.475 -7.0413,-7.15c0.4863,-0.675 8.9863,4.45 9.0413,3.65c-0.73,-0.994 -0.5,-2 -0.5,-3c1,-1 3,2.5 3,2.5h2c0,0 0.78,-1.992 2.5,-3c1,0 1,3 1,3" fill="#000000" stroke="#000000" stroke-miterlimit="10"/><path d="M136.70793,102.73668c0,0.27614 -0.22386,0.5 -0.5,0.5c-0.27614,0 -0.5,-0.22386 -0.5,-0.5c0,-0.27614 0.22386,-0.5 0.5,-0.5c0.27614,0 0.5,0.22386 0.5,0.5z" fill="#000000" stroke="#ffffff" stroke-miterlimit="10"/><path d="M142.14093,92.98668c-0.41421,0.71742 -0.94386,1.18707 -1.183,1.049c-0.23914,-0.13807 -0.09721,-0.83158 0.317,-1.549c0.41421,-0.71742 0.94386,-1.18707 1.183,-1.049c0.23914,0.13807 0.09721,0.83158 -0.317,1.549z" fill="#000000" stroke="#ffffff" stroke-miterlimit="10"/><path d="M152.26793,87.97821c3.4,0.51119 6.82,2.62475 9.19,7.03864c2.37,4.4139 3.75,11.08881 3.25,20.97831l-0.05,0.49153h-2.25l0.05,-0.49153c0.5,-9.77153 -0.5,-15.71898 -2.75,-19.90678c-2.25,-4.1878 -4.75,-5.65254 -7.9,-6.63559l-0.5,-0.14746l0.45,-1.42542z" fill="#ffffff" stroke="none" stroke-miterlimit="4"/></g></g></svg>