<svg version="1.1" xmlns="http://www.w3.org/2000/svg" xmlns:xlink="http://www.w3.org/1999/xlink" width="34.69337" height="35.17366" viewBox="0,0,34.69337,35.17366"><g transform="translate(-132.65333,-82.94966)"><g><g fill="#000000" stroke="#000000" stroke-width="1.5" stroke-linecap="butt" stroke-miterlimit="10"><path d="M134.2523,91.78236c1.15543,-0.58511 3.41599,-0.52699 5.25701,-0.48808c1.49272,0.03154 3.66071,1.20181 4.79221,2.18735c2.52704,2.20103 1.19426,5.21187 -0.89801,6.27139c-2.09227,1.05953 -2.08839,-1.01995 -5.2463,-2.82623c-4.04374,-2.31296 -5.99718,-4.08489 -3.90491,-5.14443z"/><path d="M161.84283,96.92679c-3.15791,1.80628 -3.15403,3.88576 -5.2463,2.82623c-2.09227,-1.05952 -3.42505,-4.07036 -0.89801,-6.27139c1.1315,-0.98554 3.29949,-2.15581 4.79221,-2.18735c1.84102,-0.03891 4.10158,-0.09703 5.25701,0.48808c2.09227,1.05954 0.13883,2.83147 -3.90491,5.14443z"/></g><path d="M153.46718,98.57296c2.62799,1.04593 9.95125,3.69904 6.23366,9.76509c-2.67784,4.36948 -9.83882,8.91882 -9.83882,8.91882c0,0 -7.04773,-3.72011 -9.53667,-8.91882c-3.15917,-6.59865 3.3482,-8.71915 5.97618,-9.76509z" fill="#000000" stroke="#000000" stroke-width="1.5" stroke-linecap="round" stroke-miterlimit="4"/><path d="M160.12231,93.72516c-3.39765,3.16526 -3.39347,6.80926 -5.64457,4.95258c-2.2511,-1.85667 -3.68505,-7.13275 -0.96618,-10.98975c1.21741,-1.72702 3.54998,-3.77774 5.15601,-3.83302c1.98078,-0.06818 4.41295,-0.17004 5.65609,0.85529c2.2511,1.85667 0.14939,4.96174 -4.20135,9.01489z" fill="#000000" stroke="#000000" stroke-width="1.5" stroke-linecap="butt" stroke-miterlimit="10"/><path d="M135.6481,84.5947c1.24314,-1.02533 3.67531,-0.92348 5.65609,-0.85529c1.60604,0.05527 3.93861,2.106 5.15601,3.83302c2.71888,3.85701 1.28492,9.13308 -0.96618,10.98975c-2.2511,1.85667 -2.24693,-1.78733 -5.64457,-4.95258c-4.35072,-4.05315 -6.45245,-7.15821 -4.20135,-9.0149z" fill="#000000" stroke="#000000" stroke-width="1.5" stroke-linecap="butt" stroke-miterlimit="10"/><path d="M138.12864,94.51713c0,-4.02872 5.31286,-7.29463 11.86661,-7.29463c6.55375,0 11.86661,3.26592 11.86661,7.29463c0,4.02872 -5.31286,17.77423 -11.86661,17.77423c-6.55375,0 -11.86661,-13.74553 -11.86661,-17.77423z" fill="#000000" stroke="#000000" stroke-width="1.5" stroke-linecap="butt" stroke-miterlimit="10"/><path d="M149.92312,107.0138v3.65386" fill="none" stroke="#ffffff" stroke-width="1.5" stroke-linecap="round" stroke-miterlimit="10"/><path d="M139.63928,97.31802c0.56986,-2.11579 4.40066,-5.7785 7.16565,-1.93045c2.16708,3.01591 -2.12675,4.96254 -3.06896,7.60548c-0.88927,2.49439 -0.70926,2.30098 -0.70926,2.30098" fill="none" stroke="#ffffff" stroke-width="1.5" stroke-linecap="round" stroke-miterlimit="10"/><path d="M156.92751,105.18473c0,0 0.18,0.1934 -0.70925,-2.301c-0.94222,-2.64293 -5.23604,-4.58957 -3.06897,-7.60546c2.765,-3.84805 6.5958,0.08839 7.16566,2.20418" fill="none" stroke="#ffffff" stroke-width="1.5" stroke-linecap="round" stroke-miterlimit="10"/><path d="M143.73799,106.1396h12.44971" fill="none" stroke="#ffffff" stroke-width="1.5" stroke-linecap="round" stroke-miterlimit="10"/><path d="M139.05071,94.92428c0,-3.71567 4.90004,-6.72781 10.94454,-6.72781c6.04451,0 10.94454,3.01215 10.94454,6.72781c0,3.71567 -4.90004,16.39312 -10.94454,16.39312c-6.04451,0 -10.94454,-12.67746 -10.94454,-16.39312z" fill="none" stroke="#ffffff" stroke-width="1" stroke-linecap="butt" stroke-miterlimit="10"/></g></g></svg>