<svg version="1.1" xmlns="http://www.w3.org/2000/svg" xmlns:xlink="http://www.w3.org/1999/xlink" width="34.69337" height="35.17366" viewBox="0,0,34.69337,35.17366"><g transform="translate(-222.65332,-162.94965)"><g stroke="#000000" stroke-width="1.5"><g fill="#ffffff" stroke-linecap="butt" stroke-miterlimit="10"><path d="M224.25229,171.78236c1.15543,-0.58511 3.41599,-0.52699 5.25701,-0.48808c1.49272,0.03154 3.66071,1.20181 4.79221,2.18735c2.52704,2.20103 1.19426,5.21187 -0.89801,6.27139c-2.09227,1.05953 -2.08839,-1.01995 -5.2463,-2.82623c-4.04374,-2.31296 -5.99718,-4.08489 -3.90491,-5.14443z"/><path d="M251.84282,176.92679c-3.15791,1.80628 -3.15403,3.88576 -5.2463,2.82623c-2.09227,-1.05952 -3.42505,-4.07036 -0.89801,-6.27139c1.1315,-0.98554 3.29949,-2.15581 4.79221,-2.18735c1.84102,-0.03891 4.10158,-0.09703 5.25701,0.48808c2.09227,1.05954 0.13883,2.83147 -3.90491,5.14443z"/></g><path d="M243.46717,178.57296c2.62799,1.04593 9.95125,3.69904 6.23366,9.76509c-2.67784,4.36948 -9.83882,8.91882 -9.83882,8.91882c0,0 -7.04773,-3.72011 -9.53667,-8.91882c-3.15917,-6.59865 3.3482,-8.71915 5.97618,-9.76509z" fill="#ffffff" stroke-linecap="round" stroke-miterlimit="4"/><path d="M250.1223,173.72516c-3.39765,3.16526 -3.39347,6.80926 -5.64457,4.95258c-2.2511,-1.85667 -3.68505,-7.13275 -0.96618,-10.98975c1.21741,-1.72702 3.54998,-3.77774 5.15601,-3.83302c1.98078,-0.06818 4.41295,-0.17004 5.65609,0.85529c2.2511,1.85667 0.14939,4.96174 -4.20135,9.01489z" fill="#ffffff" stroke-linecap="butt" stroke-miterlimit="10"/><path d="M225.64809,164.5947c1.24314,-1.02533 3.67531,-0.92348 5.65609,-0.85529c1.60604,0.05527 3.93861,2.106 5.15601,3.83302c2.71888,3.85701 1.28492,9.13308 -0.96618,10.98975c-2.2511,1.85667 -2.24693,-1.78733 -5.64457,-4.95258c-4.35072,-4.05315 -6.45245,-7.15821 -4.20135,-9.0149z" fill="#ffffff" stroke-linecap="butt" stroke-miterlimit="10"/><path d="M228.12863,174.51713c0,-4.02872 5.31286,-7.29463 11.86661,-7.29463c6.55375,0 11.86661,3.26592 11.86661,7.29463c0,4.02872 -5.31286,17.77423 -11.86661,17.77423c-6.55375,0 -11.86661,-13.74553 -11.86661,-17.77423z" fill="#ffffff" stroke-linecap="butt" stroke-miterlimit="10"/><path d="M239.92311,191.49415v-4.48035" fill="none" stroke-linecap="round" stroke-miterlimit="10"/><path d="M229.21397,177.83457c0.56986,-2.11579 4.82598,-6.29506 7.59097,-2.44701c2.16708,3.01591 -2.12675,4.96254 -3.06896,7.60548c-0.88927,2.49439 -0.91588,3.95396 -0.91588,3.95396" fill="none" stroke-linecap="round" stroke-miterlimit="10"/><path d="M247.13412,186.83771c0,0 -0.02662,-1.45958 -0.91587,-3.95398c-0.94222,-2.64293 -5.23604,-4.58957 -3.06897,-7.60546c2.765,-3.84805 7.02112,0.33122 7.59098,2.44701" fill="none" stroke-linecap="round" stroke-miterlimit="10"/><path d="M232.60156,186.1396h14.20599" fill="none" stroke-linecap="round" stroke-miterlimit="10"/></g></g></svg>