<svg version="1.1" xmlns="http://www.w3.org/2000/svg" xmlns:xlink="http://www.w3.org/1999/xlink" width="32.0051" height="34.00877" viewBox="0,0,32.0051,34.00877"><g transform="translate(-224.02937,-163.9017)"><g stroke="#000000" stroke-width="1.5"><path d="" fill="none" fill-rule="evenodd" stroke-linecap="round" stroke-linejoin="miter" stroke-miterlimit="10"/><path d="" fill="none" fill-rule="evenodd" stroke-linecap="round" stroke-linejoin="miter" stroke-miterlimit="4"/><g stroke-miterlimit="10"><g fill-rule="nonzero" stroke-linejoin="miter"><path d="M229.83485,195.01567l3.45452,-21.66457l13.35787,0.30349l3.56542,21.36108z" fill="#ffffff" stroke-linecap="butt"/><path d="M249.39689,192.12551h-18.58429" fill="none" stroke-linecap="round"/></g><path d="M229.23888,194.34951h21.52225v2.81096h-21.52225z" fill="#ffffff" fill-rule="evenodd" stroke-linecap="butt" stroke-linejoin="round"/><g fill="none" fill-rule="nonzero" stroke-linecap="round" stroke-linejoin="miter"><path d="M231.90763,174.09372h16.23753"/></g></g><path d="M231.87547,174.12291l8.12745,-6.70477l8.16912,6.59359" fill="#ffffff" fill-rule="evenodd" stroke-linecap="butt" stroke-linejoin="round" stroke-miterlimit="4"/><g><path d="M224.77937,169.98957l5.10777,-5.10777l7.5743,7.5743l-2.44251,2.44251l6.254,6.254l-2.66953,2.66954z" fill="#ffffff" fill-rule="nonzero" stroke-linecap="butt" stroke-linejoin="round" stroke-miterlimit="10"/><path d="M255.28446,189.94661l-5.10777,5.10776l-7.57427,-7.57427l2.44251,-2.44251l-6.25401,-6.25401l2.66953,-2.66953z" fill="#ffffff" fill-rule="nonzero" stroke-linecap="butt" stroke-linejoin="round" stroke-miterlimit="10"/><path d="M249.88277,164.6517l5.10777,5.10777l-7.5743,7.57429l-2.44252,-2.44252l-6.25399,6.25399l-2.66954,-2.66954z" fill="#ffffff" fill-rule="nonzero" stroke-linecap="butt" stroke-linejoin="round" stroke-miterlimit="10"/><path d="M229.98958,195.22064l-5.10776,-5.10777l7.57428,-7.57428l2.4425,2.4425l6.25399,-6.25399l2.66954,2.66954z" fill="#ffffff" fill-rule="nonzero" stroke-linecap="butt" stroke-linejoin="round" stroke-miterlimit="10"/><path d="M244.09418,175.79286c2.26926,2.26926 2.26927,5.94849 -0.00001,8.21776c-2.26928,2.26928 -5.94847,2.26927 -8.21775,-0.00001c-2.26926,-2.26926 -2.26928,-5.94847 0,-8.21774c2.26928,-2.26928 5.94848,-2.26929 8.21775,-0.00001z" fill="#ffffff" fill-rule="nonzero" stroke-linecap="butt" stroke-linejoin="round" stroke-miterlimit="10"/><path d="M241.7394,178.14763l-3.62681,3.62681M238.11257,178.14763l3.62682,3.62682" fill="none" fill-rule="evenodd" stroke-linecap="round" stroke-linejoin="miter" stroke-miterlimit="4"/></g></g></g></svg>