<svg version="1.1" xmlns="http://www.w3.org/2000/svg" xmlns:xlink="http://www.w3.org/1999/xlink" width="32.00509" height="33.99696" viewBox="0,0,32.00509,33.99696"><g transform="translate(-223.92344,-163.9266)"><g><g stroke-width="1.5" stroke-miterlimit="10"><g fill-rule="nonzero" stroke-linejoin="miter"><path d="M229.83484,195.02876l3.45452,-21.66457l13.35787,0.30349l3.56542,21.36108z" fill="#000000" stroke="#000000" stroke-linecap="butt"/><path d="M249.39689,192.1386h-18.58429" fill="none" stroke="#ffffff" stroke-linecap="round"/></g><path d="M229.23887,194.3626h21.52225v2.81096h-21.52225z" fill="#000000" fill-rule="evenodd" stroke="#000000" stroke-linecap="butt" stroke-linejoin="round"/><g fill="none" fill-rule="nonzero" stroke="#ffffff" stroke-linecap="round" stroke-linejoin="miter"><path d="M231.90763,174.10681h16.23753"/></g></g><path d="M229.75562,194.37641h20.50473" fill="none" fill-rule="nonzero" stroke="#ffffff" stroke-width="1" stroke-linecap="round" stroke-linejoin="miter" stroke-miterlimit="10"/><path d="" fill="none" fill-rule="evenodd" stroke="#000000" stroke-width="1.5" stroke-linecap="round" stroke-linejoin="miter" stroke-miterlimit="10"/><path d="" fill="none" fill-rule="evenodd" stroke="#000000" stroke-width="1.5" stroke-linecap="round" stroke-linejoin="miter" stroke-miterlimit="4"/><path d="M231.87547,174.12292l8.12745,-6.70477l8.16912,6.59359" fill="#000000" fill-rule="evenodd" stroke="#000000" stroke-width="1.5" stroke-linecap="butt" stroke-linejoin="round" stroke-miterlimit="4"/><g><g fill="#000000" fill-rule="nonzero" stroke-linecap="butt" stroke-linejoin="round" stroke-miterlimit="10"><path d="M224.67344,170.01448l5.10777,-5.10777l7.5743,7.5743l-2.44251,2.44251l6.254,6.254l-2.66953,2.66954z" stroke="#000000" stroke-width="1.5"/><path d="M255.17853,189.97152l-5.10777,5.10776l-7.57427,-7.57427l2.44251,-2.44251l-6.25401,-6.25401l2.66953,-2.66953z" stroke="#000000" stroke-width="1.5"/><path d="M249.77684,164.6766l5.10777,5.10777l-7.5743,7.57429l-2.44252,-2.44252l-6.25399,6.25399l-2.66954,-2.66954z" stroke="#000000" stroke-width="1.5"/><path d="M229.88365,195.24559l-5.10776,-5.10777l7.57428,-7.57428l2.4425,2.4425l6.25399,-6.25399l2.66954,2.66954z" stroke="#000000" stroke-width="1.5"/><path d="M249.79688,165.2115l4.5038,4.55966l-7.00106,7.0274l-2.52002,-2.42048l-4.96568,4.97788l-2.06264,-2.1063z" stroke="#ffffff" stroke-width="1"/><path d="M225.23636,169.99055l4.55967,-4.50379l7.0274,7.00106l-2.42048,2.52003l4.97788,4.96568l-2.1063,2.06264z" stroke="#ffffff" stroke-width="1"/><path d="M229.85008,194.71746l-4.5038,-4.55966l7.00106,-7.02741l2.52003,2.42048l4.96568,-4.97788l2.06264,2.1063z" stroke="#ffffff" stroke-width="1"/><path d="M254.63287,189.99077l-4.55967,4.50379l-7.02741,-7.00106l2.42048,-2.52003l-4.97788,-4.96568l2.10631,-2.06264z" stroke="#ffffff" stroke-width="1"/></g><g stroke="#ffffff" stroke-width="1.5"><path d="M244.09418,175.79287c2.26926,2.26926 2.26927,5.94849 -0.00001,8.21776c-2.26928,2.26928 -5.94847,2.26927 -8.21775,-0.00001c-2.26926,-2.26926 -2.26928,-5.94847 0,-8.21774c2.26928,-2.26928 5.94848,-2.26929 8.21775,-0.00001z" fill="#000000" fill-rule="nonzero" stroke-linecap="butt" stroke-linejoin="round" stroke-miterlimit="10"/><path d="M238.11259,181.7745l3.62681,-3.62681M241.73939,181.77451l-3.62682,-3.62682" fill="none" fill-rule="evenodd" stroke-linecap="round" stroke-linejoin="miter" stroke-miterlimit="4"/></g></g></g></g></svg>