<svg version="1.1" xmlns="http://www.w3.org/2000/svg" xmlns:xlink="http://www.w3.org/1999/xlink" width="37.18211" height="37.18215" viewBox="0,0,37.18211,37.18215"><g transform="translate(-221.40894,-161.40893)"><g><g stroke-width="1.5" stroke-miterlimit="10"><g fill-rule="nonzero" stroke-linejoin="miter"><path d="M229.83484,195.02876l3.45452,-21.66457l13.35787,0.30349l3.56542,21.36108z" fill="#000000" stroke="#000000" stroke-linecap="butt"/><path d="M249.39689,192.1386h-18.58429" fill="none" stroke="#ffffff" stroke-linecap="round"/></g><path d="M229.23887,194.3626h21.52225v2.81096h-21.52225z" fill="#000000" fill-rule="evenodd" stroke="#000000" stroke-linecap="butt" stroke-linejoin="round"/><g fill="none" fill-rule="nonzero" stroke="#ffffff" stroke-linecap="round" stroke-linejoin="miter"><path d="M231.90763,174.10681h16.23753"/></g></g><path d="M229.75562,194.37641h20.50473" fill="none" fill-rule="nonzero" stroke="#ffffff" stroke-width="1" stroke-linecap="round" stroke-linejoin="miter" stroke-miterlimit="10"/><path d="" fill="none" fill-rule="evenodd" stroke="#000000" stroke-width="1.5" stroke-linecap="round" stroke-linejoin="miter" stroke-miterlimit="10"/><path d="" fill="none" fill-rule="evenodd" stroke="#000000" stroke-width="1.5" stroke-linecap="round" stroke-linejoin="miter" stroke-miterlimit="4"/><path d="M231.87547,174.12292l8.12745,-6.70477l8.16912,6.59359" fill="#000000" fill-rule="evenodd" stroke="#000000" stroke-width="1.5" stroke-linecap="butt" stroke-linejoin="round" stroke-miterlimit="4"/><g><g fill="#000000" fill-rule="nonzero" stroke-linecap="butt" stroke-linejoin="round" stroke-miterlimit="10"><path d="M222.15894,183.68416v-7.22348h10.71168v3.45423l8.84449,0l0.00001,3.77529z" stroke="#000000" stroke-width="1.5"/><path d="M257.84106,176.22556l-0.00001,7.22347h-10.71164v-3.45423h-8.84451v-3.77529z" stroke="#000000" stroke-width="1.5"/><path d="M236.13528,162.15893l7.22348,0l-0.00001,10.71167h-3.45424v8.84448h-3.7753z" stroke="#000000" stroke-width="1.5"/><path d="M243.68421,197.84107l-7.22347,-0.00001l0,-10.71165h3.45422v-8.84448h3.7753z" stroke="#000000" stroke-width="1.5"/><path d="M236.52768,162.52299l6.40883,0.0395l0.01863,9.91962l-3.49346,0.07039l0.00863,7.03116l-2.94789,-0.03087z" stroke="#ffffff" stroke-width="1"/><path d="M222.54007,183.2692l0.03951,-6.40883l9.91962,-0.01863l0.07039,3.49347l7.03116,-0.00863l-0.03087,2.94789z" stroke="#ffffff" stroke-width="1"/><path d="M243.28702,197.49137l-6.40883,-0.0395l-0.01863,-9.91963l3.49347,-0.07039l-0.00863,-7.03116l2.94789,0.03087z" stroke="#ffffff" stroke-width="1"/><path d="M257.46883,176.62501l-0.03951,6.40883l-9.91963,0.01863l-0.07039,-3.49347l-7.03116,0.00863l0.03088,-2.94789z" stroke="#ffffff" stroke-width="1"/></g><g stroke="#ffffff" stroke-width="1.5"><path d="M239.97742,174.03756c3.20922,0 5.81083,2.6016 5.81083,5.81084c0,3.20925 -2.60159,5.81082 -5.81083,5.81082c-3.20922,0 -5.81083,-2.60158 -5.81082,-5.81082c0,-3.20925 2.60158,-5.81084 5.81082,-5.81083z" fill="#000000" fill-rule="nonzero" stroke-linecap="butt" stroke-linejoin="round" stroke-miterlimit="10"/><path d="M239.97745,182.49684v-5.12908M242.54199,179.93231h-5.1291" fill="none" fill-rule="evenodd" stroke-linecap="round" stroke-linejoin="miter" stroke-miterlimit="4"/></g></g></g></g></svg>