<svg version="1.1" xmlns="http://www.w3.org/2000/svg" xmlns:xlink="http://www.w3.org/1999/xlink" width="35.59538" height="33.50499" viewBox="0,0,35.59538,33.50499"><g transform="translate(-222.20233,-163.24751)"><g fill-rule="evenodd" stroke="#000000" stroke-width="1.5" stroke-linecap="round" stroke-miterlimit="10"><path d="" fill="none" stroke-linejoin="miter"/><path d="M228.38185,181.43877c0,0 4.84831,-6.17936 11.7927,-6.35872c6.94141,-0.1793 11.74313,6.35874 11.74313,6.35874" fill="#ffffff" stroke-linejoin="round"/><path d="M227.42863,193.5671v-3.65914l-4.47629,-7.87769c0,0 0.26218,-2.72214 3.02664,-2.95749c1.51113,-0.12865 4.94344,2.50427 7.43726,2.13539c2.07288,-0.30661 3.97006,-2.98603 6.72119,-3.01098c2.46749,-0.02238 4.80843,2.59229 6.66922,2.83457c2.72226,0.35445 5.33838,-1.92351 6.99127,-1.82015c2.76259,0.17275 3.2498,2.81867 3.2498,2.81867l-4.0552,7.8777v3.65914c-6.03192,3.24717 -19.53198,3.24717 -25.5639,0" fill="#ffffff" stroke-linejoin="round"/><path d="M242.25617,174.93111l-4.51226,0.02071c0,0 0.37004,-1.18541 0.48661,-3.78801c-2.74526,0.1119 -3.68132,0.45429 -3.68132,0.45429l0.0207,-4.23425c0.00397,0.00113 1.10673,0.31371 3.66199,0.43931c-0.115,-2.81618 -0.48798,-3.82565 -0.48798,-3.82565l4.51226,0.0207c-0.00122,0.00404 -0.34348,1.18973 -0.47353,3.82026c2.32025,-0.11267 3.64754,-0.45461 3.64754,-0.45461l0.02071,4.23425c0,0 -1.15412,-0.33807 -3.68502,-0.45214c0.11358,2.39295 0.4903,3.76515 0.4903,3.76515z" fill="#ffffff" stroke-linejoin="round"/><path d="M227.42863,190.31993c6.03191,-2.78329 19.53198,-2.78329 25.56389,0M227.42863,193.5671c6.03191,-2.78329 19.53198,-2.78329 25.56389,0" fill="none" stroke-linejoin="round"/><path d="M227.42863,190.31993c6.03191,-2.78329 19.53198,-2.78329 25.56389,0M227.42863,193.5671c6.03191,-2.78329 19.53198,-2.78329 25.56389,0" fill="none" stroke-linejoin="round"/></g></g></svg>