<svg version="1.1" xmlns="http://www.w3.org/2000/svg" xmlns:xlink="http://www.w3.org/1999/xlink" width="37.92487" height="37.88441" viewBox="0,0,37.92487,37.88441"><g transform="translate(-131.03756,-81.02857)"><g><path d="M149.9422,84.97946c12.07803,1.15029 18.97977,9.20231 18.40462,33.35838h-26.45665c0,-10.3526 11.50289,-7.47688 9.20231,-24.15607" fill="#2b2b3c" fill-rule="evenodd" stroke="#303042" stroke-linecap="round" stroke-linejoin="miter" stroke-miterlimit="10"/><path d="M152.24278,94.18177c0.44224,3.34881 -6.38748,8.47605 -9.20231,10.3526c-3.45087,2.30058 -3.24289,4.99558 -5.75145,4.60116c-1.19828,-1.08589 1.62585,-3.49406 0,-3.45087c-1.15029,0 0.21549,1.41684 -1.15029,2.30058c-1.15029,0 -4.60479,1.15029 -4.60116,-4.60116c0,-2.30058 6.90173,-13.80347 6.90173,-13.80347c0,0 2.16929,-2.188 2.30058,-4.02601c-0.83516,-1.14381 -0.57514,-2.30058 -0.57514,-3.45087c1.15029,-1.15029 3.45087,2.87572 3.45087,2.87572h2.30058c0,0 0.89927,-2.29129 2.87572,-3.45087c1.15029,0 1.15029,3.45087 1.15029,3.45087" fill="#2b2b3c" fill-rule="evenodd" stroke="#303042" stroke-linecap="round" stroke-linejoin="round" stroke-miterlimit="10"/><path d="M134.4133,102.80894c0,-0.31764 0.2575,-0.57514 0.57514,-0.57514c0.31764,0 0.57514,0.2575 0.57514,0.57514c0,0.31764 -0.2575,0.57514 -0.57514,0.57514c-0.31764,0 -0.57514,-0.2575 -0.57514,-0.57514z" fill="#2b2b3c" fill-rule="nonzero" stroke="#ffffff" stroke-linecap="round" stroke-linejoin="round" stroke-miterlimit="4"/><path d="M140.81694,91.01847c0.47647,-0.82526 1.08572,-1.36552 1.36081,-1.2067c0.27509,0.15882 0.11184,0.95658 -0.36463,1.78184c-0.47647,0.82526 -1.08572,1.36552 -1.36081,1.2067c-0.27509,-0.15882 -0.11184,-0.95658 0.36463,-1.78184z" fill="#ffffff" fill-rule="nonzero" stroke="#ffffff" stroke-linecap="round" stroke-linejoin="round" stroke-miterlimit="4"/><path d="M141.39299,117.71655c0.15684,-2.06616 0.64283,-3.6262 1.59265,-5.11248c0.26816,-0.41962 1.50957,-1.81673 2.75867,-3.1047c2.2939,-2.36526 3.32878,-3.71171 3.97377,-5.17014c0.51369,-1.16154 0.91954,-2.88494 1.02404,-4.34841l0.09139,-1.27998l-1.27511,1.23671c-1.73579,1.68352 -2.96419,2.70415 -5.08544,4.22529c-1.95555,1.40231 -2.92678,2.30806 -4.21582,3.93159c-0.89174,1.12312 -1.63556,1.59707 -2.51564,1.6029c-0.66174,0.00437 -0.98402,-0.20341 -1.16418,-0.75062l-0.15421,-0.46841l-1.18706,0.04801c-1.44209,0.05833 -2.11198,-0.12531 -2.83287,-0.77659c-0.71191,-0.64317 -1.14045,-1.66248 -1.30481,-3.10357c-0.16073,-1.40925 -0.03073,-2.1006 0.72936,-3.87898c1.3263,-3.10312 5.58916,-10.7658 6.86883,-12.34703c0.416,-0.51404 0.92398,-1.2886 1.12884,-1.72125c0.36965,-0.78071 0.37058,-0.79156 0.12288,-1.43786c-0.13727,-0.35817 -0.28357,-1.23855 -0.32511,-1.95641c-0.07479,-1.29258 -0.07169,-1.30822 0.32163,-1.61759c0.21843,-0.17182 0.5775,-0.3124 0.79794,-0.3124c0.57387,0 1.51771,0.77436 2.41664,1.98271l0.77131,1.0368h0.84336h0.84336l0.31116,-0.61109c0.17114,-0.3361 0.77983,-1.08019 1.35266,-1.65354c0.89902,-0.89984 1.11082,-1.04245 1.5482,-1.04245c0.38538,0 0.59276,0.10228 0.86614,0.42716c0.35052,0.41657 0.67041,1.49541 0.67484,2.27591c0.00334,0.58439 0.14619,0.71015 0.93241,0.82067c7.91669,1.11289 13.05813,5.7243 15.54926,13.94628c1.29195,4.26409 1.87252,8.84336 2.01894,15.92431l0.09142,4.42142h-0.57556h-0.57556l0.06922,-3.59668c0.14383,-7.4738 -0.65257,-13.41767 -2.47081,-18.44065c-1.96658,-5.43276 -5.44474,-9.2881 -9.71821,-10.77207c-0.61234,-0.21263 -2.54855,-0.69277 -2.7937,-0.69277c-0.09607,0 -0.37843,1.16868 -0.30936,1.28044c0.04223,0.06833 0.38045,0.16977 0.75159,0.22543c2.80184,0.42016 5.89999,2.22676 7.71088,4.49638c3.52188,4.41402 4.84523,10.00107 4.84484,20.4544c-0.00009,2.33293 -0.04193,4.87255 -0.09299,5.64361l-0.09284,1.40191h-12.2035h-12.2035l0.09004,-1.18624zM135.78044,103.5961c0.71321,-0.71321 0.20783,-1.94765 -0.79736,-1.94765c-0.59112,0 -1.15029,0.55917 -1.15029,1.15029c0,0.59112 0.55917,1.15029 1.15029,1.15029c0.28015,0 0.57489,-0.13046 0.79736,-0.35293zM141.1437,93.22497c0.829,-0.49453 1.74762,-2.11975 1.74762,-3.09189c0,-0.55445 -0.52728,-1.03663 -1.00509,-0.91911c-0.54157,0.1332 -1.25492,0.89533 -1.73241,1.85087c-0.50023,1.00105 -0.54575,1.69269 -0.13822,2.10022c0.347,0.347 0.62233,0.36162 1.1281,0.05991z" fill="#000000" fill-rule="nonzero" stroke="none" stroke-linecap="butt" stroke-linejoin="miter" stroke-miterlimit="10"/><path d="M147.64162,117.18755c5.75145,-5.75145 13.08454,-6.47038 18.83598,-7.62066l0.14379,0.86272c-5.75145,1.15029 -12.36561,2.15679 -16.96676,6.75795z" fill="#ffffff" fill-rule="nonzero" stroke="#ffffff" stroke-linecap="butt" stroke-linejoin="miter" stroke-miterlimit="10"/><path d="M166.33381,106.25981c-6.38047,0.70671 -14.62169,1.21882 -20.99277,6.03902c2.44436,-3.01951 3.24729,-2.92365 4.1698,-4.45737c4.60116,-1.15029 10.56897,-2.37869 16.5354,-3.30708z" fill="#ffffff" fill-rule="nonzero" stroke="#ffffff" stroke-linecap="butt" stroke-linejoin="miter" stroke-miterlimit="10"/><path d="M152.24278,101.65865c4.98639,-0.39641 8.78158,-1.91542 12.65318,-2.87572v1.15029c-3.57121,0.8813 -6.02772,2.07817 -12.94075,3.16329z" fill="#ffffff" fill-rule="nonzero" stroke="#ffffff" stroke-linecap="butt" stroke-linejoin="miter" stroke-miterlimit="10"/><path d="M166.47761,115.46212c-1.45904,0.00334 -2.75631,-0.26293 -5.32009,1.58165l-3.59465,0.14379c2.60411,-1.73035 4.63379,-2.34364 9.05853,-2.73194z" fill="#ffffff" fill-rule="nonzero" stroke="#ffffff" stroke-linecap="butt" stroke-linejoin="miter" stroke-miterlimit="10"/><path d="M162.73917,93.8942c-1.89937,1.72296 -5.89036,2.60927 -9.63367,3.59465l0.14379,-0.86272c2.52175,-0.87189 3.26952,0.18005 8.62717,-3.88223z" fill="#ffffff" fill-rule="nonzero" stroke="#ffffff" stroke-linecap="butt" stroke-linejoin="miter" stroke-miterlimit="10"/><path d="M153.53686,86.41732l-2.01301,2.58815l0.43136,-3.01951z" fill="#ffffff" fill-rule="nonzero" stroke="#ffffff" stroke-linecap="butt" stroke-linejoin="miter" stroke-miterlimit="10"/><path d="M159.14451,88.86169c-3.04584,2.88046 -3.12812,2.85329 -6.03902,3.88223c2.13678,-1.86504 2.85943,-2.39017 4.22771,-5.15766z" fill="#ffffff" fill-rule="nonzero" stroke="#ffffff" stroke-linecap="butt" stroke-linejoin="miter" stroke-miterlimit="10"/><path d="M153.46496,85.55461c3.9093,0.60143 7.83804,3.06644 10.56828,8.23176c2.73024,5.16532 4.31685,12.98317 3.73844,24.55148v0.57514h-2.01301l0.05751,-0.57514c0.57187,-11.43747 -0.19961,-19.14852 -2.78945,-24.04823c-2.58985,-4.89971 -6.29615,-6.92083 -9.86373,-7.46969l-1.97223,-0.31454l0.08858,-1.63584z" fill="#000000" fill-rule="evenodd" stroke="none" stroke-linecap="square" stroke-linejoin="miter" stroke-miterlimit="4"/></g></g></svg>