<svg version="1.1" xmlns="http://www.w3.org/2000/svg" xmlns:xlink="http://www.w3.org/1999/xlink" width="37.9436" height="37.89601" viewBox="0,0,37.9436,37.89601"><g transform="translate(-221.02821,-161.05202)"><g><path d="M239.98085,165.23997c11.90006,1.13334 18.70009,9.06671 18.13342,32.86682h-26.06679c0,-10.20005 11.33339,-7.3667 9.06671,-23.80011" fill="#ffffff" fill-rule="evenodd" stroke="#303042" stroke-width="1.5" stroke-linecap="round" stroke-linejoin="miter" stroke-miterlimit="4"/><path d="M242.24753,174.30669c0.43572,3.29946 -6.29336,8.35115 -9.06671,10.20005c-3.40002,2.26668 -3.19511,4.92197 -5.66669,4.53335c-1.18062,-1.06989 1.60189,-3.44257 0,-3.40002c-1.13334,0 0.21231,1.39596 -1.13334,2.26668c-1.13334,0 -4.53694,1.13334 -4.53335,-4.53335c0,-2.26668 6.80003,-13.60006 6.80003,-13.60006c0,0 2.13732,-2.15576 2.26668,-3.96669c-0.82286,-1.12696 -0.56667,-2.26668 -0.56667,-3.40002c1.13334,-1.13334 3.40002,2.83335 3.40002,2.83335h2.26668c0,0 0.88602,-2.25753 2.83335,-3.40002c1.13334,0 1.13334,3.40002 1.13334,3.40002" fill="#ffffff" fill-rule="evenodd" stroke="#303042" stroke-width="1.5" stroke-linecap="round" stroke-linejoin="round" stroke-miterlimit="4"/><path d="M224.68078,182.80673c0,-0.31296 0.25371,-0.56667 0.56667,-0.56667c0.31296,0 0.56667,0.25371 0.56667,0.56667c0,0.31296 -0.25371,0.56667 -0.56667,0.56667c-0.31296,0 -0.56667,-0.25371 -0.56667,-0.56667z" fill="#2b2b3c" fill-rule="nonzero" stroke="#303042" stroke-width="1.5" stroke-linecap="round" stroke-linejoin="round" stroke-miterlimit="4"/><path d="M230.99006,171.19c0.46944,-0.8131 1.06972,-1.3454 1.34075,-1.18892c0.27103,0.15648 0.11019,0.94248 -0.35925,1.75558c-0.46944,0.8131 -1.06972,1.3454 -1.34075,1.18892c-0.27103,-0.15648 -0.11019,-0.94248 0.35925,-1.75558z" fill="#2b2b3c" fill-rule="nonzero" stroke="#303042" stroke-width="1.5" stroke-linecap="round" stroke-linejoin="round" stroke-miterlimit="4"/><path d="M243.38087,165.80665c7.3667,1.13334 14.7334,9.63338 13.60006,32.30015" fill="none" fill-rule="evenodd" stroke="#303042" stroke-width="1" stroke-linecap="round" stroke-linejoin="miter" stroke-miterlimit="4"/><path d="M230.42776,173.75097c-1.02314,-0.38445 -0.96415,-1.78816 0.14382,-3.42229c0.29356,-0.43297 0.72468,-0.85096 1.0526,-1.02053c0.30473,-0.15758 0.89528,-0.1424 1.17455,0.0302c0.67704,0.41843 0.6005,1.63733 -0.18543,2.95312c-0.63519,1.06343 -1.57298,1.68968 -2.18554,1.4595z" fill="#000000" fill-rule="nonzero" stroke="none" stroke-width="1" stroke-linecap="butt" stroke-linejoin="miter" stroke-miterlimit="10"/><path d="M224.8062,184.11086c-0.93514,-0.33337 -1.24023,-1.47178 -0.59223,-2.20982c0.2814,-0.3205 0.58013,-0.44894 1.04417,-0.44894c0.7878,0 1.3446,0.55708 1.3446,1.34529c0,0.6437 -0.31702,1.09793 -0.91304,1.30822c-0.37328,0.1317 -0.52622,0.13261 -0.8835,0.00521v0z" fill="#000000" fill-rule="nonzero" stroke="none" stroke-width="1" stroke-linecap="butt" stroke-linejoin="miter" stroke-miterlimit="10"/><path d="M231.20875,198.29281c0.00691,-2.46537 0.52982,-4.31198 1.72967,-6.10774c0.58633,-0.87753 1.21202,-1.57085 3.26393,-3.61671c1.78794,-1.78267 2.54043,-2.77111 3.21715,-4.22594c0.53747,-1.15547 0.91241,-2.58983 1.06028,-4.05619c0.03912,-0.388 0.05945,-0.71715 0.04517,-0.73143c-0.01428,-0.01428 -0.16369,0.12344 -0.33201,0.30604c-0.42857,0.46494 -2.14812,2.01291 -3.03599,2.73305c-0.99766,0.80919 -1.70105,1.33671 -3.02113,2.26576c-1.68039,1.18264 -2.1087,1.59773 -3.35435,3.25082c-0.97769,1.29749 -1.57994,1.69941 -2.62971,1.75499c-0.37141,0.01966 -0.71156,-0.00071 -0.86657,-0.05184c-0.29522,-0.09743 -0.72549,-0.56535 -0.79002,-0.85915l-0.04435,-0.20189l-1.00426,0.04258c-0.80884,0.0343 -1.09385,0.0197 -1.46468,-0.07503c-1.37921,-0.35234 -2.28656,-1.32775 -2.68527,-2.88671c-0.18207,-0.7119 -0.3143,-2.11025 -0.25336,-2.67934c0.10216,-0.95398 0.65198,-2.31682 2.05835,-5.10199c1.01751,-2.0151 2.26029,-4.28728 3.78709,-6.92396c0.71378,-1.23265 1.13738,-1.87401 1.68421,-2.55001c0.7265,-0.89812 1.42984,-2.11306 1.42984,-2.46989c0,-0.08309 -0.07554,-0.32237 -0.16786,-0.53175c-0.26006,-0.58981 -0.32798,-1.04385 -0.32798,-2.19271c0,-1.24281 0.05909,-1.44905 0.49852,-1.73985c0.43823,-0.29001 1.05053,-0.31723 1.58913,-0.07065c0.6257,0.28646 1.59997,1.28698 2.33765,2.40064l0.26979,0.40729h0.66289c0.36459,0 0.66289,-0.02696 0.66289,-0.05991c0,-0.03295 0.22111,-0.3947 0.49135,-0.80388c0.55177,-0.83546 1.37069,-1.6934 2.05791,-2.15598c0.38406,-0.25852 0.51559,-0.30941 0.7997,-0.30941c0.95224,0 1.52561,0.80877 1.78896,2.52341c0.06508,0.42369 0.12845,0.80621 0.14084,0.85003c0.01239,0.04382 0.20834,0.10205 0.43544,0.12941c1.25781,0.15148 3.1552,0.60308 4.48585,1.06769c0.97025,0.33877 2.69306,1.18318 3.54168,1.73591c3.20756,2.08914 5.54482,5.22802 7.16644,9.62432c1.40659,3.81335 2.20936,8.63132 2.46783,14.81104c0.07699,1.84068 0.09344,6.47135 0.02448,6.88857l-0.04391,0.26563h-13.83871h-13.83871l0.00181,-0.65521zM256.5295,195.17613c0.05425,-2.1966 -0.03241,-5.19441 -0.21158,-7.31824c-0.62242,-7.37813 -2.47447,-13.11835 -5.43063,-16.83158c-1.97626,-2.48238 -5.29385,-4.12626 -9.69282,-4.80283c-0.52594,-0.08089 -1.07486,-0.15766 -1.21982,-0.17059c-0.54958,-0.04904 -0.83401,-0.43081 -0.83478,-1.12045c-0.00057,-0.48667 -0.18671,-1.71731 -0.28859,-1.90767c-0.07546,-0.14099 -0.10188,-0.12604 -0.53552,0.30302c-0.52915,0.52356 -1.03315,1.22844 -1.39786,1.95498c-0.37837,0.75377 -0.3918,0.75916 -1.95344,0.78355c-1.66449,0.02601 -1.61568,0.04752 -2.33787,-1.03057c-0.5491,-0.81969 -1.29856,-1.71705 -1.43407,-1.71705c-0.0517,0 -0.06408,0.19771 -0.03826,0.61149c0.03265,0.52328 0.07634,0.68673 0.30286,1.13301c0.24717,0.48696 0.26235,0.55323 0.22907,0.99997c-0.07084,0.95108 -0.71244,2.201 -1.84541,3.59513c-1.43126,1.76118 -5.99681,10.19214 -6.88677,12.71745l-0.26112,0.74094l0.03981,0.92084c0.0722,1.67027 0.50654,2.62619 1.35362,2.97915c0.34703,0.14459 1.82305,0.16582 1.9884,0.02861c0.07242,-0.0601 0.10313,-0.23544 0.10341,-0.59037c0.00052,-0.67201 0.10788,-1.02332 0.39565,-1.29472c0.38393,-0.36209 1.1526,-0.45414 1.65813,-0.19856c0.42223,0.21346 0.68922,0.75389 0.60432,1.22323c-0.02596,0.14355 -0.20444,0.61748 -0.3966,1.05317c-0.37189,0.84318 -0.42352,1.0577 -0.23734,0.98626c0.06162,-0.02365 0.14202,-0.043 0.17867,-0.043c0.12638,0 0.70545,-0.58931 1.10664,-1.12621c1.15422,-1.54464 1.9125,-2.30501 3.20014,-3.20895c3.95705,-2.77791 6.55365,-5.10848 7.86635,-7.06043c0.52867,-0.78611 0.80024,-1.45811 0.83364,-2.06281c0.03576,-0.64722 0.1189,-0.88127 0.37882,-1.06635c0.42394,-0.30187 0.95201,-0.14489 1.22128,0.36305c0.24874,0.46922 0.05426,1.61917 -0.45066,2.66475c-0.27323,0.5658 -0.28019,0.59919 -0.28036,1.34584c-0.00064,2.83212 -0.47566,5.24928 -1.41647,7.20774c-0.75756,1.57698 -1.50287,2.52472 -3.9015,4.96114c-1.07445,1.09138 -2.1443,2.24205 -2.37744,2.55705c-0.82437,1.11379 -1.34986,2.37067 -1.55213,3.71242c-0.05582,0.37027 -0.10167,0.69712 -0.1019,0.72634c-0.00021,0.02922 5.30314,0.05312 11.78527,0.05312h11.78569l0.05118,-2.07188v0z" fill="#000000" fill-rule="nonzero" stroke="none" stroke-width="1" stroke-linecap="butt" stroke-linejoin="miter" stroke-miterlimit="10"/><path d="M243.6642,197.82346c4.18183,-3.24258 7.90736,-4.40709 14.02506,-4.67502l0.28333,1.70001c-4.55465,1.26791 -4.91132,-1.68433 -9.91671,2.69168z" fill="#000000" fill-rule="nonzero" stroke="#000000" stroke-width="1" stroke-linecap="butt" stroke-linejoin="miter" stroke-miterlimit="10"/><path d="M234.88083,198.1068c5.6437,-8.03598 17.13426,-9.91923 22.5251,-10.05838l0.14167,1.41667c-10.01614,0.72452 -13.77538,2.19019 -19.55009,8.2167z" fill="#000000" fill-rule="nonzero" stroke="#000000" stroke-width="1" stroke-linecap="butt" stroke-linejoin="miter" stroke-miterlimit="10"/><path d="M241.53919,180.11505c5.81252,-1.20391 10.38023,-1.06824 13.4584,-3.40002c0.425,-0.50039 0.425,0.79755 0.85,2.12501c-5.33791,0.59697 -9.0533,2.51173 -14.16673,2.55001c0.09152,-1.14798 -0.57561,-1.83915 -0.14167,-1.27501z" fill="#000000" fill-rule="nonzero" stroke="#000000" stroke-width="1" stroke-linecap="butt" stroke-linejoin="miter" stroke-miterlimit="10"/><path d="M242.67253,175.72336c2.57289,-1.63563 7.99036,-1.63365 9.06671,-4.39169l1.27501,1.55834c-1.60556,1.79445 -6.5167,1.55834 -10.76672,3.68335z" fill="#000000" fill-rule="nonzero" stroke="#000000" stroke-width="1" stroke-linecap="butt" stroke-linejoin="miter" stroke-miterlimit="10"/><path d="M249.7559,168.92333l-4.10835,1.55834l2.26668,-3.11668z" fill="#000000" fill-rule="nonzero" stroke="#000000" stroke-width="1" stroke-linecap="butt" stroke-linejoin="miter" stroke-miterlimit="10"/><path d="M243.6642,165.66498l-1.55834,3.11668l-0.85,-3.40002c5.22746,0.70978 1.54174,0.24446 2.40834,0.28333z" fill="#000000" fill-rule="nonzero" stroke="#000000" stroke-width="1" stroke-linecap="butt" stroke-linejoin="miter" stroke-miterlimit="10"/><path d="M257.40593,184.36507c-11.69858,0.72722 -17.19932,3.41166 -21.81677,6.37503l4.95836,-5.38336c6.40865,0.08084 11.199,-1.45662 16.15007,-2.83335z" fill="#000000" fill-rule="nonzero" stroke="#000000" stroke-width="1" stroke-linecap="butt" stroke-linejoin="miter" stroke-miterlimit="10"/></g></g></svg>