<svg version="1.1" xmlns="http://www.w3.org/2000/svg" xmlns:xlink="http://www.w3.org/1999/xlink" width="28.1641" height="35.9593" viewBox="0,0,28.1641,35.9593"><g transform="translate(-225.91795,-162.02035)"><g stroke="#000000"><path d="M229.38627,190.25263v-17.6411h21.69821v17.6411z" fill="#ffffff" fill-rule="evenodd" stroke-width="1.5" stroke-linecap="butt" stroke-linejoin="round" stroke-miterlimit="4"/><path d="M229.3389,173.33553c0,-5.83498 4.85732,-10.56518 10.84911,-10.56518c5.99179,0 10.84911,4.73021 10.84911,10.56518" fill="#ffffff" fill-rule="nonzero" stroke-width="1.5" stroke-linecap="butt" stroke-linejoin="miter" stroke-miterlimit="10"/><path d="M229.55205,172.84134h20.82338" fill="none" fill-rule="nonzero" stroke-width="1.2" stroke-linecap="round" stroke-linejoin="miter" stroke-miterlimit="10"/><path d="M240.23322,163.04211c0,0 -0.35773,2.86457 -3.76462,6.12846c-3.72667,3.57027 -6.86756,3.52378 -6.86756,3.52378" fill="none" fill-rule="nonzero" stroke-width="1" stroke-linecap="round" stroke-linejoin="miter" stroke-miterlimit="10"/><path d="M250.84974,173.01773c0,0 -3.14089,0.04648 -6.86756,-3.52378c-3.40688,-3.26389 -3.76462,-6.12846 -3.76462,-6.12846" fill="none" fill-rule="nonzero" stroke-width="1" stroke-linecap="round" stroke-linejoin="miter" stroke-miterlimit="10"/><path d="M247.89555,173.26016c0,6.59189 -3.4613,11.9357 -7.73103,11.9357c-4.26973,0 -7.73103,-5.34382 -7.73103,-11.9357" fill="#ffffff" fill-rule="nonzero" stroke-width="1.5" stroke-linecap="butt" stroke-linejoin="miter" stroke-miterlimit="10"/><path d="M240.03723,179.10873c0,0 -1.28753,-0.02668 -1.78981,-0.03593c-0.05305,-2.03293 1.78981,-6.24308 1.78981,-6.24308v-9.39565" fill="none" fill-rule="nonzero" stroke-width="1.2" stroke-linecap="round" stroke-linejoin="miter" stroke-miterlimit="10"/><path d="M226.74048,197.22965v-5.71959h26.59157v5.71959z" fill="#ffffff" fill-rule="evenodd" stroke-width="1.5" stroke-linecap="butt" stroke-linejoin="round" stroke-miterlimit="4"/><path d="M237.17647,197.22965l5.71959,-5.71959" fill="none" fill-rule="nonzero" stroke-width="1.5" stroke-linecap="round" stroke-linejoin="miter" stroke-miterlimit="10"/><path d="M226.66795,191.31231c7.31268,-7.62612 19.27889,-7.62612 26.59157,0" fill="#ffffff" fill-rule="evenodd" stroke-width="1.5" stroke-linecap="round" stroke-linejoin="round" stroke-miterlimit="4"/></g></g></svg>