<svg version="1.1" xmlns="http://www.w3.org/2000/svg" xmlns:xlink="http://www.w3.org/1999/xlink" width="36.8275" height="32.07131" viewBox="0,0,36.8275,32.07131"><g transform="translate(-221.4621,-164.30525)"><g fill="#ffffff" stroke="#000000" stroke-miterlimit="10"><path d="M249.33881,186.31707c0,0 0.93489,-1.25917 2.19782,-0.41723c1.26294,0.84194 0.41962,2.11584 0.41962,2.11584l-0.50224,0.7025c-0.2688,0.26876 -1.67376,1.69651 -1.86678,1.80394c-1.36873,0.76164 -3.0419,0.53956 -4.52821,0.53737c-1.09997,-0.00162 -3.01946,0.07493 -4.03322,-0.21598c-0.53687,-0.1541 -0.95035,-0.62053 -1.45573,-0.85829c-0.43648,-0.20537 -0.98611,-0.19388 -1.37463,-0.47977c-0.40249,-0.2962 -0.57701,-0.83203 -0.90697,-1.20736c-1.20646,-1.37233 -2.62736,-2.36181 -2.97376,-4.32934c-0.11293,-0.64142 0.0989,-1.30806 0.14686,-1.95758c0,0 0.15613,-1.51915 1.66645,-1.36809c1.51032,0.15102 1.43648,1.71319 1.43648,1.71319c-0.05577,0.38833 -0.21149,0.7685 -0.16376,1.15792c0.13244,1.08175 1.76083,2.15662 2.32453,2.83525c0.16048,0.19319 0.13675,0.51558 0.34147,0.661c0.22432,0.15935 0.55883,0.02882 0.80868,0.14401c0.38238,0.17624 0.62964,0.56731 1.03238,0.68999c0.77438,0.23598 2.26192,0.10115 3.106,0.09977c0.60511,-0.00097 2.35522,0.30846 2.95366,-0.08428c0.50761,-0.33315 0.82049,-0.8797 1.24981,-1.30903l0.12153,-0.23382z" stroke-width="0.75"/><path d="M238.65346,176.42085c0,-0.8383 0.72609,-1.56439 1.56439,-1.56439c0.83826,0 1.56439,0.72609 1.56439,1.56439c0,0.8383 -0.72613,1.56439 -1.56439,1.56439c-0.8383,0 -1.56439,-0.72609 -1.56439,-1.56439z" stroke-width="0.75"/><path d="M252.66431,180.1571c0,-0.8383 0.72613,-1.56439 1.56439,-1.56439c0.8383,0 1.56439,0.72609 1.56439,1.56439c0,0.8383 -0.72609,1.56439 -1.56439,1.56439c-0.83826,0 -1.56439,-0.72609 -1.56439,-1.56439z" stroke-width="0.75"/><path d="M255.83219,182.32534c-0.68671,1.29685 -1.33182,3.18424 -2.26535,4.35743c-0.4271,0.53671 -0.99745,0.94471 -1.4492,1.46085c-1.97987,2.26207 -3.72669,4.97433 -6.82436,5.93032c-0.57556,0.17765 -1.20391,0.04817 -1.80624,0.05508c-2.07508,0.02388 -4.06815,2.15821 -6.01897,1.28989c-0.75345,-0.33539 -3.55662,-0.75941 -4.29348,-1.12976c-0.60957,-0.3064 0.05751,-2.84667 -0.50838,-3.22771c-0.53821,-0.36246 -0.85404,-0.97874 -1.31563,-1.43479c-0.13511,-0.13349 -2.52562,-2.191 -2.75188,-2.69375c-0.33076,-0.7349 -0.44134,-1.46787 -0.4756,-2.21058c-0.55719,0.32508 -1.06188,0.77694 -1.68225,0.94931c-0.58715,0.16316 -1.24237,0.17842 -1.82805,0.01028c-3.51618,-1.00963 -2.42317,-6.30873 -1.37444,-8.88445c0.74066,-1.81903 1.64894,-3.80117 2.87047,-5.36916c0.49259,-0.63232 1.23143,-1.0338 1.77126,-1.62632c0.2907,-0.31903 0.41419,-0.78289 0.74723,-1.05743c0.44766,-0.3691 1.02553,-0.54303 1.53371,-0.82308c2.01299,-1.10937 3.91183,-2.00971 6.05106,-2.86622c2.95114,-1.19218 6.44979,-0.5926 9.45962,0.0735c0.43398,0.09605 0.90419,0.05214 1.3149,0.22225c1.49154,0.61783 2.04853,1.96102 3.23601,2.9016c0.32061,0.25391 2.2537,1.52921 2.65202,1.87273c1.33085,1.14785 1.90337,2.45195 2.86788,3.81069c0.0767,0.09338 0.1481,0.19165 0.21634,0.29272c0.52011,0.67579 1.12471,1.29017 1.58074,2.01031c0,0 0.68372,1.09394 -0.218,1.89516c-0.17232,0.2517 -0.446,0.47604 -0.88066,0.55382c-0.00163,1.19983 -0.47384,2.56694 -0.60877,3.63729zM240.21785,177.93869c0.83826,0 1.51784,-0.67954 1.51784,-1.51784c0,-0.8383 -0.67959,-1.51784 -1.51784,-1.51784c-0.8383,0 -1.51784,0.67954 -1.51784,1.51784c0,0.8383 0.67954,1.51784 1.51784,1.51784zM254.2287,181.67494c0.8383,0 1.51784,-0.67954 1.51784,-1.51784c0,-0.8383 -0.67954,-1.51784 -1.51784,-1.51784c-0.83826,0 -1.51784,0.67954 -1.51784,1.51784c0,0.8383 0.67959,1.51784 1.51784,1.51784zM249.38523,186.3206l-0.12171,0.23569c-0.42933,0.42933 -0.74561,0.98871 -1.25321,1.32186c-0.59844,0.39274 -2.36141,0.1007 -2.96652,0.10167c-0.84408,0.00138 -2.38771,0.13912 -3.1621,-0.09686c-0.40273,-0.12268 -0.66473,-0.52999 -1.04711,-0.70623c-0.24986,-0.11519 -0.58727,0.0089 -0.81159,-0.15045c-0.20472,-0.14543 -0.18332,-0.47721 -0.3438,-0.6704c-0.56371,-0.67862 -2.18922,-1.77722 -2.32165,-2.85897c-0.04772,-0.38942 0.11156,-0.77669 0.16733,-1.16502c0,0 0.15106,-1.51032 -1.35926,-1.66134c-1.51032,-0.15106 -1.66138,1.35926 -1.66138,1.35926c-0.04797,0.64951 -0.2569,1.30712 -0.14397,1.94855c0.34639,1.96753 1.76483,2.92977 2.9713,4.3021c0.32996,0.37533 0.49915,0.90156 0.90165,1.19777c0.38853,0.28588 0.93139,0.2669 1.36788,0.47227c0.50538,0.23775 0.90686,0.69642 1.44373,0.85052c1.01376,0.29091 2.89901,0.21287 3.99898,0.21449c1.48631,0.00219 3.13725,0.24063 4.50598,-0.521c0.19303,-0.10743 1.59151,-1.52291 1.86031,-1.79167l0.50101,-0.69837c0,0 0.84194,-1.26292 -0.42099,-2.10487c-1.26292,-0.84194 -2.10487,0.42099 -2.10487,0.42099z" stroke-width="1.5"/></g></g></svg>