<svg version="1.1" xmlns="http://www.w3.org/2000/svg" xmlns:xlink="http://www.w3.org/1999/xlink" width="34.5" height="34.5" viewBox="0,0,34.5,34.5"><g transform="translate(-222.75,-162.75)"><g stroke="#000000" stroke-width="1.5" stroke-miterlimit="10"><path d="M223.5,180c0,-9.1127 7.3873,-16.5 16.5,-16.5c9.1127,0 16.5,7.3873 16.5,16.5c0,9.1127 -7.3873,16.5 -16.5,16.5c-9.1127,0 -16.5,-7.3873 -16.5,-16.5z" fill="#ffffff" stroke-linecap="butt"/><path d="M227.19141,180.5635l5.07136,-6.95021l5.07707,6.95804" fill="#ffffff" stroke-linecap="round"/><path d="M242.66015,180.79138l5.07137,-6.95021l5.07707,6.95804" fill="#ffffff" stroke-linecap="round"/><path d="M244.03655,184.14121c0,0 1.31219,2.8607 -0.69988,3.65039c-1.71892,0.67463 -2.45848,-0.61668 -3.33919,-2.01758c-0.79837,1.42141 -1.74234,2.61522 -3.20911,1.89497c-2.26878,-1.11407 -0.74401,-3.61372 -0.74401,-3.61372" fill="none" stroke-linecap="round"/></g></g></svg>