<svg version="1.1" xmlns="http://www.w3.org/2000/svg" xmlns:xlink="http://www.w3.org/1999/xlink" width="41.54837" height="25.87328" viewBox="0,0,41.54837,25.87328"><g transform="translate(-219.22113,-167.09885)"><g stroke-linecap="round"><path d="" fill="#ffdc00" stroke="none" stroke-width="3.5"/><path d="" fill="#ffdc00" stroke="#000000" stroke-width="1"/><path d="" fill="#ffdc00" stroke="none" stroke-width="1"/><path d="M225.92861,192.09689l-2.00975,-4.62371h-3.94773v-2.3841h10.76653l0.86132,2.3841h23.32749l5.09615,-4.04574c0,0 0.39203,4.28197 -5.03365,8.54445c-0.05659,0.04445 -0.74756,0.25 -0.74756,0.25l-28.17853,-0.0625" fill="#ffffff" stroke="#000000" stroke-width="1.5"/><path d="M225.28261,184.85461v0l17.44178,-17.0765l14.85782,17.67219" fill="none" stroke="#000000" stroke-width="0.8"/><path d="M242.72439,167.84885v19.16885" fill="none" stroke="#000000" stroke-width="1.5"/><path d="M235.36201,184.08739l-0.83591,0.00673c-0.13912,-0.05575 1.79885,-6.63517 -2.00532,-12.54548h0.19517c0.26695,0 17.56518,0 17.56518,0h0.07177c3.80418,5.91031 1.77427,12.54548 1.77427,12.54548z" fill="#ffffff" stroke="#000000" stroke-width="1.5"/></g></g></svg>