<svg version="1.1" xmlns="http://www.w3.org/2000/svg" xmlns:xlink="http://www.w3.org/1999/xlink" width="28.00011" height="28.00009" viewBox="0,0,28.00011,28.00009"><g transform="translate(-225.99995,-165.99996)"><g fill="#000000" stroke="#000000" stroke-width="0" stroke-miterlimit="10"><path d="M238.23352,181.88868c-1.29962,-0.70951 -6.12157,-4.47794 -1.41388,-11.70778c3.26504,-5.01428 8.38074,-4.11894 8.38074,-4.11894c0,0 -4.59336,1.99366 -4.61434,7.31626c-0.01022,2.5886 4.34891,6.63695 3.32535,8.23045c0,0 -1.65646,2.47545 -5.67785,0.28004z"/><path d="M241.88868,181.76651c-0.70951,1.29962 -4.47794,6.12157 -11.70778,1.41387c-5.01428,-3.26504 -4.11895,-8.38074 -4.11895,-8.38074c0,0 1.99366,4.59335 7.31626,4.61434c2.58858,0.01022 6.63695,-4.34891 8.23044,-3.32535c0,0 2.47545,1.65646 0.28004,5.67785z"/><path d="M241.76651,178.11134c1.29962,0.70951 6.12157,4.47794 1.41387,11.70778c-3.26504,5.01428 -8.38074,4.11894 -8.38074,4.11894c0,0 4.59336,-1.99366 4.61434,-7.31626c0.01022,-2.5886 -4.34891,-6.63695 -3.32535,-8.23045c0,0 1.65646,-2.47545 5.67785,-0.28004z"/><path d="M238.11134,178.23352c0.70951,-1.29962 4.47794,-6.12157 11.70778,-1.41387c5.01428,3.26504 4.11895,8.38071 4.11895,8.38071c0,0 -1.99366,-4.59335 -7.31626,-4.61434c-2.58858,-0.01022 -6.63695,4.34891 -8.23044,3.32535c0,0 -2.47545,-1.65646 -0.28004,-5.67785z"/><path d="M240.0864,182.58459c-1.42067,0.41728 -7.49499,1.16223 -9.27842,-7.27888c-1.2369,-5.85436 3.01352,-8.83861 3.01352,-8.83861c0,0 -1.83825,4.65772 1.91054,8.43621c1.82319,1.83764 7.76817,1.61788 8.17118,3.46842c0,0 0.57911,2.92171 -3.81682,4.21286z"/><path d="M242.58459,179.91362c0.41728,1.42067 1.16223,7.49499 -7.27888,9.27842c-5.85436,1.2369 -8.83861,-3.01352 -8.83861,-3.01352c0,0 4.65772,1.83825 8.43621,-1.91054c1.83764,-1.82319 1.61788,-7.76817 3.46842,-8.17118c0,0 2.92171,-0.57911 4.21286,3.81682z"/><path d="M239.91362,177.41543c1.42067,-0.41728 7.49499,-1.16223 9.27842,7.27888c1.2369,5.85436 -3.01352,8.83861 -3.01352,8.83861c0,0 1.83825,-4.65772 -1.91054,-8.43621c-1.82319,-1.83764 -7.76817,-1.61788 -8.17118,-3.46842c0,0 -0.57911,-2.92171 3.81682,-4.21286z"/><path d="M237.41543,180.0864c-0.41728,-1.42067 -1.16223,-7.49499 7.27888,-9.27842c5.85436,-1.2369 8.83861,3.01352 8.83861,3.01352c0,0 -4.65772,-1.83825 -8.43621,1.91054c-1.83764,1.82319 -1.61788,7.76817 -3.46842,8.17118c0,0 -2.92171,0.57911 -4.21286,-3.81682z"/></g></g></svg>