<svg version="1.1" xmlns="http://www.w3.org/2000/svg" xmlns:xlink="http://www.w3.org/1999/xlink" width="28.00011" height="28.00009" viewBox="0,0,28.00011,28.00009"><g transform="translate(-235.99994,-235.99995)"><g fill-opacity="0.2" fill="#000000" stroke="#000000" stroke-width="0" stroke-miterlimit="10"><path d="M246.81963,240.18089c3.26504,-5.01428 8.38074,-4.11894 8.38074,-4.11894c0,0 -3.98121,1.72797 -4.54767,6.26135c1.0299,-0.62925 2.35166,-1.15828 4.0416,-1.51533c5.85436,-1.2369 8.83861,3.01352 8.83861,3.01352c0,0 -4.03703,-1.59328 -7.64319,1.21179c1.17321,0.2833 2.48193,0.84384 3.92939,1.78636c5.01428,3.26504 4.11895,8.38071 4.11895,8.38071c0,0 -1.72797,-3.98121 -6.26138,-4.54767c0.62925,1.02991 1.15829,2.35166 1.51535,4.04162c1.2369,5.85436 -3.01352,8.83861 -3.01352,8.83861c0,0 1.59328,-4.03702 -1.21179,-7.64318c-0.28331,1.1732 -0.84384,2.48192 -1.78635,3.92938c-3.26504,5.01428 -8.38074,4.11894 -8.38074,4.11894c0,0 3.98121,-1.72797 4.54767,-6.26135c-1.0299,0.62925 -2.35166,1.15828 -4.0416,1.51533c-5.85436,1.2369 -8.83861,-3.01352 -8.83861,-3.01352c0,0 4.03702,1.59328 7.64318,-1.21179c-1.1732,-0.28331 -2.48192,-0.84384 -3.92938,-1.78635c-5.01428,-3.26504 -4.11895,-8.38074 -4.11895,-8.38074c0,0 1.72797,3.9812 6.26136,4.54767c-0.62925,-1.0299 -1.15828,-2.35166 -1.51533,-4.0416c-1.2369,-5.85436 3.01352,-8.83861 3.01352,-8.83861c0,0 -1.59328,4.03702 1.21179,7.64318c0.2833,-1.1732 0.84384,-2.48192 1.78635,-3.92938z"/></g></g></svg>